<svg width="270" height="271" viewBox="0 0 270 271" fill="none" xmlns="http://www.w3.org/2000/svg">
<path d="M142.551 192.832H127.448V238.409H142.551V192.832Z" fill="url(#paint0_linear_1290_23073)"/>
<path d="M135.001 200.116C173.771 200.116 205.2 165.213 205.2 122.158C205.2 79.1031 173.771 44.2002 135.001 44.2002C96.231 44.2002 64.8018 79.1031 64.8018 122.158C64.8018 165.213 96.231 200.116 135.001 200.116Z" fill="url(#paint1_linear_1290_23073)"/>
<path d="M135 118.294C137.922 118.294 140.291 116.52 140.291 114.331C140.291 112.142 137.922 110.368 135 110.368C132.078 110.368 129.709 112.142 129.709 114.331C129.709 116.52 132.078 118.294 135 118.294Z" fill="#FBFBFB"/>
<path fill-rule="evenodd" clip-rule="evenodd" d="M120.386 125.918V122.973H117.866V128.438H152.133V122.973H149.613V125.918H120.386Z" fill="#333333"/>
<path fill-rule="evenodd" clip-rule="evenodd" d="M122.057 110.255H118.097V115.047H122.057V110.255Z" fill="#333333"/>
<path fill-rule="evenodd" clip-rule="evenodd" d="M151.906 110.255H147.946V115.047H151.906V110.255Z" fill="#333333"/>
<path d="M112.269 87.4218H104.509L109.992 81.9388L107.49 79.4519L102.007 84.935V77.1748H98.4865V84.935L92.9885 79.4519L90.5017 81.9388L95.9847 87.4218H88.2246V90.9573H95.9847L90.5017 96.4404L92.9885 98.9422L98.4865 93.4591V101.204H102.007V93.4591L107.49 98.9422L109.992 96.4404L104.509 90.9573H112.269V87.4218Z" fill="#FBFBFB"/>
<path d="M233.704 17.8339C233.452 15.8517 233.605 13.9814 234.05 12.575C232.879 13.475 231.171 14.2584 229.221 14.6992C227.279 15.138 225.48 15.1502 224.153 14.8186C224.917 15.9519 225.52 17.6465 225.769 19.623C226.019 21.6064 225.865 23.4784 225.418 24.8869C226.588 23.9883 228.295 23.2069 230.244 22.7679C232.2 22.3274 234.011 22.3204 235.339 22.6605C234.567 21.5275 233.956 19.8231 233.704 17.8339" stroke="#A0A0A0"/>
<path d="M221.321 29.78L194.79 60.57" stroke="#A0A0A0" stroke-width="0.8"/>
<path d="M39.6416 55.1396L62.0448 76.7323" stroke="#A0A0A0" stroke-dasharray="2 2"/>
<circle cx="31.4065" cy="46.585" r="5.87482" transform="rotate(10.4139 31.4065 46.585)" stroke="#A0A0A0"/>
<circle cx="30.2211" cy="83.2763" r="4.52598" transform="rotate(-62.6025 30.2211 83.2763)" fill="#C5C5C5"/>
<path d="M38.3491 87.4895L52.3831 95.3143" stroke="#A0A0A0" stroke-width="0.8"/>
<circle cx="222.004" cy="196.799" r="5.44115" transform="rotate(10.4139 222.004 196.799)" stroke="#A0A0A0"/>
<defs>
<linearGradient id="paint0_linear_1290_23073" x1="126.108" y1="202.366" x2="150.053" y2="229.863" gradientUnits="userSpaceOnUse">
<stop offset="0.140625" stop-color="#FBBD90"/>
<stop offset="1" stop-color="#DE7756"/>
</linearGradient>
<linearGradient id="paint1_linear_1290_23073" x1="91.7575" y1="58.6027" x2="207.491" y2="139.663" gradientUnits="userSpaceOnUse">
<stop offset="0.09375" stop-color="#94FDAB"/>
<stop offset="1" stop-color="#09C497"/>
</linearGradient>
</defs>
</svg>
