<svg width="312" height="320" viewBox="0 0 312 320" fill="none" xmlns="http://www.w3.org/2000/svg">
<g clip-path="url(#clip0_1290_49090)">
<rect width="312" height="320" rx="10" fill="url(#paint0_linear_1290_49090)"/>
<path d="M81.866 38.151C81.3969 34.7773 77.8789 32.1976 73.6575 32.1976C72.4847 32.1976 71.5467 32.3959 70.6087 32.7929C68.498 30.0145 64.7457 28.2285 60.7586 28.2285C54.192 28.2285 49.0319 32.5942 49.0319 38.1512V38.3495C45.0448 38.7465 41.9961 41.7232 41.9961 45.0966C41.9965 48.8673 45.7488 52.0424 50.2047 52.0424H80.6929C85.1487 52.0424 88.9014 48.8673 88.9014 45.0966C88.9014 41.5245 85.8527 38.7465 81.8656 38.1512L81.866 38.151Z" fill="url(#paint1_linear_1290_49090)" fill-opacity="0.9"/>
<path d="M313.908 79.2772C312.967 71.6739 305.917 65.8601 297.456 65.8601C295.105 65.8601 293.226 66.307 291.346 67.2018C287.115 60.9402 279.595 56.915 271.604 56.915C258.443 56.915 248.101 66.754 248.101 79.2776V79.7246C240.11 80.6193 234 87.3279 234 94.9304C234.001 103.428 241.521 110.584 250.452 110.584H311.556C320.487 110.584 328.008 103.428 328.008 94.9304C328.008 86.8801 321.898 80.6193 313.907 79.2776L313.908 79.2772Z" fill="url(#paint2_linear_1290_49090)" fill-opacity="0.8"/>
<path d="M44.612 72.8804C43.9681 67.8197 39.1401 63.9499 33.3466 63.9499C31.7371 63.9499 30.4498 64.2474 29.1625 64.843C26.2657 60.6752 21.1161 57.9961 15.6442 57.9961C6.63214 57.9961 -0.449523 64.545 -0.449523 72.8807V73.1782C-5.92141 73.7737 -10.1055 78.239 -10.1055 83.2993C-10.1049 88.9556 -4.95526 93.7184 1.15998 93.7184H43.002C49.1172 93.7184 54.2674 88.9556 54.2674 83.2993C54.2674 77.941 50.0833 73.7737 44.6115 72.8807L44.612 72.8804Z" fill="url(#paint3_linear_1290_49090)" fill-opacity="0.6"/>
<path fill-rule="evenodd" clip-rule="evenodd" d="M67.9526 248.684H-54.6602C-58.1923 240.543 -60.1504 231.56 -60.1504 222.121C-60.1504 185.23 -30.2446 155.324 6.64617 155.324C43.5369 155.324 73.4427 185.23 73.4427 222.121C73.4427 231.56 71.4847 240.543 67.9526 248.684Z" fill="url(#paint4_linear_1290_49090)"/>
<path fill-rule="evenodd" clip-rule="evenodd" d="M155.878 248.684H33.2656C29.7335 240.543 27.7754 231.56 27.7754 222.121C27.7754 185.23 57.6812 155.324 94.572 155.324C131.463 155.324 161.369 185.23 161.369 222.121C161.369 231.56 159.41 240.543 155.878 248.684Z" fill="url(#paint5_linear_1290_49090)"/>
<path fill-rule="evenodd" clip-rule="evenodd" d="M391.037 248.684H262.744C259.049 240.166 257 230.768 257 220.891C257 182.291 288.291 151 326.891 151C365.491 151 396.782 182.291 396.782 220.891C396.782 230.768 394.733 240.166 391.037 248.684Z" fill="url(#paint6_linear_1290_49090)"/>
<rect x="-13" y="240" width="333" height="80" fill="url(#paint7_linear_1290_49090)"/>
<path fill-rule="evenodd" clip-rule="evenodd" d="M247.828 214.808C249.09 217.912 249.198 222.045 247.699 227.19C243.977 239.962 234.724 251.377 221.704 260.904C226.526 263.635 232.615 265.362 239.447 265.913C255.503 267.207 275.43 261.951 291.849 248.113L293.218 246.959L286.562 266.651L285.615 266.331L291.136 249.996C274.782 263.171 255.242 268.189 239.367 266.909C232.279 266.338 225.876 264.5 220.818 261.545C219.6 262.417 218.35 263.273 217.069 264.112C201.609 274.246 181.677 281.982 159.63 286.579C77.7222 303.657 32.0737 274.216 19.9699 256.392L20.7971 255.83C32.6113 273.228 77.7938 302.621 159.426 285.6C181.379 281.023 201.188 273.326 216.521 263.276C217.669 262.523 218.792 261.758 219.889 260.979C213.863 257.165 209.946 251.665 209.374 244.757C209.129 241.8 209.03 237.609 210.512 232.59C211.994 227.569 215.049 221.747 221.073 215.508C227.14 209.225 235.255 206.844 241.175 208.724C244.151 209.668 246.561 211.692 247.828 214.808ZM220.766 260.35C214.759 256.655 210.92 251.306 210.371 244.675C210.131 241.782 210.037 237.728 211.471 232.873C212.904 228.018 215.872 222.335 221.793 216.203C227.672 210.115 235.408 207.942 240.872 209.677C243.589 210.539 245.755 212.365 246.902 215.184C248.053 218.016 248.197 221.904 246.739 226.91C243.065 239.52 233.852 250.858 220.766 260.35Z" fill="#919191"/>
<path d="M201.572 290.149H181.172C180.749 290.146 180.342 289.992 180.022 289.714L176.789 286.953C176.701 286.877 176.595 286.825 176.481 286.802C176.367 286.779 176.25 286.786 176.139 286.822C176.029 286.857 175.929 286.921 175.85 287.006C175.771 287.091 175.715 287.195 175.688 287.308L175.164 289.491C175.119 289.68 175.012 289.848 174.86 289.967C174.708 290.087 174.52 290.152 174.327 290.152H166.103C165.875 290.152 165.656 290.061 165.494 289.9C165.333 289.738 165.242 289.518 165.242 289.289C165.242 289.235 165.247 289.18 165.257 289.127L167.765 275.967H188.533L201.572 290.149Z" fill="url(#paint8_linear_1290_49090)"/>
<path d="M84.8912 276.957L72.4796 260.473C72.3014 260.237 72.2134 259.944 72.2317 259.649L72.5089 255.136C72.5195 254.967 72.4627 254.8 72.3508 254.672C72.239 254.544 72.0813 254.466 71.9122 254.455C71.8103 254.449 71.7085 254.468 71.6148 254.508L69.6337 255.374C69.4202 255.467 69.1816 255.485 68.9564 255.426C68.7312 255.366 68.5325 255.233 68.3925 255.046L63.6188 248.705C63.5285 248.586 63.465 248.448 63.4327 248.302C63.4004 248.156 63.4 248.005 63.4316 247.858C63.4632 247.712 63.5259 247.574 63.6156 247.454C63.7053 247.334 63.8197 247.236 63.9511 247.164L75.9423 240.652L88.892 257.929L84.8912 276.957Z" fill="url(#paint9_linear_1290_49090)"/>
<path d="M148.239 146.668H135.743C126.096 146.668 118.276 138.827 118.276 129.154L118.276 87.1109C118.276 77.438 126.096 69.5966 135.743 69.5966H148.239C157.885 69.5966 165.705 77.438 165.705 87.1109V129.154C165.705 138.827 157.885 146.668 148.239 146.668Z" fill="url(#paint10_linear_1290_49090)"/>
<path d="M132.347 75.6602C132.347 75.6602 123.408 79.0535 123.408 87.5144V94.6593" stroke="white" stroke-width="0.627557" stroke-miterlimit="10" stroke-linecap="round"/>
<path d="M116.472 140.648C112.957 140.648 110.108 137.697 110.108 134.053V119.921H122.837V134.053C122.843 137.697 119.991 140.648 116.472 140.648Z" fill="url(#paint11_linear_1290_49090)"/>
<path fill-rule="evenodd" clip-rule="evenodd" d="M218.398 125.459L220.219 107.048C220.231 106.932 220.235 106.815 220.232 106.698C220.216 105.933 219.898 105.204 219.347 104.673C218.796 104.143 218.058 103.853 217.294 103.867L202.185 104.196V97.2407C202.185 91.3481 199.851 85.6968 195.696 81.5301C191.54 77.3633 185.904 75.0225 180.028 75.0225H175.937C174.857 75.0233 173.8 74.7053 172.898 74.1082C171.996 73.511 171.29 72.6612 170.866 71.6643L170.113 69.8877H158.032L157.298 71.6017C156.87 72.5894 156.163 73.4302 155.265 74.0206C154.367 74.6111 153.317 74.9254 152.243 74.9249H146.979C145.764 74.9243 144.556 75.0239 143.365 75.2206C144.596 77.3996 145.779 80.5191 146.562 84.0043C148.03 90.548 147.472 103.953 145.677 112.503C145.355 114.032 144.906 115.491 144.385 116.857C144.653 118.303 145.242 119.871 146.099 120.73C147.301 121.935 148.931 122.611 150.631 122.611H178.761C180.776 122.611 182.708 120.844 184.133 119.415C185.558 117.986 186.359 116.048 186.359 114.028V123.705C186.358 127.826 187.933 131.79 190.759 134.783C193.584 137.775 197.446 139.568 201.55 139.793C205.653 140.017 209.687 138.657 212.821 135.991C215.954 133.325 217.95 129.556 218.398 125.459ZM138.861 76.4655C138.139 76.7503 137.43 77.0737 136.738 77.4349C133.576 79.0856 128.77 87.9401 127.329 92.2835L107.047 148.091C113.33 145.841 121.856 148.541 124.997 154.391L142.373 103.318C143.41 93.812 143.104 84.0874 138.861 76.4655Z" fill="url(#paint12_linear_1290_49090)"/>
<path d="M151.332 126.677H178.043C179.97 126.676 181.825 127.411 183.23 128.733C184.636 130.055 185.486 131.864 185.609 133.793L193.848 262.669C193.925 263.882 193.763 265.099 193.371 266.25C192.979 267.401 192.365 268.463 191.563 269.376C190.762 270.289 189.789 271.034 188.7 271.57C187.612 272.106 186.428 272.421 185.218 272.498C185.022 272.511 184.825 272.517 184.629 272.517H169.424C167.096 272.517 164.854 271.635 163.147 270.047C161.439 268.459 160.393 266.284 160.218 263.956L154.921 193.482C154.921 193.482 142.209 237.867 98.2848 257.184C96.8916 257.796 95.3328 257.917 93.8625 257.526C92.3921 257.136 91.0969 256.258 90.1878 255.036L78.909 239.876C78.016 238.677 77.6227 237.177 77.8122 235.692C78.0016 234.208 78.759 232.856 79.9243 231.921C89.7894 224.004 113.496 203.34 122.322 180.987C130.436 160.442 138.496 141.634 142.464 132.489C143.218 130.76 144.458 129.289 146.033 128.257C147.609 127.224 149.45 126.675 151.332 126.677V126.677Z" fill="url(#paint13_linear_1290_49090)"/>
<path d="M187.794 272.512H167.926V276.365H187.794V272.512Z" fill="white"/>
<path fill-rule="evenodd" clip-rule="evenodd" d="M167.721 272.512C167.721 272.398 167.813 272.307 167.926 272.307H187.794C187.907 272.307 187.999 272.398 187.999 272.512V276.365C187.999 276.478 187.907 276.57 187.794 276.57H167.926C167.813 276.57 167.721 276.478 167.721 276.365V272.512ZM168.131 272.717V276.16H187.589V272.717H168.131Z" fill="url(#paint14_linear_1290_49090)"/>
<path fill-rule="evenodd" clip-rule="evenodd" d="M184.532 276.365V272.512H184.942V276.365H184.532Z" fill="url(#paint15_linear_1290_49090)"/>
<path fill-rule="evenodd" clip-rule="evenodd" d="M181.15 276.365V272.512H181.56V276.365H181.15Z" fill="url(#paint16_linear_1290_49090)"/>
<path fill-rule="evenodd" clip-rule="evenodd" d="M177.768 276.365V272.512H178.178V276.365H177.768Z" fill="url(#paint17_linear_1290_49090)"/>
<path fill-rule="evenodd" clip-rule="evenodd" d="M174.381 276.365V272.512H174.791V276.365H174.381Z" fill="url(#paint18_linear_1290_49090)"/>
<path fill-rule="evenodd" clip-rule="evenodd" d="M171.001 276.365V272.512H171.411V276.365H171.001Z" fill="url(#paint19_linear_1290_49090)"/>
<path d="M78.3893 239.335L75.3545 241.632L87.8672 258.252L90.902 255.955L78.3893 239.335Z" fill="white"/>
<path fill-rule="evenodd" clip-rule="evenodd" d="M75.1907 241.756C75.1226 241.665 75.1406 241.536 75.2309 241.468L78.2657 239.171C78.3559 239.102 78.4844 239.12 78.5525 239.211L91.0652 255.831C91.1333 255.922 91.1153 256.05 91.025 256.119L87.9902 258.416C87.8999 258.484 87.7715 258.466 87.7034 258.376L75.1907 241.756ZM75.641 241.672L87.9071 257.965L90.6149 255.915L78.3488 239.622L75.641 241.672Z" fill="url(#paint20_linear_1290_49090)"/>
<path fill-rule="evenodd" clip-rule="evenodd" d="M80.5015 242.147L77.4683 244.445L77.2207 244.118L80.2539 241.82L80.5015 242.147Z" fill="url(#paint21_linear_1290_49090)"/>
<path fill-rule="evenodd" clip-rule="evenodd" d="M82.6849 244.988L79.6499 247.286L79.4023 246.959L82.4373 244.661L82.6849 244.988Z" fill="url(#paint22_linear_1290_49090)"/>
<path fill-rule="evenodd" clip-rule="evenodd" d="M84.8675 247.839L81.8325 250.136L81.585 249.809L84.62 247.512L84.8675 247.839Z" fill="url(#paint23_linear_1290_49090)"/>
<path fill-rule="evenodd" clip-rule="evenodd" d="M87.0493 250.688L84.0162 252.986L83.7686 252.659L86.8017 250.361L87.0493 250.688Z" fill="url(#paint24_linear_1290_49090)"/>
<path fill-rule="evenodd" clip-rule="evenodd" d="M89.0189 253.53L85.9858 255.826L85.7383 255.499L88.7714 253.203L89.0189 253.53Z" fill="url(#paint25_linear_1290_49090)"/>
<path fill-rule="evenodd" clip-rule="evenodd" d="M163.31 172.682C161.197 178.081 159.182 183.229 157.58 186.34C157.501 186.494 157.312 186.555 157.158 186.475C157.003 186.396 156.943 186.207 157.022 186.053C158.608 182.971 160.602 177.877 162.708 172.498C163.669 170.043 164.653 167.528 165.632 165.118C167.19 161.284 168.735 157.719 170.147 155.11C170.853 153.807 171.533 152.728 172.172 151.971C172.492 151.592 172.81 151.284 173.125 151.068C173.439 150.854 173.77 150.718 174.108 150.718C174.282 150.718 174.422 150.858 174.422 151.032C174.422 151.205 174.282 151.345 174.108 151.345C173.94 151.345 173.732 151.414 173.479 151.587C173.228 151.759 172.951 152.021 172.652 152.376C172.053 153.084 171.397 154.119 170.699 155.409C169.305 157.985 167.771 161.522 166.214 165.354C165.245 167.737 164.267 170.235 163.31 172.682Z" fill="url(#paint26_linear_1290_49090)"/>
<path d="M181.273 122.008H149.177V126.671H181.273V122.008Z" fill="#7BE7FF"/>
<path fill-rule="evenodd" clip-rule="evenodd" d="M148.863 122.008C148.863 121.835 149.004 121.694 149.177 121.694H181.273C181.446 121.694 181.587 121.835 181.587 122.008V126.672C181.587 126.845 181.446 126.985 181.273 126.985H149.177C149.004 126.985 148.863 126.845 148.863 126.672V122.008ZM149.491 122.322V126.358H180.959V122.322H149.491Z" fill="url(#paint27_linear_1290_49090)"/>
<path d="M125.07 153.643C125.07 153.643 122.225 160.139 114.152 162.232C106.079 164.324 99.8902 157.333 99.6505 154.412C99.4107 151.49 102.949 151.59 103.955 153.903C103.955 153.903 107.635 150.161 108.037 148.171C108.438 146.18 122.506 146.007 125.07 153.643Z" fill="#FFDDAF"/>
<path fill-rule="evenodd" clip-rule="evenodd" d="M101.731 157.274C101.629 157.134 101.434 157.103 101.294 157.204C101.154 157.305 101.121 157.502 101.222 157.642L101.477 157.459C101.222 157.642 101.223 157.643 101.223 157.643L101.223 157.643L101.224 157.645L101.227 157.648L101.234 157.658C101.241 157.666 101.249 157.677 101.259 157.69C101.28 157.715 101.31 157.75 101.349 157.79C101.426 157.871 101.541 157.977 101.695 158.086C102.003 158.305 102.468 158.534 103.101 158.593C104.372 158.711 106.227 158.138 108.769 155.67C108.893 155.55 108.896 155.351 108.776 155.226C108.656 155.102 108.457 155.099 108.333 155.22C105.853 157.627 104.17 158.061 103.16 157.967C102.653 157.92 102.291 157.739 102.058 157.573C101.94 157.49 101.855 157.411 101.801 157.354C101.774 157.326 101.755 157.304 101.743 157.29C101.738 157.283 101.734 157.278 101.732 157.275L101.731 157.274Z" fill="url(#paint28_linear_1290_49090)"/>
<path fill-rule="evenodd" clip-rule="evenodd" d="M104.825 160.255C104.939 160.126 105.136 160.113 105.266 160.226L105.268 160.227C105.271 160.229 105.276 160.233 105.283 160.239C105.298 160.251 105.322 160.269 105.355 160.291C105.422 160.336 105.526 160.399 105.666 160.463C105.945 160.59 106.368 160.721 106.928 160.722C108.04 160.724 109.757 160.21 112.008 157.974C112.131 157.851 112.33 157.852 112.452 157.975C112.574 158.098 112.573 158.297 112.45 158.419C110.12 160.734 108.252 161.353 106.925 161.35C106.266 161.349 105.755 161.194 105.406 161.035C105.232 160.955 105.098 160.875 105.005 160.813C104.959 160.782 104.923 160.755 104.898 160.735C104.885 160.725 104.875 160.717 104.867 160.711L104.858 160.703L104.855 160.7L104.854 160.699L104.853 160.699C104.853 160.699 104.853 160.698 105.06 160.463L104.853 160.698C104.723 160.584 104.711 160.385 104.825 160.255Z" fill="url(#paint29_linear_1290_49090)"/>
<path fill-rule="evenodd" clip-rule="evenodd" d="M116.532 159.285C116.66 159.402 116.669 159.601 116.552 159.729C114.728 161.74 112.505 162.335 111.482 162.57C111.313 162.608 111.145 162.503 111.107 162.334C111.068 162.165 111.174 161.996 111.343 161.958C112.329 161.731 114.396 161.173 116.089 159.307C116.205 159.179 116.403 159.169 116.532 159.285Z" fill="url(#paint30_linear_1290_49090)"/>
<path d="M210.738 77.6084H201.117C200.367 77.6084 199.76 78.2175 199.76 78.969V97.3283C199.76 98.0797 200.367 98.6889 201.117 98.6889H210.738C211.487 98.6889 212.094 98.0797 212.094 97.3283V78.969C212.094 78.2175 211.487 77.6084 210.738 77.6084Z" fill="url(#paint31_linear_1290_49090)"/>
<path d="M218.907 103.783C215.65 110.794 209.775 112.12 205.137 111.17L201.294 110.382C200.167 110.053 199.181 109.355 198.495 108.4C197.81 107.444 197.463 106.286 197.51 105.109L197.986 93.4292C198.004 92.9602 198.197 92.515 198.526 92.181C198.854 91.8469 199.296 91.6479 199.763 91.623V92.7829C199.763 93.5316 200.056 94.2504 200.579 94.7849C201.102 95.3195 201.813 95.6272 202.559 95.6421L209.184 95.7784H209.243C210.818 95.7784 212.098 94.0735 212.098 92.4865L215.986 92.632C217.136 92.6743 218.57 93.593 218.707 94.9168L218.907 103.783Z" fill="#FFDDAF"/>
<path fill-rule="evenodd" clip-rule="evenodd" d="M198.639 95.429C198.812 95.4361 198.947 95.5822 198.939 95.7553C198.896 96.8112 199.468 97.5588 200.427 98.1002C201.398 98.6482 202.727 98.9573 204.073 99.113C204.245 99.1329 204.368 99.2886 204.348 99.4607C204.329 99.6329 204.173 99.7563 204.001 99.7364C202.624 99.5772 201.198 99.2557 200.119 98.6466C199.028 98.0309 198.257 97.0948 198.312 95.7297C198.32 95.5565 198.466 95.4219 198.639 95.429Z" fill="url(#paint32_linear_1290_49090)"/>
<path fill-rule="evenodd" clip-rule="evenodd" d="M198.533 99.177C198.706 99.1841 198.841 99.3302 198.834 99.5034C198.791 100.559 199.363 101.307 200.322 101.849C201.293 102.397 202.621 102.706 203.967 102.861C204.139 102.881 204.263 103.036 204.243 103.209C204.223 103.381 204.068 103.504 203.895 103.484C202.519 103.326 201.092 103.005 200.013 102.395C198.923 101.779 198.151 100.843 198.207 99.4777C198.214 99.3046 198.36 99.1699 198.533 99.177Z" fill="url(#paint33_linear_1290_49090)"/>
<path fill-rule="evenodd" clip-rule="evenodd" d="M198.237 103.053C198.41 103.06 198.545 103.206 198.538 103.379C198.496 104.432 199.064 105.146 200.02 105.656C200.991 106.173 202.32 106.451 203.673 106.606C203.845 106.626 203.969 106.782 203.949 106.954C203.929 107.126 203.773 107.249 203.601 107.23C202.229 107.072 200.804 106.784 199.725 106.21C198.632 105.627 197.856 104.722 197.911 103.354C197.918 103.181 198.064 103.046 198.237 103.053Z" fill="url(#paint34_linear_1290_49090)"/>
<path d="M202.101 80.7261C202.496 80.7261 202.817 80.4046 202.817 80.0081C202.817 79.6115 202.496 79.29 202.101 79.29C201.705 79.29 201.385 79.6115 201.385 80.0081C201.385 80.4046 201.705 80.7261 202.101 80.7261Z" fill="#00BBAD"/>
<path d="M202.319 80.7261C202.714 80.7261 203.035 80.4046 203.035 80.0081C203.035 79.6115 202.714 79.29 202.319 79.29C201.923 79.29 201.603 79.6115 201.603 80.0081C201.603 80.4046 201.923 80.7261 202.319 80.7261Z" fill="white"/>
<path d="M178.504 73.4356C174.889 75.301 170.473 74.5611 166.743 71.881L166.675 71.9183C157.873 76.4918 147.945 74.4056 144.497 67.7428C141.049 61.08 145.393 51.9673 154.189 47.3876C156.726 46.0481 159.493 45.2041 162.344 44.9003C162.146 44.2781 162.084 43.6202 162.164 42.9719C162.243 42.3235 162.462 41.7002 162.804 41.1446C163.147 40.589 163.605 40.1145 164.148 39.7535C164.691 39.3925 165.305 39.1537 165.949 39.0535C166.593 38.9533 167.251 38.9941 167.877 39.1731C168.504 39.352 169.084 39.6649 169.578 40.0902C170.073 40.5155 170.47 41.0431 170.741 41.6367C171.013 42.2304 171.153 42.876 171.152 43.5292C171.154 44.2442 170.984 44.9491 170.656 45.5843C174.997 46.2714 179.36 49.5515 181.943 54.5696C185.775 62.0283 184.237 70.4664 178.504 73.4356Z" fill="url(#paint35_linear_1290_49090)"/>
<path d="M155.145 74.3574L161.163 60.9541H172.294V83.1748L155.145 74.3574Z" fill="#FFDDAF"/>
<path d="M172.294 60.9541V69.5041C170.335 69.7639 168.348 69.3164 166.688 68.2415C165.028 67.1666 163.804 65.5345 163.234 63.6373L162.428 60.9541H172.294Z" fill="#EFC080"/>
<path d="M176.757 53.4827V60.4284C176.757 61.1344 176.619 61.8335 176.35 62.4859C176.081 63.1382 175.686 63.731 175.189 64.2305C174.691 64.73 174.101 65.1263 173.45 65.3968C172.8 65.6673 172.103 65.8068 171.399 65.8072H168.764C167.352 65.8059 165.974 65.3788 164.809 64.5815C163.643 63.7841 162.744 62.6533 162.228 61.3363H159.747C158.824 61.3089 157.948 60.9221 157.305 60.2577C156.662 59.5934 156.302 58.7039 156.302 57.778C156.302 56.852 156.662 55.9625 157.305 55.2982C157.948 54.6338 158.824 54.2469 159.747 54.2196H160.079C160.666 54.2198 161.242 54.3754 161.75 54.6704V54.6549L170.915 47.5879C172.47 47.5994 173.958 48.2268 175.053 49.3334C176.148 50.44 176.763 51.936 176.763 53.4952L176.757 53.4827Z" fill="#FFDDAF"/>
<path fill-rule="evenodd" clip-rule="evenodd" d="M159.2 56.4443C159.2 56.3127 159.307 56.2061 159.438 56.2061C159.995 56.2061 160.529 56.4278 160.923 56.8224C161.316 57.217 161.537 57.752 161.537 58.3098C161.537 58.4413 161.43 58.548 161.299 58.548C161.167 58.548 161.061 58.4413 161.061 58.3098C161.061 57.878 160.889 57.464 160.585 57.1589C160.281 56.8538 159.868 56.6825 159.438 56.6825C159.307 56.6825 159.2 56.5759 159.2 56.4443Z" fill="#333333"/>
<path fill-rule="evenodd" clip-rule="evenodd" d="M177.009 53.2934C177.009 53.2934 177.009 53.2935 176.924 53.5143L177.009 53.2934C177.131 53.3408 177.193 53.4788 177.145 53.6015C177.098 53.7242 176.96 53.7852 176.838 53.7381L176.835 53.737L176.821 53.732C176.808 53.7274 176.788 53.7206 176.761 53.7121C176.707 53.6952 176.627 53.6721 176.526 53.6486C176.322 53.6015 176.034 53.5534 175.698 53.5499C175.028 53.543 174.176 53.713 173.417 54.4178C172.917 54.8837 172.572 55.7909 172.466 56.7599C172.36 57.7304 172.504 58.6721 172.881 59.2005C172.958 59.3075 172.933 59.4563 172.826 59.5329C172.719 59.6094 172.57 59.5846 172.494 59.4776C172.016 58.809 171.882 57.7252 171.993 56.7082C172.104 55.6898 172.471 54.6477 173.093 54.0689C173.964 53.2596 174.947 53.0656 175.703 53.0735C176.081 53.0774 176.404 53.1313 176.633 53.1844C176.748 53.2109 176.84 53.2374 176.904 53.2576C176.936 53.2678 176.961 53.2763 176.979 53.2825L177 53.29L177.006 53.2923L177.008 53.293L177.009 53.2934Z" fill="#333333"/>
<path d="M168.602 57.6516C168.954 57.6516 169.24 57.2605 169.24 56.778C169.24 56.2954 168.954 55.9043 168.602 55.9043C168.249 55.9043 167.963 56.2954 167.963 56.778C167.963 57.2605 168.249 57.6516 168.602 57.6516Z" fill="#333333"/>
<path d="M174.554 57.6516C174.907 57.6516 175.192 57.2605 175.192 56.778C175.192 56.2954 174.907 55.9043 174.554 55.9043C174.201 55.9043 173.915 56.2954 173.915 56.778C173.915 57.2605 174.201 57.6516 174.554 57.6516Z" fill="#333333"/>
<path fill-rule="evenodd" clip-rule="evenodd" d="M165.8 54.3618C165.696 54.4425 165.547 54.4237 165.466 54.3197C165.385 54.2158 165.404 54.0661 165.508 53.9854L165.654 54.1735C165.508 53.9854 165.508 53.9855 165.508 53.9854L165.509 53.9847L165.511 53.9835L165.516 53.9797L165.534 53.9662C165.549 53.9549 165.571 53.9388 165.6 53.9188C165.657 53.8789 165.741 53.8232 165.848 53.7583C166.061 53.6286 166.369 53.4611 166.751 53.3081C167.514 53.0025 168.582 52.75 169.78 52.9821C169.909 53.0071 169.994 53.1321 169.969 53.2613C169.944 53.3905 169.819 53.4749 169.689 53.4499C168.608 53.2405 167.636 53.4668 166.928 53.7504C166.575 53.8919 166.291 54.0467 166.095 54.1655C165.997 54.2248 165.922 54.275 165.872 54.3099C165.847 54.3273 165.829 54.3408 165.816 54.3497L165.803 54.3595L165.8 54.3618Z" fill="#333333"/>
<path d="M188.335 88.748C190.909 99.0436 188.335 109.339 188.335 109.339" stroke="white" stroke-width="0.627557" stroke-linecap="round"/>
<path fill-rule="evenodd" clip-rule="evenodd" d="M170.136 60.5624C170.26 60.4938 170.416 60.5383 170.484 60.6619C170.692 61.0357 171.535 61.777 172.857 61.532C172.996 61.5062 173.13 61.598 173.155 61.737C173.181 61.876 173.089 62.0095 172.95 62.0353C171.392 62.324 170.341 61.4581 170.037 60.9104C169.968 60.7868 170.013 60.631 170.136 60.5624Z" fill="#333333"/>
<path fill-rule="evenodd" clip-rule="evenodd" d="M99.5865 55.4439L99.8913 56.0483L106.14 68.4401L106.132 68.4443C106.134 68.4475 106.135 68.4506 106.137 68.4538C106.746 69.6627 106.261 71.137 105.052 71.7466C103.843 72.3562 102.369 71.8704 101.759 70.6615C101.149 69.4526 101.635 67.9783 102.844 67.3687C103.357 67.1098 103.919 67.0485 104.441 67.1562L99.3577 57.0755L93.2972 63.6378L99.367 75.6743C99.3804 75.6987 99.3934 75.7235 99.406 75.7486C99.4187 75.7737 99.4309 75.7989 99.4426 75.8242L99.4496 75.8381L99.4491 75.8383C99.9913 77.0296 99.5001 78.4468 98.3209 79.0414C97.112 79.651 95.6378 79.1652 95.0282 77.9563C94.4185 76.7474 94.9043 75.2732 96.1132 74.6635C96.6223 74.4068 97.1784 74.3443 97.6972 74.4483L92.3122 63.7699L92.1656 63.4791L92.3865 63.24L99.1272 55.9412L99.5865 55.4439Z" fill="url(#paint36_linear_1290_49090)"/>
</g>
<defs>
<linearGradient id="paint0_linear_1290_49090" x1="292.887" y1="1.54661e-07" x2="277.907" y2="249.158" gradientUnits="userSpaceOnUse">
<stop stop-color="#94D9FF"/>
<stop offset="0.326042" stop-color="#B2F1FF"/>
<stop offset="0.784375" stop-color="#E1FFF2"/>
<stop offset="1" stop-color="white"/>
</linearGradient>
<linearGradient id="paint1_linear_1290_49090" x1="65.4488" y1="28.2285" x2="65.4488" y2="52.0424" gradientUnits="userSpaceOnUse">
<stop stop-color="white" stop-opacity="0.7"/>
<stop offset="1" stop-color="white" stop-opacity="0.4"/>
</linearGradient>
<linearGradient id="paint2_linear_1290_49090" x1="281.004" y1="56.915" x2="281.004" y2="110.584" gradientUnits="userSpaceOnUse">
<stop stop-color="white" stop-opacity="0.7"/>
<stop offset="1" stop-color="white" stop-opacity="0.4"/>
</linearGradient>
<linearGradient id="paint3_linear_1290_49090" x1="22.081" y1="57.9961" x2="22.081" y2="93.7184" gradientUnits="userSpaceOnUse">
<stop stop-color="white" stop-opacity="0.7"/>
<stop offset="1" stop-color="white" stop-opacity="0.4"/>
</linearGradient>
<linearGradient id="paint4_linear_1290_49090" x1="-34.5012" y1="163.948" x2="38.8175" y2="245.553" gradientUnits="userSpaceOnUse">
<stop offset="0.09375" stop-color="#A5FFB3"/>
<stop offset="1" stop-color="#24D9C3"/>
</linearGradient>
<linearGradient id="paint5_linear_1290_49090" x1="53.4246" y1="163.948" x2="126.743" y2="245.553" gradientUnits="userSpaceOnUse">
<stop offset="0.09375" stop-color="#A5FFB3"/>
<stop offset="1" stop-color="#24D9C3"/>
</linearGradient>
<linearGradient id="paint6_linear_1290_49090" x1="283.837" y1="160.023" x2="360.552" y2="245.409" gradientUnits="userSpaceOnUse">
<stop offset="0.09375" stop-color="#A5FFB3"/>
<stop offset="1" stop-color="#24D9C3"/>
</linearGradient>
<linearGradient id="paint7_linear_1290_49090" x1="-0.157659" y1="240" x2="-0.715122" y2="310.571" gradientUnits="userSpaceOnUse">
<stop stop-color="#DCF3F7"/>
<stop offset="1" stop-color="#9FAEBC"/>
</linearGradient>
<linearGradient id="paint8_linear_1290_49090" x1="183.407" y1="275.967" x2="183.407" y2="290.152" gradientUnits="userSpaceOnUse">
<stop stop-color="#888888"/>
<stop offset="1" stop-color="#4A4A4A"/>
</linearGradient>
<linearGradient id="paint9_linear_1290_49090" x1="76.1501" y1="240.652" x2="76.1501" y2="276.957" gradientUnits="userSpaceOnUse">
<stop stop-color="#888888"/>
<stop offset="1" stop-color="#4A4A4A"/>
</linearGradient>
<linearGradient id="paint10_linear_1290_49090" x1="127.382" y1="139.549" x2="174.795" y2="116.854" gradientUnits="userSpaceOnUse">
<stop offset="0.00520833" stop-color="#9FFFD1"/>
<stop offset="1" stop-color="#12CBB5"/>
</linearGradient>
<linearGradient id="paint11_linear_1290_49090" x1="120.393" y1="121.835" x2="107.658" y2="127.919" gradientUnits="userSpaceOnUse">
<stop offset="0.00520833" stop-color="#9FFFD1"/>
<stop offset="1" stop-color="#12CBB5"/>
</linearGradient>
<linearGradient id="paint12_linear_1290_49090" x1="163.64" y1="69.8877" x2="163.64" y2="154.391" gradientUnits="userSpaceOnUse">
<stop stop-color="#888888"/>
<stop offset="1" stop-color="#4A4A4A"/>
</linearGradient>
<linearGradient id="paint13_linear_1290_49090" x1="190.796" y1="126.677" x2="200.079" y2="297.125" gradientUnits="userSpaceOnUse">
<stop offset="0.111458" stop-color="#7BE7FF"/>
<stop offset="1" stop-color="#6F7BEA"/>
</linearGradient>
<linearGradient id="paint14_linear_1290_49090" x1="177.86" y1="272.512" x2="177.86" y2="276.365" gradientUnits="userSpaceOnUse">
<stop stop-color="#888888"/>
<stop offset="1" stop-color="#4A4A4A"/>
</linearGradient>
<linearGradient id="paint15_linear_1290_49090" x1="185.237" y1="272.512" x2="185.237" y2="276.365" gradientUnits="userSpaceOnUse">
<stop stop-color="#888888"/>
<stop offset="1" stop-color="#4A4A4A"/>
</linearGradient>
<linearGradient id="paint16_linear_1290_49090" x1="181.855" y1="272.512" x2="181.855" y2="276.365" gradientUnits="userSpaceOnUse">
<stop stop-color="#888888"/>
<stop offset="1" stop-color="#4A4A4A"/>
</linearGradient>
<linearGradient id="paint17_linear_1290_49090" x1="178.473" y1="272.512" x2="178.473" y2="276.365" gradientUnits="userSpaceOnUse">
<stop stop-color="#888888"/>
<stop offset="1" stop-color="#4A4A4A"/>
</linearGradient>
<linearGradient id="paint18_linear_1290_49090" x1="175.086" y1="272.512" x2="175.086" y2="276.365" gradientUnits="userSpaceOnUse">
<stop stop-color="#888888"/>
<stop offset="1" stop-color="#4A4A4A"/>
</linearGradient>
<linearGradient id="paint19_linear_1290_49090" x1="171.706" y1="272.512" x2="171.706" y2="276.365" gradientUnits="userSpaceOnUse">
<stop stop-color="#888888"/>
<stop offset="1" stop-color="#4A4A4A"/>
</linearGradient>
<linearGradient id="paint20_linear_1290_49090" x1="76.8716" y1="240.483" x2="89.428" y2="257.07" gradientUnits="userSpaceOnUse">
<stop stop-color="#888888"/>
<stop offset="1" stop-color="#4A4A4A"/>
</linearGradient>
<linearGradient id="paint21_linear_1290_49090" x1="78.8611" y1="241.984" x2="78.8611" y2="244.281" gradientUnits="userSpaceOnUse">
<stop stop-color="#888888"/>
<stop offset="1" stop-color="#4A4A4A"/>
</linearGradient>
<linearGradient id="paint22_linear_1290_49090" x1="81.0436" y1="244.825" x2="81.0436" y2="247.122" gradientUnits="userSpaceOnUse">
<stop stop-color="#888888"/>
<stop offset="1" stop-color="#4A4A4A"/>
</linearGradient>
<linearGradient id="paint23_linear_1290_49090" x1="83.2262" y1="247.675" x2="83.2262" y2="249.973" gradientUnits="userSpaceOnUse">
<stop stop-color="#888888"/>
<stop offset="1" stop-color="#4A4A4A"/>
</linearGradient>
<linearGradient id="paint24_linear_1290_49090" x1="85.4089" y1="250.525" x2="85.4089" y2="252.822" gradientUnits="userSpaceOnUse">
<stop stop-color="#888888"/>
<stop offset="1" stop-color="#4A4A4A"/>
</linearGradient>
<linearGradient id="paint25_linear_1290_49090" x1="87.3786" y1="253.367" x2="87.3786" y2="255.662" gradientUnits="userSpaceOnUse">
<stop stop-color="#888888"/>
<stop offset="1" stop-color="#4A4A4A"/>
</linearGradient>
<linearGradient id="paint26_linear_1290_49090" x1="165.705" y1="150.718" x2="165.705" y2="186.51" gradientUnits="userSpaceOnUse">
<stop stop-color="#888888"/>
<stop offset="1" stop-color="#4A4A4A"/>
</linearGradient>
<linearGradient id="paint27_linear_1290_49090" x1="165.225" y1="122.008" x2="165.225" y2="126.672" gradientUnits="userSpaceOnUse">
<stop stop-color="#888888"/>
<stop offset="1" stop-color="#4A4A4A"/>
</linearGradient>
<linearGradient id="paint28_linear_1290_49090" x1="104.816" y1="155.997" x2="105.567" y2="157.713" gradientUnits="userSpaceOnUse">
<stop stop-color="#888888"/>
<stop offset="1" stop-color="#4A4A4A"/>
</linearGradient>
<linearGradient id="paint29_linear_1290_49090" x1="108.485" y1="158.964" x2="109.152" y2="160.486" gradientUnits="userSpaceOnUse">
<stop stop-color="#888888"/>
<stop offset="1" stop-color="#4A4A4A"/>
</linearGradient>
<linearGradient id="paint30_linear_1290_49090" x1="113.757" y1="160.64" x2="114.058" y2="161.328" gradientUnits="userSpaceOnUse">
<stop stop-color="#888888"/>
<stop offset="1" stop-color="#4A4A4A"/>
</linearGradient>
<linearGradient id="paint31_linear_1290_49090" x1="202.128" y1="79.5557" x2="214.683" y2="85.2697" gradientUnits="userSpaceOnUse">
<stop offset="0.09375" stop-color="#8DF1A9"/>
<stop offset="1" stop-color="#3AD8C5"/>
</linearGradient>
<linearGradient id="paint32_linear_1290_49090" x1="201.33" y1="95.7425" x2="201.33" y2="99.4247" gradientUnits="userSpaceOnUse">
<stop stop-color="#888888"/>
<stop offset="1" stop-color="#4A4A4A"/>
</linearGradient>
<linearGradient id="paint33_linear_1290_49090" x1="201.225" y1="99.4905" x2="201.225" y2="103.173" gradientUnits="userSpaceOnUse">
<stop stop-color="#888888"/>
<stop offset="1" stop-color="#4A4A4A"/>
</linearGradient>
<linearGradient id="paint34_linear_1290_49090" x1="200.93" y1="103.367" x2="200.93" y2="106.918" gradientUnits="userSpaceOnUse">
<stop stop-color="#888888"/>
<stop offset="1" stop-color="#4A4A4A"/>
</linearGradient>
<linearGradient id="paint35_linear_1290_49090" x1="163.682" y1="39" x2="163.682" y2="74.4701" gradientUnits="userSpaceOnUse">
<stop stop-color="#696969"/>
<stop offset="1" stop-color="#444444"/>
</linearGradient>
<linearGradient id="paint36_linear_1290_49090" x1="93.2439" y1="58.6424" x2="102.475" y2="76.9468" gradientUnits="userSpaceOnUse">
<stop stop-color="#9C9C9C"/>
<stop offset="1" stop-color="#5B5B5B"/>
</linearGradient>
<clipPath id="clip0_1290_49090">
<rect width="312" height="320" rx="10" fill="white"/>
</clipPath>
</defs>
</svg>
