<svg width="270" height="271" viewBox="0 0 270 271" fill="none" xmlns="http://www.w3.org/2000/svg">
<path d="M205.92 134.983C205.92 183.538 135.576 196.696 135.576 196.696C135.576 196.696 65.2324 183.538 65.2324 134.983C65.2324 86.4276 135.576 28.0986 135.576 28.0986C135.576 28.0986 205.92 86.4366 205.92 134.983Z" fill="url(#paint0_linear_1290_23109)"/>
<path d="M64.5116 186.607C83.3666 195.148 101.412 181.783 101.412 181.783C101.412 181.783 99.5576 159.409 80.7116 150.877C61.8656 142.345 38.4746 153.289 38.4746 153.289C38.4746 153.289 45.6476 178.075 64.5116 186.607Z" fill="url(#paint1_linear_1290_23109)"/>
<path d="M92.1763 178.307L92.2357 178.176C92.4121 177.786 92.6635 177.435 92.9757 177.142C93.2878 176.85 93.6545 176.622 94.0549 176.471C94.4553 176.32 94.8814 176.249 95.309 176.263C95.7367 176.277 96.1574 176.375 96.5472 176.551L122.064 188.099L119.318 194.167L93.8012 182.619C93.014 182.262 92.4005 181.608 92.0958 180.799C91.7911 179.991 91.82 179.094 92.1763 178.307V178.307Z" fill="url(#paint2_linear_1290_23109)"/>
<path d="M206.314 186.607C187.459 195.148 169.414 181.783 169.414 181.783C169.414 181.783 171.268 159.409 190.114 150.877C208.96 142.345 232.351 153.289 232.351 153.289C232.351 153.289 225.178 178.075 206.314 186.607Z" fill="url(#paint3_linear_1290_23109)"/>
<path d="M178.648 178.307L178.589 178.176C178.412 177.786 178.161 177.435 177.849 177.142C177.536 176.85 177.17 176.622 176.769 176.471C176.369 176.32 175.943 176.249 175.515 176.263C175.088 176.277 174.667 176.375 174.277 176.551L148.761 188.099L151.507 194.167L177.023 182.619C177.81 182.262 178.424 181.608 178.728 180.799C179.033 179.991 179.004 179.094 178.648 178.307V178.307Z" fill="url(#paint4_linear_1290_23109)"/>
<path d="M135.576 142.03C138.187 142.03 140.772 142.545 143.184 143.544C145.596 144.543 147.788 146.007 149.634 147.853C151.48 149.699 152.945 151.891 153.944 154.303C154.943 156.715 155.457 159.3 155.457 161.911V236.17H115.704V161.902C115.706 156.633 117.801 151.579 121.527 147.853C125.253 144.127 130.306 142.033 135.576 142.03V142.03Z" fill="url(#paint5_linear_1290_23109)"/>
<path d="M135.575 165.317C137.791 165.317 139.588 163.969 139.588 162.307C139.588 160.645 137.791 159.297 135.575 159.297C133.358 159.297 131.562 160.645 131.562 162.307C131.562 163.969 133.358 165.317 135.575 165.317Z" fill="url(#paint6_linear_1290_23109)"/>
<path fill-rule="evenodd" clip-rule="evenodd" d="M125.9 169.257V167.73H123.92V171.237H147.242V167.73H145.262V169.257H125.9Z" fill="#333333"/>
<path d="M113.076 175.965C117.624 175.965 121.311 172.278 121.311 167.73C121.311 163.182 117.624 159.495 113.076 159.495C108.528 159.495 104.841 163.182 104.841 167.73C104.841 172.278 108.528 175.965 113.076 175.965Z" fill="url(#paint7_linear_1290_23109)"/>
<path d="M158.364 175.965C162.912 175.965 166.599 172.278 166.599 167.73C166.599 163.182 162.912 159.495 158.364 159.495C153.816 159.495 150.129 163.182 150.129 167.73C150.129 172.278 153.816 175.965 158.364 175.965Z" fill="url(#paint8_linear_1290_23109)"/>
<path d="M172.656 95.2119C174.485 95.2119 175.968 93.7291 175.968 91.8999C175.968 90.0707 174.485 88.5879 172.656 88.5879C170.827 88.5879 169.344 90.0707 169.344 91.8999C169.344 93.7291 170.827 95.2119 172.656 95.2119Z" fill="url(#paint9_linear_1290_23109)"/>
<path d="M141.066 55.7646C142.895 55.7646 144.378 54.2818 144.378 52.4526C144.378 50.6235 142.895 49.1406 141.066 49.1406C139.237 49.1406 137.754 50.6235 137.754 52.4526C137.754 54.2818 139.237 55.7646 141.066 55.7646Z" fill="url(#paint10_linear_1290_23109)"/>
<path d="M179.279 140.661C181.108 140.661 182.591 139.178 182.591 137.349C182.591 135.52 181.108 134.037 179.279 134.037C177.45 134.037 175.967 135.52 175.967 137.349C175.967 139.178 177.45 140.661 179.279 140.661Z" fill="url(#paint11_linear_1290_23109)"/>
<path d="M104.714 80.8925C106.544 80.8925 108.026 79.4097 108.026 77.5805C108.026 75.7514 106.544 74.2686 104.714 74.2686C102.885 74.2686 101.402 75.7514 101.402 77.5805C101.402 79.4097 102.885 80.8925 104.714 80.8925Z" fill="url(#paint12_linear_1290_23109)"/>
<path d="M88.2173 142.029C90.0464 142.029 91.5293 140.546 91.5293 138.717C91.5293 136.888 90.0464 135.405 88.2173 135.405C86.3881 135.405 84.9053 136.888 84.9053 138.717C84.9053 140.546 86.3881 142.029 88.2173 142.029Z" fill="url(#paint13_linear_1290_23109)"/>
<path d="M132.407 119.197C134.236 119.197 135.719 117.714 135.719 115.885C135.719 114.056 134.236 112.573 132.407 112.573C130.578 112.573 129.095 114.056 129.095 115.885C129.095 117.714 130.578 119.197 132.407 119.197Z" fill="url(#paint14_linear_1290_23109)"/>
<path fill-rule="evenodd" clip-rule="evenodd" d="M124.762 158.964L128.797 160.608L128.879 160.663C129.025 160.759 129.145 160.891 129.229 161.046C129.312 161.201 129.355 161.374 129.355 161.549C129.355 161.724 129.312 161.897 129.229 162.052C129.145 162.207 129.025 162.339 128.879 162.435L128.794 162.492L124.755 164.103L124.021 162.264L125.837 161.54L124.015 160.798L124.762 158.964Z" fill="#333333"/>
<path fill-rule="evenodd" clip-rule="evenodd" d="M146.391 158.964L142.355 160.608L142.273 160.663C142.127 160.759 142.007 160.891 141.924 161.046C141.84 161.201 141.797 161.374 141.797 161.549C141.797 161.724 141.84 161.897 141.924 162.052C142.007 162.207 142.127 162.339 142.273 162.435L142.358 162.492L146.397 164.103L147.131 162.264L145.316 161.54L147.138 160.798L146.391 158.964Z" fill="#333333"/>
<path d="M234.477 17.9358C234.181 16.3303 234.22 14.7976 234.52 13.63C233.605 14.4176 232.248 15.1344 230.677 15.5829C229.113 16.0293 227.646 16.1213 226.548 15.9113C227.223 16.8009 227.792 18.1558 228.086 19.7568C228.38 21.3634 228.34 22.8975 228.039 24.0668C228.953 23.2804 230.309 22.5653 231.879 22.1184C233.455 21.6699 234.932 21.5817 236.031 21.7986C235.349 20.9095 234.773 19.547 234.477 17.9358" stroke="#A0A0A0"/>
<path d="M224.911 28.7743L198.265 66.6978" stroke="#A0A0A0" stroke-width="0.8"/>
<path d="M38.5273 50.3184L65.8526 79.737" stroke="#A0A0A0" stroke-dasharray="2 2"/>
<circle cx="32.1962" cy="43.7422" r="3.91459" transform="rotate(10.4139 32.1962 43.7422)" stroke="#A0A0A0"/>
<circle cx="34.3519" cy="79.2701" r="3.41459" transform="rotate(-62.6025 34.3519 79.2701)" fill="#C5C5C5"/>
<path d="M40.4843 82.448L58.2111 91.8912" stroke="#A0A0A0" stroke-width="0.8"/>
<defs>
<linearGradient id="paint0_linear_1290_23109" x1="92.2438" y1="43.6725" x2="213.87" y2="122.615" gradientUnits="userSpaceOnUse">
<stop offset="0.09375" stop-color="#94FDAB"/>
<stop offset="1" stop-color="#09C497"/>
</linearGradient>
<linearGradient id="paint1_linear_1290_23109" x1="50.5582" y1="151.488" x2="83.1983" y2="189.681" gradientUnits="userSpaceOnUse">
<stop offset="0.09375" stop-color="#94FDAB"/>
<stop offset="1" stop-color="#09C497"/>
</linearGradient>
<linearGradient id="paint2_linear_1290_23109" x1="96.5477" y1="184.51" x2="113.74" y2="174.896" gradientUnits="userSpaceOnUse">
<stop offset="0.140625" stop-color="#FBBD90"/>
<stop offset="1" stop-color="#DE7756"/>
</linearGradient>
<linearGradient id="paint3_linear_1290_23109" x1="220.267" y1="151.488" x2="187.627" y2="189.681" gradientUnits="userSpaceOnUse">
<stop offset="0.09375" stop-color="#94FDAB"/>
<stop offset="1" stop-color="#09C497"/>
</linearGradient>
<linearGradient id="paint4_linear_1290_23109" x1="174.277" y1="184.51" x2="157.084" y2="174.896" gradientUnits="userSpaceOnUse">
<stop offset="0.140625" stop-color="#FBBD90"/>
<stop offset="1" stop-color="#DE7756"/>
</linearGradient>
<linearGradient id="paint5_linear_1290_23109" x1="112.176" y1="161.722" x2="158.697" y2="229.798" gradientUnits="userSpaceOnUse">
<stop offset="0.140625" stop-color="#FBBD90"/>
<stop offset="1" stop-color="#DE7756"/>
</linearGradient>
<linearGradient id="paint6_linear_1290_23109" x1="131.562" y1="162.307" x2="139.588" y2="162.307" gradientUnits="userSpaceOnUse">
<stop offset="0.109375" stop-color="#FFF6A3"/>
<stop offset="1" stop-color="#FF9E58"/>
</linearGradient>
<linearGradient id="paint7_linear_1290_23109" x1="104.841" y1="167.73" x2="121.311" y2="167.73" gradientUnits="userSpaceOnUse">
<stop offset="0.109375" stop-color="#FFF6A3"/>
<stop offset="1" stop-color="#FF9E58"/>
</linearGradient>
<linearGradient id="paint8_linear_1290_23109" x1="150.129" y1="167.73" x2="166.599" y2="167.73" gradientUnits="userSpaceOnUse">
<stop offset="0.109375" stop-color="#FFF6A3"/>
<stop offset="1" stop-color="#FF9E58"/>
</linearGradient>
<linearGradient id="paint9_linear_1290_23109" x1="169.344" y1="91.8999" x2="175.968" y2="91.8999" gradientUnits="userSpaceOnUse">
<stop offset="0.109375" stop-color="#FFF6A3"/>
<stop offset="1" stop-color="#FF9E58"/>
</linearGradient>
<linearGradient id="paint10_linear_1290_23109" x1="137.754" y1="52.4526" x2="144.378" y2="52.4526" gradientUnits="userSpaceOnUse">
<stop offset="0.109375" stop-color="#FFF6A3"/>
<stop offset="1" stop-color="#FF9E58"/>
</linearGradient>
<linearGradient id="paint11_linear_1290_23109" x1="175.967" y1="137.349" x2="182.591" y2="137.349" gradientUnits="userSpaceOnUse">
<stop offset="0.109375" stop-color="#FFF6A3"/>
<stop offset="1" stop-color="#FF9E58"/>
</linearGradient>
<linearGradient id="paint12_linear_1290_23109" x1="101.402" y1="77.5806" x2="108.026" y2="77.5806" gradientUnits="userSpaceOnUse">
<stop offset="0.109375" stop-color="#FFF6A3"/>
<stop offset="1" stop-color="#FF9E58"/>
</linearGradient>
<linearGradient id="paint13_linear_1290_23109" x1="84.9053" y1="138.717" x2="91.5293" y2="138.717" gradientUnits="userSpaceOnUse">
<stop offset="0.109375" stop-color="#FFF6A3"/>
<stop offset="1" stop-color="#FF9E58"/>
</linearGradient>
<linearGradient id="paint14_linear_1290_23109" x1="129.095" y1="115.885" x2="135.719" y2="115.885" gradientUnits="userSpaceOnUse">
<stop offset="0.109375" stop-color="#FFF6A3"/>
<stop offset="1" stop-color="#FF9E58"/>
</linearGradient>
</defs>
</svg>
