<svg width="312" height="324" viewBox="0 0 312 324" fill="none" xmlns="http://www.w3.org/2000/svg">
<rect width="312" height="320" rx="10" fill="url(#paint0_linear_1290_49487)"/>
<path d="M208.672 57.0322V120.576H103.328V57.0322H51.5103V127.931V152.812V323.202H260.49V152.812V127.931V57.0322H208.672Z" fill="url(#paint1_linear_1290_49487)"/>
<path opacity="0.34" d="M136.679 187.745H138.42C145.031 187.745 151.372 190.793 156.046 196.217C160.721 201.641 163.347 208.998 163.347 216.669V282.063C163.347 287.005 161.655 291.745 158.643 295.24C155.631 298.735 151.546 300.699 147.286 300.699H127.848C125.732 300.711 123.634 300.238 121.677 299.307C119.719 298.376 117.939 297.005 116.439 295.274C114.939 293.542 113.748 291.483 112.936 289.216C112.124 286.949 111.706 284.518 111.706 282.063V216.669C111.706 212.866 112.352 209.101 113.608 205.588C114.863 202.075 116.704 198.884 119.023 196.198C121.343 193.511 124.096 191.382 127.126 189.931C130.156 188.481 133.402 187.738 136.679 187.745V187.745Z" fill="url(#paint2_linear_1290_49487)"/>
<path opacity="0.34" d="M96.6719 187.745H98.4129C105.024 187.745 111.364 190.793 116.039 196.217C120.714 201.641 123.34 208.998 123.34 216.669V282.063C123.34 287.005 121.648 291.745 118.636 295.24C115.624 298.735 111.539 300.699 107.279 300.699H87.8402C85.7243 300.711 83.6271 300.238 81.6692 299.307C79.7113 298.376 77.9313 297.005 76.4313 295.274C74.9314 293.542 73.7411 291.483 72.929 289.216C72.1168 286.949 71.6987 284.518 71.6987 282.063V216.669C71.6987 212.866 72.345 209.101 73.6006 205.588C74.8562 202.075 76.6964 198.884 79.016 196.198C81.3356 193.511 84.0889 191.382 87.1186 189.931C90.1482 188.481 93.3946 187.738 96.6719 187.745V187.745Z" fill="url(#paint3_linear_1290_49487)"/>
<path d="M148.566 174.406H126.533V190.3H148.566V174.406Z" fill="url(#paint4_linear_1290_49487)"/>
<path d="M108.559 174.406H86.5254V190.3H108.559V174.406Z" fill="url(#paint5_linear_1290_49487)"/>
<path d="M162.702 219.772H112.41C111.486 219.772 110.738 220.641 110.738 221.712V253.473C110.738 254.544 111.486 255.412 112.41 255.412H162.702C163.625 255.412 164.374 254.544 164.374 253.473V221.712C164.374 220.641 163.625 219.772 162.702 219.772Z" fill="url(#paint6_linear_1290_49487)"/>
<path d="M122.694 219.772H72.4023C71.479 219.772 70.7305 220.641 70.7305 221.712V253.473C70.7305 254.544 71.479 255.412 72.4023 255.412H122.694C123.618 255.412 124.366 254.544 124.366 253.473V221.712C124.366 220.641 123.618 219.772 122.694 219.772Z" fill="url(#paint7_linear_1290_49487)" fill-opacity="0.9"/>
<path opacity="0.34" d="M232.056 299.993H186.021C185.21 299.994 184.429 299.693 183.828 299.149C183.227 298.605 182.85 297.857 182.77 297.05L175.399 222.666C175.352 222.213 175.401 221.756 175.542 221.323C175.683 220.89 175.914 220.491 176.219 220.153C176.525 219.815 176.898 219.545 177.314 219.36C177.73 219.176 178.181 219.081 178.636 219.081H239.441C239.896 219.081 240.347 219.176 240.763 219.36C241.18 219.545 241.552 219.815 241.858 220.153C242.163 220.491 242.394 220.89 242.535 221.323C242.676 221.756 242.725 222.213 242.678 222.666L235.307 297.09C235.215 297.889 234.833 298.625 234.234 299.161C233.635 299.696 232.86 299.992 232.056 299.993Z" fill="url(#paint8_linear_1290_49487)"/>
<path d="M222.693 175.358L217.809 174.406L194.764 292.631L199.649 293.583L222.693 175.358Z" fill="url(#paint9_linear_1290_49487)"/>
<path d="M242.117 216.873H175.974C175.287 216.873 174.73 217.43 174.73 218.117V221.127C174.73 221.815 175.287 222.372 175.974 222.372H242.117C242.804 222.372 243.361 221.815 243.361 221.127V218.117C243.361 217.43 242.804 216.873 242.117 216.873Z" fill="url(#paint10_linear_1290_49487)"/>
<path d="M239.927 204.729L243.272 216.06L252.637 208.849L248.677 219.993L260.49 219.672L250.737 226.348L260.49 233.037L248.677 232.703L252.637 243.847L243.272 236.636L239.927 247.981L236.583 236.636L227.218 243.847L231.178 232.703L219.365 233.037L229.118 226.348L219.365 219.672L231.178 219.993L227.218 208.849L236.583 216.06L239.927 204.729Z" fill="url(#paint11_linear_1290_49487)"/>
<path d="M75.3765 261.688L78.7211 273.032L88.086 265.821L84.126 276.966L95.9525 276.631L86.1863 283.32L95.9525 289.996L84.126 289.675L88.086 300.806L78.7211 293.608L75.3765 304.94L72.0453 293.608L62.6671 300.806L66.6271 289.675L54.814 289.996L64.5668 283.32L54.814 276.631L66.6271 276.966L62.6671 265.821L72.0453 273.032L75.3765 261.688Z" fill="url(#paint12_linear_1290_49487)"/>
<path d="M247.246 141.622C244.893 136.872 246.836 131.114 251.586 128.761C256.336 126.408 262.094 128.35 264.447 133.1L265.343 132.657C262.99 127.907 264.933 122.149 269.683 119.796C274.433 117.443 280.191 119.386 282.544 124.136L283.44 123.692C280.842 118.447 274.484 116.301 269.239 118.9C265.002 120.999 262.788 125.551 263.463 129.988C260.342 126.762 255.379 125.766 251.142 127.865C245.897 130.463 243.752 136.821 246.35 142.066L247.246 141.622Z" fill="url(#paint13_linear_1290_49487)"/>
<path d="M173.138 150.493L184.483 147.149L177.272 137.784L188.416 141.744L188.081 129.931L194.771 139.683L201.446 129.931L201.125 141.744L212.269 137.784L205.059 147.149L216.39 150.493L205.059 153.838L212.269 163.203L201.125 159.243L201.446 171.056L194.771 161.303L188.081 171.056L188.416 159.243L177.272 163.203L184.483 153.838L173.138 150.493Z" fill="url(#paint14_linear_1290_49487)"/>
<path fill-rule="evenodd" clip-rule="evenodd" d="M57.4917 99.0223C51.2762 83.3455 34.7554 77.7846 21.4325 79.7741L21.1979 78.8246C34.8826 76.7811 52.0158 82.4883 58.4624 98.7481L57.4917 99.0223Z" fill="url(#paint15_linear_1290_49487)"/>
<path fill-rule="evenodd" clip-rule="evenodd" d="M53.0339 78.705C56.0623 82.2559 57.7961 86.3207 59.1578 90.1263L60.0993 89.7895C58.7259 85.9509 56.943 81.7476 53.7948 78.0561C50.6386 74.3553 46.1312 71.193 39.348 69.3972L39.0921 70.3639C45.6841 72.1091 50.0134 75.1634 53.0339 78.705Z" fill="#77CAF9"/>
<path fill-rule="evenodd" clip-rule="evenodd" d="M60.2567 221.687C56.9903 213.469 49.675 210.258 45.2938 209.512C44.1622 209.32 43.1006 209.194 42.1062 209.129C42.7681 210.116 43.3437 211.177 43.8172 212.314C45.7141 216.869 44.6316 220.749 42.1915 223.033C39.7724 225.297 36.0612 225.941 32.8458 224.123C29.0213 222.315 27.3931 217.572 29.159 213.702C30.573 210.603 34.0743 208.188 40.0647 208.08C37.0652 204.52 32.7764 202.096 28.2246 200.65C21.9186 198.647 15.2153 198.558 10.9705 199.858L10.6776 198.902C15.1568 197.53 22.072 197.647 28.5273 199.697C33.4604 201.264 38.1873 203.981 41.3594 208.091C42.6254 208.136 43.9917 208.276 45.4616 208.527C50.0641 209.31 57.7505 212.674 61.186 221.318L60.2567 221.687ZM40.8481 209.076C34.6341 208.976 31.3224 211.37 30.0687 214.117C28.5172 217.517 29.9698 221.668 33.2885 223.227L33.3061 223.235L33.3229 223.244C36.143 224.847 39.3886 224.287 41.5081 222.303C43.6109 220.335 44.6486 216.912 42.894 212.699C42.3487 211.389 41.6581 210.183 40.8481 209.076Z" fill="url(#paint16_linear_1290_49487)"/>
<defs>
<linearGradient id="paint0_linear_1290_49487" x1="274.675" y1="3.39069e-07" x2="264.329" y2="324.206" gradientUnits="userSpaceOnUse">
<stop stop-color="#8CD5FF"/>
<stop offset="0.6125" stop-color="#B3F1FF"/>
<stop offset="1" stop-color="#C5FFF5"/>
</linearGradient>
<linearGradient id="paint1_linear_1290_49487" x1="245.283" y1="56.0398" x2="245.283" y2="312.286" gradientUnits="userSpaceOnUse">
<stop stop-color="white" stop-opacity="0.8"/>
<stop offset="1" stop-color="white" stop-opacity="0.5"/>
</linearGradient>
<linearGradient id="paint2_linear_1290_49487" x1="159.876" y1="240.167" x2="113.861" y2="239.853" gradientUnits="userSpaceOnUse">
<stop stop-color="#928986"/>
<stop offset="1" stop-color="#AEA6A4" stop-opacity="0.5"/>
</linearGradient>
<linearGradient id="paint3_linear_1290_49487" x1="119.869" y1="240.167" x2="73.8535" y2="239.853" gradientUnits="userSpaceOnUse">
<stop stop-color="#928986"/>
<stop offset="1" stop-color="#AEA6A4" stop-opacity="0.5"/>
</linearGradient>
<linearGradient id="paint4_linear_1290_49487" x1="126.533" y1="186" x2="140.412" y2="196.638" gradientUnits="userSpaceOnUse">
<stop stop-color="#D0D2FF"/>
<stop offset="1" stop-color="#CAAFF7"/>
</linearGradient>
<linearGradient id="paint5_linear_1290_49487" x1="86.5254" y1="182.353" x2="108.546" y2="184.022" gradientUnits="userSpaceOnUse">
<stop stop-color="#AEE6FF"/>
<stop offset="1" stop-color="#AED8FF"/>
</linearGradient>
<linearGradient id="paint6_linear_1290_49487" x1="110.738" y1="237.592" x2="141.236" y2="264.156" gradientUnits="userSpaceOnUse">
<stop stop-color="#A9ADFF"/>
<stop offset="1" stop-color="#AF77E7"/>
</linearGradient>
<linearGradient id="paint7_linear_1290_49487" x1="64.3408" y1="227.923" x2="124.364" y2="227.914" gradientUnits="userSpaceOnUse">
<stop offset="0.111458" stop-color="#89E3FF"/>
<stop offset="1" stop-color="#6F7BEA"/>
</linearGradient>
<linearGradient id="paint8_linear_1290_49487" x1="238.171" y1="256.632" x2="178.197" y2="255.889" gradientUnits="userSpaceOnUse">
<stop stop-color="#928986"/>
<stop offset="1" stop-color="#AEA6A4" stop-opacity="0.5"/>
</linearGradient>
<linearGradient id="paint9_linear_1290_49487" x1="220.251" y1="174.882" x2="197.206" y2="293.107" gradientUnits="userSpaceOnUse">
<stop stop-color="#70EADB"/>
<stop offset="1" stop-color="#7FEADD" stop-opacity="0.5"/>
</linearGradient>
<linearGradient id="paint10_linear_1290_49487" x1="174.73" y1="219.622" x2="243.361" y2="219.622" gradientUnits="userSpaceOnUse">
<stop stop-color="#DFDFDF"/>
<stop offset="1" stop-color="#BBBBBB"/>
</linearGradient>
<linearGradient id="paint11_linear_1290_49487" x1="239.927" y1="204.729" x2="239.927" y2="247.981" gradientUnits="userSpaceOnUse">
<stop stop-color="#BCBCBC"/>
<stop offset="1" stop-color="#272727"/>
</linearGradient>
<linearGradient id="paint12_linear_1290_49487" x1="87.5554" y1="299.615" x2="68.3566" y2="265.68" gradientUnits="userSpaceOnUse">
<stop stop-color="#A9ADFF"/>
<stop offset="1" stop-color="#AF77E7"/>
</linearGradient>
<linearGradient id="paint13_linear_1290_49487" x1="264.343" y1="117.796" x2="264.343" y2="142.066" gradientUnits="userSpaceOnUse">
<stop stop-color="#7ACFFF"/>
<stop offset="1" stop-color="#408AE2"/>
</linearGradient>
<linearGradient id="paint14_linear_1290_49487" x1="173.138" y1="131.018" x2="223.733" y2="128.711" gradientUnits="userSpaceOnUse">
<stop offset="0.111458" stop-color="#7BE7FF"/>
<stop offset="1" stop-color="#6F7BEA"/>
</linearGradient>
<linearGradient id="paint15_linear_1290_49487" x1="26" y1="75.5" x2="78.5239" y2="85.3374" gradientUnits="userSpaceOnUse">
<stop stop-color="#78BEFF"/>
<stop offset="0.919792" stop-color="#426DFF"/>
</linearGradient>
<linearGradient id="paint16_linear_1290_49487" x1="10.8586" y1="195.845" x2="68.466" y2="236.096" gradientUnits="userSpaceOnUse">
<stop offset="0.111458" stop-color="#65C8FF"/>
<stop offset="1" stop-color="#6F7BEA"/>
</linearGradient>
</defs>
</svg>
