<svg width="312" height="320" viewBox="0 0 312 320" fill="none" xmlns="http://www.w3.org/2000/svg">
<g clip-path="url(#clip0_1290_49568)">
<rect width="312" height="320" rx="10" fill="url(#paint0_linear_1290_49568)"/>
<rect y="225.973" width="312" height="94.0274" fill="url(#paint1_linear_1290_49568)"/>
<path fill-rule="evenodd" clip-rule="evenodd" d="M125.802 230.865H-35.0913C-42.0502 217.971 -46 203.215 -46 187.536C-46 137.082 -5.09882 96.1807 45.3554 96.1807C95.8095 96.1807 136.711 137.082 136.711 187.536C136.711 203.215 132.761 217.971 125.802 230.865Z" fill="url(#paint2_linear_1290_49568)"/>
<path d="M30.5909 189.479H25.0727L28.9716 185.58L27.1926 183.812L23.2937 187.711V182.192H20.7903V187.711L16.8807 183.812L15.1124 185.58L19.0113 189.479H13.4932V191.993H19.0113L15.1124 195.892L16.8807 197.671L20.7903 193.772V199.279H23.2937V193.772L27.1926 197.671L28.9716 195.892L25.0727 191.993H30.5909V189.479Z" fill="url(#paint3_linear_1290_49568)" fill-opacity="0.9"/>
<path d="M64.7476 131.378H59.2295L63.1284 127.479L61.3494 125.711L57.4505 129.61V124.092H54.947V129.61L51.0375 125.711L49.2691 127.479L53.168 131.378H47.6499V133.892H53.168L49.2691 137.791L51.0375 139.57L54.947 135.671V141.179H57.4505V135.671L61.3494 139.57L63.1284 137.791L59.2295 133.892H64.7476V131.378Z" fill="url(#paint4_linear_1290_49568)" fill-opacity="0.9"/>
<path fill-rule="evenodd" clip-rule="evenodd" d="M91.562 155.222H91.5542V135.859C91.5523 135.199 91.7543 134.556 92.132 134.018C92.5098 133.48 93.0444 133.075 93.6612 132.859C94.278 132.643 94.9462 132.627 95.5724 132.814C96.1986 133 96.7515 133.379 97.1539 133.899L103.892 142.554H124.358L131.097 133.899C131.499 133.379 132.052 133 132.678 132.814C133.305 132.627 133.973 132.643 134.59 132.859C135.206 133.075 135.741 133.48 136.119 134.018C136.496 134.556 136.698 135.199 136.697 135.859V155.222H136.656V162.798H146.745C155.411 162.802 163.72 166.283 169.846 172.475C169.861 172.489 169.875 172.504 169.889 172.519C170.413 172.097 170.915 171.644 171.393 171.161C174.751 167.768 176.656 163.145 176.656 158.303C176.656 152.693 181.204 148.145 186.814 148.145C192.425 148.145 196.973 152.693 196.973 158.303C196.973 168.466 192.978 178.234 185.835 185.452C183.77 187.538 181.492 189.362 179.05 190.901C179.291 192.519 179.414 194.162 179.414 195.818V195.992C179.418 198.317 178.969 200.621 178.092 202.771C177.215 204.921 175.927 206.875 174.302 208.522C172.677 210.169 170.747 211.476 168.621 212.369C166.496 213.262 164.218 213.724 161.916 213.727H109.093C106.792 213.727 104.513 213.269 102.387 212.38C100.261 211.49 98.3296 210.186 96.7025 208.542C95.0753 206.899 93.7846 204.947 92.904 202.799C92.0234 200.652 91.5702 198.35 91.5702 196.025V188.707H91.562V155.222Z" fill="url(#paint5_linear_1290_49568)"/>
<path fill-rule="evenodd" clip-rule="evenodd" d="M123.913 153.084V150.04H120.762V153.084H123.913Z" fill="#333333"/>
<path fill-rule="evenodd" clip-rule="evenodd" d="M106.892 153.084V150.04H103.741V153.084H106.892Z" fill="#333333"/>
<path d="M113.827 154.907C111.784 154.907 110.127 153.652 110.127 152.104C110.127 150.555 111.784 149.3 113.827 149.3C115.871 149.3 117.528 150.555 117.528 152.104C117.528 153.652 115.871 154.907 113.827 154.907Z" fill="#E5E5E5"/>
<path fill-rule="evenodd" clip-rule="evenodd" d="M102.929 158.495L104.556 157.332L106.094 159.484H121.596L123.093 157.341L124.732 158.486L122.638 161.484H105.065L102.929 158.495Z" fill="#333333"/>
<path fill-rule="evenodd" clip-rule="evenodd" d="M114.824 156.577L114.828 160.483L112.828 160.485L112.824 156.579L114.824 156.577Z" fill="#333333"/>
<path fill-rule="evenodd" clip-rule="evenodd" d="M417.171 263.859H136.564C128.481 246.378 124 227.09 124 206.82C124 127.602 192.441 63.3818 276.867 63.3818C361.293 63.3818 429.734 127.602 429.734 206.82C429.734 227.09 425.254 246.378 417.171 263.859Z" fill="url(#paint6_linear_1290_49568)"/>
<path d="M201.461 125.51H194.517L199.423 120.603L197.185 118.378L192.278 123.284V116.34H189.128V123.284L184.207 118.378L181.982 120.603L186.889 125.51H179.944V128.674H186.889L181.982 133.58L184.207 135.819L189.128 130.912V137.843H192.278V130.912L197.185 135.819L199.423 133.58L194.517 128.674H201.461V125.51Z" fill="url(#paint7_linear_1290_49568)"/>
<path d="M295.464 100.097H288.52L293.426 95.1899L291.188 92.9645L286.281 97.8712V90.9268H283.13V97.8712L278.21 92.9645L275.985 95.1899L280.892 100.097H273.947V103.26H280.892L275.985 108.167L278.21 110.406L283.13 105.499V112.43H286.281V105.499L291.188 110.406L293.426 108.167L288.52 103.26H295.464V100.097Z" fill="url(#paint8_linear_1290_49568)"/>
<path d="M277.798 215.598H270.854L275.76 210.691L273.522 208.465L268.615 213.372V206.428H265.464V213.372L260.544 208.465L258.319 210.691L263.226 215.598H256.281V218.761H263.226L258.319 223.668L260.544 225.907L265.464 221V227.931H268.615V221L273.522 225.907L275.76 223.668L270.854 218.761H277.798V215.598Z" fill="url(#paint9_linear_1290_49568)"/>
<path fill-rule="evenodd" clip-rule="evenodd" d="M159.684 183.553H159.612V149.724C159.608 148.572 159.965 147.448 160.632 146.508C161.298 145.569 162.242 144.861 163.33 144.484C164.419 144.106 165.598 144.079 166.703 144.404C167.809 144.73 168.785 145.392 169.495 146.3L181.388 161.421H217.508L229.401 146.3C230.111 145.392 231.087 144.73 232.192 144.404C233.297 144.079 234.477 144.106 235.565 144.484C236.654 144.861 237.597 145.569 238.264 146.508C238.931 147.448 239.287 148.572 239.284 149.724V183.553H239.27V242.052H239.255V254.837C239.255 258.898 238.455 262.919 236.901 266.671C235.347 270.423 233.069 273.833 230.197 276.704C227.326 279.576 223.916 281.854 220.164 283.408C216.412 284.962 212.391 285.762 208.329 285.762H115.102C111.04 285.757 107.018 284.951 103.267 283.39C99.5163 281.83 96.1097 279.546 93.2418 276.668C90.3739 273.791 88.101 270.377 86.553 266.621C85.005 262.865 84.2121 258.841 84.2197 254.778V254.474C84.2197 248.813 85.0517 243.239 86.6478 237.913C83.7343 235.894 80.9875 233.606 78.4467 231.064C67.2756 219.89 61 204.736 61 188.936C61 183.325 65.5482 178.777 71.1587 178.777C76.7691 178.777 81.3173 183.325 81.3173 188.936C81.3173 199.349 85.4531 209.336 92.8153 216.7C93.8267 217.712 94.8876 218.662 95.9923 219.55C97.5544 217.496 99.261 215.539 101.105 213.693C111.918 202.876 126.583 196.795 141.877 196.787H159.684V183.553Z" fill="url(#paint10_linear_1290_49568)"/>
<path fill-rule="evenodd" clip-rule="evenodd" d="M182.5 179.301V175.016H187.408V179.301H182.5Z" fill="#333333"/>
<path fill-rule="evenodd" clip-rule="evenodd" d="M212.538 179.301V175.016H217.446V179.301H212.538Z" fill="#333333"/>
<path d="M199.973 183.003C203.58 183.003 206.504 180.81 206.504 178.104C206.504 175.399 203.58 173.206 199.973 173.206C196.366 173.206 193.442 175.399 193.442 178.104C193.442 180.81 196.366 183.003 199.973 183.003Z" fill="#C5C5C5"/>
<path fill-rule="evenodd" clip-rule="evenodd" d="M180.936 189.269L183.214 187.641L186.056 191.617H213.954L216.723 187.653L219.019 189.256L215.414 194.417H184.616L180.936 189.269Z" fill="#333333"/>
<path fill-rule="evenodd" clip-rule="evenodd" d="M201.367 186.084L201.374 193.016L198.574 193.019L198.567 186.087L201.367 186.084Z" fill="#333333"/>
<path d="M284.928 287.68C284.928 287.775 284.965 287.865 285.031 287.932L288.632 291.533C289.054 291.954 289.615 292.185 290.21 292.185C290.807 292.185 291.368 291.953 291.789 291.533C292.659 290.662 292.658 289.245 291.788 288.376L291.524 288.11C293.564 288.466 295.108 290.051 295.108 291.948H295.121V297.226C295.117 297.297 295.108 297.369 295.108 297.442H295.121V321.389H295.832L295.832 297.231C295.942 295.428 297.439 293.946 299.404 293.604L299.138 293.868C298.269 294.738 298.268 296.155 299.138 297.026C299.56 297.447 300.12 297.679 300.717 297.679C301.312 297.679 301.873 297.446 302.294 297.026L305.895 293.425C305.962 293.356 306 293.266 306 293.173C306 293.078 305.962 292.988 305.895 292.921L302.294 289.322C301.873 288.899 301.311 288.667 300.715 288.667C300.12 288.667 299.559 288.9 299.138 289.322C298.268 290.192 298.268 291.609 299.138 292.478L299.531 292.87C297.956 293.073 296.611 293.914 295.832 295.092V282.184C296.437 282.599 297.143 282.832 297.84 282.832C298.493 282.832 299.11 282.634 299.624 282.261C300.846 281.373 301.228 279.691 300.556 278.166C302.102 277.367 302.869 275.707 302.384 274.21C301.961 272.911 300.669 272.039 299.169 272.039C298.971 272.039 298.772 272.054 298.573 272.085C298.252 270.432 296.918 269.233 295.391 269.233C293.873 269.233 292.54 270.422 292.213 272.064C292.062 272.046 291.909 272.037 291.758 272.037C290.256 272.037 288.963 272.909 288.541 274.21C288.073 275.652 288.791 277.287 290.251 278.106C289.551 279.625 289.93 281.37 291.156 282.262C291.67 282.634 292.286 282.832 292.942 282.832C293.705 282.832 294.48 282.557 295.121 282.066V289.635C294.344 288.437 292.988 287.582 291.397 287.377L291.789 286.984C292.659 286.115 292.66 284.698 291.79 283.827C291.369 283.406 290.809 283.174 290.213 283.174C289.617 283.174 289.057 283.407 288.634 283.827L285.033 287.427C284.965 287.495 284.928 287.585 284.928 287.68Z" fill="url(#paint11_linear_1290_49568)"/>
<path d="M290.15 268.936L286.549 265.336C286.126 264.915 285.566 264.684 284.97 264.684C284.374 264.684 283.814 264.916 283.393 265.336C282.523 266.207 282.524 267.623 283.394 268.493L283.786 268.885C282.195 269.091 280.839 269.945 280.062 271.143V263.575C280.703 264.065 281.478 264.34 282.241 264.34C282.895 264.34 283.514 264.143 284.027 263.77C285.253 262.877 285.631 261.133 284.933 259.614C286.392 258.796 287.11 257.162 286.642 255.718C286.219 254.418 284.926 253.546 283.425 253.546C283.275 253.546 283.122 253.554 282.97 253.572C282.642 251.931 281.309 250.742 279.792 250.742C278.265 250.742 276.931 251.94 276.611 253.593C276.411 253.562 276.212 253.547 276.015 253.547C274.514 253.547 273.221 254.42 272.799 255.719C272.314 257.215 273.081 258.875 274.626 259.674C273.955 261.2 274.338 262.882 275.559 263.771C276.073 264.144 276.69 264.341 277.344 264.341C278.041 264.341 278.747 264.108 279.352 263.693L279.351 276.599C278.571 275.42 277.227 274.579 275.652 274.377L276.045 273.986C276.915 273.116 276.916 271.699 276.045 270.828C275.624 270.407 275.063 270.175 274.468 270.175C273.872 270.175 273.311 270.407 272.889 270.828L269.288 274.428C269.221 274.495 269.184 274.586 269.184 274.68C269.184 274.775 269.221 274.865 269.288 274.932L272.889 278.534C273.311 278.955 273.871 279.187 274.466 279.187C275.063 279.187 275.623 278.955 276.045 278.534C276.915 277.663 276.915 276.246 276.045 275.377L275.779 275.113C277.743 275.455 279.241 276.937 279.351 278.74V321.39H280.063V278.95H280.075C280.075 278.877 280.067 278.807 280.063 278.735V273.458H280.075C280.075 271.56 281.62 269.975 283.661 269.62L283.395 269.884C282.525 270.753 282.524 272.169 283.394 273.041C283.816 273.462 284.377 273.694 284.974 273.694C285.569 273.694 286.129 273.461 286.551 273.041L290.152 269.44C290.219 269.373 290.257 269.283 290.257 269.188C290.255 269.093 290.218 269.003 290.15 268.936L290.15 268.936Z" fill="url(#paint12_linear_1290_49568)"/>
<path d="M253.438 276.772C253.438 276.867 253.476 276.957 253.543 277.024L257.144 280.625C257.565 281.047 258.126 281.278 258.721 281.278C259.318 281.278 259.879 281.046 260.3 280.625C261.17 279.754 261.169 278.338 260.3 277.469L260.034 277.204C262.074 277.559 263.619 279.144 263.619 281.042H263.632V286.319C263.627 286.392 263.619 286.462 263.619 286.535H263.632V321.389H264.344L264.343 286.321C264.453 284.519 265.951 283.036 267.916 282.694L267.65 282.959C266.78 283.828 266.779 285.244 267.649 286.116C268.072 286.538 268.632 286.768 269.229 286.768C269.824 286.768 270.383 286.537 270.806 286.116L274.407 282.514C274.474 282.447 274.512 282.357 274.512 282.262C274.512 282.168 274.474 282.077 274.407 282.01L270.806 278.411C270.383 277.989 269.823 277.757 269.228 277.757C268.632 277.757 268.072 277.989 267.65 278.411C266.781 279.282 266.781 280.697 267.651 281.568L268.044 281.96C266.468 282.163 265.124 283.004 264.343 284.183L264.343 271.276C264.948 271.69 265.654 271.923 266.351 271.923C267.004 271.923 267.622 271.726 268.136 271.353C269.358 270.464 269.74 268.782 269.068 267.256C270.613 266.456 271.381 264.797 270.896 263.301C270.472 262.002 269.181 261.129 267.68 261.129C267.483 261.129 267.283 261.144 267.084 261.175C266.764 259.522 265.429 258.324 263.903 258.324C262.385 258.324 261.052 259.512 260.725 261.154C260.574 261.136 260.421 261.128 260.27 261.128C258.768 261.128 257.475 262 257.053 263.3C256.585 264.743 257.303 266.377 258.763 267.196C258.064 268.716 258.443 270.46 259.669 271.352C260.183 271.725 260.799 271.922 261.454 271.922C262.217 271.922 262.992 271.647 263.633 271.157V278.725C262.857 277.527 261.501 276.672 259.909 276.467L260.301 276.076C261.172 275.205 261.172 273.79 260.303 272.918C259.881 272.497 259.321 272.266 258.725 272.266C258.129 272.266 257.569 272.498 257.146 272.918L253.545 276.518C253.476 276.586 253.438 276.677 253.438 276.771L253.438 276.772Z" fill="url(#paint13_linear_1290_49568)"/>
<path d="M258.66 294.458L255.059 290.859C254.636 290.437 254.076 290.206 253.48 290.206C252.883 290.206 252.323 290.439 251.902 290.859C251.032 291.729 251.033 293.146 251.904 294.015L252.296 294.407C250.705 294.613 249.348 295.467 248.572 296.666V289.098C249.212 289.587 249.988 289.864 250.751 289.864C251.405 289.864 252.022 289.666 252.535 289.293C253.762 288.4 254.14 286.656 253.441 285.136C254.9 284.318 255.619 282.684 255.15 281.241C254.728 279.94 253.435 279.068 251.933 279.068C251.783 279.068 251.63 279.076 251.478 279.094C251.15 277.452 249.817 276.265 248.3 276.265C246.773 276.265 245.439 277.462 245.119 279.116C244.92 279.084 244.72 279.07 244.522 279.07C243.022 279.07 241.729 279.942 241.307 281.242C240.821 282.738 241.589 284.397 243.134 285.198C242.464 286.723 242.845 288.405 244.067 289.294C244.581 289.667 245.197 289.864 245.851 289.864C246.548 289.864 247.254 289.631 247.859 289.217V302.123C247.079 300.945 245.734 300.104 244.16 299.901L244.552 299.51C245.422 298.64 245.423 297.222 244.553 296.353C244.131 295.93 243.571 295.699 242.975 295.699C242.378 295.699 241.818 295.931 241.397 296.353L237.795 299.952C237.728 300.019 237.691 300.109 237.691 300.204C237.691 300.297 237.728 300.388 237.795 300.454L241.397 304.057C241.818 304.478 242.378 304.71 242.975 304.71C243.571 304.71 244.131 304.477 244.553 304.057C245.422 303.186 245.422 301.77 244.552 300.899L244.288 300.635C246.252 300.977 247.749 302.458 247.86 304.262V321.389H248.571V304.472H248.583C248.583 304.398 248.575 304.327 248.571 304.256V298.978H248.583C248.583 297.081 250.127 295.496 252.168 295.14L251.904 295.406C251.034 296.275 251.033 297.692 251.903 298.563C252.324 298.984 252.885 299.215 253.482 299.215C254.079 299.215 254.639 298.983 255.06 298.563L258.661 294.962C258.728 294.895 258.766 294.804 258.766 294.71C258.765 294.615 258.728 294.524 258.66 294.457L258.66 294.458Z" fill="url(#paint14_linear_1290_49568)"/>
<path d="M70.4013 290.26L67.2921 287.152C66.9271 286.788 66.4438 286.588 65.9286 286.588C65.4134 286.588 64.9301 286.789 64.5666 287.152C63.8156 287.904 63.8161 289.127 64.5679 289.877L64.9064 290.215C63.5324 290.393 62.3612 291.131 61.6907 292.166V285.631C62.2439 286.054 62.9135 286.293 63.5722 286.293C64.1372 286.293 64.6703 286.122 65.1129 285.8C66.1726 285.029 66.4991 283.523 65.8953 282.211C67.1551 281.504 67.7759 280.094 67.3712 278.847C67.0062 277.724 65.8899 276.971 64.5935 276.971C64.4633 276.971 64.3318 276.979 64.2007 276.994C63.917 275.576 62.7664 274.551 61.4564 274.551C60.1382 274.551 58.9861 275.585 58.7094 277.012C58.5376 276.985 58.365 276.973 58.1946 276.973C56.8987 276.973 55.7828 277.726 55.4183 278.848C54.9986 280.14 55.6618 281.573 56.996 282.264C56.4173 283.581 56.7466 285.033 57.8013 285.801C58.2448 286.123 58.7774 286.293 59.342 286.293C59.9436 286.293 60.5533 286.092 61.0759 285.734V296.878C60.4022 295.861 59.2411 295.135 57.8818 294.959L58.2202 294.621C58.9712 293.871 58.9721 292.646 58.2207 291.896C57.8566 291.531 57.3734 291.331 56.8582 291.331C56.3434 291.331 55.8597 291.532 55.4957 291.896L52.3859 295.004C52.3284 295.061 52.2964 295.139 52.2964 295.221C52.2964 295.302 52.3284 295.38 52.3859 295.437L55.4957 298.548C55.8597 298.911 56.343 299.112 56.8582 299.112C57.3734 299.112 57.8567 298.911 58.2207 298.548C58.9716 297.796 58.9712 296.573 58.2202 295.821L57.9918 295.593C59.6878 295.889 60.9809 297.167 61.076 298.725V320.452H61.6903V298.906H61.7008C61.7008 298.842 61.6935 298.781 61.6903 298.72V294.163H61.7008C61.7008 292.524 63.0341 291.156 64.7964 290.849L64.568 291.078C63.8171 291.829 63.8162 293.052 64.5676 293.804C64.9312 294.167 65.4149 294.367 65.931 294.367C66.4458 294.367 66.9295 294.166 67.2931 293.804L70.4023 290.694C70.4599 290.637 70.4928 290.559 70.4928 290.477C70.4919 290.395 70.4598 290.317 70.4013 290.26Z" fill="url(#paint15_linear_1290_49568)"/>
<circle cx="295.464" cy="276.351" r="1.9226" fill="url(#paint16_linear_1290_49568)"/>
<circle cx="279.72" cy="257.857" r="1.9226" fill="url(#paint17_linear_1290_49568)"/>
<circle cx="263.976" cy="265.454" r="1.9226" fill="url(#paint18_linear_1290_49568)"/>
<circle cx="248.229" cy="283.416" r="1.9226" fill="url(#paint19_linear_1290_49568)"/>
<circle cx="61.3954" cy="280.725" r="1.66005" fill="url(#paint20_linear_1290_49568)"/>
<path fill-rule="evenodd" clip-rule="evenodd" d="M44.9191 273.102L50.9155 279.097L50.9158 279.097C51.0277 279.208 51.0903 279.358 51.0929 279.516C51.0929 279.674 51.0295 279.824 50.9185 279.935L44.922 285.932C44.22 286.632 43.2862 287.019 42.2952 287.019C41.3016 287.019 40.3678 286.633 39.6657 285.932C38.2166 284.48 38.2183 282.123 39.6666 280.675L40.1088 280.235C36.7101 280.827 34.1387 283.466 34.1387 286.626H34.1176V295.413C34.1199 295.453 34.1231 295.493 34.1262 295.533C34.1325 295.612 34.1387 295.691 34.1387 295.772H34.1176V366.444H32.9328V295.422C32.7494 292.419 30.2557 289.952 26.9848 289.382L27.427 289.821C28.8752 291.269 28.8761 293.628 27.4279 295.078C26.7241 295.78 25.792 296.167 24.7984 296.167C23.8074 296.167 22.8754 295.78 22.1716 295.078L16.1751 289.081C16.0641 288.97 16.0024 288.819 16.0024 288.662C16.0024 288.504 16.0641 288.353 16.1751 288.242L22.1716 282.248C22.8754 281.546 23.8083 281.159 24.8011 281.159C25.792 281.159 26.7258 281.546 27.4279 282.248C28.877 283.698 28.8752 286.057 27.427 287.505L26.7725 288.157C29.3948 288.493 31.6342 289.894 32.9327 291.857L32.9335 270.366C31.9266 271.056 30.7507 271.444 29.5905 271.444C28.5016 271.444 27.4736 271.116 26.6173 270.495C24.5841 269.015 23.9472 266.214 25.0651 263.673C22.4911 262.342 21.2138 259.579 22.0225 257.088C22.7254 254.924 24.8775 253.47 27.3767 253.47C27.7052 253.47 28.0373 253.495 28.3694 253.547C28.9023 250.794 31.1241 248.8 33.6664 248.8C36.1928 248.8 38.4119 250.779 38.959 253.512C39.2118 253.482 39.4664 253.468 39.7166 253.468C42.2166 253.468 44.3687 254.921 45.0735 257.086C45.8531 259.49 44.6567 262.21 42.2272 263.573C43.3901 266.102 42.7602 269.008 40.7182 270.494C39.8645 271.115 38.8347 271.443 37.745 271.443C36.4747 271.443 35.1833 270.984 34.1165 270.169V282.772C35.4096 280.777 37.6684 279.354 40.3182 279.011L39.6654 278.359C38.2154 276.91 38.2145 274.552 39.6628 273.102C40.3647 272.402 41.2968 272.015 42.2896 272.015C43.2823 272.015 44.2143 272.401 44.9191 273.102ZM33.5474 263.85C35.3156 263.85 36.7489 262.416 36.7489 260.648C36.7489 258.88 35.3156 257.447 33.5474 257.447C31.7792 257.447 30.3459 258.88 30.3459 260.648C30.3459 262.416 31.7792 263.85 33.5474 263.85Z" fill="url(#paint21_linear_1290_49568)"/>
<circle cx="33.5472" cy="260.706" r="3.33726" fill="url(#paint22_linear_1290_49568)"/>
<path fill-rule="evenodd" clip-rule="evenodd" d="M45.8089 90.6654C44.408 87.3378 39.6886 87.5053 36.1056 88.0515C34.0879 88.3539 32.1056 88.8032 30.1674 89.3964C30.7606 87.4581 31.2099 85.4759 31.5123 83.4582C32.0586 79.8753 32.2261 75.156 28.8984 73.7549C27.7355 73.285 26.7692 73.8106 26.0556 74.8768C26.0536 74.8793 26.0359 74.9088 26.0041 74.9617L26.004 74.9618C25.614 75.6116 23.1108 79.7822 21.6795 80.5509C21.6758 80.5534 21.668 80.5576 21.6566 80.5639C21.5609 80.6165 21.2084 80.8101 20.8278 81.2852C19.4858 82.9739 21.7559 84.3806 21.5004 84.1661C21.5407 84.1885 22.4037 84.6847 22.8285 84.929L22.8302 84.9299L23.0597 85.0619C23.0562 85.0625 23.0438 85.0624 23.0232 85.0622C22.7512 85.0595 21.0489 85.0425 19.5091 86.5333C18.5633 87.4437 17.9467 88.7125 17.8733 90.0546C17.7207 92.3833 19.7516 93.9921 21.8595 93.8093C23.8572 93.6359 25.8391 93.0897 27.6648 91.8987C26.4738 93.7244 25.9276 95.7061 25.7542 97.704C25.5756 99.7634 27.0957 101.658 29.1625 101.698C30.5534 101.725 31.9966 101.128 33.0303 100.054C34.5202 98.5152 34.5041 96.814 34.5015 96.5406C34.5013 96.5198 34.5012 96.5073 34.5018 96.5037L34.6556 96.7713C34.9061 97.2071 35.3757 98.0239 35.3975 98.063C35.1832 97.8076 36.5899 100.078 38.2785 98.7356C38.7536 98.355 38.9471 98.0026 38.9998 97.9068C39.0038 97.8994 39.007 97.8936 39.0095 97.8893C39.0108 97.887 39.0119 97.8852 39.0128 97.8839C39.7802 96.4547 43.941 93.9562 44.5993 93.561L44.5994 93.5609C44.6539 93.5281 44.6844 93.5099 44.6869 93.5078C45.7528 92.7942 46.2785 91.828 45.8086 90.665L45.8089 90.6654ZM38.0191 86.1884C38.5712 86.2706 39.1145 85.8683 39.0822 85.3132C39.0646 84.9901 38.9266 84.7052 38.3628 84.4821C37.42 84.1091 35.9956 85.0284 35.3554 85.5217L32.5213 87.6862C32.5213 87.6862 35.7165 85.8596 38.0189 86.1886L38.0191 86.1884ZM31.8781 87.0425C31.8781 87.0425 33.7047 83.8474 33.3758 81.545L33.3759 81.5448C33.2936 80.9928 33.696 80.4495 34.2511 80.4817C34.5741 80.4991 34.859 80.6372 35.0822 81.2011C35.4552 82.1439 34.536 83.5683 34.0426 84.2085L31.8781 87.0425Z" fill="url(#paint23_linear_1290_49568)"/>
<path d="M203.034 44.3335L212.88 45.9405L203.034 47.5529L201.461 59.6462L199.888 47.5529L190.042 45.9405L199.888 44.3335L201.461 32.2402L203.034 44.3335Z" fill="url(#paint24_linear_1290_49568)" fill-opacity="0.5"/>
<path d="M40.1274 27.6365L46.345 28.6513L40.1274 29.6695L39.1342 37.306L38.1409 29.6695L31.9233 28.6513L38.1409 27.6365L39.1342 20L40.1274 27.6365Z" fill="url(#paint25_linear_1290_49568)" fill-opacity="0.35"/>
<path d="M146.026 87.6611L152.602 88.7344L146.026 89.8114L144.976 97.8885L143.925 89.8114L137.349 88.7344L143.925 87.6611L144.976 79.584L146.026 87.6611Z" fill="url(#paint26_linear_1290_49568)" fill-opacity="0.8"/>
<path d="M60.0166 40.6014L68.5718 41.9976L60.0166 43.3987L58.6499 53.9063L57.2832 43.3987L48.728 41.9976L57.2832 40.6014L58.6499 30.0938L60.0166 40.6014Z" fill="url(#paint27_linear_1290_49568)" fill-opacity="0.5"/>
</g>
<defs>
<linearGradient id="paint0_linear_1290_49568" x1="292.887" y1="7.60977e-07" x2="299.188" y2="191.087" gradientUnits="userSpaceOnUse">
<stop stop-color="#94D9FF"/>
<stop offset="0.326042" stop-color="#B2F1FF"/>
<stop offset="0.784375" stop-color="#D8FFEF"/>
<stop offset="1" stop-color="white"/>
</linearGradient>
<linearGradient id="paint1_linear_1290_49568" x1="12.0325" y1="225.973" x2="11.2106" y2="308.915" gradientUnits="userSpaceOnUse">
<stop stop-color="#DCF3F7"/>
<stop offset="1" stop-color="#9FAEBC"/>
</linearGradient>
<linearGradient id="paint2_linear_1290_49568" x1="-10.9205" y1="108.622" x2="95.3057" y2="220.709" gradientUnits="userSpaceOnUse">
<stop offset="0.09375" stop-color="#8DF1A9"/>
<stop offset="1" stop-color="#3AD8C5"/>
</linearGradient>
<linearGradient id="paint3_linear_1290_49568" x1="22.042" y1="182.192" x2="22.042" y2="199.279" gradientUnits="userSpaceOnUse">
<stop stop-color="#FEFEFE"/>
<stop offset="1" stop-color="#CCF6FF"/>
</linearGradient>
<linearGradient id="paint4_linear_1290_49568" x1="56.1987" y1="124.092" x2="56.1987" y2="141.179" gradientUnits="userSpaceOnUse">
<stop stop-color="#FEFEFE"/>
<stop offset="1" stop-color="#CCF6FF"/>
</linearGradient>
<linearGradient id="paint5_linear_1290_49568" x1="144.264" y1="132.685" x2="144.264" y2="213.727" gradientUnits="userSpaceOnUse">
<stop stop-color="#98A4A7"/>
<stop offset="1" stop-color="#616C6F"/>
</linearGradient>
<linearGradient id="paint6_linear_1290_49568" x1="182.699" y1="81.9006" x2="338.765" y2="267.024" gradientUnits="userSpaceOnUse">
<stop offset="0.09375" stop-color="#8DF1A9"/>
<stop offset="1" stop-color="#3AD8C5"/>
</linearGradient>
<linearGradient id="paint7_linear_1290_49568" x1="190.703" y1="116.34" x2="190.703" y2="137.843" gradientUnits="userSpaceOnUse">
<stop stop-color="#FEFEFE"/>
<stop offset="1" stop-color="#CCF6FF"/>
</linearGradient>
<linearGradient id="paint8_linear_1290_49568" x1="284.706" y1="90.9268" x2="284.706" y2="112.43" gradientUnits="userSpaceOnUse">
<stop stop-color="#FEFEFE"/>
<stop offset="1" stop-color="#CCF6FF"/>
</linearGradient>
<linearGradient id="paint9_linear_1290_49568" x1="267.04" y1="206.428" x2="267.04" y2="227.931" gradientUnits="userSpaceOnUse">
<stop stop-color="#FEFEFE"/>
<stop offset="1" stop-color="#CCF6FF"/>
</linearGradient>
<linearGradient id="paint10_linear_1290_49568" x1="150.142" y1="144.179" x2="150.142" y2="285.762" gradientUnits="userSpaceOnUse">
<stop stop-color="#FEFEFE"/>
<stop offset="1" stop-color="white"/>
</linearGradient>
<linearGradient id="paint11_linear_1290_49568" x1="304.221" y1="321.389" x2="271.986" y2="285.421" gradientUnits="userSpaceOnUse">
<stop stop-color="#B0F1FF"/>
<stop offset="1" stop-color="#7FB2FF"/>
</linearGradient>
<linearGradient id="paint12_linear_1290_49568" x1="288.478" y1="321.391" x2="245.364" y2="285.875" gradientUnits="userSpaceOnUse">
<stop stop-color="#B0F1FF"/>
<stop offset="1" stop-color="#7FB2FF"/>
</linearGradient>
<linearGradient id="paint13_linear_1290_49568" x1="272.733" y1="321.39" x2="233.647" y2="285.319" gradientUnits="userSpaceOnUse">
<stop stop-color="#B0F1FF"/>
<stop offset="1" stop-color="#7FB2FF"/>
</linearGradient>
<linearGradient id="paint14_linear_1290_49568" x1="256.986" y1="321.389" x2="229.815" y2="286.342" gradientUnits="userSpaceOnUse">
<stop stop-color="#B0F1FF"/>
<stop offset="1" stop-color="#7FB2FF"/>
</linearGradient>
<linearGradient id="paint15_linear_1290_49568" x1="68.9565" y1="320.452" x2="40.5333" y2="289.334" gradientUnits="userSpaceOnUse">
<stop stop-color="#B0F1FF"/>
<stop offset="1" stop-color="#7FB2FF"/>
</linearGradient>
<linearGradient id="paint16_linear_1290_49568" x1="295.464" y1="274.429" x2="295.464" y2="278.274" gradientUnits="userSpaceOnUse">
<stop stop-color="#FEFEFE"/>
<stop offset="1" stop-color="#CCF6FF"/>
</linearGradient>
<linearGradient id="paint17_linear_1290_49568" x1="279.72" y1="255.935" x2="279.72" y2="259.78" gradientUnits="userSpaceOnUse">
<stop stop-color="#FEFEFE"/>
<stop offset="1" stop-color="#CCF6FF"/>
</linearGradient>
<linearGradient id="paint18_linear_1290_49568" x1="263.976" y1="263.531" x2="263.976" y2="267.376" gradientUnits="userSpaceOnUse">
<stop stop-color="#FEFEFE"/>
<stop offset="1" stop-color="#CCF6FF"/>
</linearGradient>
<linearGradient id="paint19_linear_1290_49568" x1="248.229" y1="281.493" x2="248.229" y2="285.338" gradientUnits="userSpaceOnUse">
<stop stop-color="#FEFEFE"/>
<stop offset="1" stop-color="#CCF6FF"/>
</linearGradient>
<linearGradient id="paint20_linear_1290_49568" x1="61.3954" y1="279.065" x2="61.3954" y2="282.386" gradientUnits="userSpaceOnUse">
<stop stop-color="#FEFEFE"/>
<stop offset="1" stop-color="#CCF6FF"/>
</linearGradient>
<linearGradient id="paint21_linear_1290_49568" x1="48.1302" y1="366.444" x2="-23.6633" y2="307.303" gradientUnits="userSpaceOnUse">
<stop stop-color="#B0F1FF"/>
<stop offset="1" stop-color="#7FB2FF"/>
</linearGradient>
<linearGradient id="paint22_linear_1290_49568" x1="33.5472" y1="257.369" x2="33.5472" y2="264.044" gradientUnits="userSpaceOnUse">
<stop stop-color="#FEFEFE"/>
<stop offset="1" stop-color="#CCF6FF"/>
</linearGradient>
<linearGradient id="paint23_linear_1290_49568" x1="31.9233" y1="73.582" x2="31.9233" y2="101.699" gradientUnits="userSpaceOnUse">
<stop stop-color="#FEFEFE"/>
<stop offset="1" stop-color="#CCF6FF"/>
</linearGradient>
<linearGradient id="paint24_linear_1290_49568" x1="201.461" y1="32.2402" x2="201.461" y2="59.6462" gradientUnits="userSpaceOnUse">
<stop stop-color="#FEFEFE"/>
<stop offset="1" stop-color="#CCF6FF"/>
</linearGradient>
<linearGradient id="paint25_linear_1290_49568" x1="39.1342" y1="20" x2="39.1342" y2="37.306" gradientUnits="userSpaceOnUse">
<stop stop-color="#FEFEFE"/>
<stop offset="1" stop-color="#CCF6FF"/>
</linearGradient>
<linearGradient id="paint26_linear_1290_49568" x1="144.976" y1="79.584" x2="144.976" y2="97.8885" gradientUnits="userSpaceOnUse">
<stop stop-color="#FEFEFE"/>
<stop offset="1" stop-color="#CCF6FF"/>
</linearGradient>
<linearGradient id="paint27_linear_1290_49568" x1="58.6499" y1="30.0938" x2="58.6499" y2="53.9063" gradientUnits="userSpaceOnUse">
<stop stop-color="#FEFEFE"/>
<stop offset="1" stop-color="#CCF6FF"/>
</linearGradient>
<clipPath id="clip0_1290_49568">
<rect width="312" height="320" rx="10" fill="white"/>
</clipPath>
</defs>
</svg>
