<svg width="312" height="320" viewBox="0 0 312 320" fill="none" xmlns="http://www.w3.org/2000/svg">
<g clip-path="url(#clip0_1612_21254)">
<rect width="312" height="320" rx="10" fill="url(#paint0_linear_1612_21254)"/>
<path d="M150.63 27.1501C150.054 23.0143 145.742 19.8519 140.567 19.8519C139.129 19.8519 137.979 20.095 136.83 20.5817C134.242 17.1758 129.642 14.9863 124.754 14.9863C116.705 14.9863 110.379 20.3382 110.379 27.1503V27.3934C105.491 27.8801 101.754 31.5292 101.754 35.6645C101.754 40.287 106.354 44.1792 111.817 44.1792H149.191C154.654 44.1792 159.254 40.287 159.254 35.6645C159.254 31.2856 155.517 27.8801 150.629 27.1503L150.63 27.1501Z" fill="url(#paint1_linear_1612_21254)" fill-opacity="0.6"/>
<path d="M25.884 69.9276C26.6338 64.0343 32.256 59.528 39.0026 59.528C40.8769 59.528 42.3759 59.8744 43.8749 60.5679C47.2483 55.7146 53.245 52.5947 59.617 52.5947C70.1116 52.5947 78.3582 60.2209 78.3582 69.9279V70.2743C84.7302 70.9678 89.6025 76.1676 89.6025 82.0603C89.6019 88.6471 83.6051 94.1934 76.4839 94.1934H27.7589C20.6377 94.1934 14.6402 88.6471 14.6402 82.0603C14.6402 75.8206 19.5126 70.9678 25.8846 69.9279L25.884 69.9276Z" fill="url(#paint2_linear_1612_21254)" fill-opacity="0.6"/>
<path d="M315.908 78.2772C314.967 70.6739 307.917 64.8601 299.456 64.8601C297.105 64.8601 295.226 65.307 293.346 66.2018C289.115 59.9402 281.595 55.915 273.604 55.915C260.443 55.915 250.101 65.754 250.101 78.2776V78.7246C242.11 79.6193 236 86.3279 236 93.9304C236.001 102.428 243.521 109.584 252.452 109.584H313.556C322.487 109.584 330.008 102.428 330.008 93.9304C330.008 85.8801 323.899 79.6189 315.908 78.2772Z" fill="url(#paint3_linear_1612_21254)" fill-opacity="0.7"/>
<path d="M21.1781 186.206H11.5293V241.973H21.1781V186.206Z" fill="url(#paint4_linear_1612_21254)"/>
<path fill-rule="evenodd" clip-rule="evenodd" d="M40.4624 75.6984C47.1023 70.3519 51.276 62.6101 51.276 53.9979C51.276 37.8647 36.6294 24.7861 18.5618 24.7861C0.494251 24.7861 -14.1524 37.8647 -14.1524 53.9979C-14.1524 62.6104 -9.97844 70.3523 -3.33829 75.6988C-12.2959 81.3842 -18.0961 90.47 -18.0961 100.708C-18.0961 110.899 -12.3493 119.949 -3.46196 125.639C-14.742 131.809 -22.2139 142.58 -22.2139 154.835C-22.2139 173.992 -3.95817 189.521 18.5614 189.521C41.0809 189.521 59.3366 173.992 59.3366 154.835C59.3366 142.58 51.8652 131.81 40.5858 125.64C49.4737 119.949 55.2209 110.9 55.2209 100.708C55.2209 90.4698 49.4204 81.3838 40.4624 75.6984Z" fill="url(#paint5_linear_1612_21254)"/>
<path fill-rule="evenodd" clip-rule="evenodd" d="M294.594 215.648C294.546 215.599 294.519 215.533 294.519 215.464L294.519 215.464C294.519 215.395 294.546 215.33 294.595 215.28L297.216 212.66C297.524 212.354 297.931 212.185 298.365 212.185C298.799 212.185 299.207 212.354 299.513 212.66C300.146 213.294 300.146 214.325 299.512 214.958L299.227 215.244C300.386 215.393 301.372 216.015 301.938 216.887V211.379C301.471 211.735 300.907 211.936 300.352 211.936C299.875 211.936 299.426 211.792 299.052 211.521C298.16 210.871 297.884 209.602 298.393 208.496C297.331 207.9 296.808 206.71 297.149 205.66C297.456 204.714 298.397 204.079 299.49 204.079C299.6 204.079 299.711 204.085 299.821 204.098C300.059 202.903 301.03 202.038 302.134 202.038C303.246 202.038 304.217 202.91 304.45 204.114C304.595 204.091 304.74 204.08 304.884 204.08C305.976 204.08 306.916 204.715 307.224 205.66C307.577 206.75 307.019 207.958 305.894 208.54C306.383 209.65 306.105 210.874 305.216 211.521C304.841 211.792 304.392 211.936 303.917 211.936C303.41 211.936 302.896 211.766 302.455 211.464V220.859C303.023 220.002 304.001 219.39 305.148 219.242L304.862 218.957C304.229 218.324 304.229 217.293 304.861 216.659C305.168 216.353 305.576 216.183 306.009 216.183C306.443 216.183 306.852 216.352 307.159 216.659L309.78 219.279C309.828 219.328 309.856 219.394 309.856 219.463C309.856 219.53 309.828 219.596 309.78 219.646L307.159 222.267C306.852 222.573 306.444 222.742 306.011 222.742C305.576 222.742 305.169 222.573 304.861 222.267C304.229 221.633 304.229 220.602 304.862 219.968L305.055 219.776C303.625 220.025 302.535 221.104 302.455 222.416L302.455 239.999H301.938V222.57H301.928C301.928 222.536 301.931 222.503 301.934 222.47C301.935 222.451 301.937 222.432 301.938 222.413V218.571H301.928C301.928 217.19 300.804 216.037 299.32 215.778L299.512 215.971C300.145 216.604 300.146 217.635 299.513 218.269C299.206 218.574 298.798 218.744 298.363 218.744C297.93 218.744 297.522 218.575 297.215 218.269L294.594 215.648ZM302.187 208.618C302.96 208.618 303.587 207.991 303.587 207.219C303.587 206.446 302.96 205.819 302.187 205.819C301.415 205.819 300.788 206.446 300.788 207.219C300.788 207.991 301.415 208.618 302.187 208.618Z" fill="url(#paint6_linear_1612_21254)"/>
<path fill-rule="evenodd" clip-rule="evenodd" d="M295.699 199.202L298.32 201.822L298.32 201.822C298.369 201.87 298.396 201.936 298.397 202.005C298.397 202.074 298.37 202.14 298.321 202.188L295.7 204.809C295.393 205.115 294.985 205.284 294.552 205.284C294.118 205.284 293.71 205.116 293.403 204.809C292.769 204.175 292.77 203.144 293.403 202.512L293.596 202.319C292.111 202.578 290.987 203.731 290.987 205.113H290.978V208.953C290.979 208.971 290.98 208.988 290.981 209.006C290.984 209.04 290.987 209.075 290.987 209.11H290.978V240H290.46V208.957C290.38 207.645 289.29 206.566 287.86 206.317L288.053 206.509C288.686 207.142 288.687 208.173 288.054 208.807C287.746 209.114 287.339 209.283 286.904 209.283C286.471 209.283 286.064 209.114 285.756 208.807L283.135 206.186C283.087 206.137 283.06 206.071 283.06 206.002C283.06 205.934 283.087 205.868 283.135 205.819L285.756 203.199C286.064 202.892 286.471 202.723 286.905 202.723C287.339 202.723 287.747 202.892 288.054 203.199C288.687 203.833 288.686 204.864 288.053 205.497L287.767 205.782C288.913 205.929 289.892 206.541 290.46 207.399L290.46 198.005C290.02 198.307 289.506 198.477 288.999 198.477C288.523 198.477 288.074 198.333 287.699 198.062C286.811 197.415 286.532 196.191 287.021 195.08C285.896 194.498 285.337 193.291 285.691 192.202C285.998 191.256 286.939 190.621 288.031 190.621C288.175 190.621 288.32 190.631 288.465 190.654C288.698 189.451 289.669 188.579 290.78 188.579C291.885 188.579 292.855 189.444 293.094 190.639C293.204 190.626 293.316 190.62 293.425 190.62C294.518 190.62 295.458 191.255 295.766 192.201C296.107 193.252 295.584 194.441 294.522 195.036C295.031 196.142 294.755 197.412 293.863 198.061C293.49 198.333 293.039 198.476 292.563 198.476C292.008 198.476 291.443 198.276 290.977 197.919V203.428C291.542 202.556 292.53 201.934 293.688 201.784L293.403 201.499C292.769 200.866 292.768 199.835 293.401 199.202C293.708 198.895 294.116 198.726 294.55 198.726C294.983 198.726 295.391 198.895 295.699 199.202ZM290.728 195.157C291.501 195.157 292.128 194.531 292.128 193.758C292.128 192.985 291.501 192.358 290.728 192.358C289.956 192.358 289.329 192.985 289.329 193.758C289.329 194.531 289.956 195.157 290.728 195.157Z" fill="url(#paint7_linear_1612_21254)"/>
<path fill-rule="evenodd" clip-rule="evenodd" d="M271.675 207.708C271.626 207.66 271.599 207.594 271.599 207.525L271.599 207.524C271.599 207.456 271.626 207.39 271.677 207.34L274.298 204.72C274.606 204.414 275.013 204.245 275.447 204.245C275.881 204.245 276.288 204.414 276.595 204.72C277.228 205.354 277.228 206.384 276.594 207.018L276.309 207.303C277.467 207.452 278.454 208.075 279.019 208.947V203.438C278.553 203.795 277.989 203.995 277.433 203.995C276.956 203.995 276.508 203.851 276.134 203.58C275.241 202.931 274.966 201.661 275.475 200.555C274.412 199.959 273.889 198.77 274.23 197.719C274.537 196.773 275.478 196.138 276.571 196.138C276.681 196.138 276.793 196.144 276.902 196.157C277.141 194.962 278.111 194.098 279.216 194.098C280.326 194.098 281.298 194.969 281.531 196.173C281.676 196.15 281.821 196.139 281.965 196.139C283.057 196.139 283.997 196.774 284.305 197.72C284.659 198.809 284.1 200.017 282.975 200.599C283.464 201.709 283.186 202.934 282.297 203.581C281.922 203.852 281.472 203.995 280.997 203.995C280.49 203.995 279.976 203.826 279.536 203.524L279.536 212.919C280.104 212.061 281.083 211.449 282.229 211.301L281.943 211.016C281.31 210.382 281.31 209.352 281.943 208.718C282.25 208.411 282.657 208.242 283.091 208.242C283.525 208.242 283.932 208.411 284.24 208.718L286.861 211.338C286.91 211.386 286.937 211.452 286.937 211.521C286.937 211.59 286.91 211.656 286.861 211.704L284.24 214.326C283.932 214.633 283.525 214.801 283.092 214.801C282.658 214.801 282.25 214.633 281.942 214.326C281.309 213.692 281.31 212.66 281.943 212.028L282.136 211.835C280.706 212.084 279.616 213.163 279.536 214.476L279.536 240H279.018V214.631H279.009C279.009 214.594 279.012 214.557 279.015 214.52C279.016 214.505 279.017 214.489 279.018 214.474V210.633H279.009C279.009 209.251 277.884 208.098 276.4 207.839L276.593 208.032C277.226 208.665 277.226 209.695 276.593 210.33C276.287 210.636 275.878 210.805 275.444 210.805C275.011 210.805 274.603 210.636 274.296 210.33L271.675 207.708ZM279.269 200.686C280.041 200.686 280.668 200.06 280.668 199.287C280.668 198.514 280.041 197.888 279.269 197.888C278.496 197.888 277.869 198.514 277.869 199.287C277.869 200.06 278.496 200.686 279.269 200.686Z" fill="url(#paint8_linear_1612_21254)"/>
<path fill-rule="evenodd" clip-rule="evenodd" d="M272.778 217.778L275.399 220.398L275.399 220.398C275.448 220.446 275.475 220.512 275.476 220.582C275.476 220.65 275.448 220.716 275.399 220.765L272.778 223.386C272.472 223.692 272.064 223.861 271.63 223.861C271.195 223.861 270.787 223.692 270.481 223.386C269.848 222.752 269.848 221.721 270.481 221.088L270.674 220.895C269.188 221.154 268.064 222.307 268.064 223.688H268.056V227.53C268.056 227.548 268.058 227.567 268.059 227.585C268.062 227.619 268.064 227.652 268.064 227.687H268.056V240H267.538V227.534C267.457 226.221 266.367 225.143 264.938 224.894L265.13 225.086C265.763 225.72 265.764 226.751 265.131 227.385C264.824 227.691 264.416 227.86 263.982 227.86C263.548 227.86 263.14 227.692 262.834 227.385L260.212 224.763C260.164 224.714 260.137 224.648 260.137 224.581C260.137 224.512 260.164 224.446 260.212 224.397L262.834 221.778C263.14 221.471 263.548 221.301 263.982 221.301C264.416 221.301 264.824 221.47 265.131 221.778C265.764 222.41 265.763 223.443 265.13 224.075L264.845 224.36C265.991 224.508 266.97 225.12 267.538 225.977V216.583C267.097 216.885 266.583 217.055 266.076 217.055C265.6 217.055 265.151 216.911 264.777 216.64C263.888 215.993 263.611 214.769 264.098 213.658C262.974 213.076 262.415 211.868 262.768 210.779C263.076 209.833 264.016 209.198 265.109 209.198C265.252 209.198 265.398 209.209 265.543 209.231C265.776 208.028 266.747 207.156 267.858 207.156C268.963 207.156 269.933 208.021 270.172 209.216C270.282 209.203 270.393 209.197 270.503 209.197C271.596 209.197 272.537 209.831 272.844 210.778C273.185 211.829 272.662 213.018 271.6 213.614C272.109 214.72 271.834 215.989 270.941 216.639C270.567 216.911 270.118 217.054 269.642 217.054C269.087 217.054 268.522 216.853 268.056 216.497V222.006C268.621 221.133 269.608 220.511 270.767 220.361L270.481 220.076C269.847 219.443 269.847 218.412 270.48 217.778C270.787 217.473 271.194 217.303 271.628 217.303C272.063 217.303 272.47 217.472 272.778 217.778ZM267.807 213.761C268.579 213.761 269.206 213.134 269.206 212.361C269.206 211.588 268.579 210.962 267.807 210.962C267.034 210.962 266.407 211.588 266.407 212.361C266.407 213.134 267.034 213.761 267.807 213.761Z" fill="url(#paint9_linear_1612_21254)"/>
<path d="M54.0062 224.492L49.3763 219.863C48.8329 219.321 48.1127 219.023 47.3462 219.023C46.5794 219.023 45.8595 219.321 45.3173 219.863C44.1991 220.983 44.1998 222.804 45.3186 223.923L45.8228 224.426C43.7872 224.689 42.0516 225.779 41.0509 227.307V211.37C41.8324 211.908 42.7463 212.212 43.6494 212.212C44.4912 212.212 45.2839 211.958 45.9441 211.479C47.5153 210.336 48.0058 208.175 47.143 206.213C49.1297 205.183 50.1173 203.05 49.4926 201.126C48.8783 199.238 46.8147 198.055 44.5905 198.391C44.1792 196.266 42.4643 194.727 40.4999 194.727C38.5499 194.727 36.8369 196.254 36.4151 198.365C34.2691 198.114 32.2911 199.287 31.693 201.126C31.0909 202.981 32.015 205.082 33.8916 206.135C32.9917 208.089 33.4793 210.332 35.0567 211.479C35.7169 211.958 36.5102 212.212 37.351 212.212C38.3262 212.212 39.3173 211.861 40.1365 211.24V223.64C39.1355 222.113 37.3989 221.022 35.3637 220.76L35.8682 220.256C36.9872 219.138 36.9872 217.316 35.8685 216.197C35.327 215.656 34.6065 215.358 33.84 215.358C33.0738 215.358 32.3533 215.656 31.8108 216.197L27.1799 220.826C27.0938 220.912 27.0459 221.028 27.0459 221.15C27.0459 221.272 27.0941 221.388 27.1799 221.473L31.8104 226.103C32.3526 226.645 33.0725 226.944 33.839 226.944C34.6058 226.944 35.3263 226.645 35.8688 226.103C36.9872 224.983 36.987 223.163 35.8679 222.044L35.5274 221.705C38.151 222.16 40.1358 224.199 40.1358 226.639V240.098H41.0507L41.051 230.305C41.051 227.864 43.0358 225.826 45.6595 225.37L45.319 225.709C44.2006 226.828 44.1999 228.648 45.318 229.768C45.8605 230.311 46.5807 230.608 47.3482 230.608C48.114 230.608 48.8349 230.311 49.3771 229.768L54.0066 225.139C54.0928 225.052 54.1406 224.937 54.1406 224.815C54.1403 224.693 54.0924 224.578 54.0062 224.492ZM40.5935 206.663C39.3372 206.663 38.3154 205.641 38.3154 204.385C38.3154 203.129 39.3375 202.107 40.5935 202.107C41.8498 202.107 42.8716 203.129 42.8716 204.385C42.8716 205.641 41.8498 206.663 40.5935 206.663Z" fill="url(#paint10_linear_1612_21254)"/>
<path d="M0 240H333V320H0V240Z" fill="url(#paint11_linear_1612_21254)"/>
<g filter="url(#filter0_f_1612_21254)">
<path d="M159.06 297.984C219.844 297.984 269.119 293.287 269.119 287.492C269.119 281.697 219.844 277 159.06 277C98.2754 277 49 281.697 49 287.492C49 293.287 98.2754 297.984 159.06 297.984Z" fill="#C15431" fill-opacity="0.25"/>
</g>
<path fill-rule="evenodd" clip-rule="evenodd" d="M108.523 76.573H93.7842V75.873H108.523V76.573Z" fill="#888888"/>
<path fill-rule="evenodd" clip-rule="evenodd" d="M108.522 86.3543H85.3955V85.6543H108.522V86.3543Z" fill="#888888"/>
<path d="M174.407 64.3478C174.407 64.3478 163.51 63.7831 165.723 89.2981C167.937 114.813 170.629 121.927 181.805 119.458C192.981 116.989 198.436 106.212 198.436 106.212C198.436 106.212 203.887 94.5051 201.304 95.099C194.617 96.6417 192.144 96.8759 186.25 101.009C183.218 103.126 181.846 100.037 181.027 95.6533C178.596 82.6903 178.886 64.6608 174.407 64.3478Z" fill="#3C3C3C"/>
<path d="M141.765 103.079C150.453 102.411 160.945 101.622 169.234 101.135C171.631 100.994 172.25 101.328 173.428 102.511C174.187 103.266 174.673 104.837 175.059 107.517C181.59 152.294 184.48 189.506 183.887 234.844C183.904 236.027 183.663 237.199 183.182 238.279C182.773 239.362 182.119 240.335 181.271 241.119C180.513 241.88 179.606 242.474 178.608 242.864C177.773 243.22 176.884 243.43 175.978 243.485C175.456 243.545 174.929 243.545 174.407 243.485C169.751 243.485 164.204 243.445 159.777 242.864C157.067 242.51 155.375 241.874 153.731 239.976C152.086 238.078 151.545 235.947 151.585 233.073C151.891 210.872 155.372 186.05 151.364 163.903C144.658 191.595 132.026 207.808 112.833 226.073C111.513 227.137 110.469 227.751 108.85 228.246C108.545 228.343 107.105 228.431 106.786 228.395C104.902 228.161 103.051 227.713 101.267 227.058C95.3155 224.525 86.9485 222.741 83.5384 220.068C82.1152 218.952 81.5192 217.888 81.6191 216.204C81.719 214.52 82.4711 212.737 84.2752 210.202C94.2054 196.249 114.489 176.988 119.096 158.335C123.337 141.187 128.284 125.294 133.743 109.428C134.768 106.428 135.008 106.187 136.233 104.75C136.985 103.5 140.94 103.119 141.758 103.059L141.765 103.079Z" fill="url(#paint12_linear_1612_21254)"/>
<path fill-rule="evenodd" clip-rule="evenodd" d="M165.237 126.426C165.352 126.556 165.339 126.755 165.209 126.871C163.65 128.247 162.252 130.539 160.987 133.378C159.725 136.21 158.609 139.553 157.599 143.003C156.684 146.13 155.857 149.336 155.088 152.32C155.009 152.627 154.931 152.932 154.853 153.235C154.018 156.467 153.248 159.398 152.503 161.601C152.447 161.766 152.269 161.854 152.104 161.799C151.939 161.743 151.851 161.564 151.906 161.399C152.643 159.222 153.407 156.315 154.243 153.077C154.321 152.775 154.399 152.47 154.479 152.162C155.247 149.18 156.076 145.963 156.995 142.826C158.008 139.365 159.133 135.991 160.411 133.121C161.687 130.258 163.129 127.866 164.792 126.398C164.923 126.283 165.122 126.295 165.237 126.426Z" fill="url(#paint13_linear_1612_21254)"/>
<path d="M170.739 105.713L130.947 104.256C130.934 104.254 130.922 104.248 130.914 104.238C130.905 104.228 130.9 104.215 130.9 104.202L132.478 64.8855C132.5 64.3324 132.63 63.789 132.86 63.2864C133.091 62.7838 133.242 62.412 133.647 62.0364C134.052 61.6609 134.527 61.3692 135.044 61.1781C135.562 60.9869 136.111 60.9 136.662 60.9224L171.484 62.0363C173.293 62.111 174.427 63.0857 175.655 64.4212C176.883 65.7568 177.533 67.5269 177.463 69.3431L170.739 105.713Z" fill="url(#paint14_linear_1612_21254)"/>
<path d="M85.6822 290C98.2092 290 108.364 279.806 108.364 267.23C108.364 254.655 98.2092 244.461 85.6822 244.461C73.1552 244.461 63 254.655 63 267.23C63 279.806 73.1552 290 85.6822 290Z" fill="#4A4A4A"/>
<path d="M85.6829 279.219C92.2791 279.219 97.6265 273.851 97.6265 267.23C97.6265 260.608 92.2791 255.24 85.6829 255.24C79.0866 255.24 73.7393 260.608 73.7393 267.23C73.7393 273.851 79.0866 279.219 85.6829 279.219Z" fill="white"/>
<path d="M85.6826 274.034C89.4257 274.034 92.46 270.988 92.46 267.23C92.46 263.473 89.4257 260.427 85.6826 260.427C81.9396 260.427 78.9053 263.473 78.9053 267.23C78.9053 270.988 81.9396 274.034 85.6826 274.034Z" fill="#4A4A4A"/>
<path d="M85.6822 290C98.2092 290 108.364 279.806 108.364 267.23C108.364 254.655 98.2092 244.461 85.6822 244.461C73.1552 244.461 63 254.655 63 267.23C63 279.806 73.1552 290 85.6822 290Z" fill="url(#paint15_linear_1612_21254)"/>
<path d="M85.6829 279.219C92.2791 279.219 97.6265 273.851 97.6265 267.23C97.6265 260.608 92.2791 255.24 85.6829 255.24C79.0866 255.24 73.7393 260.608 73.7393 267.23C73.7393 273.851 79.0866 279.219 85.6829 279.219Z" fill="white"/>
<path d="M244.311 290C256.838 290 266.993 279.806 266.993 267.23C266.993 254.655 256.838 244.461 244.311 244.461C231.784 244.461 221.629 254.655 221.629 267.23C221.629 279.806 231.784 290 244.311 290Z" fill="url(#paint16_linear_1612_21254)"/>
<path d="M244.312 279.219C250.908 279.219 256.255 273.851 256.255 267.23C256.255 260.608 250.908 255.24 244.312 255.24C237.715 255.24 232.368 260.608 232.368 267.23C232.368 273.851 237.715 279.219 244.312 279.219Z" fill="white"/>
<path fill-rule="evenodd" clip-rule="evenodd" d="M211.517 104.529H210.239C207.869 104.529 205.811 105.867 204.773 107.83H196.95C196.682 107.83 196.422 107.867 196.176 107.935C196.085 107.954 195.994 107.977 195.903 108.005L195.897 108.007C194.369 108.48 193.512 110.108 193.983 111.642L209.315 161.547C208.756 162.322 208.553 163.341 208.856 164.326L227.907 226.338L209.481 258.375C209.148 258.254 208.789 258.188 208.414 258.188H114.571C113.69 255.314 112.383 252.57 110.681 250.053C107.271 245.012 102.429 241.113 96.7828 238.863C91.136 236.614 84.9457 236.119 79.0146 237.442C73.0836 238.766 67.6872 241.847 63.5239 246.283C62.2012 247.693 62.2716 249.908 63.6812 251.23C65.0908 252.553 67.3057 252.483 68.6284 251.073C71.8322 247.659 75.982 245.291 80.5391 244.274C85.0962 243.257 89.8525 243.638 94.1922 245.366C98.5322 247.095 102.257 250.094 104.883 253.975C105.782 255.305 106.538 256.717 107.144 258.188H102.18C100.448 258.188 99.0439 259.598 99.0439 261.336V264.316H91.8087C90.7214 262.017 88.387 260.427 85.6826 260.427C81.9396 260.427 78.9053 263.473 78.9053 267.23C78.9053 270.988 81.9396 274.034 85.6826 274.034C88.3896 274.034 90.7259 272.441 91.8118 270.137H100.205C100.744 270.577 101.431 270.84 102.18 270.84H208.414C210.146 270.84 211.55 269.43 211.55 267.692V266.421L230.238 233.926L239.125 262.851C238.132 264.034 237.534 265.562 237.534 267.23C237.534 270.988 240.568 274.034 244.312 274.034C248.055 274.034 251.089 270.988 251.089 267.23C251.089 264.432 249.407 262.029 247.002 260.984L216.573 161.937C216.302 161.057 215.682 160.381 214.913 160.017L200.669 113.651H204.775C205.815 115.612 207.872 116.947 210.239 116.947H211.517C214.933 116.947 217.702 114.167 217.702 110.738C217.702 107.309 214.933 104.529 211.517 104.529Z" fill="url(#paint17_linear_1612_21254)"/>
<path d="M161.772 54.0711L161.371 62.125L142.132 61.3023L150.66 48.5107L161.772 54.0711Z" fill="#FFDDAF"/>
<path d="M161.358 62.4007L161.765 54.1927L150.887 48.5254L150.814 50.3833C150.761 51.5787 151.006 52.7683 151.526 53.8452C152.055 54.9381 152.838 55.8872 153.809 56.612L161.358 62.4007Z" fill="#EFC080"/>
<path d="M148.656 50.3687L151.446 50.489L151.878 52.1197C152.042 52.7335 152.402 53.2761 152.904 53.6635C153.414 54.0677 154.038 54.3014 154.688 54.3318L162.118 54.6459C162.64 54.6711 163.161 54.5869 163.649 54.3986C164.133 54.2168 164.573 53.9344 164.94 53.5699C165.3 53.2093 165.579 52.7766 165.759 52.3001C165.932 51.8259 166 51.3197 165.959 50.8165L164.927 38.4326L149.748 44.0464L148.929 44.013C148.068 43.9681 147.223 44.2604 146.572 44.8284C146.256 45.0986 145.998 45.4305 145.814 45.8039C145.63 46.1773 145.523 46.5843 145.5 47.0004C145.475 47.4167 145.539 47.8337 145.687 48.2234C145.833 48.6221 146.06 48.9862 146.353 49.2927C146.645 49.6152 146.998 49.8764 147.391 50.0613C147.782 50.2438 148.205 50.3482 148.636 50.3687H148.656Z" fill="#FFDDAF"/>
<path d="M149.748 44.0803C150.055 44.0924 150.345 44.2215 150.56 44.4412C150.664 44.5494 150.745 44.6773 150.798 44.8173C150.852 44.9573 150.878 45.1066 150.873 45.2566L150.793 47.0209H151.153C151.621 47.0432 152.079 46.8827 152.431 46.5731C152.601 46.4246 152.739 46.2433 152.837 46.0401C152.935 45.8369 152.992 45.6159 153.004 45.3902V44.7219C153.023 44.3048 153.154 43.9007 153.383 43.5524C153.613 43.1946 153.935 42.9059 154.315 42.717L157.284 41.1865L149.748 44.0803Z" fill="url(#paint18_linear_1612_21254)"/>
<path fill-rule="evenodd" clip-rule="evenodd" d="M165.114 41.691C165.114 41.691 165.114 41.691 165.067 41.9618L165.114 41.691C165.264 41.7174 165.364 41.8601 165.337 42.0097C165.311 42.1592 165.168 42.259 165.019 42.2326C165.019 42.2326 165.019 42.2326 165.019 42.2326L165.017 42.2324L165.011 42.2313L164.985 42.2271C164.962 42.2234 164.928 42.2181 164.884 42.2118C164.795 42.1991 164.668 42.1826 164.513 42.1674C164.201 42.1369 163.786 42.112 163.359 42.1329C162.929 42.1539 162.507 42.2206 162.174 42.3616C161.845 42.5012 161.631 42.6998 161.549 42.9758L161.547 42.9802C161.533 43.0251 161.53 43.1433 161.576 43.3672C161.619 43.577 161.695 43.8351 161.791 44.1301C161.858 44.3361 161.935 44.5611 162.016 44.7959C162.161 45.2181 162.317 45.6721 162.444 46.1041C162.639 46.7722 162.788 47.4615 162.712 47.9903C162.672 48.2622 162.569 48.5222 162.352 48.7069C162.134 48.8927 161.843 48.9675 161.5 48.9531C161.348 48.9467 161.23 48.8185 161.237 48.6668C161.243 48.5151 161.371 48.3972 161.523 48.4036C161.776 48.4142 161.915 48.3568 161.995 48.2884C162.077 48.2189 162.14 48.1025 162.167 47.9114C162.225 47.5139 162.112 46.9297 161.916 46.2586C161.792 45.8362 161.645 45.4086 161.503 44.9964C161.421 44.7579 161.341 44.5246 161.268 44.3003C161.17 44.001 161.087 43.7189 161.037 43.4777C160.991 43.2515 160.962 43.0091 161.022 42.8171C161.167 42.3324 161.538 42.0336 161.96 41.8552C162.378 41.678 162.873 41.606 163.332 41.5835C163.794 41.561 164.239 41.5879 164.566 41.62C164.73 41.6362 164.866 41.6537 164.962 41.6673C165.009 41.6741 165.047 41.6799 165.073 41.6841L165.103 41.689L165.111 41.6904L165.114 41.691Z" fill="#212121"/>
<path fill-rule="evenodd" clip-rule="evenodd" d="M149.339 45.9208C148.977 45.543 148.482 45.3212 147.96 45.3027L147.94 45.8524C148.32 45.8658 148.68 46.0271 148.943 46.3024L148.943 46.3024L148.946 46.3049C149.072 46.4332 149.17 46.5862 149.234 46.7545C149.299 46.9228 149.328 47.1027 149.32 47.2829C149.313 47.4346 149.431 47.5631 149.582 47.5698C149.734 47.5766 149.863 47.4591 149.869 47.3074C149.881 47.0519 149.839 46.7967 149.748 46.5579C149.657 46.3197 149.518 46.1028 149.339 45.9208Z" fill="url(#paint19_linear_1612_21254)"/>
<path fill-rule="evenodd" clip-rule="evenodd" d="M158.187 48.8892C158.329 48.8337 158.488 48.9034 158.544 49.0448C158.711 49.4725 159.504 50.3822 160.947 50.31C161.099 50.3024 161.228 50.4192 161.235 50.5709C161.243 50.7226 161.126 50.8517 160.974 50.8593C159.273 50.9444 158.278 49.8723 158.032 49.2456C157.976 49.1042 158.046 48.9446 158.187 48.8892Z" fill="black"/>
<path d="M148.995 44.3946L149.162 40.4515C149.198 39.524 149.509 38.6283 150.054 37.8785C150.607 37.1119 151.364 36.5168 152.237 36.1609L158.169 33.735C159.3 33.2837 160.56 33.2837 161.691 33.735C162.246 33.9446 162.755 34.262 163.188 34.6691C163.621 35.0762 163.97 35.565 164.214 36.1075C164.3 36.303 164.374 36.5039 164.434 36.7089L164.907 38.4399L148.995 44.3946Z" fill="url(#paint20_linear_1612_21254)"/>
<path d="M149.442 44.3943L171.066 36.2676" stroke="#29D3C6" stroke-linecap="round" stroke-linejoin="round"/>
<path d="M161.372 62.0914L160.793 75.8186L152.052 61.6904L161.372 62.0914Z" fill="white"/>
<path d="M167.475 61.9465L161.382 61.9466L161.57 58.1451C162.72 58.1995 163.741 58.6819 164.576 59.4772L167.475 61.9465Z" fill="url(#paint21_linear_1612_21254)"/>
<path d="M152.149 61.8261L151.332 59.0307C151.203 58.6347 150.954 58.2889 150.62 58.0416C150.279 57.7907 149.871 57.6466 149.448 57.6272L141.732 57.2997C140.553 57.2469 139.397 57.6324 138.483 58.3824L135.201 61.0891L152.149 61.8261Z" fill="url(#paint22_linear_1612_21254)"/>
<path d="M172.323 109.542V116.519H130.381L132.445 109.542H172.323Z" fill="url(#paint23_linear_1612_21254)"/>
<path d="M167.418 61.9043L130.561 127.132H134.981L171.521 62.0056L167.418 61.9043Z" fill="url(#paint24_linear_1612_21254)"/>
<path d="M141.307 115.61L130.142 141.821C129.816 142.592 129.263 143.245 128.558 143.692C127.841 144.157 127.007 144.403 126.154 144.401H114.703C114.22 144.402 113.743 144.288 113.312 144.067C112.886 143.856 112.52 143.541 112.247 143.151C111.97 142.77 111.797 142.323 111.745 141.854C111.692 141.386 111.762 140.911 111.947 140.478L121.268 118.19C121.593 117.415 122.146 116.757 122.852 116.305C123.569 115.836 124.407 115.588 125.262 115.59L141.307 115.61Z" fill="url(#paint25_linear_1612_21254)"/>
<path d="M177.177 246.179H158.536L156.286 258.035C156.282 258.081 156.282 258.128 156.286 258.175C156.285 258.278 156.305 258.38 156.344 258.475C156.383 258.57 156.44 258.657 156.512 258.73C156.584 258.802 156.669 258.859 156.762 258.898C156.856 258.937 156.957 258.957 157.058 258.957H164.434C164.606 258.957 164.773 258.898 164.907 258.79C165.028 258.692 165.116 258.559 165.16 258.409H169.361L169.541 258.563C169.828 258.812 170.194 258.949 170.573 258.95H188.881L177.177 246.179Z" fill="url(#paint26_linear_1612_21254)"/>
<path d="M176.684 242.63H158.855V246.098H176.684V242.63Z" fill="white"/>
<path fill-rule="evenodd" clip-rule="evenodd" d="M158.65 242.63C158.65 242.517 158.742 242.425 158.855 242.425H176.684C176.797 242.425 176.889 242.517 176.889 242.63V246.098C176.889 246.212 176.797 246.303 176.684 246.303H158.855C158.742 246.303 158.65 246.212 158.65 246.098V242.63ZM159.06 242.835V245.893H176.479V242.835H159.06Z" fill="url(#paint27_linear_1612_21254)"/>
<path fill-rule="evenodd" clip-rule="evenodd" d="M173.729 246.098V242.63H174.139V246.098H173.729Z" fill="url(#paint28_linear_1612_21254)"/>
<path fill-rule="evenodd" clip-rule="evenodd" d="M170.7 246.098V242.63H171.11V246.098H170.7Z" fill="url(#paint29_linear_1612_21254)"/>
<path fill-rule="evenodd" clip-rule="evenodd" d="M167.665 246.098V242.63H168.075V246.098H167.665Z" fill="url(#paint30_linear_1612_21254)"/>
<path fill-rule="evenodd" clip-rule="evenodd" d="M164.622 246.098V242.63H165.032V246.098H164.622Z" fill="url(#paint31_linear_1612_21254)"/>
<path fill-rule="evenodd" clip-rule="evenodd" d="M161.593 246.098V242.63H162.003V246.098H161.593Z" fill="url(#paint32_linear_1612_21254)"/>
<path d="M101.801 227.05L85.1825 220.588L83.9331 223.832L100.552 230.294L101.801 227.05Z" fill="white"/>
<path fill-rule="evenodd" clip-rule="evenodd" d="M85.1003 220.4C85.1501 220.378 85.2067 220.377 85.2574 220.397L101.876 226.859C101.981 226.899 102.034 227.018 101.993 227.123L100.744 230.367C100.724 230.418 100.685 230.459 100.635 230.481C100.585 230.503 100.529 230.504 100.478 230.485L83.8595 224.023C83.7542 223.982 83.7019 223.864 83.7425 223.758L84.9918 220.514C85.0114 220.463 85.0504 220.423 85.1003 220.4ZM85.3005 220.854L84.1985 223.715L100.435 230.028L101.537 227.167L85.3005 220.854Z" fill="url(#paint33_linear_1612_21254)"/>
<path fill-rule="evenodd" clip-rule="evenodd" d="M97.8023 229.222L99.0583 225.979L99.4406 226.127L98.1846 229.37L97.8023 229.222Z" fill="url(#paint34_linear_1612_21254)"/>
<path fill-rule="evenodd" clip-rule="evenodd" d="M94.9771 228.127L96.2264 224.883L96.609 225.031L95.3597 228.275L94.9771 228.127Z" fill="url(#paint35_linear_1612_21254)"/>
<path fill-rule="evenodd" clip-rule="evenodd" d="M92.1441 227.058L93.3934 223.814L93.776 223.961L92.5267 227.205L92.1441 227.058Z" fill="url(#paint36_linear_1612_21254)"/>
<path fill-rule="evenodd" clip-rule="evenodd" d="M89.3111 225.922L90.5604 222.678L90.943 222.826L89.6937 226.07L89.3111 225.922Z" fill="url(#paint37_linear_1612_21254)"/>
<path fill-rule="evenodd" clip-rule="evenodd" d="M86.482 224.827L87.7379 221.583L88.1203 221.731L86.8643 224.975L86.482 224.827Z" fill="url(#paint38_linear_1612_21254)"/>
<path d="M100.578 230.545L83.5934 223.823L77.3375 234.072C77.3125 234.113 77.2912 234.156 77.2738 234.2C77.2024 234.392 77.2071 234.604 77.2869 234.792C77.3684 234.979 77.5168 235.127 77.7017 235.204L84.4233 237.879C84.5813 237.941 84.7555 237.947 84.9178 237.896C85.0802 237.845 85.2212 237.739 85.3181 237.596L85.4679 237.381L88.8818 238.709L89.2235 239.357C89.3949 239.696 89.6805 239.96 90.0276 240.099L106.715 246.701L100.578 230.545Z" fill="url(#paint39_linear_1612_21254)"/>
<path d="M133.809 60.5345C133.809 60.5345 116.176 57.9097 120.754 86.8594C126.34 113.305 146.052 127.092 164.987 124.038C170.485 123.173 175.728 121.11 180.346 117.992C184.964 114.875 187.534 109.851 190.405 105.065C190.405 105.065 197.634 89.8538 193.273 90.5822C181.956 92.4736 179.44 94.819 169.633 99.3769C164.614 101.709 153.353 100.304 148.843 90.5822C144.109 77.1892 142.333 61.9342 133.809 60.5345Z" fill="url(#paint40_linear_1612_21254)"/>
<path d="M189.637 108.844C189.637 108.844 186.375 111.824 183.273 112.304C180.171 112.785 176.519 110.631 177.731 105.494C178.213 103.447 179.587 100.56 180.922 98.5601C185.324 91.9683 191.813 88.9876 195.336 91.1575C196.272 91.6399 197.077 92.7023 197.22 94.5357L189.637 108.844Z" fill="#3C3C3C"/>
<path d="M187.255 108.396C185.914 107.339 187.293 102.976 190.305 99.4871C192.486 96.9747 195.007 95.2079 196.741 94.8181L197.121 94.8148L204.324 94.7506C207.258 94.72 210.152 95.4418 212.731 96.8477L217.903 99.6822C218.525 100.041 219.046 100.554 219.414 101.172C219.774 101.778 219.968 102.468 219.978 103.172L220.038 109.855C220.041 110.727 219.715 111.568 219.126 112.209C218.518 112.863 217.698 113.278 216.813 113.38L211.699 113.973L211.689 112.904C211.685 112.599 211.76 112.299 211.908 112.033C212.067 111.756 212.294 111.523 212.568 111.359L213.793 110.68C213.847 110.653 213.889 110.607 213.912 110.552C213.923 110.525 213.929 110.497 213.929 110.468C213.928 110.439 213.922 110.411 213.91 110.384C213.898 110.328 213.864 110.278 213.816 110.245C213.769 110.206 213.71 110.185 213.649 110.186L212.058 110.2C211.082 110.253 210.105 110.107 209.187 109.771C208.268 109.434 207.427 108.915 206.714 108.243L189.099 108.4L187.255 108.396Z" fill="#FFDDAF"/>
<path fill-rule="evenodd" clip-rule="evenodd" d="M214.445 103.393C214.556 103.202 214.8 103.137 214.991 103.248L217.775 104.867C217.775 104.867 217.775 104.867 217.775 104.867C218.457 105.263 219.027 105.827 219.43 106.506C219.825 107.171 220.039 107.93 220.049 108.705L220.049 108.706L220.068 110.771C220.07 110.992 219.892 111.173 219.671 111.175C219.451 111.177 219.27 111 219.268 110.779L219.25 108.715C219.241 108.08 219.066 107.459 218.742 106.914C218.408 106.353 217.937 105.886 217.374 105.559L214.589 103.94C214.398 103.828 214.333 103.584 214.445 103.393Z" fill="url(#paint41_linear_1612_21254)"/>
<path fill-rule="evenodd" clip-rule="evenodd" d="M214.42 100.607C214.531 100.417 214.776 100.352 214.967 100.463L217.751 102.082C218.432 102.478 219.002 103.042 219.405 103.721C219.801 104.386 220.015 105.145 220.025 105.919L220.025 105.921L220.049 108.594C220.051 108.815 219.873 108.996 219.652 108.998C219.432 109 219.251 108.822 219.249 108.602L219.225 105.929C219.216 105.295 219.041 104.674 218.717 104.129C218.384 103.568 217.913 103.101 217.349 102.774L214.565 101.154C214.374 101.043 214.309 100.798 214.42 100.607Z" fill="url(#paint42_linear_1612_21254)"/>
<path fill-rule="evenodd" clip-rule="evenodd" d="M214.639 106.414C214.751 106.223 214.996 106.158 215.186 106.27L217.974 107.898C218.528 108.229 219.002 108.678 219.364 109.213C219.726 109.748 219.965 110.357 220.066 110.995C220.101 111.214 219.952 111.419 219.734 111.453C219.516 111.488 219.311 111.339 219.276 111.121C219.193 110.597 218.997 110.099 218.701 109.661C218.405 109.223 218.018 108.856 217.565 108.586L214.783 106.961C214.592 106.849 214.528 106.604 214.639 106.414Z" fill="url(#paint43_linear_1612_21254)"/>
<path d="M163.817 46.2137C163.433 46.2137 163.121 45.789 163.121 45.265C163.121 44.7411 163.433 44.3164 163.817 44.3164C164.201 44.3164 164.513 44.7411 164.513 45.265C164.513 45.789 164.201 46.2137 163.817 46.2137Z" fill="#333333"/>
<path d="M157.98 46.2137C157.596 46.2137 157.285 45.789 157.285 45.265C157.285 44.7411 157.596 44.3164 157.98 44.3164C158.364 44.3164 158.676 44.7411 158.676 45.265C158.676 45.789 158.364 46.2137 157.98 46.2137Z" fill="#333333"/>
</g>
<defs>
<filter id="filter0_f_1612_21254" x="41" y="269" width="236.119" height="36.9844" filterUnits="userSpaceOnUse" color-interpolation-filters="sRGB">
<feFlood flood-opacity="0" result="BackgroundImageFix"/>
<feBlend mode="normal" in="SourceGraphic" in2="BackgroundImageFix" result="shape"/>
<feGaussianBlur stdDeviation="4" result="effect1_foregroundBlur_1612_21254"/>
</filter>
<linearGradient id="paint0_linear_1612_21254" x1="292.887" y1="1.54661e-07" x2="277.907" y2="249.158" gradientUnits="userSpaceOnUse">
<stop stop-color="#94D9FF"/>
<stop offset="0.326042" stop-color="#B2F1FF"/>
<stop offset="0.784375" stop-color="#E1FFF2"/>
<stop offset="1" stop-color="white"/>
</linearGradient>
<linearGradient id="paint1_linear_1612_21254" x1="130.504" y1="14.9863" x2="130.504" y2="44.1792" gradientUnits="userSpaceOnUse">
<stop stop-color="white" stop-opacity="0.7"/>
<stop offset="1" stop-color="white" stop-opacity="0.4"/>
</linearGradient>
<linearGradient id="paint2_linear_1612_21254" x1="52.1214" y1="52.5947" x2="52.1214" y2="94.1934" gradientUnits="userSpaceOnUse">
<stop stop-color="white" stop-opacity="0.7"/>
<stop offset="1" stop-color="white" stop-opacity="0.4"/>
</linearGradient>
<linearGradient id="paint3_linear_1612_21254" x1="283.004" y1="55.915" x2="283.004" y2="109.584" gradientUnits="userSpaceOnUse">
<stop stop-color="white" stop-opacity="0.7"/>
<stop offset="1" stop-color="white" stop-opacity="0.4"/>
</linearGradient>
<linearGradient id="paint4_linear_1612_21254" x1="10.673" y1="197.871" x2="36.764" y2="213.515" gradientUnits="userSpaceOnUse">
<stop offset="0.140625" stop-color="#FFCAA4"/>
<stop offset="1" stop-color="#E48C71"/>
</linearGradient>
<linearGradient id="paint5_linear_1612_21254" x1="-6.55658" y1="40.0033" x2="80.707" y2="73.6042" gradientUnits="userSpaceOnUse">
<stop offset="0.09375" stop-color="#B8FFC3"/>
<stop offset="1" stop-color="#30E1CC"/>
</linearGradient>
<linearGradient id="paint6_linear_1612_21254" x1="308.561" y1="240" x2="285.099" y2="213.82" gradientUnits="userSpaceOnUse">
<stop stop-color="#B0F1FF"/>
<stop offset="1" stop-color="#7FB2FF"/>
</linearGradient>
<linearGradient id="paint7_linear_1612_21254" x1="297.102" y1="240.001" x2="265.722" y2="214.151" gradientUnits="userSpaceOnUse">
<stop stop-color="#B0F1FF"/>
<stop offset="1" stop-color="#7FB2FF"/>
</linearGradient>
<linearGradient id="paint8_linear_1612_21254" x1="285.642" y1="240" x2="257.194" y2="213.746" gradientUnits="userSpaceOnUse">
<stop stop-color="#B0F1FF"/>
<stop offset="1" stop-color="#7FB2FF"/>
</linearGradient>
<linearGradient id="paint9_linear_1612_21254" x1="274.181" y1="240" x2="254.404" y2="214.491" gradientUnits="userSpaceOnUse">
<stop stop-color="#B0F1FF"/>
<stop offset="1" stop-color="#7FB2FF"/>
</linearGradient>
<linearGradient id="paint10_linear_1612_21254" x1="51.853" y1="240.098" x2="26.8393" y2="198.844" gradientUnits="userSpaceOnUse">
<stop stop-color="#B0F1FF"/>
<stop offset="1" stop-color="#7FB2FF"/>
</linearGradient>
<linearGradient id="paint11_linear_1612_21254" x1="166.5" y1="240" x2="166.5" y2="320" gradientUnits="userSpaceOnUse">
<stop stop-color="#FFEFD0"/>
<stop offset="1" stop-color="#E99F88"/>
</linearGradient>
<linearGradient id="paint12_linear_1612_21254" x1="181.256" y1="101.104" x2="191.292" y2="267.451" gradientUnits="userSpaceOnUse">
<stop offset="0.111458" stop-color="#7BE7FF"/>
<stop offset="1" stop-color="#6F7BEA"/>
</linearGradient>
<linearGradient id="paint13_linear_1612_21254" x1="158.603" y1="126.728" x2="158.603" y2="161.407" gradientUnits="userSpaceOnUse">
<stop stop-color="#888888"/>
<stop offset="1" stop-color="#4A4A4A"/>
</linearGradient>
<linearGradient id="paint14_linear_1612_21254" x1="154.184" y1="60.8389" x2="154.184" y2="105.713" gradientUnits="userSpaceOnUse">
<stop stop-color="#636363"/>
<stop offset="1" stop-color="#2F2F2F"/>
</linearGradient>
<linearGradient id="paint15_linear_1612_21254" x1="85.6822" y1="244.461" x2="85.6822" y2="290" gradientUnits="userSpaceOnUse">
<stop stop-color="#888888"/>
<stop offset="1" stop-color="#4A4A4A"/>
</linearGradient>
<linearGradient id="paint16_linear_1612_21254" x1="244.311" y1="244.461" x2="244.311" y2="290" gradientUnits="userSpaceOnUse">
<stop stop-color="#888888"/>
<stop offset="1" stop-color="#4A4A4A"/>
</linearGradient>
<linearGradient id="paint17_linear_1612_21254" x1="322.447" y1="262.908" x2="212.379" y2="112.815" gradientUnits="userSpaceOnUse">
<stop stop-color="#7A7A7A"/>
<stop offset="1" stop-color="#575757"/>
</linearGradient>
<linearGradient id="paint18_linear_1612_21254" x1="153.516" y1="41.1865" x2="153.516" y2="47.023" gradientUnits="userSpaceOnUse">
<stop stop-color="#888888"/>
<stop offset="1" stop-color="#4A4A4A"/>
</linearGradient>
<linearGradient id="paint19_linear_1612_21254" x1="148.906" y1="45.3027" x2="148.906" y2="47.5701" gradientUnits="userSpaceOnUse">
<stop stop-color="#888888"/>
<stop offset="1" stop-color="#4A4A4A"/>
</linearGradient>
<linearGradient id="paint20_linear_1612_21254" x1="152.05" y1="34.4124" x2="160.677" y2="44.12" gradientUnits="userSpaceOnUse">
<stop offset="0.00520833" stop-color="#9FFFD1"/>
<stop offset="1" stop-color="#12CBB5"/>
</linearGradient>
<linearGradient id="paint21_linear_1612_21254" x1="165.044" y1="58.2919" x2="164.898" y2="62.3526" gradientUnits="userSpaceOnUse">
<stop stop-color="#5C5C5C"/>
<stop offset="1" stop-color="#353535"/>
</linearGradient>
<linearGradient id="paint22_linear_1612_21254" x1="143.675" y1="57.2949" x2="143.675" y2="61.8261" gradientUnits="userSpaceOnUse">
<stop stop-color="#6A6A6A"/>
<stop offset="1" stop-color="#363636"/>
</linearGradient>
<linearGradient id="paint23_linear_1612_21254" x1="-6455.29" y1="-2490.08" x2="-6455.29" y2="-2417.24" gradientUnits="userSpaceOnUse">
<stop stop-color="#313131"/>
<stop offset="1" stop-color="#5A5A5A"/>
</linearGradient>
<linearGradient id="paint24_linear_1612_21254" x1="138.425" y1="67.9296" x2="179.059" y2="87.7766" gradientUnits="userSpaceOnUse">
<stop offset="0.00520833" stop-color="#9FFFD1"/>
<stop offset="1" stop-color="#12CBB5"/>
</linearGradient>
<linearGradient id="paint25_linear_1612_21254" x1="117.407" y1="118.251" x2="139.599" y2="135.973" gradientUnits="userSpaceOnUse">
<stop offset="0.00520833" stop-color="#9FFFD1"/>
<stop offset="1" stop-color="#12CBB5"/>
</linearGradient>
<linearGradient id="paint26_linear_1612_21254" x1="172.582" y1="246.179" x2="172.582" y2="258.957" gradientUnits="userSpaceOnUse">
<stop stop-color="#969696"/>
<stop offset="1" stop-color="#9E9E9E"/>
</linearGradient>
<linearGradient id="paint27_linear_1612_21254" x1="13808.8" y1="836.827" x2="13808.8" y2="819.242" gradientUnits="userSpaceOnUse">
<stop stop-color="#888888"/>
<stop offset="1" stop-color="#4A4A4A"/>
</linearGradient>
<linearGradient id="paint28_linear_1612_21254" x1="173.934" y1="244.364" x2="174.934" y2="244.364" gradientUnits="userSpaceOnUse">
<stop stop-color="#888888"/>
<stop offset="1" stop-color="#4A4A4A"/>
</linearGradient>
<linearGradient id="paint29_linear_1612_21254" x1="170.905" y1="244.364" x2="171.905" y2="244.364" gradientUnits="userSpaceOnUse">
<stop stop-color="#888888"/>
<stop offset="1" stop-color="#4A4A4A"/>
</linearGradient>
<linearGradient id="paint30_linear_1612_21254" x1="167.87" y1="244.364" x2="168.87" y2="244.364" gradientUnits="userSpaceOnUse">
<stop stop-color="#888888"/>
<stop offset="1" stop-color="#4A4A4A"/>
</linearGradient>
<linearGradient id="paint31_linear_1612_21254" x1="164.827" y1="244.364" x2="165.827" y2="244.364" gradientUnits="userSpaceOnUse">
<stop stop-color="#888888"/>
<stop offset="1" stop-color="#4A4A4A"/>
</linearGradient>
<linearGradient id="paint32_linear_1612_21254" x1="161.798" y1="244.364" x2="162.798" y2="244.364" gradientUnits="userSpaceOnUse">
<stop stop-color="#888888"/>
<stop offset="1" stop-color="#4A4A4A"/>
</linearGradient>
<linearGradient id="paint33_linear_1612_21254" x1="11734.9" y1="2711.45" x2="11719.6" y2="2750.69" gradientUnits="userSpaceOnUse">
<stop stop-color="#888888"/>
<stop offset="1" stop-color="#4A4A4A"/>
</linearGradient>
<linearGradient id="paint34_linear_1612_21254" x1="1025.99" y1="-399.442" x2="1019.67" y2="-383.297" gradientUnits="userSpaceOnUse">
<stop stop-color="#888888"/>
<stop offset="1" stop-color="#4A4A4A"/>
</linearGradient>
<linearGradient id="paint35_linear_1612_21254" x1="1014.81" y1="-402.909" x2="1008.49" y2="-386.764" gradientUnits="userSpaceOnUse">
<stop stop-color="#888888"/>
<stop offset="1" stop-color="#4A4A4A"/>
</linearGradient>
<linearGradient id="paint36_linear_1612_21254" x1="1007.73" y1="-404.81" x2="1001.41" y2="-388.665" gradientUnits="userSpaceOnUse">
<stop stop-color="#888888"/>
<stop offset="1" stop-color="#4A4A4A"/>
</linearGradient>
<linearGradient id="paint37_linear_1612_21254" x1="1000.61" y1="-406.647" x2="994.291" y2="-390.502" gradientUnits="userSpaceOnUse">
<stop stop-color="#888888"/>
<stop offset="1" stop-color="#4A4A4A"/>
</linearGradient>
<linearGradient id="paint38_linear_1612_21254" x1="997.465" y1="-406.965" x2="991.146" y2="-390.82" gradientUnits="userSpaceOnUse">
<stop stop-color="#888888"/>
<stop offset="1" stop-color="#4A4A4A"/>
</linearGradient>
<linearGradient id="paint39_linear_1612_21254" x1="93.3742" y1="224.688" x2="91.5459" y2="245.359" gradientUnits="userSpaceOnUse">
<stop stop-color="#969696"/>
<stop offset="1" stop-color="#9E9E9E"/>
</linearGradient>
<linearGradient id="paint40_linear_1612_21254" x1="157.334" y1="60.4727" x2="157.334" y2="124.456" gradientUnits="userSpaceOnUse">
<stop stop-color="#888888"/>
<stop offset="1" stop-color="#4A4A4A"/>
</linearGradient>
<linearGradient id="paint41_linear_1612_21254" x1="217.193" y1="103.172" x2="217.265" y2="111.196" gradientUnits="userSpaceOnUse">
<stop stop-color="#888888"/>
<stop offset="1" stop-color="#4A4A4A"/>
</linearGradient>
<linearGradient id="paint42_linear_1612_21254" x1="217.169" y1="100.387" x2="217.246" y2="109.019" gradientUnits="userSpaceOnUse">
<stop stop-color="#888888"/>
<stop offset="1" stop-color="#4A4A4A"/>
</linearGradient>
<linearGradient id="paint43_linear_1612_21254" x1="217.304" y1="106.194" x2="217.352" y2="111.479" gradientUnits="userSpaceOnUse">
<stop stop-color="#888888"/>
<stop offset="1" stop-color="#4A4A4A"/>
</linearGradient>
<clipPath id="clip0_1612_21254">
<rect width="312" height="320" rx="10" fill="white"/>
</clipPath>
</defs>
</svg>
