<svg width="312" height="320" viewBox="0 0 312 320" fill="none" xmlns="http://www.w3.org/2000/svg">
<g clip-path="url(#clip0_1290_49248)">
<rect width="312" height="320" rx="10" fill="url(#paint0_linear_1290_49248)"/>
<path d="M109.146 21.3492C108.677 17.9755 105.159 15.3958 100.938 15.3958C99.765 15.3958 98.827 15.5942 97.889 15.9912C95.7783 13.2128 92.026 11.4268 88.0389 11.4268C81.4722 11.4268 76.3122 15.7925 76.3122 21.3494V21.5477C72.3251 21.9448 69.2764 24.9215 69.2764 28.2948C69.2768 32.0656 73.0291 35.2406 77.4849 35.2406H107.973C112.429 35.2406 116.182 32.0656 116.182 28.2948C116.182 24.7228 113.133 21.9448 109.146 21.3494L109.146 21.3492Z" fill="url(#paint1_linear_1290_49248)" fill-opacity="0.5"/>
<path d="M252.623 74.0106C253.563 66.4073 260.614 60.5935 269.074 60.5935C271.425 60.5935 273.305 61.0404 275.185 61.9352C279.415 55.6736 286.935 51.6484 294.926 51.6484C308.087 51.6484 318.429 61.4874 318.429 74.011V74.458C326.42 75.3527 332.53 82.0613 332.53 89.6638C332.529 98.1618 325.009 105.317 316.079 105.317H254.974C246.043 105.317 238.522 98.1618 238.522 89.6638C238.522 81.6135 244.632 75.3527 252.623 74.011L252.623 74.0106Z" fill="url(#paint2_linear_1290_49248)" fill-opacity="0.6"/>
<path d="M49.373 44.8842C48.6486 39.1906 43.2169 34.837 36.6989 34.837C34.8881 34.837 33.4399 35.1717 31.9916 35.8417C28.7326 31.1528 22.9391 28.1387 16.7829 28.1387C6.64402 28.1387 -1.32317 35.5064 -1.32317 44.8845V45.2192C-7.47928 45.8892 -12.1865 50.9128 -12.1865 56.6058C-12.1859 62.9695 -6.39232 68.3278 0.4876 68.3278H47.5616C54.4415 68.3278 60.2357 62.9695 60.2357 56.6058C60.2357 50.5775 55.5285 45.8892 49.3724 44.8845L49.373 44.8842Z" fill="url(#paint3_linear_1290_49248)" fill-opacity="0.4"/>
<rect x="-11" y="226" width="330" height="94" fill="url(#paint4_linear_1290_49248)"/>
<g filter="url(#filter0_f_1290_49248)">
<path d="M12.6885 289.992C132.534 289.992 229.688 284.172 229.688 276.992C229.688 269.812 132.534 263.992 12.6885 263.992C-107.157 263.992 -204.312 269.812 -204.312 276.992C-204.312 284.172 -107.157 289.992 12.6885 289.992Z" fill="#8696A5" fill-opacity="0.5"/>
</g>
<path d="M183.114 71.1514H-286.644C-291.263 71.1514 -295.693 72.9859 -298.96 76.2514C-302.226 79.517 -304.062 83.946 -304.062 88.5641V235.354C-304.045 239.961 -302.203 244.374 -298.938 247.626C-295.673 250.878 -291.252 252.704 -286.644 252.704H3.38711C3.38711 252.008 3.31247 251.324 3.31247 250.627C3.31247 241.193 7.06131 232.145 13.7342 225.474C20.4072 218.803 29.4575 215.055 38.8945 215.055C48.3314 215.055 57.3819 218.803 64.0548 225.474C70.7277 232.145 74.4765 241.193 74.4765 250.627C74.4765 251.324 74.4766 252.008 74.4144 252.704H183.114C187.712 252.688 192.117 250.855 195.368 247.604C198.619 244.354 200.453 239.95 200.469 235.354V88.5019C200.453 83.9053 198.619 79.5016 195.368 76.2513C192.117 73.001 187.712 71.1678 183.114 71.1514V71.1514Z" fill="url(#paint5_linear_1290_49248)"/>
<path d="M38.9199 215.056C29.484 215.059 20.4354 218.808 13.7632 225.478C7.09101 232.148 3.34119 241.194 3.33789 250.627C3.33789 251.324 3.33789 252.008 3.41254 252.705H74.4397C74.4397 252.008 74.5019 251.324 74.5019 250.627C74.5019 241.193 70.7531 232.145 64.0802 225.474C57.4073 218.803 48.3568 215.056 38.9199 215.056V215.056Z" fill="url(#paint6_linear_1290_49248)"/>
<path d="M-120.08 44.0001H105.107C111.531 44.0001 117.693 46.5515 122.235 51.0929C126.778 55.6343 129.33 61.7938 129.33 68.2163V71.0894H-144.378V68.2163C-144.378 65.0299 -143.749 61.8748 -142.527 58.9319C-141.305 55.989 -139.514 53.3161 -137.257 51.0664C-135 48.8168 -132.32 47.0346 -129.373 45.822C-126.425 44.6094 -123.267 43.9903 -120.08 44.0001V44.0001Z" fill="#F8F8F8"/>
<path fill-rule="evenodd" clip-rule="evenodd" d="M205.881 86.9717H205.918H206.266H207.424C208.42 86.9717 209.407 87.1679 210.328 87.5492C211.249 87.9305 212.085 88.4893 212.79 89.1939C213.495 89.8984 214.054 90.7348 214.435 91.6553C214.816 92.5757 215.013 93.5623 215.013 94.5587V112.531C215.013 114.543 214.213 116.473 212.79 117.896C211.367 119.319 209.436 120.118 207.424 120.118H207.162C206.832 120.118 206.516 119.987 206.283 119.754C206.049 119.521 205.918 119.204 205.918 118.874V91.2627H184.805V86.9717H205.881Z" fill="url(#paint7_linear_1290_49248)"/>
<path d="M183.972 199.72H195.008C195.839 199.72 196.637 200.05 197.225 200.638C197.813 201.226 198.143 202.023 198.143 202.854V215.155C198.143 215.986 197.813 216.783 197.225 217.371C196.637 217.959 195.839 218.289 195.008 218.289V218.289C191.249 218.289 187.645 216.797 184.987 214.14C182.33 211.483 180.837 207.88 180.837 204.123V202.879C180.834 202.465 180.912 202.055 181.068 201.672C181.225 201.289 181.455 200.94 181.746 200.647C182.038 200.353 182.385 200.12 182.767 199.961C183.149 199.802 183.558 199.72 183.972 199.72V199.72Z" fill="white"/>
<path d="M96.0858 94.4463H167.138C169.042 94.4463 170.868 95.2024 172.214 96.5482C173.56 97.8941 174.316 99.7195 174.316 101.623V252.703H88.9072V101.61C88.9105 99.7092 89.6683 97.887 91.0142 96.5438C92.3601 95.2007 94.1841 94.4463 96.0858 94.4463V94.4463Z" fill="url(#paint8_linear_1290_49248)"/>
<path d="M133.013 94.4102H130.201V252.53H133.013V94.4102Z" fill="#F8F8F8"/>
<path d="M92.0674 184.757C92.0674 186.238 92.656 187.658 93.7036 188.706C94.7512 189.753 96.172 190.341 97.6536 190.341H122.437C123.918 190.341 125.339 189.753 126.387 188.706C127.434 187.658 128.023 186.238 128.023 184.757V157.556L92.0674 176.212V184.757Z" fill="#F8F8F8"/>
<path d="M128.023 146.76L92.0674 165.429V170.279L128.023 151.61V146.76Z" fill="#E9F0F2"/>
<path d="M128.023 102.532C128.023 101.051 127.434 99.6302 126.387 98.5829C125.339 97.5356 123.918 96.9473 122.437 96.9473H97.6536C96.172 96.9473 94.7512 97.5356 93.7036 98.5829C92.656 99.6302 92.0674 101.051 92.0674 102.532V127.706L128.023 109.049V102.532Z" fill="#E9F0F2"/>
<path d="M135.201 184.757C135.201 186.238 135.79 187.659 136.837 188.706C137.885 189.753 139.306 190.341 140.787 190.341H165.57C167.052 190.341 168.473 189.753 169.52 188.706C170.568 187.659 171.156 186.238 171.156 184.757V135.168L135.201 153.824V184.757Z" fill="#F8F8F8"/>
<path d="M135.201 147.892L171.156 129.223V124.36L135.201 143.029V147.892Z" fill="#E9F0F2"/>
<path d="M140.787 96.9473C139.306 96.9473 137.885 97.5356 136.837 98.5829C135.79 99.6302 135.201 101.051 135.201 102.532V105.318L151.288 96.9597L140.787 96.9473Z" fill="#E9F0F2"/>
<path d="M128.023 109.037L92.0674 127.706V165.43L128.023 146.761V109.037Z" fill="#F8F8F8"/>
<path d="M171.156 124.36V102.532C171.156 101.051 170.568 99.6302 169.52 98.5829C168.473 97.5356 167.052 96.9473 165.57 96.9473H151.288L135.201 105.318V143.041L171.156 124.36Z" fill="#F8F8F8"/>
<path d="M92.0674 170.279V176.249L128.023 157.58V151.61L92.0674 170.279Z" fill="#F8F8F8"/>
<path d="M135.201 147.892V153.849L171.156 135.18V129.223L135.201 147.892Z" fill="#F8F8F8"/>
<path fill-rule="evenodd" clip-rule="evenodd" d="M198.304 94.5459H193.801C192.405 94.5459 191.024 94.8207 189.735 95.3545C188.446 95.8882 187.274 96.6706 186.288 97.657C185.301 98.6433 184.519 99.8142 183.985 101.103C183.451 102.392 183.176 103.773 183.176 105.168V117.29V118.115V122.98L198.304 115.132V110.267V109.429V94.5459ZM184.042 182.932C183.509 181.641 183.236 180.258 183.237 178.862V128.918L183.176 128.95V122.98L198.304 115.132V120.972L198.366 120.939V189.508H193.862C192.465 189.507 191.082 189.23 189.792 188.694C188.502 188.158 187.331 187.374 186.344 186.385C185.358 185.396 184.575 184.223 184.042 182.932Z" fill="#F8F8F8"/>
<path d="M68.753 95.7158H-23.5238C-25.647 95.7158 -27.3682 97.4365 -27.3682 99.5591V166.063C-27.3682 168.186 -25.647 169.907 -23.5238 169.907H68.753C70.8762 169.907 72.5974 168.186 72.5974 166.063V99.5591C72.5974 97.4365 70.8762 95.7158 68.753 95.7158Z" fill="#F8F8F8"/>
<path d="M38.8952 281C55.6745 281 69.2768 267.401 69.2768 250.627C69.2768 233.852 55.6745 220.254 38.8952 220.254C22.1159 220.254 8.51367 233.852 8.51367 250.627C8.51367 267.401 22.1159 281 38.8952 281Z" fill="url(#paint9_linear_1290_49248)"/>
<path d="M38.894 269.01C49.0496 269.01 57.2823 260.78 57.2823 250.627C57.2823 240.474 49.0496 232.244 38.894 232.244C28.7385 232.244 20.5059 240.474 20.5059 250.627C20.5059 260.78 28.7385 269.01 38.894 269.01Z" fill="#EAEAEA"/>
<path d="M38.8938 258.936C43.4837 258.936 47.2046 255.216 47.2046 250.628C47.2046 246.039 43.4837 242.319 38.8938 242.319C34.3039 242.319 30.583 246.039 30.583 250.628C30.583 255.216 34.3039 258.936 38.8938 258.936Z" fill="url(#paint10_linear_1290_49248)"/>
<path d="M38.8937 257.219C42.5354 257.219 45.4876 254.268 45.4876 250.627C45.4876 246.986 42.5354 244.035 38.8937 244.035C35.252 244.035 32.2998 246.986 32.2998 250.627C32.2998 254.268 35.252 257.219 38.8937 257.219Z" fill="#EAEAEA"/>
<path d="M38.8942 253.463C40.4608 253.463 41.7309 252.193 41.7309 250.627C41.7309 249.061 40.4608 247.791 38.8942 247.791C37.3276 247.791 36.0576 249.061 36.0576 250.627C36.0576 252.193 37.3276 253.463 38.8942 253.463Z" fill="url(#paint11_linear_1290_49248)"/>
<path d="M38.7812 264.992C39.4684 264.992 40.0254 264.436 40.0254 263.749C40.0254 263.062 39.4684 262.505 38.7812 262.505C38.0941 262.505 37.5371 263.062 37.5371 263.749C37.5371 264.436 38.0941 264.992 38.7812 264.992Z" fill="url(#paint12_linear_1290_49248)"/>
<path d="M29.5381 261.062C30.2252 261.062 30.7822 260.505 30.7822 259.818C30.7822 259.131 30.2252 258.574 29.5381 258.574C28.851 258.574 28.2939 259.131 28.2939 259.818C28.2939 260.505 28.851 261.062 29.5381 261.062Z" fill="url(#paint13_linear_1290_49248)"/>
<path d="M25.7812 251.759C26.4683 251.759 27.0254 251.202 27.0254 250.515C27.0254 249.828 26.4683 249.271 25.7812 249.271C25.0941 249.271 24.5371 249.828 24.5371 250.515C24.5371 251.202 25.0941 251.759 25.7812 251.759Z" fill="url(#paint14_linear_1290_49248)"/>
<path d="M29.7002 242.518C30.3873 242.518 30.9443 241.961 30.9443 241.274C30.9443 240.587 30.3873 240.03 29.7002 240.03C29.0131 240.03 28.4561 240.587 28.4561 241.274C28.4561 241.961 29.0131 242.518 29.7002 242.518Z" fill="url(#paint15_linear_1290_49248)"/>
<path d="M39.0068 238.761C39.6939 238.761 40.2509 238.204 40.2509 237.517C40.2509 236.83 39.6939 236.273 39.0068 236.273C38.3197 236.273 37.7627 236.83 37.7627 237.517C37.7627 238.204 38.3197 238.761 39.0068 238.761Z" fill="url(#paint16_linear_1290_49248)"/>
<path d="M48.25 242.692C48.9371 242.692 49.4941 242.135 49.4941 241.448C49.4941 240.761 48.9371 240.204 48.25 240.204C47.5629 240.204 47.0059 240.761 47.0059 241.448C47.0059 242.135 47.5629 242.692 48.25 242.692Z" fill="url(#paint17_linear_1290_49248)"/>
<path d="M52.0078 251.996C52.6949 251.996 53.2519 251.439 53.2519 250.753C53.2519 250.066 52.6949 249.509 52.0078 249.509C51.3207 249.509 50.7637 250.066 50.7637 250.753C50.7637 251.439 51.3207 251.996 52.0078 251.996Z" fill="url(#paint18_linear_1290_49248)"/>
<path d="M48.0879 261.237C48.775 261.237 49.332 260.68 49.332 259.993C49.332 259.306 48.775 258.749 48.0879 258.749C47.4008 258.749 46.8438 259.306 46.8438 259.993C46.8438 260.68 47.4008 261.237 48.0879 261.237Z" fill="url(#paint19_linear_1290_49248)"/>
<path d="M72.6722 117.481H-27.3184V120.417H72.6722V117.481Z" fill="#E9F0F2"/>
<path d="M239.64 138.534V149.362H264.005L253.937 131.693L239.64 138.534Z" fill="#FFDDAF"/>
<path d="M239.644 149.364V138.536L253.654 131.701V134.148C253.654 135.712 253.282 137.254 252.568 138.646C251.854 140.038 250.818 141.24 249.548 142.153L239.644 149.364Z" fill="#EFC080"/>
<path d="M256.369 134.249H252.849L252.216 136.366C251.981 137.152 251.498 137.841 250.84 138.331C250.182 138.821 249.383 139.085 248.562 139.083H239.181C238.52 139.085 237.865 138.946 237.261 138.676C236.657 138.405 236.118 138.009 235.679 137.513C235.24 137.018 234.912 136.435 234.716 135.803C234.52 135.17 234.46 134.504 234.542 133.847L236.499 117.655L255.331 125.926H256.367C257.462 125.926 258.514 126.358 259.293 127.128C260.072 127.898 260.516 128.945 260.528 130.04V130.04C260.534 130.587 260.433 131.129 260.229 131.637C260.026 132.144 259.724 132.606 259.342 132.997C258.96 133.388 258.505 133.7 258.002 133.915C257.5 134.129 256.96 134.243 256.413 134.249H256.369Z" fill="#FFDDAF"/>
<path fill-rule="evenodd" clip-rule="evenodd" d="M243.886 132.209C243.689 132.132 243.467 132.229 243.389 132.426C243.156 133.021 242.053 134.288 240.043 134.188C239.832 134.177 239.652 134.34 239.641 134.551C239.631 134.762 239.794 134.942 240.005 134.953C242.373 135.071 243.76 133.578 244.102 132.705C244.18 132.509 244.083 132.286 243.886 132.209Z" fill="#333333"/>
<path d="M255.331 125.934C254.939 125.934 254.563 126.09 254.285 126.367C254.008 126.644 253.852 127.021 253.852 127.413V127.413V129.732H253.401C252.806 129.732 252.236 129.495 251.815 129.074C251.394 128.653 251.158 128.083 251.158 127.487V127.487V126.588C251.158 126.042 251.015 125.505 250.745 125.031C250.474 124.556 250.085 124.161 249.615 123.883L245.95 121.711L255.331 125.934Z" fill="url(#paint20_linear_1290_49248)"/>
<path fill-rule="evenodd" clip-rule="evenodd" d="M236.084 121.925C236.084 121.925 236.084 121.925 236.136 122.301L236.084 121.925C235.876 121.954 235.731 122.146 235.76 122.353C235.789 122.561 235.981 122.706 236.189 122.677C236.189 122.677 236.188 122.677 236.189 122.677L236.19 122.677L236.198 122.676L236.23 122.672C236.259 122.668 236.302 122.663 236.357 122.657C236.468 122.646 236.628 122.632 236.822 122.62C237.212 122.598 237.733 122.589 238.264 122.64C238.8 122.691 239.322 122.802 239.73 123.003C240.131 123.202 240.391 123.471 240.485 123.838C240.5 123.896 240.498 124.051 240.428 124.342C240.362 124.614 240.253 124.948 240.116 125.33C240.021 125.595 239.912 125.884 239.798 126.185C239.592 126.733 239.37 127.322 239.187 127.884C238.905 128.751 238.68 129.648 238.748 130.347C238.782 130.705 238.898 131.056 239.166 131.315C239.438 131.579 239.813 131.696 240.254 131.696C240.464 131.696 240.634 131.526 240.634 131.316C240.634 131.106 240.464 130.936 240.254 130.936C239.945 130.936 239.784 130.856 239.695 130.769C239.601 130.679 239.528 130.526 239.504 130.273C239.453 129.749 239.626 128.989 239.909 128.12C240.088 127.571 240.297 127.016 240.499 126.481C240.614 126.175 240.727 125.875 240.831 125.586C240.97 125.199 241.091 124.834 241.166 124.52C241.237 124.225 241.287 123.907 241.221 123.65C241.056 123.003 240.597 122.585 240.066 122.322C239.541 122.063 238.915 121.939 238.337 121.884C237.754 121.828 237.192 121.838 236.779 121.862C236.571 121.874 236.399 121.889 236.278 121.902C236.218 121.908 236.17 121.914 236.137 121.918L236.099 121.923L236.088 121.924L236.085 121.925L236.084 121.925Z" fill="#333333"/>
<path d="M244.894 128.175C244.441 128.175 244.073 127.674 244.073 127.055C244.073 126.436 244.441 125.935 244.894 125.935C245.348 125.935 245.716 126.436 245.716 127.055C245.716 127.674 245.348 128.175 244.894 128.175Z" fill="#333333"/>
<path d="M237.242 128.175C236.788 128.175 236.42 127.674 236.42 127.055C236.42 126.436 236.788 125.935 237.242 125.935C237.696 125.935 238.063 126.436 238.063 127.055C238.063 127.674 237.696 128.175 237.242 128.175Z" fill="#333333"/>
<path fill-rule="evenodd" clip-rule="evenodd" d="M257.515 127.616C256.839 127.616 256.192 127.885 255.714 128.362C255.237 128.84 254.969 129.487 254.969 130.163C254.969 130.372 255.139 130.542 255.349 130.542C255.558 130.542 255.728 130.372 255.728 130.163C255.728 129.689 255.917 129.234 256.252 128.899C256.587 128.564 257.041 128.376 257.515 128.376V127.616Z" fill="url(#paint21_linear_1290_49248)"/>
<path d="M256.264 126.385V121.206C256.264 119.992 255.921 118.804 255.274 117.777C254.627 116.751 253.703 115.928 252.608 115.405L245.264 111.892C243.873 111.229 242.276 111.145 240.824 111.659C239.371 112.173 238.182 113.243 237.518 114.633C237.397 114.886 237.295 115.147 237.213 115.414L236.522 117.658L256.264 126.385Z" fill="url(#paint22_linear_1290_49248)" stroke="url(#paint23_linear_1290_49248)" stroke-width="1.15606" stroke-linecap="round" stroke-linejoin="round"/>
<path d="M256.264 126.385L229.435 114.523" stroke="#29D3C6" stroke-width="1.15606" stroke-linecap="round" stroke-linejoin="round"/>
<path d="M197.399 187.898C198.681 186.934 199.556 185.527 199.853 183.951L203.412 165.228C204.307 160.578 206.794 156.384 210.445 153.369C214.096 150.353 218.683 148.704 223.418 148.704H275.561C280.471 148.704 281.592 149.086 285.932 151.383C290.272 153.681 292.734 157.823 295.496 161.884L313.539 188.395C316.59 192.882 320.141 198.516 321.053 202.384C322.781 209.718 318.204 216.739 309.866 216.739H307.103L290.379 202.384C291.96 202.038 292.76 200.61 291.933 199.364L282.083 184.58C280.456 182.14 276.751 182.57 275.721 185.311L264.134 214.987C264.134 214.987 219.129 214.996 216.205 214.996L197.399 187.898Z" fill="url(#paint24_linear_1290_49248)"/>
<path d="M239.757 148.688V166.729L251.521 148.688H239.757Z" fill="white"/>
<path d="M231.818 149.06H239.753V143.727C238.288 143.751 236.884 144.32 235.814 145.321L231.818 149.06Z" fill="url(#paint25_linear_1290_49248)"/>
<path d="M251.263 149.062L252.536 145.459C252.715 144.953 253.047 144.515 253.485 144.204C253.924 143.894 254.447 143.727 254.984 143.727H264.727C266.227 143.727 267.671 144.297 268.766 145.322L272.763 149.062H251.263Z" fill="url(#paint26_linear_1290_49248)"/>
<path d="M244.626 250.234C244.175 249.153 242.557 249.474 242.557 250.645V371.851H215.666V215.194H262.662L323.572 357.492L294.095 369.09L244.626 250.234Z" fill="url(#paint27_linear_1290_49248)"/>
<path d="M215.658 214.182V224.624H266.283L263.816 214.182H215.658Z" fill="url(#paint28_linear_1290_49248)"/>
<path d="M230.123 148.494L274.839 232.7H269.34L225.088 148.494H230.123Z" fill="url(#paint29_linear_1290_49248)"/>
<path d="M261.472 217.775L275.353 251.708C275.754 252.694 276.44 253.539 277.324 254.133C278.207 254.728 279.247 255.045 280.312 255.045H294.557C295.16 255.047 295.754 254.9 296.287 254.618C296.82 254.336 297.276 253.928 297.614 253.429C297.953 252.929 298.164 252.355 298.229 251.755C298.293 251.156 298.21 250.549 297.986 249.99L286.357 221.132C285.961 220.139 285.275 219.288 284.39 218.688C283.505 218.088 282.461 217.767 281.391 217.767L261.472 217.775Z" fill="url(#paint30_linear_1290_49248)"/>
<path d="M267.386 217.809L267.721 218.631" stroke="url(#paint31_linear_1290_49248)" stroke-width="0.627465" stroke-miterlimit="10" stroke-linecap="round"/>
<path d="M198.893 186.603C201.125 188.32 202.981 193.526 203.257 199.594C203.602 207.177 201.455 213.435 198.476 213.574C197.978 213.588 197.487 213.451 197.068 213.182L196.317 212.546C196.602 213.216 197.031 213.815 197.574 214.3C198.117 214.784 198.76 215.143 199.458 215.35L205.438 217.117C208.264 217.873 211.341 216.068 212.386 212.546C213.842 207.643 215.087 190.673 205.526 184.728C202.287 182.714 197.065 182.201 195.877 184.795L198.893 186.603Z" fill="url(#paint32_linear_1290_49248)"/>
<path d="M163.956 180.744H151.604C150.398 180.744 149.74 179.651 149.301 178.35L142.282 158.165C141.843 156.995 143.26 155.637 144.466 155.637H155.831C157.037 155.637 157.805 156.014 158.244 157.293L166.14 178.35C166.689 179.542 165.163 180.744 163.956 180.744Z" fill="url(#paint33_linear_1290_49248)"/>
<path d="M162.183 175.515H151.414C150.581 175.515 150.233 174.875 149.906 174.039L144.434 159.207C144.077 158.36 144.384 157.731 145.217 157.731H155.986C156.819 157.731 156.825 157.691 157.167 158.472L162.966 174.039C163.323 174.875 163.016 175.515 162.183 175.515Z" fill="white"/>
<path d="M197.603 213.637C198.03 213.911 198.53 214.05 199.037 214.036C202.082 213.897 204.264 207.52 203.909 199.792C203.628 193.61 201.737 188.305 199.462 186.555L169.499 169.21C168.987 168.761 167.231 168.199 166.577 168.005L158.475 165.612L158.333 166.092C158.142 166.738 158.184 167.43 158.453 168.047C158.722 168.665 159.199 169.167 159.802 169.467L161.7 170.606C162.106 170.808 162.461 171.099 162.739 171.457C163.017 171.815 163.211 172.232 163.306 172.675L165.18 177.775C165.371 178.661 164.395 180.706 163.306 180.706L155.938 180.706C155.938 180.706 155.947 183.353 164.768 188.13L170.497 190.715L197.603 213.637Z" fill="#FFDDAF"/>
<path fill-rule="evenodd" clip-rule="evenodd" d="M163.57 174.823C163.269 174.93 163.112 175.261 163.219 175.562C163.614 176.671 164.212 178.204 165.07 179.592C165.921 180.968 167.078 182.282 168.627 182.835C168.928 182.942 169.259 182.786 169.366 182.485C169.473 182.185 169.317 181.854 169.016 181.746C167.833 181.324 166.852 180.275 166.053 178.984C165.261 177.703 164.696 176.263 164.308 175.174C164.201 174.873 163.87 174.716 163.57 174.823Z" fill="url(#paint34_linear_1290_49248)"/>
<path d="M301.418 217.767H307.043C312.937 217.767 315.307 214.006 312.636 207.45C311.572 204.837 309.186 201.311 307.043 198.955C299.977 191.191 291.036 188.704 287.007 192.391C285.917 193.245 285.121 194.841 285.339 197.311L301.418 217.767Z" fill="url(#paint35_linear_1290_49248)"/>
<path d="M301.47 217.386C303.366 215.779 301.349 209.268 296.97 204.092C293.809 200.36 290.165 197.756 287.667 197.196C287.476 197.179 287.292 197.171 287.117 197.171H276.767C272.528 197.171 268.365 198.294 264.702 200.427L257.311 204.729C256.412 205.285 255.67 206.062 255.155 206.985C254.641 207.908 254.371 208.948 254.37 210.005V219.993C254.37 221.287 254.847 222.535 255.71 223.499C256.572 224.464 257.76 225.076 259.046 225.219L266.413 226.041V224.446C266.413 223.991 266.3 223.543 266.084 223.143C265.868 222.742 265.556 222.402 265.176 222.152L263.402 221.185C263.325 221.143 263.264 221.077 263.229 220.997C263.195 220.917 263.188 220.827 263.209 220.742C263.231 220.658 263.28 220.583 263.349 220.529C263.418 220.475 263.503 220.446 263.591 220.446H265.817C268.883 220.446 271.265 219.583 273.458 217.438L298.788 217.4L301.47 217.386Z" fill="#FFDDAF"/>
<path fill-rule="evenodd" clip-rule="evenodd" d="M262.013 210.254C261.845 209.983 261.489 209.899 261.217 210.067L257.235 212.532C257.235 212.532 257.235 212.532 257.235 212.532C256.253 213.141 255.442 213.99 254.879 214.999C254.317 216.008 254.022 217.145 254.022 218.3V221.39C254.022 221.709 254.28 221.968 254.6 221.968C254.919 221.968 255.178 221.709 255.178 221.39V218.3C255.178 218.3 255.178 218.3 255.178 218.3C255.178 217.342 255.423 216.399 255.889 215.562C256.356 214.724 257.028 214.02 257.843 213.515L261.826 211.05C262.097 210.882 262.181 210.526 262.013 210.254Z" fill="url(#paint36_linear_1290_49248)"/>
<path fill-rule="evenodd" clip-rule="evenodd" d="M262.013 206.088C261.845 205.817 261.489 205.733 261.217 205.901L257.235 208.366C257.235 208.366 257.235 208.366 257.235 208.366C256.252 208.975 255.44 209.825 254.878 210.836C254.315 211.846 254.021 212.984 254.022 214.14L254.6 214.14H254.022V214.14V218.13C254.022 218.449 254.28 218.708 254.6 218.708C254.919 218.708 255.178 218.449 255.178 218.13V214.14L255.178 214.139C255.177 213.18 255.421 212.236 255.888 211.398C256.355 210.559 257.028 209.854 257.843 209.349L257.843 209.349L261.826 206.884C262.097 206.716 262.181 206.36 262.013 206.088Z" fill="url(#paint37_linear_1290_49248)"/>
<path fill-rule="evenodd" clip-rule="evenodd" d="M261.905 214.779C261.736 214.507 261.38 214.423 261.109 214.592L257.127 217.058C257.127 217.058 257.127 217.058 257.127 217.058C255.501 218.064 254.523 219.682 254.162 221.692C254.105 222.006 254.314 222.306 254.629 222.363C254.943 222.419 255.243 222.21 255.3 221.896C255.614 220.15 256.436 218.845 257.735 218.041L261.717 215.574C261.989 215.406 262.073 215.05 261.905 214.779Z" fill="url(#paint38_linear_1290_49248)"/>
<path d="M300.044 107.278C297.799 106.596 296.529 104.216 297.21 101.972L297.564 100.809C297.661 100.488 297.48 100.148 297.159 100.051C296.838 99.9532 296.498 100.135 296.401 100.455L291.017 118.173C290.445 117.419 289.52 116.783 288.37 116.433C286.089 115.74 283.912 116.474 283.417 118.104C282.921 119.734 284.322 121.554 286.603 122.248C288.885 122.941 291.061 122.208 291.557 120.577L296.223 105.221C296.818 106.711 298.038 107.939 299.69 108.441C300.011 108.539 300.351 108.358 300.448 108.037C300.546 107.716 300.364 107.376 300.043 107.279L300.044 107.278Z" fill="url(#paint39_linear_1290_49248)"/>
</g>
<defs>
<filter id="filter0_f_1290_49248" x="-212.312" y="255.992" width="450" height="42" filterUnits="userSpaceOnUse" color-interpolation-filters="sRGB">
<feFlood flood-opacity="0" result="BackgroundImageFix"/>
<feBlend mode="normal" in="SourceGraphic" in2="BackgroundImageFix" result="shape"/>
<feGaussianBlur stdDeviation="4" result="effect1_foregroundBlur_1290_49248"/>
</filter>
<linearGradient id="paint0_linear_1290_49248" x1="292.887" y1="1.54661e-07" x2="277.907" y2="249.158" gradientUnits="userSpaceOnUse">
<stop stop-color="#94D9FF"/>
<stop offset="0.326042" stop-color="#B2F1FF"/>
<stop offset="0.784375" stop-color="#E1FFF2"/>
<stop offset="1" stop-color="white"/>
</linearGradient>
<linearGradient id="paint1_linear_1290_49248" x1="92.729" y1="11.4268" x2="92.729" y2="35.2406" gradientUnits="userSpaceOnUse">
<stop stop-color="white" stop-opacity="0.7"/>
<stop offset="1" stop-color="white" stop-opacity="0.4"/>
</linearGradient>
<linearGradient id="paint2_linear_1290_49248" x1="285.526" y1="51.6484" x2="285.526" y2="105.317" gradientUnits="userSpaceOnUse">
<stop stop-color="white" stop-opacity="0.7"/>
<stop offset="1" stop-color="white" stop-opacity="0.4"/>
</linearGradient>
<linearGradient id="paint3_linear_1290_49248" x1="24.0246" y1="28.1387" x2="24.0246" y2="68.3278" gradientUnits="userSpaceOnUse">
<stop stop-color="white" stop-opacity="0.7"/>
<stop offset="1" stop-color="white" stop-opacity="0.4"/>
</linearGradient>
<linearGradient id="paint4_linear_1290_49248" x1="1.72664" y1="226" x2="0.95002" y2="308.919" gradientUnits="userSpaceOnUse">
<stop stop-color="#DCF3F7"/>
<stop offset="1" stop-color="#9FAEBC"/>
</linearGradient>
<linearGradient id="paint5_linear_1290_49248" x1="-207.194" y1="87.9221" x2="-97.9033" y2="324.157" gradientUnits="userSpaceOnUse">
<stop offset="0.09375" stop-color="#7EE8FF"/>
<stop offset="1" stop-color="#8482E6"/>
</linearGradient>
<linearGradient id="paint6_linear_1290_49248" x1="38.9199" y1="215.056" x2="38.9199" y2="252.705" gradientUnits="userSpaceOnUse">
<stop stop-color="#888888"/>
<stop offset="1" stop-color="#4A4A4A"/>
</linearGradient>
<linearGradient id="paint7_linear_1290_49248" x1="199.909" y1="86.9717" x2="199.909" y2="120.118" gradientUnits="userSpaceOnUse">
<stop stop-color="#888888"/>
<stop offset="1" stop-color="#4A4A4A"/>
</linearGradient>
<linearGradient id="paint8_linear_1290_49248" x1="95.3842" y1="100.38" x2="204.151" y2="143.791" gradientUnits="userSpaceOnUse">
<stop offset="0.09375" stop-color="#87DBFF"/>
<stop offset="1" stop-color="#9D9CF7"/>
</linearGradient>
<linearGradient id="paint9_linear_1290_49248" x1="38.8952" y1="220.254" x2="38.8952" y2="281" gradientUnits="userSpaceOnUse">
<stop stop-color="#888888"/>
<stop offset="1" stop-color="#4A4A4A"/>
</linearGradient>
<linearGradient id="paint10_linear_1290_49248" x1="38.8938" y1="242.319" x2="38.8938" y2="258.936" gradientUnits="userSpaceOnUse">
<stop stop-color="#888888"/>
<stop offset="1" stop-color="#4A4A4A"/>
</linearGradient>
<linearGradient id="paint11_linear_1290_49248" x1="38.8942" y1="247.791" x2="38.8942" y2="253.463" gradientUnits="userSpaceOnUse">
<stop stop-color="#888888"/>
<stop offset="1" stop-color="#4A4A4A"/>
</linearGradient>
<linearGradient id="paint12_linear_1290_49248" x1="38.7812" y1="262.505" x2="38.7812" y2="264.992" gradientUnits="userSpaceOnUse">
<stop stop-color="#888888"/>
<stop offset="1" stop-color="#4A4A4A"/>
</linearGradient>
<linearGradient id="paint13_linear_1290_49248" x1="29.5381" y1="258.574" x2="29.5381" y2="261.062" gradientUnits="userSpaceOnUse">
<stop stop-color="#888888"/>
<stop offset="1" stop-color="#4A4A4A"/>
</linearGradient>
<linearGradient id="paint14_linear_1290_49248" x1="25.7812" y1="249.271" x2="25.7812" y2="251.759" gradientUnits="userSpaceOnUse">
<stop stop-color="#888888"/>
<stop offset="1" stop-color="#4A4A4A"/>
</linearGradient>
<linearGradient id="paint15_linear_1290_49248" x1="29.7002" y1="240.03" x2="29.7002" y2="242.518" gradientUnits="userSpaceOnUse">
<stop stop-color="#888888"/>
<stop offset="1" stop-color="#4A4A4A"/>
</linearGradient>
<linearGradient id="paint16_linear_1290_49248" x1="39.0068" y1="236.273" x2="39.0068" y2="238.761" gradientUnits="userSpaceOnUse">
<stop stop-color="#888888"/>
<stop offset="1" stop-color="#4A4A4A"/>
</linearGradient>
<linearGradient id="paint17_linear_1290_49248" x1="48.25" y1="240.204" x2="48.25" y2="242.692" gradientUnits="userSpaceOnUse">
<stop stop-color="#888888"/>
<stop offset="1" stop-color="#4A4A4A"/>
</linearGradient>
<linearGradient id="paint18_linear_1290_49248" x1="52.0078" y1="249.509" x2="52.0078" y2="251.996" gradientUnits="userSpaceOnUse">
<stop stop-color="#888888"/>
<stop offset="1" stop-color="#4A4A4A"/>
</linearGradient>
<linearGradient id="paint19_linear_1290_49248" x1="48.0879" y1="258.749" x2="48.0879" y2="261.237" gradientUnits="userSpaceOnUse">
<stop stop-color="#888888"/>
<stop offset="1" stop-color="#4A4A4A"/>
</linearGradient>
<linearGradient id="paint20_linear_1290_49248" x1="250.641" y1="121.711" x2="250.641" y2="129.732" gradientUnits="userSpaceOnUse">
<stop stop-color="#888888"/>
<stop offset="1" stop-color="#4A4A4A"/>
</linearGradient>
<linearGradient id="paint21_linear_1290_49248" x1="256.432" y1="127.996" x2="256.432" y2="130.163" gradientUnits="userSpaceOnUse">
<stop stop-color="#888888"/>
<stop offset="1" stop-color="#4A4A4A"/>
</linearGradient>
<linearGradient id="paint22_linear_1290_49248" x1="252.473" y1="112.717" x2="240.582" y2="124.843" gradientUnits="userSpaceOnUse">
<stop offset="0.00520833" stop-color="#9FFFD1"/>
<stop offset="1" stop-color="#12CBB5"/>
</linearGradient>
<linearGradient id="paint23_linear_1290_49248" x1="252.473" y1="112.717" x2="240.582" y2="124.843" gradientUnits="userSpaceOnUse">
<stop offset="0.00520833" stop-color="#9FFFD1"/>
<stop offset="1" stop-color="#12CBB5"/>
</linearGradient>
<linearGradient id="paint24_linear_1290_49248" x1="259.407" y1="148.704" x2="259.407" y2="216.739" gradientUnits="userSpaceOnUse">
<stop stop-color="#888888"/>
<stop offset="1" stop-color="#4A4A4A"/>
</linearGradient>
<linearGradient id="paint25_linear_1290_49248" x1="235.785" y1="143.727" x2="235.785" y2="149.06" gradientUnits="userSpaceOnUse">
<stop stop-color="#313131"/>
<stop offset="1" stop-color="#5A5A5A"/>
</linearGradient>
<linearGradient id="paint26_linear_1290_49248" x1="262.013" y1="143.727" x2="262.013" y2="149.062" gradientUnits="userSpaceOnUse">
<stop stop-color="#313131"/>
<stop offset="1" stop-color="#5A5A5A"/>
</linearGradient>
<linearGradient id="paint27_linear_1290_49248" x1="218.514" y1="215.194" x2="248.864" y2="340.792" gradientUnits="userSpaceOnUse">
<stop offset="0.111458" stop-color="#96ECFF"/>
<stop offset="1" stop-color="#6F7BEA"/>
</linearGradient>
<linearGradient id="paint28_linear_1290_49248" x1="240.971" y1="214.182" x2="240.971" y2="224.624" gradientUnits="userSpaceOnUse">
<stop stop-color="#313131"/>
<stop offset="1" stop-color="#5A5A5A"/>
</linearGradient>
<linearGradient id="paint29_linear_1290_49248" x1="265.287" y1="156.273" x2="214.816" y2="179.467" gradientUnits="userSpaceOnUse">
<stop offset="0.00520833" stop-color="#9FFFD1"/>
<stop offset="1" stop-color="#12CBB5"/>
</linearGradient>
<linearGradient id="paint30_linear_1290_49248" x1="291.189" y1="221.21" x2="262.747" y2="243.035" gradientUnits="userSpaceOnUse">
<stop offset="0.00520833" stop-color="#9FFFD1"/>
<stop offset="1" stop-color="#12CBB5"/>
</linearGradient>
<linearGradient id="paint31_linear_1290_49248" x1="267.553" y1="217.809" x2="267.553" y2="218.631" gradientUnits="userSpaceOnUse">
<stop stop-color="#888888"/>
<stop offset="1" stop-color="#4A4A4A"/>
</linearGradient>
<linearGradient id="paint32_linear_1290_49248" x1="208.14" y1="185.096" x2="199.223" y2="215.281" gradientUnits="userSpaceOnUse">
<stop stop-color="#313131"/>
<stop offset="1" stop-color="#5A5A5A"/>
</linearGradient>
<linearGradient id="paint33_linear_1290_49248" x1="146.819" y1="178.425" x2="165.822" y2="164.263" gradientUnits="userSpaceOnUse">
<stop offset="0.00520833" stop-color="#9FFFD1"/>
<stop offset="1" stop-color="#12CBB5"/>
</linearGradient>
<linearGradient id="paint34_linear_1290_49248" x1="167.051" y1="175.531" x2="165.533" y2="182.127" gradientUnits="userSpaceOnUse">
<stop stop-color="#888888"/>
<stop offset="1" stop-color="#4A4A4A"/>
</linearGradient>
<linearGradient id="paint35_linear_1290_49248" x1="299.515" y1="190.715" x2="299.515" y2="217.767" gradientUnits="userSpaceOnUse">
<stop stop-color="#313131"/>
<stop offset="1" stop-color="#5A5A5A"/>
</linearGradient>
<linearGradient id="paint36_linear_1290_49248" x1="258.061" y1="209.98" x2="258.061" y2="221.968" gradientUnits="userSpaceOnUse">
<stop stop-color="#888888"/>
<stop offset="1" stop-color="#4A4A4A"/>
</linearGradient>
<linearGradient id="paint37_linear_1290_49248" x1="258.061" y1="205.814" x2="258.061" y2="218.708" gradientUnits="userSpaceOnUse">
<stop stop-color="#888888"/>
<stop offset="1" stop-color="#4A4A4A"/>
</linearGradient>
<linearGradient id="paint38_linear_1290_49248" x1="258.072" y1="214.505" x2="258.072" y2="222.372" gradientUnits="userSpaceOnUse">
<stop stop-color="#888888"/>
<stop offset="1" stop-color="#4A4A4A"/>
</linearGradient>
<linearGradient id="paint39_linear_1290_49248" x1="295.996" y1="99.6973" x2="288.929" y2="122.954" gradientUnits="userSpaceOnUse">
<stop stop-color="#888888"/>
<stop offset="1" stop-color="#4A4A4A"/>
</linearGradient>
<clipPath id="clip0_1290_49248">
<rect width="312" height="320" rx="10" fill="white"/>
</clipPath>
</defs>
</svg>
