<svg width="270" height="271" viewBox="0 0 270 271" fill="none" xmlns="http://www.w3.org/2000/svg">
<path d="M141.201 122.392C141.201 122.392 160.269 139.274 183.79 139.274C207.312 139.274 226.389 122.392 226.389 122.392C226.389 122.392 207.312 105.509 183.79 105.509C180.433 105.522 177.084 105.853 173.79 106.499C177.521 104.259 180.969 101.578 184.061 98.5154C200.692 81.8756 202.242 56.4957 202.242 56.4957C202.242 56.4957 176.825 58.0364 160.222 74.6762C156.821 78.1147 153.891 81.9895 151.51 86.1989C151.772 84.0893 151.906 81.9658 151.912 79.84C151.884 56.2716 135.001 37.2227 135.001 37.2227C135.001 37.2227 118.118 56.2716 118.118 79.8026C118.124 81.9284 118.258 84.052 118.52 86.1616C116.133 81.951 113.197 78.0762 109.789 74.6389C93.168 57.9991 67.7694 56.4583 67.7694 56.4583C67.7694 56.4583 69.3195 81.8756 85.9499 98.478C89.0417 101.541 92.4902 104.221 96.2214 106.462C92.9267 105.816 89.5781 105.485 86.2207 105.472C62.6897 105.472 43.6221 122.355 43.6221 122.355C43.6221 122.355 62.6897 139.237 86.2207 139.237C109.752 139.237 128.81 122.355 128.81 122.355" fill="url(#paint0_linear_1290_23145)"/>
<path d="M135.002 114.95C146.288 114.95 157.111 119.433 165.091 127.413C173.071 135.393 177.554 146.217 177.554 157.502V223.977H92.4502V157.502C92.4502 146.217 96.9333 135.393 104.913 127.413C112.893 119.433 123.717 114.95 135.002 114.95Z" fill="url(#paint1_linear_1290_23145)"/>
<path d="M123.208 132.374C130.304 132.374 136.057 126.622 136.057 119.525C136.057 112.429 130.304 106.677 123.208 106.677C116.112 106.677 110.359 112.429 110.359 119.525C110.359 126.622 116.112 132.374 123.208 132.374Z" fill="url(#paint2_linear_1290_23145)"/>
<path d="M135.001 115.453C142.097 115.453 147.85 109.701 147.85 102.605C147.85 95.5084 142.097 89.7559 135.001 89.7559C127.905 89.7559 122.152 95.5084 122.152 102.605C122.152 109.701 127.905 115.453 135.001 115.453Z" fill="url(#paint3_linear_1290_23145)"/>
<path d="M146.794 132.374C153.89 132.374 159.643 126.622 159.643 119.525C159.643 112.429 153.89 106.677 146.794 106.677C139.698 106.677 133.945 112.429 133.945 119.525C133.945 126.622 139.698 132.374 146.794 132.374Z" fill="url(#paint4_linear_1290_23145)"/>
<path fill-rule="evenodd" clip-rule="evenodd" d="M125.516 171.008V168.97H123.356V173.168H146.644V168.97H144.484V171.008H125.516Z" fill="#333333"/>
<path fill-rule="evenodd" clip-rule="evenodd" d="M131.019 160.767C130.187 162.44 127.352 163.672 123.983 163.672C119.96 163.672 116.699 161.916 116.699 159.75C116.699 157.584 119.96 155.828 123.983 155.828C127.388 155.828 130.248 157.087 131.045 158.787L138.95 158.802C139.737 157.094 142.603 155.828 146.019 155.828C150.041 155.828 153.302 157.584 153.302 159.75C153.302 161.916 150.041 163.672 146.019 163.672C142.659 163.672 139.831 162.447 138.99 160.782L131.019 160.767Z" fill="#333333"/>
<path d="M252.842 40.0978C252.734 38.3737 252.97 36.7686 253.432 35.5799C252.372 36.2916 250.855 36.873 249.149 37.1455C247.448 37.4166 245.896 37.3277 244.769 36.9683C245.366 37.9882 245.792 39.4835 245.898 41.2025C246.004 42.9275 245.768 44.5341 245.304 45.7245C246.363 45.0139 247.879 44.4342 249.585 44.1633C251.297 43.8914 252.859 43.9855 253.986 44.3523C253.383 43.3321 252.95 41.8279 252.842 40.0978" stroke="#A0A0A0"/>
<path d="M241.422 50.2745L208.633 86.7445" stroke="#A0A0A0" stroke-width="0.8"/>
<path d="M34.9219 51.2637L62.2472 80.6823" stroke="#A0A0A0" stroke-dasharray="2 2"/>
<circle cx="28.5907" cy="44.6875" r="3.91459" transform="rotate(10.4139 28.5907 44.6875)" stroke="#A0A0A0"/>
<circle cx="30.7464" cy="80.2154" r="3.41459" transform="rotate(-62.6025 30.7464 80.2154)" fill="#C5C5C5"/>
<path d="M36.8788 83.3933L54.6056 92.8366" stroke="#A0A0A0" stroke-width="0.8"/>
<path d="M40.8809 207.499L62.9981 193.344" stroke="#A0A0A0" stroke-width="1.1" stroke-dasharray="2 2"/>
<circle cx="221.061" cy="200.422" r="5.44115" transform="rotate(10.4139 221.061 200.422)" stroke="#A0A0A0"/>
<defs>
<linearGradient id="paint0_linear_1290_23145" x1="78.7124" y1="46.6495" x2="155.084" y2="153.035" gradientUnits="userSpaceOnUse">
<stop offset="0.09375" stop-color="#94FDAB"/>
<stop offset="1" stop-color="#09C497"/>
</linearGradient>
<linearGradient id="paint1_linear_1290_23145" x1="84.8974" y1="137.756" x2="122.514" y2="239.509" gradientUnits="userSpaceOnUse">
<stop offset="0.140625" stop-color="#FBBD90"/>
<stop offset="1" stop-color="#DE7756"/>
</linearGradient>
<linearGradient id="paint2_linear_1290_23145" x1="110.359" y1="119.525" x2="136.057" y2="119.525" gradientUnits="userSpaceOnUse">
<stop offset="0.109375" stop-color="#FFF6A3"/>
<stop offset="1" stop-color="#FF9E58"/>
</linearGradient>
<linearGradient id="paint3_linear_1290_23145" x1="122.152" y1="102.605" x2="147.85" y2="102.605" gradientUnits="userSpaceOnUse">
<stop offset="0.109375" stop-color="#FFF6A3"/>
<stop offset="1" stop-color="#FF9E58"/>
</linearGradient>
<linearGradient id="paint4_linear_1290_23145" x1="133.945" y1="119.525" x2="159.643" y2="119.525" gradientUnits="userSpaceOnUse">
<stop offset="0.109375" stop-color="#FFF6A3"/>
<stop offset="1" stop-color="#FF9E58"/>
</linearGradient>
</defs>
</svg>
