<svg width="270" height="271" viewBox="0 0 270 271" fill="none" xmlns="http://www.w3.org/2000/svg">
<path d="M161.973 49.149L161.892 47.169L151.065 47.601L153.945 39.006L152.073 38.376L147.537 51.903L141.435 43.884L139.86 45.081L146.781 54.171L144.9 59.769L146.781 60.399L150.39 49.608L161.973 49.149Z" fill="url(#paint0_linear_1290_22965)"/>
<path d="M123.392 39.294L121.475 38.79L117.299 54.468L108.182 43.254L106.643 44.505L120.575 61.623L122.114 60.372L118.847 56.367L123.392 39.294Z" fill="url(#paint1_linear_1290_22965)"/>
<path d="M113.474 42.1744L108.713 41.6884L112.421 38.6644L111.17 37.1344L107.462 40.1494L107.948 35.3884L105.977 35.1904L105.491 39.9514L102.467 36.2344L100.937 37.4854L103.952 41.2024L99.1912 40.7074L98.9932 42.6784L103.754 43.1644L100.037 46.1884L101.288 47.7274L105.005 44.7034L104.51 49.4644L106.481 49.6714L106.967 44.9104L109.991 48.6184L111.53 47.3674L108.506 43.6594L113.267 44.1454L113.474 42.1744Z" fill="url(#paint2_linear_1290_22965)"/>
<path d="M95.4532 57.4239L94.5986 59.21L112.63 67.8375L113.484 66.0514L95.4532 57.4239Z" fill="url(#paint3_linear_1290_22965)"/>
<path d="M99.1717 59.2024L95.9227 57.6454L99.3247 56.4484L98.6677 54.5764L95.2567 55.7824L96.8227 52.5244L95.0317 51.6694L93.4747 54.9184L92.2777 51.5254L90.4057 52.1824L91.6027 55.5844L88.3537 54.0274L87.4987 55.8094L90.7567 57.3664L87.3457 58.5724L88.0027 60.4354L91.4137 59.2384L89.8567 62.4964L91.6387 63.3424L93.1957 60.0934L94.4017 63.4954L96.2647 62.8384L95.0677 59.4364L98.3257 60.9934L99.1717 59.2024Z" fill="url(#paint4_linear_1290_22965)"/>
<path d="M174.073 57.5629L156.083 66.1582L156.934 67.9402L174.924 59.3449L174.073 57.5629Z" fill="url(#paint5_linear_1290_22965)"/>
<path d="M170.819 59.1135L174.068 57.5565L170.666 56.3595L171.323 54.4875L174.734 55.6935L173.177 52.4355L174.959 51.5805L176.516 54.8295L177.713 51.4365L179.585 52.0935L178.388 55.4955L181.637 53.9385L182.492 55.7205L179.234 57.2775L182.645 58.4835L181.988 60.3465L178.577 59.1495L180.134 62.4075L178.352 63.2535L176.795 60.0045L175.589 63.4065L173.726 62.7495L174.923 59.3475L171.665 60.9045L170.819 59.1135Z" fill="url(#paint6_linear_1290_22965)"/>
<path d="M135.577 55.4313C146.449 55.4313 156.877 59.7486 164.568 67.4342C172.258 75.1198 176.583 85.5447 176.59 96.4173V230.787H94.5547V96.4173C94.5547 85.54 98.8757 75.1082 106.567 67.4167C114.259 59.7253 124.69 55.4043 135.568 55.4043L135.577 55.4313Z" fill="url(#paint7_linear_1290_22965)"/>
<path fill-rule="evenodd" clip-rule="evenodd" d="M127.229 79.9123H123.13V77.5723H127.229V79.9123Z" fill="#333333"/>
<path fill-rule="evenodd" clip-rule="evenodd" d="M147.62 79.9113H143.521V77.5713H147.62V79.9113Z" fill="#333333"/>
<path fill-rule="evenodd" clip-rule="evenodd" d="M125.308 87.9753V86.2021H123.148V90.1353H147.591V86.2021H145.431V87.9753H125.308Z" fill="#333333"/>
<path d="M160.723 38.2598L156.187 36.7388L160.471 34.5968L159.589 32.8328L155.305 34.9658L156.826 30.4208L154.945 29.7998L153.424 34.3358L151.291 30.0518L149.518 30.9338L151.651 35.2178L147.115 33.6968L146.485 35.5778L151.021 37.0988L146.737 39.2318L147.619 41.0048L151.903 38.8628L150.382 43.4078L152.263 44.0378L153.784 39.4928L155.917 43.7768L157.69 42.8948L155.557 38.6108L160.093 40.1318L160.723 38.2598Z" fill="url(#paint8_linear_1290_22965)"/>
<path d="M144.36 43.1823L142.47 42.9213L143.982 41.7693L142.785 40.1943L141.273 41.3463L141.525 39.4563L139.563 39.1953L139.302 41.0853L138.15 39.5643L136.575 40.7613L137.727 42.2823L135.846 42.0213L135.576 43.9833L137.466 44.2443L135.945 45.3963L137.142 46.9713L138.663 45.8193L138.402 47.7093L140.373 47.9793L140.625 46.0893L141.777 47.6013L143.352 46.4043L142.2 44.8833L144.09 45.1443L144.36 43.1823Z" fill="url(#paint9_linear_1290_22965)"/>
<path d="M127.989 37.7728L125.424 37.0888L127.719 35.7568L126.729 34.0468L124.425 35.3788L125.109 32.8048L123.201 32.3008L122.517 34.8658L121.185 32.5708L119.466 33.5608L120.798 35.8558L118.233 35.1718L117.729 37.0888L120.294 37.7728L117.999 39.1048L118.989 40.8148L121.284 39.4828L120.6 42.0568L122.517 42.5608L123.201 39.9958L124.533 42.2908L126.243 41.3008L124.911 39.0058L127.485 39.6898L127.989 37.7728Z" fill="url(#paint10_linear_1290_22965)"/>
<path d="M167.393 48.9332L167.312 46.9622L165.413 47.0342L166.7 45.6302L165.251 44.2892L163.955 45.6932L163.883 43.7852L161.903 43.8662L161.975 45.7652L160.571 44.4782L159.23 45.9272L160.634 47.2232L158.726 47.2952L158.807 49.2751L160.715 49.2032L159.419 50.5981L160.877 51.9481L162.164 50.5441L162.245 52.4521L164.225 52.3711L164.144 50.4631L165.548 51.7591L166.889 50.3011L165.485 49.0142L167.393 48.9332Z" fill="url(#paint11_linear_1290_22965)"/>
<path d="M135.002 83.2695C137.388 83.2695 139.323 81.8186 139.323 80.0288C139.323 78.239 137.388 76.7881 135.002 76.7881C132.615 76.7881 130.681 78.239 130.681 80.0288C130.681 81.8186 132.615 83.2695 135.002 83.2695Z" fill="url(#paint12_linear_1290_22965)"/>
<path d="M235.821 65.9091C235.762 64.2888 236.021 62.7884 236.484 61.6841C235.471 62.3264 234.035 62.8354 232.427 63.0499C230.825 63.2633 229.37 63.1425 228.322 62.7781C228.857 63.7495 229.221 65.1628 229.279 66.7783C229.337 68.3995 229.076 69.9012 228.612 71.007C229.624 70.3658 231.059 69.8584 232.667 69.6453C234.28 69.4314 235.743 69.5574 236.792 69.9288C236.25 68.9569 235.881 67.5351 235.821 65.9091" stroke="#A0A0A0"/>
<path d="M224.86 75.1824L193.215 108.612" stroke="#A0A0A0" stroke-width="0.8"/>
<path d="M45.1465 92.2646L77.472 111.573" stroke="#A0A0A0" stroke-dasharray="2 2"/>
<circle cx="37.7207" cy="88.0067" r="3.70214" transform="rotate(-5.84817 37.7207 88.0067)" stroke="#A0A0A0"/>
<circle cx="49.4111" cy="125.234" r="3.41459" transform="rotate(-78.8645 49.4111 125.234)" fill="#C5C5C5"/>
<path d="M56.1884 126.566L75.8503 130.668" stroke="#A0A0A0" stroke-width="0.8"/>
<defs>
<linearGradient id="paint0_linear_1290_22965" x1="137.898" y1="42.9827" x2="144.1" y2="64.563" gradientUnits="userSpaceOnUse">
<stop offset="0.140625" stop-color="#FBBD90"/>
<stop offset="1" stop-color="#DE7756"/>
</linearGradient>
<linearGradient id="paint1_linear_1290_22965" x1="105.156" y1="43.5662" x2="113.408" y2="64.5421" gradientUnits="userSpaceOnUse">
<stop offset="0.140625" stop-color="#FBBD90"/>
<stop offset="1" stop-color="#DE7756"/>
</linearGradient>
<linearGradient id="paint2_linear_1290_22965" x1="101.773" y1="36.5281" x2="112.859" y2="45.1509" gradientUnits="userSpaceOnUse">
<stop offset="0.09375" stop-color="#94FDAB"/>
<stop offset="1" stop-color="#09C497"/>
</linearGradient>
<linearGradient id="paint3_linear_1290_22965" x1="98.2945" y1="61.1732" x2="103.121" y2="56.2641" gradientUnits="userSpaceOnUse">
<stop offset="0.140625" stop-color="#FBBD90"/>
<stop offset="1" stop-color="#DE7756"/>
</linearGradient>
<linearGradient id="paint4_linear_1290_22965" x1="89.6456" y1="52.6311" x2="98.811" y2="59.7654" gradientUnits="userSpaceOnUse">
<stop offset="0.09375" stop-color="#94FDAB"/>
<stop offset="1" stop-color="#09C497"/>
</linearGradient>
<linearGradient id="paint5_linear_1290_22965" x1="154.665" y1="67.2938" x2="155.621" y2="69.1568" gradientUnits="userSpaceOnUse">
<stop offset="0.140625" stop-color="#FBBD90"/>
<stop offset="1" stop-color="#DE7756"/>
</linearGradient>
<linearGradient id="paint6_linear_1290_22965" x1="172.966" y1="52.5422" x2="182.131" y2="59.6766" gradientUnits="userSpaceOnUse">
<stop offset="0.09375" stop-color="#94FDAB"/>
<stop offset="1" stop-color="#09C497"/>
</linearGradient>
<linearGradient id="paint7_linear_1290_22965" x1="87.2742" y1="92.0905" x2="170.413" y2="226.852" gradientUnits="userSpaceOnUse">
<stop offset="0.140625" stop-color="#FBBD90"/>
<stop offset="1" stop-color="#DE7756"/>
</linearGradient>
<linearGradient id="paint8_linear_1290_22965" x1="149.219" y1="31.115" x2="160.119" y2="39.5931" gradientUnits="userSpaceOnUse">
<stop offset="0.09375" stop-color="#94FDAB"/>
<stop offset="1" stop-color="#09C497"/>
</linearGradient>
<linearGradient id="paint9_linear_1290_22965" x1="137.263" y1="40.0067" x2="143.987" y2="45.2372" gradientUnits="userSpaceOnUse">
<stop offset="0.09375" stop-color="#94FDAB"/>
<stop offset="1" stop-color="#09C497"/>
</linearGradient>
<linearGradient id="paint10_linear_1290_22965" x1="119.699" y1="33.2485" x2="127.554" y2="39.3579" gradientUnits="userSpaceOnUse">
<stop offset="0.09375" stop-color="#94FDAB"/>
<stop offset="1" stop-color="#09C497"/>
</linearGradient>
<linearGradient id="paint11_linear_1290_22965" x1="160.39" y1="44.5858" x2="167.025" y2="49.7466" gradientUnits="userSpaceOnUse">
<stop offset="0.09375" stop-color="#94FDAB"/>
<stop offset="1" stop-color="#09C497"/>
</linearGradient>
<linearGradient id="paint12_linear_1290_22965" x1="132.34" y1="77.3868" x2="137.456" y2="82.6925" gradientUnits="userSpaceOnUse">
<stop offset="0.09375" stop-color="#94FDAB"/>
<stop offset="1" stop-color="#09C497"/>
</linearGradient>
</defs>
</svg>
