<svg width="312" height="320" viewBox="0 0 312 320" fill="none" xmlns="http://www.w3.org/2000/svg">
<g clip-path="url(#clip0_1290_49164)">
<rect width="312" height="320" rx="10" fill="url(#paint0_linear_1290_49164)"/>
<path d="M161.089 31.4968C160.513 27.361 156.201 24.1986 151.026 24.1986C149.588 24.1986 148.438 24.4417 147.288 24.9284C144.701 21.5225 140.101 19.333 135.213 19.333C127.164 19.333 120.838 24.6849 120.838 31.497V31.7401C115.95 32.2268 112.213 35.8759 112.213 40.0112C112.213 44.6337 116.813 48.5259 122.276 48.5259H159.65C165.113 48.5259 169.713 44.6337 169.713 40.0112C169.713 35.6323 165.976 32.2268 161.088 31.497L161.089 31.4968Z" fill="url(#paint1_linear_1290_49164)" fill-opacity="0.6"/>
<path d="M25.884 69.9276C26.6338 64.0343 32.256 59.528 39.0026 59.528C40.8769 59.528 42.3759 59.8744 43.8749 60.5679C47.2483 55.7146 53.245 52.5947 59.617 52.5947C70.1116 52.5947 78.3582 60.2209 78.3582 69.9279V70.2743C84.7302 70.9678 89.6025 76.1676 89.6025 82.0603C89.6019 88.6471 83.6051 94.1934 76.4839 94.1934H27.7589C20.6377 94.1934 14.6402 88.6471 14.6402 82.0603C14.6402 75.8206 19.5126 70.9678 25.8846 69.9279L25.884 69.9276Z" fill="url(#paint2_linear_1290_49164)" fill-opacity="0.6"/>
<path d="M315.908 78.2772C314.967 70.6739 307.917 64.8601 299.456 64.8601C297.105 64.8601 295.226 65.307 293.346 66.2018C289.115 59.9402 281.595 55.915 273.604 55.915C260.443 55.915 250.101 65.754 250.101 78.2776V78.7246C242.11 79.6193 236 86.3279 236 93.9304C236.001 102.428 243.521 109.584 252.452 109.584H313.556C322.487 109.584 330.008 102.428 330.008 93.9304C330.008 85.8801 323.899 79.6189 315.908 78.2772Z" fill="url(#paint3_linear_1290_49164)" fill-opacity="0.7"/>
<path d="M21.1781 186.206H11.5293V241.973H21.1781V186.206Z" fill="url(#paint4_linear_1290_49164)"/>
<path fill-rule="evenodd" clip-rule="evenodd" d="M40.4624 75.6984C47.1023 70.3519 51.276 62.6101 51.276 53.9979C51.276 37.8647 36.6294 24.7861 18.5618 24.7861C0.494251 24.7861 -14.1524 37.8647 -14.1524 53.9979C-14.1524 62.6104 -9.97844 70.3523 -3.33829 75.6988C-12.2959 81.3842 -18.0961 90.47 -18.0961 100.708C-18.0961 110.899 -12.3493 119.949 -3.46196 125.639C-14.742 131.809 -22.2139 142.58 -22.2139 154.835C-22.2139 173.992 -3.95817 189.521 18.5614 189.521C41.0809 189.521 59.3366 173.992 59.3366 154.835C59.3366 142.58 51.8652 131.81 40.5858 125.64C49.4737 119.949 55.2209 110.9 55.2209 100.708C55.2209 90.4698 49.4204 81.3838 40.4624 75.6984Z" fill="url(#paint5_linear_1290_49164)"/>
<path fill-rule="evenodd" clip-rule="evenodd" d="M294.594 215.648C294.546 215.599 294.519 215.533 294.519 215.464L294.519 215.464C294.519 215.395 294.546 215.33 294.595 215.28L297.216 212.66C297.524 212.354 297.931 212.185 298.365 212.185C298.799 212.185 299.207 212.354 299.513 212.66C300.146 213.294 300.146 214.325 299.512 214.958L299.227 215.244C300.386 215.393 301.372 216.015 301.938 216.887V211.379C301.471 211.735 300.907 211.936 300.352 211.936C299.875 211.936 299.426 211.792 299.052 211.521C298.16 210.871 297.884 209.602 298.393 208.496C297.331 207.9 296.808 206.71 297.149 205.66C297.456 204.714 298.397 204.079 299.49 204.079C299.6 204.079 299.711 204.085 299.821 204.098C300.059 202.903 301.03 202.038 302.134 202.038C303.246 202.038 304.217 202.91 304.45 204.114C304.595 204.091 304.74 204.08 304.884 204.08C305.976 204.08 306.916 204.715 307.224 205.66C307.577 206.75 307.019 207.958 305.894 208.54C306.383 209.65 306.105 210.874 305.216 211.521C304.841 211.792 304.392 211.936 303.917 211.936C303.41 211.936 302.896 211.766 302.455 211.464V220.859C303.023 220.002 304.001 219.39 305.148 219.242L304.862 218.957C304.229 218.324 304.229 217.293 304.861 216.659C305.168 216.353 305.576 216.183 306.009 216.183C306.443 216.183 306.852 216.352 307.159 216.659L309.78 219.279C309.828 219.328 309.856 219.394 309.856 219.463C309.856 219.53 309.828 219.596 309.78 219.646L307.159 222.267C306.852 222.573 306.444 222.742 306.011 222.742C305.576 222.742 305.169 222.573 304.861 222.267C304.229 221.633 304.229 220.602 304.862 219.968L305.055 219.776C303.625 220.025 302.535 221.104 302.455 222.416L302.455 239.999H301.938V222.57H301.928C301.928 222.536 301.931 222.503 301.934 222.47C301.935 222.451 301.937 222.432 301.938 222.413V218.571H301.928C301.928 217.19 300.804 216.037 299.32 215.778L299.512 215.971C300.145 216.604 300.146 217.635 299.513 218.269C299.206 218.574 298.798 218.744 298.363 218.744C297.93 218.744 297.522 218.575 297.215 218.269L294.594 215.648ZM302.187 208.618C302.96 208.618 303.587 207.991 303.587 207.219C303.587 206.446 302.96 205.819 302.187 205.819C301.415 205.819 300.788 206.446 300.788 207.219C300.788 207.991 301.415 208.618 302.187 208.618Z" fill="url(#paint6_linear_1290_49164)"/>
<path fill-rule="evenodd" clip-rule="evenodd" d="M295.699 199.202L298.32 201.822L298.32 201.822C298.369 201.87 298.396 201.936 298.397 202.005C298.397 202.074 298.37 202.14 298.321 202.188L295.7 204.809C295.393 205.115 294.985 205.284 294.552 205.284C294.118 205.284 293.71 205.116 293.403 204.809C292.769 204.175 292.77 203.144 293.403 202.512L293.596 202.319C292.111 202.578 290.987 203.731 290.987 205.113H290.978V208.953C290.979 208.971 290.98 208.988 290.981 209.006C290.984 209.04 290.987 209.075 290.987 209.11H290.978V240H290.46V208.957C290.38 207.645 289.29 206.566 287.86 206.317L288.053 206.509C288.686 207.142 288.687 208.173 288.054 208.807C287.746 209.114 287.339 209.283 286.904 209.283C286.471 209.283 286.064 209.114 285.756 208.807L283.135 206.186C283.087 206.137 283.06 206.071 283.06 206.002C283.06 205.934 283.087 205.868 283.135 205.819L285.756 203.199C286.064 202.892 286.471 202.723 286.905 202.723C287.339 202.723 287.747 202.892 288.054 203.199C288.687 203.833 288.686 204.864 288.053 205.497L287.767 205.782C288.913 205.929 289.892 206.541 290.46 207.399L290.46 198.005C290.02 198.307 289.506 198.477 288.999 198.477C288.523 198.477 288.074 198.333 287.699 198.062C286.811 197.415 286.532 196.191 287.021 195.08C285.896 194.498 285.337 193.291 285.691 192.202C285.998 191.256 286.939 190.621 288.031 190.621C288.175 190.621 288.32 190.631 288.465 190.654C288.698 189.451 289.669 188.579 290.78 188.579C291.885 188.579 292.855 189.444 293.094 190.639C293.204 190.626 293.316 190.62 293.425 190.62C294.518 190.62 295.458 191.255 295.766 192.201C296.107 193.252 295.584 194.441 294.522 195.036C295.031 196.142 294.755 197.412 293.863 198.061C293.49 198.333 293.039 198.476 292.563 198.476C292.008 198.476 291.443 198.276 290.977 197.919V203.428C291.542 202.556 292.53 201.934 293.688 201.784L293.403 201.499C292.769 200.866 292.768 199.835 293.401 199.202C293.708 198.895 294.116 198.726 294.55 198.726C294.983 198.726 295.391 198.895 295.699 199.202ZM290.728 195.157C291.501 195.157 292.128 194.531 292.128 193.758C292.128 192.985 291.501 192.358 290.728 192.358C289.956 192.358 289.329 192.985 289.329 193.758C289.329 194.531 289.956 195.157 290.728 195.157Z" fill="url(#paint7_linear_1290_49164)"/>
<path fill-rule="evenodd" clip-rule="evenodd" d="M271.675 207.708C271.626 207.66 271.599 207.594 271.599 207.525L271.599 207.524C271.599 207.456 271.626 207.39 271.677 207.34L274.298 204.72C274.606 204.414 275.013 204.245 275.447 204.245C275.881 204.245 276.288 204.414 276.595 204.72C277.228 205.354 277.228 206.384 276.594 207.018L276.309 207.303C277.467 207.452 278.454 208.075 279.019 208.947V203.438C278.553 203.795 277.989 203.995 277.433 203.995C276.956 203.995 276.508 203.851 276.134 203.58C275.241 202.931 274.966 201.661 275.475 200.555C274.412 199.959 273.889 198.77 274.23 197.719C274.537 196.773 275.478 196.138 276.571 196.138C276.681 196.138 276.793 196.144 276.902 196.157C277.141 194.962 278.111 194.098 279.216 194.098C280.326 194.098 281.298 194.969 281.531 196.173C281.676 196.15 281.821 196.139 281.965 196.139C283.057 196.139 283.997 196.774 284.305 197.72C284.659 198.809 284.1 200.017 282.975 200.599C283.464 201.709 283.186 202.934 282.297 203.581C281.922 203.852 281.472 203.995 280.997 203.995C280.49 203.995 279.976 203.826 279.536 203.524L279.536 212.919C280.104 212.061 281.083 211.449 282.229 211.301L281.943 211.016C281.31 210.382 281.31 209.352 281.943 208.718C282.25 208.411 282.657 208.242 283.091 208.242C283.525 208.242 283.932 208.411 284.24 208.718L286.861 211.338C286.91 211.386 286.937 211.452 286.937 211.521C286.937 211.59 286.91 211.656 286.861 211.704L284.24 214.326C283.932 214.633 283.525 214.801 283.092 214.801C282.658 214.801 282.25 214.633 281.942 214.326C281.309 213.692 281.31 212.66 281.943 212.028L282.136 211.835C280.706 212.084 279.616 213.163 279.536 214.476L279.536 240H279.018V214.631H279.009C279.009 214.594 279.012 214.557 279.015 214.52C279.016 214.505 279.017 214.489 279.018 214.474V210.633H279.009C279.009 209.251 277.884 208.098 276.4 207.839L276.593 208.032C277.226 208.665 277.226 209.695 276.593 210.33C276.287 210.636 275.878 210.805 275.444 210.805C275.011 210.805 274.603 210.636 274.296 210.33L271.675 207.708ZM279.269 200.686C280.041 200.686 280.668 200.06 280.668 199.287C280.668 198.514 280.041 197.888 279.269 197.888C278.496 197.888 277.869 198.514 277.869 199.287C277.869 200.06 278.496 200.686 279.269 200.686Z" fill="url(#paint8_linear_1290_49164)"/>
<path fill-rule="evenodd" clip-rule="evenodd" d="M272.778 217.778L275.399 220.398L275.399 220.398C275.448 220.446 275.475 220.512 275.476 220.582C275.476 220.65 275.448 220.716 275.399 220.765L272.778 223.386C272.472 223.692 272.064 223.861 271.63 223.861C271.195 223.861 270.787 223.692 270.481 223.386C269.848 222.752 269.848 221.721 270.481 221.088L270.674 220.895C269.188 221.154 268.064 222.307 268.064 223.688H268.056V227.53C268.056 227.548 268.058 227.567 268.059 227.585C268.062 227.619 268.064 227.652 268.064 227.687H268.056V240H267.538V227.534C267.457 226.221 266.367 225.143 264.938 224.894L265.13 225.086C265.763 225.72 265.764 226.751 265.131 227.385C264.824 227.691 264.416 227.86 263.982 227.86C263.548 227.86 263.14 227.692 262.834 227.385L260.212 224.763C260.164 224.714 260.137 224.648 260.137 224.581C260.137 224.512 260.164 224.446 260.212 224.397L262.834 221.778C263.14 221.471 263.548 221.301 263.982 221.301C264.416 221.301 264.824 221.47 265.131 221.778C265.764 222.41 265.763 223.443 265.13 224.075L264.845 224.36C265.991 224.508 266.97 225.12 267.538 225.977V216.583C267.097 216.885 266.583 217.055 266.076 217.055C265.6 217.055 265.151 216.911 264.777 216.64C263.888 215.993 263.611 214.769 264.098 213.658C262.974 213.076 262.415 211.868 262.768 210.779C263.076 209.833 264.016 209.198 265.109 209.198C265.252 209.198 265.398 209.209 265.543 209.231C265.776 208.028 266.747 207.156 267.858 207.156C268.963 207.156 269.933 208.021 270.172 209.216C270.282 209.203 270.393 209.197 270.503 209.197C271.596 209.197 272.537 209.831 272.844 210.778C273.185 211.829 272.662 213.018 271.6 213.614C272.109 214.72 271.834 215.989 270.941 216.639C270.567 216.911 270.118 217.054 269.642 217.054C269.087 217.054 268.522 216.853 268.056 216.497V222.006C268.621 221.133 269.608 220.511 270.767 220.361L270.481 220.076C269.847 219.443 269.847 218.412 270.48 217.778C270.787 217.473 271.194 217.303 271.628 217.303C272.063 217.303 272.47 217.472 272.778 217.778ZM267.807 213.761C268.579 213.761 269.206 213.134 269.206 212.361C269.206 211.588 268.579 210.962 267.807 210.962C267.034 210.962 266.407 211.588 266.407 212.361C266.407 213.134 267.034 213.761 267.807 213.761Z" fill="url(#paint9_linear_1290_49164)"/>
<path d="M54.0062 224.492L49.3763 219.863C48.8329 219.321 48.1127 219.023 47.3462 219.023C46.5794 219.023 45.8595 219.321 45.3173 219.863C44.1991 220.983 44.1998 222.804 45.3186 223.923L45.8228 224.426C43.7872 224.689 42.0516 225.779 41.0509 227.307V211.37C41.8324 211.908 42.7463 212.212 43.6494 212.212C44.4912 212.212 45.2839 211.958 45.9441 211.479C47.5153 210.336 48.0058 208.175 47.143 206.213C49.1297 205.183 50.1173 203.05 49.4926 201.126C48.8783 199.238 46.8147 198.055 44.5905 198.391C44.1792 196.266 42.4643 194.727 40.4999 194.727C38.5499 194.727 36.8369 196.254 36.4151 198.365C34.2691 198.114 32.2911 199.287 31.693 201.126C31.0909 202.981 32.015 205.082 33.8916 206.135C32.9917 208.089 33.4793 210.332 35.0567 211.479C35.7169 211.958 36.5102 212.212 37.351 212.212C38.3262 212.212 39.3173 211.861 40.1365 211.24V223.64C39.1355 222.113 37.3989 221.022 35.3637 220.76L35.8682 220.256C36.9872 219.138 36.9872 217.316 35.8685 216.197C35.327 215.656 34.6065 215.358 33.84 215.358C33.0738 215.358 32.3533 215.656 31.8108 216.197L27.1799 220.826C27.0938 220.912 27.0459 221.028 27.0459 221.15C27.0459 221.272 27.0941 221.388 27.1799 221.473L31.8104 226.103C32.3526 226.645 33.0725 226.944 33.839 226.944C34.6058 226.944 35.3263 226.645 35.8688 226.103C36.9872 224.983 36.987 223.163 35.8679 222.044L35.5274 221.705C38.151 222.16 40.1358 224.199 40.1358 226.639V240.098H41.0507L41.051 230.305C41.051 227.864 43.0358 225.826 45.6595 225.37L45.319 225.709C44.2006 226.828 44.1999 228.648 45.318 229.768C45.8605 230.311 46.5807 230.608 47.3482 230.608C48.114 230.608 48.8349 230.311 49.3771 229.768L54.0066 225.139C54.0928 225.052 54.1406 224.937 54.1406 224.815C54.1403 224.693 54.0924 224.578 54.0062 224.492ZM40.5935 206.663C39.3372 206.663 38.3154 205.641 38.3154 204.385C38.3154 203.129 39.3375 202.107 40.5935 202.107C41.8498 202.107 42.8716 203.129 42.8716 204.385C42.8716 205.641 41.8498 206.663 40.5935 206.663Z" fill="url(#paint10_linear_1290_49164)"/>
<rect y="240" width="333" height="80" fill="url(#paint11_linear_1290_49164)"/>
<path d="M189.388 130.818C189.388 130.818 191.421 131.308 191.421 132.373C191.421 137.077 191.837 136.467 191.818 139.785C191.818 144.302 191.145 145.731 190.723 146.709C189.967 148.253 188.726 149.508 187.191 150.283C185.655 151.059 183.908 151.312 182.215 151.006C130.642 140.456 134.954 143.209 120.935 110.15C117.43 101.874 116.873 91.8614 122.97 82.9518L123.393 82.3476C126.187 78.3484 131.699 76.9098 133.648 80.4295C150.356 110.246 143.89 120.107 189.388 130.818Z" fill="url(#paint12_linear_1290_49164)"/>
<path d="M241.278 203.145H232.55C225.828 203.145 220.336 196.297 220.336 187.8V151.164C220.336 142.715 225.8 135.819 232.55 135.819H241.278C248 135.819 253.483 142.667 253.483 151.164V187.896C253.483 196.297 248.057 203.145 241.278 203.145Z" fill="url(#paint13_linear_1290_49164)"/>
<path fill-rule="evenodd" clip-rule="evenodd" d="M230.998 140.618C230.998 140.618 230.998 140.618 230.998 140.618L230.998 140.618L230.998 140.618L230.997 140.618L230.995 140.619L230.983 140.624C230.972 140.629 230.954 140.636 230.931 140.647C230.883 140.669 230.812 140.703 230.72 140.751C230.536 140.847 230.27 140.999 229.953 141.216C229.318 141.651 228.475 142.351 227.657 143.404C226.025 145.503 224.468 149.033 224.885 154.737C224.898 154.91 224.768 155.061 224.594 155.074C224.421 155.086 224.27 154.956 224.257 154.783C223.829 148.933 225.426 145.247 227.159 143.017C228.024 141.905 228.917 141.163 229.597 140.697C229.937 140.464 230.224 140.3 230.428 140.193C230.53 140.14 230.611 140.101 230.668 140.075C230.697 140.062 230.719 140.052 230.735 140.045L230.753 140.037L230.759 140.035L230.761 140.034L230.761 140.034C230.762 140.034 230.762 140.034 230.88 140.326L230.762 140.034C230.923 139.969 231.107 140.047 231.172 140.208C231.237 140.369 231.159 140.553 230.998 140.618Z" fill="white"/>
<path d="M149.151 240.943C142.429 242.334 138.588 239.265 133.451 235.812C125.99 230.825 129.61 224.39 131.963 220.909C162.882 175.757 171.821 188.493 99.7861 170.175C102.945 161.102 106.124 151.79 109.388 142.804C169.786 158.331 213.091 168.573 168.777 222.731C161.71 231.468 159.156 238.872 149.151 240.943Z" fill="url(#paint14_linear_1290_49164)"/>
<path d="M149.625 265.982L132.629 255.336C132.282 255.111 132.024 254.772 131.9 254.377L130.651 250.387C130.616 250.28 130.557 250.181 130.479 250.1C130.393 250.024 130.291 249.968 130.181 249.937C130.07 249.912 129.956 249.912 129.845 249.937C129.734 249.966 129.631 250.022 129.547 250.1L127.972 251.644C127.838 251.777 127.662 251.862 127.473 251.884C127.282 251.901 127.09 251.857 126.926 251.759L120.079 247.462C119.984 247.404 119.902 247.328 119.838 247.237C119.773 247.146 119.728 247.044 119.705 246.935C119.657 246.715 119.695 246.485 119.811 246.292C119.84 246.248 119.872 246.207 119.907 246.168L128.875 236.52L146.159 247.357L149.625 265.982Z" fill="url(#paint15_linear_1290_49164)"/>
<path d="M147.83 243.769L131.068 233.393L129.036 236.605L145.788 246.973L147.83 243.769Z" fill="white"/>
<path fill-rule="evenodd" clip-rule="evenodd" d="M130.895 233.283C130.955 233.188 131.08 233.159 131.176 233.218L147.938 243.595C147.984 243.624 148.017 243.67 148.03 243.724C148.042 243.777 148.032 243.833 148.003 243.88L145.961 247.083C145.901 247.177 145.776 247.206 145.68 247.147L128.928 236.78C128.882 236.751 128.849 236.705 128.836 236.651C128.824 236.598 128.834 236.542 128.863 236.496L130.895 233.283ZM131.133 233.674L129.32 236.54L145.724 246.692L147.545 243.834L131.133 233.674Z" fill="url(#paint16_linear_1290_49164)"/>
<path fill-rule="evenodd" clip-rule="evenodd" d="M143.124 245.271L145.14 242.059L145.488 242.277L143.471 245.489L143.124 245.271Z" fill="url(#paint17_linear_1290_49164)"/>
<path fill-rule="evenodd" clip-rule="evenodd" d="M140.253 243.508L142.26 240.295L142.608 240.512L140.601 243.725L140.253 243.508Z" fill="url(#paint18_linear_1290_49164)"/>
<path fill-rule="evenodd" clip-rule="evenodd" d="M137.459 241.742L139.475 238.529L139.823 238.747L137.806 241.96L137.459 241.742Z" fill="url(#paint19_linear_1290_49164)"/>
<path fill-rule="evenodd" clip-rule="evenodd" d="M134.636 239.968L136.652 236.765L136.999 236.983L134.983 240.186L134.636 239.968Z" fill="url(#paint20_linear_1290_49164)"/>
<path fill-rule="evenodd" clip-rule="evenodd" d="M131.822 238.203L133.839 235L134.186 235.218L132.169 238.422L131.822 238.203Z" fill="url(#paint21_linear_1290_49164)"/>
<g filter="url(#filter0_f_1290_49164)">
<path d="M159.535 304.813C220.32 304.813 269.595 300.116 269.595 294.321C269.595 288.527 220.32 283.829 159.535 283.829C98.751 283.829 49.4756 288.527 49.4756 294.321C49.4756 300.116 98.751 304.813 159.535 304.813Z" fill="#C15431" fill-opacity="0.25"/>
</g>
<path fill-rule="evenodd" clip-rule="evenodd" d="M200.727 255.605C200.727 255.412 200.883 255.255 201.077 255.255H264.291C264.484 255.255 264.641 255.412 264.641 255.605C264.641 255.798 264.484 255.955 264.291 255.955H201.077C200.883 255.955 200.727 255.798 200.727 255.605Z" fill="#888888"/>
<path fill-rule="evenodd" clip-rule="evenodd" d="M232.684 223.647C232.877 223.647 233.034 223.804 233.034 223.997L233.034 287.212C233.034 287.405 232.877 287.562 232.684 287.562C232.491 287.562 232.334 287.405 232.334 287.212L232.334 223.997C232.334 223.804 232.491 223.647 232.684 223.647Z" fill="#888888"/>
<path fill-rule="evenodd" clip-rule="evenodd" d="M210.086 233.008C210.222 232.872 210.444 232.872 210.58 233.008L255.28 277.707C255.416 277.844 255.416 278.066 255.28 278.202C255.143 278.339 254.921 278.339 254.785 278.202L210.086 233.503C209.949 233.367 209.949 233.145 210.086 233.008Z" fill="#888888"/>
<path fill-rule="evenodd" clip-rule="evenodd" d="M255.281 233.007C255.418 233.144 255.418 233.366 255.281 233.502L210.582 278.202C210.445 278.338 210.223 278.338 210.087 278.202C209.95 278.065 209.95 277.843 210.087 277.707L254.786 233.007C254.923 232.871 255.144 232.871 255.281 233.007Z" fill="#888888"/>
<path fill-rule="evenodd" clip-rule="evenodd" d="M220.132 226.215C220.31 226.139 220.516 226.221 220.592 226.399L245.417 284.535C245.493 284.712 245.41 284.918 245.232 284.994C245.055 285.07 244.849 284.987 244.773 284.81L219.948 226.674C219.872 226.496 219.954 226.291 220.132 226.215Z" fill="#888888"/>
<path fill-rule="evenodd" clip-rule="evenodd" d="M262.074 243.054C262.15 243.232 262.068 243.438 261.89 243.513L203.754 268.339C203.577 268.415 203.371 268.332 203.295 268.154C203.219 267.976 203.302 267.771 203.48 267.695L261.615 242.87C261.793 242.794 261.999 242.876 262.074 243.054Z" fill="#888888"/>
<path fill-rule="evenodd" clip-rule="evenodd" d="M244.768 226.019C244.947 226.092 245.033 226.296 244.959 226.475L221.055 284.996C220.982 285.175 220.777 285.26 220.599 285.187C220.42 285.114 220.334 284.91 220.407 284.731L244.311 226.211C244.385 226.032 244.589 225.946 244.768 226.019Z" fill="#888888"/>
<path fill-rule="evenodd" clip-rule="evenodd" d="M262.269 267.69C262.196 267.869 261.992 267.954 261.813 267.881L203.292 243.977C203.114 243.904 203.028 243.699 203.101 243.52C203.174 243.341 203.378 243.256 203.557 243.329L262.077 267.233C262.256 267.306 262.342 267.511 262.269 267.69Z" fill="#888888"/>
<path fill-rule="evenodd" clip-rule="evenodd" d="M271.409 255.604C271.409 276.987 254.054 294.321 232.646 294.321C211.237 294.321 193.882 276.987 193.882 255.604C193.882 234.222 211.237 216.888 232.646 216.888C254.054 216.888 271.409 234.222 271.409 255.604ZM264.506 255.604C264.506 273.179 250.242 287.426 232.646 287.426C215.05 287.426 200.786 273.179 200.786 255.604C200.786 238.03 215.05 223.783 232.646 223.783C250.242 223.783 264.506 238.03 264.506 255.604Z" fill="url(#paint22_linear_1290_49164)"/>
<path fill-rule="evenodd" clip-rule="evenodd" d="M267.098 255.604C267.098 274.609 251.673 290.015 232.646 290.015C213.618 290.015 198.193 274.609 198.193 255.604C198.193 236.6 213.618 221.193 232.646 221.193C251.673 221.193 267.098 236.6 267.098 255.604ZM264.506 255.604C264.506 273.179 250.242 287.426 232.646 287.426C215.05 287.426 200.786 273.179 200.786 255.604C200.786 238.03 215.05 223.783 232.646 223.783C250.242 223.783 264.506 238.03 264.506 255.604Z" fill="url(#paint23_linear_1290_49164)"/>
<path fill-rule="evenodd" clip-rule="evenodd" d="M60.9863 255.605C60.9863 255.412 61.143 255.255 61.3363 255.255H124.551C124.744 255.255 124.901 255.412 124.901 255.605C124.901 255.798 124.744 255.955 124.551 255.955H61.3363C61.143 255.955 60.9863 255.798 60.9863 255.605Z" fill="#888888"/>
<path fill-rule="evenodd" clip-rule="evenodd" d="M92.9439 223.647C93.1372 223.647 93.2939 223.804 93.2939 223.997L93.2939 287.212C93.2939 287.405 93.1372 287.562 92.9439 287.562C92.7506 287.562 92.5939 287.405 92.5939 287.212L92.5939 223.997C92.5939 223.804 92.7506 223.647 92.9439 223.647Z" fill="#888888"/>
<path fill-rule="evenodd" clip-rule="evenodd" d="M70.3453 233.008C70.482 232.872 70.7036 232.872 70.8403 233.008L115.539 277.707C115.676 277.844 115.676 278.066 115.539 278.202C115.403 278.339 115.181 278.339 115.045 278.202L70.3453 233.503C70.2086 233.367 70.2086 233.145 70.3453 233.008Z" fill="#888888"/>
<path fill-rule="evenodd" clip-rule="evenodd" d="M115.541 233.007C115.677 233.144 115.677 233.366 115.541 233.502L70.8414 278.202C70.7047 278.338 70.4831 278.338 70.3464 278.202C70.2097 278.065 70.2097 277.843 70.3464 277.707L115.046 233.007C115.182 232.871 115.404 232.871 115.541 233.007Z" fill="#888888"/>
<path fill-rule="evenodd" clip-rule="evenodd" d="M80.392 226.215C80.5698 226.139 80.7754 226.221 80.8513 226.399L105.677 284.535C105.752 284.712 105.67 284.918 105.492 284.994C105.314 285.07 105.109 284.987 105.033 284.81L80.2076 226.674C80.1316 226.496 80.2142 226.291 80.392 226.215Z" fill="#888888"/>
<path fill-rule="evenodd" clip-rule="evenodd" d="M122.334 243.054C122.41 243.232 122.328 243.438 122.15 243.513L64.0142 268.339C63.8364 268.415 63.6307 268.332 63.5548 268.154C63.4789 267.976 63.5615 267.771 63.7393 267.695L121.875 242.87C122.053 242.794 122.258 242.876 122.334 243.054Z" fill="#888888"/>
<path fill-rule="evenodd" clip-rule="evenodd" d="M105.028 226.019C105.206 226.092 105.292 226.296 105.219 226.475L81.3147 284.996C81.2416 285.175 81.0372 285.26 80.8583 285.187C80.6793 285.114 80.5935 284.91 80.6666 284.731L104.571 226.211C104.644 226.032 104.849 225.946 105.028 226.019Z" fill="#888888"/>
<path fill-rule="evenodd" clip-rule="evenodd" d="M122.529 267.69C122.456 267.869 122.251 267.954 122.072 267.881L63.5523 243.977C63.3733 243.904 63.2875 243.699 63.3606 243.52C63.4337 243.341 63.638 243.256 63.817 243.329L122.337 267.233C122.516 267.306 122.602 267.511 122.529 267.69Z" fill="#888888"/>
<path fill-rule="evenodd" clip-rule="evenodd" d="M131.668 255.604C131.668 276.987 114.313 294.321 92.9044 294.321C71.4958 294.321 54.1406 276.987 54.1406 255.604C54.1406 234.222 71.4958 216.888 92.9044 216.888C114.313 216.888 131.668 234.222 131.668 255.604ZM124.765 255.604C124.765 273.179 110.501 287.426 92.9048 287.426C75.3091 287.426 61.0449 273.179 61.0449 255.604C61.0449 238.03 75.3091 223.783 92.9048 223.783C110.501 223.783 124.765 238.03 124.765 255.604Z" fill="url(#paint24_linear_1290_49164)"/>
<path fill-rule="evenodd" clip-rule="evenodd" d="M127.358 255.604C127.358 274.609 111.933 290.015 92.9056 290.015C73.878 290.015 58.4531 274.609 58.4531 255.604C58.4531 236.6 73.878 221.193 92.9056 221.193C111.933 221.193 127.358 236.6 127.358 255.604ZM124.766 255.604C124.766 273.179 110.502 287.426 92.9058 287.426C75.3101 287.426 61.0459 273.179 61.0459 255.604C61.0459 238.03 75.3101 223.783 92.9058 223.783C110.502 223.783 124.766 238.03 124.766 255.604Z" fill="url(#paint25_linear_1290_49164)"/>
<path d="M197.838 161.244C200.903 161.244 203.388 158.762 203.388 155.701C203.388 152.639 200.903 150.157 197.838 150.157C194.773 150.157 192.288 152.639 192.288 155.701C192.288 158.762 194.773 161.244 197.838 161.244Z" fill="url(#paint26_linear_1290_49164)"/>
<path fill-rule="evenodd" clip-rule="evenodd" d="M231.526 243.412L217.838 205.542H218.836C219.099 205.605 219.37 205.638 219.645 205.638H243.11L231.526 243.412ZM249.046 205.638L234.737 252.295L235.331 253.937C235.872 255.436 235.096 257.089 233.597 257.629C232.098 258.17 230.444 257.393 229.903 255.894L211.703 205.542H127.297L153.737 246.963C154.737 247.133 155.717 247.415 156.658 247.804C158.306 248.486 159.803 249.486 161.064 250.746C162.325 252.007 163.325 253.503 164.007 255.149C164.689 256.796 165.039 258.56 165.038 260.342C165.038 262.325 164.602 264.284 163.762 266.082C162.922 267.879 161.698 269.47 160.175 270.744C158.653 272.018 156.87 272.942 154.951 273.453C153.032 273.964 151.024 274.049 149.069 273.701L91.8598 263.516C89.9065 263.169 88.1377 262.147 86.8631 260.629C85.5886 259.11 84.8896 257.192 84.8887 255.211C84.8887 252.972 85.7789 250.826 87.3636 249.243C88.9482 247.66 91.0975 246.771 93.3385 246.771H95.04L119.678 204.149L99.3604 172.321L104.145 169.274L123.581 199.721H209.599L195.705 161.282C195.164 159.783 195.94 158.13 197.439 157.59C198.937 157.049 200.592 157.826 201.133 159.325L215.734 199.721H215.983L213.855 172.637C213.818 172.162 213.879 171.685 214.036 171.235C214.192 170.786 214.44 170.373 214.764 170.024C215.087 169.674 215.48 169.395 215.917 169.205C216.354 169.014 216.825 168.916 217.302 168.916H254.049C254.526 168.916 254.997 169.014 255.434 169.205C255.871 169.395 256.264 169.674 256.587 170.024C256.911 170.373 257.159 170.786 257.315 171.235C257.472 171.685 257.534 172.162 257.496 172.637L255.154 202.454C255.084 203.32 254.69 204.128 254.052 204.718C253.413 205.307 252.576 205.636 251.706 205.638H249.046ZM123.186 209.646L101.726 246.771H146.885L123.186 209.646Z" fill="url(#paint27_linear_1290_49164)"/>
<path d="M190.934 137.066C193.262 136.713 195.64 136.861 197.907 137.499C200.174 138.137 202.278 139.252 204.079 140.768C210.417 145.966 208.438 154.924 206.259 156.803C204.079 158.683 202.111 155.844 203.378 153.677C203.378 153.677 193.421 151.893 191.616 152.718C189.81 153.543 186.344 143.492 190.934 137.066Z" fill="#FFDDAF"/>
<path d="M120.627 166.768H94.5284C91.8079 166.768 89.6025 168.97 89.6025 171.688C89.6025 174.405 91.8079 176.607 94.5284 176.607H120.627C123.348 176.607 125.553 174.405 125.553 171.688C125.553 168.97 123.348 166.768 120.627 166.768Z" fill="url(#paint28_linear_1290_49164)"/>
<path d="M207.623 153.591C207.623 153.591 208.708 150.311 201.929 149.141" stroke="url(#paint29_linear_1290_49164)" stroke-width="0.63" stroke-linecap="round" stroke-linejoin="round"/>
<path d="M207.94 149.006C207.94 149.006 208.257 145.63 201.986 144.633" stroke="url(#paint30_linear_1290_49164)" stroke-width="0.63" stroke-linecap="round" stroke-linejoin="round"/>
<path d="M205.693 142.926C204.299 141.655 202.544 140.847 200.671 140.614" stroke="url(#paint31_linear_1290_49164)" stroke-width="0.63" stroke-linecap="round" stroke-linejoin="round"/>
<path d="M172.882 269.913H152.824C152.405 269.915 152.001 269.761 151.691 269.482L148.512 266.777C148.424 266.702 148.318 266.649 148.205 266.624C148.094 266.6 147.98 266.6 147.869 266.624C147.762 266.66 147.666 266.723 147.59 266.806C147.509 266.887 147.452 266.991 147.427 267.103L146.909 269.252C146.869 269.436 146.763 269.6 146.611 269.712C146.465 269.832 146.281 269.897 146.092 269.894H137.998C137.775 269.892 137.561 269.802 137.403 269.644C137.245 269.486 137.155 269.273 137.153 269.05C137.148 268.996 137.148 268.941 137.153 268.887L139.611 255.969H159.707L172.882 269.913Z" fill="url(#paint32_linear_1290_49164)"/>
<path d="M159.535 252.046H139.995V255.834H159.535V252.046Z" fill="white" stroke="url(#paint33_linear_1290_49164)" stroke-width="0.41" stroke-linejoin="round"/>
<path fill-rule="evenodd" clip-rule="evenodd" d="M156.324 255.834V252.046H156.734V255.834H156.324Z" fill="url(#paint34_linear_1290_49164)"/>
<path fill-rule="evenodd" clip-rule="evenodd" d="M153.002 255.834V252.046H153.412V255.834H153.002Z" fill="url(#paint35_linear_1290_49164)"/>
<path fill-rule="evenodd" clip-rule="evenodd" d="M149.67 255.834V252.046H150.08V255.834H149.67Z" fill="url(#paint36_linear_1290_49164)"/>
<path fill-rule="evenodd" clip-rule="evenodd" d="M146.348 255.834V252.046H146.758V255.834H146.348Z" fill="url(#paint37_linear_1290_49164)"/>
<path fill-rule="evenodd" clip-rule="evenodd" d="M143.016 255.834V252.046H143.426V255.834H143.016Z" fill="url(#paint38_linear_1290_49164)"/>
<path fill-rule="evenodd" clip-rule="evenodd" d="M127.904 134.415L99.9925 127.299L99.9553 127.289C98.4328 126.901 96.8183 127.133 95.467 127.934C94.1156 128.734 93.1381 130.039 92.7495 131.559L89.5219 144.188C88.2181 149.289 88.9967 154.699 91.6864 159.227C92.9594 161.371 94.6111 163.233 96.5394 164.739C96.5381 164.74 96.5369 164.742 96.5357 164.744C96.5484 164.751 96.561 164.758 96.5737 164.765C98.0861 165.941 99.7677 166.897 101.569 167.598C134.566 186.883 140.145 202.819 134.396 242.549C133.436 249.233 137.074 252.192 143.373 253.007C147.598 253.553 153.004 253.713 157.35 253.365C157.493 253.354 157.633 253.343 157.772 253.332C163.671 252.864 166.679 252.625 167.308 244.109C172.349 192.06 165.237 170.525 129.883 146.797L131.5 140.469C131.827 139.19 131.632 137.834 130.957 136.698C130.283 135.563 129.185 134.742 127.904 134.415Z" fill="url(#paint39_linear_1290_49164)"/>
<path d="M130.258 130.151L99.675 122.393L98.542 126.833L129.125 134.611L130.258 130.151Z" fill="#7BE7FF"/>
<path fill-rule="evenodd" clip-rule="evenodd" d="M99.3694 122.314C99.4124 122.146 99.5836 122.044 99.7521 122.087L130.335 129.846C130.416 129.866 130.485 129.918 130.528 129.99C130.571 130.062 130.583 130.148 130.563 130.228L129.43 134.688C129.409 134.769 129.357 134.839 129.285 134.881C129.214 134.924 129.128 134.936 129.047 134.916L98.4639 127.138C98.3829 127.117 98.3134 127.065 98.2707 126.993C98.228 126.922 98.2157 126.836 98.2363 126.755L99.3694 122.314ZM99.9021 122.775L98.9247 126.605L128.897 134.228L129.875 130.379L99.9021 122.775Z" fill="url(#paint40_linear_1290_49164)"/>
<path d="M114.964 73.7085L131.193 77.714C136.138 78.9343 140.395 82.0665 143.027 86.4215C145.659 90.7765 146.452 95.9976 145.23 100.936L139.916 122.415C139.314 124.848 137.77 126.941 135.622 128.236C133.475 129.531 130.9 129.921 128.465 129.32L102.774 122.979C100.339 122.378 98.2427 120.836 96.9463 118.691C95.6498 116.546 95.2595 113.975 95.8613 111.542L103.513 80.6132C104.115 78.1809 105.66 76.0871 107.807 74.7922C109.954 73.4973 112.529 73.1075 114.964 73.7085V73.7085Z" fill="url(#paint41_linear_1290_49164)"/>
<path d="M142.222 73.9607C138.66 75.7924 134.32 75.0636 130.7 72.4358H130.632C121.991 76.9337 112.216 74.8814 108.826 68.3406C105.436 61.7999 109.709 52.8424 118.361 48.3445C120.855 47.0318 123.576 46.202 126.379 45.8989C126.175 45.2812 126.113 44.6257 126.196 43.9808C126.274 43.3475 126.485 42.738 126.816 42.1924C127.147 41.6468 127.591 41.1777 128.117 40.8159C128.652 40.4627 129.258 40.2304 129.893 40.135C130.534 40.0294 131.19 40.0687 131.813 40.2501C132.433 40.4242 133.007 40.7319 133.494 41.1516C133.979 41.5688 134.369 42.0856 134.637 42.6669C134.899 43.2522 135.037 43.886 135.04 44.5274C135.037 45.2279 134.869 45.9178 134.55 46.5414C138.823 47.2224 143.106 50.4448 145.65 55.3743C149.366 62.759 147.859 71.0451 142.222 73.9607Z" fill="url(#paint42_linear_1290_49164)"/>
<path d="M119.244 74.8623L125.149 61.7041H136.096V83.5225L119.244 74.8623Z" fill="#FFDDAF"/>
<path d="M136.115 61.7041V70.0958C134.187 70.3508 132.232 69.9117 130.599 68.8572C128.966 67.8027 127.763 66.2018 127.204 64.3415L126.407 61.7137L136.115 61.7041Z" fill="#EFC080"/>
<path d="M140.513 54.3577V61.1862C140.513 62.2286 140.204 63.2478 139.625 64.1149C139.046 64.982 138.222 65.6582 137.258 66.0581C136.619 66.3242 135.934 66.4643 135.242 66.4705H132.649C131.261 66.4661 129.906 66.0448 128.76 65.2616C127.615 64.4783 126.732 63.3691 126.225 62.0781H123.786C122.89 62.0311 122.045 61.6424 121.427 60.992C120.809 60.3415 120.465 59.479 120.465 58.5823C120.465 57.6857 120.809 56.8232 121.427 56.1727C122.045 55.5223 122.89 55.1335 123.786 55.0866H124.113C124.689 55.0871 125.256 55.2393 125.755 55.5278V55.5278L134.752 48.5459C135.51 48.5491 136.259 48.7015 136.958 48.9944C137.656 49.2874 138.29 49.715 138.823 50.253C139.899 51.345 140.503 52.8158 140.504 54.3481L140.513 54.3577Z" fill="#FFDDAF"/>
<path fill-rule="evenodd" clip-rule="evenodd" d="M123.229 57.2634C123.229 57.1309 123.337 57.0234 123.469 57.0234C124.019 57.0234 124.547 57.2416 124.936 57.6301C125.325 58.0187 125.543 58.5457 125.543 59.0952C125.543 59.2278 125.436 59.3352 125.303 59.3352C125.171 59.3352 125.063 59.2278 125.063 59.0952C125.063 58.6731 124.896 58.2683 124.597 57.9698C124.298 57.6712 123.892 57.5034 123.469 57.5034C123.337 57.5034 123.229 57.396 123.229 57.2634Z" fill="url(#paint43_linear_1290_49164)"/>
<path fill-rule="evenodd" clip-rule="evenodd" d="M138.718 54.026C139.395 53.8931 140.094 53.9426 140.745 54.1694C140.87 54.213 140.936 54.3498 140.893 54.475C140.849 54.6002 140.712 54.6663 140.587 54.6227C140.017 54.4239 139.404 54.3805 138.811 54.497C138.225 54.6122 137.68 54.8796 137.23 55.2721C136.707 55.9291 136.38 56.7202 136.288 57.5545C136.194 58.3957 136.342 59.2461 136.714 60.0064C136.773 60.1254 136.723 60.2692 136.604 60.3275C136.485 60.3858 136.342 60.3365 136.283 60.2175C135.871 59.3753 135.707 58.4333 135.811 57.5015C135.914 56.5696 136.281 55.6866 136.869 54.9554L136.882 54.9394L136.897 54.9259C137.413 54.4696 138.042 54.159 138.718 54.026Z" fill="url(#paint44_linear_1290_49164)"/>
<path d="M132.485 58.453C132.831 58.453 133.109 58.0694 133.109 57.5995C133.109 57.1295 132.831 56.7363 132.485 56.7363C132.14 56.7363 131.852 57.1199 131.852 57.5995C131.852 58.079 132.14 58.453 132.485 58.453Z" fill="url(#paint45_linear_1290_49164)"/>
<path d="M138.333 58.453C138.679 58.453 138.967 58.0694 138.967 57.5995C138.967 57.1295 138.679 56.7363 138.333 56.7363C137.987 56.7363 137.709 57.1199 137.709 57.5995C137.709 58.079 137.987 58.453 138.333 58.453Z" fill="url(#paint46_linear_1290_49164)"/>
<path fill-rule="evenodd" clip-rule="evenodd" d="M133.562 54.3158C132.213 54.1047 130.834 54.4341 129.726 55.2325C129.618 55.31 129.468 55.2856 129.391 55.1781C129.314 55.0705 129.338 54.9205 129.445 54.8431C130.656 53.9708 132.162 53.6109 133.636 53.8416C133.767 53.8621 133.857 53.9849 133.837 54.1158C133.816 54.2468 133.693 54.3363 133.562 54.3158Z" fill="url(#paint47_linear_1290_49164)"/>
<path d="M189.852 133.507C190.937 133.68 192.637 133.881 192.637 135.099C192.584 139.607 192.815 144.114 193.328 148.593C193.866 153.503 193.328 154.971 192.915 155.978C191.59 159.498 186.952 160.6 183.313 159.565C120.64 141.554 121.945 143.622 105.209 107.354C100.454 97.0474 98.4584 86.3604 104.565 77.4605C108.186 72.6683 113.765 72.6173 116.521 76.6453C140.209 111.171 136.944 123.169 189.823 133.507" fill="url(#paint48_linear_1290_49164)"/>
<path fill-rule="evenodd" clip-rule="evenodd" d="M91.9984 84.6502H77.2598V83.9502H91.9984V84.6502Z" fill="url(#paint49_linear_1290_49164)"/>
<path fill-rule="evenodd" clip-rule="evenodd" d="M91.9971 94.4314H68.8711V93.7314H91.9971V94.4314Z" fill="url(#paint50_linear_1290_49164)"/>
<path fill-rule="evenodd" clip-rule="evenodd" d="M129.288 146.68C129.365 146.534 129.546 146.477 129.693 146.554C133.573 148.586 142.363 154.246 150.638 163.248C150.75 163.37 150.742 163.56 150.62 163.672C150.498 163.784 150.308 163.776 150.196 163.654C141.974 154.709 133.241 149.089 129.415 147.085C129.268 147.008 129.211 146.827 129.288 146.68Z" fill="url(#paint51_linear_1290_49164)"/>
<path d="M160.226 269.654H145.842C144.214 269.654 142.895 270.972 142.895 272.599V272.608C142.895 274.234 144.214 275.552 145.842 275.552H160.226C161.854 275.552 163.174 274.234 163.174 272.608V272.599C163.174 270.972 161.854 269.654 160.226 269.654Z" fill="url(#paint52_linear_1290_49164)"/>
<path fill-rule="evenodd" clip-rule="evenodd" d="M133.757 61.536C133.881 61.4674 134.037 61.512 134.105 61.6355C134.313 62.0093 135.156 62.7506 136.478 62.5056C136.617 62.4799 136.751 62.5716 136.777 62.7106C136.802 62.8496 136.711 62.9832 136.572 63.0089C135.013 63.2977 133.962 62.4318 133.658 61.884C133.589 61.7605 133.634 61.6046 133.757 61.536Z" fill="#4A4A4A"/>
</g>
<defs>
<filter id="filter0_f_1290_49164" x="41.4756" y="275.829" width="236.119" height="36.9844" filterUnits="userSpaceOnUse" color-interpolation-filters="sRGB">
<feFlood flood-opacity="0" result="BackgroundImageFix"/>
<feBlend mode="normal" in="SourceGraphic" in2="BackgroundImageFix" result="shape"/>
<feGaussianBlur stdDeviation="4" result="effect1_foregroundBlur_1290_49164"/>
</filter>
<linearGradient id="paint0_linear_1290_49164" x1="292.887" y1="1.54661e-07" x2="277.907" y2="249.158" gradientUnits="userSpaceOnUse">
<stop stop-color="#94D9FF"/>
<stop offset="0.326042" stop-color="#B2F1FF"/>
<stop offset="0.784375" stop-color="#E1FFF2"/>
<stop offset="1" stop-color="white"/>
</linearGradient>
<linearGradient id="paint1_linear_1290_49164" x1="140.963" y1="19.333" x2="140.963" y2="48.5259" gradientUnits="userSpaceOnUse">
<stop stop-color="white" stop-opacity="0.7"/>
<stop offset="1" stop-color="white" stop-opacity="0.4"/>
</linearGradient>
<linearGradient id="paint2_linear_1290_49164" x1="52.1214" y1="52.5947" x2="52.1214" y2="94.1934" gradientUnits="userSpaceOnUse">
<stop stop-color="white" stop-opacity="0.7"/>
<stop offset="1" stop-color="white" stop-opacity="0.4"/>
</linearGradient>
<linearGradient id="paint3_linear_1290_49164" x1="283.004" y1="55.915" x2="283.004" y2="109.584" gradientUnits="userSpaceOnUse">
<stop stop-color="white" stop-opacity="0.7"/>
<stop offset="1" stop-color="white" stop-opacity="0.4"/>
</linearGradient>
<linearGradient id="paint4_linear_1290_49164" x1="10.673" y1="197.871" x2="36.764" y2="213.515" gradientUnits="userSpaceOnUse">
<stop offset="0.140625" stop-color="#FFCAA4"/>
<stop offset="1" stop-color="#E48C71"/>
</linearGradient>
<linearGradient id="paint5_linear_1290_49164" x1="-6.55658" y1="40.0033" x2="80.707" y2="73.6042" gradientUnits="userSpaceOnUse">
<stop offset="0.09375" stop-color="#B8FFC3"/>
<stop offset="1" stop-color="#30E1CC"/>
</linearGradient>
<linearGradient id="paint6_linear_1290_49164" x1="308.561" y1="240" x2="285.099" y2="213.82" gradientUnits="userSpaceOnUse">
<stop stop-color="#B0F1FF"/>
<stop offset="1" stop-color="#7FB2FF"/>
</linearGradient>
<linearGradient id="paint7_linear_1290_49164" x1="297.102" y1="240.001" x2="265.722" y2="214.151" gradientUnits="userSpaceOnUse">
<stop stop-color="#B0F1FF"/>
<stop offset="1" stop-color="#7FB2FF"/>
</linearGradient>
<linearGradient id="paint8_linear_1290_49164" x1="285.642" y1="240" x2="257.194" y2="213.746" gradientUnits="userSpaceOnUse">
<stop stop-color="#B0F1FF"/>
<stop offset="1" stop-color="#7FB2FF"/>
</linearGradient>
<linearGradient id="paint9_linear_1290_49164" x1="274.181" y1="240" x2="254.404" y2="214.491" gradientUnits="userSpaceOnUse">
<stop stop-color="#B0F1FF"/>
<stop offset="1" stop-color="#7FB2FF"/>
</linearGradient>
<linearGradient id="paint10_linear_1290_49164" x1="51.853" y1="240.098" x2="26.8393" y2="198.844" gradientUnits="userSpaceOnUse">
<stop stop-color="#B0F1FF"/>
<stop offset="1" stop-color="#7FB2FF"/>
</linearGradient>
<linearGradient id="paint11_linear_1290_49164" x1="166.5" y1="240" x2="166.5" y2="320" gradientUnits="userSpaceOnUse">
<stop stop-color="#FFEFD0"/>
<stop offset="1" stop-color="#E99F88"/>
</linearGradient>
<linearGradient id="paint12_linear_1290_49164" x1="155.074" y1="87.8139" x2="155.074" y2="151.132" gradientUnits="userSpaceOnUse">
<stop stop-color="#9E9E9E"/>
<stop offset="1" stop-color="#404040"/>
</linearGradient>
<linearGradient id="paint13_linear_1290_49164" x1="226.7" y1="142.038" x2="262.219" y2="155.64" gradientUnits="userSpaceOnUse">
<stop offset="0.09375" stop-color="#8DF1A9"/>
<stop offset="1" stop-color="#3AD8C5"/>
</linearGradient>
<linearGradient id="paint14_linear_1290_49164" x1="184.643" y1="142.804" x2="190.285" y2="257.968" gradientUnits="userSpaceOnUse">
<stop offset="0.111458" stop-color="#7BE7FF"/>
<stop offset="1" stop-color="#6F7BEA"/>
</linearGradient>
<linearGradient id="paint15_linear_1290_49164" x1="143.295" y1="243.448" x2="135.919" y2="255.292" gradientUnits="userSpaceOnUse">
<stop stop-color="#888888"/>
<stop offset="1" stop-color="#4A4A4A"/>
</linearGradient>
<linearGradient id="paint16_linear_1290_49164" x1="138.433" y1="233.188" x2="138.433" y2="247.178" gradientUnits="userSpaceOnUse">
<stop stop-color="#888888"/>
<stop offset="1" stop-color="#4A4A4A"/>
</linearGradient>
<linearGradient id="paint17_linear_1290_49164" x1="1322.64" y1="798.656" x2="1322.64" y2="785.966" gradientUnits="userSpaceOnUse">
<stop stop-color="#888888"/>
<stop offset="1" stop-color="#4A4A4A"/>
</linearGradient>
<linearGradient id="paint18_linear_1290_49164" x1="1307.24" y1="796.903" x2="1307.24" y2="784.212" gradientUnits="userSpaceOnUse">
<stop stop-color="#888888"/>
<stop offset="1" stop-color="#4A4A4A"/>
</linearGradient>
<linearGradient id="paint19_linear_1290_49164" x1="1303.03" y1="795.127" x2="1303.03" y2="782.437" gradientUnits="userSpaceOnUse">
<stop stop-color="#888888"/>
<stop offset="1" stop-color="#4A4A4A"/>
</linearGradient>
<linearGradient id="paint20_linear_1290_49164" x1="1293.21" y1="791.711" x2="1293.21" y2="779.058" gradientUnits="userSpaceOnUse">
<stop stop-color="#888888"/>
<stop offset="1" stop-color="#4A4A4A"/>
</linearGradient>
<linearGradient id="paint21_linear_1290_49164" x1="133.004" y1="235" x2="133.004" y2="238.422" gradientUnits="userSpaceOnUse">
<stop stop-color="#888888"/>
<stop offset="1" stop-color="#4A4A4A"/>
</linearGradient>
<linearGradient id="paint22_linear_1290_49164" x1="232.646" y1="216.888" x2="232.646" y2="294.321" gradientUnits="userSpaceOnUse">
<stop stop-color="#888888"/>
<stop offset="1" stop-color="#4A4A4A"/>
</linearGradient>
<linearGradient id="paint23_linear_1290_49164" x1="211.423" y1="227.551" x2="264.125" y2="268.593" gradientUnits="userSpaceOnUse">
<stop offset="0.00520833" stop-color="#9FFFD1"/>
<stop offset="1" stop-color="#12CBB5"/>
</linearGradient>
<linearGradient id="paint24_linear_1290_49164" x1="92.9044" y1="216.888" x2="92.9044" y2="294.321" gradientUnits="userSpaceOnUse">
<stop stop-color="#888888"/>
<stop offset="1" stop-color="#4A4A4A"/>
</linearGradient>
<linearGradient id="paint25_linear_1290_49164" x1="71.6825" y1="227.551" x2="124.385" y2="268.593" gradientUnits="userSpaceOnUse">
<stop offset="0.00520833" stop-color="#9FFFD1"/>
<stop offset="1" stop-color="#12CBB5"/>
</linearGradient>
<linearGradient id="paint26_linear_1290_49164" x1="197.838" y1="150.157" x2="197.838" y2="161.244" gradientUnits="userSpaceOnUse">
<stop stop-color="#7E7E7E"/>
<stop offset="1" stop-color="#2C2C2C"/>
</linearGradient>
<linearGradient id="paint27_linear_1290_49164" x1="171.198" y1="162.539" x2="191.811" y2="273.911" gradientUnits="userSpaceOnUse">
<stop stop-color="#CFEBF1"/>
<stop offset="1" stop-color="#9AB3C0"/>
</linearGradient>
<linearGradient id="paint28_linear_1290_49164" x1="107.578" y1="166.768" x2="107.578" y2="176.607" gradientUnits="userSpaceOnUse">
<stop stop-color="#888888"/>
<stop offset="1" stop-color="#4A4A4A"/>
</linearGradient>
<linearGradient id="paint29_linear_1290_49164" x1="204.808" y1="149.141" x2="204.808" y2="153.591" gradientUnits="userSpaceOnUse">
<stop stop-color="#888888"/>
<stop offset="1" stop-color="#4A4A4A"/>
</linearGradient>
<linearGradient id="paint30_linear_1290_49164" x1="204.964" y1="144.633" x2="204.964" y2="149.006" gradientUnits="userSpaceOnUse">
<stop stop-color="#888888"/>
<stop offset="1" stop-color="#4A4A4A"/>
</linearGradient>
<linearGradient id="paint31_linear_1290_49164" x1="203.182" y1="140.614" x2="203.182" y2="142.926" gradientUnits="userSpaceOnUse">
<stop stop-color="#888888"/>
<stop offset="1" stop-color="#4A4A4A"/>
</linearGradient>
<linearGradient id="paint32_linear_1290_49164" x1="155.016" y1="255.969" x2="155.016" y2="269.913" gradientUnits="userSpaceOnUse">
<stop stop-color="#888888"/>
<stop offset="1" stop-color="#4A4A4A"/>
</linearGradient>
<linearGradient id="paint33_linear_1290_49164" x1="149.765" y1="252.046" x2="149.765" y2="255.834" gradientUnits="userSpaceOnUse">
<stop stop-color="#888888"/>
<stop offset="1" stop-color="#4A4A4A"/>
</linearGradient>
<linearGradient id="paint34_linear_1290_49164" x1="156.529" y1="252.046" x2="156.529" y2="255.834" gradientUnits="userSpaceOnUse">
<stop stop-color="#888888"/>
<stop offset="1" stop-color="#4A4A4A"/>
</linearGradient>
<linearGradient id="paint35_linear_1290_49164" x1="153.207" y1="252.046" x2="153.207" y2="255.834" gradientUnits="userSpaceOnUse">
<stop stop-color="#888888"/>
<stop offset="1" stop-color="#4A4A4A"/>
</linearGradient>
<linearGradient id="paint36_linear_1290_49164" x1="149.875" y1="252.046" x2="149.875" y2="255.834" gradientUnits="userSpaceOnUse">
<stop stop-color="#888888"/>
<stop offset="1" stop-color="#4A4A4A"/>
</linearGradient>
<linearGradient id="paint37_linear_1290_49164" x1="146.553" y1="252.046" x2="146.553" y2="255.834" gradientUnits="userSpaceOnUse">
<stop stop-color="#888888"/>
<stop offset="1" stop-color="#4A4A4A"/>
</linearGradient>
<linearGradient id="paint38_linear_1290_49164" x1="143.221" y1="252.046" x2="143.221" y2="255.834" gradientUnits="userSpaceOnUse">
<stop stop-color="#888888"/>
<stop offset="1" stop-color="#4A4A4A"/>
</linearGradient>
<linearGradient id="paint39_linear_1290_49164" x1="166.644" y1="127.105" x2="176.773" y2="274.628" gradientUnits="userSpaceOnUse">
<stop offset="0.111458" stop-color="#7BE7FF"/>
<stop offset="1" stop-color="#6F7BEA"/>
</linearGradient>
<linearGradient id="paint40_linear_1290_49164" x1="114.399" y1="122.077" x2="114.399" y2="134.925" gradientUnits="userSpaceOnUse">
<stop stop-color="#888888"/>
<stop offset="1" stop-color="#4A4A4A"/>
</linearGradient>
<linearGradient id="paint41_linear_1290_49164" x1="127.81" y1="76.8788" x2="115.648" y2="126.157" gradientUnits="userSpaceOnUse">
<stop stop-color="#888888"/>
<stop offset="1" stop-color="#4A4A4A"/>
</linearGradient>
<linearGradient id="paint42_linear_1290_49164" x1="127.674" y1="40.0771" x2="127.674" y2="74.976" gradientUnits="userSpaceOnUse">
<stop stop-color="#727272"/>
<stop offset="1" stop-color="#434343"/>
</linearGradient>
<linearGradient id="paint43_linear_1290_49164" x1="1083.01" y1="-651.417" x2="1083.01" y2="-647.919" gradientUnits="userSpaceOnUse">
<stop stop-color="#888888"/>
<stop offset="1" stop-color="#4A4A4A"/>
</linearGradient>
<linearGradient id="paint44_linear_1290_49164" x1="2634.3" y1="-2076.96" x2="2634.3" y2="-2040.44" gradientUnits="userSpaceOnUse">
<stop stop-color="#888888"/>
<stop offset="1" stop-color="#4A4A4A"/>
</linearGradient>
<linearGradient id="paint45_linear_1290_49164" x1="800.592" y1="-612.148" x2="800.592" y2="-609.075" gradientUnits="userSpaceOnUse">
<stop stop-color="#888888"/>
<stop offset="1" stop-color="#4A4A4A"/>
</linearGradient>
<linearGradient id="paint46_linear_1290_49164" x1="814.105" y1="-612.148" x2="814.105" y2="-609.075" gradientUnits="userSpaceOnUse">
<stop stop-color="#888888"/>
<stop offset="1" stop-color="#4A4A4A"/>
</linearGradient>
<linearGradient id="paint47_linear_1290_49164" x1="2259.69" y1="-373.158" x2="2259.69" y2="-372.062" gradientUnits="userSpaceOnUse">
<stop stop-color="#888888"/>
<stop offset="1" stop-color="#4A4A4A"/>
</linearGradient>
<linearGradient id="paint48_linear_1290_49164" x1="147.075" y1="74.0136" x2="147.075" y2="159.937" gradientUnits="userSpaceOnUse">
<stop stop-color="#A2A2A2"/>
<stop offset="1" stop-color="#575757"/>
</linearGradient>
<linearGradient id="paint49_linear_1290_49164" x1="84.6291" y1="83.9502" x2="84.6291" y2="84.6502" gradientUnits="userSpaceOnUse">
<stop stop-color="#888888"/>
<stop offset="1" stop-color="#4A4A4A"/>
</linearGradient>
<linearGradient id="paint50_linear_1290_49164" x1="80.4341" y1="93.7314" x2="80.4341" y2="94.4314" gradientUnits="userSpaceOnUse">
<stop stop-color="#888888"/>
<stop offset="1" stop-color="#4A4A4A"/>
</linearGradient>
<linearGradient id="paint51_linear_1290_49164" x1="139.985" y1="146.52" x2="139.985" y2="163.751" gradientUnits="userSpaceOnUse">
<stop stop-color="#888888"/>
<stop offset="1" stop-color="#4A4A4A"/>
</linearGradient>
<linearGradient id="paint52_linear_1290_49164" x1="153.034" y1="269.654" x2="153.034" y2="275.552" gradientUnits="userSpaceOnUse">
<stop stop-color="#888888"/>
<stop offset="1" stop-color="#4A4A4A"/>
</linearGradient>
<clipPath id="clip0_1290_49164">
<rect width="312" height="320" rx="10" fill="white"/>
</clipPath>
</defs>
</svg>
