<svg width="224" height="190" viewBox="0 0 224 190" fill="none" xmlns="http://www.w3.org/2000/svg">
<path fill-rule="evenodd" clip-rule="evenodd" d="M21.9337 170H202.066C208.562 153.033 210.139 134.557 206.588 116.704C202.867 97.9958 193.681 80.8117 180.194 67.3241C166.706 53.8366 149.522 44.6515 130.814 40.9303C124.59 39.6921 118.289 39.0773 112.003 39.0771C112.001 39.0771 111.999 39.0771 111.997 39.0771C99.3942 39.0775 86.8501 41.5485 75.0933 46.4183C57.471 53.7177 42.409 66.0788 31.8119 81.9385C21.3276 97.6293 15.6796 116.047 15.5605 134.909V136.128C15.6343 147.819 17.83 159.282 21.9337 170Z" fill="url(#paint0_linear_1439_27550)"/>
<path d="M120.128 35.4707C120.128 35.4707 134.44 37.5884 141.887 30.0785C149.334 22.5686 147.096 8.27498 147.096 8.27498C147.096 8.27498 132.784 6.15731 125.337 13.6672C117.89 21.1771 120.128 35.4707 120.128 35.4707Z" fill="url(#paint1_linear_1439_27550)"/>
<path d="M133.551 22.1929L116.441 39.4472" stroke="#333333" stroke-width="0.8"/>
<path d="M126.874 29.0481L134.792 28.1109" stroke="#333333" stroke-width="0.8"/>
<path d="M112 140.446C115.961 140.446 119.164 138.046 119.164 135.073C119.164 132.099 115.961 129.711 112 129.711C108.039 129.711 104.836 132.11 104.836 135.073C104.836 138.035 108.051 140.446 112 140.446Z" fill="url(#paint2_linear_1439_27550)"/>
<path d="M92.251 129.16V135.853" stroke="#333333" stroke-width="3.6" stroke-miterlimit="10"/>
<path d="M131.749 129.16V135.853" stroke="#333333" stroke-width="3.6" stroke-miterlimit="10"/>
<path d="M135.938 146.668V150.342H88.0508V146.668" stroke="#333333" stroke-width="2.3" stroke-miterlimit="10"/>
<path fill-rule="evenodd" clip-rule="evenodd" d="M153.28 48.358C146.162 44.9868 138.621 42.4826 130.814 40.9298C112.106 37.2086 92.7153 39.1184 75.093 46.4178C57.4707 53.7172 42.4086 66.0784 31.8116 81.938C26.4132 90.0173 22.297 98.8196 19.5576 108.033C24.349 119.313 40.7424 122.407 60.9358 100.259C71.2119 88.9971 89.6504 82.7184 110.279 87.0262C142.52 93.7596 157.258 68.4823 153.28 48.358Z" fill="url(#paint3_linear_1439_27550)"/>
<ellipse cx="199.271" cy="170" rx="24" ry="19.9997" fill="url(#paint4_linear_1439_27550)"/>
<ellipse cx="24.7285" cy="170" rx="24" ry="19.9997" fill="url(#paint5_linear_1439_27550)"/>
<defs>
<linearGradient id="paint0_linear_1439_27550" x1="65.0413" y1="60.9854" x2="97.7713" y2="207.074" gradientUnits="userSpaceOnUse">
<stop stop-color="#84E2FF"/>
<stop offset="0.438806" stop-color="#63D0FF"/>
<stop offset="1" stop-color="#2990FF"/>
</linearGradient>
<linearGradient id="paint1_linear_1439_27550" x1="139.508" y1="5.73239" x2="148.323" y2="30.0697" gradientUnits="userSpaceOnUse">
<stop offset="0.09375" stop-color="#8DF1A9"/>
<stop offset="1" stop-color="#3AD8C5"/>
</linearGradient>
<linearGradient id="paint2_linear_1439_27550" x1="107.587" y1="130.703" x2="116.06" y2="139.499" gradientUnits="userSpaceOnUse">
<stop offset="0.00520833" stop-color="#9FFFD1"/>
<stop offset="1" stop-color="#12CBB5"/>
</linearGradient>
<linearGradient id="paint3_linear_1439_27550" x1="53.5116" y1="51.7523" x2="93.2134" y2="114.126" gradientUnits="userSpaceOnUse">
<stop offset="0.00520833" stop-color="#9FFFD1"/>
<stop offset="1" stop-color="#12CBB5"/>
</linearGradient>
<linearGradient id="paint4_linear_1439_27550" x1="183.149" y1="145.904" x2="206.427" y2="193.712" gradientUnits="userSpaceOnUse">
<stop offset="0.161458" stop-color="#74DEFF"/>
<stop offset="1" stop-color="#4496EF"/>
</linearGradient>
<linearGradient id="paint5_linear_1439_27550" x1="12.218" y1="151.971" x2="29.6738" y2="195.483" gradientUnits="userSpaceOnUse">
<stop offset="0.0364583" stop-color="#9EEEFF"/>
<stop offset="1" stop-color="#2998E9"/>
</linearGradient>
</defs>
</svg>
