<svg width="248" height="248" viewBox="0 0 248 248" fill="none" xmlns="http://www.w3.org/2000/svg">
<g clip-path="url(#clip0_1283_13590)">
<rect width="248" height="248" fill="white"/>
<path d="M166.786 117.848C166.786 117.848 178.467 119.627 184.575 113.519C190.682 107.412 188.904 95.7308 188.904 95.7308C188.904 95.7308 177.223 93.9521 171.115 100.06C165.008 106.167 166.786 117.848 166.786 117.848Z" fill="url(#paint0_linear_1283_13590)"/>
<path d="M163.518 121.048L177.574 106.992" stroke="#333333" stroke-width="0.488551"/>
<path d="M171.58 112.842L178.532 111.66" stroke="#333333" stroke-width="0.488551"/>
<path d="M129.009 133.782H119.07V181.052H129.009V133.782Z" fill="url(#paint1_linear_1283_13590)"/>
<path d="M124.04 81.9913C134.071 81.9913 142.203 75.7565 142.203 68.0655C142.203 60.3744 134.071 54.1396 124.04 54.1396C114.009 54.1396 105.877 60.3744 105.877 68.0655C105.877 75.7565 114.009 81.9913 124.04 81.9913Z" fill="url(#paint2_linear_1283_13590)"/>
<path d="M124.039 135.44C144.038 135.44 160.251 121.61 160.251 104.55C160.251 87.4901 144.038 73.6602 124.039 73.6602C104.04 73.6602 87.8276 87.4901 87.8276 104.55C87.8276 121.61 104.04 135.44 124.039 135.44Z" fill="url(#paint3_linear_1283_13590)"/>
<path d="M100.618 158.873C113.532 158.873 124 149.019 124 136.865C124 124.711 113.532 114.857 100.618 114.857C87.7048 114.857 77.2363 124.711 77.2363 136.865C77.2363 149.019 87.7048 158.873 100.618 158.873Z" fill="url(#paint4_linear_1283_13590)"/>
<path d="M147.381 158.873C160.295 158.873 170.763 149.019 170.763 136.865C170.763 124.711 160.295 114.857 147.381 114.857C134.468 114.857 124 124.711 124 136.865C124 149.019 134.468 158.873 147.381 158.873Z" fill="url(#paint5_linear_1283_13590)"/>
<path fill-rule="evenodd" clip-rule="evenodd" d="M117.757 104.425H130.323L130.51 104.722L129.971 105.061C130.51 104.722 130.509 104.722 130.51 104.722L130.511 104.724L130.513 104.728L130.52 104.739L130.544 104.778C130.563 104.811 130.591 104.858 130.625 104.918C130.693 105.039 130.787 105.212 130.894 105.432C131.109 105.87 131.381 106.496 131.614 107.251C132.076 108.754 132.396 110.818 131.735 112.946C130.59 116.621 126.966 118.351 124.04 118.351C121.114 118.351 117.49 116.621 116.345 112.947C115.684 110.819 116.003 108.754 116.466 107.251C116.698 106.496 116.971 105.87 117.186 105.432C117.293 105.212 117.387 105.039 117.455 104.918C117.489 104.858 117.516 104.811 117.536 104.778L117.56 104.739L117.567 104.728L117.569 104.724L117.57 104.723C117.57 104.723 117.57 104.722 118.108 105.061L117.57 104.723L117.757 104.425ZM118.478 105.697C118.434 105.779 118.383 105.878 118.327 105.992C118.135 106.383 117.89 106.946 117.681 107.625C117.261 108.99 117.002 110.774 117.559 112.569C118.497 115.576 121.514 117.079 124.04 117.079C126.565 117.079 129.583 115.576 130.521 112.569C131.078 110.774 130.819 108.99 130.398 107.625C130.19 106.946 129.944 106.383 129.752 105.992C129.697 105.878 129.646 105.779 129.601 105.697H118.478Z" fill="#333333"/>
<path fill-rule="evenodd" clip-rule="evenodd" d="M116.323 98.6582L118.551 100.694L117.693 101.632L116.323 100.381L114.952 101.632L114.095 100.694L116.323 98.6582Z" fill="#333333"/>
<path fill-rule="evenodd" clip-rule="evenodd" d="M131.756 98.6582L133.984 100.694L133.126 101.632L131.756 100.381L130.386 101.632L129.528 100.694L131.756 98.6582Z" fill="#333333"/>
<path d="M124.04 103.045C125.753 103.045 127.141 102.005 127.141 100.722C127.141 99.4385 125.753 98.3984 124.04 98.3984C122.328 98.3984 120.94 99.4385 120.94 100.722C120.94 102.005 122.328 103.045 124.04 103.045Z" fill="url(#paint6_linear_1283_13590)"/>
<circle cx="123.991" cy="24.5868" r="20.7645" fill="url(#paint7_linear_1283_13590)"/>
<mask id="mask0_1283_13590" style="mask-type:alpha" maskUnits="userSpaceOnUse" x="103" y="3" width="42" height="43">
<circle cx="123.991" cy="24.5868" r="20.7645" fill="white"/>
</mask>
<g mask="url(#mask0_1283_13590)">
<circle cx="123.99" cy="24.5865" r="16.2223" fill="url(#paint8_linear_1283_13590)" stroke="white" stroke-opacity="0.793105" stroke-width="0.90025"/>
</g>
<g filter="url(#filter0_d_1283_13590)">
<path fill-rule="evenodd" clip-rule="evenodd" d="M129.212 16.1514C128.155 16.1514 127.295 17.0083 127.295 18.0615V25.3827L121.104 17.2798C120.665 16.7165 120.123 16.1955 119.147 16.1955H118.791C117.704 16.1955 116.853 17.0444 116.853 18.1281V30.463C116.853 31.5165 117.712 32.3736 118.769 32.3736C119.826 32.3736 120.686 31.5165 120.686 30.463V22.8312L127.121 31.2452C127.56 31.808 128.102 32.3291 129.078 32.3291H129.189C130.277 32.3291 131.128 31.4804 131.128 30.3967V18.0615C131.128 17.0083 130.268 16.1514 129.212 16.1514" fill="white"/>
</g>
<path opacity="0.550409" fill-rule="evenodd" clip-rule="evenodd" d="M159.508 17.876C158.268 16.4742 157.394 14.9391 156.986 13.6045C156.578 14.9409 155.704 16.4784 154.465 17.882C153.231 19.28 151.879 20.2688 150.702 20.7334C151.879 21.1972 153.23 22.1849 154.465 23.5835C155.704 24.987 156.578 26.5243 156.986 27.861C157.394 26.5264 158.268 24.9912 159.508 23.5892C160.751 22.1825 162.114 21.1917 163.297 20.7326C162.114 20.2735 160.751 19.2826 159.508 17.876Z" fill="#FFE000"/>
<path opacity="0.348331" fill-rule="evenodd" clip-rule="evenodd" d="M103.085 2.82517C102.24 1.89807 101.644 0.882702 101.366 0C101.087 0.883916 100.491 1.90084 99.6464 2.82915C98.8048 3.75382 97.8831 4.40779 97.0806 4.71508C97.8829 5.02186 98.8046 5.67513 99.6464 6.60015C100.491 7.52846 101.087 8.54521 101.366 9.4293C101.644 8.5466 102.24 7.53123 103.085 6.60396C103.933 5.67357 104.862 5.01822 105.669 4.71456C104.862 4.41091 103.933 3.75556 103.085 2.82517Z" fill="#FFE000"/>
<path d="M124 436.228C149.778 436.228 174.976 428.493 196.409 414C217.842 399.507 234.547 378.908 244.412 354.808C254.276 330.707 256.857 304.188 251.829 278.603C246.8 253.018 234.387 229.516 216.159 211.07C197.932 192.625 174.709 180.063 149.427 174.974C124.145 169.885 97.9392 172.497 74.124 182.479C50.3088 192.462 29.9536 209.367 15.6325 231.057C1.31136 252.747 -6.33252 278.248 -6.33252 304.334C-6.33252 339.314 7.39892 372.862 31.841 397.597C56.2832 422.332 89.4338 436.228 124 436.228Z" fill="url(#paint9_linear_1283_13590)"/>
<path fill-rule="evenodd" clip-rule="evenodd" d="M152.82 175.704C151.694 175.446 150.563 175.202 149.429 174.974C124.146 169.885 97.9409 172.497 74.1257 182.479C50.3106 192.462 29.9554 209.367 15.6342 231.057C15.0539 231.936 14.4846 232.821 13.9263 233.713C20.59 240.01 33.6507 236.186 42.2694 230.838C46.6365 228.129 50.7148 224.873 54.848 221.573C66.3727 212.373 78.3244 202.832 98.1553 203.838C123.085 205.103 145.596 199.078 152.82 175.704Z" fill="url(#paint10_linear_1283_13590)"/>
<path d="M124 223.119C128.004 223.119 131.242 220.664 131.242 217.622C131.242 214.58 128.004 212.137 124 212.137C119.996 212.137 116.758 214.591 116.758 217.622C116.758 220.652 120.008 223.119 124 223.119Z" fill="url(#paint11_linear_1283_13590)"/>
<path d="M103.638 214.778V219.457" stroke="#333333" stroke-width="3" stroke-miterlimit="10"/>
<path d="M144.362 214.778V219.457" stroke="#333333" stroke-width="3" stroke-miterlimit="10"/>
<path d="M149.027 229.013V233.211H98.9736V229.013" stroke="#333333" stroke-width="1.8" stroke-miterlimit="10"/>
<path d="M196.635 134.424H235.765" stroke="#AEE6FF" stroke-width="1.2"/>
<path d="M216.199 114.858L216.199 153.988" stroke="#AEE6FF" stroke-width="1.2"/>
<path d="M207.223 125.444L225.18 143.402" stroke="#AEE6FF" stroke-width="1.2"/>
<path d="M225.177 125.444L207.22 143.402" stroke="#AEE6FF" stroke-width="1.2"/>
<path d="M37.1621 165.225H64.8142" stroke="#AEE6FF" stroke-width="1.2"/>
<path d="M50.9873 151.399L50.9873 179.051" stroke="#AEE6FF" stroke-width="1.2"/>
<path d="M44.6445 158.881L57.3346 171.571" stroke="#AEE6FF" stroke-width="1.2"/>
<path d="M57.3315 158.881L44.6414 171.571" stroke="#AEE6FF" stroke-width="1.2"/>
<path d="M79.6265 34.373H98.1099" stroke="#FFE55E"/>
<path d="M88.8682 25.1318L88.8682 43.6152" stroke="#FFE55E"/>
<path d="M84.6279 30.1318L93.1103 38.6143" stroke="#FFE55E"/>
<path d="M93.1089 30.1318L84.6265 38.6143" stroke="#FFE55E"/>
<path d="M209.142 26.8827C208.9 24.8788 209.067 22.9907 209.527 21.573C208.337 22.4744 206.608 23.2544 204.635 23.6868C202.67 24.1173 200.853 24.1178 199.515 23.7741C200.279 24.9238 200.877 26.6395 201.116 28.6375C201.355 30.6426 201.187 32.5325 200.726 33.9522C201.914 33.0522 203.643 32.2743 205.615 31.8437C207.594 31.4116 209.422 31.4165 210.762 31.7687C209.989 30.6192 209.384 28.8936 209.142 26.8827" stroke="#A0A0A0"/>
<path d="M196.505 39.5193L165.444 79.6085" stroke="#A0A0A0" stroke-width="0.8"/>
<path d="M49.3833 52.5557L83.9571 83.1283" stroke="#A0A0A0" stroke-dasharray="2 2"/>
<circle cx="41.4001" cy="45.7466" r="4.42493" transform="rotate(4.78655 41.4001 45.7466)" stroke="#A0A0A0"/>
<circle cx="49.5461" cy="86.1887" r="3.74276" transform="rotate(-68.2298 49.5461 86.1887)" fill="#C5C5C5"/>
<path d="M56.5766 88.9956L76.9284 97.3913" stroke="#A0A0A0" stroke-width="0.8"/>
</g>
<defs>
<filter id="filter0_d_1283_13590" x="114.257" y="13.5558" width="19.4665" height="21.4138" filterUnits="userSpaceOnUse" color-interpolation-filters="sRGB">
<feFlood flood-opacity="0" result="BackgroundImageFix"/>
<feColorMatrix in="SourceAlpha" type="matrix" values="0 0 0 0 0 0 0 0 0 0 0 0 0 0 0 0 0 0 127 0" result="hardAlpha"/>
<feOffset/>
<feGaussianBlur stdDeviation="1.29778"/>
<feColorMatrix type="matrix" values="0 0 0 0 0.791667 0 0 0 0 0.3325 0 0 0 0 0 0 0 0 0.3 0"/>
<feBlend mode="normal" in2="BackgroundImageFix" result="effect1_dropShadow_1283_13590"/>
<feBlend mode="normal" in="SourceGraphic" in2="effect1_dropShadow_1283_13590" result="shape"/>
</filter>
<linearGradient id="paint0_linear_1283_13590" x1="182.715" y1="93.6282" x2="189.831" y2="113.534" gradientUnits="userSpaceOnUse">
<stop offset="0.09375" stop-color="#8DF1A9"/>
<stop offset="1" stop-color="#3AD8C5"/>
</linearGradient>
<linearGradient id="paint1_linear_1283_13590" x1="118.188" y1="143.67" x2="142.055" y2="161.06" gradientUnits="userSpaceOnUse">
<stop offset="0.140625" stop-color="#FBBD90"/>
<stop offset="1" stop-color="#DE7756"/>
</linearGradient>
<linearGradient id="paint2_linear_1283_13590" x1="112.852" y1="56.7124" x2="134.848" y2="79.0267" gradientUnits="userSpaceOnUse">
<stop offset="0.09375" stop-color="#94FDAB"/>
<stop offset="1" stop-color="#09C497"/>
</linearGradient>
<linearGradient id="paint3_linear_1283_13590" x1="101.733" y1="79.367" x2="150.322" y2="123.672" gradientUnits="userSpaceOnUse">
<stop offset="0.09375" stop-color="#94FDAB"/>
<stop offset="1" stop-color="#09C497"/>
</linearGradient>
<linearGradient id="paint4_linear_1283_13590" x1="86.2148" y1="118.923" x2="120.357" y2="147.138" gradientUnits="userSpaceOnUse">
<stop offset="0.09375" stop-color="#94FDAB"/>
<stop offset="1" stop-color="#09C497"/>
</linearGradient>
<linearGradient id="paint5_linear_1283_13590" x1="132.978" y1="118.923" x2="167.12" y2="147.138" gradientUnits="userSpaceOnUse">
<stop offset="0.09375" stop-color="#94FDAB"/>
<stop offset="1" stop-color="#09C497"/>
</linearGradient>
<linearGradient id="paint6_linear_1283_13590" x1="120.39" y1="99.3703" x2="121.408" y2="104.079" gradientUnits="userSpaceOnUse">
<stop offset="0.140625" stop-color="#FBBD90"/>
<stop offset="1" stop-color="#DE7756"/>
</linearGradient>
<linearGradient id="paint7_linear_1283_13590" x1="103.226" y1="3.82227" x2="103.226" y2="45.3513" gradientUnits="userSpaceOnUse">
<stop stop-color="#FFED69"/>
<stop offset="1" stop-color="#FFD623"/>
</linearGradient>
<linearGradient id="paint8_linear_1283_13590" x1="107.768" y1="8.36426" x2="107.768" y2="40.8088" gradientUnits="userSpaceOnUse">
<stop stop-color="#FFF852"/>
<stop offset="1" stop-color="#FFE921"/>
</linearGradient>
<linearGradient id="paint9_linear_1283_13590" x1="56.0612" y1="185.436" x2="178.23" y2="341.023" gradientUnits="userSpaceOnUse">
<stop offset="0.286458" stop-color="#74DEFF"/>
<stop offset="1" stop-color="#2990FF"/>
</linearGradient>
<linearGradient id="paint10_linear_1283_13590" x1="64.584" y1="188.348" x2="88.8856" y2="240.602" gradientUnits="userSpaceOnUse">
<stop offset="0.00520833" stop-color="#9FFFD1"/>
<stop offset="1" stop-color="#12CBB5"/>
</linearGradient>
<linearGradient id="paint11_linear_1283_13590" x1="119.539" y1="213.151" x2="128.21" y2="222.047" gradientUnits="userSpaceOnUse">
<stop offset="0.00520833" stop-color="#9FFFD1"/>
<stop offset="1" stop-color="#12CBB5"/>
</linearGradient>
<clipPath id="clip0_1283_13590">
<rect width="248" height="248" fill="white"/>
</clipPath>
</defs>
</svg>
