<svg width="81" height="110" viewBox="0 0 81 110" fill="none" xmlns="http://www.w3.org/2000/svg">
<path d="M44.833 68.8867H36.2363V109.773H44.833V68.8867Z" fill="url(#paint0_linear_740_28107)"/>
<path d="M40.5351 24.0904C49.2114 24.0904 56.2449 18.6976 56.2449 12.0452C56.2449 5.39282 49.2114 0 40.5351 0C31.8587 0 24.8252 5.39282 24.8252 12.0452C24.8252 18.6976 31.8587 24.0904 40.5351 24.0904Z" fill="url(#paint1_linear_740_28107)"/>
<path d="M40.5344 70.3214C57.8327 70.3214 71.8558 58.3591 71.8558 43.6028C71.8558 28.8466 57.8327 16.8843 40.5344 16.8843C23.236 16.8843 9.21289 28.8466 9.21289 43.6028C9.21289 58.3591 23.236 70.3214 40.5344 70.3214Z" fill="url(#paint2_linear_740_28107)"/>
<path d="M20.2761 90.5897C31.4457 90.5897 40.5005 82.0672 40.5005 71.5541C40.5005 61.0411 31.4457 52.5186 20.2761 52.5186C9.10651 52.5186 0.0517578 61.0411 0.0517578 71.5541C0.0517578 82.0672 9.10651 90.5897 20.2761 90.5897Z" fill="url(#paint3_linear_740_28107)"/>
<path d="M60.7244 90.5897C71.894 90.5897 80.9487 82.0672 80.9487 71.5541C80.9487 61.0411 71.894 52.5186 60.7244 52.5186C49.5548 52.5186 40.5 61.0411 40.5 71.5541C40.5 82.0672 49.5548 90.5897 60.7244 90.5897Z" fill="url(#paint4_linear_740_28107)"/>
<path fill-rule="evenodd" clip-rule="evenodd" d="M35.1006 43.4939H45.9691L46.1309 43.751L45.6654 44.0439C46.1309 43.751 46.1308 43.7509 46.1309 43.751L46.1321 43.7529L46.134 43.756L46.14 43.7657L46.1603 43.7993C46.1773 43.8277 46.2012 43.8684 46.2306 43.9206C46.2893 44.0248 46.3704 44.1749 46.4636 44.3648C46.6495 44.7441 46.885 45.2852 47.0861 45.9384C47.4861 47.2381 47.7622 49.0236 47.191 50.8643C46.2002 54.0426 43.0655 55.5393 40.5349 55.5393C38.0043 55.5393 34.8698 54.0433 33.8789 50.8649C33.3077 49.0242 33.5836 47.2381 33.9837 45.9384C34.1847 45.2852 34.4202 44.7441 34.6062 44.3648C34.6993 44.1749 34.7804 44.0248 34.8392 43.9206C34.8686 43.8684 34.8924 43.8277 34.9095 43.7993L34.9297 43.7657L34.9357 43.756L34.9377 43.7529L34.9383 43.7518C34.9385 43.7517 34.9388 43.751 35.4044 44.0439L34.9383 43.7518L35.1006 43.4939ZM35.7244 44.5939C35.6861 44.6655 35.642 44.7509 35.5938 44.8491C35.4277 45.1879 35.2157 45.6749 35.035 46.262C34.6716 47.4426 34.4476 48.9856 34.9292 50.5379C35.7403 53.1391 38.3504 54.4393 40.5349 54.4393C42.7193 54.4393 45.3295 53.1391 46.1405 50.5379C46.6222 48.9856 46.3981 47.4426 46.0347 46.262C45.8541 45.6749 45.6421 45.1879 45.4759 44.8491C45.4278 44.7509 45.3836 44.6655 45.3454 44.5939H35.7244Z" fill="#333333"/>
<path fill-rule="evenodd" clip-rule="evenodd" d="M33.8597 38.5061L35.7868 40.2666L35.0448 41.0787L33.8597 39.996L32.6745 41.0787L31.9326 40.2666L33.8597 38.5061Z" fill="#333333"/>
<path fill-rule="evenodd" clip-rule="evenodd" d="M47.2093 38.5061L49.1364 40.2666L48.3944 41.0787L47.2093 39.996L46.0241 41.0787L45.2822 40.2666L47.2093 38.5061Z" fill="#333333"/>
<path d="M40.5353 42.2998C42.0163 42.2998 43.217 41.4001 43.217 40.2904C43.217 39.1806 42.0163 38.281 40.5353 38.281C39.0542 38.281 37.8535 39.1806 37.8535 40.2904C37.8535 41.4001 39.0542 42.2998 40.5353 42.2998Z" fill="url(#paint5_linear_740_28107)"/>
<defs>
<linearGradient id="paint0_linear_740_28107" x1="35.4734" y1="77.4391" x2="56.1168" y2="92.4805" gradientUnits="userSpaceOnUse">
<stop offset="0.140625" stop-color="#FBBD90"/>
<stop offset="1" stop-color="#DE7756"/>
</linearGradient>
<linearGradient id="paint1_linear_740_28107" x1="30.8576" y1="2.22532" x2="49.8834" y2="21.5261" gradientUnits="userSpaceOnUse">
<stop offset="0.09375" stop-color="#94FDAB"/>
<stop offset="1" stop-color="#09C497"/>
</linearGradient>
<linearGradient id="paint2_linear_740_28107" x1="21.24" y1="21.8205" x2="63.2678" y2="60.1419" gradientUnits="userSpaceOnUse">
<stop offset="0.09375" stop-color="#94FDAB"/>
<stop offset="1" stop-color="#09C497"/>
</linearGradient>
<linearGradient id="paint3_linear_740_28107" x1="7.81771" y1="56.0353" x2="37.3494" y2="80.4401" gradientUnits="userSpaceOnUse">
<stop offset="0.09375" stop-color="#94FDAB"/>
<stop offset="1" stop-color="#09C497"/>
</linearGradient>
<linearGradient id="paint4_linear_740_28107" x1="48.266" y1="56.0353" x2="77.7977" y2="80.4401" gradientUnits="userSpaceOnUse">
<stop offset="0.09375" stop-color="#94FDAB"/>
<stop offset="1" stop-color="#09C497"/>
</linearGradient>
<linearGradient id="paint5_linear_740_28107" x1="37.3775" y1="39.1216" x2="38.2581" y2="43.1945" gradientUnits="userSpaceOnUse">
<stop offset="0.140625" stop-color="#FBBD90"/>
<stop offset="1" stop-color="#DE7756"/>
</linearGradient>
</defs>
</svg>
