<svg width="51" height="75" viewBox="0 0 51 75" fill="none" xmlns="http://www.w3.org/2000/svg">
<path d="M32.6342 10.6274L32.2074 9.55686L26.1211 11.7963L26.1099 6.55151L24.9221 6.55237L24.9378 14.8073L19.9192 11.5396L19.2519 12.4872L24.943 16.1905L24.9474 19.6074L26.1403 19.6049L26.1223 13.0214L32.6342 10.6274Z" fill="url(#paint0_linear_1290_52363)"/>
<path d="M25.498 17.5952C32.0364 17.5952 38.3128 20.1088 42.9377 24.5556C47.5626 29.0024 50.1631 35.0342 50.1674 41.325V74.2497H0.833984L0.833984 41.325C0.833984 35.0315 3.4325 28.9957 8.0579 24.5455C12.6833 20.0953 18.9567 17.5952 25.498 17.5952Z" fill="url(#paint1_linear_1290_52363)"/>
<path fill-rule="evenodd" clip-rule="evenodd" d="M19.5566 38.6379L20.5844 38.0239L21.3965 39.2822H29.6253L30.4157 38.029L31.45 38.6328L30.3063 40.4462H20.7236L19.5566 38.6379Z" fill="#333333"/>
<path fill-rule="evenodd" clip-rule="evenodd" d="M20.6027 35.0021H18.1377V33.6482H20.6027V35.0021Z" fill="#333333"/>
<path fill-rule="evenodd" clip-rule="evenodd" d="M32.8644 35.0021H30.3994V33.6482H32.8644V35.0021Z" fill="#333333"/>
<path d="M29.8282 4.8879L26.9512 4.89301L28.9805 2.92633L28.1388 2.12238L26.1077 4.08413L26.1007 1.31109L24.9095 1.31854L24.9148 4.08665L22.8758 2.13254L22.0351 2.94401L24.0741 4.89813L21.197 4.90324L21.1996 6.05099L24.0767 6.04588L22.0457 8.00762L22.8891 8.8165L24.9184 6.84982L24.9254 9.62286L26.1184 9.62034L26.1113 6.8473L28.1503 8.80141L28.991 7.98994L26.9521 6.03583L29.8291 6.03071L29.8282 4.8879Z" fill="url(#paint2_linear_1290_52363)"/>
<path d="M20.219 9.80697L19.0919 10.0135L19.732 9.10223L18.7471 8.46016L18.107 9.37139L17.8873 8.28862L16.7191 8.50842L16.9337 9.59285L15.9849 8.97206L15.3176 9.91961L16.2664 10.5404L15.1444 10.7452L15.3677 11.8708L16.4948 11.6643L15.8496 12.5772L16.8345 13.2193L17.4797 12.3064L17.6943 13.3908L18.8693 13.1743L18.6496 12.0915L19.5967 12.7074L20.264 11.7598L19.3152 11.139L20.4423 10.9325L20.219 9.80697Z" fill="url(#paint3_linear_1290_52363)"/>
<path d="M35.6782 9.50734L35.2532 8.44176L34.1849 8.83247L34.6484 7.82471L33.5649 7.35754L33.0964 8.36696L32.6885 7.33425L31.5759 7.74488L31.982 8.77265L30.9345 8.32676L30.449 9.36918L31.4981 9.82001L30.4248 10.2124L30.8516 11.2829L31.9249 10.8905L31.4546 11.895L32.5449 12.3655L33.0084 11.3577L33.4213 12.3887L34.534 11.9781L34.121 10.9471L35.1702 11.3979L35.654 10.3505L34.6066 9.90466L35.6782 9.50734Z" fill="url(#paint4_linear_1290_52363)"/>
<path d="M25.5008 36.9449C26.9359 36.9449 28.0993 36.1054 28.0993 35.0699C28.0993 34.0343 26.9359 33.1948 25.5008 33.1948C24.0657 33.1948 22.9023 34.0343 22.9023 35.0699C22.9023 36.1054 24.0657 36.9449 25.5008 36.9449Z" fill="url(#paint5_linear_1290_52363)"/>
<defs>
<linearGradient id="paint0_linear_1290_52363" x1="17.7302" y1="11.6998" x2="25.0172" y2="22.6471" gradientUnits="userSpaceOnUse">
<stop offset="0.140625" stop-color="#FBBD90"/>
<stop offset="1" stop-color="#DE7756"/>
</linearGradient>
<linearGradient id="paint1_linear_1290_52363" x1="-3.54425" y1="29.4461" x2="14.402" y2="83.5998" gradientUnits="userSpaceOnUse">
<stop offset="0.140625" stop-color="#FBBD90"/>
<stop offset="1" stop-color="#DE7756"/>
</linearGradient>
<linearGradient id="paint2_linear_1290_52363" x1="21.8994" y1="3.09873" x2="29.6724" y2="5.91742" gradientUnits="userSpaceOnUse">
<stop offset="0.09375" stop-color="#94FDAB"/>
<stop offset="1" stop-color="#09C497"/>
</linearGradient>
<linearGradient id="paint3_linear_1290_52363" x1="15.5642" y1="9.37876" x2="20.3597" y2="11.1177" gradientUnits="userSpaceOnUse">
<stop offset="0.09375" stop-color="#94FDAB"/>
<stop offset="1" stop-color="#09C497"/>
</linearGradient>
<linearGradient id="paint4_linear_1290_52363" x1="30.8521" y1="8.41923" x2="35.5837" y2="10.135" gradientUnits="userSpaceOnUse">
<stop offset="0.09375" stop-color="#94FDAB"/>
<stop offset="1" stop-color="#09C497"/>
</linearGradient>
<linearGradient id="paint5_linear_1290_52363" x1="23.9001" y1="33.5412" x2="26.8538" y2="36.7251" gradientUnits="userSpaceOnUse">
<stop offset="0.09375" stop-color="#94FDAB"/>
<stop offset="1" stop-color="#09C497"/>
</linearGradient>
</defs>
</svg>
