<svg width="49" height="85" viewBox="0 0 49 85" fill="none" xmlns="http://www.w3.org/2000/svg">
<path d="M7.57392 12.3226L7.16797 13.136L13.6876 16.1267L14.0936 15.3133L7.57392 12.3226Z" fill="url(#paint0_linear_1290_53296)"/>
<path d="M9.33925 13.1321L7.79592 12.423L9.41193 11.8779L9.09984 11.0254L7.47955 11.5746L8.22343 10.0909L7.37267 9.70156L6.63307 11.1812L6.06447 9.63599L5.17523 9.93519L5.74383 11.4845L4.2005 10.7754L3.79436 11.5869L5.34197 12.296L3.72168 12.8452L4.03377 13.6936L5.65405 13.1485L4.91445 14.6322L5.76093 15.0175L6.50054 13.5379L7.07341 15.0872L7.95837 14.788L7.38977 13.2387L8.93738 13.9477L9.33925 13.1321Z" fill="url(#paint1_linear_1290_53296)"/>
<path d="M23.1848 3.17408L22.2007 2.85321L19.4352 10.567L15.0819 4.61946L14.2306 5.19213L20.8837 14.2715L21.735 13.6989L20.1746 11.5743L23.1848 3.17408Z" fill="url(#paint2_linear_1290_53296)"/>
<path d="M17.8891 4.2669L15.4167 3.854L17.4684 2.46929L16.8707 1.65757L14.8194 3.03777L15.2501 0.667499L14.2264 0.49817L13.7958 2.86844L12.3517 0.89699L11.5051 1.46997L12.9444 3.44111L10.4723 3.0237L10.2957 4.00508L12.7681 4.41798L10.7117 5.80237L11.309 6.6186L13.3654 5.23421L12.93 7.60416L13.9533 7.77801L14.384 5.40773L15.8284 7.37467L16.6798 6.80201L15.2354 4.83507L17.7078 5.24796L17.8891 4.2669Z" fill="url(#paint3_linear_1290_53296)"/>
<path d="M25.2655 3.64774L23.9492 3.21358L25.199 2.62716L24.7446 1.73445L23.49 2.32055L23.9432 1.05405L22.9639 0.733504L22.511 1.9955L21.8993 0.797269L20.9635 1.23265L21.5751 2.43088L20.2588 1.99672L19.9241 2.94015L21.2404 3.37431L19.9906 3.96073L20.4451 4.85344L21.6949 4.26702L21.2417 5.53352L22.2258 5.85438L22.6786 4.59239L23.2903 5.79062L24.2215 5.35492L23.6098 4.15669L24.9309 4.59117L25.2655 3.64774Z" fill="url(#paint4_linear_1290_53296)"/>
<path d="M42.9147 14.7425L43.2209 13.7262L37.4265 12.1152L40.4627 8.24993L39.5851 7.61456L34.8048 13.6972L32.9956 8.60564L31.9528 8.94555L34.0057 14.7178L32.0254 17.2344L32.9078 17.8713L36.7162 13.0173L42.9147 14.7425Z" fill="url(#paint5_linear_1290_53296)"/>
<path d="M44.173 9.01655L42.0454 7.47981L44.6856 7.11924L44.5308 6.07699L41.8921 6.43301L43.4967 4.38875L42.6127 3.75642L41.0098 5.79613L40.6384 3.26648L39.5465 3.41344L39.9179 5.94308L37.7903 4.40634L37.126 5.25229L39.2535 6.78903L36.6149 7.14505L36.7682 8.19185L39.4084 7.83127L37.8039 9.87554L38.6863 10.5124L40.2908 8.46816L40.6622 10.9978L41.7541 10.8509L41.3827 8.32121L43.5103 9.85795L44.173 9.01655Z" fill="url(#paint6_linear_1290_53296)"/>
<path d="M34.664 8.74426L33.7118 8.29269L34.7134 7.96492L34.3589 6.96514L33.3572 7.29291L33.8235 6.37852L32.8333 5.91478L32.3623 6.82765L32.0219 5.86282L30.9791 6.20273L31.3194 7.16756L30.372 6.71752L29.8835 7.66533L30.8357 8.11689L29.8293 8.44315L30.1839 9.44293L31.1903 9.11668L30.7192 10.0296L31.7126 10.4994L32.1789 9.58497L32.5208 10.5452L33.5636 10.2053L33.2233 9.2405L34.1755 9.69207L34.664 8.74426Z" fill="url(#paint7_linear_1290_53296)"/>
<path d="M45.2403 15.3866L45.545 14.3749L44.5293 14.0904L45.4565 13.597L44.9276 12.6731L43.9957 13.165L44.294 12.1867L43.234 11.8931L42.9372 12.8668L42.4226 11.9779L41.4589 12.4849L41.972 13.3784L40.9516 13.0924L40.6453 14.1087L41.6657 14.3947L40.7353 14.882L41.2674 15.812L42.1946 15.3186L41.901 16.2984L42.9611 16.592L43.2546 15.6122L43.7677 16.5057L44.7329 15.9941L44.2183 15.1051L45.2403 15.3866Z" fill="url(#paint8_linear_1290_53296)"/>
<path d="M24.4978 12.8811C30.7432 12.8811 36.7382 15.2735 41.1558 19.5059C45.5734 23.7383 48.0573 29.4792 48.0614 35.4666V84.25H0.939453L0.939453 35.4666C0.939453 29.4766 3.42149 23.7319 7.83955 19.4963C12.2576 15.2606 18.2498 12.8811 24.4978 12.8811Z" fill="url(#paint9_linear_1290_53296)"/>
<path fill-rule="evenodd" clip-rule="evenodd" d="M19.8213 29.448H17.4668V28.1594H19.8213V29.448Z" fill="#333333"/>
<path fill-rule="evenodd" clip-rule="evenodd" d="M31.5342 29.448H29.1797V28.1594H31.5342V29.448Z" fill="#333333"/>
<path d="M24.5006 31.2978C25.8713 31.2978 26.9826 30.4988 26.9826 29.5132C26.9826 28.5275 25.8713 27.7285 24.5006 27.7285C23.1298 27.7285 22.0186 28.5275 22.0186 29.5132C22.0186 30.4988 23.1298 31.2978 24.5006 31.2978Z" fill="url(#paint10_linear_1290_53296)"/>
<path fill-rule="evenodd" clip-rule="evenodd" d="M25.0448 33.6897V32.2751H23.9579V33.6897H20.0421L19.1486 32.4847L18.2627 33.0885L19.4812 34.7318H29.5501L30.7443 33.0839L29.8516 32.4893L28.9817 33.6897H25.0448Z" fill="#333333"/>
<defs>
<linearGradient id="paint0_linear_1290_53296" x1="8.49571" y1="13.8338" x2="10.8196" y2="11.7885" gradientUnits="userSpaceOnUse">
<stop offset="0.140625" stop-color="#FBBD90"/>
<stop offset="1" stop-color="#DE7756"/>
</linearGradient>
<linearGradient id="paint1_linear_1290_53296" x1="4.81418" y1="10.1395" x2="9.02797" y2="13.5608" gradientUnits="userSpaceOnUse">
<stop offset="0.09375" stop-color="#94FDAB"/>
<stop offset="1" stop-color="#09C497"/>
</linearGradient>
<linearGradient id="paint2_linear_1290_53296" x1="13.4878" y1="4.6685" x2="16.7642" y2="15.5597" gradientUnits="userSpaceOnUse">
<stop offset="0.140625" stop-color="#FBBD90"/>
<stop offset="1" stop-color="#DE7756"/>
</linearGradient>
<linearGradient id="paint3_linear_1290_53296" x1="11.978" y1="1.0196" x2="17.2501" y2="5.95883" gradientUnits="userSpaceOnUse">
<stop offset="0.09375" stop-color="#94FDAB"/>
<stop offset="1" stop-color="#09C497"/>
</linearGradient>
<linearGradient id="paint4_linear_1290_53296" x1="21.0968" y1="1.08434" x2="24.8322" y2="4.58385" gradientUnits="userSpaceOnUse">
<stop offset="0.09375" stop-color="#94FDAB"/>
<stop offset="1" stop-color="#09C497"/>
</linearGradient>
<linearGradient id="paint5_linear_1290_53296" x1="31.2862" y1="7.55144" x2="30.8003" y2="19.5283" gradientUnits="userSpaceOnUse">
<stop offset="0.140625" stop-color="#FBBD90"/>
<stop offset="1" stop-color="#DE7756"/>
</linearGradient>
<linearGradient id="paint6_linear_1290_53296" x1="39.3564" y1="3.45459" x2="43.3738" y2="9.7459" gradientUnits="userSpaceOnUse">
<stop offset="0.09375" stop-color="#94FDAB"/>
<stop offset="1" stop-color="#09C497"/>
</linearGradient>
<linearGradient id="paint7_linear_1290_53296" x1="31.4752" y1="5.93684" x2="33.9537" y2="9.81819" gradientUnits="userSpaceOnUse">
<stop offset="0.09375" stop-color="#94FDAB"/>
<stop offset="1" stop-color="#09C497"/>
</linearGradient>
<linearGradient id="paint8_linear_1290_53296" x1="42.308" y1="12.0018" x2="44.7535" y2="15.8314" gradientUnits="userSpaceOnUse">
<stop offset="0.09375" stop-color="#94FDAB"/>
<stop offset="1" stop-color="#09C497"/>
</linearGradient>
<linearGradient id="paint9_linear_1290_53296" x1="-3.24253" y1="27.8099" x2="24.5402" y2="91.3779" gradientUnits="userSpaceOnUse">
<stop offset="0.140625" stop-color="#FBBD90"/>
<stop offset="1" stop-color="#DE7756"/>
</linearGradient>
<linearGradient id="paint10_linear_1290_53296" x1="22.9716" y1="28.0582" x2="25.7821" y2="31.0985" gradientUnits="userSpaceOnUse">
<stop offset="0.09375" stop-color="#94FDAB"/>
<stop offset="1" stop-color="#09C497"/>
</linearGradient>
</defs>
</svg>
