<svg width="53" height="112" viewBox="0 0 53 112" fill="none" xmlns="http://www.w3.org/2000/svg">
<path d="M41.4852 10.7496L41.4402 9.64965L35.4252 9.88965L37.0252 5.11465L35.9852 4.76465L33.4652 12.2796L30.0752 7.82465L29.2002 8.48965L33.0452 13.5396L32.0002 16.6496L33.0452 16.9997L35.0502 11.0047L41.4852 10.7496Z" fill="url(#paint0_linear_740_28290)"/>
<path d="M20.0511 5.27463L18.9861 4.99463L16.6661 13.7046L11.6011 7.47463L10.7461 8.16963L18.4861 17.6796L19.3411 16.9846L17.5261 14.7596L20.0511 5.27463Z" fill="url(#paint1_linear_740_28290)"/>
<path d="M14.5411 6.87463L11.8961 6.60463L13.9561 4.92463L13.2611 4.07463L11.2011 5.74963L11.4711 3.10463L10.3761 2.99463L10.1061 5.63963L8.4261 3.57463L7.5761 4.26963L9.2511 6.33463L6.60609 6.05963L6.49609 7.15463L9.1411 7.42463L7.0761 9.10463L7.7711 9.95963L9.8361 8.27963L9.5611 10.9246L10.6561 11.0396L10.9261 8.39463L12.6061 10.4546L13.4611 9.75963L11.7811 7.69963L14.4261 7.96963L14.5411 6.87463Z" fill="url(#paint2_linear_740_28290)"/>
<path d="M4.52946 15.3466L4.05469 16.3389L14.072 21.1319L14.5468 20.1397L4.52946 15.3466Z" fill="url(#paint3_linear_740_28290)"/>
<path d="M6.59539 16.3348L4.79039 15.4698L6.68039 14.8048L6.31539 13.7648L4.42039 14.4348L5.29039 12.6248L4.29539 12.1498L3.43039 13.9548L2.76539 12.0698L1.72539 12.4348L2.39039 14.3248L0.585389 13.4598L0.11039 14.4498L1.92039 15.3148L0.0253906 15.9848L0.390389 17.0198L2.28539 16.3548L1.42039 18.1648L2.41039 18.6348L3.27539 16.8298L3.94539 18.7198L4.98039 18.3548L4.31539 16.4648L6.12539 17.3298L6.59539 16.3348Z" fill="url(#paint4_linear_740_28290)"/>
<path d="M48.2074 15.4241L38.2129 20.1992L38.6859 21.1892L48.6804 16.4141L48.2074 15.4241Z" fill="url(#paint5_linear_740_28290)"/>
<path d="M46.3995 16.2853L48.2045 15.4203L46.3145 14.7553L46.6795 13.7153L48.5745 14.3853L47.7095 12.5753L48.6995 12.1003L49.5645 13.9053L50.2295 12.0203L51.2695 12.3853L50.6045 14.2753L52.4095 13.4103L52.8845 14.4003L51.0745 15.2653L52.9695 15.9353L52.6045 16.9703L50.7095 16.3053L51.5745 18.1153L50.5845 18.5853L49.7195 16.7803L49.0495 18.6703L48.0145 18.3053L48.6795 16.4153L46.8695 17.2803L46.3995 16.2853Z" fill="url(#paint6_linear_740_28290)"/>
<path d="M26.8203 14.2396C32.8606 14.2396 38.6538 16.6381 42.9264 20.9079C47.199 25.1777 49.6013 30.9692 49.6053 37.0096V111.66H4.03027V37.0096C4.03027 30.9667 6.43083 25.1712 10.7038 20.8982C14.9769 16.6252 20.7723 14.2246 26.8153 14.2246L26.8203 14.2396Z" fill="url(#paint7_linear_740_28290)"/>
<path fill-rule="evenodd" clip-rule="evenodd" d="M22.1825 27.84H19.9053V26.54H22.1825V27.84Z" fill="#333333"/>
<path fill-rule="evenodd" clip-rule="evenodd" d="M33.5106 27.84H31.2334V26.54H33.5106V27.84Z" fill="#333333"/>
<path fill-rule="evenodd" clip-rule="evenodd" d="M21.116 32.3198V31.3347H19.916V33.5198H33.4951V31.3347H32.2951V32.3198H21.116Z" fill="#333333"/>
<path d="M40.7908 4.7L38.2708 3.855L40.6508 2.665L40.1609 1.685L37.7809 2.87L38.6259 0.344999L37.5809 0L36.7359 2.52L35.5509 0.139999L34.5659 0.630001L35.7509 3.01L33.2309 2.165L32.8809 3.21L35.4009 4.055L33.0209 5.24L33.5109 6.225L35.8909 5.035L35.0459 7.56L36.0909 7.91L36.9359 5.385L38.1209 7.765L39.1059 7.275L37.9209 4.895L40.4409 5.74L40.7908 4.7Z" fill="url(#paint8_linear_740_28290)"/>
<path d="M31.7003 7.43473L30.6503 7.28973L31.4903 6.64973L30.8253 5.77473L29.9853 6.41473L30.1253 5.36473L29.0353 5.21973L28.8903 6.26973L28.2503 5.42473L27.3753 6.08973L28.0153 6.93473L26.9703 6.78973L26.8203 7.87973L27.8703 8.02473L27.0253 8.66473L27.6903 9.53973L28.5353 8.89973L28.3903 9.94973L29.4853 10.0997L29.6253 9.04973L30.2653 9.88973L31.1403 9.22473L30.5003 8.37973L31.5503 8.52473L31.7003 7.43473Z" fill="url(#paint9_linear_740_28290)"/>
<path d="M22.6053 4.42965L21.1803 4.04965L22.4553 3.30965L21.9053 2.35965L20.6253 3.09965L21.0053 1.66965L19.9453 1.38965L19.5653 2.81465L18.8253 1.53965L17.8703 2.08965L18.6103 3.36465L17.1853 2.98465L16.9053 4.04965L18.3303 4.42965L17.0553 5.16965L17.6053 6.11965L18.8803 5.37965L18.5003 6.80965L19.5653 7.08965L19.9453 5.66465L20.6853 6.93965L21.6353 6.38965L20.8953 5.11465L22.3253 5.49465L22.6053 4.42965Z" fill="url(#paint10_linear_740_28290)"/>
<path d="M44.4957 10.6295L44.4507 9.53453L43.3957 9.57453L44.1107 8.79453L43.3057 8.04953L42.5857 8.82953L42.5457 7.76953L41.4457 7.81453L41.4857 8.86953L40.7057 8.15453L39.9607 8.95953L40.7407 9.67953L39.6807 9.71953L39.7257 10.8195L40.7857 10.7795L40.0657 11.5545L40.8757 12.3045L41.5907 11.5245L41.6357 12.5845L42.7357 12.5395L42.6907 11.4795L43.4707 12.1995L44.2157 11.3895L43.4357 10.6745L44.4957 10.6295Z" fill="url(#paint11_linear_740_28290)"/>
<path d="M26.5011 29.7055C27.8269 29.7055 28.9017 28.8995 28.9017 27.9051C28.9017 26.9108 27.8269 26.1047 26.5011 26.1047C25.1753 26.1047 24.1006 26.9108 24.1006 27.9051C24.1006 28.8995 25.1753 29.7055 26.5011 29.7055Z" fill="url(#paint12_linear_740_28290)"/>
<defs>
<linearGradient id="paint0_linear_740_28290" x1="28.1099" y1="7.32394" x2="31.5555" y2="19.313" gradientUnits="userSpaceOnUse">
<stop offset="0.140625" stop-color="#FBBD90"/>
<stop offset="1" stop-color="#DE7756"/>
</linearGradient>
<linearGradient id="paint1_linear_740_28290" x1="9.92029" y1="7.64805" x2="14.5046" y2="19.3013" gradientUnits="userSpaceOnUse">
<stop offset="0.140625" stop-color="#FBBD90"/>
<stop offset="1" stop-color="#DE7756"/>
</linearGradient>
<linearGradient id="paint2_linear_740_28290" x1="8.0407" y1="3.73777" x2="14.1996" y2="8.52824" gradientUnits="userSpaceOnUse">
<stop offset="0.09375" stop-color="#94FDAB"/>
<stop offset="1" stop-color="#09C497"/>
</linearGradient>
<linearGradient id="paint3_linear_740_28290" x1="6.10796" y1="17.4295" x2="8.78948" y2="14.7023" gradientUnits="userSpaceOnUse">
<stop offset="0.140625" stop-color="#FBBD90"/>
<stop offset="1" stop-color="#DE7756"/>
</linearGradient>
<linearGradient id="paint4_linear_740_28290" x1="1.30312" y1="12.6841" x2="6.39497" y2="16.6476" gradientUnits="userSpaceOnUse">
<stop offset="0.09375" stop-color="#94FDAB"/>
<stop offset="1" stop-color="#09C497"/>
</linearGradient>
<linearGradient id="paint5_linear_740_28290" x1="37.4248" y1="20.8301" x2="37.9562" y2="21.8651" gradientUnits="userSpaceOnUse">
<stop offset="0.140625" stop-color="#FBBD90"/>
<stop offset="1" stop-color="#DE7756"/>
</linearGradient>
<linearGradient id="paint6_linear_740_28290" x1="47.5922" y1="12.6345" x2="52.684" y2="16.5981" gradientUnits="userSpaceOnUse">
<stop offset="0.09375" stop-color="#94FDAB"/>
<stop offset="1" stop-color="#09C497"/>
</linearGradient>
<linearGradient id="paint7_linear_740_28290" x1="-0.0144178" y1="34.6058" x2="46.1738" y2="109.473" gradientUnits="userSpaceOnUse">
<stop offset="0.140625" stop-color="#FBBD90"/>
<stop offset="1" stop-color="#DE7756"/>
</linearGradient>
<linearGradient id="paint8_linear_740_28290" x1="34.3995" y1="0.730675" x2="40.455" y2="5.44073" gradientUnits="userSpaceOnUse">
<stop offset="0.09375" stop-color="#94FDAB"/>
<stop offset="1" stop-color="#09C497"/>
</linearGradient>
<linearGradient id="paint9_linear_740_28290" x1="27.7572" y1="5.67051" x2="31.4931" y2="8.57634" gradientUnits="userSpaceOnUse">
<stop offset="0.09375" stop-color="#94FDAB"/>
<stop offset="1" stop-color="#09C497"/>
</linearGradient>
<linearGradient id="paint10_linear_740_28290" x1="17.9996" y1="1.91618" x2="22.3633" y2="5.31028" gradientUnits="userSpaceOnUse">
<stop offset="0.09375" stop-color="#94FDAB"/>
<stop offset="1" stop-color="#09C497"/>
</linearGradient>
<linearGradient id="paint11_linear_740_28290" x1="40.6051" y1="8.21431" x2="44.2912" y2="11.0814" gradientUnits="userSpaceOnUse">
<stop offset="0.09375" stop-color="#94FDAB"/>
<stop offset="1" stop-color="#09C497"/>
</linearGradient>
<linearGradient id="paint12_linear_740_28290" x1="25.0224" y1="26.4374" x2="27.8646" y2="29.385" gradientUnits="userSpaceOnUse">
<stop offset="0.09375" stop-color="#94FDAB"/>
<stop offset="1" stop-color="#09C497"/>
</linearGradient>
</defs>
</svg>
