<svg width="77" height="73" viewBox="0 0 77 73" fill="none" xmlns="http://www.w3.org/2000/svg">
<path d="M50.1809 34.5308H26.8193V72.2501H50.1809V34.5308Z" fill="url(#paint0_linear_1290_52374)"/>
<path d="M38.5021 0.25C17.6875 0.25 0.8125 16.5476 0.8125 36.6541H76.1876C76.1876 16.5476 59.3126 0.25 38.5021 0.25Z" fill="url(#paint1_radial_1290_52374)"/>
<path d="M38.5005 45.4711C39.5984 45.4711 40.4884 44.8053 40.4884 43.984C40.4884 43.1626 39.5984 42.4968 38.5005 42.4968C37.4027 42.4968 36.5127 43.1626 36.5127 43.984C36.5127 44.8053 37.4027 45.4711 38.5005 45.4711Z" fill="url(#paint2_linear_1290_52374)"/>
<path fill-rule="evenodd" clip-rule="evenodd" d="M33.083 44.504V42.8896H34.7756V44.504H33.083Z" fill="#333333"/>
<path fill-rule="evenodd" clip-rule="evenodd" d="M42.2256 44.504V42.8896H43.9181V44.504H42.2256Z" fill="#333333"/>
<path fill-rule="evenodd" clip-rule="evenodd" d="M32.9619 47.6974L33.9653 47.0759L34.7096 48.2717H42.3073L43.0316 47.0811L44.0413 47.6922L42.9721 49.4498H34.0528L32.9619 47.6974Z" fill="#333333"/>
<defs>
<linearGradient id="paint0_linear_1290_52374" x1="24.746" y1="42.4208" x2="40.0641" y2="75.2977" gradientUnits="userSpaceOnUse">
<stop offset="0.140625" stop-color="#FBBD90"/>
<stop offset="1" stop-color="#DE7756"/>
</linearGradient>
<radialGradient id="paint1_radial_1290_52374" cx="0" cy="0" r="1" gradientUnits="userSpaceOnUse" gradientTransform="translate(35.3199 36.2917) rotate(180) scale(41.2543 41.1738)">
<stop stop-color="#00CD9C"/>
<stop offset="0.473958" stop-color="#50EAA0"/>
<stop offset="1" stop-color="#A3F2B4"/>
</radialGradient>
<linearGradient id="paint2_linear_1290_52374" x1="37.6908" y1="42.9063" x2="38.2448" y2="45.4663" gradientUnits="userSpaceOnUse">
<stop stop-color="#9AFFB0"/>
<stop offset="1" stop-color="#00BD90"/>
</linearGradient>
</defs>
</svg>
