<svg width="109" height="116" viewBox="0 0 109 116" fill="none" xmlns="http://www.w3.org/2000/svg">
<path d="M93.9002 59.4349C93.9002 86.4099 54.8202 93.7199 54.8202 93.7199C54.8202 93.7199 15.7402 86.4099 15.7402 59.4349C15.7402 32.4599 54.8202 0.0549316 54.8202 0.0549316C54.8202 0.0549316 93.9002 32.4649 93.9002 59.4349Z" fill="url(#paint0_linear_781_10691)"/>
<path d="M15.34 88.115C25.815 92.86 35.84 85.435 35.84 85.435C35.84 85.435 34.81 73.005 24.34 68.265C13.87 63.525 0.875 69.605 0.875 69.605C0.875 69.605 4.86 83.375 15.34 88.115Z" fill="url(#paint1_linear_781_10691)"/>
<path d="M30.7092 83.5043L30.7422 83.4315C30.8402 83.2149 30.9798 83.0198 31.1533 82.8572C31.3267 82.6947 31.5304 82.5678 31.7528 82.484C31.9753 82.4002 32.212 82.361 32.4496 82.3687C32.6871 82.3763 32.9209 82.4307 33.1374 82.5287L47.3133 88.9443L45.7877 92.3151L31.6119 85.8996C31.1745 85.7017 30.8337 85.3381 30.6644 84.8889C30.4952 84.4397 30.5112 83.9417 30.7092 83.5043Z" fill="url(#paint2_linear_781_10691)"/>
<path d="M94.119 88.115C83.644 92.86 73.619 85.435 73.619 85.435C73.619 85.435 74.649 73.005 85.119 68.265C95.589 63.525 108.584 69.605 108.584 69.605C108.584 69.605 104.599 83.375 94.119 88.115Z" fill="url(#paint3_linear_781_10691)"/>
<path d="M78.7488 83.5043L78.7159 83.4315C78.6178 83.2149 78.4782 83.0198 78.3047 82.8572C78.1313 82.6947 77.9276 82.5678 77.7052 82.484C77.4828 82.4002 77.246 82.361 77.0084 82.3687C76.7709 82.3763 76.5371 82.4307 76.3206 82.5287L62.1447 88.9443L63.6703 92.3151L77.8461 85.8996C78.2835 85.7017 78.6243 85.3381 78.7936 84.8889C78.9629 84.4397 78.9468 83.9417 78.7488 83.5043Z" fill="url(#paint4_linear_781_10691)"/>
<path d="M54.8203 63.3501C56.2707 63.3501 57.707 63.6358 59.047 64.1908C60.3871 64.7459 61.6047 65.5595 62.6303 66.5851C63.6559 67.6107 64.4695 68.8283 65.0245 70.1684C65.5796 71.5084 65.8653 72.9446 65.8653 74.3951V115.65H43.7803V74.3901C43.7816 71.4625 44.9452 68.6552 47.0153 66.5851C49.0854 64.515 51.8927 63.3514 54.8203 63.3501Z" fill="url(#paint5_linear_781_10691)"/>
<path d="M54.8195 76.2876C56.0509 76.2876 57.0491 75.5389 57.0491 74.6154C57.0491 73.6918 56.0509 72.9431 54.8195 72.9431C53.5881 72.9431 52.5898 73.6918 52.5898 74.6154C52.5898 75.5389 53.5881 76.2876 54.8195 76.2876Z" fill="url(#paint6_linear_781_10691)"/>
<path fill-rule="evenodd" clip-rule="evenodd" d="M49.4447 78.4763V77.6282H48.3447V79.5763H61.3014V77.6282H60.2014V78.4763H49.4447Z" fill="#333333"/>
<path d="M42.3201 82.2032C44.8468 82.2032 46.8951 80.1549 46.8951 77.6282C46.8951 75.1015 44.8468 73.0532 42.3201 73.0532C39.7934 73.0532 37.7451 75.1015 37.7451 77.6282C37.7451 80.1549 39.7934 82.2032 42.3201 82.2032Z" fill="url(#paint7_linear_781_10691)"/>
<path d="M67.4803 82.2032C70.007 82.2032 72.0553 80.1549 72.0553 77.6282C72.0553 75.1015 70.007 73.0532 67.4803 73.0532C64.9536 73.0532 62.9053 75.1015 62.9053 77.6282C62.9053 80.1549 64.9536 82.2032 67.4803 82.2032Z" fill="url(#paint8_linear_781_10691)"/>
<path d="M75.4201 37.3399C76.4363 37.3399 77.2601 36.5161 77.2601 35.4999C77.2601 34.4837 76.4363 33.6599 75.4201 33.6599C74.4039 33.6599 73.5801 34.4837 73.5801 35.4999C73.5801 36.5161 74.4039 37.3399 75.4201 37.3399Z" fill="url(#paint9_linear_781_10691)"/>
<path d="M57.8703 15.4251C58.8865 15.4251 59.7103 14.6013 59.7103 13.5851C59.7103 12.5689 58.8865 11.7451 57.8703 11.7451C56.8541 11.7451 56.0303 12.5689 56.0303 13.5851C56.0303 14.6013 56.8541 15.4251 57.8703 15.4251Z" fill="url(#paint10_linear_781_10691)"/>
<path d="M79.0998 62.5899C80.116 62.5899 80.9398 61.7661 80.9398 60.7499C80.9398 59.7337 80.116 58.9099 79.0998 58.9099C78.0836 58.9099 77.2598 59.7337 77.2598 60.7499C77.2598 61.7661 78.0836 62.5899 79.0998 62.5899Z" fill="url(#paint11_linear_781_10691)"/>
<path d="M37.675 29.3851C38.6912 29.3851 39.515 28.5613 39.515 27.5451C39.515 26.5289 38.6912 25.7051 37.675 25.7051C36.6588 25.7051 35.835 26.5289 35.835 27.5451C35.835 28.5613 36.6588 29.3851 37.675 29.3851Z" fill="url(#paint12_linear_781_10691)"/>
<path d="M28.5099 63.3499C29.5261 63.3499 30.3499 62.5261 30.3499 61.5099C30.3499 60.4937 29.5261 59.6699 28.5099 59.6699C27.4937 59.6699 26.6699 60.4937 26.6699 61.5099C26.6699 62.5261 27.4937 63.3499 28.5099 63.3499Z" fill="url(#paint13_linear_781_10691)"/>
<path d="M53.0597 50.6651C54.0759 50.6651 54.8997 49.8413 54.8997 48.8251C54.8997 47.8089 54.0759 46.9851 53.0597 46.9851C52.0435 46.9851 51.2197 47.8089 51.2197 48.8251C51.2197 49.8413 52.0435 50.6651 53.0597 50.6651Z" fill="url(#paint14_linear_781_10691)"/>
<path fill-rule="evenodd" clip-rule="evenodd" d="M48.8125 72.7581L51.0544 73.6715L51.1002 73.7018C51.181 73.7554 51.2478 73.8284 51.2942 73.9148C51.3404 74.0009 51.3644 74.0969 51.3644 74.1942C51.3644 74.2914 51.3405 74.3875 51.2942 74.4737C51.2478 74.56 51.181 74.633 51.1002 74.6867L51.0527 74.7181L48.8087 75.6132L48.4012 74.5915L49.4098 74.1892L48.3975 73.7768L48.8125 72.7581Z" fill="#333333"/>
<path fill-rule="evenodd" clip-rule="evenodd" d="M60.8281 72.7581L58.5862 73.6715L58.5405 73.7018C58.4596 73.7554 58.3928 73.8284 58.3464 73.9148C58.3002 74.0009 58.2762 74.0969 58.2762 74.1942C58.2762 74.2914 58.3002 74.3875 58.3464 74.4737C58.3928 74.56 58.4596 74.633 58.5405 74.6867L58.5879 74.7181L60.8319 75.6132L61.2394 74.5915L60.2309 74.1892L61.2432 73.7768L60.8281 72.7581Z" fill="#333333"/>
<defs>
<linearGradient id="paint0_linear_781_10691" x1="30.7466" y1="8.7071" x2="98.3166" y2="52.564" gradientUnits="userSpaceOnUse">
<stop offset="0.09375" stop-color="#94FDAB"/>
<stop offset="1" stop-color="#09C497"/>
</linearGradient>
<linearGradient id="paint1_linear_781_10691" x1="7.58811" y1="68.6042" x2="25.7215" y2="89.8227" gradientUnits="userSpaceOnUse">
<stop offset="0.09375" stop-color="#94FDAB"/>
<stop offset="1" stop-color="#09C497"/>
</linearGradient>
<linearGradient id="paint2_linear_781_10691" x1="33.1377" y1="86.9506" x2="42.6889" y2="81.609" gradientUnits="userSpaceOnUse">
<stop offset="0.140625" stop-color="#FBBD90"/>
<stop offset="1" stop-color="#DE7756"/>
</linearGradient>
<linearGradient id="paint3_linear_781_10691" x1="101.871" y1="68.6042" x2="83.7375" y2="89.8227" gradientUnits="userSpaceOnUse">
<stop offset="0.09375" stop-color="#94FDAB"/>
<stop offset="1" stop-color="#09C497"/>
</linearGradient>
<linearGradient id="paint4_linear_781_10691" x1="76.3203" y1="86.9506" x2="66.7692" y2="81.609" gradientUnits="userSpaceOnUse">
<stop offset="0.140625" stop-color="#FBBD90"/>
<stop offset="1" stop-color="#DE7756"/>
</linearGradient>
<linearGradient id="paint5_linear_781_10691" x1="41.8203" y1="74.2901" x2="67.6653" y2="112.11" gradientUnits="userSpaceOnUse">
<stop offset="0.140625" stop-color="#FBBD90"/>
<stop offset="1" stop-color="#DE7756"/>
</linearGradient>
<linearGradient id="paint6_linear_781_10691" x1="52.5898" y1="74.6154" x2="57.0491" y2="74.6154" gradientUnits="userSpaceOnUse">
<stop offset="0.109375" stop-color="#FFF6A3"/>
<stop offset="1" stop-color="#FF9E58"/>
</linearGradient>
<linearGradient id="paint7_linear_781_10691" x1="37.7451" y1="77.6282" x2="46.8951" y2="77.6282" gradientUnits="userSpaceOnUse">
<stop offset="0.109375" stop-color="#FFF6A3"/>
<stop offset="1" stop-color="#FF9E58"/>
</linearGradient>
<linearGradient id="paint8_linear_781_10691" x1="62.9053" y1="77.6282" x2="72.0553" y2="77.6282" gradientUnits="userSpaceOnUse">
<stop offset="0.109375" stop-color="#FFF6A3"/>
<stop offset="1" stop-color="#FF9E58"/>
</linearGradient>
<linearGradient id="paint9_linear_781_10691" x1="73.5801" y1="35.4999" x2="77.2601" y2="35.4999" gradientUnits="userSpaceOnUse">
<stop offset="0.109375" stop-color="#FFF6A3"/>
<stop offset="1" stop-color="#FF9E58"/>
</linearGradient>
<linearGradient id="paint10_linear_781_10691" x1="56.0303" y1="13.5851" x2="59.7103" y2="13.5851" gradientUnits="userSpaceOnUse">
<stop offset="0.109375" stop-color="#FFF6A3"/>
<stop offset="1" stop-color="#FF9E58"/>
</linearGradient>
<linearGradient id="paint11_linear_781_10691" x1="77.2598" y1="60.7499" x2="80.9398" y2="60.7499" gradientUnits="userSpaceOnUse">
<stop offset="0.109375" stop-color="#FFF6A3"/>
<stop offset="1" stop-color="#FF9E58"/>
</linearGradient>
<linearGradient id="paint12_linear_781_10691" x1="35.835" y1="27.5451" x2="39.515" y2="27.5451" gradientUnits="userSpaceOnUse">
<stop offset="0.109375" stop-color="#FFF6A3"/>
<stop offset="1" stop-color="#FF9E58"/>
</linearGradient>
<linearGradient id="paint13_linear_781_10691" x1="26.6699" y1="61.5099" x2="30.3499" y2="61.5099" gradientUnits="userSpaceOnUse">
<stop offset="0.109375" stop-color="#FFF6A3"/>
<stop offset="1" stop-color="#FF9E58"/>
</linearGradient>
<linearGradient id="paint14_linear_781_10691" x1="51.2197" y1="48.8251" x2="54.8997" y2="48.8251" gradientUnits="userSpaceOnUse">
<stop offset="0.109375" stop-color="#FFF6A3"/>
<stop offset="1" stop-color="#FF9E58"/>
</linearGradient>
</defs>
</svg>
