<svg width="47" height="72" viewBox="0 0 47 72" fill="none" xmlns="http://www.w3.org/2000/svg">
<path d="M24.996 18.6826C24.996 18.6826 29.5918 22.3364 35.2612 22.3364C40.9306 22.3364 45.5287 18.6826 45.5287 18.6826C45.5287 18.6826 40.9306 15.0288 35.2612 15.0288C34.452 15.0315 33.6449 15.1032 32.8508 15.243C33.7501 14.7582 34.5813 14.178 35.3265 13.5152C39.3349 9.91392 39.7085 4.42113 39.7085 4.42113C39.7085 4.42113 33.5822 4.75457 29.5806 8.35581C28.7608 9.09998 28.0547 9.93857 27.4807 10.8496C27.5438 10.393 27.5761 9.93344 27.5775 9.47336C27.5707 4.37263 23.5015 0.25 23.5015 0.25C23.5015 0.25 19.4323 4.37262 19.4323 9.46528C19.4337 9.92535 19.4661 10.3849 19.5291 10.8415C18.9537 9.93025 18.2461 9.09165 17.4247 8.34773C13.4186 4.74649 7.29677 4.41304 7.29677 4.41304C7.29677 4.41304 7.67038 9.91392 11.6788 13.5071C12.424 14.17 13.2552 14.7501 14.1545 15.2349C13.3604 15.0952 12.5533 15.0234 11.7441 15.0207C6.07241 15.0207 1.47656 18.6745 1.47656 18.6745C1.47656 18.6745 6.07241 22.3283 11.7441 22.3283C17.4157 22.3283 22.0093 18.6745 22.0093 18.6745" fill="url(#paint0_linear_1290_52471)"/>
<path d="M23.5001 17.8704C29.6788 17.8704 35.6045 20.3474 39.9735 24.7567C44.3425 29.1659 46.797 35.1461 46.797 41.3817V71.2498H0.203125V41.3817C0.203125 35.1461 2.65762 29.1659 7.02664 24.7567C11.3957 20.3474 17.3213 17.8704 23.5001 17.8704Z" fill="url(#paint1_linear_1290_52471)"/>
<path fill-rule="evenodd" clip-rule="evenodd" d="M29.0569 41.8432C31.085 41.8432 32.7292 40.9498 32.7292 39.8476C32.7292 38.7455 31.085 37.8521 29.0569 37.8521C27.335 37.8521 25.8899 38.496 25.4927 39.3649L21.5065 39.3576C21.1045 38.4924 19.6627 37.8521 17.9457 37.8521C15.9176 37.8521 14.2734 38.7456 14.2734 39.8477C14.2734 40.9498 15.9176 41.8433 17.9457 41.8433C19.6446 41.8433 21.074 41.2164 21.4934 40.3651L25.5129 40.3725C25.937 41.22 27.363 41.8432 29.0569 41.8432Z" fill="#333333"/>
<path fill-rule="evenodd" clip-rule="evenodd" d="M17.3555 44.8662L18.3323 44.2542L19.1946 45.6557H27.8299L28.6695 44.2592L29.6525 44.8612L28.4771 46.816H18.5551L17.3555 44.8662Z" fill="#333333"/>
<defs>
<linearGradient id="paint0_linear_1290_52471" x1="9.93436" y1="2.2902" x2="25.8224" y2="26.9386" gradientUnits="userSpaceOnUse">
<stop offset="0.09375" stop-color="#94FDAB"/>
<stop offset="1" stop-color="#09C497"/>
</linearGradient>
<linearGradient id="paint1_linear_1290_52471" x1="-3.93199" y1="29.0362" x2="12.9441" y2="80.0838" gradientUnits="userSpaceOnUse">
<stop offset="0.140625" stop-color="#FBBD90"/>
<stop offset="1" stop-color="#DE7756"/>
</linearGradient>
</defs>
</svg>
