<svg width="63" height="82" viewBox="0 0 63 82" fill="none" xmlns="http://www.w3.org/2000/svg">
<path d="M33.6278 26.1026C33.6278 26.1026 40.177 31.1281 48.256 31.1281C56.335 31.1281 62.8873 26.1026 62.8873 26.1026C62.8873 26.1026 56.335 21.0771 48.256 21.0771C47.1028 21.0808 45.9527 21.1795 44.821 21.3717C46.1026 20.7048 47.287 19.9069 48.349 18.9952C54.061 14.042 54.5934 6.48706 54.5934 6.48706C54.5934 6.48706 45.8634 6.94569 40.1609 11.8989C38.9928 12.9225 37.9865 14.0759 37.1686 15.3289C37.2584 14.7009 37.3045 14.0688 37.3065 13.436C37.2969 6.42035 31.4982 0.75 31.4982 0.75C31.4982 0.75 25.6996 6.42035 25.6996 13.4249C25.7015 14.0577 25.7476 14.6898 25.8375 15.3178C25.0175 14.0644 24.0091 12.911 22.8387 11.8878C17.1298 6.93458 8.40619 6.47594 8.40619 6.47594C8.40619 6.47594 8.93859 14.042 14.6507 18.9841C15.7126 19.8958 16.8971 20.6937 18.1786 21.3606C17.047 21.1684 15.8968 21.0697 14.7437 21.066C6.66146 21.066 0.112305 26.0915 0.112305 26.0915C0.112305 26.0915 6.66146 31.117 14.7437 31.117C22.8259 31.117 29.3718 26.0915 29.3718 26.0915" fill="url(#paint0_linear_1290_53410)"/>
<path d="M31.4968 24.1333C37.8946 24.1333 44.0303 26.6089 48.5542 31.0156C53.0781 35.4222 55.6196 41.3989 55.6196 47.6308V81.7499H7.37402V47.6308C7.37402 41.3989 9.91553 35.4222 14.4394 31.0156C18.9633 26.6089 25.0991 24.1333 31.4968 24.1333Z" fill="url(#paint1_linear_1290_53410)"/>
<path d="M31.4999 31.9828C35.0417 31.9828 37.9129 29.186 37.9129 25.736C37.9129 22.286 35.0417 19.4893 31.4999 19.4893C27.9581 19.4893 25.0869 22.286 25.0869 25.736C25.0869 29.186 27.9581 31.9828 31.4999 31.9828Z" fill="url(#paint2_linear_1290_53410)"/>
<path fill-rule="evenodd" clip-rule="evenodd" d="M29.2398 47.7929C28.768 48.7166 27.161 49.3968 25.2511 49.3968C22.9707 49.3968 21.1221 48.4272 21.1221 47.2311C21.1221 46.035 22.9707 45.0654 25.2511 45.0654C27.1818 45.0654 28.803 45.7605 29.2548 46.6995L33.7359 46.7075C34.1823 45.7644 35.8072 45.0654 37.7434 45.0654C40.0238 45.0654 41.8724 46.035 41.8724 47.2311C41.8724 48.4272 40.0238 49.3968 37.7434 49.3968C35.839 49.3968 34.2358 48.7206 33.7588 47.8009L29.2398 47.7929Z" fill="#333333"/>
<path fill-rule="evenodd" clip-rule="evenodd" d="M24.5244 52.485L25.4023 51.7925L26.4236 53.0209H36.5983L37.5925 51.7973L38.4783 52.4802L37.1449 54.1213H25.8848L24.5244 52.485Z" fill="#333333"/>
<defs>
<linearGradient id="paint0_linear_1290_53410" x1="12.1648" y1="3.55613" x2="33.6891" y2="38.1527" gradientUnits="userSpaceOnUse">
<stop offset="0.09375" stop-color="#94FDAB"/>
<stop offset="1" stop-color="#09C497"/>
</linearGradient>
<linearGradient id="paint1_linear_1290_53410" x1="3.09232" y1="36.1854" x2="21.92" y2="90.8187" gradientUnits="userSpaceOnUse">
<stop offset="0.140625" stop-color="#FBBD90"/>
<stop offset="1" stop-color="#DE7756"/>
</linearGradient>
<linearGradient id="paint2_linear_1290_53410" x1="25.0869" y1="25.736" x2="37.9129" y2="25.736" gradientUnits="userSpaceOnUse">
<stop offset="0.109375" stop-color="#FFF6A3"/>
<stop offset="1" stop-color="#FF9E58"/>
</linearGradient>
</defs>
</svg>
