<svg width="103" height="104" viewBox="0 0 103 104" fill="none" xmlns="http://www.w3.org/2000/svg">
<path d="M54.945 47.44C54.945 47.44 65.5381 56.8192 78.6057 56.8192C91.6733 56.8192 102.272 47.44 102.272 47.44C102.272 47.44 91.6733 38.0608 78.6057 38.0608C76.7405 38.0678 74.8801 38.2519 73.0498 38.6107C75.1226 37.3661 77.0385 35.8769 78.7561 34.1753C87.9953 24.931 88.8564 10.831 88.8564 10.831C88.8564 10.831 74.7357 11.687 65.5122 20.9313C63.6227 22.8416 61.9951 24.9942 60.6721 27.3328C60.8175 26.1608 60.8919 24.9811 60.8952 23.8001C60.8796 10.7065 51.5004 0.123779 51.5004 0.123779C51.5004 0.123779 42.1212 10.7065 42.1212 23.7793C42.1244 24.9603 42.1989 26.1401 42.3443 27.3121C41.018 24.9729 39.387 22.8202 37.4938 20.9106C28.2599 11.6662 14.1496 10.8103 14.1496 10.8103C14.1496 10.8103 15.0107 24.931 24.2498 34.1545C25.9675 35.8562 27.8834 37.3453 29.9562 38.59C28.1258 38.2312 26.2655 38.047 24.4003 38.0401C11.3275 38.0401 0.734375 47.4193 0.734375 47.4193C0.734375 47.4193 11.3275 56.7985 24.4003 56.7985C37.4731 56.7985 48.061 47.4193 48.061 47.4193" fill="url(#paint0_linear_740_28492)"/>
<path d="M51.5013 43.3057C57.771 43.3057 63.7839 45.7963 68.2173 50.2296C72.6506 54.663 75.1413 60.6759 75.1413 66.9456V103.876H27.8613V66.9456C27.8613 60.6759 30.352 54.663 34.7853 50.2296C39.2187 45.7963 45.2316 43.3057 51.5013 43.3057Z" fill="url(#paint1_linear_740_28492)"/>
<path d="M44.9487 52.9855C48.891 52.9855 52.0869 49.7897 52.0869 45.8474C52.0869 41.9051 48.891 38.7092 44.9487 38.7092C41.0064 38.7092 37.8105 41.9051 37.8105 45.8474C37.8105 49.7897 41.0064 52.9855 44.9487 52.9855Z" fill="url(#paint2_linear_740_28492)"/>
<path d="M51.5005 43.5854C55.4428 43.5854 58.6386 40.3895 58.6386 36.4472C58.6386 32.5049 55.4428 29.3091 51.5005 29.3091C47.5582 29.3091 44.3623 32.5049 44.3623 36.4472C44.3623 40.3895 47.5582 43.5854 51.5005 43.5854Z" fill="url(#paint3_linear_740_28492)"/>
<path d="M58.0522 52.9855C61.9945 52.9855 65.1904 49.7897 65.1904 45.8474C65.1904 41.9051 61.9945 38.7092 58.0522 38.7092C54.1099 38.7092 50.9141 41.9051 50.9141 45.8474C50.9141 49.7897 54.1099 52.9855 58.0522 52.9855Z" fill="url(#paint4_linear_740_28492)"/>
<path fill-rule="evenodd" clip-rule="evenodd" d="M46.2313 74.4489V73.3167H45.0312V75.6489H57.9689V73.3167H56.7689V74.4489H46.2313Z" fill="#333333"/>
<path fill-rule="evenodd" clip-rule="evenodd" d="M49.2883 68.7595C48.826 69.6889 47.2511 70.3732 45.3794 70.3732C43.1446 70.3732 41.333 69.3977 41.333 68.1944C41.333 66.9911 43.1446 66.0156 45.3794 66.0156C47.2714 66.0156 48.8601 66.7148 49.3029 67.6596L53.6943 67.6676C54.1318 66.7188 55.7242 66.0156 57.6215 66.0156C59.8563 66.0156 61.6679 66.9911 61.6679 68.1944C61.6679 69.3977 59.8563 70.3732 57.6215 70.3732C55.7552 70.3732 54.184 69.6929 53.7167 68.7676L49.2883 68.7595Z" fill="#333333"/>
<defs>
<linearGradient id="paint0_linear_740_28492" x1="20.229" y1="5.36094" x2="62.6574" y2="64.4641" gradientUnits="userSpaceOnUse">
<stop offset="0.09375" stop-color="#94FDAB"/>
<stop offset="1" stop-color="#09C497"/>
</linearGradient>
<linearGradient id="paint1_linear_740_28492" x1="23.6653" y1="55.9757" x2="44.5636" y2="112.505" gradientUnits="userSpaceOnUse">
<stop offset="0.140625" stop-color="#FBBD90"/>
<stop offset="1" stop-color="#DE7756"/>
</linearGradient>
<linearGradient id="paint2_linear_740_28492" x1="37.8105" y1="45.8474" x2="52.0869" y2="45.8474" gradientUnits="userSpaceOnUse">
<stop offset="0.109375" stop-color="#FFF6A3"/>
<stop offset="1" stop-color="#FF9E58"/>
</linearGradient>
<linearGradient id="paint3_linear_740_28492" x1="44.3623" y1="36.4472" x2="58.6386" y2="36.4472" gradientUnits="userSpaceOnUse">
<stop offset="0.109375" stop-color="#FFF6A3"/>
<stop offset="1" stop-color="#FF9E58"/>
</linearGradient>
<linearGradient id="paint4_linear_740_28492" x1="50.9141" y1="45.8474" x2="65.1904" y2="45.8474" gradientUnits="userSpaceOnUse">
<stop offset="0.109375" stop-color="#FFF6A3"/>
<stop offset="1" stop-color="#FF9E58"/>
</linearGradient>
</defs>
</svg>
