<svg width="270" height="271" viewBox="0 0 270 271" fill="none" xmlns="http://www.w3.org/2000/svg">
<path d="M142.799 162.796H127.325V236.391H142.799V162.796Z" fill="url(#paint0_linear_1283_13286)"/>
<path d="M135.063 82.1626C150.68 82.1626 163.341 72.4555 163.341 60.4812C163.341 48.5069 150.68 38.7998 135.063 38.7998C119.446 38.7998 106.785 48.5069 106.785 60.4812C106.785 72.4555 119.446 82.1626 135.063 82.1626Z" fill="url(#paint1_linear_1283_13286)"/>
<path d="M135.062 165.378C166.199 165.378 191.441 143.846 191.441 117.285C191.441 90.7236 166.199 69.1914 135.062 69.1914C103.925 69.1914 78.6836 90.7236 78.6836 117.285C78.6836 143.846 103.925 165.378 135.062 165.378Z" fill="url(#paint2_linear_1283_13286)"/>
<path d="M98.5972 201.861C118.702 201.861 135.001 186.52 135.001 167.597C135.001 148.674 118.702 133.333 98.5972 133.333C78.4919 133.333 62.1934 148.674 62.1934 167.597C62.1934 186.52 78.4919 201.861 98.5972 201.861Z" fill="url(#paint3_linear_1283_13286)"/>
<path d="M171.404 201.861C191.509 201.861 207.808 186.521 207.808 167.597C207.808 148.674 191.509 133.333 171.404 133.333C151.299 133.333 135 148.674 135 167.597C135 186.521 151.299 201.861 171.404 201.861Z" fill="url(#paint4_linear_1283_13286)"/>
<path fill-rule="evenodd" clip-rule="evenodd" d="M125.281 117.089H144.845L145.136 117.552L144.298 118.079C145.136 117.552 145.136 117.551 145.136 117.552L145.138 117.555L145.142 117.561L145.152 117.578L145.189 117.639C145.22 117.69 145.262 117.763 145.315 117.857C145.421 118.044 145.567 118.315 145.735 118.657C146.07 119.339 146.493 120.313 146.855 121.489C147.575 123.828 148.072 127.042 147.044 130.356C145.261 136.077 139.618 138.771 135.063 138.771C130.508 138.771 124.866 136.078 123.082 130.357C122.054 127.043 122.551 123.828 123.271 121.489C123.633 120.313 124.057 119.339 124.391 118.657C124.559 118.315 124.705 118.044 124.811 117.857C124.864 117.763 124.907 117.69 124.937 117.639L124.974 117.578L124.985 117.561L124.988 117.555L124.989 117.553C124.99 117.553 124.99 117.552 125.828 118.079L124.989 117.553L125.281 117.089ZM126.404 119.069C126.335 119.198 126.256 119.352 126.169 119.528C125.87 120.138 125.489 121.015 125.163 122.071C124.509 124.197 124.106 126.974 124.973 129.768C126.433 134.45 131.131 136.791 135.063 136.791C138.995 136.791 143.693 134.45 145.153 129.768C146.02 126.974 145.617 124.197 144.963 122.071C144.638 121.015 144.256 120.138 143.957 119.528C143.87 119.352 143.791 119.198 143.722 119.069H126.404Z" fill="#333333"/>
<path fill-rule="evenodd" clip-rule="evenodd" d="M123.048 108.11L126.517 111.279L125.181 112.741L123.048 110.792L120.915 112.741L119.579 111.279L123.048 108.11Z" fill="#333333"/>
<path fill-rule="evenodd" clip-rule="evenodd" d="M147.077 108.11L150.546 111.279L149.21 112.741L147.077 110.792L144.944 112.741L143.608 111.279L147.077 108.11Z" fill="#333333"/>
<path d="M135.063 114.94C137.729 114.94 139.891 113.32 139.891 111.323C139.891 109.325 137.729 107.706 135.063 107.706C132.398 107.706 130.236 109.325 130.236 111.323C130.236 113.32 132.398 114.94 135.063 114.94Z" fill="url(#paint5_linear_1283_13286)"/>
<path d="M215.289 21.5637C214.993 19.9582 215.033 18.4256 215.332 17.2579C214.418 18.0455 213.06 18.7624 211.49 19.2108C209.925 19.6573 208.458 19.7493 207.361 19.5392C208.036 20.4288 208.604 21.7838 208.898 23.3847C209.193 24.9913 209.152 26.5255 208.852 27.6948C209.765 26.9084 211.121 26.1933 212.692 25.7463C214.267 25.2978 215.744 25.2096 216.843 25.4265C216.161 24.5374 215.586 23.1749 215.289 21.5637" stroke="#A0A0A0"/>
<path d="M205.723 32.4022L179.078 70.3258" stroke="#A0A0A0" stroke-width="0.8"/>
<path d="M57.0156 44.6035L84.3409 74.0221" stroke="#A0A0A0" stroke-dasharray="2 2"/>
<circle cx="50.6845" cy="38.0273" r="3.91459" transform="rotate(10.4139 50.6845 38.0273)" stroke="#A0A0A0"/>
<circle cx="52.8402" cy="73.5553" r="3.41459" transform="rotate(-62.6025 52.8402 73.5553)" fill="#C5C5C5"/>
<path d="M58.9726 76.7331L76.6994 86.1764" stroke="#A0A0A0" stroke-width="0.8"/>
<defs>
<linearGradient id="paint0_linear_1283_13286" x1="125.952" y1="178.19" x2="163.11" y2="205.265" gradientUnits="userSpaceOnUse">
<stop offset="0.140625" stop-color="#FBBD90"/>
<stop offset="1" stop-color="#DE7756"/>
</linearGradient>
<linearGradient id="paint1_linear_1283_13286" x1="117.644" y1="42.8054" x2="151.89" y2="77.5469" gradientUnits="userSpaceOnUse">
<stop offset="0.09375" stop-color="#94FDAB"/>
<stop offset="1" stop-color="#09C497"/>
</linearGradient>
<linearGradient id="paint2_linear_1283_13286" x1="100.332" y1="78.0765" x2="175.982" y2="147.055" gradientUnits="userSpaceOnUse">
<stop offset="0.09375" stop-color="#94FDAB"/>
<stop offset="1" stop-color="#09C497"/>
</linearGradient>
<linearGradient id="paint3_linear_1283_13286" x1="76.1721" y1="139.663" x2="129.329" y2="183.592" gradientUnits="userSpaceOnUse">
<stop offset="0.09375" stop-color="#94FDAB"/>
<stop offset="1" stop-color="#09C497"/>
</linearGradient>
<linearGradient id="paint4_linear_1283_13286" x1="148.979" y1="139.663" x2="202.136" y2="183.592" gradientUnits="userSpaceOnUse">
<stop offset="0.09375" stop-color="#94FDAB"/>
<stop offset="1" stop-color="#09C497"/>
</linearGradient>
<linearGradient id="paint5_linear_1283_13286" x1="129.38" y1="109.219" x2="130.965" y2="116.55" gradientUnits="userSpaceOnUse">
<stop offset="0.140625" stop-color="#FBBD90"/>
<stop offset="1" stop-color="#DE7756"/>
</linearGradient>
</defs>
</svg>
