<svg width="312" height="320" viewBox="0 0 312 320" fill="none" xmlns="http://www.w3.org/2000/svg">
<g clip-path="url(#clip0_1290_49325)">
<rect width="312" height="320" rx="10" fill="#C5C5C5"/>
<path d="M383.406 -20H-72.335V320H383.406V-20Z" fill="url(#paint0_linear_1290_49325)"/>
<path d="M272.481 65.2041H38.5029C32.9515 65.2041 28.4512 69.7127 28.4512 75.2744V299.097C28.4512 304.659 32.9515 309.168 38.5029 309.168H272.481C278.032 309.168 282.532 304.659 282.532 299.097V75.2744C282.532 69.7127 278.032 65.2041 272.481 65.2041Z" fill="url(#paint1_linear_1290_49325)"/>
<path d="M381.782 64.0059H294.644V254.349H381.782V64.0059Z" fill="url(#paint2_linear_1290_49325)"/>
<path d="M381.782 264.22H294.644V319.245H381.782V264.22Z" fill="url(#paint3_linear_1290_49325)"/>
<path d="M383 0H-72V55H383V0Z" fill="url(#paint4_linear_1290_49325)"/>
<path d="M381.798 74.8623H304.854V243.493H381.798V74.8623Z" fill="url(#paint5_linear_1290_49325)"/>
<path fill-rule="evenodd" clip-rule="evenodd" d="M2.18555 69.5684C9.758 69.5684 15.8968 73.4343 15.8968 78.26L15.8968 88.3789V147.118V147.119V154.684V154.684V163.965L15.8811 163.97V189.131H15.8968V319H-72V208.456C-72.2755 207.769 -72.4219 207.049 -72.4219 206.308V193.043L-72 192.904V192.904L-72.4062 193.037V183.751V183.751V176.191V176.19V117.451L-57.1879 112.441L-72.4062 117.45V78.26C-72.4062 73.4611 -66.2675 69.5684 -58.695 69.5684H2.18555Z" fill="url(#paint6_linear_1290_49325)"/>
<path d="M142.253 47.9209H168.828C170.718 47.9209 172.532 48.6734 173.869 50.0127C175.206 51.3521 175.957 53.1687 175.957 55.0629H135.124C135.124 53.1687 135.875 51.3521 137.212 50.0127C138.549 48.6734 140.362 47.9209 142.253 47.9209Z" fill="#F99B86"/>
<rect x="34.6025" y="73.8623" width="115" height="146" rx="22" fill="url(#paint7_linear_1290_49325)"/>
<rect x="161.603" y="73.8623" width="115" height="146" rx="22" fill="url(#paint8_linear_1290_49325)"/>
<rect x="37.6025" y="76.8623" width="108.984" height="140" rx="20" fill="url(#paint9_linear_1290_49325)"/>
<mask id="mask0_1290_49325" style="mask-type:alpha" maskUnits="userSpaceOnUse" x="37" y="76" width="110" height="141">
<path d="M37.6025 96.8623C37.6025 85.8166 46.5568 76.8623 57.6025 76.8623H126.587C137.633 76.8623 146.587 85.8166 146.587 96.8623V196.862C146.587 207.908 137.633 216.862 126.587 216.862H57.6025C46.5568 216.862 37.6025 207.908 37.6025 196.862V96.8623Z" fill="url(#paint10_linear_1290_49325)"/>
</mask>
<g mask="url(#mask0_1290_49325)">
<path d="M155.454 82.5117C154.949 78.9154 151.158 76.1655 146.61 76.1655C145.346 76.1655 144.336 76.3769 143.325 76.8001C141.051 73.8384 137.008 71.9346 132.712 71.9346C125.637 71.9346 120.078 76.5884 120.078 82.5119V82.7233C115.782 83.1465 112.497 86.3197 112.497 89.9156C112.497 93.9351 116.54 97.3197 121.341 97.3197H154.19C158.991 97.3197 163.034 93.9351 163.034 89.9156C163.034 86.1079 159.75 83.1465 155.454 82.5119L155.454 82.5117Z" fill="url(#paint11_linear_1290_49325)" fill-opacity="0.6"/>
<path d="M36.6214 115.929C37.2804 110.805 42.2218 106.886 48.1514 106.886C49.7987 106.886 51.1162 107.188 52.4338 107.791C55.3986 103.57 60.6692 100.857 66.2696 100.857C75.4933 100.857 82.7413 107.489 82.7413 115.93V116.231C88.3417 116.834 92.624 121.356 92.624 126.48C92.6235 132.207 87.3529 137.03 81.094 137.03H38.2692C32.0104 137.03 26.7392 132.207 26.7392 126.48C26.7392 121.054 31.0215 116.834 36.6219 115.93L36.6214 115.929Z" fill="url(#paint12_linear_1290_49325)" fill-opacity="0.6"/>
</g>
<rect x="164.618" y="76.8623" width="108.984" height="140" rx="20" fill="url(#paint13_linear_1290_49325)"/>
<mask id="mask1_1290_49325" style="mask-type:alpha" maskUnits="userSpaceOnUse" x="171" y="81" width="110" height="141">
<path d="M171.455 101.417C171.455 90.3713 180.409 81.417 191.455 81.417H260.439C271.485 81.417 280.439 90.3713 280.439 101.417V201.417C280.439 212.463 271.485 221.417 260.439 221.417H191.455C180.409 221.417 171.455 212.463 171.455 201.417V101.417Z" fill="url(#paint14_linear_1290_49325)"/>
</mask>
<g mask="url(#mask1_1290_49325)">
<path d="M258.194 114.445C257.368 107.834 251.171 102.778 243.735 102.778C241.669 102.778 240.017 103.167 238.364 103.945C234.646 98.5001 228.037 95 221.013 95C209.446 95 200.357 103.556 200.357 114.446V114.834C193.333 115.612 187.963 121.446 187.963 128.057C187.964 135.446 194.573 141.669 202.422 141.669H256.128C263.977 141.669 270.587 135.446 270.587 128.057C270.587 121.057 265.218 115.612 258.194 114.445Z" fill="url(#paint15_linear_1290_49325)" fill-opacity="0.7"/>
</g>
<rect x="155.5" y="65" width="1" height="244" fill="url(#paint16_linear_1290_49325)"/>
<path d="M219.321 124.129V135.722H245.406L234.627 116.806L219.321 124.129Z" fill="#FFDDAF"/>
<path d="M219.326 135.724V124.131L234.325 116.813V119.433C234.325 121.108 233.926 122.759 233.162 124.249C232.397 125.739 231.289 127.026 229.929 128.003L219.326 135.724Z" fill="#EFC080"/>
<path d="M237.231 119.542H233.463L232.785 121.808C232.534 122.65 232.017 123.388 231.312 123.912C230.607 124.437 229.752 124.719 228.873 124.717H218.83C218.122 124.72 217.421 124.571 216.774 124.281C216.128 123.991 215.55 123.567 215.08 123.037C214.61 122.507 214.259 121.882 214.049 121.205C213.839 120.528 213.776 119.815 213.863 119.111L215.959 101.776L236.12 110.632H237.229C238.402 110.631 239.528 111.093 240.362 111.918C241.196 112.742 241.671 113.863 241.684 115.036V115.036C241.691 115.621 241.582 116.202 241.364 116.745C241.147 117.288 240.824 117.783 240.415 118.202C240.006 118.62 239.518 118.954 238.98 119.184C238.442 119.414 237.864 119.536 237.279 119.542H237.231Z" fill="#FFDDAF"/>
<path fill-rule="evenodd" clip-rule="evenodd" d="M224.162 117.339C223.946 117.254 223.703 117.36 223.619 117.576C223.363 118.227 222.157 119.613 219.959 119.503C219.728 119.491 219.531 119.669 219.519 119.9C219.508 120.131 219.686 120.328 219.917 120.339C222.507 120.469 224.024 118.836 224.399 117.881C224.483 117.666 224.377 117.423 224.162 117.339Z" fill="#333333"/>
<path d="M236.12 110.639C235.7 110.639 235.297 110.806 235 111.103C234.703 111.4 234.537 111.803 234.537 112.223V112.223V114.705H234.054C233.417 114.705 232.806 114.452 232.356 114.002C231.905 113.551 231.652 112.94 231.652 112.303V112.303V111.34C231.652 110.755 231.499 110.18 231.21 109.672C230.92 109.165 230.503 108.741 230 108.443L226.077 106.118L236.12 110.639Z" fill="url(#paint17_linear_1290_49325)"/>
<path fill-rule="evenodd" clip-rule="evenodd" d="M215.517 106.373C215.517 106.373 215.517 106.373 215.569 106.749L215.517 106.373C215.309 106.402 215.164 106.594 215.193 106.801C215.222 107.009 215.414 107.154 215.622 107.125L215.624 107.125L215.632 107.124L215.666 107.119C215.697 107.115 215.743 107.11 215.803 107.104C215.922 107.092 216.094 107.076 216.302 107.064C216.721 107.04 217.279 107.03 217.85 107.085C218.426 107.14 218.988 107.259 219.428 107.477C219.863 107.691 220.149 107.985 220.252 108.388C220.269 108.457 220.265 108.629 220.19 108.94C220.119 109.233 220.002 109.592 219.855 110.001C219.753 110.285 219.637 110.595 219.515 110.918C219.294 111.504 219.057 112.133 218.861 112.735C218.559 113.662 218.32 114.618 218.392 115.36C218.429 115.74 218.551 116.108 218.832 116.38C219.117 116.656 219.51 116.78 219.978 116.78C220.188 116.78 220.358 116.61 220.358 116.401C220.358 116.191 220.188 116.021 219.978 116.021C219.642 116.021 219.463 115.934 219.361 115.835C219.254 115.732 219.175 115.561 219.148 115.287C219.093 114.719 219.28 113.901 219.583 112.97C219.775 112.382 219.999 111.787 220.215 111.214C220.339 110.886 220.46 110.565 220.57 110.257C220.719 109.843 220.848 109.453 220.928 109.118C221.005 108.802 221.056 108.468 220.987 108.2C220.813 107.517 220.329 107.075 219.765 106.796C219.206 106.52 218.541 106.388 217.923 106.329C217.301 106.269 216.701 106.28 216.259 106.306C216.037 106.318 215.853 106.335 215.724 106.348C215.66 106.355 215.609 106.361 215.574 106.365L215.533 106.371L215.522 106.372L215.518 106.372L215.517 106.373Z" fill="#333333"/>
<path d="M224.947 113.039C224.461 113.039 224.067 112.502 224.067 111.839C224.067 111.177 224.461 110.64 224.947 110.64C225.432 110.64 225.826 111.177 225.826 111.839C225.826 112.502 225.432 113.039 224.947 113.039Z" fill="#333333"/>
<path d="M216.753 113.039C216.267 113.039 215.874 112.502 215.874 111.839C215.874 111.177 216.267 110.64 216.753 110.64C217.239 110.64 217.633 111.177 217.633 111.839C217.633 112.502 217.239 113.039 216.753 113.039Z" fill="#333333"/>
<path fill-rule="evenodd" clip-rule="evenodd" d="M238.458 112.468C237.742 112.468 237.056 112.752 236.55 113.258C236.044 113.765 235.759 114.451 235.759 115.167C235.759 115.377 235.929 115.547 236.139 115.547C236.349 115.547 236.519 115.377 236.519 115.167C236.519 114.653 236.723 114.159 237.087 113.795C237.45 113.432 237.944 113.227 238.458 113.227V112.468Z" fill="url(#paint18_linear_1290_49325)"/>
<path d="M237.119 111.122V105.577C237.119 104.278 236.752 103.005 236.059 101.906C235.367 100.807 234.377 99.9271 233.205 99.367L225.343 95.6057C223.854 94.8958 222.144 94.8062 220.589 95.3565C219.034 95.9069 217.761 97.0522 217.05 98.5408C216.92 98.8109 216.811 99.0901 216.723 99.3762L215.984 101.779L237.119 111.122Z" fill="url(#paint19_linear_1290_49325)" stroke="url(#paint20_linear_1290_49325)" stroke-width="1.15606" stroke-linecap="round" stroke-linejoin="round"/>
<path d="M237.119 111.122L208.396 98.4229" stroke="#29D3C6" stroke-width="1.15606" stroke-linecap="round" stroke-linejoin="round"/>
<path d="M174.097 176.979C175.469 175.948 176.406 174.441 176.724 172.754L180.534 152.709C181.493 147.73 184.155 143.24 188.064 140.012C191.973 136.783 196.884 135.017 201.953 135.018H257.778C263.035 135.018 264.236 135.427 268.882 137.886C273.528 140.346 276.165 144.781 279.122 149.128L298.439 177.511C301.705 182.315 305.507 188.347 306.483 192.489C308.334 200.34 303.434 207.858 294.507 207.858H291.548L273.644 192.489C275.336 192.118 276.192 190.589 275.307 189.255L264.761 173.427C263.019 170.815 259.053 171.275 257.951 174.21L245.545 205.981C245.545 205.981 197.362 205.991 194.231 205.991L174.097 176.979Z" fill="url(#paint21_linear_1290_49325)"/>
<path d="M219.447 135V154.316L232.042 135H219.447Z" fill="white"/>
<path d="M210.947 135.399H219.442V129.688C217.874 129.715 216.371 130.323 215.226 131.395L210.947 135.399Z" fill="url(#paint22_linear_1290_49325)"/>
<path d="M231.766 135.4L233.128 131.543C233.32 131.001 233.675 130.532 234.144 130.2C234.614 129.868 235.174 129.689 235.749 129.688H246.18C247.786 129.689 249.332 130.299 250.505 131.397L254.783 135.4H231.766Z" fill="url(#paint23_linear_1290_49325)"/>
<path d="M224.659 243.718C224.176 242.56 222.444 242.903 222.444 244.157V373.923H193.654V206.203H243.969L309.181 358.55L277.621 370.967L224.659 243.718Z" fill="url(#paint24_linear_1290_49325)"/>
<path d="M193.645 205.119V216.298H247.846L245.204 205.119H193.645Z" fill="url(#paint25_linear_1290_49325)"/>
<path d="M209.133 134.793L257.006 224.945H251.118L203.741 134.793H209.133Z" fill="url(#paint26_linear_1290_49325)"/>
<path d="M242.512 208.551L257.556 245.296C257.986 246.352 258.72 247.256 259.666 247.892C260.612 248.529 261.726 248.869 262.865 248.869H278.117C278.762 248.87 279.398 248.713 279.969 248.411C280.54 248.109 281.028 247.672 281.39 247.138C281.752 246.604 281.978 245.988 282.047 245.347C282.117 244.705 282.028 244.055 281.788 243.456L269.338 212.561C268.913 211.498 267.997 210.171 267.049 209.529C266.102 208.886 264.983 208.543 263.839 208.542L253.176 208.546L242.512 208.551Z" fill="url(#paint27_linear_1290_49325)"/>
<path d="M249.027 209.002L249.385 209.882" stroke="url(#paint28_linear_1290_49325)" stroke-width="0.627465" stroke-miterlimit="10" stroke-linecap="round"/>
<path d="M175.696 175.592C178.087 177.431 180.073 183.005 180.368 189.501C180.738 197.62 178.439 204.319 175.25 204.468C174.717 204.483 174.191 204.337 173.743 204.048L172.938 203.368C173.243 204.085 173.703 204.726 174.284 205.245C174.866 205.764 175.554 206.148 176.301 206.37L182.704 208.262C185.73 209.07 189.024 207.138 190.143 203.368C191.701 198.119 193.034 179.95 182.798 173.585C179.33 171.429 173.74 170.88 172.467 173.657L175.696 175.592Z" fill="url(#paint29_linear_1290_49325)"/>
<path d="M138.293 169.32H125.068C123.777 169.32 123.072 168.15 122.602 166.757L115.087 145.147C114.618 143.894 116.134 142.44 117.426 142.44H129.593C130.885 142.44 131.707 142.843 132.176 144.213L140.631 166.757C141.218 168.033 139.584 169.32 138.293 169.32Z" fill="url(#paint30_linear_1290_49325)"/>
<path d="M136.394 163.722H124.864C123.973 163.722 123.6 163.037 123.25 162.142L117.391 146.262C117.009 145.356 117.338 144.682 118.23 144.682H129.76C130.651 144.682 130.658 144.639 131.024 145.475L137.233 162.142C137.615 163.037 137.286 163.722 136.394 163.722Z" fill="white"/>
<path d="M174.316 204.536C174.773 204.829 175.308 204.979 175.851 204.963C179.111 204.815 181.447 197.987 181.067 189.713C180.766 183.094 178.742 177.415 176.306 175.541L144.227 156.972C143.678 156.49 141.799 155.889 141.098 155.682L132.424 153.119L132.272 153.634C132.068 154.325 132.113 155.066 132.401 155.727C132.688 156.388 133.2 156.926 133.845 157.247L135.877 158.466C136.312 158.682 136.692 158.994 136.99 159.377C137.288 159.761 137.495 160.206 137.597 160.681L139.603 166.142C139.807 167.09 138.763 169.279 137.597 169.279L129.708 169.279C129.708 169.279 129.718 172.113 139.162 177.228L145.295 179.995L174.316 204.536Z" fill="#FFDDAF"/>
<path d="M138.317 163.722C139.155 166.075 140.807 170.089 143.732 171.134" stroke="url(#paint31_linear_1290_49325)" stroke-miterlimit="10" stroke-linecap="round"/>
<path d="M285.462 208.957H291.484C297.794 208.957 300.332 204.931 297.472 197.912C296.332 195.115 293.778 191.339 291.484 188.818C283.919 180.505 274.346 177.842 270.034 181.789C268.866 182.704 268.014 184.413 268.247 187.057L285.462 208.957Z" fill="url(#paint32_linear_1290_49325)"/>
<path d="M285.517 208.549C287.547 206.829 285.387 199.859 280.7 194.317C277.315 190.321 273.414 187.534 270.739 186.934C270.535 186.916 270.338 186.907 270.15 186.907H259.07C254.532 186.907 250.075 188.11 246.153 190.394L238.24 194.999C237.277 195.594 236.483 196.426 235.932 197.414C235.381 198.403 235.092 199.516 235.092 200.648V211.341C235.092 212.726 235.602 214.063 236.526 215.095C237.449 216.127 238.721 216.783 240.097 216.937L247.985 217.816V216.109C247.985 215.622 247.864 215.142 247.633 214.713C247.401 214.284 247.067 213.92 246.66 213.653L244.76 212.618C244.678 212.573 244.614 212.502 244.576 212.416C244.539 212.33 244.531 212.234 244.555 212.143C244.578 212.053 244.63 211.972 244.704 211.915C244.778 211.857 244.869 211.826 244.963 211.826H247.346C250.63 211.826 253.179 210.902 255.527 208.606L282.646 208.565L285.517 208.549Z" fill="#FFDDAF"/>
<path fill-rule="evenodd" clip-rule="evenodd" d="M243.24 200.936C243.071 200.665 242.715 200.581 242.444 200.749L238.18 203.388C238.18 203.388 238.18 203.388 238.18 203.388C237.134 204.036 236.271 204.939 235.673 206.014C235.074 207.089 234.76 208.298 234.759 209.528V212.837C234.759 213.156 235.018 213.415 235.337 213.415C235.657 213.415 235.915 213.156 235.915 212.837V209.529C235.915 209.529 235.915 209.529 235.915 209.529C235.916 208.495 236.18 207.479 236.682 206.577C237.185 205.674 237.91 204.915 238.789 204.371L243.052 201.732C243.324 201.564 243.408 201.207 243.24 200.936Z" fill="url(#paint33_linear_1290_49325)"/>
<path fill-rule="evenodd" clip-rule="evenodd" d="M243.24 196.476C243.071 196.205 242.715 196.121 242.444 196.289L238.18 198.928C238.18 198.928 238.18 198.928 238.18 198.928C237.133 199.576 236.27 200.481 235.671 201.557C235.072 202.633 234.758 203.843 234.759 205.075C234.759 205.075 234.759 205.074 234.759 205.075M234.759 205.075V209.346C234.759 209.666 235.018 209.924 235.337 209.924C235.657 209.924 235.915 209.666 235.915 209.346V205.075C235.915 204.04 236.178 203.023 236.681 202.119C237.184 201.215 237.91 200.455 238.789 199.911L243.052 197.272C243.324 197.104 243.408 196.747 243.24 196.476" fill="url(#paint34_linear_1290_49325)"/>
<path fill-rule="evenodd" clip-rule="evenodd" d="M243.123 205.78C242.955 205.508 242.599 205.424 242.327 205.593L238.064 208.233C238.064 208.233 238.064 208.233 238.064 208.233C236.335 209.303 235.294 211.024 234.909 213.167C234.852 213.481 235.061 213.781 235.375 213.838C235.69 213.894 235.99 213.685 236.047 213.371C236.384 211.492 237.27 210.084 238.672 209.216L242.936 206.575C243.208 206.407 243.291 206.051 243.123 205.78Z" fill="url(#paint35_linear_1290_49325)"/>
<rect x="129.92" y="13.0908" width="51.1605" height="24.468" rx="2" fill="url(#paint36_linear_1290_49325)"/>
<path d="M192.534 19.7803L197.759 25.3253L192.534 30.8703" stroke="#D5DCE2" stroke-width="1.5" stroke-miterlimit="10"/>
<path d="M118.465 30.8703L113.24 25.3253L118.465 19.7803" stroke="#D5DCE2" stroke-width="1.5" stroke-miterlimit="10"/>
</g>
<defs>
<linearGradient id="paint0_linear_1290_49325" x1="155.536" y1="-20" x2="155.536" y2="320" gradientUnits="userSpaceOnUse">
<stop stop-color="#F8F8F8"/>
<stop offset="1" stop-color="#EDF0F1"/>
</linearGradient>
<linearGradient id="paint1_linear_1290_49325" x1="155.494" y1="309.168" x2="155.494" y2="65.2041" gradientUnits="userSpaceOnUse">
<stop stop-color="#D4DAE0"/>
<stop offset="1" stop-color="#E7ECF0"/>
</linearGradient>
<linearGradient id="paint2_linear_1290_49325" x1="338.214" y1="254.349" x2="338.214" y2="64.0059" gradientUnits="userSpaceOnUse">
<stop stop-color="#DBE2E8"/>
<stop offset="1" stop-color="#EEF0F2"/>
</linearGradient>
<linearGradient id="paint3_linear_1290_49325" x1="338.214" y1="319.245" x2="338.214" y2="264.22" gradientUnits="userSpaceOnUse">
<stop stop-color="#CBD1D8"/>
<stop offset="1" stop-color="#E8EBEE"/>
</linearGradient>
<linearGradient id="paint4_linear_1290_49325" x1="185.769" y1="0" x2="185.769" y2="55" gradientUnits="userSpaceOnUse">
<stop stop-color="#DFE6ED"/>
<stop offset="1" stop-color="#F0F2F4"/>
</linearGradient>
<linearGradient id="paint5_linear_1290_49325" x1="343.326" y1="243.493" x2="343.326" y2="74.8623" gradientUnits="userSpaceOnUse">
<stop stop-color="#F3F3F3"/>
<stop offset="1" stop-color="#F8F8F8"/>
</linearGradient>
<linearGradient id="paint6_linear_1290_49325" x1="15.8965" y1="319" x2="-68.6565" y2="69.5684" gradientUnits="userSpaceOnUse">
<stop stop-color="#DDE1E6"/>
<stop offset="1" stop-color="#F7F8FA"/>
</linearGradient>
<linearGradient id="paint7_linear_1290_49325" x1="92.1035" y1="219.862" x2="92.1035" y2="73.8623" gradientUnits="userSpaceOnUse">
<stop stop-color="#D7DDE3"/>
<stop offset="1" stop-color="#B8BCC0"/>
</linearGradient>
<linearGradient id="paint8_linear_1290_49325" x1="219.104" y1="219.862" x2="219.104" y2="73.8623" gradientUnits="userSpaceOnUse">
<stop stop-color="#D7DDE3"/>
<stop offset="1" stop-color="#B7BBBF"/>
</linearGradient>
<linearGradient id="paint9_linear_1290_49325" x1="139.911" y1="76.8623" x2="131.719" y2="185.646" gradientUnits="userSpaceOnUse">
<stop stop-color="#75CDFF"/>
<stop offset="0.326042" stop-color="#B2F1FF"/>
<stop offset="0.784375" stop-color="#E1FFF2"/>
<stop offset="1" stop-color="white"/>
</linearGradient>
<linearGradient id="paint10_linear_1290_49325" x1="139.911" y1="76.8623" x2="131.719" y2="185.646" gradientUnits="userSpaceOnUse">
<stop stop-color="#94D9FF"/>
<stop offset="0.326042" stop-color="#B2F1FF"/>
<stop offset="1" stop-color="#E1FFF2"/>
</linearGradient>
<linearGradient id="paint11_linear_1290_49325" x1="137.766" y1="71.9346" x2="137.766" y2="97.3197" gradientUnits="userSpaceOnUse">
<stop stop-color="white" stop-opacity="0.7"/>
<stop offset="1" stop-color="white" stop-opacity="0.4"/>
</linearGradient>
<linearGradient id="paint12_linear_1290_49325" x1="59.6816" y1="100.857" x2="59.6816" y2="137.03" gradientUnits="userSpaceOnUse">
<stop stop-color="white" stop-opacity="0.7"/>
<stop offset="1" stop-color="white" stop-opacity="0.4"/>
</linearGradient>
<linearGradient id="paint13_linear_1290_49325" x1="266.926" y1="76.8623" x2="258.735" y2="185.646" gradientUnits="userSpaceOnUse">
<stop stop-color="#94D9FF"/>
<stop offset="0.326042" stop-color="#B2F1FF"/>
<stop offset="0.784375" stop-color="#E1FFF2"/>
<stop offset="1" stop-color="white"/>
</linearGradient>
<linearGradient id="paint14_linear_1290_49325" x1="273.763" y1="81.417" x2="265.572" y2="190.201" gradientUnits="userSpaceOnUse">
<stop stop-color="#94D9FF"/>
<stop offset="0.326042" stop-color="#B2F1FF"/>
<stop offset="1" stop-color="#E1FFF2"/>
</linearGradient>
<linearGradient id="paint15_linear_1290_49325" x1="229.275" y1="95" x2="229.275" y2="141.669" gradientUnits="userSpaceOnUse">
<stop stop-color="white" stop-opacity="0.7"/>
<stop offset="1" stop-color="white" stop-opacity="0.4"/>
</linearGradient>
<linearGradient id="paint16_linear_1290_49325" x1="156" y1="309" x2="156" y2="65" gradientUnits="userSpaceOnUse">
<stop stop-color="#B2B9C0"/>
<stop offset="1" stop-color="#BDC3C9"/>
</linearGradient>
<linearGradient id="paint17_linear_1290_49325" x1="231.099" y1="106.118" x2="231.099" y2="114.705" gradientUnits="userSpaceOnUse">
<stop stop-color="#888888"/>
<stop offset="1" stop-color="#4A4A4A"/>
</linearGradient>
<linearGradient id="paint18_linear_1290_49325" x1="237.298" y1="112.848" x2="237.298" y2="115.167" gradientUnits="userSpaceOnUse">
<stop stop-color="#888888"/>
<stop offset="1" stop-color="#4A4A4A"/>
</linearGradient>
<linearGradient id="paint19_linear_1290_49325" x1="233.061" y1="96.4893" x2="220.33" y2="109.472" gradientUnits="userSpaceOnUse">
<stop offset="0.00520833" stop-color="#9FFFD1"/>
<stop offset="1" stop-color="#12CBB5"/>
</linearGradient>
<linearGradient id="paint20_linear_1290_49325" x1="233.061" y1="96.4893" x2="220.33" y2="109.472" gradientUnits="userSpaceOnUse">
<stop offset="0.00520833" stop-color="#9FFFD1"/>
<stop offset="1" stop-color="#12CBB5"/>
</linearGradient>
<linearGradient id="paint21_linear_1290_49325" x1="240.484" y1="135.018" x2="240.484" y2="207.858" gradientUnits="userSpaceOnUse">
<stop stop-color="#888888"/>
<stop offset="1" stop-color="#4A4A4A"/>
</linearGradient>
<linearGradient id="paint22_linear_1290_49325" x1="215.195" y1="129.688" x2="215.195" y2="135.399" gradientUnits="userSpaceOnUse">
<stop stop-color="#313131"/>
<stop offset="1" stop-color="#5A5A5A"/>
</linearGradient>
<linearGradient id="paint23_linear_1290_49325" x1="243.274" y1="129.688" x2="243.274" y2="135.4" gradientUnits="userSpaceOnUse">
<stop stop-color="#313131"/>
<stop offset="1" stop-color="#5A5A5A"/>
</linearGradient>
<linearGradient id="paint24_linear_1290_49325" x1="196.703" y1="206.203" x2="229.197" y2="340.671" gradientUnits="userSpaceOnUse">
<stop offset="0.111458" stop-color="#96ECFF"/>
<stop offset="1" stop-color="#6F7BEA"/>
</linearGradient>
<linearGradient id="paint25_linear_1290_49325" x1="220.746" y1="205.119" x2="220.746" y2="216.298" gradientUnits="userSpaceOnUse">
<stop stop-color="#313131"/>
<stop offset="1" stop-color="#5A5A5A"/>
</linearGradient>
<linearGradient id="paint26_linear_1290_49325" x1="246.779" y1="143.121" x2="192.744" y2="167.953" gradientUnits="userSpaceOnUse">
<stop offset="0.00520833" stop-color="#9FFFD1"/>
<stop offset="1" stop-color="#12CBB5"/>
</linearGradient>
<linearGradient id="paint27_linear_1290_49325" x1="274.475" y1="212.267" x2="243.754" y2="235.707" gradientUnits="userSpaceOnUse">
<stop offset="0.00520833" stop-color="#9FFFD1"/>
<stop offset="1" stop-color="#12CBB5"/>
</linearGradient>
<linearGradient id="paint28_linear_1290_49325" x1="249.206" y1="209.002" x2="249.206" y2="209.882" gradientUnits="userSpaceOnUse">
<stop stop-color="#888888"/>
<stop offset="1" stop-color="#4A4A4A"/>
</linearGradient>
<linearGradient id="paint29_linear_1290_49325" x1="185.597" y1="173.979" x2="176.049" y2="206.296" gradientUnits="userSpaceOnUse">
<stop stop-color="#313131"/>
<stop offset="1" stop-color="#5A5A5A"/>
</linearGradient>
<linearGradient id="paint30_linear_1290_49325" x1="119.945" y1="166.837" x2="140.29" y2="151.676" gradientUnits="userSpaceOnUse">
<stop offset="0.00520833" stop-color="#9FFFD1"/>
<stop offset="1" stop-color="#12CBB5"/>
</linearGradient>
<linearGradient id="paint31_linear_1290_49325" x1="141.698" y1="164.5" x2="140.35" y2="170.356" gradientUnits="userSpaceOnUse">
<stop stop-color="#888888"/>
<stop offset="1" stop-color="#4A4A4A"/>
</linearGradient>
<linearGradient id="paint32_linear_1290_49325" x1="283.425" y1="179.995" x2="283.425" y2="208.957" gradientUnits="userSpaceOnUse">
<stop stop-color="#313131"/>
<stop offset="1" stop-color="#5A5A5A"/>
</linearGradient>
<linearGradient id="paint33_linear_1290_49325" x1="239.043" y1="200.662" x2="239.043" y2="213.415" gradientUnits="userSpaceOnUse">
<stop stop-color="#888888"/>
<stop offset="1" stop-color="#4A4A4A"/>
</linearGradient>
<linearGradient id="paint34_linear_1290_49325" x1="239.043" y1="196.202" x2="239.043" y2="209.924" gradientUnits="userSpaceOnUse">
<stop stop-color="#888888"/>
<stop offset="1" stop-color="#4A4A4A"/>
</linearGradient>
<linearGradient id="paint35_linear_1290_49325" x1="239.055" y1="205.506" x2="239.055" y2="213.847" gradientUnits="userSpaceOnUse">
<stop stop-color="#888888"/>
<stop offset="1" stop-color="#4A4A4A"/>
</linearGradient>
<linearGradient id="paint36_linear_1290_49325" x1="137.334" y1="17.1688" x2="175.89" y2="37.5589" gradientUnits="userSpaceOnUse">
<stop stop-color="#DAE2EA"/>
<stop offset="1" stop-color="#C9D4DF"/>
</linearGradient>
<clipPath id="clip0_1290_49325">
<rect width="312" height="320" rx="10" fill="white"/>
</clipPath>
</defs>
</svg>
