<svg width="312" height="192" viewBox="0 0 312 192" fill="none" xmlns="http://www.w3.org/2000/svg">
<circle cx="159.637" cy="72.1651" r="35.6368" fill="url(#paint0_linear_1439_38865)"/>
<mask id="mask0_1439_38865" style="mask-type:alpha" maskUnits="userSpaceOnUse" x="124" y="36" width="72" height="72">
<circle cx="159.637" cy="72.1651" r="35.6368" fill="white"/>
</mask>
<g mask="url(#mask0_1439_38865)">
<circle cx="159.636" cy="72.1645" r="27.8413" fill="url(#paint1_linear_1439_38865)" stroke="white" stroke-opacity="0.793105" stroke-width="0.977616"/>
</g>
<g filter="url(#filter0_d_1439_38865)">
<path fill-rule="evenodd" clip-rule="evenodd" d="M168.598 57.6875C166.784 57.6875 165.309 59.1582 165.309 60.9658V73.5306L154.683 59.6242C153.929 58.6574 153 57.7632 151.324 57.7632H150.714C148.848 57.7632 147.387 59.2202 147.387 61.0801V82.2497C147.387 84.0577 148.863 85.5288 150.676 85.5288C152.489 85.5288 153.965 84.0577 153.965 82.2497V69.1518L165.01 83.5921C165.764 84.5581 166.693 85.4523 168.369 85.4523H168.559C170.426 85.4523 171.887 83.9957 171.887 82.1358V60.9658C171.887 59.1582 170.412 57.6875 168.598 57.6875" fill="white"/>
</g>
<path opacity="0.550409" fill-rule="evenodd" clip-rule="evenodd" d="M115.35 22.8314C113.189 19.6051 111.665 16.0717 110.954 13C110.243 16.076 108.719 19.6148 106.559 22.8452C104.408 26.063 102.052 28.3387 100 29.4081C102.051 30.4757 104.407 32.749 106.559 35.968C108.719 39.1984 110.243 42.7367 110.954 45.8132C111.665 42.7415 113.189 39.2081 115.35 35.9813C117.518 32.7436 119.894 30.463 121.956 29.4063C119.894 28.3496 117.518 26.069 115.35 22.8314Z" fill="#FFE000"/>
<path opacity="0.348331" fill-rule="evenodd" clip-rule="evenodd" d="M206.062 88.3943C205.068 86.9522 204.367 85.373 204.04 84C203.713 85.3748 203.011 86.9566 202.018 88.4005C201.028 89.8387 199.944 90.8559 199 91.3338C199.944 91.811 201.028 92.8271 202.018 94.2658C203.011 95.7097 203.713 97.2912 204.04 98.6663C204.367 97.2933 205.068 95.714 206.062 94.2718C207.06 92.8246 208.153 91.8053 209.102 91.333C208.153 90.8607 207.06 89.8414 206.062 88.3943Z" fill="#FFE000"/>
<path d="M201 55.7949H232.59" stroke="#FFE55E"/>
<path d="M216.795 40L216.795 71.5898" stroke="#FFE55E"/>
<path d="M209.547 48.5469L224.044 63.0441" stroke="#FFE55E"/>
<path d="M224.043 48.5469L209.546 63.0441" stroke="#FFE55E"/>
<path d="M112 110.79H131.58" stroke="#FFE55E" stroke-width="0.8"/>
<path d="M121.789 101L121.789 120.58" stroke="#FFE55E" stroke-width="0.8"/>
<path d="M117.297 106.297L126.283 115.283" stroke="#FFE55E" stroke-width="0.8"/>
<path d="M126.283 106.297L117.297 115.283" stroke="#FFE55E" stroke-width="0.8"/>
<path d="M210.916 163.402C210.916 163.402 228.721 166.114 238.031 156.804C247.34 147.495 244.629 129.69 244.629 129.69C244.629 129.69 226.824 126.979 217.515 136.288C208.205 145.598 210.916 163.402 210.916 163.402Z" fill="url(#paint2_linear_1439_38865)"/>
<path d="M205.934 168.282L227.359 146.856" stroke="#333333"/>
<path d="M218.223 155.773L228.819 153.972" stroke="#333333"/>
<path d="M141.916 163.402C141.916 163.402 159.721 166.114 169.031 156.804C178.34 147.495 175.629 129.69 175.629 129.69C175.629 129.69 157.824 126.979 148.515 136.288C139.205 145.598 141.916 163.402 141.916 163.402Z" fill="url(#paint3_linear_1439_38865)"/>
<path d="M136.934 168.282L158.359 146.856" stroke="#333333"/>
<path d="M149.223 155.773L159.819 153.972" stroke="#333333"/>
<path d="M72.5217 163.402C72.5217 163.402 90.3266 166.114 99.6361 156.804C108.946 147.495 106.235 129.69 106.235 129.69C106.235 129.69 88.4297 126.979 79.1201 136.288C69.8106 145.598 72.5217 163.402 72.5217 163.402Z" fill="url(#paint4_linear_1439_38865)"/>
<path d="M67.5391 168.282L88.9643 146.856" stroke="#333333"/>
<path d="M79.8281 155.773L90.4246 153.972" stroke="#333333"/>
<path fill-rule="evenodd" clip-rule="evenodd" d="M170 20C164.477 20 160 24.4771 160 30V30.7479C160 36.2707 164.477 40.7479 170 40.7479H176.853L180.311 45.9346L183.769 40.7479H190.624C196.146 40.7479 200.624 36.2707 200.624 30.7479V30C200.624 24.4772 196.146 20 190.624 20H170Z" fill="url(#paint5_linear_1439_38865)"/>
<path d="M170.582 34.0967H170.712C171.259 34.0967 171.728 34.0306 172.12 33.8984C172.517 33.7617 172.842 33.5658 173.098 33.3105C173.353 33.0553 173.542 32.7432 173.665 32.374C173.788 32.0003 173.85 31.5765 173.85 31.1025V29.2158C173.85 28.8558 173.813 28.5391 173.74 28.2656C173.672 27.9922 173.572 27.7666 173.439 27.5889C173.312 27.4066 173.161 27.2699 172.988 27.1787C172.82 27.0876 172.633 27.042 172.428 27.042C172.209 27.042 172.015 27.0967 171.847 27.2061C171.678 27.3109 171.534 27.4544 171.416 27.6367C171.302 27.819 171.213 28.0286 171.149 28.2656C171.09 28.498 171.061 28.7419 171.061 28.9971C171.061 29.2523 171.09 29.4961 171.149 29.7285C171.209 29.9564 171.298 30.1592 171.416 30.3369C171.534 30.5101 171.683 30.6491 171.86 30.7539C172.038 30.8542 172.248 30.9043 172.489 30.9043C172.722 30.9043 172.929 30.861 173.111 30.7744C173.298 30.6833 173.455 30.5648 173.583 30.4189C173.715 30.2731 173.815 30.1113 173.884 29.9336C173.957 29.7559 173.993 29.5758 173.993 29.3936L174.643 29.749C174.643 30.068 174.574 30.3825 174.437 30.6924C174.301 31.0023 174.109 31.2848 173.863 31.54C173.622 31.7907 173.341 31.9912 173.022 32.1416C172.703 32.292 172.362 32.3672 171.997 32.3672C171.532 32.3672 171.12 32.2829 170.76 32.1143C170.4 31.9411 170.094 31.7041 169.844 31.4033C169.598 31.098 169.411 30.7425 169.283 30.3369C169.156 29.9313 169.092 29.4915 169.092 29.0176C169.092 28.5345 169.169 28.0811 169.324 27.6572C169.484 27.2334 169.709 26.8597 170.001 26.5361C170.297 26.2126 170.65 25.9596 171.061 25.7773C171.475 25.5905 171.936 25.4971 172.441 25.4971C172.947 25.4971 173.408 25.5951 173.822 25.791C174.237 25.987 174.592 26.265 174.889 26.625C175.185 26.9805 175.413 27.4066 175.572 27.9033C175.736 28.4001 175.818 28.9515 175.818 29.5576V30.2412C175.818 30.8883 175.748 31.4899 175.606 32.0459C175.47 32.6019 175.262 33.1055 174.984 33.5566C174.711 34.0033 174.369 34.3861 173.959 34.7051C173.553 35.0241 173.082 35.2679 172.544 35.4365C172.006 35.6051 171.405 35.6895 170.739 35.6895H170.582V34.0967ZM183.673 29.7422V31.4648C183.673 32.2122 183.593 32.8571 183.433 33.3994C183.274 33.9372 183.044 34.3792 182.743 34.7256C182.447 35.0674 182.093 35.3203 181.683 35.4844C181.273 35.6484 180.817 35.7305 180.316 35.7305C179.915 35.7305 179.541 35.6803 179.195 35.5801C178.849 35.4753 178.536 35.3135 178.258 35.0947C177.985 34.876 177.748 34.6003 177.548 34.2676C177.352 33.9303 177.201 33.5293 177.096 33.0645C176.992 32.5996 176.939 32.0664 176.939 31.4648V29.7422C176.939 28.9948 177.019 28.3545 177.178 27.8213C177.342 27.2835 177.573 26.8438 177.869 26.502C178.17 26.1602 178.525 25.9095 178.935 25.75C179.345 25.5859 179.801 25.5039 180.302 25.5039C180.703 25.5039 181.075 25.5563 181.417 25.6611C181.763 25.7614 182.075 25.9186 182.353 26.1328C182.631 26.347 182.868 26.6227 183.064 26.96C183.26 27.2926 183.41 27.6914 183.515 28.1562C183.62 28.6165 183.673 29.1452 183.673 29.7422ZM181.697 31.7246V29.4756C181.697 29.1156 181.676 28.8011 181.635 28.5322C181.599 28.2633 181.542 28.0355 181.465 27.8486C181.387 27.6572 181.291 27.5023 181.177 27.3838C181.063 27.2653 180.934 27.1787 180.788 27.124C180.642 27.0693 180.48 27.042 180.302 27.042C180.079 27.042 179.881 27.0853 179.708 27.1719C179.539 27.2585 179.396 27.3975 179.277 27.5889C179.159 27.7757 179.067 28.0264 179.004 28.3408C178.944 28.6507 178.915 29.029 178.915 29.4756V31.7246C178.915 32.0846 178.933 32.4014 178.969 32.6748C179.01 32.9482 179.07 33.1829 179.147 33.3789C179.229 33.5703 179.325 33.7275 179.434 33.8506C179.548 33.9691 179.678 34.0557 179.824 34.1104C179.974 34.165 180.138 34.1924 180.316 34.1924C180.535 34.1924 180.729 34.1491 180.897 34.0625C181.07 33.9714 181.216 33.8301 181.335 33.6387C181.458 33.4427 181.549 33.1875 181.608 32.873C181.667 32.5586 181.697 32.1758 181.697 31.7246ZM191.458 29.7422V31.4648C191.458 32.2122 191.379 32.8571 191.219 33.3994C191.06 33.9372 190.829 34.3792 190.529 34.7256C190.232 35.0674 189.879 35.3203 189.469 35.4844C189.059 35.6484 188.603 35.7305 188.102 35.7305C187.701 35.7305 187.327 35.6803 186.981 35.5801C186.634 35.4753 186.322 35.3135 186.044 35.0947C185.771 34.876 185.534 34.6003 185.333 34.2676C185.137 33.9303 184.987 33.5293 184.882 33.0645C184.777 32.5996 184.725 32.0664 184.725 31.4648V29.7422C184.725 28.9948 184.805 28.3545 184.964 27.8213C185.128 27.2835 185.358 26.8438 185.655 26.502C185.955 26.1602 186.311 25.9095 186.721 25.75C187.131 25.5859 187.587 25.5039 188.088 25.5039C188.489 25.5039 188.861 25.5563 189.203 25.6611C189.549 25.7614 189.861 25.9186 190.139 26.1328C190.417 26.347 190.654 26.6227 190.85 26.96C191.046 27.2926 191.196 27.6914 191.301 28.1562C191.406 28.6165 191.458 29.1452 191.458 29.7422ZM189.483 31.7246V29.4756C189.483 29.1156 189.462 28.8011 189.421 28.5322C189.385 28.2633 189.328 28.0355 189.25 27.8486C189.173 27.6572 189.077 27.5023 188.963 27.3838C188.849 27.2653 188.719 27.1787 188.574 27.124C188.428 27.0693 188.266 27.042 188.088 27.042C187.865 27.042 187.667 27.0853 187.494 27.1719C187.325 27.2585 187.181 27.3975 187.063 27.5889C186.944 27.7757 186.853 28.0264 186.789 28.3408C186.73 28.6507 186.701 29.029 186.701 29.4756V31.7246C186.701 32.0846 186.719 32.4014 186.755 32.6748C186.796 32.9482 186.856 33.1829 186.933 33.3789C187.015 33.5703 187.111 33.7275 187.22 33.8506C187.334 33.9691 187.464 34.0557 187.61 34.1104C187.76 34.165 187.924 34.1924 188.102 34.1924C188.321 34.1924 188.514 34.1491 188.683 34.0625C188.856 33.9714 189.002 33.8301 189.12 33.6387C189.244 33.4427 189.335 33.1875 189.394 32.873C189.453 32.5586 189.483 32.1758 189.483 31.7246Z" fill="white"/>
<defs>
<filter id="filter0_d_1439_38865" x="144.568" y="54.8689" width="30.1372" height="33.4781" filterUnits="userSpaceOnUse" color-interpolation-filters="sRGB">
<feFlood flood-opacity="0" result="BackgroundImageFix"/>
<feColorMatrix in="SourceAlpha" type="matrix" values="0 0 0 0 0 0 0 0 0 0 0 0 0 0 0 0 0 0 127 0" result="hardAlpha"/>
<feOffset/>
<feGaussianBlur stdDeviation="1.40931"/>
<feColorMatrix type="matrix" values="0 0 0 0 0.791667 0 0 0 0 0.3325 0 0 0 0 0 0 0 0 0.3 0"/>
<feBlend mode="normal" in2="BackgroundImageFix" result="effect1_dropShadow_1439_38865"/>
<feBlend mode="normal" in="SourceGraphic" in2="effect1_dropShadow_1439_38865" result="shape"/>
</filter>
<linearGradient id="paint0_linear_1439_38865" x1="124" y1="36.5283" x2="124" y2="107.802" gradientUnits="userSpaceOnUse">
<stop stop-color="#FFED69"/>
<stop offset="1" stop-color="#FFD623"/>
</linearGradient>
<linearGradient id="paint1_linear_1439_38865" x1="131.795" y1="44.3232" x2="131.795" y2="100.006" gradientUnits="userSpaceOnUse">
<stop stop-color="#FFF852"/>
<stop offset="1" stop-color="#FFE921"/>
</linearGradient>
<linearGradient id="paint2_linear_1439_38865" x1="235.196" y1="126.485" x2="246.042" y2="156.827" gradientUnits="userSpaceOnUse">
<stop offset="0.09375" stop-color="#8DF1A9"/>
<stop offset="1" stop-color="#3AD8C5"/>
</linearGradient>
<linearGradient id="paint3_linear_1439_38865" x1="166.196" y1="126.485" x2="177.042" y2="156.827" gradientUnits="userSpaceOnUse">
<stop offset="0.09375" stop-color="#8DF1A9"/>
<stop offset="1" stop-color="#3AD8C5"/>
</linearGradient>
<linearGradient id="paint4_linear_1439_38865" x1="96.8013" y1="126.485" x2="107.647" y2="156.827" gradientUnits="userSpaceOnUse">
<stop offset="0.09375" stop-color="#8DF1A9"/>
<stop offset="1" stop-color="#3AD8C5"/>
</linearGradient>
<linearGradient id="paint5_linear_1439_38865" x1="180.637" y1="48.0376" x2="165.137" y2="21.0376" gradientUnits="userSpaceOnUse">
<stop stop-color="#FF614C"/>
<stop offset="1" stop-color="#FF9E80"/>
</linearGradient>
</defs>
</svg>
