<svg width="312" height="200" viewBox="0 0 312 200" fill="none" xmlns="http://www.w3.org/2000/svg">
<path d="M227.681 156.188H216.938V181.187H227.681V156.188Z" fill="url(#paint0_linear_1439_38785)"/>
<path d="M264.134 78.1091C264.134 122.406 245.384 158.316 222.255 158.316C199.127 158.316 180.377 122.406 180.377 78.1091C180.377 33.8117 199.127 5 222.255 5C245.384 5 264.134 33.8117 264.134 78.1091Z" fill="url(#paint1_linear_1439_38785)"/>
<path d="M211.798 43.3119H208.482L210.825 40.9684L209.756 39.8991L207.412 42.2426V38.9258H205.908V42.2426L203.558 39.8991L202.495 40.9684L204.838 43.3119H201.521V44.8166H204.838L202.495 47.1666L203.558 48.2295L205.908 45.886V49.2028H207.412V45.886L209.756 48.2295L210.825 47.1666L208.482 44.8166H211.798V43.3119Z" fill="#F7F7F7"/>
<path d="M251.627 75.2913H248.042L250.575 72.7583L249.426 71.6026L246.893 74.1425V70.5576H245.26V74.1425L242.727 71.6026L241.571 72.7583L244.104 75.2913H240.52V76.9245H244.104L241.571 79.4574L242.727 80.6131L245.26 78.0802V81.6581H246.893V78.0802L249.426 80.6131L250.575 79.4574L248.042 76.9245H251.627V75.2913Z" fill="#F7F7F7"/>
<path d="M222.309 129.615H218.202L221.112 126.713L219.788 125.389L216.885 128.291V124.184H215.014V128.291L212.112 125.389L210.787 126.713L213.69 129.615H209.582V131.487H213.69L210.787 134.389L212.112 135.706L215.014 132.811V136.911H216.885V132.811L219.788 135.706L221.112 134.389L218.202 131.487H222.309V129.615Z" fill="#F7F7F7"/>
<path d="M190.507 114.798C201.077 114.798 209.645 106.23 209.645 95.6604C209.645 85.0908 201.077 76.5225 190.507 76.5225C179.937 76.5225 171.369 85.0908 171.369 95.6604C171.369 106.23 179.937 114.798 190.507 114.798Z" fill="url(#paint2_linear_1439_38785)"/>
<path d="M179.006 100.972L183.028 99.8617L183.339 100.988L179.316 102.098L179.006 100.972ZM192.031 103.105C191.789 103.348 191.514 103.56 191.204 103.741C190.899 103.913 190.572 104.047 190.224 104.143C188.873 104.516 187.702 104.182 186.709 103.142C185.722 102.092 184.88 100.305 184.183 97.7804C183.488 95.2625 183.31 93.2592 183.648 91.7706C183.986 90.282 184.834 89.3503 186.192 88.9755C186.533 88.8813 186.863 88.8269 187.182 88.8123C187.508 88.7958 187.831 88.8206 188.15 88.8866L188.554 90.3503C188.175 90.2273 187.836 90.1557 187.537 90.1355C187.244 90.1134 186.965 90.1391 186.699 90.2126C185.716 90.4838 185.131 91.185 184.944 92.3161C184.764 93.4454 184.967 95.0745 185.555 97.2035C186.194 99.5168 186.857 101.096 187.546 101.941C188.239 102.778 189.081 103.06 190.07 102.787C190.275 102.73 190.464 102.656 190.637 102.564C190.816 102.471 190.984 102.358 191.139 102.228C191.228 102.152 191.315 102.069 191.4 101.979C191.484 101.883 191.563 101.784 191.638 101.682L192.031 103.105ZM192.988 88.3336C192.196 88.5521 191.755 89.2283 191.664 90.3623C191.578 91.4875 191.84 93.1556 192.45 95.3665C193.061 97.5773 193.693 99.1505 194.348 100.086C195.007 101.013 195.733 101.367 196.525 101.149C197.323 100.928 197.766 100.259 197.854 99.1403C197.947 98.0132 197.684 96.3305 197.067 94.0923C196.451 91.861 195.815 90.2887 195.159 89.3756C194.51 88.4606 193.786 88.1132 192.988 88.3336ZM191.054 95.774C190.33 93.1537 190.097 91.1363 190.353 89.7218C190.608 88.3073 191.371 87.4249 192.64 87.0746C193.909 86.7243 195.017 87.0906 195.962 88.1736C196.914 89.2548 197.751 91.1055 198.474 93.7258C199.198 96.3461 199.427 98.361 199.163 99.7705C198.903 101.171 198.139 102.047 196.869 102.397C195.6 102.748 194.495 102.388 193.553 101.319C192.61 100.243 191.777 98.3943 191.054 95.774ZM200.682 91.8955L199.658 92.1779L199.614 92.0168C199.334 91.0017 199.323 90.1665 199.581 89.5114C199.844 88.8494 200.356 88.4132 201.119 88.2026C201.812 88.0114 202.453 88.106 203.044 88.4863C203.633 88.8613 204.037 89.4436 204.254 90.2331C204.446 90.926 204.472 91.9013 204.334 93.1591C204.201 94.4154 203.809 96.4945 203.159 99.3964L206.414 98.498L206.688 99.489L201.797 100.839C202.581 97.3105 203.056 94.8759 203.224 93.5349C203.391 92.1939 203.386 91.2012 203.208 90.5566C203.064 90.0356 202.828 89.6501 202.498 89.3999C202.169 89.1497 201.806 89.0795 201.409 89.1892C200.957 89.3137 200.666 89.5877 200.534 90.0114C200.401 90.4296 200.43 90.9851 200.622 91.678L200.682 91.8955Z" fill="#777777"/>
<path d="M234.164 46.2574C240.74 46.2574 246.072 40.926 246.072 34.3494C246.072 27.7728 240.74 22.4414 234.164 22.4414C227.587 22.4414 222.256 27.7728 222.256 34.3494C222.256 40.926 227.587 46.2574 234.164 46.2574Z" fill="url(#paint3_linear_1439_38785)"/>
<path d="M227.131 37.8L229.634 37.1092L229.827 37.8097L227.324 38.5006L227.131 37.8ZM235.236 39.1272C235.085 39.2783 234.914 39.4101 234.721 39.5228C234.531 39.63 234.328 39.7135 234.112 39.7732C233.271 40.0053 232.542 39.7975 231.925 39.15C231.31 38.4971 230.786 37.3852 230.353 35.8142C229.92 34.2475 229.809 33.001 230.02 32.0748C230.23 31.1485 230.758 30.5688 231.603 30.3356C231.815 30.277 232.02 30.2431 232.219 30.234C232.422 30.2238 232.622 30.2392 232.821 30.2803L233.073 31.191C232.837 31.1145 232.626 31.0699 232.439 31.0574C232.257 31.0436 232.084 31.0596 231.918 31.1053C231.307 31.2741 230.943 31.7104 230.826 32.4142C230.714 33.1168 230.841 34.1305 231.206 35.4552C231.604 36.8946 232.016 37.8772 232.445 38.4032C232.876 38.9238 233.4 39.0992 234.016 38.9292C234.143 38.8941 234.261 38.8479 234.368 38.7908C234.48 38.7325 234.584 38.6627 234.68 38.5813C234.736 38.534 234.79 38.4824 234.843 38.4266C234.895 38.3666 234.945 38.305 234.991 38.2419L235.236 39.1272ZM235.831 29.9362C235.338 30.0721 235.064 30.4929 235.007 31.1984C234.954 31.8986 235.117 32.9365 235.497 34.3122C235.876 35.6878 236.27 36.6667 236.677 37.2488C237.088 37.8254 237.539 38.0458 238.032 37.9099C238.529 37.7727 238.804 37.3562 238.859 36.6603C238.917 35.959 238.753 34.912 238.369 33.5194C237.986 32.131 237.59 31.1527 237.182 30.5845C236.778 30.0152 236.328 29.7991 235.831 29.9362ZM234.628 34.5657C234.178 32.9353 234.032 31.6801 234.191 30.7999C234.351 29.9198 234.825 29.3708 235.615 29.1528C236.404 28.9348 237.093 29.1628 237.681 29.8366C238.274 30.5093 238.795 31.6609 239.245 33.2913C239.695 34.9217 239.838 36.1754 239.673 37.0525C239.512 37.9241 239.036 38.4689 238.246 38.6868C237.457 38.9048 236.769 38.6811 236.183 38.0157C235.596 37.3461 235.078 36.1961 234.628 34.5657ZM240.618 32.1525L239.982 32.3282L239.954 32.2279C239.78 31.5963 239.773 31.0767 239.934 30.669C240.097 30.2571 240.416 29.9857 240.89 29.8547C241.322 29.7357 241.721 29.7945 242.088 30.0312C242.455 30.2645 242.706 30.6268 242.841 31.1181C242.96 31.5492 242.977 32.1561 242.891 32.9387C242.808 33.7204 242.564 35.0141 242.16 36.8197L244.185 36.2607L244.355 36.8773L241.313 37.7171C241.8 35.5218 242.096 34.0069 242.2 33.1725C242.304 32.3381 242.301 31.7204 242.19 31.3194C242.101 30.9952 241.954 30.7553 241.749 30.5996C241.544 30.444 241.318 30.4003 241.071 30.4685C240.79 30.546 240.609 30.7165 240.527 30.9801C240.444 31.2403 240.462 31.586 240.581 32.0171L240.618 32.1525Z" fill="#777777"/>
<path d="M249.877 138.825C257.75 138.825 264.133 132.443 264.133 124.569C264.133 116.696 257.75 110.313 249.877 110.313C242.004 110.313 235.621 116.696 235.621 124.569C235.621 132.443 242.004 138.825 249.877 138.825Z" fill="url(#paint4_linear_1439_38785)"/>
<path d="M241.233 128.048L244.23 127.221L244.461 128.059L241.465 128.886L241.233 128.048ZM250.936 129.637C250.756 129.817 250.551 129.975 250.32 130.11C250.093 130.239 249.85 130.338 249.59 130.41C248.584 130.688 247.711 130.439 246.972 129.664C246.237 128.882 245.609 127.551 245.09 125.67C244.573 123.795 244.44 122.302 244.692 121.194C244.943 120.085 245.575 119.391 246.587 119.111C246.841 119.041 247.087 119.001 247.324 118.99C247.567 118.978 247.808 118.996 248.045 119.045L248.346 120.136C248.064 120.044 247.811 119.991 247.588 119.976C247.37 119.959 247.162 119.978 246.964 120.033C246.232 120.235 245.796 120.757 245.657 121.6C245.523 122.441 245.674 123.655 246.112 125.241C246.588 126.964 247.082 128.14 247.595 128.77C248.112 129.393 248.739 129.603 249.476 129.4C249.628 129.358 249.769 129.302 249.898 129.234C250.031 129.164 250.156 129.08 250.271 128.983C250.338 128.926 250.403 128.865 250.466 128.798C250.529 128.726 250.588 128.652 250.643 128.577L250.936 129.637ZM251.649 118.633C251.059 118.796 250.73 119.3 250.663 120.144C250.599 120.983 250.794 122.225 251.249 123.872C251.703 125.519 252.174 126.691 252.662 127.388C253.153 128.078 253.694 128.342 254.284 128.179C254.878 128.015 255.208 127.516 255.274 126.683C255.343 125.844 255.147 124.59 254.687 122.923C254.228 121.261 253.755 120.09 253.266 119.41C252.783 118.728 252.243 118.469 251.649 118.633ZM250.208 124.176C249.669 122.224 249.495 120.721 249.686 119.667C249.876 118.614 250.444 117.956 251.39 117.695C252.335 117.435 253.16 117.707 253.864 118.514C254.573 119.319 255.197 120.698 255.736 122.65C256.275 124.602 256.446 126.103 256.248 127.153C256.055 128.196 255.486 128.848 254.54 129.109C253.595 129.37 252.771 129.103 252.07 128.306C251.368 127.504 250.747 126.128 250.208 124.176ZM257.38 121.287L256.618 121.497L256.585 121.377C256.376 120.621 256.368 119.999 256.56 119.511C256.756 119.018 257.138 118.693 257.706 118.536C258.222 118.393 258.7 118.464 259.14 118.747C259.579 119.026 259.879 119.46 260.042 120.048C260.184 120.564 260.204 121.291 260.101 122.228C260.002 123.164 259.71 124.712 259.226 126.874L261.65 126.205L261.854 126.943L258.211 127.949C258.795 125.32 259.149 123.507 259.274 122.508C259.398 121.509 259.394 120.769 259.262 120.289C259.155 119.901 258.979 119.614 258.733 119.428C258.488 119.241 258.218 119.189 257.922 119.271C257.586 119.363 257.368 119.568 257.27 119.883C257.171 120.195 257.193 120.608 257.335 121.125L257.38 121.287Z" fill="#777777"/>
<path d="M136.498 177.385H124.063C123.806 177.383 123.557 177.289 123.363 177.12L121.392 175.437C121.338 175.39 121.274 175.359 121.204 175.345C121.135 175.331 121.063 175.335 120.996 175.357C120.928 175.378 120.868 175.417 120.82 175.469C120.771 175.521 120.737 175.584 120.72 175.653L120.401 176.984C120.374 177.099 120.308 177.201 120.216 177.274C120.123 177.347 120.009 177.387 119.891 177.387H114.878C114.739 177.387 114.606 177.332 114.507 177.233C114.409 177.134 114.354 177 114.354 176.861C114.353 176.828 114.356 176.794 114.362 176.762L115.891 168.74H128.55L136.498 177.385Z" fill="url(#paint5_linear_1439_38785)"/>
<path d="M65.3761 169.344L57.8106 159.297C57.702 159.153 57.6484 158.974 57.6595 158.794L57.8285 156.043C57.835 155.94 57.8003 155.838 57.7322 155.76C57.664 155.683 57.5679 155.635 57.4648 155.628C57.4027 155.625 57.3406 155.636 57.2835 155.661L56.0759 156.188C55.9458 156.245 55.8004 156.256 55.6631 156.22C55.5258 156.184 55.4047 156.102 55.3194 155.988L52.4096 152.123C52.3546 152.051 52.3159 151.967 52.2962 151.878C52.2765 151.789 52.2763 151.696 52.2955 151.607C52.3148 151.518 52.353 151.434 52.4077 151.361C52.4623 151.288 52.5321 151.228 52.6122 151.184L59.9213 147.215L67.8147 157.746L65.3761 169.344Z" fill="url(#paint6_linear_1439_38785)"/>
<path d="M103.988 89.9277H96.3711C90.4912 89.9277 85.7246 85.148 85.7246 79.252V53.6252C85.7246 47.7292 90.4912 42.9495 96.3711 42.9495H103.988C109.868 42.9495 114.634 47.7292 114.634 53.6252V79.252C114.634 85.148 109.868 89.9277 103.988 89.9277Z" fill="url(#paint7_linear_1439_38785)"/>
<path d="M94.3027 46.6455C94.3027 46.6455 88.8542 48.7139 88.8542 53.8711V58.2263" stroke="white" stroke-width="0.627557" stroke-miterlimit="10" stroke-linecap="round"/>
<path d="M84.6263 86.2578C82.4834 86.2578 80.7468 84.459 80.7468 82.2379V73.624H88.5059V82.2379C88.5095 84.459 86.7712 86.2578 84.6263 86.2578Z" fill="url(#paint8_linear_1439_38785)"/>
<path d="M147.864 65.7769L146.754 76.9991C146.481 79.4961 145.265 81.7934 143.354 83.4185C141.444 85.0436 138.986 85.873 136.484 85.736C133.983 85.599 131.629 84.5061 129.907 82.6821C128.184 80.858 127.225 78.4415 127.225 75.9296V70.0312C127.225 71.2628 126.737 72.444 125.868 73.3148C125 74.1857 123.822 75.2633 122.594 75.2633H105.447C104.411 75.2633 103.418 74.8507 102.685 74.1162C101.952 73.3818 101.54 71.7972 101.54 70.7584V63.6413C101.54 63.5177 101.501 63.3972 101.429 63.2972C101.356 63.1972 101.254 63.1227 101.137 63.0845C101.019 63.0462 100.893 63.0462 100.776 63.0843C100.659 63.1224 100.556 63.1968 100.484 63.2968L89.8224 94.6345C87.9076 91.0687 82.7104 89.423 78.8809 90.7944L91.2439 56.7772C92.122 54.1297 95.0512 48.7325 96.9789 47.7263C98.9066 46.7202 101.048 46.1953 103.221 46.1964H106.43C107.084 46.1966 107.725 46.0051 108.272 45.6452C108.819 45.2853 109.25 44.7728 109.511 44.1708L109.958 43.126H117.322L117.781 44.2089C118.039 44.8165 118.47 45.3346 119.02 45.6985C119.569 46.0625 120.214 46.2563 120.872 46.2559H123.366C126.948 46.2559 130.383 47.6827 132.916 50.2225C135.449 52.7623 136.872 56.207 136.872 59.7988V64.0385L146.081 63.8377C146.547 63.829 146.997 64.0058 147.332 64.3293C147.668 64.6529 147.862 65.0968 147.872 65.5636C147.874 65.6348 147.871 65.706 147.864 65.7769Z" fill="url(#paint9_linear_1439_38785)"/>
<path d="M98.0295 78.4535C98.0295 78.4535 101.585 74.341 102.68 69.1295C103.774 63.9179 103.804 55.4542 102.968 51.7309C102.133 48.0076 100.316 44.5393 99.1238 44.4414C97.9312 44.3435 96.8154 44.9765 96.8154 44.9765C103.95 53.7484 99.6707 69.4086 98.0295 78.4535Z" fill="url(#paint10_linear_1439_38785)"/>
<path d="M105.873 77.7422H122.154C123.329 77.7418 124.46 78.19 125.316 78.9957C126.173 79.8015 126.692 80.9042 126.766 82.0796L131.788 160.635C131.835 161.375 131.736 162.117 131.497 162.818C131.259 163.519 130.884 164.167 130.396 164.723C129.907 165.28 129.314 165.734 128.651 166.061C127.987 166.387 127.266 166.579 126.528 166.626C126.408 166.634 126.289 166.638 126.169 166.638H116.901C115.482 166.638 114.115 166.1 113.074 165.132C112.034 164.165 111.396 162.838 111.29 161.419L108.061 118.463C108.061 118.463 100.312 145.518 73.5386 157.292C72.6894 157.665 71.7392 157.738 70.843 157.501C69.9467 157.263 69.1572 156.728 68.6031 155.982L61.7282 146.742C61.1839 146.011 60.9441 145.097 61.0596 144.192C61.1751 143.287 61.6368 142.463 62.3471 141.893C68.3603 137.067 82.8107 124.471 88.1905 110.847C93.136 98.3237 98.049 86.8591 100.468 81.285C100.927 80.2311 101.683 79.3344 102.643 78.7051C103.603 78.0758 104.726 77.7411 105.873 77.7422V77.7422Z" fill="url(#paint11_linear_1439_38785)"/>
<path d="M128.099 166.635H115.988V168.984H128.099V166.635Z" fill="white" stroke="url(#paint12_linear_1439_38785)" stroke-width="0.410103" stroke-linejoin="round"/>
<path d="M126.236 166.635V168.984" stroke="url(#paint13_linear_1439_38785)" stroke-width="0.410103" stroke-linejoin="round"/>
<path d="M124.174 166.635V168.984" stroke="url(#paint14_linear_1439_38785)" stroke-width="0.410103" stroke-linejoin="round"/>
<path d="M122.113 166.635V168.984" stroke="url(#paint15_linear_1439_38785)" stroke-width="0.410103" stroke-linejoin="round"/>
<path d="M120.049 166.635V168.984" stroke="url(#paint16_linear_1439_38785)" stroke-width="0.410103" stroke-linejoin="round"/>
<path d="M117.988 166.635V168.984" stroke="url(#paint17_linear_1439_38785)" stroke-width="0.410103" stroke-linejoin="round"/>
<path d="M61.4123 146.412L59.5625 147.812L67.1895 157.943L69.0393 156.543L61.4123 146.412Z" fill="white" stroke="url(#paint18_linear_1439_38785)" stroke-width="0.410103" stroke-linejoin="round"/>
<path d="M60.7754 149.427L62.6242 148.026" stroke="url(#paint19_linear_1439_38785)" stroke-width="0.410103" stroke-linejoin="round"/>
<path d="M62.1055 151.158L63.9554 149.758" stroke="url(#paint20_linear_1439_38785)" stroke-width="0.410103" stroke-linejoin="round"/>
<path d="M63.4355 152.896L65.2855 151.495" stroke="url(#paint21_linear_1439_38785)" stroke-width="0.410103" stroke-linejoin="round"/>
<path d="M64.7676 154.633L66.6164 153.232" stroke="url(#paint22_linear_1439_38785)" stroke-width="0.410103" stroke-linejoin="round"/>
<path d="M65.9688 156.364L67.8176 154.965" stroke="url(#paint23_linear_1439_38785)" stroke-width="0.410103" stroke-linejoin="round"/>
<path d="M107.975 113.513C110.802 108.021 115.747 92.0781 118.219 92.0781" stroke="url(#paint24_linear_1439_38785)" stroke-width="0.627557" stroke-linecap="round" stroke-linejoin="round"/>
<path d="M124.124 74.8965H104.561V77.7391H124.124V74.8965Z" fill="#AEE6FF" stroke="url(#paint25_linear_1439_38785)" stroke-width="0.627557" stroke-linejoin="round"/>
<path d="M89.8677 94.1795C89.8677 94.1795 88.1337 98.1393 83.2126 99.4148C78.2915 100.69 74.5195 96.4291 74.3734 94.6483C74.2272 92.8675 76.3842 92.9285 76.997 94.3382C76.997 94.3382 79.2404 92.0575 79.4852 90.8441C79.73 89.6307 88.3045 89.525 89.8677 94.1795Z" fill="#FFDDAF"/>
<path d="M75.4863 96.5049C75.4863 96.5049 76.7368 98.2487 79.7979 95.2773" stroke="url(#paint26_linear_1439_38785)" stroke-width="0.627557" stroke-linecap="round" stroke-linejoin="round"/>
<path d="M77.6719 98.3369C77.6719 98.3369 79.2491 99.7294 82.0416 96.9555" stroke="url(#paint27_linear_1439_38785)" stroke-width="0.627557" stroke-linecap="round" stroke-linejoin="round"/>
<path d="M81.5413 99.4339C82.1537 99.2934 83.4613 98.942 84.5331 97.7604" stroke="url(#paint28_linear_1439_38785)" stroke-width="0.627557" stroke-linecap="round" stroke-linejoin="round"/>
<path d="M142.086 47.832H136.222C135.765 47.832 135.395 48.2033 135.395 48.6614V59.8521C135.395 60.3102 135.765 60.6815 136.222 60.6815H142.086C142.543 60.6815 142.913 60.3102 142.913 59.8521V48.6614C142.913 48.2033 142.543 47.832 142.086 47.832Z" fill="url(#paint29_linear_1439_38785)"/>
<path d="M147.065 63.7863C145.079 68.0597 141.498 68.8677 138.671 68.2886L136.329 67.8083C135.641 67.6081 135.041 67.1827 134.623 66.6001C134.205 66.0176 133.993 65.3114 134.022 64.5943L134.312 57.4749C134.323 57.1891 134.441 56.9177 134.641 56.7141C134.841 56.5105 135.11 56.3892 135.395 56.374V57.081C135.396 57.5374 135.574 57.9755 135.893 58.3013C136.211 58.6271 136.645 58.8147 137.1 58.8238L141.138 58.9069H141.174C142.134 58.9069 142.914 57.8677 142.914 56.9003L145.284 56.989C145.985 57.0148 146.859 57.5748 146.943 58.3817L147.065 63.7863Z" fill="#FFDDAF"/>
<path d="M134.701 58.8848C134.64 60.3605 136.339 60.9373 137.999 61.1292" stroke="url(#paint30_linear_1439_38785)" stroke-width="0.627557" stroke-miterlimit="10" stroke-linecap="round"/>
<path d="M134.636 61.1699C134.576 62.6456 136.275 63.2236 137.934 63.4144" stroke="url(#paint31_linear_1439_38785)" stroke-width="0.627557" stroke-miterlimit="10" stroke-linecap="round"/>
<path d="M134.459 63.5332C134.399 65.0089 136.097 65.5072 137.758 65.6979" stroke="url(#paint32_linear_1439_38785)" stroke-width="0.627557" stroke-miterlimit="10" stroke-linecap="round"/>
<path d="M136.821 49.7328C137.062 49.7328 137.258 49.5368 137.258 49.2951C137.258 49.0534 137.062 48.8574 136.821 48.8574C136.58 48.8574 136.385 49.0534 136.385 49.2951C136.385 49.5368 136.58 49.7328 136.821 49.7328Z" fill="#00BBAD"/>
<path d="M136.954 49.7328C137.195 49.7328 137.391 49.5368 137.391 49.2951C137.391 49.0534 137.195 48.8574 136.954 48.8574C136.713 48.8574 136.518 49.0534 136.518 49.2951C136.518 49.5368 136.713 49.7328 136.954 49.7328Z" fill="white"/>
<path d="M122.438 45.2888C120.235 46.4258 117.543 45.9748 115.27 44.3412L115.228 44.3639C109.863 47.1517 103.811 45.88 101.71 41.8188C99.6079 37.7575 102.256 32.2029 107.617 29.4114C109.164 28.595 110.85 28.0805 112.588 27.8953C112.467 27.516 112.43 27.115 112.478 26.7198C112.527 26.3247 112.66 25.9447 112.869 25.606C113.077 25.2674 113.357 24.9781 113.688 24.7581C114.019 24.5381 114.393 24.3925 114.786 24.3315C115.178 24.2704 115.579 24.2952 115.961 24.4043C116.343 24.5134 116.696 24.7041 116.998 24.9633C117.299 25.2226 117.541 25.5442 117.707 25.906C117.872 26.2679 117.958 26.6614 117.957 27.0595C117.958 27.4954 117.855 27.925 117.655 28.3122C120.301 28.731 122.96 30.7304 124.534 33.7891C126.87 38.3355 125.933 43.4789 122.438 45.2888Z" fill="url(#paint33_linear_1439_38785)"/>
<path d="M108.199 45.8515L111.868 37.6816H118.652V51.2261L108.199 45.8515Z" fill="#FFDDAF"/>
<path d="M118.652 37.6816V42.8932C117.458 43.0516 116.247 42.7788 115.235 42.1236C114.224 41.4684 113.477 40.4736 113.13 39.3171L112.639 37.6816H118.652Z" fill="#EFC080"/>
<path d="M121.374 33.1273V37.361C121.375 37.7913 121.29 38.2175 121.126 38.6151C120.962 39.0128 120.722 39.3741 120.419 39.6786C120.115 39.983 119.755 40.2246 119.359 40.3895C118.963 40.5544 118.538 40.6394 118.109 40.6396H116.502C115.642 40.6388 114.802 40.3785 114.092 39.8925C113.381 39.4064 112.833 38.7172 112.518 37.9144H111.006C110.444 37.8977 109.91 37.6619 109.518 37.257C109.126 36.852 108.906 36.3098 108.906 35.7455C108.906 35.1811 109.126 34.6389 109.518 34.2339C109.91 33.829 110.444 33.5931 111.006 33.5765H111.209C111.566 33.5766 111.918 33.6714 112.227 33.8513V33.8418L117.814 29.5342C118.762 29.5412 119.668 29.9236 120.336 30.5982C121.004 31.2727 121.378 32.1845 121.378 33.1349L121.374 33.1273Z" fill="#FFDDAF"/>
<path d="M111.954 36.0697C111.954 35.7681 111.835 35.4789 111.622 35.2657C111.409 35.0524 111.121 34.9326 110.82 34.9326" stroke="url(#paint34_linear_1439_38785)" stroke-width="0.476488" stroke-miterlimit="10" stroke-linecap="round"/>
<path d="M121.478 33.1469C121.478 33.1469 120.236 32.6675 119.242 33.5904C118.558 34.2272 118.375 35.9669 118.896 36.6965" stroke="url(#paint35_linear_1439_38785)" stroke-width="0.476488" stroke-miterlimit="10" stroke-linecap="round"/>
<path d="M116.405 35.6686C116.62 35.6686 116.794 35.4302 116.794 35.136C116.794 34.8419 116.62 34.6035 116.405 34.6035C116.19 34.6035 116.016 34.8419 116.016 35.136C116.016 35.4302 116.19 35.6686 116.405 35.6686Z" fill="url(#paint36_linear_1439_38785)"/>
<path d="M120.034 35.6686C120.249 35.6686 120.423 35.4302 120.423 35.136C120.423 34.8419 120.249 34.6035 120.034 34.6035C119.819 34.6035 119.645 34.8419 119.645 35.136C119.645 35.4302 119.819 35.6686 120.034 35.6686Z" fill="url(#paint37_linear_1439_38785)"/>
<path d="M118.992 38.4512C118.992 38.4512 117.753 38.7791 117.365 37.7822" stroke="url(#paint38_linear_1439_38785)" stroke-width="0.476488" stroke-miterlimit="10" stroke-linecap="round"/>
<path d="M114.609 33.5483C114.609 33.5483 115.707 32.6955 117.097 32.9646" stroke="url(#paint39_linear_1439_38785)" stroke-width="0.476488" stroke-miterlimit="10" stroke-linecap="round"/>
<path d="M128.43 54.6221C129.999 60.8976 128.43 67.1732 128.43 67.1732" stroke="white" stroke-width="0.627557" stroke-linecap="round"/>
<path d="M56.791 65.2949H68.7062" stroke="#999999" stroke-width="0.7"/>
<path d="M50.0098 71.3662H68.7056" stroke="#999999" stroke-width="0.7"/>
<path d="M26.3926 155.325C34.0651 165.408 62 181.434 110.051 168.678C135.906 161.815 156.298 147.784 160.273 130.777C163.137 118.521 151.292 117.215 144.589 124.951C137.886 132.687 138.168 139.013 138.644 142.474C140.687 157.341 169.8 156.612 188.543 139.001L185.506 149.892" stroke="url(#paint40_linear_1439_38785)"/>
<defs>
<linearGradient id="paint0_linear_1439_38785" x1="215.984" y1="161.417" x2="228.258" y2="179.696" gradientUnits="userSpaceOnUse">
<stop offset="0.140625" stop-color="#FBBD90"/>
<stop offset="1" stop-color="#DE7756"/>
</linearGradient>
<linearGradient id="paint1_linear_1439_38785" x1="196.458" y1="19.1624" x2="283.631" y2="56.204" gradientUnits="userSpaceOnUse">
<stop offset="0.09375" stop-color="#8DF1A9"/>
<stop offset="1" stop-color="#3AD8C5"/>
</linearGradient>
<linearGradient id="paint2_linear_1439_38785" x1="175.318" y1="83.1951" x2="205.997" y2="108.37" gradientUnits="userSpaceOnUse">
<stop offset="0.401042" stop-color="#FBFBFB"/>
<stop offset="1" stop-color="#CDCDCD"/>
</linearGradient>
<linearGradient id="paint3_linear_1439_38785" x1="224.713" y1="26.5933" x2="243.802" y2="42.2576" gradientUnits="userSpaceOnUse">
<stop offset="0.401042" stop-color="#FBFBFB"/>
<stop offset="1" stop-color="#CDCDCD"/>
</linearGradient>
<linearGradient id="paint4_linear_1439_38785" x1="238.563" y1="115.284" x2="261.416" y2="134.037" gradientUnits="userSpaceOnUse">
<stop offset="0.401042" stop-color="#FBFBFB"/>
<stop offset="1" stop-color="#CDCDCD"/>
</linearGradient>
<linearGradient id="paint5_linear_1439_38785" x1="125.426" y1="168.74" x2="125.426" y2="177.387" gradientUnits="userSpaceOnUse">
<stop stop-color="#888888"/>
<stop offset="1" stop-color="#4A4A4A"/>
</linearGradient>
<linearGradient id="paint6_linear_1439_38785" x1="60.048" y1="147.215" x2="60.048" y2="169.344" gradientUnits="userSpaceOnUse">
<stop stop-color="#888888"/>
<stop offset="1" stop-color="#4A4A4A"/>
</linearGradient>
<linearGradient id="paint7_linear_1439_38785" x1="91.2751" y1="85.5882" x2="120.175" y2="71.7549" gradientUnits="userSpaceOnUse">
<stop offset="0.09375" stop-color="#8DF1A9"/>
<stop offset="1" stop-color="#3AD8C5"/>
</linearGradient>
<linearGradient id="paint8_linear_1439_38785" x1="87.0162" y1="74.7911" x2="79.2539" y2="78.4991" gradientUnits="userSpaceOnUse">
<stop offset="0.09375" stop-color="#8DF1A9"/>
<stop offset="1" stop-color="#3AD8C5"/>
</linearGradient>
<linearGradient id="paint9_linear_1439_38785" x1="113.377" y1="43.126" x2="113.377" y2="94.6345" gradientUnits="userSpaceOnUse">
<stop stop-color="#888888"/>
<stop offset="1" stop-color="#4A4A4A"/>
</linearGradient>
<linearGradient id="paint10_linear_1439_38785" x1="107.724" y1="51.4376" x2="89.8854" y2="50.5051" gradientUnits="userSpaceOnUse">
<stop offset="0.09375" stop-color="#8DF1A9"/>
<stop offset="1" stop-color="#3AD8C5"/>
</linearGradient>
<linearGradient id="paint11_linear_1439_38785" x1="135.004" y1="82.5225" x2="75.8077" y2="167.508" gradientUnits="userSpaceOnUse">
<stop offset="0.111458" stop-color="#A3E9FF"/>
<stop offset="1" stop-color="#97CDFF"/>
</linearGradient>
<linearGradient id="paint12_linear_1439_38785" x1="122.043" y1="166.635" x2="122.043" y2="168.984" gradientUnits="userSpaceOnUse">
<stop stop-color="#888888"/>
<stop offset="1" stop-color="#4A4A4A"/>
</linearGradient>
<linearGradient id="paint13_linear_1439_38785" x1="126.736" y1="166.635" x2="126.736" y2="168.984" gradientUnits="userSpaceOnUse">
<stop stop-color="#888888"/>
<stop offset="1" stop-color="#4A4A4A"/>
</linearGradient>
<linearGradient id="paint14_linear_1439_38785" x1="124.674" y1="166.635" x2="124.674" y2="168.984" gradientUnits="userSpaceOnUse">
<stop stop-color="#888888"/>
<stop offset="1" stop-color="#4A4A4A"/>
</linearGradient>
<linearGradient id="paint15_linear_1439_38785" x1="122.613" y1="166.635" x2="122.613" y2="168.984" gradientUnits="userSpaceOnUse">
<stop stop-color="#888888"/>
<stop offset="1" stop-color="#4A4A4A"/>
</linearGradient>
<linearGradient id="paint16_linear_1439_38785" x1="120.549" y1="166.635" x2="120.549" y2="168.984" gradientUnits="userSpaceOnUse">
<stop stop-color="#888888"/>
<stop offset="1" stop-color="#4A4A4A"/>
</linearGradient>
<linearGradient id="paint17_linear_1439_38785" x1="118.488" y1="166.635" x2="118.488" y2="168.984" gradientUnits="userSpaceOnUse">
<stop stop-color="#888888"/>
<stop offset="1" stop-color="#4A4A4A"/>
</linearGradient>
<linearGradient id="paint18_linear_1439_38785" x1="60.4874" y1="147.112" x2="68.1411" y2="157.223" gradientUnits="userSpaceOnUse">
<stop stop-color="#888888"/>
<stop offset="1" stop-color="#4A4A4A"/>
</linearGradient>
<linearGradient id="paint19_linear_1439_38785" x1="61.6998" y1="148.026" x2="61.6998" y2="149.427" gradientUnits="userSpaceOnUse">
<stop stop-color="#888888"/>
<stop offset="1" stop-color="#4A4A4A"/>
</linearGradient>
<linearGradient id="paint20_linear_1439_38785" x1="63.0304" y1="149.758" x2="63.0304" y2="151.158" gradientUnits="userSpaceOnUse">
<stop stop-color="#888888"/>
<stop offset="1" stop-color="#4A4A4A"/>
</linearGradient>
<linearGradient id="paint21_linear_1439_38785" x1="64.3605" y1="151.495" x2="64.3605" y2="152.896" gradientUnits="userSpaceOnUse">
<stop stop-color="#888888"/>
<stop offset="1" stop-color="#4A4A4A"/>
</linearGradient>
<linearGradient id="paint22_linear_1439_38785" x1="65.692" y1="153.232" x2="65.692" y2="154.633" gradientUnits="userSpaceOnUse">
<stop stop-color="#888888"/>
<stop offset="1" stop-color="#4A4A4A"/>
</linearGradient>
<linearGradient id="paint23_linear_1439_38785" x1="66.8932" y1="154.965" x2="66.8932" y2="156.364" gradientUnits="userSpaceOnUse">
<stop stop-color="#888888"/>
<stop offset="1" stop-color="#4A4A4A"/>
</linearGradient>
<linearGradient id="paint24_linear_1439_38785" x1="113.097" y1="92.0781" x2="113.097" y2="113.513" gradientUnits="userSpaceOnUse">
<stop stop-color="#888888"/>
<stop offset="1" stop-color="#4A4A4A"/>
</linearGradient>
<linearGradient id="paint25_linear_1439_38785" x1="114.342" y1="74.8965" x2="114.342" y2="77.7391" gradientUnits="userSpaceOnUse">
<stop stop-color="#888888"/>
<stop offset="1" stop-color="#4A4A4A"/>
</linearGradient>
<linearGradient id="paint26_linear_1439_38785" x1="77.5216" y1="95.614" x2="77.9793" y2="96.6597" gradientUnits="userSpaceOnUse">
<stop stop-color="#888888"/>
<stop offset="1" stop-color="#4A4A4A"/>
</linearGradient>
<linearGradient id="paint27_linear_1439_38785" x1="79.7597" y1="97.4231" x2="80.1658" y2="98.351" gradientUnits="userSpaceOnUse">
<stop stop-color="#888888"/>
<stop offset="1" stop-color="#4A4A4A"/>
</linearGradient>
<linearGradient id="paint28_linear_1439_38785" x1="82.9706" y1="98.4442" x2="83.1541" y2="98.8634" gradientUnits="userSpaceOnUse">
<stop stop-color="#888888"/>
<stop offset="1" stop-color="#4A4A4A"/>
</linearGradient>
<linearGradient id="paint29_linear_1439_38785" x1="136.838" y1="49.019" x2="144.491" y2="52.5019" gradientUnits="userSpaceOnUse">
<stop offset="0.09375" stop-color="#8DF1A9"/>
<stop offset="1" stop-color="#3AD8C5"/>
</linearGradient>
<linearGradient id="paint30_linear_1439_38785" x1="136.349" y1="58.8848" x2="136.349" y2="61.1292" gradientUnits="userSpaceOnUse">
<stop stop-color="#888888"/>
<stop offset="1" stop-color="#4A4A4A"/>
</linearGradient>
<linearGradient id="paint31_linear_1439_38785" x1="136.285" y1="61.1699" x2="136.285" y2="63.4144" gradientUnits="userSpaceOnUse">
<stop stop-color="#888888"/>
<stop offset="1" stop-color="#4A4A4A"/>
</linearGradient>
<linearGradient id="paint32_linear_1439_38785" x1="136.107" y1="63.5332" x2="136.107" y2="65.6979" gradientUnits="userSpaceOnUse">
<stop stop-color="#888888"/>
<stop offset="1" stop-color="#4A4A4A"/>
</linearGradient>
<linearGradient id="paint33_linear_1439_38785" x1="113.404" y1="24.2988" x2="113.404" y2="45.9194" gradientUnits="userSpaceOnUse">
<stop stop-color="#888888"/>
<stop offset="1" stop-color="#4A4A4A"/>
</linearGradient>
<linearGradient id="paint34_linear_1439_38785" x1="111.387" y1="34.9326" x2="111.387" y2="36.0697" gradientUnits="userSpaceOnUse">
<stop stop-color="#888888"/>
<stop offset="1" stop-color="#4A4A4A"/>
</linearGradient>
<linearGradient id="paint35_linear_1439_38785" x1="120.037" y1="33.0225" x2="120.037" y2="36.6965" gradientUnits="userSpaceOnUse">
<stop stop-color="#888888"/>
<stop offset="1" stop-color="#4A4A4A"/>
</linearGradient>
<linearGradient id="paint36_linear_1439_38785" x1="116.405" y1="34.6035" x2="116.405" y2="35.6686" gradientUnits="userSpaceOnUse">
<stop stop-color="#888888"/>
<stop offset="1" stop-color="#4A4A4A"/>
</linearGradient>
<linearGradient id="paint37_linear_1439_38785" x1="120.034" y1="34.6035" x2="120.034" y2="35.6686" gradientUnits="userSpaceOnUse">
<stop stop-color="#888888"/>
<stop offset="1" stop-color="#4A4A4A"/>
</linearGradient>
<linearGradient id="paint38_linear_1439_38785" x1="118.179" y1="37.7822" x2="118.179" y2="38.5028" gradientUnits="userSpaceOnUse">
<stop stop-color="#888888"/>
<stop offset="1" stop-color="#4A4A4A"/>
</linearGradient>
<linearGradient id="paint39_linear_1439_38785" x1="115.853" y1="32.9121" x2="115.853" y2="33.5483" gradientUnits="userSpaceOnUse">
<stop stop-color="#888888"/>
<stop offset="1" stop-color="#4A4A4A"/>
</linearGradient>
<linearGradient id="paint40_linear_1439_38785" x1="28.947" y1="158.948" x2="191.246" y2="138.683" gradientUnits="userSpaceOnUse">
<stop stop-color="#DBDBDB"/>
<stop offset="1" stop-color="#9C9C9C"/>
</linearGradient>
</defs>
</svg>
