<svg width="312" height="192" viewBox="0 0 312 192" fill="none" xmlns="http://www.w3.org/2000/svg">
<path d="M42.7691 97.5844C49.3103 86.0605 68.2319 59.854 91.5889 47.2192C120.785 31.4258 141.264 36.6983 133.933 62.7722C126.238 90.1425 90.4712 77.629 138.838 36.6983C187.205 -4.23231 222.186 0.204074 228.501 1.49949C237.001 3.24309 244.437 8.99948 243.001 22.4995C241.724 34.4995 237.933 40.9765 235.683 45.1128C239.191 39.8027 254.895 24.1151 270.001 13.9995L251.501 17.4995" stroke="url(#paint0_linear_1439_38708)" stroke-width="1.2"/>
<path d="M243 63.9102H266.821" stroke="#AEE6FF" stroke-width="0.897339"/>
<path d="M254.91 52L254.91 75.8209" stroke="#AEE6FF" stroke-width="0.897339"/>
<path d="M249.445 58.4443L260.377 69.3762" stroke="#AEE6FF" stroke-width="0.897339"/>
<path d="M260.377 58.4443L249.445 69.3762" stroke="#AEE6FF" stroke-width="0.897339"/>
<path d="M251.876 119.205C251.876 119.205 261.272 120.636 266.185 115.723C271.098 110.81 269.667 101.414 269.667 101.414C269.667 101.414 260.271 99.9828 255.358 104.896C250.445 109.809 251.876 119.205 251.876 119.205Z" fill="url(#paint1_linear_1439_38708)"/>
<path d="M260.73 110.52L249.443 121.807" stroke="#333333" stroke-width="0.5"/>
<path d="M256.326 115.005L261.53 114.411" stroke="#333333" stroke-width="0.5"/>
<path d="M222.545 133H214.521V171.16H222.545V133Z" fill="url(#paint2_linear_1439_38708)"/>
<path d="M218.534 90.8721C226.632 90.8721 233.196 85.8388 233.196 79.6299C233.196 73.421 226.632 68.3877 218.534 68.3877C210.436 68.3877 203.871 73.421 203.871 79.6299C203.871 85.8388 210.436 90.8721 218.534 90.8721Z" fill="url(#paint3_linear_1439_38708)"/>
<path d="M218.534 134.021C234.679 134.021 247.768 122.856 247.768 109.084C247.768 95.3113 234.679 84.1465 218.534 84.1465C202.389 84.1465 189.301 95.3113 189.301 109.084C189.301 122.856 202.389 134.021 218.534 134.021Z" fill="url(#paint4_linear_1439_38708)"/>
<path d="M199.626 152.938C210.051 152.938 218.502 144.984 218.502 135.172C218.502 125.36 210.051 117.405 199.626 117.405C189.201 117.405 180.75 125.36 180.75 135.172C180.75 144.984 189.201 152.938 199.626 152.938Z" fill="url(#paint5_linear_1439_38708)"/>
<path d="M237.378 152.938C247.803 152.938 256.254 144.984 256.254 135.172C256.254 125.36 247.803 117.405 237.378 117.405C226.953 117.405 218.502 125.36 218.502 135.172C218.502 144.984 226.953 152.938 237.378 152.938Z" fill="url(#paint6_linear_1439_38708)"/>
<path d="M218.534 109.495H223.322C223.322 109.495 225.239 112.542 224.256 115.709C223.415 118.406 220.734 119.711 218.534 119.711C216.333 119.711 213.652 118.406 212.812 115.709C211.829 112.542 213.745 109.495 213.745 109.495H218.534Z" stroke="#333333" stroke-width="1.05083" stroke-miterlimit="10"/>
<path d="M213.756 106.349L212.304 105.022L210.852 106.349" stroke="#333333" stroke-width="1.05083" stroke-miterlimit="10"/>
<path d="M226.217 106.349L224.765 105.022L223.312 106.349" stroke="#333333" stroke-width="1.05083" stroke-miterlimit="10"/>
<path d="M218.534 107.868C219.917 107.868 221.037 107.028 221.037 105.993C221.037 104.957 219.917 104.117 218.534 104.117C217.152 104.117 216.031 104.957 216.031 105.993C216.031 107.028 217.152 107.868 218.534 107.868Z" fill="url(#paint7_linear_1439_38708)"/>
<path d="M145.107 140H138.178V171.053H145.107V140Z" fill="url(#paint8_linear_1439_38708)"/>
<path d="M141.643 126.609C151.402 126.609 159.313 119.194 159.313 110.048C159.313 100.901 151.402 93.4863 141.643 93.4863C131.884 93.4863 123.973 100.901 123.973 110.048C123.973 119.194 131.884 126.609 141.643 126.609Z" fill="url(#paint9_linear_1439_38708)"/>
<path d="M141.643 158.422C153.315 158.422 162.778 149.154 162.778 137.72C162.778 126.287 153.315 117.019 141.643 117.019C129.97 117.019 120.508 126.287 120.508 137.72C120.508 149.154 129.97 158.422 141.643 158.422Z" fill="url(#paint10_linear_1439_38708)"/>
<path d="M136.396 124.881L137.918 124.881" stroke="#333333" stroke-width="1.32175" stroke-miterlimit="10"/>
<path d="M145.367 124.881L146.889 124.881" stroke="#333333" stroke-width="1.32175" stroke-miterlimit="10"/>
<path d="M137.02 127.711L137.893 129.091H145.756L146.61 127.711" stroke="#333333" stroke-width="0.991314"/>
<path d="M141.643 129.5V127.215" stroke="#333333" stroke-width="0.991314"/>
<path d="M141.643 126.37C142.555 126.37 143.295 125.816 143.295 125.132C143.295 124.448 142.555 123.894 141.643 123.894C140.73 123.894 139.99 124.448 139.99 125.132C139.99 125.816 140.73 126.37 141.643 126.37Z" fill="url(#paint11_linear_1439_38708)"/>
<path d="M79.3504 141H72.6895V170.849H79.3504V141Z" fill="url(#paint12_linear_1439_38708)"/>
<path d="M75.6851 158.903C86.9052 158.903 96.001 149.993 96.001 139.003C96.001 128.013 86.9052 119.104 75.6851 119.104C64.4649 119.104 55.3691 128.013 55.3691 139.003C55.3691 149.993 64.4649 158.903 75.6851 158.903Z" fill="url(#paint13_linear_1439_38708)"/>
<path d="M70.4414 127.322L71.904 127.322" stroke="#333333" stroke-width="1.28137" stroke-miterlimit="10"/>
<path d="M79.0645 127.321L80.5271 127.321" stroke="#333333" stroke-width="1.28137" stroke-miterlimit="10"/>
<path d="M71.1289 130.264L71.9526 131.59H79.3662L80.1713 130.264" stroke="#333333" stroke-width="0.96103"/>
<path d="M75.4834 129.022C76.4105 129.022 77.1621 128.459 77.1621 127.765C77.1621 127.07 76.4105 126.507 75.4834 126.507C74.5563 126.507 73.8047 127.07 73.8047 127.765C73.8047 128.459 74.5563 129.022 75.4834 129.022Z" fill="url(#paint14_linear_1439_38708)"/>
<path d="M193.102 43.7646L205.016 67.442" stroke="#AEE6FF" stroke-width="0.723114" stroke-dasharray="1.81 1.81"/>
<circle cx="190.193" cy="38.1593" r="3.19212" transform="rotate(28.5913 190.193 38.1593)" stroke="#AEE6FF" stroke-width="0.723114"/>
<circle cx="180.681" cy="53.5773" r="2.83056" transform="rotate(-44.4251 180.681 53.5773)" fill="#AEE6FF"/>
<path d="M184.283 56.9709L198.269 71.6815" stroke="#AEE6FF" stroke-width="0.723114"/>
<defs>
<linearGradient id="paint0_linear_1439_38708" x1="43.1343" y1="98.792" x2="270.251" y2="15.4686" gradientUnits="userSpaceOnUse">
<stop stop-color="#ADADAD"/>
<stop offset="1" stop-color="#C0C0C0"/>
</linearGradient>
<linearGradient id="paint1_linear_1439_38708" x1="264.689" y1="99.7222" x2="270.413" y2="115.735" gradientUnits="userSpaceOnUse">
<stop offset="0.09375" stop-color="#8DF1A9"/>
<stop offset="1" stop-color="#3AD8C5"/>
</linearGradient>
<linearGradient id="paint2_linear_1439_38708" x1="213.809" y1="140.982" x2="233.077" y2="155.021" gradientUnits="userSpaceOnUse">
<stop offset="0.140625" stop-color="#FBBD90"/>
<stop offset="1" stop-color="#DE7756"/>
</linearGradient>
<linearGradient id="paint3_linear_1439_38708" x1="209.501" y1="70.4647" x2="227.259" y2="88.4788" gradientUnits="userSpaceOnUse">
<stop offset="0.09375" stop-color="#94FDAB"/>
<stop offset="1" stop-color="#09C497"/>
</linearGradient>
<linearGradient id="paint4_linear_1439_38708" x1="200.526" y1="88.7536" x2="239.752" y2="124.52" gradientUnits="userSpaceOnUse">
<stop offset="0.09375" stop-color="#94FDAB"/>
<stop offset="1" stop-color="#09C497"/>
</linearGradient>
<linearGradient id="paint5_linear_1439_38708" x1="187.998" y1="120.688" x2="215.561" y2="143.465" gradientUnits="userSpaceOnUse">
<stop offset="0.09375" stop-color="#94FDAB"/>
<stop offset="1" stop-color="#09C497"/>
</linearGradient>
<linearGradient id="paint6_linear_1439_38708" x1="225.75" y1="120.688" x2="253.313" y2="143.465" gradientUnits="userSpaceOnUse">
<stop offset="0.09375" stop-color="#94FDAB"/>
<stop offset="1" stop-color="#09C497"/>
</linearGradient>
<linearGradient id="paint7_linear_1439_38708" x1="215.587" y1="104.902" x2="216.409" y2="108.703" gradientUnits="userSpaceOnUse">
<stop offset="0.140625" stop-color="#FBBD90"/>
<stop offset="1" stop-color="#DE7756"/>
</linearGradient>
<linearGradient id="paint8_linear_1439_38708" x1="137.563" y1="146.496" x2="153.504" y2="158.823" gradientUnits="userSpaceOnUse">
<stop offset="0.140625" stop-color="#FBBD90"/>
<stop offset="1" stop-color="#DE7756"/>
</linearGradient>
<linearGradient id="paint9_linear_1439_38708" x1="130.758" y1="96.546" x2="156.471" y2="117.885" gradientUnits="userSpaceOnUse">
<stop offset="0.09375" stop-color="#94FDAB"/>
<stop offset="1" stop-color="#09C497"/>
</linearGradient>
<linearGradient id="paint10_linear_1439_38708" x1="128.623" y1="120.843" x2="160.475" y2="146.136" gradientUnits="userSpaceOnUse">
<stop offset="0.09375" stop-color="#94FDAB"/>
<stop offset="1" stop-color="#09C497"/>
</linearGradient>
<linearGradient id="paint11_linear_1439_38708" x1="139.697" y1="124.412" x2="140.24" y2="126.921" gradientUnits="userSpaceOnUse">
<stop offset="0.140625" stop-color="#FBBD90"/>
<stop offset="1" stop-color="#DE7756"/>
</linearGradient>
<linearGradient id="paint12_linear_1439_38708" x1="72.0983" y1="147.244" x2="87.4218" y2="159.094" gradientUnits="userSpaceOnUse">
<stop offset="0.140625" stop-color="#FBBD90"/>
<stop offset="1" stop-color="#DE7756"/>
</linearGradient>
<linearGradient id="paint13_linear_1439_38708" x1="63.1702" y1="122.78" x2="93.788" y2="147.093" gradientUnits="userSpaceOnUse">
<stop offset="0.09375" stop-color="#94FDAB"/>
<stop offset="1" stop-color="#09C497"/>
</linearGradient>
<linearGradient id="paint14_linear_1439_38708" x1="73.5067" y1="127.033" x2="74.058" y2="129.583" gradientUnits="userSpaceOnUse">
<stop offset="0.140625" stop-color="#FBBD90"/>
<stop offset="1" stop-color="#DE7756"/>
</linearGradient>
</defs>
</svg>
