<svg width="248" height="248" viewBox="0 0 248 248" fill="none" xmlns="http://www.w3.org/2000/svg">
<g clip-path="url(#clip0_1290_27030)">
<rect width="248" height="248" fill="white"/>
<path d="M170.404 165.848C170.404 165.848 182.085 167.627 188.193 161.519C194.3 155.412 192.522 143.731 192.522 143.731C192.522 143.731 180.841 141.952 174.733 148.06C168.626 154.167 170.404 165.848 170.404 165.848Z" fill="url(#paint0_linear_1290_27030)"/>
<path d="M167.136 169.048L181.192 154.992" stroke="#333333" stroke-width="0.488551"/>
<path d="M175.198 160.842L182.15 159.66" stroke="#333333" stroke-width="0.488551"/>
<path d="M141.324 66.7876L141.272 65.5159L134.318 65.7933L136.168 60.2728L134.965 59.8682L132.052 68.5565L128.133 63.4059L127.121 64.1747L131.566 70.0132L130.358 73.6088L131.566 74.0134L133.884 67.0824L141.324 66.7876Z" fill="url(#paint1_linear_1290_27030)"/>
<path d="M116.544 60.4575L115.313 60.1338L112.63 70.2037L106.775 63.001L105.786 63.8045L114.735 74.7993L115.723 73.9958L113.625 71.4234L116.544 60.4575Z" fill="url(#paint2_linear_1290_27030)"/>
<path d="M110.174 62.3071L107.116 61.9949L109.497 60.0526L108.694 59.0699L106.312 61.0064L106.624 57.9485L105.358 57.8213L105.046 60.8792L103.104 58.4918L102.121 59.2954L104.058 61.6828L101 61.3648L100.873 62.6308L103.931 62.9429L101.543 64.8852L102.347 65.8737L104.734 63.9314L104.416 66.9894L105.682 67.1223L105.994 64.0644L107.937 66.446L108.925 65.6425L106.983 63.2609L110.041 63.573L110.174 62.3071Z" fill="url(#paint3_linear_1290_27030)"/>
<path d="M98.5987 72.1018L98.0498 73.249L109.631 78.7904L110.18 77.6432L98.5987 72.1018Z" fill="url(#paint4_linear_1290_27030)"/>
<path d="M100.987 73.2444L98.9006 72.2443L101.086 71.4755L100.664 70.2731L98.4728 71.0477L99.4786 68.9551L98.3283 68.406L97.3282 70.4928L96.5594 68.3135L95.357 68.7355L96.1258 70.9205L94.039 69.9205L93.4899 71.0651L95.5825 72.0651L93.3916 72.8397L93.8136 74.0363L96.0045 73.2675L95.0044 75.3601L96.149 75.9035L97.149 73.8167L97.9236 76.0017L99.1202 75.5798L98.3514 73.3947L100.444 74.3947L100.987 73.2444Z" fill="url(#paint5_linear_1290_27030)"/>
<path d="M149.096 72.1922L137.541 77.7129L138.088 78.8575L149.643 73.3368L149.096 72.1922Z" fill="url(#paint6_linear_1290_27030)"/>
<path d="M147.006 73.1877L149.093 72.1877L146.908 71.4188L147.33 70.2165L149.521 70.9911L148.521 68.8985L149.665 68.3493L150.665 70.4361L151.434 68.2568L152.636 68.6788L151.868 70.8639L153.954 69.8639L154.503 71.0084L152.411 72.0085L154.602 72.7831L154.18 73.9797L151.989 73.2109L152.989 75.3034L151.844 75.8468L150.844 73.76L150.07 75.9451L148.873 75.5231L149.642 73.338L147.549 74.3381L147.006 73.1877Z" fill="url(#paint7_linear_1290_27030)"/>
<path d="M124.37 70.823C131.353 70.823 138.051 73.596 142.99 78.5324C147.93 83.4688 150.707 90.1646 150.712 97.1481V183.453H98.0215V97.1481C98.0215 90.1616 100.797 83.4613 105.737 78.5212C110.677 73.581 117.377 70.8057 124.364 70.8057L124.37 70.823Z" fill="url(#paint8_linear_1290_27030)"/>
<path fill-rule="evenodd" clip-rule="evenodd" d="M119.008 86.5459H116.375V85.043H119.008V86.5459Z" fill="#333333"/>
<path fill-rule="evenodd" clip-rule="evenodd" d="M132.105 86.5459H129.472V85.043H132.105V86.5459Z" fill="#333333"/>
<path fill-rule="evenodd" clip-rule="evenodd" d="M117.775 91.7248V90.5859H116.388V93.1121H132.087V90.5859H130.7V91.7248H117.775Z" fill="#333333"/>
<path d="M140.521 59.7932L137.608 58.8162L140.36 57.4405L139.793 56.3075L137.041 57.6775L138.018 54.7582L136.81 54.3594L135.833 57.2728L134.463 54.5212L133.325 55.0877L134.695 57.8393L131.781 56.8624L131.376 58.0705L134.29 59.0475L131.538 60.4175L132.105 61.5563L134.856 60.1805L133.879 63.0997L135.088 63.5044L136.065 60.5851L137.435 63.3367L138.573 62.7702L137.203 60.0186L140.117 60.9956L140.521 59.7932Z" fill="url(#paint9_linear_1290_27030)"/>
<path d="M130.012 62.9544L128.798 62.7867L129.769 62.0468L129 61.0352L128.029 61.7751L128.191 60.5612L126.93 60.3936L126.763 61.6075L126.023 60.6306L125.011 61.3994L125.751 62.3763L124.543 62.2087L124.37 63.4689L125.584 63.6365L124.607 64.3764L125.375 65.388L126.352 64.6481L126.185 65.862L127.451 66.0355L127.613 64.8215L128.352 65.7927L129.364 65.0239L128.624 64.0469L129.838 64.2146L130.012 62.9544Z" fill="url(#paint10_linear_1290_27030)"/>
<path d="M119.497 59.4814L117.849 59.0421L119.323 58.1866L118.687 57.0882L117.208 57.9438L117.647 56.2905L116.421 55.9668L115.982 57.6143L115.127 56.1402L114.022 56.7761L114.878 58.2502L113.23 57.8108L112.907 59.0421L114.554 59.4814L113.08 60.337L113.716 61.4353L115.19 60.5798L114.751 62.233L115.982 62.5567L116.421 60.9093L117.277 62.3833L118.375 61.7474L117.52 60.2734L119.173 60.7127L119.497 59.4814Z" fill="url(#paint11_linear_1290_27030)"/>
<path d="M144.805 66.6483L144.753 65.3824L143.533 65.4286L144.359 64.5268L143.429 63.6655L142.596 64.5673L142.55 63.3418L141.278 63.3938L141.325 64.6135L140.423 63.7869L139.562 64.7176L140.463 65.55L139.238 65.5962L139.29 66.868L140.515 66.8217L139.683 67.7177L140.619 68.5848L141.446 67.6831L141.498 68.9086L142.77 68.8565L142.718 67.631L143.62 68.4634L144.481 67.527L143.579 66.7004L144.805 66.6483Z" fill="url(#paint12_linear_1290_27030)"/>
<path d="M124.001 88.703C125.534 88.703 126.776 87.7711 126.776 86.6215C126.776 85.472 125.534 84.54 124.001 84.54C122.468 84.54 121.226 85.472 121.226 86.6215C121.226 87.7711 122.468 88.703 124.001 88.703Z" fill="url(#paint13_linear_1290_27030)"/>
<circle cx="123.991" cy="24.5868" r="20.7645" fill="url(#paint14_linear_1290_27030)"/>
<mask id="mask0_1290_27030" style="mask-type:alpha" maskUnits="userSpaceOnUse" x="103" y="3" width="42" height="43">
<circle cx="123.991" cy="24.5868" r="20.7645" fill="white"/>
</mask>
<g mask="url(#mask0_1290_27030)">
<circle cx="123.99" cy="24.5865" r="16.2223" fill="url(#paint15_linear_1290_27030)" stroke="white" stroke-opacity="0.793105" stroke-width="0.90025"/>
</g>
<g filter="url(#filter0_d_1290_27030)">
<path fill-rule="evenodd" clip-rule="evenodd" d="M129.212 16.1514C128.155 16.1514 127.295 17.0083 127.295 18.0615V25.3827L121.104 17.2798C120.665 16.7165 120.123 16.1955 119.147 16.1955H118.791C117.704 16.1955 116.853 17.0444 116.853 18.1281V30.463C116.853 31.5165 117.712 32.3736 118.769 32.3736C119.826 32.3736 120.686 31.5165 120.686 30.463V22.8312L127.121 31.2452C127.56 31.808 128.102 32.3291 129.078 32.3291H129.189C130.277 32.3291 131.128 31.4804 131.128 30.3967V18.0615C131.128 17.0083 130.268 16.1514 129.212 16.1514" fill="white"/>
</g>
<path opacity="0.550409" fill-rule="evenodd" clip-rule="evenodd" d="M159.508 17.876C158.268 16.4742 157.394 14.9391 156.986 13.6045C156.578 14.9409 155.704 16.4784 154.465 17.882C153.231 19.28 151.879 20.2688 150.702 20.7334C151.879 21.1972 153.23 22.1849 154.465 23.5835C155.704 24.987 156.578 26.5243 156.986 27.861C157.394 26.5264 158.268 24.9912 159.508 23.5892C160.751 22.1825 162.114 21.1917 163.297 20.7326C162.114 20.2735 160.751 19.2826 159.508 17.876Z" fill="#FFE000"/>
<path opacity="0.348331" fill-rule="evenodd" clip-rule="evenodd" d="M103.085 2.82517C102.24 1.89807 101.644 0.882702 101.366 0C101.087 0.883916 100.491 1.90084 99.6464 2.82915C98.8048 3.75382 97.8831 4.40779 97.0806 4.71508C97.8829 5.02186 98.8046 5.67513 99.6464 6.60015C100.491 7.52846 101.087 8.54521 101.366 9.4293C101.644 8.5466 102.24 7.53123 103.085 6.60396C103.933 5.67357 104.862 5.01822 105.669 4.71456C104.862 4.41091 103.933 3.75556 103.085 2.82517Z" fill="#FFE000"/>
<path d="M196.413 120.571H235.543" stroke="#AEE6FF" stroke-width="1.2"/>
<path d="M215.977 101.006L215.977 140.136" stroke="#AEE6FF" stroke-width="1.2"/>
<path d="M207 111.592L224.958 129.549" stroke="#AEE6FF" stroke-width="1.2"/>
<path d="M224.955 111.592L206.998 129.549" stroke="#AEE6FF" stroke-width="1.2"/>
<path d="M37.1616 160.256H64.8137" stroke="#AEE6FF" stroke-width="1.2"/>
<path d="M50.9868 146.431L50.9868 174.083" stroke="#AEE6FF" stroke-width="1.2"/>
<path d="M44.644 153.912L57.3341 166.602" stroke="#AEE6FF" stroke-width="1.2"/>
<path d="M57.3311 153.912L44.641 166.602" stroke="#AEE6FF" stroke-width="1.2"/>
<path d="M79.6265 34.373H98.1099" stroke="#FFE55E"/>
<path d="M88.8682 25.1318L88.8682 43.6152" stroke="#FFE55E"/>
<path d="M84.6279 30.1318L93.1103 38.6143" stroke="#FFE55E"/>
<path d="M93.1089 30.1318L84.6265 38.6143" stroke="#FFE55E"/>
<path d="M215.116 45.3427C215.073 43.3248 215.425 41.4623 216.021 40.0966C214.749 40.8767 212.951 41.4829 210.946 41.7192C208.948 41.9543 207.139 41.7762 205.842 41.3027C206.489 42.5219 206.915 44.288 206.956 46.2999C206.998 48.3188 206.645 50.183 206.047 51.5505C207.317 50.7717 209.114 50.1675 211.119 49.9329C213.13 49.6975 214.95 49.8821 216.248 50.3644C215.592 49.1444 215.159 47.3676 215.116 45.3427" stroke="#A0A0A0"/>
<path d="M201.298 56.6761L166.446 93.5169" stroke="#A0A0A0" stroke-width="0.8"/>
<path d="M42.1899 65.416L76.7637 95.9886" stroke="#A0A0A0" stroke-dasharray="2 2"/>
<circle cx="34.2068" cy="58.6069" r="4.42493" transform="rotate(4.78655 34.2068 58.6069)" stroke="#A0A0A0"/>
<circle cx="42.3527" cy="99.049" r="3.74276" transform="rotate(-68.2298 42.3527 99.049)" fill="#C5C5C5"/>
<path d="M49.3833 101.856L69.7351 110.252" stroke="#A0A0A0" stroke-width="0.8"/>
<path d="M124 436.228C149.777 436.228 174.976 428.493 196.409 414C217.842 399.507 234.547 378.908 244.411 354.808C254.276 330.707 256.857 304.188 251.828 278.603C246.799 253.018 234.386 229.516 216.159 211.07C197.931 192.625 174.708 180.063 149.426 174.974C124.144 169.885 97.9387 172.497 74.1235 182.479C50.3083 192.462 29.9532 209.367 15.632 231.057C1.31087 252.747 -6.33301 278.248 -6.33301 304.334C-6.33301 339.314 7.39843 372.862 31.8406 397.597C56.2827 422.332 89.4333 436.228 124 436.228Z" fill="url(#paint16_linear_1290_27030)"/>
<path fill-rule="evenodd" clip-rule="evenodd" d="M152.819 175.704C151.693 175.446 150.563 175.202 149.428 174.974C124.146 169.885 97.9404 172.497 74.1253 182.479C50.3101 192.462 29.9549 209.367 15.6337 231.057C15.0534 231.936 14.4841 232.821 13.9258 233.713C20.5895 240.01 33.6502 236.186 42.2689 230.838C46.6361 228.129 50.7143 224.873 54.8475 221.573C66.3722 212.373 78.3239 202.832 98.1548 203.838C123.084 205.103 145.595 199.078 152.819 175.704Z" fill="url(#paint17_linear_1290_27030)"/>
<path d="M124 223.119C128.004 223.119 131.242 220.664 131.242 217.622C131.242 214.58 128.004 212.137 124 212.137C119.995 212.137 116.757 214.591 116.757 217.622C116.757 220.652 120.007 223.119 124 223.119Z" fill="url(#paint18_linear_1290_27030)"/>
<path d="M103.637 214.778V219.457" stroke="#333333" stroke-width="3" stroke-miterlimit="10"/>
<path d="M144.361 214.778V219.457" stroke="#333333" stroke-width="3" stroke-miterlimit="10"/>
<path d="M149.026 229.013V233.211H98.9731V229.013" stroke="#333333" stroke-width="1.8" stroke-miterlimit="10"/>
</g>
<defs>
<filter id="filter0_d_1290_27030" x="114.257" y="13.5558" width="19.4665" height="21.4138" filterUnits="userSpaceOnUse" color-interpolation-filters="sRGB">
<feFlood flood-opacity="0" result="BackgroundImageFix"/>
<feColorMatrix in="SourceAlpha" type="matrix" values="0 0 0 0 0 0 0 0 0 0 0 0 0 0 0 0 0 0 127 0" result="hardAlpha"/>
<feOffset/>
<feGaussianBlur stdDeviation="1.29778"/>
<feColorMatrix type="matrix" values="0 0 0 0 0.791667 0 0 0 0 0.3325 0 0 0 0 0 0 0 0 0.3 0"/>
<feBlend mode="normal" in2="BackgroundImageFix" result="effect1_dropShadow_1290_27030"/>
<feBlend mode="normal" in="SourceGraphic" in2="effect1_dropShadow_1290_27030" result="shape"/>
</filter>
<linearGradient id="paint0_linear_1290_27030" x1="186.333" y1="141.628" x2="193.449" y2="161.534" gradientUnits="userSpaceOnUse">
<stop offset="0.09375" stop-color="#8DF1A9"/>
<stop offset="1" stop-color="#3AD8C5"/>
</linearGradient>
<linearGradient id="paint1_linear_1290_27030" x1="125.861" y1="62.827" x2="129.844" y2="76.6879" gradientUnits="userSpaceOnUse">
<stop offset="0.140625" stop-color="#FBBD90"/>
<stop offset="1" stop-color="#DE7756"/>
</linearGradient>
<linearGradient id="paint2_linear_1290_27030" x1="104.831" y1="63.2015" x2="110.131" y2="76.6742" gradientUnits="userSpaceOnUse">
<stop offset="0.140625" stop-color="#FBBD90"/>
<stop offset="1" stop-color="#DE7756"/>
</linearGradient>
<linearGradient id="paint3_linear_1290_27030" x1="102.658" y1="58.6805" x2="109.779" y2="64.2189" gradientUnits="userSpaceOnUse">
<stop offset="0.09375" stop-color="#94FDAB"/>
<stop offset="1" stop-color="#09C497"/>
</linearGradient>
<linearGradient id="paint4_linear_1290_27030" x1="100.424" y1="74.51" x2="103.524" y2="71.3569" gradientUnits="userSpaceOnUse">
<stop offset="0.140625" stop-color="#FBBD90"/>
<stop offset="1" stop-color="#DE7756"/>
</linearGradient>
<linearGradient id="paint5_linear_1290_27030" x1="94.8688" y1="69.0237" x2="100.756" y2="73.606" gradientUnits="userSpaceOnUse">
<stop offset="0.09375" stop-color="#94FDAB"/>
<stop offset="1" stop-color="#09C497"/>
</linearGradient>
<linearGradient id="paint6_linear_1290_27030" x1="136.63" y1="78.4423" x2="137.244" y2="79.6389" gradientUnits="userSpaceOnUse">
<stop offset="0.140625" stop-color="#FBBD90"/>
<stop offset="1" stop-color="#DE7756"/>
</linearGradient>
<linearGradient id="paint7_linear_1290_27030" x1="148.385" y1="68.967" x2="154.272" y2="73.5493" gradientUnits="userSpaceOnUse">
<stop offset="0.09375" stop-color="#94FDAB"/>
<stop offset="1" stop-color="#09C497"/>
</linearGradient>
<linearGradient id="paint8_linear_1290_27030" x1="93.3453" y1="94.369" x2="146.745" y2="180.925" gradientUnits="userSpaceOnUse">
<stop offset="0.140625" stop-color="#FBBD90"/>
<stop offset="1" stop-color="#DE7756"/>
</linearGradient>
<linearGradient id="paint9_linear_1290_27030" x1="133.132" y1="55.2041" x2="140.133" y2="60.6496" gradientUnits="userSpaceOnUse">
<stop offset="0.09375" stop-color="#94FDAB"/>
<stop offset="1" stop-color="#09C497"/>
</linearGradient>
<linearGradient id="paint10_linear_1290_27030" x1="125.453" y1="60.9147" x2="129.772" y2="64.2742" gradientUnits="userSpaceOnUse">
<stop offset="0.09375" stop-color="#94FDAB"/>
<stop offset="1" stop-color="#09C497"/>
</linearGradient>
<linearGradient id="paint11_linear_1290_27030" x1="114.172" y1="56.5755" x2="119.217" y2="60.4996" gradientUnits="userSpaceOnUse">
<stop offset="0.09375" stop-color="#94FDAB"/>
<stop offset="1" stop-color="#09C497"/>
</linearGradient>
<linearGradient id="paint12_linear_1290_27030" x1="140.307" y1="63.856" x2="144.568" y2="67.1708" gradientUnits="userSpaceOnUse">
<stop offset="0.09375" stop-color="#94FDAB"/>
<stop offset="1" stop-color="#09C497"/>
</linearGradient>
<linearGradient id="paint13_linear_1290_27030" x1="122.291" y1="84.9246" x2="125.577" y2="88.3324" gradientUnits="userSpaceOnUse">
<stop offset="0.09375" stop-color="#94FDAB"/>
<stop offset="1" stop-color="#09C497"/>
</linearGradient>
<linearGradient id="paint14_linear_1290_27030" x1="103.226" y1="3.82227" x2="103.226" y2="45.3513" gradientUnits="userSpaceOnUse">
<stop stop-color="#FFED69"/>
<stop offset="1" stop-color="#FFD623"/>
</linearGradient>
<linearGradient id="paint15_linear_1290_27030" x1="107.768" y1="8.36426" x2="107.768" y2="40.8088" gradientUnits="userSpaceOnUse">
<stop stop-color="#FFF852"/>
<stop offset="1" stop-color="#FFE921"/>
</linearGradient>
<linearGradient id="paint16_linear_1290_27030" x1="56.0608" y1="185.436" x2="178.229" y2="341.023" gradientUnits="userSpaceOnUse">
<stop offset="0.286458" stop-color="#74DEFF"/>
<stop offset="1" stop-color="#2990FF"/>
</linearGradient>
<linearGradient id="paint17_linear_1290_27030" x1="64.5835" y1="188.348" x2="88.8851" y2="240.602" gradientUnits="userSpaceOnUse">
<stop offset="0.00520833" stop-color="#9FFFD1"/>
<stop offset="1" stop-color="#12CBB5"/>
</linearGradient>
<linearGradient id="paint18_linear_1290_27030" x1="119.538" y1="213.151" x2="128.209" y2="222.047" gradientUnits="userSpaceOnUse">
<stop offset="0.00520833" stop-color="#9FFFD1"/>
<stop offset="1" stop-color="#12CBB5"/>
</linearGradient>
<clipPath id="clip0_1290_27030">
<rect width="248" height="248" fill="white"/>
</clipPath>
</defs>
</svg>
