<svg width="360" height="320" viewBox="0 0 360 320" fill="none" xmlns="http://www.w3.org/2000/svg">
<path d="M174.906 238.631L73.4473 238.631L73.4473 307.105H174.906V238.631Z" fill="url(#paint0_linear_786_11592)"/>
<path fill-rule="evenodd" clip-rule="evenodd" d="M172.933 306.736C173.066 306.818 173.221 306.86 173.377 306.857C173.508 306.854 173.637 306.825 173.755 306.769C173.873 306.713 173.979 306.633 174.064 306.534C174.125 306.446 174.169 306.348 174.192 306.244C174.215 306.139 174.218 306.031 174.199 305.926C174.18 305.821 174.141 305.721 174.083 305.631C174.025 305.541 173.95 305.464 173.862 305.403L125.59 272.857L175.265 239.357C175.442 239.234 175.563 239.046 175.6 238.834C175.638 238.622 175.59 238.403 175.467 238.227C175.344 238.05 175.156 237.929 174.944 237.892C174.732 237.854 174.514 237.902 174.337 238.025L124.137 271.878L73.9267 238.025C73.8392 237.964 73.7406 237.921 73.6364 237.898C73.5323 237.875 73.4246 237.873 73.3196 237.892C73.2147 237.91 73.1144 237.95 73.0246 238.007C72.9348 238.065 72.8572 238.139 72.7962 238.227C72.7352 238.314 72.6921 238.413 72.6693 238.517C72.6464 238.621 72.6443 238.729 72.663 238.834C72.6818 238.939 72.721 239.039 72.7785 239.129C72.836 239.219 72.9106 239.296 72.9981 239.357L122.685 272.857L73.0392 306.337C72.9512 306.398 72.8762 306.475 72.8183 306.565C72.7605 306.655 72.721 306.755 72.7023 306.86C72.6835 306.965 72.6857 307.073 72.7089 307.177C72.7321 307.282 72.7758 307.38 72.8373 307.468C72.9143 307.579 73.0168 307.67 73.1362 307.733C73.2556 307.796 73.3885 307.83 73.5237 307.831C73.6047 307.835 73.6858 307.823 73.7621 307.795C73.8384 307.768 73.9084 307.725 73.9678 307.669L124.137 273.836L172.933 306.736Z" fill="url(#paint1_linear_786_11592)"/>
<path d="M239.781 215.848H169.854V307.213H239.781V215.848Z" fill="url(#paint2_linear_786_11592)"/>
<path d="M169.853 215.848H133.314V307.213H169.853V215.848Z" fill="url(#paint3_linear_786_11592)"/>
<path d="M178.897 198.726L169.854 215.844H239.781L248.825 198.726H178.897Z" fill="url(#paint4_linear_786_11592)"/>
<path d="M124.23 198.726L133.315 215.844H169.853L160.769 198.726H124.23Z" fill="url(#paint5_linear_786_11592)"/>
<path d="M169.85 308.381C169.636 308.381 169.431 308.296 169.279 308.144C169.128 307.993 169.043 307.787 169.043 307.573V215.844C169.043 215.63 169.128 215.425 169.279 215.273C169.431 215.122 169.636 215.037 169.85 215.037C170.065 215.037 170.27 215.122 170.421 215.273C170.573 215.425 170.658 215.63 170.658 215.844V307.573C170.658 307.787 170.573 307.993 170.421 308.144C170.27 308.296 170.065 308.381 169.85 308.381Z" fill="url(#paint6_linear_786_11592)"/>
<path fill-rule="evenodd" clip-rule="evenodd" d="M283.751 250.43H227.349C223.561 250.437 219.93 251.945 217.251 254.624C214.572 257.303 213.064 260.934 213.057 264.722C213.057 268.513 214.562 272.148 217.243 274.828C219.876 277.462 223.432 278.961 227.151 279.013C223.432 279.064 219.876 280.564 217.243 283.198C214.562 285.878 213.057 289.513 213.057 293.304C213.057 297.094 214.562 300.73 217.243 303.41C219.923 306.09 223.558 307.596 227.349 307.596H283.751C287.542 307.596 291.177 306.09 293.857 303.41C296.538 300.73 298.043 297.094 298.043 293.304C298.043 289.513 296.538 285.878 293.857 283.198C291.224 280.564 287.668 279.064 283.949 279.013C287.668 278.961 291.224 277.462 293.857 274.828C296.538 272.148 298.043 268.513 298.043 264.722C298.043 260.931 296.538 257.296 293.857 254.616C291.177 251.935 287.542 250.43 283.751 250.43Z" fill="url(#paint7_linear_786_11592)"/>
<path fill-rule="evenodd" clip-rule="evenodd" d="M254.768 251.533C254.726 251.453 254.698 251.367 254.685 251.277L254.653 251.063L229.73 238.68C229.276 238.437 228.843 238.153 228.438 237.833C226.964 236.624 226.023 234.884 225.819 232.989C225.615 231.093 226.164 229.193 227.348 227.699C227.675 227.25 228.07 226.855 228.519 226.528C230.036 225.36 231.946 224.824 233.848 225.034C235.743 225.27 237.469 226.241 238.653 227.739L254.118 247.445L249.396 215.506C249.264 214.842 249.237 214.161 249.315 213.488C249.414 212.147 249.813 210.845 250.483 209.68C251.153 208.514 252.077 207.514 253.186 206.754C254.295 205.994 255.561 205.493 256.889 205.289C258.218 205.085 259.576 205.182 260.862 205.574C261.989 205.901 263.039 206.452 263.948 207.194C264.857 207.936 265.606 208.855 266.151 209.894C266.714 210.937 267.061 212.081 267.172 213.26C267.283 214.44 267.155 215.629 266.797 216.758L257.305 247.805C259.662 245.563 262.263 243.586 265.06 241.913C272.852 237.31 280.241 236.947 286.337 240.904C286.519 241.021 286.647 241.207 286.692 241.419C286.738 241.631 286.697 241.852 286.579 242.034C286.461 242.216 286.276 242.344 286.064 242.389C285.852 242.435 285.631 242.394 285.449 242.276C272.237 233.783 257.302 250.028 256.383 251.031V307.639C256.383 307.853 256.298 308.058 256.146 308.209C255.995 308.361 255.789 308.446 255.575 308.446C255.361 308.446 255.156 308.361 255.004 308.209C254.853 308.058 254.768 307.853 254.768 307.639V251.533ZM253.272 208.789C254.639 207.534 256.424 206.834 258.278 206.826C258.453 206.846 258.629 206.846 258.803 206.826C259.35 206.864 259.891 206.959 260.418 207.108C261.34 207.389 262.197 207.849 262.94 208.463C263.684 209.076 264.298 209.83 264.748 210.682C265.199 211.534 265.476 212.467 265.564 213.426C265.653 214.386 265.55 215.354 265.263 216.273L255.735 247.442L250.971 215.224V215.183C250.857 214.666 250.83 214.134 250.89 213.609C251.057 211.761 251.906 210.043 253.272 208.789ZM232.96 226.609C231.71 226.597 230.495 227.025 229.528 227.82C229.198 228.05 228.91 228.337 228.681 228.668L228.64 228.708C227.708 229.861 227.27 231.336 227.422 232.811C227.573 234.286 228.301 235.641 229.448 236.581C229.547 236.651 229.641 236.718 229.732 236.782L229.732 236.782C230.008 236.978 230.244 237.146 230.457 237.267L252.703 248.33L237.361 228.748C236.906 228.166 236.34 227.681 235.695 227.32C235.051 226.959 234.34 226.731 233.606 226.649C233.505 226.649 233.394 226.639 233.283 226.629L233.283 226.629C233.172 226.619 233.061 226.609 232.96 226.609Z" fill="url(#paint8_linear_786_11592)"/>
<circle cx="180.137" cy="122.255" r="36.0469" fill="url(#paint9_linear_786_11592)"/>
<mask id="mask0_786_11592" style="mask-type:alpha" maskUnits="userSpaceOnUse" x="144" y="86" width="73" height="73">
<circle cx="180.137" cy="122.255" r="36.0469" fill="white"/>
</mask>
<g mask="url(#mask0_786_11592)">
<circle cx="180.138" cy="122.256" r="28.1616" fill="url(#paint10_linear_786_11592)" stroke="white" stroke-opacity="0.793105" stroke-width="1.2"/>
</g>
<g filter="url(#filter0_d_786_11592)">
<path fill-rule="evenodd" clip-rule="evenodd" d="M189.196 107.612C187.361 107.612 185.869 109.1 185.869 110.928V123.638L175.121 109.571C174.358 108.593 173.418 107.689 171.723 107.689H171.106C169.218 107.689 167.74 109.163 167.74 111.044V132.457C167.74 134.286 169.233 135.774 171.067 135.774C172.902 135.774 174.394 134.286 174.394 132.457V119.208L185.566 133.815C186.329 134.792 187.269 135.697 188.964 135.697H189.156C191.044 135.697 192.522 134.223 192.522 132.342V110.928C192.522 109.1 191.03 107.612 189.196 107.612" fill="white"/>
</g>
<path opacity="0.550409" fill-rule="evenodd" clip-rule="evenodd" d="M146.378 63.7514C144.317 60.6737 142.863 57.3029 142.184 54.3726C141.506 57.3069 140.052 60.6829 137.992 63.7646C135.939 66.8343 133.692 69.0053 131.734 70.0254C133.691 71.0439 135.939 73.2126 137.992 76.2834C140.052 79.3651 141.506 82.7405 142.184 85.6755C142.863 82.7451 144.317 79.3743 146.378 76.296C148.446 73.2074 150.712 71.0318 152.679 70.0237C150.712 69.0157 148.446 66.8401 146.378 63.7514" fill="#FFE000"/>
<path opacity="0.348331" fill-rule="evenodd" clip-rule="evenodd" d="M221.036 152.071C219.832 150.488 218.983 148.753 218.587 147.246C218.191 148.755 217.341 150.493 216.139 152.078C214.94 153.658 213.627 154.775 212.484 155.3C213.627 155.824 214.94 156.94 216.139 158.52C217.341 160.105 218.191 161.842 218.587 163.352C218.983 161.844 219.832 160.11 221.036 158.526C222.243 156.937 223.567 155.817 224.716 155.299C223.567 154.78 222.243 153.661 221.036 152.071" fill="#FFE000"/>
<path d="M223.748 96.4448H255.549" stroke="#AEE6FF" stroke-width="1.5"/>
<path d="M239.65 80.5449L239.65 112.346" stroke="#AEE6FF" stroke-width="1.5"/>
<path d="M232.35 89.1484L246.944 103.743" stroke="#AEE6FF" stroke-width="1.5"/>
<path d="M246.943 89.1484L232.349 103.742" stroke="#AEE6FF" stroke-width="1.5"/>
<path fill-rule="evenodd" clip-rule="evenodd" d="M190.57 70.5908C185.261 70.5908 180.957 74.8946 180.957 80.2035C180.957 85.5125 185.261 89.8162 190.57 89.8162H196.572L199.776 94.6222L202.98 89.8162H208.987C214.296 89.8162 218.6 85.5125 218.6 80.2035C218.6 74.8946 214.296 70.5908 208.987 70.5908H190.57Z" fill="url(#paint11_linear_786_11592)"/>
<path d="M190.723 83.2852H190.843C191.351 83.2852 191.787 83.2238 192.151 83.1011C192.519 82.9741 192.821 82.7922 193.058 82.5552C193.295 82.3182 193.471 82.0283 193.585 81.6855C193.7 81.3385 193.757 80.945 193.757 80.5049V78.7529C193.757 78.4186 193.723 78.1245 193.655 77.8706C193.592 77.6167 193.499 77.4072 193.376 77.2422C193.257 77.0729 193.118 76.946 192.957 76.8613C192.8 76.7767 192.627 76.7344 192.436 76.7344C192.233 76.7344 192.053 76.7852 191.897 76.8867C191.74 76.984 191.607 77.1174 191.497 77.2866C191.391 77.4559 191.309 77.6506 191.249 77.8706C191.194 78.0864 191.167 78.3128 191.167 78.5498C191.167 78.7868 191.194 79.0132 191.249 79.229C191.304 79.4406 191.387 79.6289 191.497 79.7939C191.607 79.9548 191.745 80.0838 191.91 80.1812C192.075 80.2743 192.269 80.3208 192.494 80.3208C192.709 80.3208 192.902 80.2806 193.071 80.2002C193.245 80.1156 193.391 80.0055 193.509 79.8701C193.632 79.7347 193.725 79.5845 193.788 79.4194C193.856 79.2544 193.89 79.0872 193.89 78.918L194.493 79.248C194.493 79.5443 194.43 79.8363 194.303 80.124C194.176 80.4118 193.998 80.6742 193.769 80.9111C193.545 81.1439 193.285 81.3301 192.989 81.4697C192.692 81.6094 192.375 81.6792 192.036 81.6792C191.605 81.6792 191.222 81.6009 190.888 81.4443C190.553 81.2835 190.27 81.0635 190.037 80.7842C189.808 80.5007 189.635 80.1706 189.516 79.7939C189.398 79.4173 189.339 79.009 189.339 78.5688C189.339 78.1203 189.411 77.6992 189.555 77.3057C189.703 76.9121 189.912 76.5651 190.183 76.2646C190.458 75.9642 190.786 75.7293 191.167 75.5601C191.552 75.3866 191.979 75.2998 192.449 75.2998C192.919 75.2998 193.346 75.3908 193.731 75.5728C194.116 75.7547 194.446 76.0129 194.722 76.3472C194.997 76.6772 195.208 77.0729 195.356 77.5342C195.509 77.9954 195.585 78.5075 195.585 79.0703V79.7051C195.585 80.306 195.519 80.8646 195.388 81.3809C195.261 81.8971 195.069 82.3647 194.81 82.7837C194.557 83.1984 194.239 83.5539 193.858 83.8501C193.482 84.1463 193.044 84.3727 192.544 84.5293C192.045 84.6859 191.486 84.7642 190.869 84.7642H190.723V83.2852ZM202.897 79.2417V80.8413C202.897 81.5353 202.823 82.1341 202.675 82.6377C202.526 83.137 202.313 83.5475 202.033 83.8691C201.758 84.1865 201.43 84.4214 201.05 84.5737C200.669 84.7261 200.246 84.8022 199.78 84.8022C199.408 84.8022 199.061 84.7557 198.739 84.6626C198.417 84.5653 198.128 84.415 197.869 84.2119C197.615 84.0088 197.395 83.7528 197.209 83.4438C197.027 83.1307 196.888 82.7583 196.79 82.3267C196.693 81.895 196.644 81.3999 196.644 80.8413V79.2417C196.644 78.5477 196.718 77.9531 196.866 77.458C197.019 76.9587 197.233 76.5503 197.508 76.2329C197.787 75.9155 198.117 75.6828 198.498 75.5347C198.879 75.3823 199.302 75.3062 199.767 75.3062C200.14 75.3062 200.485 75.3548 200.802 75.4521C201.124 75.5452 201.413 75.6912 201.672 75.8901C201.93 76.089 202.15 76.3451 202.332 76.6582C202.514 76.9671 202.653 77.3374 202.751 77.769C202.848 78.1965 202.897 78.6873 202.897 79.2417ZM201.062 81.0825V78.9941C201.062 78.6598 201.043 78.3678 201.005 78.1182C200.971 77.8685 200.918 77.6569 200.846 77.4834C200.775 77.3057 200.686 77.1618 200.58 77.0518C200.474 76.9417 200.353 76.8613 200.218 76.8105C200.083 76.7598 199.932 76.7344 199.767 76.7344C199.56 76.7344 199.376 76.7746 199.215 76.855C199.059 76.9354 198.925 77.0645 198.815 77.2422C198.705 77.4157 198.621 77.6484 198.561 77.9404C198.506 78.2282 198.479 78.5794 198.479 78.9941V81.0825C198.479 81.4168 198.496 81.7109 198.53 81.9648C198.568 82.2188 198.623 82.4367 198.695 82.6187C198.771 82.7964 198.86 82.9424 198.961 83.0566C199.067 83.1667 199.188 83.2471 199.323 83.2979C199.463 83.3486 199.615 83.374 199.78 83.374C199.983 83.374 200.163 83.3338 200.32 83.2534C200.48 83.1688 200.616 83.0376 200.726 82.8599C200.84 82.6779 200.925 82.4409 200.98 82.1489C201.035 81.8569 201.062 81.5015 201.062 81.0825ZM210.145 79.2417V80.8413C210.145 81.5353 210.071 82.1341 209.923 82.6377C209.775 83.137 209.561 83.5475 209.282 83.8691C209.007 84.1865 208.679 84.4214 208.298 84.5737C207.917 84.7261 207.494 84.8022 207.028 84.8022C206.656 84.8022 206.309 84.7557 205.987 84.6626C205.666 84.5653 205.376 84.415 205.118 84.2119C204.864 84.0088 204.644 83.7528 204.458 83.4438C204.276 83.1307 204.136 82.7583 204.039 82.3267C203.941 81.895 203.893 81.3999 203.893 80.8413V79.2417C203.893 78.5477 203.967 77.9531 204.115 77.458C204.267 76.9587 204.481 76.5503 204.756 76.2329C205.035 75.9155 205.365 75.6828 205.746 75.5347C206.127 75.3823 206.55 75.3062 207.016 75.3062C207.388 75.3062 207.733 75.3548 208.05 75.4521C208.372 75.5452 208.662 75.6912 208.92 75.8901C209.178 76.089 209.398 76.3451 209.58 76.6582C209.762 76.9671 209.902 77.3374 209.999 77.769C210.096 78.1965 210.145 78.6873 210.145 79.2417ZM208.311 81.0825V78.9941C208.311 78.6598 208.292 78.3678 208.254 78.1182C208.22 77.8685 208.167 77.6569 208.095 77.4834C208.023 77.3057 207.934 77.1618 207.828 77.0518C207.722 76.9417 207.602 76.8613 207.466 76.8105C207.331 76.7598 207.181 76.7344 207.016 76.7344C206.808 76.7344 206.624 76.7746 206.464 76.855C206.307 76.9354 206.174 77.0645 206.064 77.2422C205.954 77.4157 205.869 77.6484 205.81 77.9404C205.755 78.2282 205.727 78.5794 205.727 78.9941V81.0825C205.727 81.4168 205.744 81.7109 205.778 81.9648C205.816 82.2188 205.871 82.4367 205.943 82.6187C206.019 82.7964 206.108 82.9424 206.21 83.0566C206.315 83.1667 206.436 83.2471 206.571 83.2979C206.711 83.3486 206.863 83.374 207.028 83.374C207.232 83.374 207.411 83.3338 207.568 83.2534C207.729 83.1688 207.864 83.0376 207.974 82.8599C208.089 82.6779 208.173 82.4409 208.228 82.1489C208.283 81.8569 208.311 81.5015 208.311 81.0825Z" fill="white"/>
<path d="M286.058 169.314L294.043 170.617L286.058 171.925L284.782 181.732L283.506 171.925L275.521 170.617L283.506 169.314L284.782 159.507L286.058 169.314Z" fill="#AEE6FF"/>
<path d="M70.2223 187.822L81.3399 189.636L70.2223 191.457L68.4463 205.112L66.6703 191.457L55.5527 189.636L66.6703 187.822L68.4463 174.167L70.2223 187.822Z" fill="#AEE6FF"/>
<path d="M87.8145 114.757L142.207 183.68" stroke="#C5C5C5"/>
<path d="M282.135 133.072L237.236 178.16" stroke="#C5C5C5"/>
<path d="M94.7695 163.446L122.302 184.888" stroke="#C5C5C5" stroke-width="1.5" stroke-dasharray="2 2"/>
<circle cx="79.7264" cy="100.785" r="4.93106" transform="rotate(10.5415 79.7264 100.785)" stroke="#C5C5C5" stroke-width="1.3"/>
<circle r="5.04958" transform="matrix(-0.998177 0.0603564 0.0603564 0.998177 290.128 125.682)" fill="#C5C5C5"/>
<circle r="4.66816" transform="matrix(-0.998177 0.0603564 0.0603564 0.998177 86.2803 156.291)" fill="#C5C5C5"/>
<defs>
<filter id="filter0_d_786_11592" x="165.331" y="105.203" width="29.6011" height="32.9795" filterUnits="userSpaceOnUse" color-interpolation-filters="sRGB">
<feFlood flood-opacity="0" result="BackgroundImageFix"/>
<feColorMatrix in="SourceAlpha" type="matrix" values="0 0 0 0 0 0 0 0 0 0 0 0 0 0 0 0 0 0 127 0" result="hardAlpha"/>
<feOffset/>
<feGaussianBlur stdDeviation="1.20447"/>
<feColorMatrix type="matrix" values="0 0 0 0 0.791667 0 0 0 0 0.3325 0 0 0 0 0 0 0 0 0.3 0"/>
<feBlend mode="normal" in2="BackgroundImageFix" result="effect1_dropShadow_786_11592"/>
<feBlend mode="normal" in="SourceGraphic" in2="effect1_dropShadow_786_11592" result="shape"/>
</filter>
<linearGradient id="paint0_linear_786_11592" x1="94.1819" y1="234.513" x2="147.88" y2="311.885" gradientUnits="userSpaceOnUse">
<stop stop-color="#78BEFF"/>
<stop offset="0.919792" stop-color="#426DFF"/>
</linearGradient>
<linearGradient id="paint1_linear_786_11592" x1="124.132" y1="237.879" x2="124.132" y2="307.832" gradientUnits="userSpaceOnUse">
<stop stop-color="#888888"/>
<stop offset="1" stop-color="#4A4A4A"/>
</linearGradient>
<linearGradient id="paint2_linear_786_11592" x1="169.854" y1="215.848" x2="238.419" y2="268.914" gradientUnits="userSpaceOnUse">
<stop offset="0.00520833" stop-color="#64F0C6"/>
<stop offset="1" stop-color="#06CECE"/>
</linearGradient>
<linearGradient id="paint3_linear_786_11592" x1="133.314" y1="215.848" x2="182.549" y2="235.758" gradientUnits="userSpaceOnUse">
<stop offset="0.00520833" stop-color="#59E7BC"/>
<stop offset="1" stop-color="#02C5C5"/>
</linearGradient>
<linearGradient id="paint4_linear_786_11592" x1="185.016" y1="200.307" x2="192.009" y2="225.4" gradientUnits="userSpaceOnUse">
<stop offset="0.00520833" stop-color="#BCFFE3"/>
<stop offset="1" stop-color="#6CEEDE"/>
</linearGradient>
<linearGradient id="paint5_linear_786_11592" x1="132.99" y1="200.307" x2="143.572" y2="222.244" gradientUnits="userSpaceOnUse">
<stop offset="0.00520833" stop-color="#BCFFE3"/>
<stop offset="1" stop-color="#6CEEDE"/>
</linearGradient>
<linearGradient id="paint6_linear_786_11592" x1="169.85" y1="215.037" x2="169.85" y2="308.381" gradientUnits="userSpaceOnUse">
<stop stop-color="#888888"/>
<stop offset="1" stop-color="#4A4A4A"/>
</linearGradient>
<linearGradient id="paint7_linear_786_11592" x1="230.425" y1="246.991" x2="275.204" y2="311.726" gradientUnits="userSpaceOnUse">
<stop stop-color="#78BEFF"/>
<stop offset="0.919792" stop-color="#426DFF"/>
</linearGradient>
<linearGradient id="paint8_linear_786_11592" x1="256.244" y1="205.185" x2="256.244" y2="308.446" gradientUnits="userSpaceOnUse">
<stop stop-color="#888888"/>
<stop offset="1" stop-color="#4A4A4A"/>
</linearGradient>
<linearGradient id="paint9_linear_786_11592" x1="144.09" y1="86.2085" x2="144.09" y2="158.302" gradientUnits="userSpaceOnUse">
<stop stop-color="#FFED69"/>
<stop offset="1" stop-color="#FFD623"/>
</linearGradient>
<linearGradient id="paint10_linear_786_11592" x1="151.977" y1="94.0942" x2="151.977" y2="150.418" gradientUnits="userSpaceOnUse">
<stop stop-color="#FFF852"/>
<stop offset="1" stop-color="#FFE921"/>
</linearGradient>
<linearGradient id="paint11_linear_786_11592" x1="200.107" y1="97.8501" x2="184.429" y2="70.5396" gradientUnits="userSpaceOnUse">
<stop stop-color="#FF6A55"/>
<stop offset="1" stop-color="#FF8877"/>
</linearGradient>
</defs>
</svg>
