<svg width="360" height="320" viewBox="0 0 360 320" fill="none" xmlns="http://www.w3.org/2000/svg">
<path d="M181.127 230.545C196.921 230.545 212.36 225.862 225.492 217.087C238.625 208.312 248.86 195.841 254.904 181.249C260.948 166.657 262.53 150.601 259.448 135.111C256.367 119.62 248.762 105.391 237.594 94.2232C226.426 83.0552 212.197 75.4497 196.706 72.3684C181.216 69.2872 165.159 70.8686 150.568 76.9127C135.976 82.9567 123.504 93.192 114.73 106.324C105.955 119.456 101.271 134.896 101.271 150.69C101.271 171.869 109.685 192.18 124.661 207.156C139.636 222.132 159.948 230.545 181.127 230.545V230.545Z" fill="url(#paint0_linear_786_11615)"/>
<path d="M188.048 67.2519C188.048 67.2519 201.894 69.3007 209.099 62.035C216.304 54.7692 214.139 40.9403 214.139 40.9403C214.139 40.9403 200.292 38.8915 193.087 46.1572C185.882 53.423 188.048 67.2519 188.048 67.2519Z" fill="url(#paint1_linear_786_11615)"/>
<path d="M201.033 54.4058L184.48 71.0991" stroke="#333333" stroke-width="0.8"/>
<path d="M194.575 61.0379L202.235 60.1311" stroke="#333333" stroke-width="0.8"/>
<path d="M181.125 151.24C184.405 151.24 187.058 149.253 187.058 146.791C187.058 144.328 184.405 142.351 181.125 142.351C177.846 142.351 175.193 144.338 175.193 146.791C175.193 149.243 177.855 151.24 181.125 151.24Z" fill="url(#paint2_linear_786_11615)"/>
<path d="M164.773 141.894V147.436" stroke="#333333" stroke-width="3" stroke-miterlimit="10"/>
<path d="M197.479 141.894V147.436" stroke="#333333" stroke-width="3" stroke-miterlimit="10"/>
<path d="M200.949 155.705V159.434H161.297V155.705" stroke="#333333" stroke-width="2" stroke-miterlimit="10"/>
<path d="M108.875 116.713C110.643 126.372 123.886 130.783 140.627 114.175C148.299 106.569 162.065 102.33 177.465 105.239C203.685 110.191 214.398 89.4956 208.438 75.5874C189.702 68.8022 169.108 69.258 150.691 76.8654C132.273 84.4729 117.361 98.6836 108.875 116.713V116.713Z" fill="url(#paint3_linear_786_11615)"/>
<path d="M101.272 150.091C101.272 150.281 101.272 150.471 101.272 150.661C101.243 169.874 108.173 188.448 120.779 202.948C128.926 200.799 134.963 188.041 133.955 178.23C132.073 159.892 116.482 146.792 101.272 150.091Z" fill="url(#paint4_linear_786_11615)"/>
<path d="M260.973 150.091C260.973 150.281 260.973 150.471 260.973 150.661C261.001 169.874 254.071 188.448 241.465 202.948C233.318 200.799 227.281 188.041 228.289 178.23C230.171 159.892 245.762 146.792 260.973 150.091Z" fill="url(#paint5_linear_786_11615)"/>
<path d="M66.0118 262.205C72.5524 252.37 93.3613 230.308 115.798 219.005C143.845 204.875 166.903 210.21 158.737 232.072C149.305 257.323 115.798 244.36 164.202 210.138C212.373 176.081 243.991 176.978 249.906 177.857C257.867 179.04 264.696 183.608 262.906 194.928C261.316 204.991 257.532 210.523 255.276 214.049C258.756 209.502 274.808 191.146 295.273 182.34L274.808 185.352" stroke="url(#paint6_linear_786_11615)" stroke-width="1.2"/>
<path d="M276.234 209.883H303.365" stroke="#AEE6FF" stroke-width="1.3"/>
<path d="M289.801 196.318L289.801 223.448" stroke="#AEE6FF" stroke-width="1.3"/>
<path d="M283.574 203.657L296.025 216.108" stroke="#AEE6FF" stroke-width="1.3"/>
<path d="M296.025 203.657L283.575 216.108" stroke="#AEE6FF" stroke-width="1.3"/>
<path d="M66.1094 98.0576H102.054" stroke="#AEE6FF" stroke-width="1.3"/>
<path d="M84.084 80.0854L84.084 116.03" stroke="#AEE6FF" stroke-width="1.3"/>
<path d="M75.834 89.8091L92.3298 106.305" stroke="#AEE6FF" stroke-width="1.3"/>
<path d="M92.3301 89.8091L75.8343 106.305" stroke="#AEE6FF" stroke-width="1.3"/>
<path d="M223.162 203.635L240.116 230.848" stroke="#AEE6FF" stroke-dasharray="1.81 1.81"/>
<circle cx="218.966" cy="198.226" r="3.1859" transform="rotate(27.3614 218.966 198.226)" stroke="#AEE6FF" stroke-width="0.723114"/>
<circle cx="209.543" cy="213.877" r="2.82435" transform="rotate(-45.6549 209.543 213.877)" fill="#AEE6FF"/>
<path d="M213.943 217.675L232.973 235.381" stroke="#AEE6FF"/>
<path d="M296.091 271.831C296.091 294.945 262.357 301.209 262.357 301.209C262.357 301.209 228.623 294.945 228.623 271.831C228.623 248.718 262.357 220.951 262.357 220.951C262.357 220.951 296.091 248.722 296.091 271.831Z" fill="url(#paint7_linear_786_11615)"/>
<path d="M228.277 296.406C237.319 300.472 245.973 294.11 245.973 294.11C245.973 294.11 245.084 283.459 236.046 279.398C227.008 275.336 215.791 280.546 215.791 280.546C215.791 280.546 219.231 292.345 228.277 296.406Z" fill="url(#paint8_linear_786_11615)"/>
<path d="M241.545 292.455L241.573 292.393C241.658 292.207 241.778 292.04 241.928 291.901C242.078 291.761 242.253 291.653 242.445 291.581C242.637 291.509 242.842 291.476 243.047 291.482C243.252 291.489 243.454 291.535 243.641 291.619L255.877 297.116L254.56 300.005L242.324 294.508C241.946 294.338 241.652 294.027 241.506 293.642C241.36 293.257 241.374 292.83 241.545 292.455V292.455Z" fill="url(#paint9_linear_786_11615)"/>
<path d="M296.281 296.406C287.239 300.472 278.586 294.11 278.586 294.11C278.586 294.11 279.475 283.459 288.512 279.398C297.55 275.336 308.768 280.546 308.768 280.546C308.768 280.546 305.328 292.345 296.281 296.406Z" fill="url(#paint10_linear_786_11615)"/>
<path d="M283.012 292.455L282.984 292.393C282.899 292.207 282.778 292.04 282.629 291.901C282.479 291.761 282.303 291.653 282.111 291.581C281.919 291.509 281.715 291.476 281.51 291.482C281.305 291.489 281.103 291.535 280.916 291.619L268.679 297.116L269.996 300.005L282.233 294.508C282.61 294.338 282.905 294.027 283.051 293.642C283.197 293.257 283.183 292.83 283.012 292.455V292.455Z" fill="url(#paint11_linear_786_11615)"/>
<path d="M262.358 275.187C263.61 275.187 264.85 275.431 266.006 275.907C267.163 276.383 268.214 277.08 269.1 277.958C269.985 278.837 270.687 279.881 271.166 281.029C271.645 282.177 271.892 283.408 271.892 284.651V320H252.828V284.646C252.829 282.138 253.834 279.732 255.621 277.958C257.408 276.185 259.831 275.188 262.358 275.187V275.187Z" fill="url(#paint12_linear_786_11615)"/>
<path d="M262.356 286.271C263.419 286.271 264.281 285.629 264.281 284.838C264.281 284.047 263.419 283.405 262.356 283.405C261.293 283.405 260.432 284.047 260.432 284.838C260.432 285.629 261.293 286.271 262.356 286.271Z" fill="url(#paint13_linear_786_11615)"/>
<path fill-rule="evenodd" clip-rule="evenodd" d="M257.717 288.147V287.42H256.768V289.09H267.952V287.42H267.002V288.147H257.717Z" fill="#333333"/>
<path d="M251.566 291.34C253.747 291.34 255.516 289.585 255.516 287.42C255.516 285.255 253.747 283.5 251.566 283.5C249.385 283.5 247.617 285.255 247.617 287.42C247.617 289.585 249.385 291.34 251.566 291.34Z" fill="url(#paint14_linear_786_11615)"/>
<path d="M273.285 291.34C275.466 291.34 277.234 289.585 277.234 287.42C277.234 285.255 275.466 283.5 273.285 283.5C271.104 283.5 269.336 285.255 269.336 287.42C269.336 289.585 271.104 291.34 273.285 291.34Z" fill="url(#paint15_linear_786_11615)"/>
<path d="M280.139 252.899C281.016 252.899 281.727 252.193 281.727 251.323C281.727 250.452 281.016 249.746 280.139 249.746C279.262 249.746 278.551 250.452 278.551 251.323C278.551 252.193 279.262 252.899 280.139 252.899Z" fill="url(#paint16_linear_786_11615)"/>
<path d="M264.989 234.121C265.866 234.121 266.577 233.415 266.577 232.544C266.577 231.674 265.866 230.968 264.989 230.968C264.111 230.968 263.4 231.674 263.4 232.544C263.4 233.415 264.111 234.121 264.989 234.121Z" fill="url(#paint17_linear_786_11615)"/>
<path d="M283.317 274.534C284.194 274.534 284.905 273.828 284.905 272.957C284.905 272.087 284.194 271.381 283.317 271.381C282.44 271.381 281.729 272.087 281.729 272.957C281.729 273.828 282.44 274.534 283.317 274.534Z" fill="url(#paint18_linear_786_11615)"/>
<path d="M247.561 247.593C248.438 247.593 249.149 246.887 249.149 246.017C249.149 245.146 248.438 244.44 247.561 244.44C246.684 244.44 245.973 245.146 245.973 246.017C245.973 246.887 246.684 247.593 247.561 247.593Z" fill="url(#paint19_linear_786_11615)"/>
<path d="M239.645 275.185C240.522 275.185 241.233 274.48 241.233 273.609C241.233 272.738 240.522 272.032 239.645 272.032C238.768 272.032 238.057 272.738 238.057 273.609C238.057 274.48 238.768 275.185 239.645 275.185Z" fill="url(#paint20_linear_786_11615)"/>
<path d="M260.838 264.317C261.715 264.317 262.427 263.611 262.427 262.74C262.427 261.869 261.715 261.164 260.838 261.164C259.961 261.164 259.25 261.869 259.25 262.74C259.25 263.611 259.961 264.317 260.838 264.317Z" fill="url(#paint21_linear_786_11615)"/>
<path fill-rule="evenodd" clip-rule="evenodd" d="M257.171 283.247L259.106 284.03L259.145 284.056C259.215 284.102 259.273 284.164 259.313 284.238C259.353 284.312 259.374 284.394 259.374 284.478C259.374 284.561 259.353 284.643 259.313 284.717C259.273 284.791 259.215 284.854 259.145 284.9L259.105 284.927L257.168 285.694L256.816 284.818L257.686 284.473L256.812 284.12L257.171 283.247Z" fill="#333333"/>
<path fill-rule="evenodd" clip-rule="evenodd" d="M267.544 283.247L265.609 284.03L265.569 284.056C265.5 284.102 265.442 284.164 265.402 284.238C265.362 284.312 265.341 284.394 265.341 284.478C265.341 284.561 265.362 284.643 265.402 284.717C265.442 284.791 265.5 284.854 265.569 284.9L265.61 284.927L267.547 285.694L267.899 284.818L267.029 284.473L267.902 284.12L267.544 283.247Z" fill="#333333"/>
<path d="M205.18 284.398C205.18 303.258 173.48 308.369 173.48 308.369C173.48 308.369 141.779 303.258 141.779 284.398C141.779 265.538 173.48 242.882 173.48 242.882C173.48 242.882 205.18 265.542 205.18 284.398Z" fill="url(#paint22_linear_786_11615)"/>
<path d="M175.061 258.66C175.936 258.66 176.644 257.965 176.644 257.108C176.644 256.25 175.936 255.555 175.061 255.555C174.187 255.555 173.479 256.25 173.479 257.108C173.479 257.965 174.187 258.66 175.061 258.66Z" fill="url(#paint23_linear_786_11615)"/>
<path d="M189.044 277.345C189.918 277.345 190.627 276.65 190.627 275.793C190.627 274.935 189.918 274.24 189.044 274.24C188.17 274.24 187.461 274.935 187.461 275.793C187.461 276.65 188.17 277.345 189.044 277.345Z" fill="url(#paint24_linear_786_11615)"/>
<path d="M154.811 280.45C155.686 280.45 156.394 279.755 156.394 278.898C156.394 278.04 155.686 277.345 154.811 277.345C153.937 277.345 153.229 278.04 153.229 278.898C153.229 279.755 153.937 280.45 154.811 280.45Z" fill="url(#paint25_linear_786_11615)"/>
<path d="M173.481 280.561C174.657 280.561 175.822 280.788 176.909 281.23C177.996 281.672 178.984 282.319 179.816 283.135C180.648 283.951 181.308 284.92 181.758 285.986C182.208 287.052 182.44 288.195 182.44 289.349V320H164.525L164.525 289.345C164.526 287.015 165.47 284.782 167.15 283.135C168.829 281.488 171.106 280.562 173.481 280.561Z" fill="url(#paint26_linear_786_11615)"/>
<path d="M173.479 290.702C174.477 290.702 175.287 290.107 175.287 289.372C175.287 288.637 174.477 288.042 173.479 288.042C172.48 288.042 171.67 288.637 171.67 289.372C171.67 290.107 172.48 290.702 173.479 290.702Z" fill="url(#paint27_linear_786_11615)"/>
<path d="M163.338 296.311C165.388 296.311 167.049 294.681 167.049 292.671C167.049 290.66 165.388 289.031 163.338 289.031C161.288 289.031 159.627 290.66 159.627 292.671C159.627 294.681 161.288 296.311 163.338 296.311Z" fill="url(#paint28_linear_786_11615)"/>
<path d="M183.748 296.311C185.798 296.311 187.459 294.681 187.459 292.671C187.459 290.66 185.798 289.031 183.748 289.031C181.699 289.031 180.037 290.66 180.037 292.671C180.037 294.681 181.699 296.311 183.748 296.311Z" fill="url(#paint29_linear_786_11615)"/>
<path fill-rule="evenodd" clip-rule="evenodd" d="M170.512 289.839L170.512 288.556L169.185 288.556L169.185 289.839L170.512 289.839Z" fill="#333333"/>
<path fill-rule="evenodd" clip-rule="evenodd" d="M177.771 289.839L177.771 288.556L176.445 288.556L176.445 289.839L177.771 289.839Z" fill="#333333"/>
<path fill-rule="evenodd" clip-rule="evenodd" d="M168.66 292.012L169.435 291.531L170.108 292.573H176.871L177.526 291.535L178.306 292.008L177.382 293.473H169.603L168.66 292.012Z" fill="#333333"/>
<path fill-rule="evenodd" clip-rule="evenodd" d="M173.938 291.321V293.394H173.021V291.321H173.938Z" fill="#333333"/>
<path d="M124.254 292.255C124.254 307.142 96.4495 311.177 96.4495 311.177C96.4495 311.177 68.6445 307.142 68.6445 292.255C68.6445 277.368 96.4495 259.484 96.4495 259.484C96.4495 259.484 124.254 277.371 124.254 292.255Z" fill="url(#paint30_linear_786_11615)"/>
<path d="M96.4501 291.083C97.5382 291.083 98.6156 291.28 99.6209 291.661C100.626 292.042 101.54 292.601 102.309 293.305C103.078 294.009 103.689 294.845 104.105 295.766C104.522 296.686 104.736 297.672 104.736 298.668V319.999H88.168L88.168 298.665C88.169 296.654 89.0419 294.726 90.5948 293.305C92.1478 291.883 94.2538 291.084 96.4501 291.083Z" fill="url(#paint31_linear_786_11615)"/>
<path d="M96.4486 299.837C97.3026 299.837 97.9949 299.323 97.9949 298.688C97.9949 298.054 97.3026 297.54 96.4486 297.54C95.5946 297.54 94.9023 298.054 94.9023 298.688C94.9023 299.323 95.5946 299.837 96.4486 299.837Z" fill="url(#paint32_linear_786_11615)"/>
<path d="M87.7802 304.677C89.5325 304.677 90.953 303.27 90.953 301.535C90.953 299.8 89.5325 298.394 87.7802 298.394C86.0279 298.394 84.6074 299.8 84.6074 301.535C84.6074 303.27 86.0279 304.677 87.7802 304.677Z" fill="url(#paint33_linear_786_11615)"/>
<path d="M105.227 304.677C106.98 304.677 108.4 303.27 108.4 301.535C108.4 299.8 106.98 298.394 105.227 298.394C103.475 298.394 102.055 299.8 102.055 301.535C102.055 303.27 103.475 304.677 105.227 304.677Z" fill="url(#paint34_linear_786_11615)"/>
<path fill-rule="evenodd" clip-rule="evenodd" d="M93.7121 297.938L92.5938 297.938L92.5937 299.135L93.7121 299.135L93.7121 297.938Z" fill="#333333"/>
<path fill-rule="evenodd" clip-rule="evenodd" d="M100.306 297.938L99.1875 297.938L99.1875 299.135L100.306 299.135L100.306 297.938Z" fill="#333333"/>
<path fill-rule="evenodd" clip-rule="evenodd" d="M92.4258 300.965L93.1369 300.528L93.6826 301.398H99.2308L99.7619 300.531L100.477 300.961L99.7019 302.227H93.2171L92.4258 300.965Z" fill="#333333"/>
<defs>
<linearGradient id="paint0_linear_786_11615" x1="139.501" y1="78.7029" x2="220.12" y2="218.121" gradientUnits="userSpaceOnUse">
<stop stop-color="#84E2FF"/>
<stop offset="0.484375" stop-color="#63D0FF"/>
<stop offset="1" stop-color="#2990FF"/>
</linearGradient>
<linearGradient id="paint1_linear_786_11615" x1="206.797" y1="38.4804" x2="215.326" y2="62.0264" gradientUnits="userSpaceOnUse">
<stop offset="0.09375" stop-color="#8DF1A9"/>
<stop offset="1" stop-color="#3AD8C5"/>
</linearGradient>
<linearGradient id="paint2_linear_786_11615" x1="177.471" y1="143.172" x2="184.487" y2="150.456" gradientUnits="userSpaceOnUse">
<stop offset="0.00520833" stop-color="#9FFFD1"/>
<stop offset="1" stop-color="#12CBB5"/>
</linearGradient>
<linearGradient id="paint3_linear_786_11615" x1="135.084" y1="81.4186" x2="160.676" y2="125.869" gradientUnits="userSpaceOnUse">
<stop offset="0.00520833" stop-color="#9FFFD1"/>
<stop offset="1" stop-color="#12CBB5"/>
</linearGradient>
<linearGradient id="paint4_linear_786_11615" x1="103.686" y1="143.057" x2="147.195" y2="164.696" gradientUnits="userSpaceOnUse">
<stop offset="0.00520833" stop-color="#9FFFD1"/>
<stop offset="1" stop-color="#12CBB5"/>
</linearGradient>
<linearGradient id="paint5_linear_786_11615" x1="206.829" y1="119.626" x2="196.516" y2="189.311" gradientUnits="userSpaceOnUse">
<stop offset="0.00520833" stop-color="#9FFFD1"/>
<stop offset="1" stop-color="#12CBB5"/>
</linearGradient>
<linearGradient id="paint6_linear_786_11615" x1="71.9361" y1="265.075" x2="286.91" y2="183.126" gradientUnits="userSpaceOnUse">
<stop stop-color="#B7B7B7"/>
<stop offset="1" stop-color="#D5D5D5"/>
</linearGradient>
<linearGradient id="paint7_linear_786_11615" x1="241.577" y1="228.365" x2="299.647" y2="266.335" gradientUnits="userSpaceOnUse">
<stop offset="0.09375" stop-color="#90F9AE"/>
<stop offset="1" stop-color="#03D1B9"/>
</linearGradient>
<linearGradient id="paint8_linear_786_11615" x1="221.586" y1="279.688" x2="237.105" y2="297.983" gradientUnits="userSpaceOnUse">
<stop offset="0.09375" stop-color="#90F9AE"/>
<stop offset="1" stop-color="#03D1B9"/>
</linearGradient>
<linearGradient id="paint9_linear_786_11615" x1="243.641" y1="295.408" x2="251.856" y2="290.779" gradientUnits="userSpaceOnUse">
<stop offset="0.140625" stop-color="#FBBD90"/>
<stop offset="1" stop-color="#DE7756"/>
</linearGradient>
<linearGradient id="paint10_linear_786_11615" x1="302.973" y1="279.688" x2="287.453" y2="297.983" gradientUnits="userSpaceOnUse">
<stop offset="0.09375" stop-color="#90F9AE"/>
<stop offset="1" stop-color="#03D1B9"/>
</linearGradient>
<linearGradient id="paint11_linear_786_11615" x1="280.916" y1="295.408" x2="272.7" y2="290.779" gradientUnits="userSpaceOnUse">
<stop offset="0.140625" stop-color="#FBBD90"/>
<stop offset="1" stop-color="#DE7756"/>
</linearGradient>
<linearGradient id="paint12_linear_786_11615" x1="251.136" y1="284.561" x2="273.222" y2="317.119" gradientUnits="userSpaceOnUse">
<stop offset="0.140625" stop-color="#FBBD90"/>
<stop offset="1" stop-color="#DE7756"/>
</linearGradient>
<linearGradient id="paint13_linear_786_11615" x1="260.432" y1="284.838" x2="264.281" y2="284.838" gradientUnits="userSpaceOnUse">
<stop offset="0.109375" stop-color="#FFF6A3"/>
<stop offset="1" stop-color="#FF9E58"/>
</linearGradient>
<linearGradient id="paint14_linear_786_11615" x1="247.617" y1="287.42" x2="255.516" y2="287.42" gradientUnits="userSpaceOnUse">
<stop offset="0.109375" stop-color="#FFF6A3"/>
<stop offset="1" stop-color="#FF9E58"/>
</linearGradient>
<linearGradient id="paint15_linear_786_11615" x1="269.336" y1="287.42" x2="277.234" y2="287.42" gradientUnits="userSpaceOnUse">
<stop offset="0.109375" stop-color="#FFF6A3"/>
<stop offset="1" stop-color="#FF9E58"/>
</linearGradient>
<linearGradient id="paint16_linear_786_11615" x1="278.551" y1="251.323" x2="281.727" y2="251.323" gradientUnits="userSpaceOnUse">
<stop offset="0.109375" stop-color="#FFF6A3"/>
<stop offset="1" stop-color="#FF9E58"/>
</linearGradient>
<linearGradient id="paint17_linear_786_11615" x1="263.4" y1="232.544" x2="266.577" y2="232.544" gradientUnits="userSpaceOnUse">
<stop offset="0.109375" stop-color="#FFF6A3"/>
<stop offset="1" stop-color="#FF9E58"/>
</linearGradient>
<linearGradient id="paint18_linear_786_11615" x1="281.729" y1="272.957" x2="284.905" y2="272.957" gradientUnits="userSpaceOnUse">
<stop offset="0.109375" stop-color="#FFF6A3"/>
<stop offset="1" stop-color="#FF9E58"/>
</linearGradient>
<linearGradient id="paint19_linear_786_11615" x1="245.973" y1="246.017" x2="249.149" y2="246.017" gradientUnits="userSpaceOnUse">
<stop offset="0.109375" stop-color="#FFF6A3"/>
<stop offset="1" stop-color="#FF9E58"/>
</linearGradient>
<linearGradient id="paint20_linear_786_11615" x1="238.057" y1="273.609" x2="241.233" y2="273.609" gradientUnits="userSpaceOnUse">
<stop offset="0.109375" stop-color="#FFF6A3"/>
<stop offset="1" stop-color="#FF9E58"/>
</linearGradient>
<linearGradient id="paint21_linear_786_11615" x1="259.25" y1="262.74" x2="262.427" y2="262.74" gradientUnits="userSpaceOnUse">
<stop offset="0.109375" stop-color="#FFF6A3"/>
<stop offset="1" stop-color="#FF9E58"/>
</linearGradient>
<linearGradient id="paint22_linear_786_11615" x1="153.952" y1="248.932" x2="203.663" y2="286.366" gradientUnits="userSpaceOnUse">
<stop offset="0.09375" stop-color="#90F9AE"/>
<stop offset="1" stop-color="#03D1B9"/>
</linearGradient>
<linearGradient id="paint23_linear_786_11615" x1="173.479" y1="257.108" x2="176.644" y2="257.108" gradientUnits="userSpaceOnUse">
<stop offset="0.109375" stop-color="#FFF6A3"/>
<stop offset="1" stop-color="#FF9E58"/>
</linearGradient>
<linearGradient id="paint24_linear_786_11615" x1="187.461" y1="275.793" x2="190.627" y2="275.793" gradientUnits="userSpaceOnUse">
<stop offset="0.109375" stop-color="#FFF6A3"/>
<stop offset="1" stop-color="#FF9E58"/>
</linearGradient>
<linearGradient id="paint25_linear_786_11615" x1="153.229" y1="278.898" x2="156.394" y2="278.898" gradientUnits="userSpaceOnUse">
<stop offset="0.109375" stop-color="#FFF6A3"/>
<stop offset="1" stop-color="#FF9E58"/>
</linearGradient>
<linearGradient id="paint26_linear_786_11615" x1="162.936" y1="288.811" x2="181.872" y2="318.619" gradientUnits="userSpaceOnUse">
<stop offset="0.140625" stop-color="#FBBD90"/>
<stop offset="1" stop-color="#DE7756"/>
</linearGradient>
<linearGradient id="paint27_linear_786_11615" x1="171.67" y1="289.372" x2="175.287" y2="289.372" gradientUnits="userSpaceOnUse">
<stop offset="0.109375" stop-color="#FFF6A3"/>
<stop offset="1" stop-color="#FF9E58"/>
</linearGradient>
<linearGradient id="paint28_linear_786_11615" x1="159.627" y1="292.671" x2="167.049" y2="292.671" gradientUnits="userSpaceOnUse">
<stop offset="0.109375" stop-color="#FFF6A3"/>
<stop offset="1" stop-color="#FF9E58"/>
</linearGradient>
<linearGradient id="paint29_linear_786_11615" x1="180.037" y1="292.671" x2="187.459" y2="292.671" gradientUnits="userSpaceOnUse">
<stop offset="0.109375" stop-color="#FFF6A3"/>
<stop offset="1" stop-color="#FF9E58"/>
</linearGradient>
<linearGradient id="paint30_linear_786_11615" x1="79.3214" y1="264.259" x2="119.51" y2="297.888" gradientUnits="userSpaceOnUse">
<stop offset="0.09375" stop-color="#90F9AE"/>
<stop offset="1" stop-color="#03D1B9"/>
</linearGradient>
<linearGradient id="paint31_linear_786_11615" x1="86.6976" y1="297.132" x2="99.0207" y2="321.6" gradientUnits="userSpaceOnUse">
<stop offset="0.140625" stop-color="#FBBD90"/>
<stop offset="1" stop-color="#DE7756"/>
</linearGradient>
<linearGradient id="paint32_linear_786_11615" x1="94.9023" y1="298.688" x2="97.9949" y2="298.688" gradientUnits="userSpaceOnUse">
<stop offset="0.109375" stop-color="#FFF6A3"/>
<stop offset="1" stop-color="#FF9E58"/>
</linearGradient>
<linearGradient id="paint33_linear_786_11615" x1="84.6074" y1="301.535" x2="90.953" y2="301.535" gradientUnits="userSpaceOnUse">
<stop offset="0.109375" stop-color="#FFF6A3"/>
<stop offset="1" stop-color="#FF9E58"/>
</linearGradient>
<linearGradient id="paint34_linear_786_11615" x1="102.055" y1="301.535" x2="108.4" y2="301.535" gradientUnits="userSpaceOnUse">
<stop offset="0.109375" stop-color="#FFF6A3"/>
<stop offset="1" stop-color="#FF9E58"/>
</linearGradient>
</defs>
</svg>
