<svg width="17" height="16" viewBox="0 0 17 16" fill="none" xmlns="http://www.w3.org/2000/svg">
<path fill-rule="evenodd" clip-rule="evenodd" d="M16.3369 8.00067C16.3369 12.4175 12.7555 16 8.33691 16C3.91835 16 0.336914 12.4175 0.336914 8.00067C0.336914 3.58247 3.91835 0 8.33691 0C12.7555 0 16.3369 3.58247 16.3369 8.00067Z" fill="#FFE55E"/>
<g filter="url(#filter0_d_1439_11670)">
<path fill-rule="evenodd" clip-rule="evenodd" d="M10.6788 4.79785C10.2056 4.79785 9.81997 5.13581 9.81997 5.55136V8.43996L7.04473 5.24315C6.84725 5.02103 6.60419 4.81592 6.16716 4.81592H6.00708C5.5198 4.81592 5.1377 5.15069 5.1377 5.57792V10.4433C5.1377 10.8599 5.52331 11.1979 5.99656 11.1979C6.46981 11.1979 6.85659 10.8599 6.85659 10.4433V7.43246L9.74168 10.7536C9.93799 10.9747 10.181 11.1808 10.6192 11.1808H10.6683C11.1568 11.1808 11.5377 10.845 11.5377 10.4178V5.55136C11.5377 5.13581 11.1521 4.79785 10.6788 4.79785Z" fill="white"/>
</g>
<defs>
<filter id="filter0_d_1439_11670" x="3.1377" y="2.79785" width="10.4004" height="10.3999" filterUnits="userSpaceOnUse" color-interpolation-filters="sRGB">
<feFlood flood-opacity="0" result="BackgroundImageFix"/>
<feColorMatrix in="SourceAlpha" type="matrix" values="0 0 0 0 0 0 0 0 0 0 0 0 0 0 0 0 0 0 127 0" result="hardAlpha"/>
<feOffset/>
<feGaussianBlur stdDeviation="1"/>
<feComposite in2="hardAlpha" operator="out"/>
<feColorMatrix type="matrix" values="0 0 0 0 0.691667 0 0 0 0 0.313556 0 0 0 0 0.100868 0 0 0 0.3 0"/>
<feBlend mode="normal" in2="BackgroundImageFix" result="effect1_dropShadow_1439_11670"/>
<feBlend mode="normal" in="SourceGraphic" in2="effect1_dropShadow_1439_11670" result="shape"/>
</filter>
</defs>
</svg>
