<svg width="25" height="25" viewBox="0 0 25 25" fill="none" xmlns="http://www.w3.org/2000/svg">
<g clip-path="url(#clip0_1215_20251)">
<path d="M22.2687 11.646C22.4426 11.646 22.6105 11.709 22.7415 11.8232C22.8726 11.9375 22.9578 12.0953 22.9814 12.2675L22.9881 12.3654V20.5182C22.9882 21.439 22.6351 22.3247 22.0017 22.993C21.3682 23.6612 20.5026 24.0611 19.5831 24.1102L19.3913 24.115H5.48355C4.56261 24.1151 3.67672 23.7619 3.00844 23.1282C2.34015 22.4946 1.94039 21.6287 1.89151 20.709L1.88672 20.5172V12.3644C1.88702 12.1822 1.95642 12.0069 2.08093 11.8739C2.20544 11.7409 2.37577 11.6601 2.55753 11.6478C2.73929 11.6356 2.91896 11.6927 3.06024 11.8077C3.20152 11.9227 3.29391 12.087 3.31874 12.2675L3.32545 12.3654V20.5182C3.32538 21.065 3.53291 21.5915 3.90609 21.9912C4.27927 22.3909 4.79028 22.634 5.33584 22.6715L5.48355 22.6763H19.3913C19.9381 22.6763 20.4646 22.4688 20.8643 22.0956C21.264 21.7224 21.5072 21.2114 21.5446 20.6659L21.5494 20.5182V12.3654C21.5494 12.1746 21.6252 11.9916 21.7601 11.8567C21.895 11.7218 22.078 11.646 22.2687 11.646V11.646ZM12.307 1.34659L12.3712 1.33796L12.4537 1.33508L12.5113 1.33892L12.6014 1.35427L12.6667 1.37249L12.7242 1.39359L12.7913 1.42812L12.8403 1.45881L12.8767 1.48471L12.9458 1.54514L19.0498 7.6492C19.1789 7.77739 19.2546 7.94972 19.2617 8.13148C19.2687 8.31323 19.2067 8.49093 19.0881 8.6288C18.9694 8.76667 18.8029 8.85446 18.6221 8.87452C18.4414 8.89457 18.2597 8.84539 18.1137 8.73688L18.0331 8.66686L13.1568 3.79052V16.6816C13.1568 16.8554 13.0938 17.0233 12.9796 17.1544C12.8653 17.2854 12.7075 17.3706 12.5353 17.3942L12.4374 17.4009C12.2636 17.4009 12.0956 17.338 11.9646 17.2237C11.8336 17.1094 11.7484 16.9516 11.7248 16.7794L11.7181 16.6816V3.79052L6.84171 8.66686C6.71991 8.78869 6.55843 8.86276 6.38664 8.87561C6.21484 8.88846 6.04414 8.83923 5.90558 8.73688L5.82501 8.66686C5.70318 8.54506 5.6291 8.38358 5.61625 8.21179C5.6034 8.03999 5.65263 7.86929 5.75499 7.73072L5.82501 7.6492L11.9291 1.5461L12.0346 1.45977L12.1257 1.40702L12.2082 1.37345L12.307 1.34755V1.34659Z" fill="#29D3C6"/>
</g>
<defs>
<clipPath id="clip0_1215_20251">
<rect width="24" height="24" fill="white" transform="translate(0.4375 0.725098)"/>
</clipPath>
</defs>
</svg>
