<svg width="25" height="25" viewBox="0 0 25 25" fill="none" xmlns="http://www.w3.org/2000/svg">
<path d="M12.4375 14.0969C7.8775 14.0969 4.1875 17.4569 4.1875 21.5969H20.6875C20.6875 17.4569 16.9975 14.0969 12.4375 14.0969Z" stroke="#29D3C6" stroke-width="1.6" stroke-linecap="round" stroke-linejoin="round"/>
<path d="M12.4375 10.6967C13.1297 10.6967 13.8064 10.4914 14.382 10.1068C14.9576 9.72222 15.4062 9.17559 15.6711 8.53605C15.936 7.89651 16.0053 7.19277 15.8702 6.51384C15.7352 5.83491 15.4019 5.21127 14.9124 4.72178C14.4229 4.2323 13.7993 3.89896 13.1203 3.76391C12.4414 3.62886 11.7376 3.69817 11.0981 3.96308C10.4586 4.22799 9.91194 4.67659 9.52736 5.25216C9.14277 5.82773 8.9375 6.50442 8.9375 7.19666C8.9375 8.12491 9.30625 9.01515 9.96263 9.67153C10.619 10.3279 11.5092 10.6967 12.4375 10.6967Z" stroke="#29D3C6" stroke-width="1.6" stroke-linecap="round" stroke-linejoin="round"/>
</svg>
