<svg width="25" height="25" viewBox="0 0 25 25" fill="none" xmlns="http://www.w3.org/2000/svg">
<path d="M12.438 16.2646C14.3929 16.2646 15.9776 14.6799 15.9776 12.725C15.9776 10.7702 14.3929 9.18542 12.438 9.18542C10.4832 9.18542 8.89844 10.7702 8.89844 12.725C8.89844 14.6799 10.4832 16.2646 12.438 16.2646Z" stroke="#29D3C6" stroke-width="1.5" stroke-linecap="round" stroke-linejoin="round"/>
<path d="M21.9987 11.6412C21.9652 11.5042 21.886 11.3825 21.7742 11.296C21.6624 11.2096 21.5245 11.1634 21.383 11.165C20.9488 11.1751 20.5221 11.0522 20.1602 10.813C19.7983 10.5738 19.5186 10.2298 19.359 9.82726C19.1993 9.42475 19.1673 8.98311 19.2672 8.56188C19.3671 8.14066 19.5942 7.7601 19.9178 7.47149C20.0222 7.37922 20.0869 7.25031 20.0983 7.11167C20.1089 6.97778 20.0671 6.84499 19.9815 6.74126C19.5425 6.16847 19.0403 5.64663 18.4845 5.18554C18.3794 5.10213 18.247 5.06064 18.1129 5.06912C17.9685 5.09446 17.8393 5.174 17.7519 5.29137C17.4479 5.60756 17.0577 5.82814 16.6295 5.92593C16.2012 6.02372 15.7536 5.99444 15.3418 5.84169C14.9345 5.6654 14.5902 5.37022 14.3545 4.99504C14.1281 4.61877 14.0173 4.18459 14.0359 3.74623C14.0418 3.67743 14.0335 3.60816 14.0116 3.54265C13.9897 3.47715 13.9546 3.41678 13.9085 3.36524C13.8664 3.31116 13.8136 3.26633 13.7533 3.23355C13.693 3.20078 13.6266 3.18075 13.5582 3.17474C12.8524 3.09849 12.1405 3.09849 11.4348 3.17474C11.2995 3.18871 11.1744 3.25294 11.0844 3.35465C10.996 3.45734 10.9504 3.5899 10.957 3.72506C10.9695 4.15894 10.8512 4.58658 10.6173 4.95271C10.3783 5.32004 10.0344 5.60756 9.62987 5.77819C9.20967 5.93125 8.75338 5.95664 8.3187 5.85114C7.88403 5.74565 7.49052 5.51401 7.18794 5.18554C7.14431 5.13487 7.0907 5.09369 7.03042 5.06456C6.97015 5.03543 6.90451 5.01897 6.83758 5.01621C6.77165 5.0064 6.70438 5.01077 6.64029 5.02902C6.57619 5.04728 6.51676 5.07899 6.46598 5.12204C5.88672 5.57425 5.36288 6.09287 4.90527 6.66718C4.81998 6.77518 4.77832 6.91109 4.78849 7.04817C4.79684 7.12079 4.82115 7.19069 4.85969 7.25288C4.89823 7.31507 4.95004 7.36803 5.01144 7.40799C5.34345 7.70387 5.57373 8.09631 5.6697 8.52981C5.76721 8.96177 5.72636 9.41334 5.55292 9.82095C5.37195 10.2189 5.07628 10.5541 4.70355 10.784C4.33042 11.0208 3.89243 11.1355 3.45074 11.1121C3.31514 11.1055 3.18216 11.1509 3.07914 11.2391C3.02684 11.282 2.98387 11.3352 2.95284 11.3952C2.92181 11.4552 2.90337 11.521 2.89865 11.5883C2.81223 12.3088 2.80866 13.0367 2.88803 13.7579C2.92016 13.8977 3.00041 14.0219 3.11484 14.1089C3.22927 14.1959 3.37065 14.2402 3.51444 14.2341C3.94044 14.2279 4.35846 14.3496 4.71417 14.5834C5.0649 14.8254 5.33779 15.1636 5.49983 15.557C5.66526 15.9594 5.70233 16.4028 5.606 16.827C5.50844 17.2768 5.27059 17.6843 4.92651 17.9911C4.87421 18.0341 4.83124 18.0872 4.80021 18.1472C4.76918 18.2073 4.75074 18.273 4.74602 18.3404C4.73585 18.4775 4.77751 18.6134 4.86281 18.7214C5.31477 19.2743 5.8276 19.7748 6.39166 20.2136C6.50001 20.2986 6.63636 20.3401 6.77388 20.33C6.84261 20.3287 6.9103 20.3129 6.9725 20.2838C7.03471 20.2546 7.09003 20.2126 7.13486 20.1607C7.43936 19.8419 7.83199 19.6204 8.26295 19.5243C8.69391 19.4282 9.14379 19.4618 9.55555 19.6209C9.96401 19.7903 10.3092 20.0826 10.5429 20.457C10.7767 20.8302 10.8881 21.2667 10.8614 21.7058C10.8513 21.8429 10.8929 21.9788 10.9782 22.0868C11.0682 22.1885 11.1933 22.2527 11.3286 22.2667C11.6987 22.309 12.0709 22.3302 12.4434 22.3302C12.7981 22.3393 13.153 22.3216 13.5051 22.2773C13.639 22.2588 13.7626 22.1953 13.8555 22.0974C13.9007 22.0474 13.9354 21.9889 13.9573 21.9252C13.9792 21.8615 13.9879 21.7941 13.9829 21.727C13.9708 21.2898 14.0891 20.8589 14.3226 20.4887C14.558 20.1183 14.903 19.8298 15.31 19.6633C15.7187 19.5172 16.161 19.4914 16.584 19.5892C17.0075 19.6877 17.3941 19.9043 17.6988 20.2136C17.7419 20.2657 17.7952 20.3086 17.8554 20.3395C17.9157 20.3704 17.9816 20.3888 18.0492 20.3935C18.1835 20.4041 18.3167 20.3624 18.4208 20.2771C18.9972 19.8217 19.5207 19.3034 19.9815 18.7319C20.066 18.6197 20.1022 18.4785 20.0823 18.3396C20.0624 18.2007 19.988 18.0753 19.8753 17.9911C19.6599 17.8002 19.4858 17.5676 19.3635 17.3074C19.2412 17.0472 19.1733 16.7649 19.164 16.4777C19.1525 16.1927 19.199 15.9084 19.3006 15.6417C19.4022 15.3751 19.5567 15.1316 19.7551 14.926C19.9534 14.7204 20.1914 14.5569 20.4547 14.4453C20.718 14.3336 21.0013 14.2762 21.2874 14.2764H21.4042C21.4732 14.2823 21.5427 14.274 21.6084 14.2522C21.6741 14.2304 21.7347 14.1954 21.7864 14.1495C21.8379 14.1081 21.8805 14.0568 21.9115 13.9986C21.9425 13.9404 21.9614 13.8765 21.9669 13.8108C22.0604 13.0912 22.0711 12.3633 21.9987 11.6412Z" stroke="#29D3C6" stroke-width="1.5" stroke-linecap="round" stroke-linejoin="round"/>
</svg>
