<svg width="360" height="304" viewBox="0 0 360 304" fill="none" xmlns="http://www.w3.org/2000/svg">
<g clip-path="url(#clip0_2069_26542)">
<path d="M187.561 135.279C187.561 135.279 210.27 138.639 222.086 126.723C233.901 114.808 230.35 92.1285 230.35 92.1285C230.35 92.1285 207.642 88.7685 195.826 100.684C184.01 112.6 187.561 135.279 187.561 135.279Z" fill="url(#paint0_linear_2069_26542)"/>
<path d="M181.238 141.524L208.431 114.101" stroke="#333333"/>
<path d="M196.834 125.516L210.33 123.163" stroke="#333333"/>
<path d="M179.656 500.338C215.41 500.338 250.36 489.736 280.089 469.873C309.817 450.009 332.987 421.776 346.669 388.744C360.351 355.712 363.931 319.364 356.956 284.298C349.981 249.231 332.764 217.021 307.482 191.739C282.201 166.457 249.99 149.24 214.923 142.265C179.857 135.29 143.509 138.87 110.477 152.552C77.4452 166.234 49.2123 189.405 29.3486 219.133C9.48498 248.861 -1.11719 283.811 -1.11719 319.565C-1.11719 367.509 17.9285 413.49 51.8301 447.391C85.7317 481.293 131.712 500.338 179.656 500.338V500.338Z" fill="url(#paint1_linear_2069_26542)"/>
<path fill-rule="evenodd" clip-rule="evenodd" d="M240.944 149.498C232.498 146.454 223.802 144.031 214.924 142.265C179.857 135.29 143.509 138.87 110.477 152.552C77.4454 166.234 49.2124 189.405 29.3488 219.133C25.9073 224.283 22.7438 229.591 19.8652 235.032C21.6751 255.624 60.5676 259.498 92.8208 222.422C113.837 203.377 137.152 190.898 172.49 188.845C214.752 188.845 235.851 170.562 240.944 149.498Z" fill="url(#paint2_linear_2069_26542)"/>
<path d="M179.659 246.623C187.084 246.623 193.088 242.125 193.088 236.551C193.088 230.977 187.084 226.501 179.659 226.501C172.235 226.501 166.23 230.999 166.23 236.551C166.23 242.103 172.256 246.623 179.659 246.623Z" fill="url(#paint3_linear_2069_26542)"/>
<path d="M142.645 231.145V241.98" stroke="#333333" stroke-width="5.3" stroke-miterlimit="10"/>
<path d="M216.672 231.145V241.98" stroke="#333333" stroke-width="5.3" stroke-miterlimit="10"/>
<path d="M222.847 258.708V265.686H136.461V258.708" stroke="#333333" stroke-width="3.2" stroke-miterlimit="10"/>
</g>
<defs>
<linearGradient id="paint0_linear_2069_26542" x1="218.31" y1="88.0943" x2="232.297" y2="126.709" gradientUnits="userSpaceOnUse">
<stop offset="0.09375" stop-color="#8DF1A9"/>
<stop offset="1" stop-color="#3AD8C5"/>
</linearGradient>
<linearGradient id="paint1_linear_2069_26542" x1="81.8584" y1="148.192" x2="227.113" y2="373.252" gradientUnits="userSpaceOnUse">
<stop offset="0.276042" stop-color="#74DEFF"/>
<stop offset="1" stop-color="#499DFF"/>
</linearGradient>
<linearGradient id="paint2_linear_2069_26542" x1="95.6023" y1="161.904" x2="131.004" y2="237.71" gradientUnits="userSpaceOnUse">
<stop offset="0.00520833" stop-color="#9FFFD1"/>
<stop offset="1" stop-color="#12CBB5"/>
</linearGradient>
<linearGradient id="paint3_linear_2069_26542" x1="171.387" y1="228.36" x2="187.269" y2="244.848" gradientUnits="userSpaceOnUse">
<stop offset="0.00520833" stop-color="#9FFFD1"/>
<stop offset="1" stop-color="#12CBB5"/>
</linearGradient>
<clipPath id="clip0_2069_26542">
<rect width="360" height="304" fill="white"/>
</clipPath>
</defs>
</svg>
