<svg width="360" height="304" viewBox="0 0 360 304" fill="none" xmlns="http://www.w3.org/2000/svg">
<rect width="360" height="304" fill="white"/>
<g clip-path="url(#clip0_1643_21463)">
<path d="M187.561 135.279C187.561 135.279 210.27 138.639 222.086 126.723C233.901 114.808 230.35 92.1285 230.35 92.1285C230.35 92.1285 207.642 88.7685 195.826 100.684C184.01 112.6 187.561 135.279 187.561 135.279Z" fill="url(#paint0_linear_1643_21463)"/>
<path d="M181.236 141.524L208.429 114.101" stroke="#333333"/>
<path d="M196.833 125.516L210.329 123.163" stroke="#333333"/>
<path d="M179.657 500.338C215.411 500.338 250.361 489.736 280.089 469.873C309.818 450.009 332.988 421.776 346.67 388.744C360.352 355.712 363.932 319.364 356.957 284.298C349.982 249.231 332.765 217.021 307.483 191.739C282.202 166.457 249.991 149.24 214.924 142.265C179.858 135.29 143.51 138.87 110.478 152.552C77.4462 166.234 49.2132 189.405 29.3496 219.133C9.48596 248.861 -1.11621 283.811 -1.11621 319.565C-1.11621 367.509 17.9295 413.49 51.8311 447.391C85.7327 481.293 131.713 500.338 179.657 500.338V500.338Z" fill="url(#paint1_linear_1643_21463)"/>
<path fill-rule="evenodd" clip-rule="evenodd" d="M240.945 149.498C232.499 146.454 223.803 144.031 214.925 142.265C179.858 135.29 143.51 138.87 110.478 152.552C77.4464 166.234 49.2134 189.405 29.3498 219.133C25.9082 224.283 22.7447 229.591 19.8662 235.032C21.6761 255.624 60.5686 259.498 92.8218 222.422C113.838 203.377 137.153 190.898 172.491 188.845C214.753 188.845 235.852 170.562 240.945 149.498Z" fill="url(#paint2_linear_1643_21463)"/>
<path d="M179.661 246.623C187.086 246.623 193.09 242.125 193.09 236.551C193.09 230.977 187.086 226.501 179.661 226.501C172.237 226.501 166.232 230.999 166.232 236.551C166.232 242.103 172.258 246.623 179.661 246.623Z" fill="url(#paint3_linear_1643_21463)"/>
<path d="M142.646 231.145V241.98" stroke="#333333" stroke-width="5.3" stroke-miterlimit="10"/>
<path d="M216.675 231.145V241.98" stroke="#333333" stroke-width="5.3" stroke-miterlimit="10"/>
<path d="M222.849 258.708V265.686H136.463V258.708" stroke="#333333" stroke-width="3.2" stroke-miterlimit="10"/>
</g>
<g filter="url(#filter0_d_1643_21463)">
<circle cx="324" cy="36" r="20" fill="#D3FFFA"/>
</g>
<path d="M325.4 41.4062H322.602V49.4814H325.4V41.4062Z" fill="url(#paint4_linear_1643_21463)"/>
<path d="M323.999 43.7028C328.558 43.7028 332.254 39.1847 332.254 33.6112C332.254 28.0377 328.558 23.5195 323.999 23.5195C319.441 23.5195 315.745 28.0377 315.745 33.6112C315.745 39.1847 319.441 43.7028 323.999 43.7028Z" fill="url(#paint5_linear_1643_21463)"/>
<path d="M25.302 23.794V31.214H26.45V23.794H25.302ZM25.302 30.878V31.886H26.114C27.64 31.886 29.054 31.816 30.706 31.48L30.552 30.486C28.956 30.808 27.584 30.878 26.114 30.878H25.302ZM34.332 22.436V35.092H35.452V22.436H34.332ZM28.816 26.678V27.644H31.98V26.678H28.816ZM31.658 22.73V34.448H32.75V22.73H31.658ZM46.7629 22.422V35.106H47.9249V22.422H46.7629ZM41.2469 23.402C39.3849 23.402 38.0409 25.124 38.0409 27.812C38.0409 30.514 39.3849 32.236 41.2469 32.236C43.1229 32.236 44.4669 30.514 44.4669 27.812C44.4669 25.124 43.1229 23.402 41.2469 23.402ZM41.2469 24.452C42.4929 24.452 43.3469 25.768 43.3469 27.812C43.3469 29.87 42.4929 31.214 41.2469 31.214C40.0149 31.214 39.1469 29.87 39.1469 27.812C39.1469 25.768 40.0149 24.452 41.2469 24.452ZM59.7258 22.422V35.106H60.8738V22.422H59.7258ZM56.3798 27.126V28.078H60.0618V27.126H56.3798ZM50.9618 23.43V31.928H56.7718V23.43H55.6238V26.72H52.1098V23.43H50.9618ZM52.1098 27.644H55.6238V30.962H52.1098V27.644ZM68.4047 23.304V24.27C68.4047 26.426 66.0247 28.358 63.7987 28.778L64.3167 29.744C66.8507 29.17 69.4127 27.028 69.4127 24.27V23.304H68.4047ZM68.6147 23.304V24.27C68.6147 27.042 71.1907 29.17 73.7107 29.744L74.2287 28.778C72.0167 28.358 69.6227 26.44 69.6227 24.27V23.304H68.6147ZM63.3367 32.432V33.384H74.8027V32.432H63.3367ZM79.4076 28.82V31.844H80.5696V28.82H79.4076ZM79.9816 23.248C78.0356 23.248 76.6356 24.466 76.6356 26.23C76.6356 27.994 78.0356 29.212 79.9816 29.212C81.9276 29.212 83.3276 27.994 83.3276 26.23C83.3276 24.466 81.9276 23.248 79.9816 23.248ZM79.9816 24.242C81.2696 24.242 82.1936 25.054 82.1936 26.23C82.1936 27.406 81.2696 28.218 79.9816 28.218C78.6936 28.218 77.7696 27.406 77.7696 26.23C77.7696 25.054 78.6936 24.242 79.9816 24.242ZM84.7696 22.436V35.092H85.9316V22.436H84.7696ZM85.5956 27.644V28.624H87.9336V27.644H85.5956ZM76.2296 32.362C78.4416 32.362 81.3956 32.334 84.0696 31.886L83.9716 31.018C81.3956 31.368 78.3436 31.382 76.0616 31.396L76.2296 32.362ZM100.877 22.436V30.052H102.039V22.436H100.877ZM101.717 25.796V26.762H103.915V25.796H101.717ZM94.0874 30.766V34.924H102.039V30.766H94.0874ZM100.905 31.704V33.986H95.2214V31.704H100.905ZM92.2534 23.766V24.718H99.7294V23.766H92.2534ZM95.9914 25.334C94.1714 25.334 92.9534 26.23 92.9534 27.602C92.9534 28.974 94.1714 29.842 95.9914 29.842C97.7974 29.842 99.0154 28.974 99.0154 27.602C99.0154 26.23 97.7974 25.334 95.9914 25.334ZM95.9914 26.23C97.1254 26.23 97.9094 26.762 97.9094 27.602C97.9094 28.428 97.1254 28.96 95.9914 28.96C94.8294 28.96 94.0594 28.428 94.0594 27.602C94.0594 26.762 94.8294 26.23 95.9914 26.23ZM95.4034 22.324V24.256H96.5654V22.324H95.4034ZM107.218 23.948V24.032C107.218 26.678 106.854 29.324 105.118 31.578L106.028 32.11C107.834 29.646 108.198 26.664 108.198 23.948H107.218ZM105.384 23.948V24.914H107.792V23.948H105.384ZM110.004 23.948V24.046C110.004 26.58 109.85 29.87 107.918 32.39L108.842 32.922C110.83 30.178 110.998 26.622 110.998 23.948H110.004ZM108.618 23.948V24.914H110.62V23.948H108.618ZM114.778 22.436V35.092H115.898V22.436H114.778ZM110.41 27.406V28.358H112.678V27.406H110.41ZM112.44 22.758V34.448H113.532V22.758H112.44ZM126.635 22.45V31.942H127.797V22.45H126.635ZM127.433 26.594V27.574H129.673V26.594H127.433ZM118.011 23.976V24.914H125.487V23.976H118.011ZM121.749 25.614C119.943 25.614 118.711 26.552 118.711 27.98C118.711 29.394 119.943 30.332 121.749 30.332C123.541 30.332 124.773 29.394 124.773 27.98C124.773 26.552 123.541 25.614 121.749 25.614ZM121.749 26.524C122.883 26.524 123.667 27.098 123.667 27.98C123.667 28.848 122.883 29.422 121.749 29.422C120.601 29.422 119.817 28.848 119.817 27.98C119.817 27.098 120.601 26.524 121.749 26.524ZM121.161 22.436V24.466H122.323V22.436H121.161ZM119.915 33.86V34.812H128.371V33.86H119.915ZM119.915 31.186V34.266H121.077V31.186H119.915ZM134.208 24.242V26.3C134.208 28.484 132.682 30.864 130.848 31.732L131.52 32.656C133.536 31.662 135.146 28.974 135.146 26.3V24.242H134.208ZM134.432 24.242V26.3C134.432 28.932 136.056 31.396 138.1 32.348L138.758 31.424C136.896 30.626 135.37 28.442 135.37 26.3V24.242H134.432ZM131.268 23.724V24.704H138.338V23.724H131.268ZM140.046 22.436V35.092H141.208V22.436H140.046ZM28.046 47.242V49.3C28.046 51.484 26.52 53.864 24.686 54.732L25.358 55.656C27.374 54.662 28.984 51.974 28.984 49.3V47.242H28.046ZM28.27 47.242V49.3C28.27 51.932 29.894 54.396 31.938 55.348L32.596 54.424C30.734 53.626 29.208 51.442 29.208 49.3V47.242H28.27ZM25.106 46.724V47.704H32.176V46.724H25.106ZM33.884 45.436V58.092H35.046V45.436H33.884ZM39.0069 46.262V47.2H46.9169V46.262H39.0069ZM37.5789 51.694V52.646H49.0169V51.694H37.5789ZM42.6889 52.324V58.106H43.8509V52.324H42.6889ZM46.3709 46.262V47.354C46.3709 48.628 46.3709 50.098 45.8809 52.142L47.0289 52.296C47.5049 50.154 47.5049 48.67 47.5049 47.354V46.262H46.3709ZM55.5818 50.35V51.316H57.9758V50.35H55.5818ZM60.0898 45.436V58.092H61.2098V45.436H60.0898ZM57.5838 45.702V57.462H58.6898V45.702H57.5838ZM53.2998 46.486C51.6618 46.486 50.6118 48.18 50.6118 50.896C50.6118 53.612 51.6618 55.306 53.2998 55.306C54.9378 55.306 56.0018 53.612 56.0018 50.896C56.0018 48.18 54.9378 46.486 53.2998 46.486ZM53.2998 47.564C54.3078 47.564 54.9378 48.852 54.9378 50.896C54.9378 52.94 54.3078 54.228 53.2998 54.228C52.3058 54.228 51.6758 52.94 51.6758 50.896C51.6758 48.852 52.3058 47.564 53.2998 47.564ZM72.9687 45.436V58.092H74.0887V45.436H72.9687ZM67.4807 50.602V51.54H70.6727V50.602H67.4807ZM70.3367 45.758V57.448H71.4287V45.758H70.3367ZM67.6347 47.032V47.242C67.6347 50.224 66.3047 52.744 63.3227 54.536L64.0087 55.362C67.4247 53.332 68.7547 50.35 68.7547 47.032H67.6347ZM63.8827 47.032V47.984H68.0687V47.032H63.8827ZM85.8285 48.418V49.384H89.0205V48.418H85.8285ZM82.5105 46.206V47.76C82.5105 49.692 81.2365 51.484 79.3605 52.184L79.9625 53.108C82.0765 52.254 83.4485 50.21 83.4485 47.76V46.206H82.5105ZM82.7345 46.206V47.802C82.7345 50.056 84.0925 52.016 86.1085 52.8L86.7385 51.904C84.9045 51.232 83.6725 49.566 83.6725 47.802V46.206H82.7345ZM88.5865 45.45V54.914H89.7485V45.45H88.5865ZM81.6145 56.86V57.812H90.0565V56.86H81.6145ZM81.6145 53.864V57.308H82.7765V53.864H81.6145ZM97.3494 51.414V53.36H98.4974V51.414H97.3494ZM92.2114 50.77V51.708H103.649V50.77H92.2114ZM93.6954 45.856V49.706H102.165V45.856H93.6954ZM101.031 46.78V48.782H94.8434V46.78H101.031ZM93.5974 52.94V53.836H101.045V54.942H93.6254V57.322H94.7734V55.782H102.193V52.94H93.5974ZM93.6254 57.042V57.952H102.571V57.042H93.6254ZM113.756 45.45V54.942H114.918V45.45H113.756ZM114.554 49.594V50.574H116.794V49.594H114.554ZM105.132 46.976V47.914H112.608V46.976H105.132ZM108.87 48.614C107.064 48.614 105.832 49.552 105.832 50.98C105.832 52.394 107.064 53.332 108.87 53.332C110.662 53.332 111.894 52.394 111.894 50.98C111.894 49.552 110.662 48.614 108.87 48.614ZM108.87 49.524C110.004 49.524 110.788 50.098 110.788 50.98C110.788 51.848 110.004 52.422 108.87 52.422C107.722 52.422 106.938 51.848 106.938 50.98C106.938 50.098 107.722 49.524 108.87 49.524ZM108.282 45.436V47.466H109.444V45.436H108.282ZM107.036 56.86V57.812H115.492V56.86H107.036ZM107.036 54.186V57.266H108.198V54.186H107.036ZM130.522 50.476V51.456H132.86V50.476H130.522ZM129.668 45.422V58.092H130.844V45.422H129.668ZM121.604 46.668V54.508H122.766V46.668H121.604ZM121.604 53.906V54.886H122.612C124.53 54.886 126.476 54.76 128.632 54.312L128.492 53.346C126.406 53.78 124.488 53.906 122.612 53.906H121.604ZM133.979 52.786V53.738H145.459V52.786H133.979ZM139.103 53.36V58.092H140.251V53.36H139.103ZM135.435 46.136V51.078H143.975V46.136H135.435ZM142.841 47.074V50.14H136.583V47.074H142.841Z" fill="#333333"/>
<path d="M148.86 34H150.512C150.694 29.982 151.072 27.7 153.48 24.676V23.696H146.858V25.068H151.702C149.7 27.84 149.042 30.248 148.86 34ZM158.146 34.196C160.162 34.196 161.478 32.39 161.478 28.806C161.478 25.25 160.162 23.514 158.146 23.514C156.116 23.514 154.814 25.25 154.814 28.806C154.814 32.39 156.116 34.196 158.146 34.196ZM158.146 32.908C157.096 32.908 156.354 31.788 156.354 28.806C156.354 25.866 157.096 24.774 158.146 24.774C159.196 24.774 159.924 25.866 159.924 28.806C159.924 31.788 159.196 32.908 158.146 32.908ZM166.369 22.786C164.451 22.786 163.023 23.976 163.023 25.67C163.023 27.35 164.451 28.54 166.369 28.54C168.301 28.54 169.729 27.35 169.729 25.67C169.729 23.976 168.301 22.786 166.369 22.786ZM166.369 23.99C167.489 23.99 168.301 24.648 168.301 25.67C168.301 26.692 167.489 27.35 166.369 27.35C165.263 27.35 164.437 26.692 164.437 25.67C164.437 24.648 165.263 23.99 166.369 23.99ZM171.857 22.366V28.848H173.327V22.366H171.857ZM164.941 29.436V30.584H171.871V31.634H164.969V34.476H166.397V32.712H173.327V29.436H164.941ZM164.969 33.846V35.008H173.705V33.846H164.969ZM185.408 22.366V35.162H186.78V22.366H185.408ZM183.784 27.462V28.652H185.898V27.462H183.784ZM182.93 22.604V34.546H184.274V22.604H182.93ZM177.036 24.592V26.076C177.036 27.756 176.826 29.996 175.37 31.2L176.196 32.194C177.778 30.892 178.03 28.19 178.03 26.076V24.592H177.036ZM177.316 24.592V26.076C177.316 27.91 177.442 30.92 179.122 32.334L179.836 31.298C178.366 29.94 178.296 27.518 178.296 26.076V24.592H177.316ZM179.948 24.592V26.076C179.948 27.672 179.878 29.982 178.408 31.298L179.122 32.334C180.788 30.948 180.928 28.078 180.928 26.076V24.592H179.948ZM180.228 24.592V26.076C180.228 28.232 180.48 30.906 182.062 32.194L182.874 31.2C181.432 30.01 181.208 27.798 181.208 26.076V24.592H180.228ZM175.804 23.864V25.04H178.954V23.864H175.804ZM179.304 23.864V25.04H182.314V23.864H179.304ZM153.041 57.196C154.945 57.196 156.499 56.104 156.499 54.242C156.499 52.842 155.561 51.96 154.371 51.652V51.582C155.463 51.176 156.149 50.35 156.149 49.16C156.149 47.466 154.847 46.514 152.999 46.514C151.809 46.514 150.857 47.018 150.031 47.746L150.885 48.768C151.473 48.18 152.145 47.802 152.929 47.802C153.923 47.802 154.511 48.376 154.511 49.286C154.511 50.322 153.839 51.078 151.823 51.078V52.282C154.133 52.282 154.861 53.01 154.861 54.158C154.861 55.222 154.063 55.866 152.915 55.866C151.837 55.866 151.081 55.348 150.479 54.732L149.681 55.768C150.381 56.552 151.431 57.196 153.041 57.196ZM161.039 57.196C162.831 57.196 164.511 55.894 164.511 53.626C164.511 51.358 163.097 50.35 161.375 50.35C160.815 50.35 160.395 50.476 159.961 50.7L160.199 48.068H164.021V46.696H158.785L158.477 51.596L159.275 52.1C159.877 51.708 160.269 51.526 160.913 51.526C162.089 51.526 162.873 52.31 162.873 53.668C162.873 55.04 162.005 55.866 160.843 55.866C159.765 55.866 159.009 55.348 158.435 54.76L157.651 55.81C158.393 56.538 159.415 57.196 161.039 57.196ZM167.133 46.64V47.816H175.309V46.64H167.133ZM165.915 55.18V56.384H177.479V55.18H165.915ZM174.525 46.64V48.026C174.525 49.678 174.525 51.554 174.035 54.088L175.505 54.228C175.981 51.526 175.981 49.734 175.981 48.026V46.64H174.525ZM180.138 45.828V47.004H187.516V48.264H180.166V51.47H181.65V49.384H189V45.828H180.138ZM180.166 50.756V51.932H189.294V50.756H180.166ZM178.78 53.08V54.27H190.372V53.08H178.78ZM183.82 53.528V58.176H185.276V53.528H183.82Z" fill="#29D3C6"/>
<defs>
<filter id="filter0_d_1643_21463" x="300" y="12" width="52" height="52" filterUnits="userSpaceOnUse" color-interpolation-filters="sRGB">
<feFlood flood-opacity="0" result="BackgroundImageFix"/>
<feColorMatrix in="SourceAlpha" type="matrix" values="0 0 0 0 0 0 0 0 0 0 0 0 0 0 0 0 0 0 127 0" result="hardAlpha"/>
<feOffset dx="2" dy="2"/>
<feGaussianBlur stdDeviation="3"/>
<feComposite in2="hardAlpha" operator="out"/>
<feColorMatrix type="matrix" values="0 0 0 0 0 0 0 0 0 0 0 0 0 0 0 0 0 0 0.05 0"/>
<feBlend mode="normal" in2="BackgroundImageFix" result="effect1_dropShadow_1643_21463"/>
<feBlend mode="normal" in="SourceGraphic" in2="effect1_dropShadow_1643_21463" result="shape"/>
</filter>
<linearGradient id="paint0_linear_1643_21463" x1="218.31" y1="88.0943" x2="232.297" y2="126.709" gradientUnits="userSpaceOnUse">
<stop offset="0.09375" stop-color="#8DF1A9"/>
<stop offset="1" stop-color="#3AD8C5"/>
</linearGradient>
<linearGradient id="paint1_linear_1643_21463" x1="81.8594" y1="148.192" x2="227.113" y2="373.252" gradientUnits="userSpaceOnUse">
<stop offset="0.276042" stop-color="#74DEFF"/>
<stop offset="1" stop-color="#499DFF"/>
</linearGradient>
<linearGradient id="paint2_linear_1643_21463" x1="95.6032" y1="161.904" x2="131.005" y2="237.71" gradientUnits="userSpaceOnUse">
<stop offset="0.00520833" stop-color="#9FFFD1"/>
<stop offset="1" stop-color="#12CBB5"/>
</linearGradient>
<linearGradient id="paint3_linear_1643_21463" x1="171.389" y1="228.36" x2="187.271" y2="244.848" gradientUnits="userSpaceOnUse">
<stop offset="0.00520833" stop-color="#9FFFD1"/>
<stop offset="1" stop-color="#12CBB5"/>
</linearGradient>
<linearGradient id="paint4_linear_1643_21463" x1="322.353" y1="43.0954" x2="326.566" y2="48.1544" gradientUnits="userSpaceOnUse">
<stop offset="0.140625" stop-color="#FBBD90"/>
<stop offset="1" stop-color="#DE7756"/>
</linearGradient>
<linearGradient id="paint5_linear_1643_21463" x1="318.915" y1="25.3839" x2="333.354" y2="34.5704" gradientUnits="userSpaceOnUse">
<stop offset="0.09375" stop-color="#8DF1A9"/>
<stop offset="1" stop-color="#3AD8C5"/>
</linearGradient>
<clipPath id="clip0_1643_21463">
<rect width="360" height="304" fill="white"/>
</clipPath>
</defs>
</svg>
