<svg width="360" height="166" viewBox="0 0 360 166" fill="none" xmlns="http://www.w3.org/2000/svg">
<path d="M179.657 362.338C215.411 362.338 250.361 351.736 280.089 331.873C309.818 312.009 332.988 283.776 346.67 250.744C360.352 217.712 363.932 181.364 356.957 146.298C349.982 111.231 332.765 79.0205 307.483 53.7389C282.202 28.4573 249.991 11.2403 214.924 4.2651C179.858 -2.71009 143.51 0.869829 110.478 14.5521C77.4462 28.2345 49.2132 51.4046 29.3496 81.1327C9.48596 110.861 -1.11621 145.811 -1.11621 181.565C-1.11621 229.509 17.9295 275.49 51.8311 309.391C85.7327 343.293 131.713 362.338 179.657 362.338V362.338Z" fill="url(#paint0_linear_1290_29805)"/>
<path fill-rule="evenodd" clip-rule="evenodd" d="M240.945 11.4976C232.498 8.45375 223.803 6.03115 214.924 4.2651C179.858 -2.71009 143.51 0.86983 110.478 14.5521C77.4464 28.2345 49.2134 51.4046 29.3498 81.1327C25.9082 86.2833 22.7447 91.5907 19.8662 97.0318C21.6761 117.624 60.5686 121.498 92.8218 84.4225C113.838 65.3765 137.153 52.8981 172.491 50.8455C214.753 50.8455 235.852 32.5617 240.945 11.4976Z" fill="url(#paint1_linear_1290_29805)"/>
<path d="M179.661 108.623C187.086 108.623 193.09 104.125 193.09 98.5511C193.09 92.9773 187.086 88.501 179.661 88.501C172.237 88.501 166.232 92.9988 166.232 98.5511C166.232 104.103 172.258 108.623 179.661 108.623Z" fill="url(#paint2_linear_1290_29805)"/>
<path d="M142.646 93.1445V103.98" stroke="#333333" stroke-width="5.3" stroke-miterlimit="10"/>
<path d="M216.675 93.1445V103.98" stroke="#333333" stroke-width="5.3" stroke-miterlimit="10"/>
<path d="M222.849 120.708V127.686H136.463V120.708" stroke="#333333" stroke-width="3.2" stroke-miterlimit="10"/>
<defs>
<linearGradient id="paint0_linear_1290_29805" x1="81.8594" y1="10.1922" x2="227.113" y2="235.252" gradientUnits="userSpaceOnUse">
<stop offset="0.276042" stop-color="#74DEFF"/>
<stop offset="1" stop-color="#499DFF"/>
</linearGradient>
<linearGradient id="paint1_linear_1290_29805" x1="95.6032" y1="23.9043" x2="131.005" y2="99.7103" gradientUnits="userSpaceOnUse">
<stop offset="0.00520833" stop-color="#9FFFD1"/>
<stop offset="1" stop-color="#12CBB5"/>
</linearGradient>
<linearGradient id="paint2_linear_1290_29805" x1="171.389" y1="90.3597" x2="187.271" y2="106.848" gradientUnits="userSpaceOnUse">
<stop offset="0.00520833" stop-color="#9FFFD1"/>
<stop offset="1" stop-color="#12CBB5"/>
</linearGradient>
</defs>
</svg>
