<svg width="312" height="192" viewBox="0 0 312 192" fill="none" xmlns="http://www.w3.org/2000/svg">
<path d="M42.7682 97.5849C49.3093 86.061 68.2309 59.8545 91.5879 47.2197C120.784 31.4263 141.263 36.6988 133.932 62.7727C126.237 90.143 90.4702 77.6295 138.837 36.6988C187.204 -4.23182 222.185 0.204562 228.5 1.49998C237 3.24358 244.436 8.99997 243 22.5C241.723 34.5 237.932 40.977 235.682 45.1133C239.19 39.8032 254.894 24.1156 270 14L251.5 17.5" stroke="url(#paint0_linear_1482_22588)" stroke-width="1.2"/>
<path d="M243 63.9102H266.821" stroke="#AEE6FF" stroke-width="0.897339"/>
<path d="M254.91 52L254.91 75.8209" stroke="#AEE6FF" stroke-width="0.897339"/>
<path d="M249.444 58.4443L260.376 69.3762" stroke="#AEE6FF" stroke-width="0.897339"/>
<path d="M260.376 58.4443L249.444 69.3762" stroke="#AEE6FF" stroke-width="0.897339"/>
<path d="M251.873 119.205C251.873 119.205 261.269 120.636 266.182 115.723C271.095 110.81 269.665 101.414 269.665 101.414C269.665 101.414 260.268 99.9828 255.355 104.896C250.442 109.809 251.873 119.205 251.873 119.205Z" fill="url(#paint1_linear_1482_22588)"/>
<path d="M260.728 110.519L249.44 121.807" stroke="#333333" stroke-width="0.5"/>
<path d="M256.322 115.005L261.526 114.411" stroke="#333333" stroke-width="0.5"/>
<path d="M222.544 133H214.521V171.16H222.544V133Z" fill="url(#paint2_linear_1482_22588)"/>
<path d="M218.533 90.8726C226.631 90.8726 233.195 85.8393 233.195 79.6304C233.195 73.4215 226.631 68.3882 218.533 68.3882C210.435 68.3882 203.87 73.4215 203.87 79.6304C203.87 85.8393 210.435 90.8726 218.533 90.8726Z" fill="url(#paint3_linear_1482_22588)"/>
<path d="M218.532 134.022C234.677 134.022 247.766 122.857 247.766 109.084C247.766 95.3118 234.677 84.147 218.532 84.147C202.387 84.147 189.299 95.3118 189.299 109.084C189.299 122.857 202.387 134.022 218.532 134.022Z" fill="url(#paint4_linear_1482_22588)"/>
<path d="M199.624 152.939C210.049 152.939 218.5 144.984 218.5 135.172C218.5 125.36 210.049 117.406 199.624 117.406C189.199 117.406 180.748 125.36 180.748 135.172C180.748 144.984 189.199 152.939 199.624 152.939Z" fill="url(#paint5_linear_1482_22588)"/>
<path d="M237.376 152.939C247.801 152.939 256.252 144.984 256.252 135.172C256.252 125.36 247.801 117.406 237.376 117.406C226.951 117.406 218.5 125.36 218.5 135.172C218.5 144.984 226.951 152.939 237.376 152.939Z" fill="url(#paint6_linear_1482_22588)"/>
<path d="M218.532 109.496H223.32C223.32 109.496 225.237 112.543 224.254 115.71C223.413 118.407 220.732 119.712 218.532 119.712C216.331 119.712 213.651 118.407 212.81 115.71C211.827 112.543 213.743 109.496 213.743 109.496H218.532Z" stroke="#333333" stroke-width="1.05083" stroke-miterlimit="10"/>
<path d="M213.754 106.349L212.302 105.022L210.85 106.349" stroke="#333333" stroke-width="1.05083" stroke-miterlimit="10"/>
<path d="M226.214 106.349L224.762 105.022L223.31 106.349" stroke="#333333" stroke-width="1.05083" stroke-miterlimit="10"/>
<path d="M218.532 107.868C219.915 107.868 221.035 107.028 221.035 105.993C221.035 104.957 219.915 104.117 218.532 104.117C217.15 104.117 216.029 104.957 216.029 105.993C216.029 107.028 217.15 107.868 218.532 107.868Z" fill="url(#paint7_linear_1482_22588)"/>
<path d="M145.107 140H138.178V171.053H145.107V140Z" fill="url(#paint8_linear_1482_22588)"/>
<path d="M141.643 126.609C151.402 126.609 159.313 119.194 159.313 110.048C159.313 100.901 151.402 93.4863 141.643 93.4863C131.884 93.4863 123.973 100.901 123.973 110.048C123.973 119.194 131.884 126.609 141.643 126.609Z" fill="url(#paint9_linear_1482_22588)"/>
<path d="M141.643 158.422C153.315 158.422 162.778 149.154 162.778 137.72C162.778 126.287 153.315 117.019 141.643 117.019C129.97 117.019 120.508 126.287 120.508 137.72C120.508 149.154 129.97 158.422 141.643 158.422Z" fill="url(#paint10_linear_1482_22588)"/>
<path d="M136.396 124.88L137.917 124.88" stroke="#333333" stroke-width="1.32175" stroke-miterlimit="10"/>
<path d="M145.366 124.88L146.888 124.88" stroke="#333333" stroke-width="1.32175" stroke-miterlimit="10"/>
<path d="M137.019 127.711L137.892 129.092H145.755L146.609 127.711" stroke="#333333" stroke-width="0.991314"/>
<path d="M141.642 129.501V127.215" stroke="#333333" stroke-width="0.991314"/>
<path d="M141.642 126.37C142.554 126.37 143.294 125.816 143.294 125.132C143.294 124.448 142.554 123.894 141.642 123.894C140.729 123.894 139.989 124.448 139.989 125.132C139.989 125.816 140.729 126.37 141.642 126.37Z" fill="url(#paint11_linear_1482_22588)"/>
<path d="M79.3485 141H72.6875V170.849H79.3485V141Z" fill="url(#paint12_linear_1482_22588)"/>
<path d="M75.6841 158.903C86.9043 158.903 96 149.994 96 139.004C96 128.013 86.9043 119.104 75.6841 119.104C64.4639 119.104 55.3682 128.013 55.3682 139.004C55.3682 149.994 64.4639 158.903 75.6841 158.903Z" fill="url(#paint13_linear_1482_22588)"/>
<path d="M70.4414 127.323L71.904 127.323" stroke="#333333" stroke-width="1.28137" stroke-miterlimit="10"/>
<path d="M79.0645 127.322L80.5271 127.322" stroke="#333333" stroke-width="1.28137" stroke-miterlimit="10"/>
<path d="M71.1289 130.265L71.9526 131.591H79.3662L80.1713 130.265" stroke="#333333" stroke-width="0.96103"/>
<path d="M75.4834 129.023C76.4105 129.023 77.1621 128.46 77.1621 127.765C77.1621 127.07 76.4105 126.507 75.4834 126.507C74.5563 126.507 73.8047 127.07 73.8047 127.765C73.8047 128.46 74.5563 129.023 75.4834 129.023Z" fill="url(#paint14_linear_1482_22588)"/>
<path d="M193.102 43.7656L205.016 67.443" stroke="#AEE6FF" stroke-width="0.723114" stroke-dasharray="1.81 1.81"/>
<circle cx="190.192" cy="38.1598" r="3.19212" transform="rotate(28.5913 190.192 38.1598)" stroke="#AEE6FF" stroke-width="0.723114"/>
<circle cx="180.68" cy="53.5778" r="2.83056" transform="rotate(-44.4251 180.68 53.5778)" fill="#AEE6FF"/>
<path d="M184.283 56.9719L198.268 71.6825" stroke="#AEE6FF" stroke-width="0.723114"/>
<defs>
<linearGradient id="paint0_linear_1482_22588" x1="43.1333" y1="98.7925" x2="270.25" y2="15.4691" gradientUnits="userSpaceOnUse">
<stop stop-color="#ADADAD"/>
<stop offset="1" stop-color="#C0C0C0"/>
</linearGradient>
<linearGradient id="paint1_linear_1482_22588" x1="264.686" y1="99.7222" x2="270.41" y2="115.735" gradientUnits="userSpaceOnUse">
<stop offset="0.09375" stop-color="#8DF1A9"/>
<stop offset="1" stop-color="#3AD8C5"/>
</linearGradient>
<linearGradient id="paint2_linear_1482_22588" x1="213.808" y1="140.982" x2="233.076" y2="155.021" gradientUnits="userSpaceOnUse">
<stop offset="0.140625" stop-color="#FBBD90"/>
<stop offset="1" stop-color="#DE7756"/>
</linearGradient>
<linearGradient id="paint3_linear_1482_22588" x1="209.5" y1="70.4651" x2="227.258" y2="88.4793" gradientUnits="userSpaceOnUse">
<stop offset="0.09375" stop-color="#94FDAB"/>
<stop offset="1" stop-color="#09C4A2"/>
</linearGradient>
<linearGradient id="paint4_linear_1482_22588" x1="200.524" y1="88.7541" x2="239.75" y2="124.521" gradientUnits="userSpaceOnUse">
<stop offset="0.09375" stop-color="#94FDAB"/>
<stop offset="1" stop-color="#09C4A2"/>
</linearGradient>
<linearGradient id="paint5_linear_1482_22588" x1="187.996" y1="120.688" x2="215.559" y2="143.466" gradientUnits="userSpaceOnUse">
<stop offset="0.09375" stop-color="#94FDAB"/>
<stop offset="1" stop-color="#09C4A2"/>
</linearGradient>
<linearGradient id="paint6_linear_1482_22588" x1="225.748" y1="120.688" x2="253.311" y2="143.466" gradientUnits="userSpaceOnUse">
<stop offset="0.09375" stop-color="#94FDAB"/>
<stop offset="1" stop-color="#09C4A2"/>
</linearGradient>
<linearGradient id="paint7_linear_1482_22588" x1="215.585" y1="104.902" x2="216.407" y2="108.703" gradientUnits="userSpaceOnUse">
<stop offset="0.140625" stop-color="#FBBD90"/>
<stop offset="1" stop-color="#DE7756"/>
</linearGradient>
<linearGradient id="paint8_linear_1482_22588" x1="137.563" y1="146.496" x2="153.504" y2="158.823" gradientUnits="userSpaceOnUse">
<stop offset="0.140625" stop-color="#FBBD90"/>
<stop offset="1" stop-color="#DE7756"/>
</linearGradient>
<linearGradient id="paint9_linear_1482_22588" x1="130.758" y1="96.546" x2="156.471" y2="117.885" gradientUnits="userSpaceOnUse">
<stop offset="0.09375" stop-color="#94FDAB"/>
<stop offset="1" stop-color="#09C4A2"/>
</linearGradient>
<linearGradient id="paint10_linear_1482_22588" x1="128.623" y1="120.843" x2="160.475" y2="146.136" gradientUnits="userSpaceOnUse">
<stop offset="0.09375" stop-color="#94FDAB"/>
<stop offset="1" stop-color="#09C4A2"/>
</linearGradient>
<linearGradient id="paint11_linear_1482_22588" x1="139.696" y1="124.412" x2="140.239" y2="126.921" gradientUnits="userSpaceOnUse">
<stop offset="0.140625" stop-color="#FBBD90"/>
<stop offset="1" stop-color="#DE7756"/>
</linearGradient>
<linearGradient id="paint12_linear_1482_22588" x1="72.0964" y1="147.244" x2="87.4198" y2="159.094" gradientUnits="userSpaceOnUse">
<stop offset="0.140625" stop-color="#FBBD90"/>
<stop offset="1" stop-color="#DE7756"/>
</linearGradient>
<linearGradient id="paint13_linear_1482_22588" x1="63.1693" y1="122.78" x2="93.7871" y2="147.094" gradientUnits="userSpaceOnUse">
<stop offset="0.09375" stop-color="#94FDAB"/>
<stop offset="1" stop-color="#09C4A2"/>
</linearGradient>
<linearGradient id="paint14_linear_1482_22588" x1="73.5067" y1="127.034" x2="74.058" y2="129.583" gradientUnits="userSpaceOnUse">
<stop offset="0.140625" stop-color="#FBBD90"/>
<stop offset="1" stop-color="#DE7756"/>
</linearGradient>
</defs>
</svg>
