<svg width="312" height="192" viewBox="0 0 312 192" fill="none" xmlns="http://www.w3.org/2000/svg">
<path d="M227.681 156.188H216.938V181.187H227.681V156.188Z" fill="url(#paint0_linear_1482_22665)"/>
<path d="M264.134 78.109C264.134 122.406 245.384 158.316 222.255 158.316C199.127 158.316 180.377 122.406 180.377 78.109C180.377 33.8117 199.127 5 222.255 5C245.384 5 264.134 33.8117 264.134 78.109Z" fill="url(#paint1_linear_1482_22665)"/>
<path d="M211.798 43.3119H208.482L210.825 40.9684L209.756 39.8991L207.412 42.2426V38.9258H205.908V42.2426L203.558 39.8991L202.495 40.9684L204.838 43.3119H201.521V44.8166H204.838L202.495 47.1666L203.558 48.2295L205.908 45.886V49.2028H207.412V45.886L209.756 48.2295L210.825 47.1666L208.482 44.8166H211.798V43.3119Z" fill="#F7F7F7"/>
<path d="M251.626 75.2913H248.041L250.574 72.7583L249.425 71.6026L246.892 74.1425V70.5576H245.259V74.1425L242.726 71.6026L241.57 72.7583L244.103 75.2913H240.519V76.9245H244.103L241.57 79.4574L242.726 80.6131L245.259 78.0802V81.6581H246.892V78.0802L249.425 80.6131L250.574 79.4574L248.041 76.9245H251.626V75.2913Z" fill="#F7F7F7"/>
<path d="M222.31 129.615H218.203L221.113 126.713L219.789 125.389L216.886 128.291V124.184H215.015V128.291L212.113 125.389L210.788 126.713L213.691 129.615H209.583V131.487H213.691L210.788 134.389L212.113 135.706L215.015 132.811V136.911H216.886V132.811L219.789 135.706L221.113 134.389L218.203 131.487H222.31V129.615Z" fill="#F7F7F7"/>
<path d="M190.507 114.798C201.077 114.798 209.645 106.23 209.645 95.6604C209.645 85.0908 201.077 76.5225 190.507 76.5225C179.937 76.5225 171.369 85.0908 171.369 95.6604C171.369 106.23 179.937 114.798 190.507 114.798Z" fill="url(#paint2_linear_1482_22665)"/>
<path d="M179.006 100.972L183.028 99.8617L183.339 100.988L179.316 102.098L179.006 100.972ZM192.031 103.105C191.789 103.348 191.514 103.56 191.204 103.741C190.899 103.913 190.572 104.047 190.224 104.143C188.873 104.516 187.702 104.182 186.709 103.142C185.722 102.092 184.88 100.305 184.183 97.7804C183.488 95.2625 183.31 93.2592 183.648 91.7706C183.986 90.282 184.834 89.3503 186.192 88.9755C186.533 88.8813 186.863 88.8269 187.182 88.8123C187.508 88.7958 187.831 88.8206 188.15 88.8866L188.554 90.3503C188.175 90.2273 187.836 90.1557 187.537 90.1355C187.244 90.1134 186.965 90.1391 186.699 90.2126C185.716 90.4838 185.131 91.185 184.944 92.3161C184.764 93.4454 184.967 95.0745 185.555 97.2035C186.194 99.5168 186.857 101.096 187.546 101.941C188.239 102.778 189.081 103.06 190.07 102.787C190.275 102.73 190.464 102.656 190.637 102.564C190.816 102.471 190.984 102.358 191.139 102.228C191.228 102.152 191.315 102.069 191.4 101.979C191.484 101.883 191.563 101.784 191.638 101.682L192.031 103.105ZM192.988 88.3336C192.196 88.5521 191.755 89.2283 191.664 90.3623C191.578 91.4875 191.84 93.1556 192.45 95.3665C193.061 97.5773 193.693 99.1505 194.348 100.086C195.007 101.013 195.733 101.367 196.525 101.149C197.323 100.928 197.766 100.259 197.854 99.1403C197.947 98.0132 197.684 96.3305 197.067 94.0923C196.451 91.861 195.815 90.2887 195.159 89.3756C194.51 88.4606 193.786 88.1132 192.988 88.3336ZM191.054 95.774C190.33 93.1537 190.097 91.1363 190.353 89.7218C190.608 88.3073 191.371 87.4249 192.64 87.0746C193.909 86.7243 195.017 87.0906 195.962 88.1736C196.914 89.2548 197.751 91.1055 198.474 93.7258C199.198 96.3461 199.427 98.361 199.163 99.7705C198.903 101.171 198.139 102.047 196.869 102.397C195.6 102.748 194.495 102.388 193.553 101.319C192.61 100.243 191.777 98.3943 191.054 95.774ZM200.682 91.8955L199.658 92.1779L199.614 92.0168C199.334 91.0017 199.323 90.1665 199.581 89.5114C199.844 88.8494 200.356 88.4132 201.119 88.2026C201.812 88.0114 202.453 88.106 203.044 88.4863C203.633 88.8613 204.037 89.4436 204.254 90.2331C204.446 90.926 204.472 91.9013 204.334 93.1591C204.201 94.4154 203.809 96.4945 203.159 99.3964L206.414 98.498L206.688 99.489L201.797 100.839C202.581 97.3105 203.056 94.8759 203.224 93.5349C203.391 92.1939 203.386 91.2012 203.208 90.5566C203.064 90.0356 202.828 89.6501 202.498 89.3999C202.169 89.1497 201.806 89.0795 201.409 89.1892C200.957 89.3137 200.666 89.5877 200.534 90.0114C200.401 90.4296 200.43 90.9851 200.622 91.678L200.682 91.8955Z" fill="#777777"/>
<path d="M234.164 46.2579C240.74 46.2579 246.072 40.9265 246.072 34.3499C246.072 27.7733 240.74 22.4419 234.164 22.4419C227.587 22.4419 222.256 27.7733 222.256 34.3499C222.256 40.9265 227.587 46.2579 234.164 46.2579Z" fill="url(#paint3_linear_1482_22665)"/>
<path d="M227.13 37.8005L229.633 37.1097L229.826 37.8102L227.324 38.5011L227.13 37.8005ZM235.235 39.1276C235.084 39.2788 234.913 39.4106 234.72 39.5233C234.53 39.6305 234.327 39.7139 234.111 39.7737C233.27 40.0057 232.541 39.798 231.924 39.1505C231.309 38.4976 230.785 37.3856 230.352 35.8147C229.919 34.248 229.808 33.0015 230.019 32.0752C230.229 31.149 230.757 30.5693 231.602 30.3361C231.814 30.2775 232.019 30.2436 232.218 30.2345C232.421 30.2242 232.621 30.2397 232.82 30.2808L233.072 31.1915C232.836 31.115 232.625 31.0704 232.438 31.0578C232.256 31.0441 232.083 31.0601 231.917 31.1058C231.306 31.2745 230.942 31.7108 230.825 32.4147C230.713 33.1173 230.84 34.131 231.205 35.4557C231.603 36.895 232.015 37.8777 232.444 38.4037C232.876 38.9243 233.399 39.0996 234.015 38.9297C234.142 38.8946 234.26 38.8484 234.367 38.7913C234.479 38.733 234.583 38.6632 234.68 38.5817C234.735 38.5344 234.789 38.4829 234.842 38.4271C234.894 38.3671 234.944 38.3055 234.99 38.2424L235.235 39.1276ZM235.83 29.9367C235.337 30.0726 235.063 30.4934 235.006 31.1989C234.953 31.8991 235.116 32.937 235.496 34.3126C235.875 35.6883 236.269 36.6672 236.676 37.2493C237.087 37.8259 237.538 38.0463 238.031 37.9103C238.528 37.7732 238.803 37.3567 238.858 36.6608C238.916 35.9595 238.752 34.9125 238.368 33.5199C237.985 32.1315 237.589 31.1532 237.181 30.585C236.777 30.0157 236.327 29.7995 235.83 29.9367ZM234.627 34.5662C234.177 32.9358 234.031 31.6805 234.19 30.8004C234.35 29.9203 234.824 29.3713 235.614 29.1533C236.404 28.9353 237.092 29.1633 237.681 29.8371C238.273 30.5098 238.794 31.6614 239.244 33.2918C239.694 34.9222 239.837 36.1759 239.672 37.0529C239.511 37.9246 239.035 38.4694 238.245 38.6873C237.456 38.9053 236.768 38.6816 236.182 38.0162C235.595 37.3466 235.077 36.1966 234.627 34.5662ZM240.617 32.153L239.981 32.3287L239.953 32.2284C239.779 31.5968 239.772 31.0772 239.933 30.6695C240.096 30.2576 240.415 29.9862 240.889 29.8552C241.321 29.7362 241.72 29.795 242.087 30.0317C242.454 30.265 242.705 30.6273 242.84 31.1186C242.959 31.5497 242.976 32.1566 242.89 32.9392C242.807 33.7209 242.563 35.0146 242.159 36.8202L244.184 36.2612L244.355 36.8778L241.312 37.7176C241.799 35.5223 242.095 34.0074 242.199 33.173C242.303 32.3386 242.3 31.7209 242.189 31.3199C242.1 30.9957 241.953 30.7558 241.748 30.6001C241.543 30.4445 241.317 30.4007 241.07 30.469C240.789 30.5465 240.608 30.717 240.526 30.9806C240.443 31.2408 240.461 31.5865 240.58 32.0176L240.617 32.153Z" fill="#777777"/>
<path d="M249.878 138.825C257.751 138.825 264.134 132.443 264.134 124.569C264.134 116.696 257.751 110.313 249.878 110.313C242.005 110.313 235.622 116.696 235.622 124.569C235.622 132.443 242.005 138.825 249.878 138.825Z" fill="url(#paint4_linear_1482_22665)"/>
<path d="M241.234 128.047L244.231 127.22L244.462 128.059L241.466 128.886L241.234 128.047ZM250.937 129.636C250.757 129.817 250.552 129.975 250.321 130.11C250.094 130.238 249.851 130.338 249.591 130.41C248.585 130.687 247.712 130.439 246.973 129.663C246.238 128.882 245.61 127.551 245.091 125.67C244.574 123.794 244.441 122.302 244.693 121.193C244.944 120.084 245.576 119.39 246.588 119.111C246.842 119.041 247.088 119 247.325 118.989C247.568 118.977 247.809 118.996 248.046 119.045L248.347 120.135C248.065 120.043 247.812 119.99 247.589 119.975C247.371 119.959 247.163 119.978 246.965 120.032C246.233 120.235 245.797 120.757 245.658 121.599C245.524 122.441 245.675 123.654 246.113 125.24C246.589 126.963 247.083 128.14 247.596 128.769C248.113 129.393 248.74 129.603 249.477 129.399C249.629 129.357 249.77 129.302 249.899 129.233C250.032 129.164 250.157 129.08 250.272 128.983C250.339 128.926 250.404 128.864 250.467 128.797C250.53 128.726 250.589 128.652 250.644 128.576L250.937 129.636ZM251.65 118.633C251.06 118.796 250.731 119.299 250.664 120.144C250.6 120.982 250.795 122.225 251.249 123.872C251.704 125.519 252.175 126.69 252.663 127.387C253.154 128.078 253.695 128.341 254.284 128.179C254.879 128.015 255.209 127.516 255.275 126.683C255.344 125.843 255.148 124.59 254.688 122.923C254.229 121.26 253.756 120.089 253.267 119.409C252.784 118.727 252.244 118.469 251.65 118.633ZM250.209 124.175C249.67 122.223 249.496 120.721 249.687 119.667C249.877 118.613 250.445 117.956 251.391 117.695C252.336 117.434 253.161 117.707 253.865 118.514C254.574 119.319 255.198 120.698 255.737 122.649C256.276 124.601 256.447 126.102 256.249 127.152C256.056 128.196 255.487 128.848 254.541 129.109C253.596 129.37 252.772 129.102 252.071 128.306C251.369 127.504 250.748 126.127 250.209 124.175ZM257.381 121.286L256.619 121.496L256.586 121.376C256.377 120.62 256.369 119.998 256.561 119.51C256.757 119.017 257.139 118.692 257.707 118.535C258.223 118.393 258.701 118.463 259.141 118.747C259.58 119.026 259.88 119.46 260.042 120.048C260.185 120.564 260.205 121.29 260.102 122.227C260.002 123.163 259.711 124.712 259.227 126.874L261.651 126.204L261.855 126.943L258.212 127.948C258.796 125.32 259.15 123.506 259.275 122.507C259.399 121.508 259.395 120.769 259.263 120.289C259.156 119.901 258.98 119.613 258.734 119.427C258.489 119.241 258.219 119.188 257.923 119.27C257.586 119.363 257.369 119.567 257.271 119.883C257.172 120.194 257.194 120.608 257.336 121.124L257.381 121.286Z" fill="#777777"/>
<path d="M136.499 177.385H124.064C123.807 177.383 123.558 177.289 123.364 177.12L121.393 175.437C121.339 175.39 121.275 175.359 121.205 175.345C121.136 175.331 121.064 175.335 120.997 175.357C120.929 175.378 120.869 175.417 120.821 175.469C120.772 175.521 120.738 175.584 120.721 175.653L120.402 176.984C120.375 177.099 120.309 177.201 120.217 177.274C120.124 177.347 120.01 177.387 119.892 177.387H114.879C114.74 177.387 114.607 177.332 114.508 177.233C114.41 177.134 114.355 177 114.355 176.861C114.354 176.828 114.357 176.794 114.363 176.762L115.892 168.74H128.551L136.499 177.385Z" fill="url(#paint5_linear_1482_22665)"/>
<path d="M65.377 169.344L57.8116 159.297C57.703 159.153 57.6494 158.975 57.6605 158.794L57.8295 156.044C57.836 155.94 57.8013 155.839 57.7331 155.761C57.665 155.683 57.5688 155.636 57.4658 155.629C57.4036 155.625 57.3416 155.636 57.2845 155.661L56.0769 156.189C55.9468 156.245 55.8013 156.257 55.6641 156.22C55.5268 156.184 55.4057 156.103 55.3204 155.989L52.4106 152.124C52.3556 152.051 52.3169 151.967 52.2972 151.878C52.2775 151.789 52.2772 151.697 52.2965 151.608C52.3157 151.518 52.354 151.434 52.4087 151.361C52.4633 151.288 52.5331 151.228 52.6131 151.185L59.9223 147.215L67.8157 157.746L65.377 169.344Z" fill="url(#paint6_linear_1482_22665)"/>
<path d="M103.989 89.9272H96.3721C90.4922 89.9272 85.7256 85.1476 85.7256 79.2515V53.6247C85.7256 47.7287 90.4922 42.949 96.3721 42.949H103.989C109.869 42.949 114.635 47.7287 114.635 53.6247V79.2515C114.635 85.1476 109.869 89.9272 103.989 89.9272Z" fill="url(#paint7_linear_1482_22665)"/>
<path d="M94.3018 46.646C94.3018 46.646 88.8532 48.7144 88.8532 53.8716V58.2268" stroke="white" stroke-width="0.627557" stroke-miterlimit="10" stroke-linecap="round"/>
<path d="M84.6254 86.2578C82.4824 86.2578 80.7459 84.459 80.7459 82.2379V73.624H88.5049V82.2379C88.5086 84.459 86.7702 86.2578 84.6254 86.2578Z" fill="url(#paint8_linear_1482_22665)"/>
<path d="M147.864 65.7769L146.754 76.9991C146.481 79.4961 145.265 81.7934 143.354 83.4185C141.444 85.0436 138.986 85.873 136.484 85.736C133.983 85.599 131.629 84.5061 129.907 82.6821C128.184 80.858 127.225 78.4415 127.225 75.9296V70.0312C127.225 71.2628 126.737 72.444 125.868 73.3148C125 74.1857 123.822 75.2633 122.594 75.2633H105.447C104.411 75.2633 103.418 74.8507 102.685 74.1162C101.952 73.3818 101.54 71.7972 101.54 70.7584V63.6413C101.54 63.5177 101.501 63.3972 101.429 63.2972C101.356 63.1972 101.254 63.1227 101.137 63.0845C101.019 63.0462 100.893 63.0462 100.776 63.0843C100.659 63.1224 100.556 63.1968 100.484 63.2968L89.8224 94.6345C87.9076 91.0687 82.7104 89.423 78.8809 90.7944L91.2439 56.7772C92.122 54.1297 95.0512 48.7325 96.9789 47.7263C98.9066 46.7202 101.048 46.1953 103.221 46.1964H106.43C107.084 46.1966 107.725 46.0051 108.272 45.6452C108.819 45.2853 109.25 44.7728 109.511 44.1708L109.958 43.126H117.322L117.781 44.2089C118.039 44.8165 118.47 45.3346 119.02 45.6985C119.569 46.0625 120.214 46.2563 120.872 46.2559H123.366C126.948 46.2559 130.383 47.6827 132.916 50.2225C135.449 52.7623 136.872 56.207 136.872 59.7988V64.0385L146.081 63.8377C146.547 63.829 146.997 64.0058 147.332 64.3293C147.668 64.6529 147.862 65.0968 147.872 65.5636C147.874 65.6348 147.871 65.706 147.864 65.7769Z" fill="url(#paint9_linear_1482_22665)"/>
<path d="M98.0285 78.4535C98.0285 78.4535 101.584 74.341 102.679 69.1295C103.773 63.9179 103.803 55.4542 102.967 51.7309C102.132 48.0076 100.315 44.5393 99.1228 44.4414C97.9302 44.3435 96.8144 44.9765 96.8144 44.9765C103.949 53.7484 99.6698 69.4086 98.0285 78.4535Z" fill="url(#paint10_linear_1482_22665)"/>
<path d="M105.875 77.7412H122.156C123.331 77.7408 124.462 78.189 125.318 78.9948C126.175 79.8005 126.694 80.9032 126.768 82.0786L131.79 160.634C131.837 161.374 131.738 162.116 131.499 162.817C131.261 163.519 130.886 164.166 130.398 164.722C129.909 165.279 129.316 165.733 128.653 166.06C127.989 166.386 127.268 166.579 126.53 166.626C126.41 166.633 126.29 166.637 126.171 166.637H116.903C115.484 166.637 114.117 166.099 113.076 165.131C112.036 164.164 111.398 162.837 111.292 161.418L108.063 118.462C108.063 118.462 100.314 145.517 73.5405 157.291C72.6913 157.664 71.7412 157.737 70.8449 157.5C69.9487 157.262 69.1592 156.727 68.6051 155.981L61.7301 146.741C61.1858 146.01 60.9461 145.096 61.0616 144.191C61.1771 143.286 61.6387 142.462 62.349 141.892C68.3622 137.066 82.8127 124.47 88.1924 110.846C93.1379 98.3227 98.051 86.8581 100.469 81.2841C100.929 80.2301 101.685 79.3335 102.645 78.7041C103.605 78.0748 104.728 77.7402 105.875 77.7412Z" fill="url(#paint11_linear_1482_22665)"/>
<path d="M128.1 166.635H115.989V168.984H128.1V166.635Z" fill="white" stroke="url(#paint12_linear_1482_22665)" stroke-width="0.410103" stroke-linejoin="round"/>
<path d="M126.237 166.635V168.984" stroke="url(#paint13_linear_1482_22665)" stroke-width="0.410103" stroke-linejoin="round"/>
<path d="M124.176 166.635V168.984" stroke="url(#paint14_linear_1482_22665)" stroke-width="0.410103" stroke-linejoin="round"/>
<path d="M122.113 166.635V168.984" stroke="url(#paint15_linear_1482_22665)" stroke-width="0.410103" stroke-linejoin="round"/>
<path d="M120.05 166.635V168.984" stroke="url(#paint16_linear_1482_22665)" stroke-width="0.410103" stroke-linejoin="round"/>
<path d="M117.989 166.635V168.984" stroke="url(#paint17_linear_1482_22665)" stroke-width="0.410103" stroke-linejoin="round"/>
<path d="M61.4133 146.412L59.5635 147.812L67.1905 157.943L69.0403 156.543L61.4133 146.412Z" fill="white" stroke="url(#paint18_linear_1482_22665)" stroke-width="0.410103" stroke-linejoin="round"/>
<path d="M60.7764 149.427L62.6252 148.026" stroke="url(#paint19_linear_1482_22665)" stroke-width="0.410103" stroke-linejoin="round"/>
<path d="M62.1064 151.157L63.9564 149.757" stroke="url(#paint20_linear_1482_22665)" stroke-width="0.410103" stroke-linejoin="round"/>
<path d="M63.4375 152.895L65.2875 151.494" stroke="url(#paint21_linear_1482_22665)" stroke-width="0.410103" stroke-linejoin="round"/>
<path d="M64.7676 154.633L66.6164 153.232" stroke="url(#paint22_linear_1482_22665)" stroke-width="0.410103" stroke-linejoin="round"/>
<path d="M65.9688 156.364L67.8176 154.964" stroke="url(#paint23_linear_1482_22665)" stroke-width="0.410103" stroke-linejoin="round"/>
<path d="M107.975 113.512C110.802 108.021 115.747 92.0776 118.219 92.0776" stroke="url(#paint24_linear_1482_22665)" stroke-width="0.627557" stroke-linecap="round" stroke-linejoin="round"/>
<path d="M124.125 74.896H104.562V77.7386H124.125V74.896Z" fill="#AEE6FF" stroke="url(#paint25_linear_1482_22665)" stroke-width="0.627557" stroke-linejoin="round"/>
<path d="M89.8677 94.179C89.8677 94.179 88.1337 98.1388 83.2126 99.4143C78.2915 100.69 74.5195 96.4286 74.3734 94.6478C74.2272 92.867 76.3842 92.928 76.997 94.3377C76.997 94.3377 79.2404 92.057 79.4852 90.8436C79.73 89.6302 88.3045 89.5245 89.8677 94.179Z" fill="#FFDDAF"/>
<path d="M75.4863 96.5049C75.4863 96.5049 76.7368 98.2487 79.7979 95.2773" stroke="url(#paint26_linear_1482_22665)" stroke-width="0.627557" stroke-linecap="round" stroke-linejoin="round"/>
<path d="M77.6709 98.3364C77.6709 98.3364 79.2481 99.7289 82.0406 96.955" stroke="url(#paint27_linear_1482_22665)" stroke-width="0.627557" stroke-linecap="round" stroke-linejoin="round"/>
<path d="M81.5423 99.4344C82.1546 99.2939 83.4623 98.9425 84.5341 97.7609" stroke="url(#paint28_linear_1482_22665)" stroke-width="0.627557" stroke-linecap="round" stroke-linejoin="round"/>
<path d="M142.085 47.832H136.221C135.764 47.832 135.394 48.2033 135.394 48.6614V59.8521C135.394 60.3102 135.764 60.6815 136.221 60.6815H142.085C142.542 60.6815 142.912 60.3102 142.912 59.8521V48.6614C142.912 48.2033 142.542 47.832 142.085 47.832Z" fill="url(#paint29_linear_1482_22665)"/>
<path d="M147.065 63.7868C145.079 68.0602 141.498 68.8682 138.671 68.2891L136.329 67.8088C135.641 67.6085 135.041 67.1832 134.623 66.6006C134.205 66.0181 133.993 65.3119 134.022 64.5948L134.312 57.4754C134.323 57.1895 134.441 56.9182 134.641 56.7146C134.841 56.5109 135.11 56.3897 135.395 56.3745V57.0815C135.396 57.5379 135.574 57.976 135.893 58.3018C136.211 58.6276 136.645 58.8152 137.1 58.8243L141.138 58.9074H141.174C142.134 58.9074 142.914 57.8682 142.914 56.9008L145.284 56.9895C145.985 57.0153 146.859 57.5753 146.943 58.3822L147.065 63.7868Z" fill="#FFDDAF"/>
<path d="M134.702 58.8848C134.641 60.3605 136.34 60.9373 138 61.1292" stroke="url(#paint30_linear_1482_22665)" stroke-width="0.627557" stroke-miterlimit="10" stroke-linecap="round"/>
<path d="M134.637 61.1704C134.577 62.6461 136.276 63.2241 137.935 63.4149" stroke="url(#paint31_linear_1482_22665)" stroke-width="0.627557" stroke-miterlimit="10" stroke-linecap="round"/>
<path d="M134.458 63.5332C134.398 65.0089 136.096 65.5072 137.757 65.6979" stroke="url(#paint32_linear_1482_22665)" stroke-width="0.627557" stroke-miterlimit="10" stroke-linecap="round"/>
<path d="M136.82 49.7323C137.061 49.7323 137.257 49.5363 137.257 49.2946C137.257 49.0529 137.061 48.8569 136.82 48.8569C136.579 48.8569 136.384 49.0529 136.384 49.2946C136.384 49.5363 136.579 49.7323 136.82 49.7323Z" fill="#00BBAD"/>
<path d="M136.953 49.7323C137.194 49.7323 137.39 49.5363 137.39 49.2946C137.39 49.0529 137.194 48.8569 136.953 48.8569C136.712 48.8569 136.517 49.0529 136.517 49.2946C136.517 49.5363 136.712 49.7323 136.953 49.7323Z" fill="white"/>
<path d="M122.437 45.2888C120.234 46.4258 117.542 45.9748 115.269 44.3412L115.227 44.3639C109.862 47.1517 103.81 45.88 101.709 41.8188C99.6069 37.7575 102.255 32.2029 107.617 29.4114C109.163 28.595 110.849 28.0805 112.587 27.8953C112.466 27.516 112.429 27.115 112.477 26.7198C112.526 26.3247 112.659 25.9447 112.868 25.606C113.076 25.2674 113.356 24.9781 113.687 24.7581C114.018 24.5381 114.392 24.3925 114.785 24.3315C115.177 24.2704 115.578 24.2952 115.96 24.4043C116.342 24.5134 116.695 24.7041 116.997 24.9633C117.298 25.2226 117.54 25.5442 117.706 25.906C117.871 26.2679 117.957 26.6614 117.956 27.0595C117.957 27.4954 117.854 27.925 117.654 28.3122C120.3 28.731 122.959 30.7304 124.533 33.7891C126.869 38.3355 125.932 43.4789 122.437 45.2888Z" fill="url(#paint33_linear_1482_22665)"/>
<path d="M108.199 45.8515L111.868 37.6816H118.652V51.2261L108.199 45.8515Z" fill="#FFDDAF"/>
<path d="M118.652 37.6821V42.8937C117.458 43.0521 116.247 42.7793 115.235 42.1241C114.224 41.4689 113.477 40.4741 113.13 39.3176L112.639 37.6821H118.652Z" fill="#EFC080"/>
<path d="M121.373 33.1268V37.3605C121.373 37.7908 121.288 38.217 121.125 38.6146C120.961 39.0123 120.72 39.3736 120.417 39.6781C120.114 39.9825 119.753 40.2241 119.357 40.389C118.961 40.5539 118.536 40.6389 118.107 40.6391H116.5C115.64 40.6384 114.8 40.378 114.09 39.892C113.379 39.4059 112.831 38.7167 112.516 37.9139H111.004C110.442 37.8972 109.908 37.6614 109.516 37.2565C109.124 36.8515 108.904 36.3094 108.904 35.745C108.904 35.1806 109.124 34.6384 109.516 34.2334C109.908 33.8285 110.442 33.5927 111.004 33.576H111.207C111.564 33.5761 111.916 33.6709 112.225 33.8508V33.8413L117.812 29.5337C118.76 29.5407 119.666 29.9232 120.334 30.5977C121.002 31.2722 121.376 32.184 121.376 33.1344L121.373 33.1268Z" fill="#FFDDAF"/>
<path d="M111.951 36.0692C111.951 35.7676 111.832 35.4784 111.619 35.2652C111.407 35.0519 111.118 34.9321 110.817 34.9321" stroke="url(#paint34_linear_1482_22665)" stroke-width="0.476488" stroke-miterlimit="10" stroke-linecap="round"/>
<path d="M121.475 33.1474C121.475 33.1474 120.233 32.668 119.239 33.5909C118.555 34.2277 118.372 35.9674 118.894 36.697" stroke="url(#paint35_linear_1482_22665)" stroke-width="0.476488" stroke-miterlimit="10" stroke-linecap="round"/>
<path d="M116.403 35.6686C116.618 35.6686 116.792 35.4302 116.792 35.136C116.792 34.8419 116.618 34.6035 116.403 34.6035C116.188 34.6035 116.014 34.8419 116.014 35.136C116.014 35.4302 116.188 35.6686 116.403 35.6686Z" fill="url(#paint36_linear_1482_22665)"/>
<path d="M120.031 35.6686C120.246 35.6686 120.42 35.4302 120.42 35.136C120.42 34.8419 120.246 34.6035 120.031 34.6035C119.816 34.6035 119.642 34.8419 119.642 35.136C119.642 35.4302 119.816 35.6686 120.031 35.6686Z" fill="url(#paint37_linear_1482_22665)"/>
<path d="M118.99 38.4517C118.99 38.4517 117.75 38.7795 117.362 37.7827" stroke="url(#paint38_linear_1482_22665)" stroke-width="0.476488" stroke-miterlimit="10" stroke-linecap="round"/>
<path d="M114.606 33.5483C114.606 33.5483 115.705 32.6955 117.094 32.9646" stroke="url(#paint39_linear_1482_22665)" stroke-width="0.476488" stroke-miterlimit="10" stroke-linecap="round"/>
<path d="M128.43 54.6221C129.999 60.8976 128.43 67.1732 128.43 67.1732" stroke="white" stroke-width="0.627557" stroke-linecap="round"/>
<path d="M56.791 65.2949H68.7062" stroke="#999999" stroke-width="0.7"/>
<path d="M50.0098 71.3662H68.7056" stroke="#999999" stroke-width="0.7"/>
<path d="M26.3926 155.325C34.0651 165.408 62 181.434 110.051 168.678C135.906 161.815 156.298 147.784 160.273 130.777C163.137 118.521 151.292 117.215 144.589 124.951C137.886 132.687 138.168 139.013 138.644 142.474C140.687 157.341 169.8 156.612 188.543 139.001L185.506 149.892" stroke="url(#paint40_linear_1482_22665)"/>
<defs>
<linearGradient id="paint0_linear_1482_22665" x1="215.984" y1="161.417" x2="228.258" y2="179.696" gradientUnits="userSpaceOnUse">
<stop offset="0.140625" stop-color="#FBBD90"/>
<stop offset="1" stop-color="#DE7756"/>
</linearGradient>
<linearGradient id="paint1_linear_1482_22665" x1="196.458" y1="19.1624" x2="283.631" y2="56.204" gradientUnits="userSpaceOnUse">
<stop offset="0.09375" stop-color="#8DF1A9"/>
<stop offset="1" stop-color="#3AD8C5"/>
</linearGradient>
<linearGradient id="paint2_linear_1482_22665" x1="175.318" y1="83.1951" x2="205.997" y2="108.37" gradientUnits="userSpaceOnUse">
<stop offset="0.401042" stop-color="#FBFBFB"/>
<stop offset="1" stop-color="#CDCDCD"/>
</linearGradient>
<linearGradient id="paint3_linear_1482_22665" x1="224.713" y1="26.5938" x2="243.802" y2="42.2581" gradientUnits="userSpaceOnUse">
<stop offset="0.401042" stop-color="#FBFBFB"/>
<stop offset="1" stop-color="#CDCDCD"/>
</linearGradient>
<linearGradient id="paint4_linear_1482_22665" x1="238.564" y1="115.284" x2="261.416" y2="134.037" gradientUnits="userSpaceOnUse">
<stop offset="0.401042" stop-color="#FBFBFB"/>
<stop offset="1" stop-color="#CDCDCD"/>
</linearGradient>
<linearGradient id="paint5_linear_1482_22665" x1="125.427" y1="168.74" x2="125.427" y2="177.387" gradientUnits="userSpaceOnUse">
<stop stop-color="#888888"/>
<stop offset="1" stop-color="#4A4A4A"/>
</linearGradient>
<linearGradient id="paint6_linear_1482_22665" x1="60.0489" y1="147.215" x2="60.0489" y2="169.344" gradientUnits="userSpaceOnUse">
<stop stop-color="#888888"/>
<stop offset="1" stop-color="#4A4A4A"/>
</linearGradient>
<linearGradient id="paint7_linear_1482_22665" x1="91.2761" y1="85.5877" x2="120.176" y2="71.7544" gradientUnits="userSpaceOnUse">
<stop offset="0.09375" stop-color="#8DF1A9"/>
<stop offset="1" stop-color="#3AD8C5"/>
</linearGradient>
<linearGradient id="paint8_linear_1482_22665" x1="87.0152" y1="74.7911" x2="79.2529" y2="78.4991" gradientUnits="userSpaceOnUse">
<stop offset="0.09375" stop-color="#8DF1A9"/>
<stop offset="1" stop-color="#3AD8C5"/>
</linearGradient>
<linearGradient id="paint9_linear_1482_22665" x1="113.377" y1="43.126" x2="113.377" y2="94.6345" gradientUnits="userSpaceOnUse">
<stop stop-color="#888888"/>
<stop offset="1" stop-color="#4A4A4A"/>
</linearGradient>
<linearGradient id="paint10_linear_1482_22665" x1="107.723" y1="51.4376" x2="89.8845" y2="50.5051" gradientUnits="userSpaceOnUse">
<stop offset="0.09375" stop-color="#8DF1A9"/>
<stop offset="1" stop-color="#3AD8C5"/>
</linearGradient>
<linearGradient id="paint11_linear_1482_22665" x1="135.006" y1="82.5215" x2="75.8097" y2="167.507" gradientUnits="userSpaceOnUse">
<stop offset="0.111458" stop-color="#A3E9FF"/>
<stop offset="1" stop-color="#97CDFF"/>
</linearGradient>
<linearGradient id="paint12_linear_1482_22665" x1="122.044" y1="166.635" x2="122.044" y2="168.984" gradientUnits="userSpaceOnUse">
<stop stop-color="#888888"/>
<stop offset="1" stop-color="#4A4A4A"/>
</linearGradient>
<linearGradient id="paint13_linear_1482_22665" x1="126.737" y1="166.635" x2="126.737" y2="168.984" gradientUnits="userSpaceOnUse">
<stop stop-color="#888888"/>
<stop offset="1" stop-color="#4A4A4A"/>
</linearGradient>
<linearGradient id="paint14_linear_1482_22665" x1="124.676" y1="166.635" x2="124.676" y2="168.984" gradientUnits="userSpaceOnUse">
<stop stop-color="#888888"/>
<stop offset="1" stop-color="#4A4A4A"/>
</linearGradient>
<linearGradient id="paint15_linear_1482_22665" x1="122.613" y1="166.635" x2="122.613" y2="168.984" gradientUnits="userSpaceOnUse">
<stop stop-color="#888888"/>
<stop offset="1" stop-color="#4A4A4A"/>
</linearGradient>
<linearGradient id="paint16_linear_1482_22665" x1="120.55" y1="166.635" x2="120.55" y2="168.984" gradientUnits="userSpaceOnUse">
<stop stop-color="#888888"/>
<stop offset="1" stop-color="#4A4A4A"/>
</linearGradient>
<linearGradient id="paint17_linear_1482_22665" x1="118.489" y1="166.635" x2="118.489" y2="168.984" gradientUnits="userSpaceOnUse">
<stop stop-color="#888888"/>
<stop offset="1" stop-color="#4A4A4A"/>
</linearGradient>
<linearGradient id="paint18_linear_1482_22665" x1="60.4884" y1="147.112" x2="68.142" y2="157.223" gradientUnits="userSpaceOnUse">
<stop stop-color="#888888"/>
<stop offset="1" stop-color="#4A4A4A"/>
</linearGradient>
<linearGradient id="paint19_linear_1482_22665" x1="61.7008" y1="148.026" x2="61.7008" y2="149.427" gradientUnits="userSpaceOnUse">
<stop stop-color="#888888"/>
<stop offset="1" stop-color="#4A4A4A"/>
</linearGradient>
<linearGradient id="paint20_linear_1482_22665" x1="63.0314" y1="149.757" x2="63.0314" y2="151.157" gradientUnits="userSpaceOnUse">
<stop stop-color="#888888"/>
<stop offset="1" stop-color="#4A4A4A"/>
</linearGradient>
<linearGradient id="paint21_linear_1482_22665" x1="64.3625" y1="151.494" x2="64.3625" y2="152.895" gradientUnits="userSpaceOnUse">
<stop stop-color="#888888"/>
<stop offset="1" stop-color="#4A4A4A"/>
</linearGradient>
<linearGradient id="paint22_linear_1482_22665" x1="65.692" y1="153.232" x2="65.692" y2="154.633" gradientUnits="userSpaceOnUse">
<stop stop-color="#888888"/>
<stop offset="1" stop-color="#4A4A4A"/>
</linearGradient>
<linearGradient id="paint23_linear_1482_22665" x1="66.8932" y1="154.964" x2="66.8932" y2="156.364" gradientUnits="userSpaceOnUse">
<stop stop-color="#888888"/>
<stop offset="1" stop-color="#4A4A4A"/>
</linearGradient>
<linearGradient id="paint24_linear_1482_22665" x1="113.097" y1="92.0776" x2="113.097" y2="113.512" gradientUnits="userSpaceOnUse">
<stop stop-color="#888888"/>
<stop offset="1" stop-color="#4A4A4A"/>
</linearGradient>
<linearGradient id="paint25_linear_1482_22665" x1="114.343" y1="74.896" x2="114.343" y2="77.7386" gradientUnits="userSpaceOnUse">
<stop stop-color="#888888"/>
<stop offset="1" stop-color="#4A4A4A"/>
</linearGradient>
<linearGradient id="paint26_linear_1482_22665" x1="77.5216" y1="95.614" x2="77.9793" y2="96.6597" gradientUnits="userSpaceOnUse">
<stop stop-color="#888888"/>
<stop offset="1" stop-color="#4A4A4A"/>
</linearGradient>
<linearGradient id="paint27_linear_1482_22665" x1="79.7587" y1="97.4226" x2="80.1649" y2="98.3505" gradientUnits="userSpaceOnUse">
<stop stop-color="#888888"/>
<stop offset="1" stop-color="#4A4A4A"/>
</linearGradient>
<linearGradient id="paint28_linear_1482_22665" x1="82.9716" y1="98.4447" x2="83.1551" y2="98.8639" gradientUnits="userSpaceOnUse">
<stop stop-color="#888888"/>
<stop offset="1" stop-color="#4A4A4A"/>
</linearGradient>
<linearGradient id="paint29_linear_1482_22665" x1="136.837" y1="49.019" x2="144.49" y2="52.5019" gradientUnits="userSpaceOnUse">
<stop offset="0.09375" stop-color="#8DF1A9"/>
<stop offset="1" stop-color="#3AD8C5"/>
</linearGradient>
<linearGradient id="paint30_linear_1482_22665" x1="136.35" y1="58.8848" x2="136.35" y2="61.1292" gradientUnits="userSpaceOnUse">
<stop stop-color="#888888"/>
<stop offset="1" stop-color="#4A4A4A"/>
</linearGradient>
<linearGradient id="paint31_linear_1482_22665" x1="136.286" y1="61.1704" x2="136.286" y2="63.4149" gradientUnits="userSpaceOnUse">
<stop stop-color="#888888"/>
<stop offset="1" stop-color="#4A4A4A"/>
</linearGradient>
<linearGradient id="paint32_linear_1482_22665" x1="136.106" y1="63.5332" x2="136.106" y2="65.6979" gradientUnits="userSpaceOnUse">
<stop stop-color="#888888"/>
<stop offset="1" stop-color="#4A4A4A"/>
</linearGradient>
<linearGradient id="paint33_linear_1482_22665" x1="113.403" y1="24.2988" x2="113.403" y2="45.9194" gradientUnits="userSpaceOnUse">
<stop stop-color="#888888"/>
<stop offset="1" stop-color="#4A4A4A"/>
</linearGradient>
<linearGradient id="paint34_linear_1482_22665" x1="111.384" y1="34.9321" x2="111.384" y2="36.0692" gradientUnits="userSpaceOnUse">
<stop stop-color="#888888"/>
<stop offset="1" stop-color="#4A4A4A"/>
</linearGradient>
<linearGradient id="paint35_linear_1482_22665" x1="120.034" y1="33.0229" x2="120.034" y2="36.697" gradientUnits="userSpaceOnUse">
<stop stop-color="#888888"/>
<stop offset="1" stop-color="#4A4A4A"/>
</linearGradient>
<linearGradient id="paint36_linear_1482_22665" x1="116.403" y1="34.6035" x2="116.403" y2="35.6686" gradientUnits="userSpaceOnUse">
<stop stop-color="#888888"/>
<stop offset="1" stop-color="#4A4A4A"/>
</linearGradient>
<linearGradient id="paint37_linear_1482_22665" x1="120.031" y1="34.6035" x2="120.031" y2="35.6686" gradientUnits="userSpaceOnUse">
<stop stop-color="#888888"/>
<stop offset="1" stop-color="#4A4A4A"/>
</linearGradient>
<linearGradient id="paint38_linear_1482_22665" x1="118.176" y1="37.7827" x2="118.176" y2="38.5033" gradientUnits="userSpaceOnUse">
<stop stop-color="#888888"/>
<stop offset="1" stop-color="#4A4A4A"/>
</linearGradient>
<linearGradient id="paint39_linear_1482_22665" x1="115.85" y1="32.9121" x2="115.85" y2="33.5483" gradientUnits="userSpaceOnUse">
<stop stop-color="#888888"/>
<stop offset="1" stop-color="#4A4A4A"/>
</linearGradient>
<linearGradient id="paint40_linear_1482_22665" x1="28.947" y1="158.948" x2="191.246" y2="138.683" gradientUnits="userSpaceOnUse">
<stop stop-color="#DBDBDB"/>
<stop offset="1" stop-color="#9C9C9C"/>
</linearGradient>
</defs>
</svg>
