<svg width="312" height="192" viewBox="0 0 312 192" fill="none" xmlns="http://www.w3.org/2000/svg">
<rect x="41.6484" y="151.603" width="228" height="10" rx="5" fill="url(#paint0_linear_1482_22637)"/>
<path d="M130.637 120.024C130.637 120.024 164.817 125.228 182.688 107.357C200.56 89.485 195.355 55.305 195.355 55.305C195.355 55.305 161.175 50.1005 143.304 67.9721C125.432 85.8436 130.637 120.024 130.637 120.024Z" fill="url(#paint1_linear_1482_22637)"/>
<path d="M121.07 129.39L162.2 88.2603" stroke="#333333"/>
<path d="M145.062 105.378L165.404 101.921" stroke="#333333"/>
<path d="M212.501 63.9285H214.129V59.1325H218.595V57.6365H214.129V52.8185H212.501V57.6365H208.035V59.1325H212.501V63.9285ZM221.36 66.4805H230.204V64.8085H226.948V50.3545H225.408C224.55 50.8825 223.516 51.2565 222.064 51.4985V52.7965H224.946V64.8085H221.36V66.4805Z" fill="#A0A0A0"/>
<path d="M109.232 36.6743L127.323 64.5773" stroke="#9CE1FF"/>
<path d="M103.446 21.7165C101.473 20.9905 99.7561 19.9316 98.5872 18.8185C99.0079 20.379 99.12 22.3956 98.8177 24.4771C98.5162 26.5506 97.8633 28.2786 97.0589 29.3865C98.4158 29.208 100.245 29.4583 102.212 30.1838C104.185 30.912 105.903 31.9731 107.073 33.0881C106.654 31.5296 106.543 29.5154 106.847 27.4351C107.152 25.3479 107.814 23.6116 108.627 22.5059C107.267 22.6925 105.425 22.4453 103.446 21.7165" stroke="#9CE1FF"/>
<path d="M95.7891 60.6631L118.963 78.215" stroke="#9CE1FF" stroke-dasharray="2 2"/>
<circle cx="89.5206" cy="55.3272" r="3.8466" transform="rotate(10.5415 89.5206 55.3272)" stroke="#9CE1FF"/>
<path d="M190.997 12.1802L178.952 44.6099" stroke="#AEE6FF" stroke-width="1.2" stroke-dasharray="2 2"/>
<path d="M169.142 35.3108C166.418 34.8839 163.863 36.7461 163.436 39.4703C163.009 42.1945 164.871 44.7489 167.596 45.1759" stroke="#FFE55E"/>
<path d="M170.688 25.4461C167.963 25.0191 165.409 26.8814 164.982 29.6055C164.555 32.3297 166.417 34.8842 169.142 35.3111" stroke="#FFE55E"/>
<path d="M194.693 118.631H224.628" stroke="#FFE55E"/>
<path d="M209.66 103.665L209.66 133.599" stroke="#FFE55E"/>
<path d="M202.792 111.763L216.529 125.5" stroke="#FFE55E"/>
<path d="M216.528 111.763L202.791 125.5" stroke="#FFE55E"/>
<path opacity="0.550409" fill-rule="evenodd" clip-rule="evenodd" d="M103.038 106.85C101.619 105.196 100.618 103.385 100.152 101.81C99.6845 103.387 98.6836 105.201 97.2655 106.857C95.8526 108.507 94.3053 109.673 92.958 110.221C94.305 110.769 95.8523 111.934 97.2655 113.584C98.6836 115.24 99.6845 117.054 100.152 118.631C100.618 117.057 101.619 115.245 103.038 113.591C104.462 111.931 106.022 110.762 107.376 110.221C106.022 109.679 104.462 108.51 103.038 106.85" fill="#FFE55E"/>
<defs>
<linearGradient id="paint0_linear_1482_22637" x1="269.648" y1="156.603" x2="41.6484" y2="156.602" gradientUnits="userSpaceOnUse">
<stop stop-color="#30DACD"/>
<stop offset="1" stop-color="#77F3DD"/>
</linearGradient>
<linearGradient id="paint1_linear_1482_22637" x1="177.246" y1="49.1527" x2="198.068" y2="107.4" gradientUnits="userSpaceOnUse">
<stop offset="0.09375" stop-color="#8DF1A9"/>
<stop offset="1" stop-color="#3AD8C5"/>
</linearGradient>
</defs>
</svg>
