<svg width="24" height="24" viewBox="0 0 24 24" fill="none" xmlns="http://www.w3.org/2000/svg">
<path d="M22 4C23.1046 4 24 3.10457 24 2C24 0.89543 23.1046 0 22 0C20.8954 0 20 0.89543 20 2C20 3.10457 20.8954 4 22 4Z" fill="#FF5555"/>
<path d="M5.50407 20V11.9931C5.44208 10.2106 6.0898 8.47579 7.30632 7.16616C8.52284 5.85653 10.2097 5.07802 12 5C13.7903 5.07802 15.4772 5.85653 16.6937 7.16616C17.9102 8.47579 18.5579 10.2106 18.4959 11.9931V20" stroke="#29D3C6" stroke-width="1.6" stroke-linecap="round" stroke-linejoin="round"/>
<path d="M12 2V5" stroke="#29D3C6" stroke-width="1.6" stroke-linecap="round" stroke-linejoin="round"/>
<path d="M3 20H21" stroke="#29D3C6" stroke-width="1.6" stroke-linecap="round" stroke-linejoin="round"/>
</svg>
