<svg width="360" height="320" viewBox="0 0 360 320" fill="none" xmlns="http://www.w3.org/2000/svg">
<g clip-path="url(#clip0_786_11604)">
<path d="M110.159 243.226H96.7812V297.947H110.159V243.226Z" fill="url(#paint0_linear_786_11604)"/>
<path fill-rule="evenodd" clip-rule="evenodd" d="M133.533 123.881C142.647 118.048 148.375 109.602 148.375 100.206C148.375 82.6047 128.271 68.3359 103.472 68.3359C78.6718 68.3359 58.5676 82.6047 58.5676 100.206C58.5676 109.602 64.297 118.049 73.4115 123.882C61.1163 130.085 53.1551 139.997 53.1551 151.167C53.1551 162.286 61.0429 172.158 73.2412 178.366C57.758 185.098 47.502 196.849 47.502 210.22C47.502 231.119 72.5599 248.062 103.471 248.062C134.381 248.062 159.439 231.119 159.439 210.22C159.439 196.85 149.184 185.099 133.703 178.367C145.902 172.159 153.791 162.286 153.791 151.167C153.791 139.997 145.829 130.084 133.533 123.881Z" fill="url(#paint1_linear_786_11604)"/>
<path d="M98.3042 106.587H94.1743L97.0923 103.669L95.7608 102.337L92.8428 105.255V101.125H90.9692V105.255L88.0432 102.337L86.7197 103.669L89.6377 106.587H85.5078V108.46H89.6377L86.7197 111.386L88.0432 112.71L90.9692 109.792V113.922H92.8428V109.792L95.7608 112.71L97.0923 111.386L94.1743 108.46H98.3042V106.587Z" fill="#F7F7F7"/>
<path d="M137.16 152.865H132.697L135.851 149.711L134.42 148.272L131.266 151.434V146.971H129.233V151.434L126.079 148.272L124.64 149.711L127.794 152.865H123.33V154.898H127.794L124.64 158.052L126.079 159.491L129.233 156.337V160.792H131.266V156.337L134.42 159.491L135.851 158.052L132.697 154.898H137.16V152.865Z" fill="#F7F7F7"/>
<path d="M91.9059 216.736H86.7913L90.415 213.122L88.7661 211.473L85.1523 215.087V209.972H82.8221V215.087L79.2083 211.473L77.5594 213.122L81.1732 216.736H76.0586V219.066H81.1732L77.5594 222.68L79.2083 224.319L82.8221 220.715V225.82H85.1523V220.715L88.7661 224.319L90.415 222.68L86.7913 219.066H91.9059V216.736Z" fill="#F7F7F7"/>
<path d="M133.508 217.531C144.582 217.531 153.56 208.554 153.56 197.479C153.56 186.404 144.582 177.426 133.508 177.426C122.433 177.426 113.455 186.404 113.455 197.479C113.455 208.554 122.433 217.531 133.508 217.531Z" fill="url(#paint2_linear_786_11604)"/>
<path d="M72.2309 152.705C82.3599 152.705 90.5712 144.494 90.5712 134.365C90.5712 124.236 82.3599 116.025 72.2309 116.025C62.1018 116.025 53.8906 124.236 53.8906 134.365C53.8906 144.494 62.1018 152.705 72.2309 152.705Z" fill="url(#paint3_linear_786_11604)"/>
<path d="M117.242 93.2172C125.138 93.2172 131.54 86.8156 131.54 78.9189C131.54 71.0222 125.138 64.6206 117.242 64.6206C109.345 64.6206 102.943 71.0222 102.943 78.9189C102.943 86.8156 109.345 93.2172 117.242 93.2172Z" fill="url(#paint4_linear_786_11604)"/>
<path d="M121.364 199.447L124.792 198.501L125.057 199.46L121.629 200.407L121.364 199.447ZM132.465 201.265C132.259 201.472 132.024 201.653 131.76 201.807C131.5 201.954 131.222 202.068 130.925 202.15C129.774 202.468 128.775 202.183 127.93 201.296C127.088 200.402 126.371 198.879 125.777 196.727C125.184 194.581 125.032 192.873 125.32 191.605C125.609 190.336 126.331 189.542 127.489 189.222C127.78 189.142 128.061 189.096 128.333 189.083C128.611 189.069 128.886 189.09 129.158 189.147L129.502 190.394C129.179 190.289 128.89 190.228 128.635 190.211C128.386 190.192 128.147 190.214 127.921 190.277C127.083 190.508 126.585 191.106 126.425 192.07C126.271 193.032 126.445 194.421 126.946 196.235C127.49 198.207 128.056 199.553 128.643 200.273C129.234 200.986 129.951 201.227 130.794 200.994C130.969 200.946 131.13 200.882 131.277 200.804C131.43 200.724 131.573 200.629 131.705 200.517C131.781 200.452 131.855 200.382 131.928 200.305C131.999 200.223 132.067 200.139 132.13 200.052L132.465 201.265ZM133.281 188.675C132.606 188.862 132.23 189.438 132.152 190.404C132.079 191.363 132.303 192.785 132.823 194.669C133.343 196.554 133.882 197.895 134.44 198.692C135.002 199.482 135.621 199.784 136.295 199.597C136.976 199.41 137.353 198.839 137.428 197.886C137.507 196.925 137.284 195.491 136.757 193.584C136.232 191.682 135.69 190.342 135.131 189.563C134.578 188.784 133.961 188.488 133.281 188.675ZM131.632 195.017C131.016 192.783 130.817 191.064 131.035 189.859C131.253 188.653 131.903 187.901 132.984 187.602C134.066 187.304 135.01 187.616 135.815 188.539C136.627 189.46 137.341 191.038 137.957 193.271C138.573 195.504 138.769 197.222 138.543 198.423C138.322 199.617 137.671 200.363 136.589 200.662C135.507 200.96 134.565 200.654 133.763 199.743C132.959 198.825 132.249 197.25 131.632 195.017ZM139.838 191.711L138.966 191.952L138.928 191.815C138.689 190.949 138.68 190.238 138.9 189.679C139.124 189.115 139.561 188.743 140.211 188.564C140.801 188.401 141.348 188.481 141.852 188.806C142.354 189.125 142.698 189.621 142.883 190.294C143.046 190.885 143.069 191.716 142.951 192.788C142.838 193.859 142.504 195.631 141.95 198.104L144.724 197.338L144.957 198.183L140.789 199.333C141.457 196.326 141.862 194.251 142.005 193.108C142.147 191.965 142.143 191.119 141.991 190.57C141.869 190.126 141.667 189.797 141.387 189.584C141.106 189.371 140.797 189.311 140.458 189.405C140.073 189.511 139.825 189.744 139.713 190.105C139.599 190.462 139.624 190.935 139.787 191.526L139.838 191.711Z" fill="#777777"/>
<path d="M60.9998 135.719L64.1355 134.853L64.3778 135.731L61.2421 136.596L60.9998 135.719ZM71.1531 137.381C70.9649 137.571 70.7501 137.736 70.5085 137.877C70.2708 138.011 70.0163 138.116 69.745 138.191C68.6918 138.481 67.7785 138.221 67.0051 137.41C66.2355 136.592 65.5791 135.199 65.0358 133.231C64.4941 131.268 64.355 129.706 64.6186 128.546C64.8822 127.386 65.5433 126.659 66.6018 126.367C66.8678 126.294 67.1251 126.251 67.3739 126.24C67.6279 126.227 67.8794 126.246 68.1283 126.298L68.4432 127.439C68.1477 127.343 67.8833 127.287 67.65 127.271C67.422 127.254 67.2042 127.274 66.9968 127.331C66.2308 127.543 65.7749 128.089 65.629 128.971C65.4884 129.851 65.6472 131.121 66.1053 132.781C66.603 134.584 67.1202 135.815 67.657 136.474C68.1977 137.127 68.8536 137.346 69.6249 137.133C69.7845 137.089 69.9317 137.031 70.0665 136.96C70.2066 136.887 70.337 136.799 70.4577 136.697C70.5272 136.638 70.5953 136.574 70.6619 136.504C70.727 136.428 70.7887 136.351 70.847 136.272L71.1531 137.381ZM71.8991 125.867C71.2821 126.037 70.9381 126.564 70.8672 127.448C70.8002 128.325 71.0046 129.626 71.4802 131.349C71.9559 133.072 72.449 134.299 72.9594 135.028C73.4736 135.75 74.0393 136.027 74.6563 135.856C75.2786 135.684 75.624 135.163 75.6925 134.291C75.7649 133.412 75.5603 132.101 75.0787 130.356C74.5986 128.616 74.1029 127.391 73.5916 126.679C73.0856 125.966 72.5214 125.695 71.8991 125.867ZM70.3915 131.667C69.8278 129.624 69.6456 128.051 69.845 126.949C70.0444 125.846 70.6388 125.158 71.6282 124.885C72.6176 124.612 73.4807 124.898 74.2174 125.742C74.9595 126.585 75.6124 128.027 76.1762 130.07C76.74 132.113 76.9188 133.683 76.7125 134.782C76.5102 135.874 75.9143 136.557 74.925 136.83C73.9356 137.103 73.074 136.822 72.3401 135.989C71.6049 135.15 70.9553 133.709 70.3915 131.667ZM77.8967 128.643L77.0991 128.863L77.0644 128.738C76.846 127.947 76.8376 127.296 77.0391 126.785C77.2436 126.269 77.6431 125.929 78.2376 125.765C78.7777 125.616 79.2779 125.689 79.7383 125.986C80.1974 126.278 80.5119 126.732 80.6818 127.347C80.8309 127.888 80.8515 128.648 80.7436 129.628C80.64 130.608 80.3348 132.228 79.8282 134.49L82.3654 133.79L82.5786 134.563L78.7665 135.615C79.3772 132.864 79.7477 130.967 79.8783 129.921C80.0088 128.876 80.0047 128.102 79.866 127.6C79.7539 127.194 79.5696 126.893 79.313 126.698C79.0564 126.503 78.7732 126.448 78.4634 126.534C78.1117 126.631 77.8845 126.844 77.7819 127.175C77.6782 127.501 77.7008 127.934 77.8499 128.474L77.8967 128.643Z" fill="#777777"/>
<path d="M108.627 80.4818L111.071 79.8071L111.26 80.4913L108.816 81.1661L108.627 80.4818ZM116.542 81.7781C116.396 81.9257 116.228 82.0545 116.04 82.1645C115.855 82.2692 115.656 82.3507 115.445 82.4091C114.624 82.6357 113.912 82.4328 113.309 81.8004C112.709 81.1627 112.197 80.0767 111.773 78.5423C111.351 77.0121 111.243 75.7946 111.448 74.89C111.654 73.9853 112.169 73.4191 112.994 73.1913C113.202 73.1341 113.402 73.101 113.596 73.0921C113.794 73.0821 113.99 73.0971 114.184 73.1373L114.43 74.0268C114.199 73.9521 113.993 73.9085 113.811 73.8963C113.634 73.8829 113.464 73.8985 113.302 73.9431C112.705 74.1079 112.35 74.534 112.236 75.2215C112.126 75.9078 112.25 76.8978 112.607 78.1917C112.995 79.5975 113.398 80.5573 113.817 81.071C114.238 81.5795 114.75 81.7507 115.351 81.5848C115.475 81.5504 115.59 81.5054 115.695 81.4496C115.805 81.3926 115.906 81.3244 116 81.2449C116.054 81.1987 116.108 81.1484 116.159 81.0939C116.21 81.0352 116.258 80.9751 116.304 80.9134L116.542 81.7781ZM117.124 72.8012C116.643 72.934 116.375 73.3449 116.32 74.0341C116.267 74.7179 116.427 75.7316 116.797 77.0752C117.168 78.4189 117.553 79.3749 117.951 79.9434C118.352 80.5067 118.793 80.7219 119.274 80.5891C119.759 80.4552 120.028 80.0484 120.081 79.3687C120.138 78.6837 119.978 77.6611 119.603 76.3009C119.229 74.9449 118.842 73.9894 118.444 73.4345C118.049 72.8784 117.609 72.6673 117.124 72.8012ZM115.949 77.3229C115.509 75.7305 115.367 74.5045 115.523 73.6449C115.678 72.7852 116.142 72.249 116.913 72.0361C117.684 71.8232 118.357 72.0458 118.931 72.704C119.51 73.361 120.019 74.4857 120.458 76.0782C120.898 77.6706 121.037 78.8951 120.877 79.7517C120.719 80.603 120.254 81.1351 119.483 81.348C118.712 81.5609 118.04 81.3424 117.468 80.6926C116.895 80.0385 116.388 78.9153 115.949 77.3229ZM121.8 74.9659L121.178 75.1375L121.151 75.0396C120.981 74.4227 120.974 73.9151 121.131 73.517C121.291 73.1147 121.602 72.8496 122.066 72.7216C122.487 72.6054 122.877 72.6629 123.236 72.894C123.593 73.1219 123.839 73.4758 123.971 73.9556C124.087 74.3766 124.103 74.9694 124.019 75.7338C123.938 76.4973 123.701 77.7608 123.306 79.5243L125.284 78.9784L125.45 79.5806L122.478 80.4009C122.954 78.2567 123.243 76.7771 123.345 75.9622C123.446 75.1472 123.443 74.5439 123.335 74.1522C123.248 73.8356 123.104 73.6012 122.904 73.4492C122.704 73.2972 122.483 73.2545 122.242 73.3211C121.967 73.3968 121.79 73.5634 121.71 73.8208C121.629 74.075 121.647 74.4126 121.763 74.8337L121.8 74.9659Z" fill="#777777"/>
<path d="M331.801 207.076C327.26 220.483 303.373 247.391 247.945 250.967C218.121 252.891 191.534 245.282 181.277 228.683C173.885 216.721 182.22 209.917 192.07 215.727C201.92 221.537 206.41 231.737 207.328 237.001C211.246 259.474 173.778 263.017 154.01 245.757C154.01 245.757 158.825 255.041 161.692 259.784" stroke="url(#paint5_linear_786_11604)" stroke-width="1.09993"/>
<path fill-rule="evenodd" clip-rule="evenodd" d="M286.239 91.8441L286.544 92.4485L294.252 107.734C294.454 107.949 294.628 108.197 294.767 108.474C295.558 110.041 294.928 111.953 293.36 112.744C291.793 113.534 289.881 112.904 289.09 111.337C288.3 109.769 288.93 107.857 290.497 107.066C291.222 106.701 292.02 106.639 292.746 106.833L286.011 93.4757L277.949 102.204L285.489 117.156C285.706 117.38 285.892 117.64 286.04 117.933C286.83 119.501 286.2 121.413 284.633 122.203C283.065 122.994 281.153 122.364 280.363 120.796C279.572 119.228 280.202 117.317 281.77 116.526C282.488 116.164 283.278 116.1 284 116.287L276.964 102.336L276.818 102.046L277.039 101.806L285.78 92.3414L286.239 91.8441Z" fill="url(#paint6_linear_786_11604)"/>
<path d="M180.001 764.416C228.113 764.416 275.144 750.15 315.148 723.42C355.151 696.691 386.33 658.699 404.742 614.25C423.153 569.8 427.971 520.889 418.585 473.702C409.198 426.515 386.03 383.17 352.01 349.15C317.99 315.13 274.646 291.962 227.458 282.576C180.271 273.19 131.36 278.007 86.9109 296.419C42.4614 314.83 4.46982 346.009 -22.2596 386.013C-48.9891 426.016 -63.2559 473.047 -63.2559 521.159C-63.2559 585.675 -37.627 647.548 7.99253 693.168C53.6121 738.788 115.486 764.416 180.001 764.416Z" fill="url(#paint7_linear_786_11604)"/>
<path fill-rule="evenodd" clip-rule="evenodd" d="M346.223 343.552C335.466 345.87 315.321 342.078 293.054 327.427C279.377 318.434 253.537 310.553 223.571 308.451C180.225 305.411 160.924 289.505 164.298 278.409C185.331 277.049 206.563 278.42 227.458 282.576C272.01 291.438 313.136 312.585 346.223 343.552Z" fill="url(#paint8_linear_786_11604)"/>
<path d="M237.228 298.782C237.228 298.97 237.154 299.151 237.021 299.285C236.903 299.403 236.748 299.475 236.584 299.49H207.29L220.681 287.803H235.15L237.216 298.648C237.225 298.692 237.229 298.737 237.228 298.782Z" fill="url(#paint9_linear_786_11604)"/>
<path d="M297.231 288.06C297.301 288.236 297.298 288.432 297.223 288.605C297.157 288.758 297.04 288.882 296.893 288.956L271.618 298.964L277.804 283.945L291.257 278.618L297.171 287.941C297.195 287.978 297.215 288.019 297.231 288.06Z" fill="url(#paint10_linear_786_11604)"/>
<path d="M234.949 124.515V132.093H252L244.954 119.728L234.949 124.515Z" fill="#FFDDAF"/>
<path d="M234.953 132.094V124.516L244.758 119.733V121.445C244.758 122.54 244.497 123.619 243.997 124.594C243.498 125.568 242.773 126.409 241.884 127.047L234.953 132.094Z" fill="#EFC080"/>
<path d="M246.657 121.517H244.194L243.751 122.998C243.587 123.549 243.249 124.031 242.788 124.374C242.327 124.717 241.768 124.901 241.194 124.9H234.629C234.166 124.901 233.708 124.804 233.285 124.615C232.862 124.425 232.485 124.148 232.178 123.802C231.87 123.455 231.641 123.047 231.503 122.604C231.366 122.162 231.325 121.695 231.382 121.236L232.752 109.904L245.931 115.692H246.656C247.423 115.692 248.158 115.994 248.704 116.533C249.249 117.072 249.56 117.805 249.568 118.571C249.572 118.954 249.501 119.334 249.359 119.689C249.217 120.044 249.006 120.367 248.738 120.641C248.471 120.914 248.152 121.133 247.801 121.283C247.449 121.433 247.071 121.513 246.689 121.517H246.657Z" fill="#FFDDAF"/>
<path d="M245.93 115.697C245.655 115.697 245.392 115.807 245.198 116.001C245.004 116.195 244.895 116.458 244.895 116.733V118.355H244.579C244.163 118.355 243.763 118.19 243.469 117.895C243.174 117.601 243.009 117.201 243.009 116.785V116.155C243.009 115.773 242.909 115.398 242.72 115.066C242.531 114.734 242.258 114.457 241.929 114.262L239.365 112.742L245.93 115.697Z" fill="url(#paint11_linear_786_11604)"/>
<path d="M232.496 113.154C232.496 113.154 235.435 112.745 235.797 114.164C236.023 115.045 233.275 119.464 235.378 119.464" stroke="#333333" stroke-width="0.494449" stroke-miterlimit="10" stroke-linecap="round"/>
<path d="M238.626 117.266C238.309 117.266 238.051 116.915 238.051 116.482C238.051 116.049 238.309 115.698 238.626 115.698C238.944 115.698 239.201 116.049 239.201 116.482C239.201 116.915 238.944 117.266 238.626 117.266Z" fill="#333333"/>
<path d="M233.271 117.266C232.953 117.266 232.696 116.915 232.696 116.482C232.696 116.049 232.953 115.698 233.271 115.698C233.588 115.698 233.846 116.049 233.846 116.482C233.846 116.915 233.588 117.266 233.271 117.266Z" fill="#333333"/>
<path d="M245.943 118.657C245.943 118.255 246.103 117.869 246.387 117.585C246.671 117.3 247.057 117.141 247.459 117.141V117.141" stroke="url(#paint12_linear_786_11604)" stroke-width="0.494449" stroke-miterlimit="10" stroke-linecap="round"/>
<path d="M235.803 121.205C235.803 121.205 237.904 121.332 238.205 120.019" stroke="#333333" stroke-width="0.494449" stroke-miterlimit="10" stroke-linecap="round"/>
<path d="M246.584 116.013V112.388C246.584 111.539 246.344 110.707 245.891 109.989C245.438 109.27 244.792 108.695 244.026 108.329L238.886 105.87C237.913 105.406 236.795 105.347 235.778 105.707C234.762 106.067 233.93 106.816 233.465 107.789C233.38 107.965 233.309 108.148 233.251 108.335L232.768 109.905L246.584 116.013Z" fill="url(#paint13_linear_786_11604)" stroke="url(#paint14_linear_786_11604)" stroke-width="0.752533" stroke-linecap="round" stroke-linejoin="round"/>
<path d="M246.584 116.012L227.808 107.711" stroke="#29D3C6" stroke-width="0.752533" stroke-linecap="round" stroke-linejoin="round"/>
<path d="M205.387 159.063C206.284 158.389 206.896 157.404 207.104 156.301L209.595 143.198C210.222 139.943 211.962 137.008 214.517 134.898C217.072 132.787 220.282 131.633 223.596 131.633H260.088C263.525 131.633 264.31 131.901 267.347 133.508C270.384 135.116 272.108 138.015 274.04 140.857L286.668 159.411C288.803 162.551 291.288 166.494 291.926 169.201C293.136 174.334 289.933 179.248 284.097 179.248H282.163L270.459 169.201C271.566 168.959 272.125 167.96 271.547 167.087L264.653 156.741C263.514 155.034 260.922 155.334 260.201 157.253L252.092 178.021C252.092 178.021 220.595 178.028 218.548 178.028L205.387 159.063Z" fill="url(#paint15_linear_786_11604)"/>
<path d="M235.032 131.622V144.248L243.266 131.622H235.032Z" fill="white"/>
<path d="M229.476 131.882H235.029V128.149C234.004 128.166 233.022 128.564 232.273 129.265L229.476 131.882Z" fill="url(#paint16_linear_786_11604)"/>
<path d="M243.083 131.883L243.973 129.361C244.099 129.007 244.331 128.7 244.638 128.483C244.944 128.266 245.311 128.149 245.687 128.149H252.505C253.555 128.149 254.565 128.548 255.332 129.265L258.129 131.883H243.083Z" fill="url(#paint17_linear_786_11604)"/>
<path d="M238.439 202.689C238.123 201.932 236.991 202.157 236.991 202.977V287.803H218.171V178.167H251.061L293.689 277.754L273.06 285.87L238.439 202.689Z" fill="url(#paint18_linear_786_11604)"/>
<path d="M218.166 177.456V184.764H253.596L251.869 177.456H218.166Z" fill="url(#paint19_linear_786_11604)"/>
<path d="M228.288 131.486L259.582 190.417H255.733L224.764 131.486H228.288Z" fill="url(#paint20_linear_786_11604)"/>
<path d="M250.228 179.972L259.942 203.72C260.223 204.411 260.703 205.001 261.321 205.418C261.94 205.834 262.668 206.056 263.413 206.056H273.382C273.804 206.057 274.22 205.954 274.593 205.757C274.966 205.559 275.285 205.274 275.522 204.924C275.759 204.575 275.906 204.173 275.952 203.753C275.997 203.334 275.939 202.909 275.782 202.518L267.644 182.322C267.366 181.627 266.887 181.031 266.267 180.611C265.648 180.191 264.917 179.967 264.168 179.966L250.228 179.972Z" fill="url(#paint21_linear_786_11604)"/>
<path d="M254.365 179.996L254.6 180.571" stroke="url(#paint22_linear_786_11604)" stroke-width="0.408445" stroke-miterlimit="10" stroke-linecap="round"/>
<path d="M206.433 158.156C207.995 159.358 209.294 163.001 209.487 167.248C209.728 172.555 208.226 176.934 206.141 177.031C205.792 177.041 205.449 176.946 205.156 176.757L204.63 176.312C204.829 176.781 205.13 177.2 205.51 177.54C205.89 177.879 206.34 178.13 206.828 178.275L211.013 179.511C212.991 180.04 215.145 178.777 215.876 176.312C216.895 172.881 217.766 161.004 211.075 156.844C208.808 155.434 205.154 155.075 204.322 156.891L206.433 158.156Z" fill="url(#paint23_linear_786_11604)"/>
<path d="M181.982 154.056H173.337C172.493 154.056 172.032 153.29 171.725 152.38L166.813 138.254C166.506 137.435 167.497 136.484 168.341 136.484H176.295C177.139 136.484 177.677 136.748 177.984 137.643L183.51 152.38C183.894 153.214 182.826 154.056 181.982 154.056Z" fill="url(#paint24_linear_786_11604)"/>
<path d="M180.741 150.397H173.204C172.622 150.397 172.378 149.95 172.149 149.365L168.319 138.984C168.07 138.392 168.285 137.951 168.867 137.951H176.405C176.987 137.951 176.991 137.923 177.231 138.47L181.289 149.365C181.539 149.95 181.324 150.397 180.741 150.397Z" fill="white"/>
<path d="M205.529 177.077C205.828 177.269 206.178 177.366 206.533 177.356C208.663 177.259 210.191 172.796 209.942 167.387C209.745 163.061 208.422 159.348 206.83 158.123L185.86 145.985C185.502 145.67 184.273 145.277 183.815 145.142L178.145 143.466L178.046 143.803C177.912 144.254 177.942 144.739 178.13 145.171C178.318 145.603 178.652 145.955 179.074 146.165L180.402 146.961C180.686 147.103 180.935 147.306 181.13 147.557C181.324 147.808 181.46 148.099 181.526 148.41L182.838 151.979C182.971 152.599 182.289 154.03 181.526 154.03L176.369 154.03C176.369 154.03 176.376 155.882 182.549 159.226L186.559 161.035L205.529 177.077Z" fill="#FFDDAF"/>
<path d="M181.847 150.294C182.395 151.833 183.475 154.456 185.387 155.139" stroke="url(#paint25_linear_786_11604)" stroke-width="0.752533" stroke-miterlimit="10" stroke-linecap="round"/>
<path d="M278.184 179.967H282.121C286.246 179.967 287.904 177.335 286.035 172.747C285.29 170.918 283.62 168.45 282.121 166.802C277.176 161.368 270.918 159.627 268.099 162.208C267.336 162.806 266.778 163.922 266.931 165.651L278.184 179.967Z" fill="url(#paint26_linear_786_11604)"/>
<path d="M278.22 179.699C279.547 178.575 278.135 174.019 275.071 170.396C272.859 167.784 270.308 165.962 268.56 165.57C268.426 165.558 268.298 165.552 268.175 165.552H260.932C257.965 165.552 255.052 166.338 252.488 167.831L247.315 170.842C246.686 171.231 246.167 171.774 245.807 172.421C245.447 173.067 245.257 173.794 245.257 174.534V181.524C245.257 182.43 245.591 183.303 246.195 183.978C246.798 184.653 247.63 185.082 248.529 185.182L253.685 185.757V184.641C253.686 184.322 253.606 184.009 253.455 183.729C253.304 183.448 253.086 183.21 252.819 183.035L251.578 182.359C251.524 182.329 251.482 182.283 251.457 182.227C251.433 182.171 251.428 182.108 251.443 182.049C251.458 181.99 251.493 181.937 251.541 181.899C251.589 181.862 251.649 181.841 251.71 181.841H253.268C255.414 181.841 257.081 181.237 258.616 179.736L276.343 179.71L278.22 179.699Z" fill="#FFDDAF"/>
<path d="M250.262 174.921L247.475 176.647C246.846 177.036 246.327 177.58 245.967 178.226C245.607 178.872 245.418 179.6 245.417 180.339V182.502" stroke="url(#paint27_linear_786_11604)" stroke-width="0.752533" stroke-miterlimit="10" stroke-linecap="round"/>
<path d="M250.262 172.006L247.475 173.732C246.845 174.121 246.326 174.666 245.966 175.312C245.606 175.959 245.417 176.688 245.417 177.428V180.221" stroke="url(#paint28_linear_786_11604)" stroke-width="0.752533" stroke-miterlimit="10" stroke-linecap="round"/>
<path d="M245.511 182.785C245.747 181.471 246.377 180.448 247.4 179.815L250.188 178.088" stroke="url(#paint29_linear_786_11604)" stroke-width="0.752533" stroke-miterlimit="10" stroke-linecap="round"/>
</g>
<defs>
<linearGradient id="paint0_linear_786_11604" x1="95.594" y1="254.672" x2="124.224" y2="278.927" gradientUnits="userSpaceOnUse">
<stop offset="0.140625" stop-color="#FBBD90"/>
<stop offset="1" stop-color="#DE7756"/>
</linearGradient>
<linearGradient id="paint1_linear_786_11604" x1="68.9933" y1="84.9379" x2="180.389" y2="138.902" gradientUnits="userSpaceOnUse">
<stop offset="0.00520833" stop-color="#9FFFD1"/>
<stop offset="1" stop-color="#12CBB5"/>
</linearGradient>
<linearGradient id="paint2_linear_786_11604" x1="117.593" y1="184.418" x2="149.738" y2="210.796" gradientUnits="userSpaceOnUse">
<stop offset="0.401042" stop-color="#FBFBFB"/>
<stop offset="1" stop-color="#CDCDCD"/>
</linearGradient>
<linearGradient id="paint3_linear_786_11604" x1="57.6748" y1="122.419" x2="87.075" y2="146.545" gradientUnits="userSpaceOnUse">
<stop offset="0.401042" stop-color="#FBFBFB"/>
<stop offset="1" stop-color="#CDCDCD"/>
</linearGradient>
<linearGradient id="paint4_linear_786_11604" x1="105.894" y1="69.6059" x2="128.814" y2="88.4146" gradientUnits="userSpaceOnUse">
<stop offset="0.401042" stop-color="#FBFBFB"/>
<stop offset="1" stop-color="#CDCDCD"/>
</linearGradient>
<linearGradient id="paint5_linear_786_11604" x1="297.789" y1="199.887" x2="178.256" y2="281.336" gradientUnits="userSpaceOnUse">
<stop stop-color="#DEDEDE"/>
<stop offset="1" stop-color="#A5A5A5"/>
</linearGradient>
<linearGradient id="paint6_linear_786_11604" x1="278.133" y1="95.9318" x2="290.013" y2="119.49" gradientUnits="userSpaceOnUse">
<stop stop-color="#9C9C9C"/>
<stop offset="1" stop-color="#5B5B5B"/>
</linearGradient>
<linearGradient id="paint7_linear_786_11604" x1="193.573" y1="284.895" x2="168.828" y2="459.024" gradientUnits="userSpaceOnUse">
<stop stop-color="#8CF1FF"/>
<stop offset="0.95625" stop-color="#7063FF"/>
</linearGradient>
<linearGradient id="paint8_linear_786_11604" x1="179.826" y1="250.069" x2="321.024" y2="299.692" gradientUnits="userSpaceOnUse">
<stop offset="0.00520833" stop-color="#9BF9D1"/>
<stop offset="1" stop-color="#40DECB"/>
</linearGradient>
<linearGradient id="paint9_linear_786_11604" x1="222.259" y1="287.803" x2="222.259" y2="299.493" gradientUnits="userSpaceOnUse">
<stop stop-color="#7A7A7A"/>
<stop offset="1" stop-color="#464646"/>
</linearGradient>
<linearGradient id="paint10_linear_786_11604" x1="280.253" y1="282.976" x2="284.556" y2="293.844" gradientUnits="userSpaceOnUse">
<stop stop-color="#7A7A7A"/>
<stop offset="1" stop-color="#464646"/>
</linearGradient>
<linearGradient id="paint11_linear_786_11604" x1="242.647" y1="112.742" x2="242.647" y2="118.355" gradientUnits="userSpaceOnUse">
<stop stop-color="#888888"/>
<stop offset="1" stop-color="#4A4A4A"/>
</linearGradient>
<linearGradient id="paint12_linear_786_11604" x1="246.701" y1="117.141" x2="246.701" y2="118.657" gradientUnits="userSpaceOnUse">
<stop stop-color="#888888"/>
<stop offset="1" stop-color="#4A4A4A"/>
</linearGradient>
<linearGradient id="paint13_linear_786_11604" x1="243.931" y1="106.448" x2="235.609" y2="114.934" gradientUnits="userSpaceOnUse">
<stop offset="0.00520833" stop-color="#9FFFD1"/>
<stop offset="1" stop-color="#12CBB5"/>
</linearGradient>
<linearGradient id="paint14_linear_786_11604" x1="243.931" y1="106.448" x2="235.609" y2="114.934" gradientUnits="userSpaceOnUse">
<stop offset="0.00520833" stop-color="#9FFFD1"/>
<stop offset="1" stop-color="#12CBB5"/>
</linearGradient>
<linearGradient id="paint15_linear_786_11604" x1="248.783" y1="131.633" x2="248.783" y2="179.248" gradientUnits="userSpaceOnUse">
<stop stop-color="#888888"/>
<stop offset="1" stop-color="#4A4A4A"/>
</linearGradient>
<linearGradient id="paint16_linear_786_11604" x1="232.253" y1="128.149" x2="232.253" y2="131.882" gradientUnits="userSpaceOnUse">
<stop stop-color="#313131"/>
<stop offset="1" stop-color="#5A5A5A"/>
</linearGradient>
<linearGradient id="paint17_linear_786_11604" x1="250.606" y1="128.149" x2="250.606" y2="131.883" gradientUnits="userSpaceOnUse">
<stop stop-color="#313131"/>
<stop offset="1" stop-color="#5A5A5A"/>
</linearGradient>
<linearGradient id="paint18_linear_786_11604" x1="214.748" y1="184.062" x2="290.785" y2="278.52" gradientUnits="userSpaceOnUse">
<stop offset="0.111458" stop-color="#A3E9FF"/>
<stop offset="1" stop-color="#97CDFF"/>
</linearGradient>
<linearGradient id="paint19_linear_786_11604" x1="235.881" y1="177.456" x2="235.881" y2="184.764" gradientUnits="userSpaceOnUse">
<stop stop-color="#313131"/>
<stop offset="1" stop-color="#5A5A5A"/>
</linearGradient>
<linearGradient id="paint20_linear_786_11604" x1="252.897" y1="136.93" x2="217.575" y2="153.162" gradientUnits="userSpaceOnUse">
<stop offset="0.00520833" stop-color="#9FFFD1"/>
<stop offset="1" stop-color="#12CBB5"/>
</linearGradient>
<linearGradient id="paint21_linear_786_11604" x1="271.025" y1="182.376" x2="251.12" y2="197.651" gradientUnits="userSpaceOnUse">
<stop offset="0.00520833" stop-color="#9FFFD1"/>
<stop offset="1" stop-color="#12CBB5"/>
</linearGradient>
<linearGradient id="paint22_linear_786_11604" x1="254.483" y1="179.996" x2="254.483" y2="180.571" gradientUnits="userSpaceOnUse">
<stop stop-color="#888888"/>
<stop offset="1" stop-color="#4A4A4A"/>
</linearGradient>
<linearGradient id="paint23_linear_786_11604" x1="212.905" y1="157.101" x2="206.664" y2="178.226" gradientUnits="userSpaceOnUse">
<stop stop-color="#313131"/>
<stop offset="1" stop-color="#5A5A5A"/>
</linearGradient>
<linearGradient id="paint24_linear_786_11604" x1="169.988" y1="152.433" x2="183.287" y2="142.522" gradientUnits="userSpaceOnUse">
<stop offset="0.00520833" stop-color="#9FFFD1"/>
<stop offset="1" stop-color="#12CBB5"/>
</linearGradient>
<linearGradient id="paint25_linear_786_11604" x1="184.057" y1="150.803" x2="183.177" y2="154.63" gradientUnits="userSpaceOnUse">
<stop stop-color="#888888"/>
<stop offset="1" stop-color="#4A4A4A"/>
</linearGradient>
<linearGradient id="paint26_linear_786_11604" x1="276.852" y1="161.035" x2="276.852" y2="179.967" gradientUnits="userSpaceOnUse">
<stop stop-color="#313131"/>
<stop offset="1" stop-color="#5A5A5A"/>
</linearGradient>
<linearGradient id="paint27_linear_786_11604" x1="247.84" y1="174.921" x2="247.84" y2="182.502" gradientUnits="userSpaceOnUse">
<stop stop-color="#888888"/>
<stop offset="1" stop-color="#4A4A4A"/>
</linearGradient>
<linearGradient id="paint28_linear_786_11604" x1="247.84" y1="172.006" x2="247.84" y2="180.221" gradientUnits="userSpaceOnUse">
<stop stop-color="#888888"/>
<stop offset="1" stop-color="#4A4A4A"/>
</linearGradient>
<linearGradient id="paint29_linear_786_11604" x1="247.849" y1="178.088" x2="247.849" y2="182.785" gradientUnits="userSpaceOnUse">
<stop stop-color="#888888"/>
<stop offset="1" stop-color="#4A4A4A"/>
</linearGradient>
<clipPath id="clip0_786_11604">
<rect width="360" height="320" fill="white"/>
</clipPath>
</defs>
</svg>
