<svg width="24" height="24" viewBox="0 0 24 24" fill="none" xmlns="http://www.w3.org/2000/svg">
<path d="M11.167 17.7194H12.8337V16.0527H11.167V17.7194Z" fill="#17D0C2"/>
<path d="M11.167 15.2194H12.8337C12.9043 14.4134 13.3484 13.687 14.0337 13.2569C14.7917 12.7696 15.274 11.9519 15.3337 11.0527C15.3471 9.8618 14.7241 8.75423 13.6995 8.14718C12.6748 7.54014 11.4042 7.52584 10.3661 8.10968C9.3281 8.69352 8.68039 9.7868 8.66699 10.9777V11.0527H10.3337C10.3337 10.1322 11.0799 9.38602 12.0003 9.38602C12.9208 9.38602 13.667 10.1322 13.667 11.0527C13.667 11.7852 13.1931 12.1485 12.6439 12.5696L12.642 12.571C11.7054 13.12 11.1407 14.1341 11.167 15.2194Z" fill="#17D0C2"/>
<circle cx="12.0003" cy="12.7191" r="8.33333" stroke="#17D0C2" stroke-width="1.3"/>
</svg>
