<svg width="150" height="150" viewBox="0 0 150 150" fill="none" xmlns="http://www.w3.org/2000/svg">
<path d="M79.333 89.8867H70.7363V130.773H79.333V89.8867Z" fill="url(#paint0_linear_740_28250)"/>
<path d="M75.0351 45.0904C83.7114 45.0904 90.7449 39.6976 90.7449 33.0452C90.7449 26.3928 83.7114 21 75.0351 21C66.3587 21 59.3252 26.3928 59.3252 33.0452C59.3252 39.6976 66.3587 45.0904 75.0351 45.0904Z" fill="url(#paint1_linear_740_28250)"/>
<path d="M75.0344 91.3214C92.3327 91.3214 106.356 79.3591 106.356 64.6028C106.356 49.8466 92.3327 37.8843 75.0344 37.8843C57.736 37.8843 43.7129 49.8466 43.7129 64.6028C43.7129 79.3591 57.736 91.3214 75.0344 91.3214Z" fill="url(#paint2_linear_740_28250)"/>
<path d="M54.7761 111.59C65.9457 111.59 75.0005 103.067 75.0005 92.5541C75.0005 82.0411 65.9457 73.5186 54.7761 73.5186C43.6065 73.5186 34.5518 82.0411 34.5518 92.5541C34.5518 103.067 43.6065 111.59 54.7761 111.59Z" fill="url(#paint3_linear_740_28250)"/>
<path d="M95.2244 111.59C106.394 111.59 115.449 103.067 115.449 92.5541C115.449 82.0411 106.394 73.5186 95.2244 73.5186C84.0548 73.5186 75 82.0411 75 92.5541C75 103.067 84.0548 111.59 95.2244 111.59Z" fill="url(#paint4_linear_740_28250)"/>
<path fill-rule="evenodd" clip-rule="evenodd" d="M69.6006 64.4939H80.4691L80.6309 64.751L80.1654 65.0439C80.6309 64.751 80.6308 64.7509 80.6309 64.751L80.6321 64.7529L80.634 64.756L80.64 64.7657L80.6603 64.7993C80.6773 64.8277 80.7012 64.8684 80.7306 64.9206C80.7893 65.0248 80.8704 65.1749 80.9636 65.3648C81.1495 65.7441 81.385 66.2852 81.5861 66.9384C81.9861 68.2381 82.2622 70.0236 81.691 71.8643C80.7002 75.0426 77.5655 76.5393 75.0349 76.5393C72.5043 76.5393 69.3698 75.0433 68.3789 71.8649C67.8077 70.0242 68.0836 68.2381 68.4837 66.9384C68.6847 66.2852 68.9202 65.7441 69.1062 65.3648C69.1993 65.1749 69.2804 65.0248 69.3392 64.9206C69.3686 64.8684 69.3924 64.8277 69.4095 64.7993L69.4297 64.7657L69.4357 64.756L69.4377 64.7529L69.4383 64.7518C69.4385 64.7517 69.4388 64.751 69.9044 65.0439L69.4383 64.7518L69.6006 64.4939ZM70.2244 65.5939C70.1861 65.6655 70.142 65.7509 70.0938 65.8491C69.9277 66.1879 69.7157 66.6749 69.535 67.262C69.1716 68.4426 68.9476 69.9856 69.4292 71.5379C70.2403 74.1391 72.8504 75.4393 75.0349 75.4393C77.2193 75.4393 79.8295 74.1391 80.6405 71.5379C81.1222 69.9856 80.8981 68.4426 80.5347 67.262C80.3541 66.6749 80.1421 66.1879 79.9759 65.8491C79.9278 65.7509 79.8836 65.6655 79.8454 65.5939H70.2244Z" fill="#333333"/>
<path fill-rule="evenodd" clip-rule="evenodd" d="M68.3597 59.5061L70.2868 61.2666L69.5448 62.0787L68.3597 60.996L67.1745 62.0787L66.4326 61.2666L68.3597 59.5061Z" fill="#333333"/>
<path fill-rule="evenodd" clip-rule="evenodd" d="M81.7093 59.5061L83.6364 61.2666L82.8944 62.0787L81.7093 60.996L80.5241 62.0787L79.7822 61.2666L81.7093 59.5061Z" fill="#333333"/>
<path d="M75.0353 63.2998C76.5163 63.2998 77.717 62.4001 77.717 61.2904C77.717 60.1806 76.5163 59.281 75.0353 59.281C73.5542 59.281 72.3535 60.1806 72.3535 61.2904C72.3535 62.4001 73.5542 63.2998 75.0353 63.2998Z" fill="url(#paint5_linear_740_28250)"/>
<defs>
<linearGradient id="paint0_linear_740_28250" x1="69.9734" y1="98.4391" x2="90.6168" y2="113.481" gradientUnits="userSpaceOnUse">
<stop offset="0.140625" stop-color="#FBBD90"/>
<stop offset="1" stop-color="#DE7756"/>
</linearGradient>
<linearGradient id="paint1_linear_740_28250" x1="65.3576" y1="23.2253" x2="84.3834" y2="42.5261" gradientUnits="userSpaceOnUse">
<stop offset="0.09375" stop-color="#94FDAB"/>
<stop offset="1" stop-color="#09C4A2"/>
</linearGradient>
<linearGradient id="paint2_linear_740_28250" x1="55.74" y1="42.8205" x2="97.7678" y2="81.1419" gradientUnits="userSpaceOnUse">
<stop offset="0.09375" stop-color="#94FDAB"/>
<stop offset="1" stop-color="#09C4A2"/>
</linearGradient>
<linearGradient id="paint3_linear_740_28250" x1="42.3177" y1="77.0353" x2="71.8494" y2="101.44" gradientUnits="userSpaceOnUse">
<stop offset="0.09375" stop-color="#94FDAB"/>
<stop offset="1" stop-color="#09C4A2"/>
</linearGradient>
<linearGradient id="paint4_linear_740_28250" x1="82.766" y1="77.0353" x2="112.298" y2="101.44" gradientUnits="userSpaceOnUse">
<stop offset="0.09375" stop-color="#94FDAB"/>
<stop offset="1" stop-color="#09C4A2"/>
</linearGradient>
<linearGradient id="paint5_linear_740_28250" x1="71.8775" y1="60.1216" x2="72.7581" y2="64.1945" gradientUnits="userSpaceOnUse">
<stop offset="0.140625" stop-color="#FBBD90"/>
<stop offset="1" stop-color="#DE7756"/>
</linearGradient>
</defs>
</svg>
