<svg width="150" height="150" viewBox="0 0 150 150" fill="none" xmlns="http://www.w3.org/2000/svg">
<path d="M78.445 67.44C78.445 67.44 89.0381 76.8192 102.106 76.8192C115.173 76.8192 125.772 67.44 125.772 67.44C125.772 67.44 115.173 58.0608 102.106 58.0608C100.24 58.0678 98.3802 58.2519 96.5498 58.6107C98.6226 57.3661 100.538 55.8769 102.256 54.1753C111.495 44.931 112.356 30.831 112.356 30.831C112.356 30.831 98.2357 31.687 89.0122 40.9313C87.1227 42.8416 85.4951 44.9942 84.1721 47.3328C84.3175 46.1608 84.3919 44.9811 84.3952 43.8001C84.3796 30.7065 75.0004 20.1238 75.0004 20.1238C75.0004 20.1238 65.6212 30.7065 65.6212 43.7793C65.6244 44.9603 65.6989 46.1401 65.8443 47.3121C64.518 44.9729 62.887 42.8202 60.9938 40.9106C51.7599 31.6662 37.6496 30.8103 37.6496 30.8103C37.6496 30.8103 38.5107 44.931 47.7498 54.1545C49.4675 55.8562 51.3834 57.3453 53.4562 58.59C51.6258 58.2312 49.7655 58.047 47.9003 58.0401C34.8275 58.0401 24.2344 67.4193 24.2344 67.4193C24.2344 67.4193 34.8275 76.7985 47.9003 76.7985C60.9731 76.7985 71.561 67.4193 71.561 67.4193" fill="url(#paint0_linear_740_28251)"/>
<path d="M75.0013 63.3057C81.271 63.3057 87.2839 65.7963 91.7173 70.2296C96.1506 74.663 98.6413 80.6759 98.6413 86.9456V123.876H51.3613V86.9456C51.3613 80.6759 53.852 74.663 58.2853 70.2296C62.7187 65.7963 68.7316 63.3057 75.0013 63.3057Z" fill="url(#paint1_linear_740_28251)"/>
<path d="M68.4487 72.9855C72.391 72.9855 75.5869 69.7897 75.5869 65.8474C75.5869 61.9051 72.391 58.7092 68.4487 58.7092C64.5064 58.7092 61.3105 61.9051 61.3105 65.8474C61.3105 69.7897 64.5064 72.9855 68.4487 72.9855Z" fill="url(#paint2_linear_740_28251)"/>
<path d="M75.0005 63.5854C78.9428 63.5854 82.1386 60.3895 82.1386 56.4472C82.1386 52.5049 78.9428 49.3091 75.0005 49.3091C71.0582 49.3091 67.8623 52.5049 67.8623 56.4472C67.8623 60.3895 71.0582 63.5854 75.0005 63.5854Z" fill="url(#paint3_linear_740_28251)"/>
<path d="M81.5522 72.9855C85.4945 72.9855 88.6904 69.7897 88.6904 65.8474C88.6904 61.9051 85.4945 58.7092 81.5522 58.7092C77.6099 58.7092 74.4141 61.9051 74.4141 65.8474C74.4141 69.7897 77.6099 72.9855 81.5522 72.9855Z" fill="url(#paint4_linear_740_28251)"/>
<path fill-rule="evenodd" clip-rule="evenodd" d="M69.7313 94.4489V93.3167H68.5312V95.6489H81.4689V93.3167H80.2689V94.4489H69.7313Z" fill="#333333"/>
<path fill-rule="evenodd" clip-rule="evenodd" d="M72.7883 88.7595C72.326 89.6889 70.7511 90.3732 68.8794 90.3732C66.6446 90.3732 64.833 89.3977 64.833 88.1944C64.833 86.9911 66.6446 86.0156 68.8794 86.0156C70.7714 86.0156 72.3601 86.7148 72.8029 87.6596L77.1943 87.6676C77.6318 86.7188 79.2242 86.0156 81.1215 86.0156C83.3563 86.0156 85.1679 86.9911 85.1679 88.1944C85.1679 89.3977 83.3563 90.3732 81.1215 90.3732C79.2552 90.3732 77.684 89.6929 77.2167 88.7676L72.7883 88.7595Z" fill="#333333"/>
<defs>
<linearGradient id="paint0_linear_740_28251" x1="43.729" y1="25.3609" x2="86.1574" y2="84.4641" gradientUnits="userSpaceOnUse">
<stop offset="0.09375" stop-color="#94FDAB"/>
<stop offset="1" stop-color="#09C4A2"/>
</linearGradient>
<linearGradient id="paint1_linear_740_28251" x1="47.1653" y1="75.9757" x2="68.0636" y2="132.505" gradientUnits="userSpaceOnUse">
<stop offset="0.140625" stop-color="#FBBD90"/>
<stop offset="1" stop-color="#DE7756"/>
</linearGradient>
<linearGradient id="paint2_linear_740_28251" x1="61.3105" y1="65.8474" x2="75.5869" y2="65.8474" gradientUnits="userSpaceOnUse">
<stop offset="0.109375" stop-color="#FFF6A3"/>
<stop offset="1" stop-color="#FF9E58"/>
</linearGradient>
<linearGradient id="paint3_linear_740_28251" x1="67.8623" y1="56.4472" x2="82.1386" y2="56.4472" gradientUnits="userSpaceOnUse">
<stop offset="0.109375" stop-color="#FFF6A3"/>
<stop offset="1" stop-color="#FF9E58"/>
</linearGradient>
<linearGradient id="paint4_linear_740_28251" x1="74.4141" y1="65.8474" x2="88.6904" y2="65.8474" gradientUnits="userSpaceOnUse">
<stop offset="0.109375" stop-color="#FFF6A3"/>
<stop offset="1" stop-color="#FF9E58"/>
</linearGradient>
</defs>
</svg>
