<svg width="80" height="80" viewBox="0 0 80 80" fill="none" xmlns="http://www.w3.org/2000/svg">
<path d="M42.4554 47.7173H37.5459V59.0327H42.4554V47.7173Z" fill="url(#paint0_linear_1577_3003)"/>
<path d="M40.0003 50.2317C48.2703 50.2317 54.9743 43.2631 54.9743 34.6669C54.9743 26.0707 48.2703 19.1021 40.0003 19.1021C31.7304 19.1021 25.0264 26.0707 25.0264 34.6669C25.0264 43.2631 31.7304 50.2317 40.0003 50.2317Z" fill="url(#paint1_linear_1577_3003)"/>
<path fill-rule="evenodd" clip-rule="evenodd" d="M37.2128 26.459L36.1348 26.459L36.1348 27.4487L37.2128 27.4487L37.2128 26.459Z" fill="#333333"/>
<path fill-rule="evenodd" clip-rule="evenodd" d="M43.5683 26.459L42.4902 26.459L42.4902 27.4487L43.5683 27.4487L43.5683 26.459Z" fill="#333333"/>
<path fill-rule="evenodd" clip-rule="evenodd" d="M36.2041 29.7754L36.8347 29.3838L37.3329 30.1863H42.3819L42.8668 29.387L43.5014 29.7721L42.7997 30.9286H36.9201L36.2041 29.7754Z" fill="#333333"/>
<path d="M39.8525 28.2073C40.5359 28.2073 41.0898 27.7922 41.0898 27.2802C41.0898 26.7681 40.5359 26.353 39.8525 26.353C39.1692 26.353 38.6152 26.7681 38.6152 27.2802C38.6152 27.7922 39.1692 28.2073 39.8525 28.2073Z" fill="#FBFBFB"/>
<defs>
<linearGradient id="paint0_linear_1577_3003" x1="37.1102" y1="50.0842" x2="42.6453" y2="58.4066" gradientUnits="userSpaceOnUse">
<stop offset="0.140625" stop-color="#FBBD90"/>
<stop offset="1" stop-color="#DE7756"/>
</linearGradient>
<linearGradient id="paint1_linear_1577_3003" x1="30.7762" y1="21.9776" x2="54.3652" y2="39.629" gradientUnits="userSpaceOnUse">
<stop offset="0.09375" stop-color="#94FDAB"/>
<stop offset="1" stop-color="#09C4A2"/>
</linearGradient>
</defs>
</svg>
