<svg width="150" height="150" viewBox="0 0 150 150" fill="none" xmlns="http://www.w3.org/2000/svg">
<path d="M78.6362 97.2041H71.498V115.75H78.6362V97.2041Z" fill="url(#paint0_linear_1290_48418)"/>
<path d="M75.0002 100.687C92.977 100.687 107.55 85.2548 107.55 66.2184C107.55 47.182 92.977 31.75 75.0002 31.75C57.0233 31.75 42.4502 47.182 42.4502 66.2184C42.4502 85.2548 57.0233 100.687 75.0002 100.687Z" fill="url(#paint1_linear_1290_48418)"/>
<path d="M75.0003 60.5693C76.3553 60.5693 77.4537 59.7611 77.4537 58.764C77.4537 57.767 76.3553 56.9587 75.0003 56.9587C73.6453 56.9587 72.5469 57.767 72.5469 58.764C72.5469 59.7611 73.6453 60.5693 75.0003 60.5693Z" fill="#FBFBFB"/>
<path fill-rule="evenodd" clip-rule="evenodd" d="M69.2917 57.4194H67.6484V59.4712H69.2917V57.4194Z" fill="#333333"/>
<path fill-rule="evenodd" clip-rule="evenodd" d="M82.3523 57.4194H80.709V59.4712H82.3523V57.4194Z" fill="#333333"/>
<path d="M63.2333 48.8422H60.2196L62.349 46.7501L61.3774 45.8012L59.248 47.8933V44.9324H57.8808V47.8933L55.7456 45.8012L54.7798 46.7501L56.9092 48.8422H53.8955V50.1912H56.9092L54.7798 52.2833L55.7456 53.2379L57.8808 51.1458V54.101H59.248V51.1458L61.3774 53.2379L62.349 52.2833L60.2196 50.1912H63.2333V48.8422Z" fill="#FBFBFB"/>
<path fill-rule="evenodd" clip-rule="evenodd" d="M67.7607 63.7331L68.684 63.0667L69.747 64.4882H80.2756L81.3109 63.0716L82.2415 63.7281L80.8634 65.6137H69.1671L67.7607 63.7331Z" fill="#333333"/>
<path fill-rule="evenodd" clip-rule="evenodd" d="M75.5724 62.5679L75.5724 65.073L74.4268 65.073L74.4268 62.5679L75.5724 62.5679Z" fill="#333333"/>
<defs>
<linearGradient id="paint0_linear_1290_48418" x1="70.8646" y1="101.083" x2="80.3072" y2="113.678" gradientUnits="userSpaceOnUse">
<stop offset="0.140625" stop-color="#FBBD90"/>
<stop offset="1" stop-color="#DE7756"/>
</linearGradient>
<linearGradient id="paint1_linear_1290_48418" x1="54.9491" y1="38.1179" x2="106.906" y2="76.2814" gradientUnits="userSpaceOnUse">
<stop offset="0.09375" stop-color="#94FDAB"/>
<stop offset="1" stop-color="#09C4A2"/>
</linearGradient>
</defs>
</svg>
