<svg width="150" height="150" viewBox="0 0 150 150" fill="none" xmlns="http://www.w3.org/2000/svg">
<path d="M79.6038 89.4702H70.3984V110.687H79.6038V89.4702Z" fill="url(#paint0_linear_1290_48495)"/>
<path d="M75 94.1847C90.5061 94.1847 103.076 81.1186 103.076 65.0007C103.076 48.8828 90.5061 35.8167 75 35.8167C59.494 35.8167 46.9238 48.8828 46.9238 65.0007C46.9238 81.1186 59.494 94.1847 75 94.1847Z" fill="url(#paint1_linear_1290_48495)"/>
<path fill-rule="evenodd" clip-rule="evenodd" d="M69.7742 49.6108L67.7529 49.6108L67.7529 51.4666L69.7742 51.4666L69.7742 49.6108Z" fill="#333333"/>
<path fill-rule="evenodd" clip-rule="evenodd" d="M81.6902 49.6108L79.6689 49.6108L79.6689 51.4666L81.6902 51.4666L81.6902 49.6108Z" fill="#333333"/>
<path fill-rule="evenodd" clip-rule="evenodd" d="M67.8818 55.8292L69.0642 55.095L69.9984 56.5997H79.4651L80.3745 55.101L81.5643 55.8231L80.2486 57.9915H69.2244L67.8818 55.8292Z" fill="#333333"/>
<path d="M74.7223 52.8894C76.0035 52.8894 77.0422 52.1111 77.0422 51.151C77.0422 50.1909 76.0035 49.4126 74.7223 49.4126C73.441 49.4126 72.4023 50.1909 72.4023 51.151C72.4023 52.1111 73.441 52.8894 74.7223 52.8894Z" fill="#FBFBFB"/>
<defs>
<linearGradient id="paint0_linear_1290_48495" x1="69.5815" y1="93.9082" x2="79.9599" y2="109.513" gradientUnits="userSpaceOnUse">
<stop offset="0.140625" stop-color="#FBBD90"/>
<stop offset="1" stop-color="#DE7756"/>
</linearGradient>
<linearGradient id="paint1_linear_1290_48495" x1="57.7048" y1="41.2083" x2="101.934" y2="74.3046" gradientUnits="userSpaceOnUse">
<stop offset="0.09375" stop-color="#94FDAB"/>
<stop offset="1" stop-color="#09C4A2"/>
</linearGradient>
</defs>
</svg>
