<svg width="150" height="150" viewBox="0 0 150 150" fill="none" xmlns="http://www.w3.org/2000/svg">
<path d="M76.496 51.6826C76.496 51.6826 81.0918 55.3364 86.7612 55.3364C92.4306 55.3364 97.0287 51.6826 97.0287 51.6826C97.0287 51.6826 92.4306 48.0288 86.7612 48.0288C85.952 48.0315 85.1449 48.1032 84.3508 48.243C85.2501 47.7582 86.0813 47.178 86.8265 46.5152C90.8349 42.9139 91.2085 37.4211 91.2085 37.4211C91.2085 37.4211 85.0822 37.7546 81.0806 41.3558C80.2608 42.1 79.5547 42.9386 78.9807 43.8496C79.0438 43.393 79.0761 42.9334 79.0775 42.4734C79.0707 37.3726 75.0015 33.25 75.0015 33.25C75.0015 33.25 70.9323 37.3726 70.9323 42.4653C70.9337 42.9254 70.9661 43.3849 71.0291 43.8415C70.4537 42.9302 69.7461 42.0916 68.9247 41.3477C64.9186 37.7465 58.7968 37.413 58.7968 37.413C58.7968 37.413 59.1704 42.9139 63.1788 46.5071C63.924 47.17 64.7552 47.7501 65.6545 48.2349C64.8604 48.0952 64.0533 48.0234 63.2441 48.0207C57.5724 48.0207 52.9766 51.6745 52.9766 51.6745C52.9766 51.6745 57.5724 55.3283 63.2441 55.3283C68.9157 55.3283 73.5093 51.6745 73.5093 51.6745" fill="url(#paint0_linear_1290_48517)"/>
<path d="M75.0001 50.8704C81.1788 50.8704 87.1045 53.3474 91.4735 57.7567C95.8425 62.1659 98.297 68.1461 98.297 74.3817V104.25H51.7031V74.3817C51.7031 68.1461 54.1576 62.1659 58.5266 57.7567C62.8957 53.3474 68.8213 50.8704 75.0001 50.8704Z" fill="url(#paint1_linear_1290_48517)"/>
<path fill-rule="evenodd" clip-rule="evenodd" d="M80.5569 74.8432C82.585 74.8432 84.2292 73.9497 84.2292 72.8476C84.2292 71.7454 82.585 70.852 80.5569 70.852C78.835 70.852 77.3899 71.496 76.9927 72.3649L73.0065 72.3575C72.6045 71.4924 71.1627 70.8521 69.4457 70.8521C67.4176 70.8521 65.7734 71.7455 65.7734 72.8476C65.7734 73.9498 67.4176 74.8432 69.4457 74.8432C71.1446 74.8432 72.574 74.2163 72.9934 73.365L77.0129 73.3724C77.437 74.2199 78.863 74.8432 80.5569 74.8432Z" fill="#333333"/>
<path fill-rule="evenodd" clip-rule="evenodd" d="M68.8555 77.8662L69.8323 77.2542L70.6946 78.6557H79.3299L80.1695 77.2592L81.1525 77.8612L79.9771 79.816H70.0551L68.8555 77.8662Z" fill="#333333"/>
<defs>
<linearGradient id="paint0_linear_1290_48517" x1="61.4344" y1="35.2902" x2="77.3224" y2="59.9386" gradientUnits="userSpaceOnUse">
<stop offset="0.09375" stop-color="#94FDAB"/>
<stop offset="1" stop-color="#09C4A2"/>
</linearGradient>
<linearGradient id="paint1_linear_1290_48517" x1="47.568" y1="62.0362" x2="64.4441" y2="113.084" gradientUnits="userSpaceOnUse">
<stop offset="0.140625" stop-color="#FBBD90"/>
<stop offset="1" stop-color="#DE7756"/>
</linearGradient>
</defs>
</svg>
