<svg width="150" height="150" viewBox="0 0 150 150" fill="none" xmlns="http://www.w3.org/2000/svg">
<path d="M111.724 76.2013C111.724 98.2116 74.9995 104.176 74.9995 104.176C74.9995 104.176 38.2754 98.2116 38.2754 76.2013C38.2754 54.1909 74.9995 27.75 74.9995 27.75C74.9995 27.75 111.724 54.195 111.724 76.2013Z" fill="url(#paint0_linear_1290_48429)"/>
<path d="M76.8318 46.1642C77.8446 46.1642 78.6656 45.353 78.6656 44.3522C78.6656 43.3515 77.8446 42.5403 76.8318 42.5403C75.8191 42.5403 74.998 43.3515 74.998 44.3522C74.998 45.353 75.8191 46.1642 76.8318 46.1642Z" fill="url(#paint1_linear_1290_48429)"/>
<path d="M93.0281 67.9708C94.0409 67.9708 94.8619 67.1596 94.8619 66.1589C94.8619 65.1582 94.0409 64.3469 93.0281 64.3469C92.0153 64.3469 91.1943 65.1582 91.1943 66.1589C91.1943 67.1596 92.0153 67.9708 93.0281 67.9708Z" fill="url(#paint2_linear_1290_48429)"/>
<path d="M53.3758 71.5944C54.3885 71.5944 55.2096 70.7831 55.2096 69.7824C55.2096 68.7817 54.3885 67.9705 53.3758 67.9705C52.363 67.9705 51.542 68.7817 51.542 69.7824C51.542 70.7831 52.363 71.5944 53.3758 71.5944Z" fill="url(#paint3_linear_1290_48429)"/>
<path d="M74.9985 71.7231C76.3615 71.7231 77.7112 71.9884 78.9704 72.5038C80.2297 73.0192 81.3739 73.7746 82.3377 74.727C83.3015 75.6793 84.066 76.8098 84.5876 78.0541C85.1092 79.2984 85.3777 80.632 85.3777 81.9788V117.75H64.624L64.624 81.9741C64.6253 79.2558 65.7187 76.6491 67.664 74.727C69.6093 72.8048 72.2474 71.7244 74.9985 71.7231Z" fill="url(#paint4_linear_1290_48429)"/>
<path d="M74.9985 83.5591C76.1557 83.5591 77.0938 82.8639 77.0938 82.0063C77.0938 81.1488 76.1557 80.4536 74.9985 80.4536C73.8414 80.4536 72.9033 81.1488 72.9033 82.0063C72.9033 82.8639 73.8414 83.5591 74.9985 83.5591Z" fill="url(#paint5_linear_1290_48429)"/>
<path d="M63.2533 90.1037C65.6277 90.1037 67.5525 88.2018 67.5525 85.8557C67.5525 83.5096 65.6277 81.6077 63.2533 81.6077C60.8789 81.6077 58.9541 83.5096 58.9541 85.8557C58.9541 88.2018 60.8789 90.1037 63.2533 90.1037Z" fill="url(#paint6_linear_1290_48429)"/>
<path d="M86.8959 90.1037C89.2703 90.1037 91.1951 88.2018 91.1951 85.8557C91.1951 83.5096 89.2703 81.6077 86.8959 81.6077C84.5215 81.6077 82.5967 83.5096 82.5967 85.8557C82.5967 88.2018 84.5215 90.1037 86.8959 90.1037Z" fill="url(#paint7_linear_1290_48429)"/>
<path fill-rule="evenodd" clip-rule="evenodd" d="M71.5615 82.5506L71.5615 81.0532L70.0249 81.0532L70.0249 82.5506L71.5615 82.5506Z" fill="#333333"/>
<path fill-rule="evenodd" clip-rule="evenodd" d="M79.9736 82.5506L79.9736 81.0532L78.4371 81.0532L78.4371 82.5506L79.9736 82.5506Z" fill="#333333"/>
<path fill-rule="evenodd" clip-rule="evenodd" d="M69.4141 85.0871L70.3113 84.5259L71.0909 85.7427H78.9261L79.6851 84.5305L80.5882 85.0825L79.5178 86.792H70.5063L69.4141 85.0871Z" fill="#333333"/>
<path fill-rule="evenodd" clip-rule="evenodd" d="M75.5297 84.2803V86.6993H74.4678V84.2803H75.5297Z" fill="#333333"/>
<defs>
<linearGradient id="paint0_linear_1290_48429" x1="52.3771" y1="34.8098" x2="110.273" y2="78.0874" gradientUnits="userSpaceOnUse">
<stop offset="0.09375" stop-color="#94FDAB"/>
<stop offset="1" stop-color="#09C4A2"/>
</linearGradient>
<linearGradient id="paint1_linear_1290_48429" x1="74.998" y1="44.3522" x2="78.6656" y2="44.3522" gradientUnits="userSpaceOnUse">
<stop offset="0.109375" stop-color="#FFF6A3"/>
<stop offset="1" stop-color="#FF9E58"/>
</linearGradient>
<linearGradient id="paint2_linear_1290_48429" x1="91.1943" y1="66.1589" x2="94.8619" y2="66.1589" gradientUnits="userSpaceOnUse">
<stop offset="0.109375" stop-color="#FFF6A3"/>
<stop offset="1" stop-color="#FF9E58"/>
</linearGradient>
<linearGradient id="paint3_linear_1290_48429" x1="51.542" y1="69.7824" x2="55.2096" y2="69.7824" gradientUnits="userSpaceOnUse">
<stop offset="0.109375" stop-color="#FFF6A3"/>
<stop offset="1" stop-color="#FF9E58"/>
</linearGradient>
<linearGradient id="paint4_linear_1290_48429" x1="62.7822" y1="81.351" x2="84.9508" y2="115.99" gradientUnits="userSpaceOnUse">
<stop offset="0.140625" stop-color="#FBBD90"/>
<stop offset="1" stop-color="#DE7756"/>
</linearGradient>
<linearGradient id="paint5_linear_1290_48429" x1="72.9033" y1="82.0063" x2="77.0938" y2="82.0063" gradientUnits="userSpaceOnUse">
<stop offset="0.109375" stop-color="#FFF6A3"/>
<stop offset="1" stop-color="#FF9E58"/>
</linearGradient>
<linearGradient id="paint6_linear_1290_48429" x1="58.9541" y1="85.8557" x2="67.5525" y2="85.8557" gradientUnits="userSpaceOnUse">
<stop offset="0.109375" stop-color="#FFF6A3"/>
<stop offset="1" stop-color="#FF9E58"/>
</linearGradient>
<linearGradient id="paint7_linear_1290_48429" x1="82.5967" y1="85.8557" x2="91.1951" y2="85.8557" gradientUnits="userSpaceOnUse">
<stop offset="0.109375" stop-color="#FFF6A3"/>
<stop offset="1" stop-color="#FF9E58"/>
</linearGradient>
</defs>
</svg>
