<svg width="150" height="150" viewBox="0 0 150 150" fill="none" xmlns="http://www.w3.org/2000/svg">
<path d="M110 75.744C110 95.5023 75 100.857 75 100.857C75 100.857 40 95.5023 40 75.744C40 55.9856 75 32.25 75 32.25C75 32.25 110 55.9893 110 75.744Z" fill="url(#paint0_linear_1290_48506)"/>
<path d="M75.0007 74.908C76.2997 74.908 77.586 75.1613 78.7862 75.6535C79.9863 76.1458 81.0768 76.8672 81.9953 77.7768C82.9139 78.6863 83.6425 79.766 84.1396 80.9544C84.6367 82.1427 84.8926 83.4164 84.8926 84.7026V112.25H65.1133L65.1133 84.6982C65.1145 82.102 66.1566 79.6125 68.0106 77.7768C69.8645 75.941 72.3788 74.9091 75.0007 74.908Z" fill="url(#paint1_linear_1290_48506)"/>
<path d="M74.9988 86.212C76.1017 86.212 76.9957 85.548 76.9957 84.729C76.9957 83.91 76.1017 83.2461 74.9988 83.2461C73.896 83.2461 73.002 83.91 73.002 84.729C73.002 85.548 73.896 86.212 74.9988 86.212Z" fill="url(#paint2_linear_1290_48506)"/>
<path d="M63.8054 92.4626C66.0683 92.4626 67.9027 90.6462 67.9027 88.4055C67.9027 86.1648 66.0683 84.3484 63.8054 84.3484C61.5425 84.3484 59.708 86.1648 59.708 88.4055C59.708 90.6462 61.5425 92.4626 63.8054 92.4626Z" fill="url(#paint3_linear_1290_48506)"/>
<path d="M86.3376 92.4626C88.6005 92.4626 90.435 90.6462 90.435 88.4055C90.435 86.1648 88.6005 84.3484 86.3376 84.3484C84.0747 84.3484 82.2402 86.1648 82.2402 88.4055C82.2402 90.6462 84.0747 92.4626 86.3376 92.4626Z" fill="url(#paint4_linear_1290_48506)"/>
<path fill-rule="evenodd" clip-rule="evenodd" d="M71.4638 83.761L70.0195 83.761L70.0195 85.3064L71.4638 85.3064L71.4638 83.761Z" fill="#333333"/>
<path fill-rule="evenodd" clip-rule="evenodd" d="M79.9794 83.761L78.5352 83.761L78.5352 85.3064L79.9794 85.3064L79.9794 83.761Z" fill="#333333"/>
<path fill-rule="evenodd" clip-rule="evenodd" d="M69.8037 87.6686L70.722 87.104L71.4268 88.2279H78.5918L79.2777 87.1087L80.2018 87.6639L79.2002 89.2982H70.8256L69.8037 87.6686Z" fill="#333333"/>
<defs>
<linearGradient id="paint0_linear_1290_48506" x1="53.4397" y1="38.5874" x2="106.212" y2="80.4683" gradientUnits="userSpaceOnUse">
<stop offset="0.09375" stop-color="#94FDAB"/>
<stop offset="1" stop-color="#09C4A2"/>
</linearGradient>
<linearGradient id="paint1_linear_1290_48506" x1="63.3579" y1="82.7191" x2="80" y2="113.266" gradientUnits="userSpaceOnUse">
<stop offset="0.140625" stop-color="#FBBD90"/>
<stop offset="1" stop-color="#DE7756"/>
</linearGradient>
<linearGradient id="paint2_linear_1290_48506" x1="73.002" y1="84.729" x2="76.9957" y2="84.729" gradientUnits="userSpaceOnUse">
<stop offset="0.109375" stop-color="#FFF6A3"/>
<stop offset="1" stop-color="#FF9E58"/>
</linearGradient>
<linearGradient id="paint3_linear_1290_48506" x1="59.708" y1="88.4055" x2="67.9027" y2="88.4055" gradientUnits="userSpaceOnUse">
<stop offset="0.109375" stop-color="#FFF6A3"/>
<stop offset="1" stop-color="#FF9E58"/>
</linearGradient>
<linearGradient id="paint4_linear_1290_48506" x1="82.2402" y1="88.4055" x2="90.435" y2="88.4055" gradientUnits="userSpaceOnUse">
<stop offset="0.109375" stop-color="#FFF6A3"/>
<stop offset="1" stop-color="#FF9E58"/>
</linearGradient>
</defs>
</svg>
