<svg width="150" height="150" viewBox="0 0 150 150" fill="none" xmlns="http://www.w3.org/2000/svg">
<path d="M58.0739 40.3226L57.668 41.136L64.1876 44.1267L64.5936 43.3133L58.0739 40.3226Z" fill="url(#paint0_linear_1290_48385)"/>
<path d="M59.8393 41.1321L58.2959 40.423L59.9119 39.8779L59.5998 39.0254L57.9796 39.5746L58.7234 38.0909L57.8727 37.7016L57.1331 39.1812L56.5645 37.636L55.6752 37.9352L56.2438 39.4845L54.7005 38.7754L54.2944 39.5869L55.842 40.296L54.2217 40.8452L54.5338 41.6936L56.1541 41.1485L55.4144 42.6322L56.2609 43.0175L57.0005 41.5379L57.5734 43.0872L58.4584 42.788L57.8898 41.2387L59.4374 41.9477L59.8393 41.1321Z" fill="url(#paint1_linear_1290_48385)"/>
<path d="M73.6848 31.1741L72.7007 30.8532L69.9352 38.567L65.5819 32.6195L64.7306 33.1921L71.3837 42.2715L72.235 41.6989L70.6746 39.5743L73.6848 31.1741Z" fill="url(#paint2_linear_1290_48385)"/>
<path d="M68.3891 32.2669L65.9167 31.854L67.9684 30.4693L67.3707 29.6576L65.3194 31.0378L65.7501 28.6675L64.7264 28.4982L64.2958 30.8684L62.8517 28.897L62.0051 29.47L63.4444 31.4411L60.9723 31.0237L60.7957 32.0051L63.2681 32.418L61.2117 33.8024L61.809 34.6186L63.8654 33.2342L63.43 35.6042L64.4533 35.778L64.884 33.4077L66.3284 35.3747L67.1798 34.802L65.7354 32.8351L68.2078 33.248L68.3891 32.2669Z" fill="url(#paint3_linear_1290_48385)"/>
<path d="M75.7655 31.6477L74.4492 31.2136L75.699 30.6272L75.2446 29.7345L73.99 30.3206L74.4432 29.054L73.4639 28.7335L73.011 29.9955L72.3993 28.7973L71.4635 29.2327L72.0751 30.4309L70.7588 29.9967L70.4241 30.9402L71.7404 31.3743L70.4906 31.9607L70.9451 32.8534L72.1949 32.267L71.7417 33.5335L72.7258 33.8544L73.1786 32.5924L73.7903 33.7906L74.7215 33.3549L74.1098 32.1567L75.4309 32.5912L75.7655 31.6477Z" fill="url(#paint4_linear_1290_48385)"/>
<path d="M93.4147 42.7425L93.7209 41.7262L87.9265 40.1152L90.9627 36.2499L90.0851 35.6146L85.3048 41.6972L83.4956 36.6056L82.4528 36.9455L84.5057 42.7178L82.5254 45.2344L83.4078 45.8713L87.2162 41.0173L93.4147 42.7425Z" fill="url(#paint5_linear_1290_48385)"/>
<path d="M94.673 37.0165L92.5454 35.4798L95.1856 35.1192L95.0308 34.077L92.3921 34.433L93.9967 32.3887L93.1127 31.7564L91.5098 33.7961L91.1384 31.2665L90.0465 31.4134L90.4179 33.9431L88.2903 32.4063L87.626 33.2523L89.7535 34.789L87.1149 35.145L87.2682 36.1919L89.9084 35.8313L88.3039 37.8755L89.1863 38.5124L90.7908 36.4682L91.1622 38.9978L92.2541 38.8509L91.8827 36.3212L94.0103 37.8579L94.673 37.0165Z" fill="url(#paint6_linear_1290_48385)"/>
<path d="M85.164 36.7443L84.2118 36.2927L85.2134 35.9649L84.8589 34.9651L83.8572 35.2929L84.3235 34.3785L83.3333 33.9148L82.8623 34.8277L82.5219 33.8628L81.4791 34.2027L81.8194 35.1676L80.872 34.7175L80.3835 35.6653L81.3357 36.1169L80.3293 36.4431L80.6839 37.4429L81.6903 37.1167L81.2192 38.0296L82.2126 38.4994L82.6789 37.585L83.0208 38.5452L84.0636 38.2053L83.7233 37.2405L84.6755 37.6921L85.164 36.7443Z" fill="url(#paint7_linear_1290_48385)"/>
<path d="M95.7403 43.3866L96.045 42.3749L95.0293 42.0904L95.9565 41.597L95.4276 40.6731L94.4957 41.165L94.794 40.1867L93.734 39.8931L93.4372 40.8668L92.9226 39.9779L91.9589 40.4849L92.472 41.3784L91.4516 41.0924L91.1453 42.1087L92.1657 42.3947L91.2353 42.882L91.7674 43.812L92.6946 43.3186L92.401 44.2984L93.4611 44.592L93.7546 43.6122L94.2677 44.5057L95.2329 43.9941L94.7183 43.1051L95.7403 43.3866Z" fill="url(#paint8_linear_1290_48385)"/>
<path d="M74.9978 40.8811C81.2432 40.8811 87.2382 43.2735 91.6558 47.5059C96.0734 51.7383 98.5573 57.4792 98.5614 63.4666V112.25H51.4395L51.4395 63.4666C51.4395 57.4766 53.9215 51.7319 58.3395 47.4963C62.7576 43.2606 68.7498 40.8811 74.9978 40.8811Z" fill="url(#paint9_linear_1290_48385)"/>
<path fill-rule="evenodd" clip-rule="evenodd" d="M70.3213 57.448H67.9668V56.1594H70.3213V57.448Z" fill="#333333"/>
<path fill-rule="evenodd" clip-rule="evenodd" d="M82.0342 57.448H79.6797V56.1594H82.0342V57.448Z" fill="#333333"/>
<path d="M75.0006 59.2978C76.3713 59.2978 77.4826 58.4988 77.4826 57.5132C77.4826 56.5275 76.3713 55.7285 75.0006 55.7285C73.6298 55.7285 72.5186 56.5275 72.5186 57.5132C72.5186 58.4988 73.6298 59.2978 75.0006 59.2978Z" fill="url(#paint10_linear_1290_48385)"/>
<path fill-rule="evenodd" clip-rule="evenodd" d="M75.5448 61.6897V60.2751H74.4579V61.6897H70.5421L69.6486 60.4847L68.7627 61.0885L69.9812 62.7318H80.0501L81.2443 61.0839L80.3516 60.4893L79.4817 61.6897H75.5448Z" fill="#333333"/>
<defs>
<linearGradient id="paint0_linear_1290_48385" x1="58.9957" y1="41.8338" x2="61.3196" y2="39.7885" gradientUnits="userSpaceOnUse">
<stop offset="0.140625" stop-color="#FBBD90"/>
<stop offset="1" stop-color="#DE7756"/>
</linearGradient>
<linearGradient id="paint1_linear_1290_48385" x1="55.3142" y1="38.1395" x2="59.528" y2="41.5608" gradientUnits="userSpaceOnUse">
<stop offset="0.09375" stop-color="#94FDAB"/>
<stop offset="1" stop-color="#09C4A2"/>
</linearGradient>
<linearGradient id="paint2_linear_1290_48385" x1="63.9878" y1="32.6685" x2="67.2642" y2="43.5597" gradientUnits="userSpaceOnUse">
<stop offset="0.140625" stop-color="#FBBD90"/>
<stop offset="1" stop-color="#DE7756"/>
</linearGradient>
<linearGradient id="paint3_linear_1290_48385" x1="62.478" y1="29.0196" x2="67.7501" y2="33.9588" gradientUnits="userSpaceOnUse">
<stop offset="0.09375" stop-color="#94FDAB"/>
<stop offset="1" stop-color="#09C4A2"/>
</linearGradient>
<linearGradient id="paint4_linear_1290_48385" x1="71.5968" y1="29.0843" x2="75.3322" y2="32.5838" gradientUnits="userSpaceOnUse">
<stop offset="0.09375" stop-color="#94FDAB"/>
<stop offset="1" stop-color="#09C4A2"/>
</linearGradient>
<linearGradient id="paint5_linear_1290_48385" x1="81.7862" y1="35.5514" x2="81.3003" y2="47.5283" gradientUnits="userSpaceOnUse">
<stop offset="0.140625" stop-color="#FBBD90"/>
<stop offset="1" stop-color="#DE7756"/>
</linearGradient>
<linearGradient id="paint6_linear_1290_48385" x1="89.8564" y1="31.4546" x2="93.8738" y2="37.7459" gradientUnits="userSpaceOnUse">
<stop offset="0.09375" stop-color="#94FDAB"/>
<stop offset="1" stop-color="#09C4A2"/>
</linearGradient>
<linearGradient id="paint7_linear_1290_48385" x1="81.9752" y1="33.9368" x2="84.4537" y2="37.8182" gradientUnits="userSpaceOnUse">
<stop offset="0.09375" stop-color="#94FDAB"/>
<stop offset="1" stop-color="#09C4A2"/>
</linearGradient>
<linearGradient id="paint8_linear_1290_48385" x1="92.808" y1="40.0018" x2="95.2535" y2="43.8314" gradientUnits="userSpaceOnUse">
<stop offset="0.09375" stop-color="#94FDAB"/>
<stop offset="1" stop-color="#09C4A2"/>
</linearGradient>
<linearGradient id="paint9_linear_1290_48385" x1="47.2575" y1="55.8099" x2="75.0402" y2="119.378" gradientUnits="userSpaceOnUse">
<stop offset="0.140625" stop-color="#FBBD90"/>
<stop offset="1" stop-color="#DE7756"/>
</linearGradient>
<linearGradient id="paint10_linear_1290_48385" x1="73.4716" y1="56.0582" x2="76.2821" y2="59.0985" gradientUnits="userSpaceOnUse">
<stop offset="0.09375" stop-color="#94FDAB"/>
<stop offset="1" stop-color="#09C4A2"/>
</linearGradient>
</defs>
</svg>
