<svg width="150" height="150" viewBox="0 0 150 150" fill="none" xmlns="http://www.w3.org/2000/svg">
<path d="M82.1342 42.6274L81.7074 41.5569L75.6211 43.7963L75.6099 38.5515L74.4221 38.5524L74.4378 46.8073L69.4192 43.5396L68.7519 44.4872L74.443 48.1905L74.4474 51.6074L75.6403 51.6049L75.6223 45.0214L82.1342 42.6274Z" fill="url(#paint0_linear_1290_48462)"/>
<path d="M74.998 49.5952C81.5364 49.5952 87.8128 52.1088 92.4377 56.5556C97.0626 61.0024 99.6631 67.0342 99.6674 73.325V106.25H50.334L50.334 73.325C50.334 67.0315 52.9325 60.9957 57.5579 56.5455C62.1833 52.0953 68.4567 49.5952 74.998 49.5952Z" fill="url(#paint1_linear_1290_48462)"/>
<path fill-rule="evenodd" clip-rule="evenodd" d="M69.0566 70.6379L70.0844 70.0239L70.8965 71.2822H79.1253L79.9157 70.029L80.95 70.6328L79.8063 72.4462H70.2236L69.0566 70.6379Z" fill="#333333"/>
<path fill-rule="evenodd" clip-rule="evenodd" d="M70.1027 67.0021H67.6377V65.6482H70.1027V67.0021Z" fill="#333333"/>
<path fill-rule="evenodd" clip-rule="evenodd" d="M82.3644 67.0021H79.8994V65.6482H82.3644V67.0021Z" fill="#333333"/>
<path d="M79.3282 36.8879L76.4512 36.893L78.4805 34.9263L77.6388 34.1224L75.6077 36.0841L75.6007 33.3111L74.4095 33.3185L74.4148 36.0867L72.3758 34.1325L71.5351 34.944L73.5741 36.8981L70.697 36.9032L70.6996 38.051L73.5767 38.0459L71.5457 40.0076L72.3891 40.8165L74.4184 38.8498L74.4254 41.6229L75.6184 41.6203L75.6113 38.8473L77.6503 40.8014L78.491 39.9899L76.4521 38.0358L79.3291 38.0307L79.3282 36.8879Z" fill="url(#paint2_linear_1290_48462)"/>
<path d="M69.719 41.807L68.5919 42.0135L69.232 41.1022L68.2471 40.4602L67.607 41.3714L67.3873 40.2886L66.2191 40.5084L66.4337 41.5929L65.4849 40.9721L64.8176 41.9196L65.7664 42.5404L64.6444 42.7452L64.8677 43.8708L65.9948 43.6643L65.3496 44.5772L66.3345 45.2193L66.9797 44.3064L67.1943 45.3908L68.3693 45.1743L68.1496 44.0915L69.0967 44.7074L69.764 43.7598L68.8152 43.139L69.9423 42.9325L69.719 41.807Z" fill="url(#paint3_linear_1290_48462)"/>
<path d="M85.1782 41.5073L84.7532 40.4418L83.6849 40.8325L84.1484 39.8247L83.0649 39.3575L82.5964 40.367L82.1885 39.3343L81.0759 39.7449L81.482 40.7727L80.4345 40.3268L79.949 41.3692L80.9981 41.82L79.9248 42.2124L80.3516 43.2829L81.4249 42.8905L80.9546 43.895L82.0449 44.3655L82.5084 43.3577L82.9213 44.3887L84.034 43.9781L83.621 42.9471L84.6702 43.3979L85.154 42.3505L84.1066 41.9047L85.1782 41.5073Z" fill="url(#paint4_linear_1290_48462)"/>
<path d="M75.0008 68.9449C76.4359 68.9449 77.5993 68.1054 77.5993 67.0699C77.5993 66.0343 76.4359 65.1948 75.0008 65.1948C73.5657 65.1948 72.4023 66.0343 72.4023 67.0699C72.4023 68.1054 73.5657 68.9449 75.0008 68.9449Z" fill="url(#paint5_linear_1290_48462)"/>
<defs>
<linearGradient id="paint0_linear_1290_48462" x1="67.2302" y1="43.6998" x2="74.5172" y2="54.6471" gradientUnits="userSpaceOnUse">
<stop offset="0.140625" stop-color="#FBBD90"/>
<stop offset="1" stop-color="#DE7756"/>
</linearGradient>
<linearGradient id="paint1_linear_1290_48462" x1="45.9557" y1="61.4461" x2="63.902" y2="115.6" gradientUnits="userSpaceOnUse">
<stop offset="0.140625" stop-color="#FBBD90"/>
<stop offset="1" stop-color="#DE7756"/>
</linearGradient>
<linearGradient id="paint2_linear_1290_48462" x1="71.3994" y1="35.0987" x2="79.1724" y2="37.9174" gradientUnits="userSpaceOnUse">
<stop offset="0.09375" stop-color="#94FDAB"/>
<stop offset="1" stop-color="#09C4A2"/>
</linearGradient>
<linearGradient id="paint3_linear_1290_48462" x1="65.0642" y1="41.3788" x2="69.8597" y2="43.1177" gradientUnits="userSpaceOnUse">
<stop offset="0.09375" stop-color="#94FDAB"/>
<stop offset="1" stop-color="#09C4A2"/>
</linearGradient>
<linearGradient id="paint4_linear_1290_48462" x1="80.3521" y1="40.4192" x2="85.0837" y2="42.135" gradientUnits="userSpaceOnUse">
<stop offset="0.09375" stop-color="#94FDAB"/>
<stop offset="1" stop-color="#09C4A2"/>
</linearGradient>
<linearGradient id="paint5_linear_1290_48462" x1="73.4001" y1="65.5412" x2="76.3538" y2="68.7251" gradientUnits="userSpaceOnUse">
<stop offset="0.09375" stop-color="#94FDAB"/>
<stop offset="1" stop-color="#09C4A2"/>
</linearGradient>
</defs>
</svg>
