<svg width="150" height="150" viewBox="0 0 150 150" fill="none" xmlns="http://www.w3.org/2000/svg">
<path d="M77.1278 52.1026C77.1278 52.1026 83.677 57.1281 91.756 57.1281C99.835 57.1281 106.387 52.1026 106.387 52.1026C106.387 52.1026 99.835 47.0771 91.756 47.0771C90.6028 47.0808 89.4527 47.1795 88.321 47.3717C89.6026 46.7048 90.787 45.9069 91.849 44.9952C97.561 40.042 98.0934 32.4871 98.0934 32.4871C98.0934 32.4871 89.3634 32.9457 83.6609 37.8989C82.4928 38.9225 81.4865 40.0759 80.6686 41.3289C80.7585 40.7009 80.8045 40.0688 80.8065 39.436C80.7969 32.4204 74.9982 26.75 74.9982 26.75C74.9982 26.75 69.1996 32.4204 69.1996 39.4249C69.2015 40.0577 69.2476 40.6898 69.3375 41.3178C68.5175 40.0644 67.5091 38.911 66.3387 37.8878C60.6298 32.9346 51.9062 32.4759 51.9062 32.4759C51.9062 32.4759 52.4386 40.042 58.1507 44.9841C59.2126 45.8958 60.3971 46.6937 61.6786 47.3606C60.547 47.1684 59.3968 47.0697 58.2437 47.066C50.1615 47.066 43.6123 52.0915 43.6123 52.0915C43.6123 52.0915 50.1615 57.117 58.2437 57.117C66.3259 57.117 72.8718 52.0915 72.8718 52.0915" fill="url(#paint0_linear_1290_48440)"/>
<path d="M74.9968 50.1333C81.3946 50.1333 87.5303 52.6089 92.0542 57.0156C96.5781 61.4222 99.1196 67.3989 99.1196 73.6308V107.75H50.874V73.6308C50.874 67.3989 53.4155 61.4222 57.9394 57.0156C62.4633 52.6089 68.5991 50.1333 74.9968 50.1333Z" fill="url(#paint1_linear_1290_48440)"/>
<path d="M74.9999 57.9828C78.5417 57.9828 81.4129 55.186 81.4129 51.736C81.4129 48.286 78.5417 45.4893 74.9999 45.4893C71.4581 45.4893 68.5869 48.286 68.5869 51.736C68.5869 55.186 71.4581 57.9828 74.9999 57.9828Z" fill="url(#paint2_linear_1290_48440)"/>
<path fill-rule="evenodd" clip-rule="evenodd" d="M72.7398 73.7929C72.268 74.7166 70.661 75.3968 68.7511 75.3968C66.4707 75.3968 64.6221 74.4272 64.6221 73.2311C64.6221 72.035 66.4707 71.0654 68.7511 71.0654C70.6818 71.0654 72.303 71.7605 72.7548 72.6995L77.2359 72.7075C77.6823 71.7644 79.3072 71.0654 81.2434 71.0654C83.5238 71.0654 85.3724 72.035 85.3724 73.2311C85.3724 74.4272 83.5238 75.3968 81.2434 75.3968C79.339 75.3968 77.7358 74.7206 77.2588 73.8009L72.7398 73.7929Z" fill="#333333"/>
<path fill-rule="evenodd" clip-rule="evenodd" d="M68.0244 78.485L68.9023 77.7925L69.9236 79.0209H80.0983L81.0925 77.7973L81.9783 78.4802L80.6449 80.1213H69.3848L68.0244 78.485Z" fill="#333333"/>
<defs>
<linearGradient id="paint0_linear_1290_48440" x1="55.6648" y1="29.5561" x2="77.1891" y2="64.1527" gradientUnits="userSpaceOnUse">
<stop offset="0.09375" stop-color="#94FDAB"/>
<stop offset="1" stop-color="#09C4A2"/>
</linearGradient>
<linearGradient id="paint1_linear_1290_48440" x1="46.5923" y1="62.1854" x2="65.42" y2="116.819" gradientUnits="userSpaceOnUse">
<stop offset="0.140625" stop-color="#FBBD90"/>
<stop offset="1" stop-color="#DE7756"/>
</linearGradient>
<linearGradient id="paint2_linear_1290_48440" x1="68.5869" y1="51.736" x2="81.4129" y2="51.736" gradientUnits="userSpaceOnUse">
<stop offset="0.109375" stop-color="#FFF6A3"/>
<stop offset="1" stop-color="#FF9E58"/>
</linearGradient>
</defs>
</svg>
