<svg width="150" height="150" viewBox="0 0 150 150" fill="none" xmlns="http://www.w3.org/2000/svg">
<path d="M114.4 74.4349C114.4 101.41 75.3202 108.72 75.3202 108.72C75.3202 108.72 36.2402 101.41 36.2402 74.4349C36.2402 47.4599 75.3202 15.0549 75.3202 15.0549C75.3202 15.0549 114.4 47.4649 114.4 74.4349Z" fill="url(#paint0_linear_740_28254)"/>
<path d="M35.84 103.115C46.315 107.86 56.34 100.435 56.34 100.435C56.34 100.435 55.31 88.005 44.84 83.265C34.37 78.525 21.375 84.605 21.375 84.605C21.375 84.605 25.36 98.375 35.84 103.115Z" fill="url(#paint1_linear_740_28254)"/>
<path d="M51.2092 98.5043L51.2422 98.4315C51.3402 98.2149 51.4798 98.0198 51.6533 97.8572C51.8267 97.6947 52.0304 97.5678 52.2528 97.484C52.4753 97.4002 52.712 97.361 52.9496 97.3687C53.1871 97.3763 53.4209 97.4307 53.6374 97.5287L67.8133 103.944L66.2877 107.315L52.1119 100.9C51.6745 100.702 51.3337 100.338 51.1644 99.8889C50.9952 99.4397 51.0112 98.9417 51.2092 98.5043V98.5043Z" fill="url(#paint2_linear_740_28254)"/>
<path d="M114.619 103.115C104.144 107.86 94.119 100.435 94.119 100.435C94.119 100.435 95.149 88.005 105.619 83.265C116.089 78.525 129.084 84.605 129.084 84.605C129.084 84.605 125.099 98.375 114.619 103.115Z" fill="url(#paint3_linear_740_28254)"/>
<path d="M99.2488 98.5043L99.2159 98.4315C99.1178 98.2149 98.9782 98.0198 98.8047 97.8572C98.6313 97.6947 98.4276 97.5678 98.2052 97.484C97.9828 97.4002 97.746 97.361 97.5084 97.3687C97.2709 97.3763 97.0371 97.4307 96.8206 97.5287L82.6447 103.944L84.1703 107.315L98.3461 100.9C98.7835 100.702 99.1243 100.338 99.2936 99.8889C99.4629 99.4397 99.4468 98.9417 99.2488 98.5043V98.5043Z" fill="url(#paint4_linear_740_28254)"/>
<path d="M75.3203 78.3501C76.7707 78.3501 78.207 78.6358 79.547 79.1908C80.8871 79.7459 82.1047 80.5595 83.1303 81.5851C84.1559 82.6107 84.9695 83.8283 85.5245 85.1684C86.0796 86.5084 86.3653 87.9446 86.3653 89.3951V130.65H64.2803V89.3901C64.2816 86.4625 65.4452 83.6552 67.5153 81.5851C69.5854 79.515 72.3927 78.3514 75.3203 78.3501V78.3501Z" fill="url(#paint5_linear_740_28254)"/>
<path d="M75.3195 91.2876C76.5509 91.2876 77.5491 90.5389 77.5491 89.6154C77.5491 88.6918 76.5509 87.9431 75.3195 87.9431C74.0881 87.9431 73.0898 88.6918 73.0898 89.6154C73.0898 90.5389 74.0881 91.2876 75.3195 91.2876Z" fill="url(#paint6_linear_740_28254)"/>
<path fill-rule="evenodd" clip-rule="evenodd" d="M69.9447 93.4763V92.6282H68.8447V94.5763H81.8014V92.6282H80.7014V93.4763H69.9447Z" fill="#333333"/>
<path d="M62.8201 97.2032C65.3468 97.2032 67.3951 95.1549 67.3951 92.6282C67.3951 90.1015 65.3468 88.0532 62.8201 88.0532C60.2934 88.0532 58.2451 90.1015 58.2451 92.6282C58.2451 95.1549 60.2934 97.2032 62.8201 97.2032Z" fill="url(#paint7_linear_740_28254)"/>
<path d="M87.9803 97.2032C90.507 97.2032 92.5553 95.1549 92.5553 92.6282C92.5553 90.1015 90.507 88.0532 87.9803 88.0532C85.4536 88.0532 83.4053 90.1015 83.4053 92.6282C83.4053 95.1549 85.4536 97.2032 87.9803 97.2032Z" fill="url(#paint8_linear_740_28254)"/>
<path d="M95.9201 52.3399C96.9363 52.3399 97.7601 51.5161 97.7601 50.4999C97.7601 49.4837 96.9363 48.6599 95.9201 48.6599C94.9039 48.6599 94.0801 49.4837 94.0801 50.4999C94.0801 51.5161 94.9039 52.3399 95.9201 52.3399Z" fill="url(#paint9_linear_740_28254)"/>
<path d="M78.3703 30.4251C79.3865 30.4251 80.2103 29.6013 80.2103 28.5851C80.2103 27.5689 79.3865 26.7451 78.3703 26.7451C77.3541 26.7451 76.5303 27.5689 76.5303 28.5851C76.5303 29.6013 77.3541 30.4251 78.3703 30.4251Z" fill="url(#paint10_linear_740_28254)"/>
<path d="M99.5998 77.5899C100.616 77.5899 101.44 76.7661 101.44 75.7499C101.44 74.7337 100.616 73.9099 99.5998 73.9099C98.5836 73.9099 97.7598 74.7337 97.7598 75.7499C97.7598 76.7661 98.5836 77.5899 99.5998 77.5899Z" fill="url(#paint11_linear_740_28254)"/>
<path d="M58.175 44.3851C59.1912 44.3851 60.015 43.5613 60.015 42.5451C60.015 41.5289 59.1912 40.7051 58.175 40.7051C57.1588 40.7051 56.335 41.5289 56.335 42.5451C56.335 43.5613 57.1588 44.3851 58.175 44.3851Z" fill="url(#paint12_linear_740_28254)"/>
<path d="M49.0099 78.3499C50.0261 78.3499 50.8499 77.5261 50.8499 76.5099C50.8499 75.4937 50.0261 74.6699 49.0099 74.6699C47.9937 74.6699 47.1699 75.4937 47.1699 76.5099C47.1699 77.5261 47.9937 78.3499 49.0099 78.3499Z" fill="url(#paint13_linear_740_28254)"/>
<path d="M73.5597 65.6651C74.5759 65.6651 75.3997 64.8413 75.3997 63.8251C75.3997 62.8089 74.5759 61.9851 73.5597 61.9851C72.5435 61.9851 71.7197 62.8089 71.7197 63.8251C71.7197 64.8413 72.5435 65.6651 73.5597 65.6651Z" fill="url(#paint14_linear_740_28254)"/>
<path fill-rule="evenodd" clip-rule="evenodd" d="M69.3125 87.7581L71.5544 88.6715L71.6002 88.7018C71.681 88.7554 71.7478 88.8284 71.7942 88.9148C71.8404 89.0009 71.8644 89.0969 71.8644 89.1942C71.8644 89.2914 71.8405 89.3875 71.7942 89.4737C71.7478 89.56 71.681 89.633 71.6002 89.6867L71.5527 89.7181L69.3087 90.6132L68.9012 89.5915L69.9098 89.1892L68.8975 88.7768L69.3125 87.7581Z" fill="#333333"/>
<path fill-rule="evenodd" clip-rule="evenodd" d="M81.3281 87.7581L79.0862 88.6715L79.0405 88.7018C78.9596 88.7554 78.8928 88.8284 78.8464 88.9148C78.8002 89.0009 78.7762 89.0969 78.7762 89.1942C78.7762 89.2914 78.8002 89.3875 78.8464 89.4737C78.8928 89.56 78.9596 89.633 79.0405 89.6867L79.0879 89.7181L81.3319 90.6132L81.7394 89.5915L80.7309 89.1892L81.7432 88.7768L81.3281 87.7581Z" fill="#333333"/>
<defs>
<linearGradient id="paint0_linear_740_28254" x1="51.2466" y1="23.7071" x2="118.817" y2="67.564" gradientUnits="userSpaceOnUse">
<stop offset="0.09375" stop-color="#94FDAB"/>
<stop offset="1" stop-color="#09C4A2"/>
</linearGradient>
<linearGradient id="paint1_linear_740_28254" x1="28.0881" y1="83.6042" x2="46.2215" y2="104.823" gradientUnits="userSpaceOnUse">
<stop offset="0.09375" stop-color="#94FDAB"/>
<stop offset="1" stop-color="#09C4A2"/>
</linearGradient>
<linearGradient id="paint2_linear_740_28254" x1="53.6377" y1="101.951" x2="63.1889" y2="96.609" gradientUnits="userSpaceOnUse">
<stop offset="0.140625" stop-color="#FBBD90"/>
<stop offset="1" stop-color="#DE7756"/>
</linearGradient>
<linearGradient id="paint3_linear_740_28254" x1="122.371" y1="83.6042" x2="104.237" y2="104.823" gradientUnits="userSpaceOnUse">
<stop offset="0.09375" stop-color="#94FDAB"/>
<stop offset="1" stop-color="#09C4A2"/>
</linearGradient>
<linearGradient id="paint4_linear_740_28254" x1="96.8203" y1="101.951" x2="87.2692" y2="96.609" gradientUnits="userSpaceOnUse">
<stop offset="0.140625" stop-color="#FBBD90"/>
<stop offset="1" stop-color="#DE7756"/>
</linearGradient>
<linearGradient id="paint5_linear_740_28254" x1="62.3203" y1="89.2901" x2="88.1653" y2="127.11" gradientUnits="userSpaceOnUse">
<stop offset="0.140625" stop-color="#FBBD90"/>
<stop offset="1" stop-color="#DE7756"/>
</linearGradient>
<linearGradient id="paint6_linear_740_28254" x1="73.0898" y1="89.6154" x2="77.5491" y2="89.6154" gradientUnits="userSpaceOnUse">
<stop offset="0.109375" stop-color="#FFF6A3"/>
<stop offset="1" stop-color="#FF9E58"/>
</linearGradient>
<linearGradient id="paint7_linear_740_28254" x1="58.2451" y1="92.6282" x2="67.3951" y2="92.6282" gradientUnits="userSpaceOnUse">
<stop offset="0.109375" stop-color="#FFF6A3"/>
<stop offset="1" stop-color="#FF9E58"/>
</linearGradient>
<linearGradient id="paint8_linear_740_28254" x1="83.4053" y1="92.6282" x2="92.5553" y2="92.6282" gradientUnits="userSpaceOnUse">
<stop offset="0.109375" stop-color="#FFF6A3"/>
<stop offset="1" stop-color="#FF9E58"/>
</linearGradient>
<linearGradient id="paint9_linear_740_28254" x1="94.0801" y1="50.4999" x2="97.7601" y2="50.4999" gradientUnits="userSpaceOnUse">
<stop offset="0.109375" stop-color="#FFF6A3"/>
<stop offset="1" stop-color="#FF9E58"/>
</linearGradient>
<linearGradient id="paint10_linear_740_28254" x1="76.5303" y1="28.5851" x2="80.2103" y2="28.5851" gradientUnits="userSpaceOnUse">
<stop offset="0.109375" stop-color="#FFF6A3"/>
<stop offset="1" stop-color="#FF9E58"/>
</linearGradient>
<linearGradient id="paint11_linear_740_28254" x1="97.7598" y1="75.7499" x2="101.44" y2="75.7499" gradientUnits="userSpaceOnUse">
<stop offset="0.109375" stop-color="#FFF6A3"/>
<stop offset="1" stop-color="#FF9E58"/>
</linearGradient>
<linearGradient id="paint12_linear_740_28254" x1="56.335" y1="42.5451" x2="60.015" y2="42.5451" gradientUnits="userSpaceOnUse">
<stop offset="0.109375" stop-color="#FFF6A3"/>
<stop offset="1" stop-color="#FF9E58"/>
</linearGradient>
<linearGradient id="paint13_linear_740_28254" x1="47.1699" y1="76.5099" x2="50.8499" y2="76.5099" gradientUnits="userSpaceOnUse">
<stop offset="0.109375" stop-color="#FFF6A3"/>
<stop offset="1" stop-color="#FF9E58"/>
</linearGradient>
<linearGradient id="paint14_linear_740_28254" x1="71.7197" y1="63.8251" x2="75.3997" y2="63.8251" gradientUnits="userSpaceOnUse">
<stop offset="0.109375" stop-color="#FFF6A3"/>
<stop offset="1" stop-color="#FF9E58"/>
</linearGradient>
</defs>
</svg>
