<svg width="106" height="110" viewBox="0 0 106 110" fill="none" xmlns="http://www.w3.org/2000/svg">
<path fill-rule="evenodd" clip-rule="evenodd" d="M37.1377 44.5129H60.4943V60.0444L81.5674 60.0444C82.672 60.0444 83.5674 59.149 83.5674 58.0444V52.6748H89.1361V60.0444H89.1514C89.1514 63.1199 86.6582 65.6131 83.5827 65.6131L60.4943 65.6131V109.65H37.1377V79.6656L18.7563 79.6656C16.0416 79.6656 13.8408 77.4649 13.8408 74.7501H13.8543V68.2449H18.7698V72.7501C18.7698 73.8547 19.6653 74.7501 20.7698 74.7501H37.1377V44.5129Z" fill="url(#paint0_linear_740_28482)"/>
<path d="M16.595 52.6748C25.475 52.6748 32.675 59.6448 32.675 68.2448H0.5C0.5 59.6448 7.72 52.6748 16.595 52.6748Z" fill="url(#paint1_radial_740_28482)"/>
<path d="M48.8151 0.865234C23.0051 0.865234 2.08008 21.1252 2.08008 46.1203H95.5451C95.5451 21.1252 74.6201 0.865234 48.8151 0.865234Z" fill="url(#paint2_radial_740_28482)"/>
<path d="M48.8152 56.2204C49.9828 56.2204 50.9293 55.5105 50.9293 54.6349C50.9293 53.7592 49.9828 53.0493 48.8152 53.0493C47.6477 53.0493 46.7012 53.7592 46.7012 54.6349C46.7012 55.5105 47.6477 56.2204 48.8152 56.2204Z" fill="url(#paint3_linear_740_28482)"/>
<path fill-rule="evenodd" clip-rule="evenodd" d="M43.0498 54.954V53.2329H44.8498V54.954H43.0498Z" fill="#333333"/>
<path fill-rule="evenodd" clip-rule="evenodd" d="M52.7744 54.954V53.2329H54.5744V54.954H52.7744Z" fill="#333333"/>
<path fill-rule="evenodd" clip-rule="evenodd" d="M43.9486 59.178V58.4255H42.8486V60.278H54.7775V58.4255H53.6775V59.178H43.9486Z" fill="#333333"/>
<path d="M85.8887 34.145C74.8537 34.145 65.8887 42.81 65.8887 53.5H105.889C105.889 42.81 96.9187 34.145 85.8887 34.145Z" fill="url(#paint4_radial_740_28482)"/>
<defs>
<linearGradient id="paint0_linear_740_28482" x1="7.15716" y1="58.1382" x2="23.3923" y2="123.186" gradientUnits="userSpaceOnUse">
<stop offset="0.140625" stop-color="#FBBD90"/>
<stop offset="1" stop-color="#DE7756"/>
</linearGradient>
<radialGradient id="paint1_radial_740_28482" cx="0" cy="0" r="1" gradientUnits="userSpaceOnUse" gradientTransform="translate(15.23 68.0898) rotate(180) scale(17.61)">
<stop stop-color="#00CD9C"/>
<stop offset="0.473958" stop-color="#50EAA0"/>
<stop offset="1" stop-color="#A3F2B4"/>
</radialGradient>
<radialGradient id="paint2_radial_740_28482" cx="0" cy="0" r="1" gradientUnits="userSpaceOnUse" gradientTransform="translate(44.8692 45.6697) rotate(180) scale(51.1552 51.1844)">
<stop stop-color="#00CD9C"/>
<stop offset="0.473958" stop-color="#50EAA0"/>
<stop offset="1" stop-color="#A3F2B4"/>
</radialGradient>
<linearGradient id="paint3_linear_740_28482" x1="47.954" y1="53.4859" x2="48.5461" y2="56.2147" gradientUnits="userSpaceOnUse">
<stop stop-color="#9AFFB0"/>
<stop offset="1" stop-color="#00BD90"/>
</linearGradient>
<radialGradient id="paint4_radial_740_28482" cx="0" cy="0" r="1" gradientUnits="userSpaceOnUse" gradientTransform="translate(84.201 53.3073) rotate(180) scale(21.8928 21.8909)">
<stop stop-color="#00CD9C"/>
<stop offset="0.473958" stop-color="#50EAA0"/>
<stop offset="1" stop-color="#A3F2B4"/>
</radialGradient>
</defs>
</svg>
