<svg width="57" height="76" viewBox="0 0 57 76" fill="none" xmlns="http://www.w3.org/2000/svg">
<path d="M33.1038 54.4702H23.8984V75.6866H33.1038V54.4702Z" fill="url(#paint0_linear_1290_52421)"/>
<path d="M28.5 59.1847C44.0061 59.1847 56.5763 46.1186 56.5763 30.0007C56.5763 13.8828 44.0061 0.81665 28.5 0.81665C12.994 0.81665 0.423828 13.8828 0.423828 30.0007C0.423828 46.1186 12.994 59.1847 28.5 59.1847Z" fill="url(#paint1_linear_1290_52421)"/>
<path fill-rule="evenodd" clip-rule="evenodd" d="M23.2742 14.6108L21.2529 14.6108L21.2529 16.4666L23.2742 16.4666L23.2742 14.6108Z" fill="#333333"/>
<path fill-rule="evenodd" clip-rule="evenodd" d="M35.1902 14.6108L33.1689 14.6108L33.1689 16.4666L35.1902 16.4666L35.1902 14.6108Z" fill="#333333"/>
<path fill-rule="evenodd" clip-rule="evenodd" d="M21.3818 20.8292L22.5642 20.095L23.4984 21.5997H32.9651L33.8745 20.101L35.0643 20.8231L33.7486 22.9915H22.7244L21.3818 20.8292Z" fill="#333333"/>
<path d="M28.2223 17.8894C29.5035 17.8894 30.5422 17.1111 30.5422 16.151C30.5422 15.1909 29.5035 14.4126 28.2223 14.4126C26.941 14.4126 25.9023 15.1909 25.9023 16.151C25.9023 17.1111 26.941 17.8894 28.2223 17.8894Z" fill="#FBFBFB"/>
<defs>
<linearGradient id="paint0_linear_1290_52421" x1="23.0815" y1="58.9082" x2="33.4599" y2="74.5126" gradientUnits="userSpaceOnUse">
<stop offset="0.140625" stop-color="#FBBD90"/>
<stop offset="1" stop-color="#DE7756"/>
</linearGradient>
<linearGradient id="paint1_linear_1290_52421" x1="11.2048" y1="6.20832" x2="55.4341" y2="39.3046" gradientUnits="userSpaceOnUse">
<stop offset="0.09375" stop-color="#94FDAB"/>
<stop offset="1" stop-color="#09C497"/>
</linearGradient>
</defs>
</svg>
