<svg width="248" height="248" viewBox="0 0 248 248" fill="none" xmlns="http://www.w3.org/2000/svg">
<g clip-path="url(#clip0_1290_27730)">
<rect width="248" height="248" fill="white"/>
<path d="M152.121 79.8483C152.121 79.8483 163.802 81.6269 169.909 75.5193C176.017 69.4118 174.238 57.7308 174.238 57.7308C174.238 57.7308 162.557 55.9521 156.45 62.0597C150.342 68.1673 152.121 79.8483 152.121 79.8483Z" fill="url(#paint0_linear_1290_27730)"/>
<path d="M148.851 83.0483L162.907 68.9922" stroke="#333333" stroke-width="0.488551"/>
<path d="M156.914 74.8416L163.866 73.6602" stroke="#333333" stroke-width="0.488551"/>
<path d="M165.501 117.901C165.501 146.494 124.337 154.243 124.337 154.243C124.337 154.243 83.1729 146.494 83.1729 117.901C83.1729 89.3073 124.337 54.958 124.337 54.958C124.337 54.958 165.501 89.3126 165.501 117.901Z" fill="url(#paint1_linear_1290_27730)"/>
<path d="M82.7514 148.302C93.785 153.332 104.345 145.461 104.345 145.461C104.345 145.461 103.26 132.285 92.2314 127.261C81.203 122.237 67.5149 128.681 67.5149 128.681C67.5149 128.681 71.7124 143.278 82.7514 148.302Z" fill="url(#paint2_linear_1290_27730)"/>
<path d="M98.9401 143.415L98.9749 143.338C99.0781 143.108 99.2252 142.902 99.4079 142.729C99.5906 142.557 99.8052 142.422 100.039 142.334C100.274 142.245 100.523 142.203 100.773 142.211C101.024 142.219 101.27 142.277 101.498 142.381L116.43 149.181L114.823 152.755L99.891 145.954C99.4303 145.744 99.0713 145.359 98.893 144.883C98.7147 144.407 98.7317 143.879 98.9401 143.415V143.415Z" fill="url(#paint3_linear_1290_27730)"/>
<path d="M165.732 148.302C154.698 153.332 144.139 145.461 144.139 145.461C144.139 145.461 145.224 132.285 156.252 127.261C167.28 122.237 180.969 128.681 180.969 128.681C180.969 128.681 176.771 143.278 165.732 148.302Z" fill="url(#paint4_linear_1290_27730)"/>
<path d="M149.542 143.415L149.507 143.338C149.404 143.108 149.257 142.902 149.074 142.729C148.892 142.557 148.677 142.422 148.443 142.334C148.208 142.245 147.959 142.203 147.709 142.211C147.459 142.219 147.212 142.277 146.984 142.381L132.052 149.181L133.659 152.755L148.591 145.954C149.052 145.744 149.411 145.359 149.589 144.883C149.767 144.407 149.751 143.879 149.542 143.415V143.415Z" fill="url(#paint5_linear_1290_27730)"/>
<path d="M124.337 122.051C125.865 122.051 127.378 122.354 128.789 122.942C130.201 123.53 131.484 124.393 132.564 125.48C133.644 126.567 134.501 127.858 135.086 129.278C135.67 130.699 135.971 132.221 135.971 133.758V177.489H112.708V133.753C112.71 130.65 113.936 127.674 116.116 125.48C118.297 123.286 121.254 122.052 124.337 122.051V122.051Z" fill="url(#paint6_linear_1290_27730)"/>
<path d="M124.336 135.765C125.633 135.765 126.685 134.971 126.685 133.992C126.685 133.013 125.633 132.22 124.336 132.22C123.039 132.22 121.988 133.013 121.988 133.992C121.988 134.971 123.039 135.765 124.336 135.765Z" fill="url(#paint7_linear_1290_27730)"/>
<path fill-rule="evenodd" clip-rule="evenodd" d="M118.675 138.085V137.186H117.516V139.251H131.164V137.186H130.005V138.085H118.675Z" fill="#333333"/>
<path d="M111.17 142.036C113.832 142.036 115.989 139.865 115.989 137.186C115.989 134.508 113.832 132.337 111.17 132.337C108.509 132.337 106.351 134.508 106.351 137.186C106.351 139.865 108.509 142.036 111.17 142.036Z" fill="url(#paint8_linear_1290_27730)"/>
<path d="M137.673 142.036C140.334 142.036 142.492 139.865 142.492 137.186C142.492 134.508 140.334 132.337 137.673 132.337C135.011 132.337 132.854 134.508 132.854 137.186C132.854 139.865 135.011 142.036 137.673 142.036Z" fill="url(#paint9_linear_1290_27730)"/>
<path d="M146.036 94.4799C147.106 94.4799 147.974 93.6067 147.974 92.5295C147.974 91.4523 147.106 90.5791 146.036 90.5791C144.965 90.5791 144.098 91.4523 144.098 92.5295C144.098 93.6067 144.965 94.4799 146.036 94.4799Z" fill="url(#paint10_linear_1290_27730)"/>
<path d="M127.55 71.2504C128.62 71.2504 129.488 70.3772 129.488 69.3C129.488 68.2228 128.62 67.3496 127.55 67.3496C126.479 67.3496 125.612 68.2228 125.612 69.3C125.612 70.3772 126.479 71.2504 127.55 71.2504Z" fill="url(#paint11_linear_1290_27730)"/>
<path d="M149.912 121.246C150.982 121.246 151.85 120.372 151.85 119.295C151.85 118.218 150.982 117.345 149.912 117.345C148.841 117.345 147.973 118.218 147.973 119.295C147.973 120.372 148.841 121.246 149.912 121.246Z" fill="url(#paint12_linear_1290_27730)"/>
<path d="M106.277 86.0483C107.348 86.0483 108.216 85.175 108.216 84.0979C108.216 83.0207 107.348 82.1475 106.277 82.1475C105.207 82.1475 104.339 83.0207 104.339 84.0979C104.339 85.175 105.207 86.0483 106.277 86.0483Z" fill="url(#paint13_linear_1290_27730)"/>
<path d="M96.6237 122.051C97.6941 122.051 98.5618 121.178 98.5618 120.101C98.5618 119.024 97.6941 118.15 96.6237 118.15C95.5533 118.15 94.6855 119.024 94.6855 120.101C94.6855 121.178 95.5533 122.051 96.6237 122.051Z" fill="url(#paint14_linear_1290_27730)"/>
<path d="M122.483 108.605C123.553 108.605 124.421 107.732 124.421 106.654C124.421 105.577 123.553 104.704 122.483 104.704C121.412 104.704 120.545 105.577 120.545 106.654C120.545 107.732 121.412 108.605 122.483 108.605Z" fill="url(#paint15_linear_1290_27730)"/>
<path fill-rule="evenodd" clip-rule="evenodd" d="M118.009 132.023L120.37 132.992L120.419 133.024C120.504 133.081 120.574 133.158 120.623 133.25C120.672 133.341 120.697 133.443 120.697 133.546C120.697 133.649 120.672 133.751 120.623 133.842C120.574 133.934 120.504 134.011 120.419 134.068L120.369 134.101L118.005 135.05L117.576 133.967L118.638 133.54L117.572 133.103L118.009 132.023Z" fill="#333333"/>
<path fill-rule="evenodd" clip-rule="evenodd" d="M130.665 132.023L128.304 132.992L128.256 133.024C128.171 133.081 128.1 133.158 128.051 133.25C128.003 133.341 127.977 133.443 127.977 133.546C127.977 133.649 128.003 133.751 128.051 133.842C128.1 133.934 128.171 134.011 128.256 134.068L128.306 134.101L130.669 135.05L131.099 133.967L130.036 133.54L131.103 133.103L130.665 132.023Z" fill="#333333"/>
<circle cx="123.991" cy="24.5868" r="20.7645" fill="url(#paint16_linear_1290_27730)"/>
<mask id="mask0_1290_27730" style="mask-type:alpha" maskUnits="userSpaceOnUse" x="103" y="3" width="42" height="43">
<circle cx="123.991" cy="24.5868" r="20.7645" fill="white"/>
</mask>
<g mask="url(#mask0_1290_27730)">
<circle cx="123.991" cy="24.5865" r="16.2223" fill="url(#paint17_linear_1290_27730)" stroke="white" stroke-opacity="0.793105" stroke-width="0.90025"/>
</g>
<g filter="url(#filter0_d_1290_27730)">
<path fill-rule="evenodd" clip-rule="evenodd" d="M129.212 16.1514C128.156 16.1514 127.296 17.0083 127.296 18.0615V25.3827L121.104 17.2798C120.665 16.7165 120.124 16.1955 119.147 16.1955H118.792C117.705 16.1955 116.853 17.0444 116.853 18.1281V30.463C116.853 31.5165 117.713 32.3736 118.769 32.3736C119.826 32.3736 120.686 31.5165 120.686 30.463V22.8312L127.121 31.2452C127.561 31.808 128.102 32.3291 129.079 32.3291H129.19C130.277 32.3291 131.129 31.4804 131.129 30.3967V18.0615C131.129 17.0083 130.269 16.1514 129.212 16.1514" fill="white"/>
</g>
<path opacity="0.550409" fill-rule="evenodd" clip-rule="evenodd" d="M159.508 17.876C158.269 16.4742 157.394 14.9391 156.986 13.6045C156.578 14.9409 155.704 16.4784 154.465 17.882C153.231 19.28 151.879 20.2688 150.702 20.7334C151.879 21.1972 153.231 22.1849 154.465 23.5835C155.704 24.987 156.578 26.5243 156.986 27.861C157.394 26.5264 158.269 24.9912 159.508 23.5892C160.752 22.1825 162.115 21.1917 163.297 20.7326C162.115 20.2735 160.752 19.2826 159.508 17.876Z" fill="#FFE000"/>
<path opacity="0.348331" fill-rule="evenodd" clip-rule="evenodd" d="M103.085 2.82517C102.24 1.89807 101.644 0.882702 101.366 0C101.088 0.883916 100.491 1.90084 99.6467 2.82915C98.805 3.75382 97.8833 4.40779 97.0808 4.71508C97.8832 5.02186 98.8049 5.67513 99.6467 6.60015C100.491 7.52846 101.088 8.54521 101.366 9.4293C101.644 8.5466 102.24 7.53123 103.085 6.60396C103.933 5.67357 104.863 5.01822 105.669 4.71456C104.863 4.41091 103.933 3.75556 103.085 2.82517Z" fill="#FFE000"/>
<path d="M195.536 122.472H234.666" stroke="#AEE6FF" stroke-width="1.2"/>
<path d="M215.1 102.906L215.1 142.036" stroke="#AEE6FF" stroke-width="1.2"/>
<path d="M206.123 113.492L224.081 131.45" stroke="#AEE6FF" stroke-width="1.2"/>
<path d="M224.078 113.492L206.121 131.45" stroke="#AEE6FF" stroke-width="1.2"/>
<path d="M37.1624 165.225H64.8144" stroke="#AEE6FF" stroke-width="1.2"/>
<path d="M50.9875 151.399L50.9875 179.051" stroke="#AEE6FF" stroke-width="1.2"/>
<path d="M44.6445 158.881L57.3346 171.571" stroke="#AEE6FF" stroke-width="1.2"/>
<path d="M57.3318 158.881L44.6417 171.571" stroke="#AEE6FF" stroke-width="1.2"/>
<path d="M79.6265 34.373H98.1099" stroke="#FFE55E"/>
<path d="M88.8679 25.1318L88.8679 43.6152" stroke="#FFE55E"/>
<path d="M84.6279 30.1318L93.1103 38.6143" stroke="#FFE55E"/>
<path d="M93.1091 30.1318L84.6267 38.6143" stroke="#FFE55E"/>
<path d="M224.54 38.9903C224.51 36.9722 224.873 35.112 225.479 33.7502C224.202 34.5221 222.4 35.1166 220.393 35.34C218.393 35.5622 216.586 35.3723 215.292 34.8904C215.931 36.1139 216.346 37.8826 216.374 39.8948C216.402 41.9139 216.037 43.7758 215.43 45.1394C216.706 44.3688 218.506 43.7762 220.513 43.5546C222.526 43.3322 224.344 43.5285 225.639 44.0192C224.991 42.795 224.57 41.0155 224.54 38.9903" stroke="#A0A0A0"/>
<path d="M210.649 50.2338L175.56 86.8486" stroke="#A0A0A0" stroke-width="0.8"/>
<path d="M39.7778 54.6719L74.3516 85.2445" stroke="#A0A0A0" stroke-dasharray="2 2"/>
<circle cx="31.7952" cy="47.8628" r="4.42493" transform="rotate(4.78655 31.7952 47.8628)" stroke="#A0A0A0"/>
<circle cx="39.9411" cy="88.3049" r="3.74276" transform="rotate(-68.2298 39.9411 88.3049)" fill="#C5C5C5"/>
<path d="M46.9714 91.1118L67.3232 99.5075" stroke="#A0A0A0" stroke-width="0.8"/>
<path d="M124 436.228C149.777 436.228 174.976 428.493 196.409 414C217.842 399.507 234.547 378.908 244.412 354.808C254.276 330.707 256.857 304.188 251.828 278.603C246.799 253.018 234.386 229.516 216.159 211.07C197.932 192.625 174.709 180.063 149.427 174.974C124.145 169.885 97.939 172.497 74.1238 182.479C50.3086 192.462 29.9534 209.367 15.6323 231.057C1.31111 252.747 -6.33276 278.248 -6.33276 304.334C-6.33276 339.314 7.39868 372.862 31.8408 397.597C56.2829 422.332 89.4336 436.228 124 436.228Z" fill="url(#paint18_linear_1290_27730)"/>
<path fill-rule="evenodd" clip-rule="evenodd" d="M152.82 175.704C151.694 175.446 150.563 175.202 149.429 174.974C124.146 169.885 97.9409 172.497 74.1257 182.479C50.3106 192.462 29.9554 209.367 15.6342 231.057C15.0539 231.936 14.4846 232.821 13.9263 233.713C20.59 240.01 33.6507 236.186 42.2694 230.838C46.6365 228.129 50.7148 224.873 54.848 221.573C66.3727 212.373 78.3244 202.832 98.1553 203.838C123.085 205.103 145.596 199.078 152.82 175.704Z" fill="url(#paint19_linear_1290_27730)"/>
<path d="M124 223.119C128.004 223.119 131.243 220.664 131.243 217.622C131.243 214.58 128.004 212.137 124 212.137C119.996 212.137 116.758 214.591 116.758 217.622C116.758 220.652 120.008 223.119 124 223.119Z" fill="url(#paint20_linear_1290_27730)"/>
<path d="M103.638 214.778V219.457" stroke="#333333" stroke-width="3" stroke-miterlimit="10"/>
<path d="M144.362 214.778V219.457" stroke="#333333" stroke-width="3" stroke-miterlimit="10"/>
<path d="M149.027 229.013V233.211H98.9736V229.013" stroke="#333333" stroke-width="1.8" stroke-miterlimit="10"/>
</g>
<defs>
<filter id="filter0_d_1290_27730" x="114.257" y="13.5558" width="19.4668" height="21.4138" filterUnits="userSpaceOnUse" color-interpolation-filters="sRGB">
<feFlood flood-opacity="0" result="BackgroundImageFix"/>
<feColorMatrix in="SourceAlpha" type="matrix" values="0 0 0 0 0 0 0 0 0 0 0 0 0 0 0 0 0 0 127 0" result="hardAlpha"/>
<feOffset/>
<feGaussianBlur stdDeviation="1.29778"/>
<feColorMatrix type="matrix" values="0 0 0 0 0.791667 0 0 0 0 0.3325 0 0 0 0 0 0 0 0 0.3 0"/>
<feBlend mode="normal" in2="BackgroundImageFix" result="effect1_dropShadow_1290_27730"/>
<feBlend mode="normal" in="SourceGraphic" in2="effect1_dropShadow_1290_27730" result="shape"/>
</filter>
<linearGradient id="paint0_linear_1290_27730" x1="168.05" y1="55.6282" x2="175.165" y2="75.5342" gradientUnits="userSpaceOnUse">
<stop offset="0.09375" stop-color="#8DF1A9"/>
<stop offset="1" stop-color="#3AD8C5"/>
</linearGradient>
<linearGradient id="paint1_linear_1290_27730" x1="98.9795" y1="64.1293" x2="170.419" y2="110.206" gradientUnits="userSpaceOnUse">
<stop offset="0.09375" stop-color="#94FDAB"/>
<stop offset="1" stop-color="#09C497"/>
</linearGradient>
<linearGradient id="paint2_linear_1290_27730" x1="74.586" y1="127.621" x2="93.826" y2="149.992" gradientUnits="userSpaceOnUse">
<stop offset="0.09375" stop-color="#94FDAB"/>
<stop offset="1" stop-color="#09C497"/>
</linearGradient>
<linearGradient id="paint3_linear_1290_27730" x1="101.498" y1="147.068" x2="111.589" y2="141.46" gradientUnits="userSpaceOnUse">
<stop offset="0.140625" stop-color="#FBBD90"/>
<stop offset="1" stop-color="#DE7756"/>
</linearGradient>
<linearGradient id="paint4_linear_1290_27730" x1="173.897" y1="127.621" x2="154.657" y2="149.992" gradientUnits="userSpaceOnUse">
<stop offset="0.09375" stop-color="#94FDAB"/>
<stop offset="1" stop-color="#09C497"/>
</linearGradient>
<linearGradient id="paint5_linear_1290_27730" x1="146.984" y1="147.068" x2="136.893" y2="141.46" gradientUnits="userSpaceOnUse">
<stop offset="0.140625" stop-color="#FBBD90"/>
<stop offset="1" stop-color="#DE7756"/>
</linearGradient>
<linearGradient id="paint6_linear_1290_27730" x1="110.644" y1="133.647" x2="138.102" y2="173.575" gradientUnits="userSpaceOnUse">
<stop offset="0.140625" stop-color="#FBBD90"/>
<stop offset="1" stop-color="#DE7756"/>
</linearGradient>
<linearGradient id="paint7_linear_1290_27730" x1="121.988" y1="133.992" x2="126.685" y2="133.992" gradientUnits="userSpaceOnUse">
<stop offset="0.109375" stop-color="#FFF6A3"/>
<stop offset="1" stop-color="#FF9E58"/>
</linearGradient>
<linearGradient id="paint8_linear_1290_27730" x1="106.351" y1="137.186" x2="115.989" y2="137.186" gradientUnits="userSpaceOnUse">
<stop offset="0.109375" stop-color="#FFF6A3"/>
<stop offset="1" stop-color="#FF9E58"/>
</linearGradient>
<linearGradient id="paint9_linear_1290_27730" x1="132.854" y1="137.186" x2="142.492" y2="137.186" gradientUnits="userSpaceOnUse">
<stop offset="0.109375" stop-color="#FFF6A3"/>
<stop offset="1" stop-color="#FF9E58"/>
</linearGradient>
<linearGradient id="paint10_linear_1290_27730" x1="144.098" y1="92.5295" x2="147.974" y2="92.5295" gradientUnits="userSpaceOnUse">
<stop offset="0.109375" stop-color="#FFF6A3"/>
<stop offset="1" stop-color="#FF9E58"/>
</linearGradient>
<linearGradient id="paint11_linear_1290_27730" x1="125.612" y1="69.3" x2="129.488" y2="69.3" gradientUnits="userSpaceOnUse">
<stop offset="0.109375" stop-color="#FFF6A3"/>
<stop offset="1" stop-color="#FF9E58"/>
</linearGradient>
<linearGradient id="paint12_linear_1290_27730" x1="147.973" y1="119.295" x2="151.85" y2="119.295" gradientUnits="userSpaceOnUse">
<stop offset="0.109375" stop-color="#FFF6A3"/>
<stop offset="1" stop-color="#FF9E58"/>
</linearGradient>
<linearGradient id="paint13_linear_1290_27730" x1="104.339" y1="84.0979" x2="108.216" y2="84.0979" gradientUnits="userSpaceOnUse">
<stop offset="0.109375" stop-color="#FFF6A3"/>
<stop offset="1" stop-color="#FF9E58"/>
</linearGradient>
<linearGradient id="paint14_linear_1290_27730" x1="94.6855" y1="120.101" x2="98.5618" y2="120.101" gradientUnits="userSpaceOnUse">
<stop offset="0.109375" stop-color="#FFF6A3"/>
<stop offset="1" stop-color="#FF9E58"/>
</linearGradient>
<linearGradient id="paint15_linear_1290_27730" x1="120.545" y1="106.654" x2="124.421" y2="106.654" gradientUnits="userSpaceOnUse">
<stop offset="0.109375" stop-color="#FFF6A3"/>
<stop offset="1" stop-color="#FF9E58"/>
</linearGradient>
<linearGradient id="paint16_linear_1290_27730" x1="103.226" y1="3.82227" x2="103.226" y2="45.3513" gradientUnits="userSpaceOnUse">
<stop stop-color="#FFED69"/>
<stop offset="1" stop-color="#FFD623"/>
</linearGradient>
<linearGradient id="paint17_linear_1290_27730" x1="107.769" y1="8.36426" x2="107.769" y2="40.8088" gradientUnits="userSpaceOnUse">
<stop stop-color="#FFF852"/>
<stop offset="1" stop-color="#FFE921"/>
</linearGradient>
<linearGradient id="paint18_linear_1290_27730" x1="56.061" y1="185.436" x2="178.23" y2="341.023" gradientUnits="userSpaceOnUse">
<stop offset="0.286458" stop-color="#74DEFF"/>
<stop offset="1" stop-color="#2990FF"/>
</linearGradient>
<linearGradient id="paint19_linear_1290_27730" x1="64.584" y1="188.348" x2="88.8856" y2="240.602" gradientUnits="userSpaceOnUse">
<stop offset="0.00520833" stop-color="#9FFFD1"/>
<stop offset="1" stop-color="#12CBB5"/>
</linearGradient>
<linearGradient id="paint20_linear_1290_27730" x1="119.539" y1="213.151" x2="128.21" y2="222.047" gradientUnits="userSpaceOnUse">
<stop offset="0.00520833" stop-color="#9FFFD1"/>
<stop offset="1" stop-color="#12CBB5"/>
</linearGradient>
<clipPath id="clip0_1290_27730">
<rect width="248" height="248" fill="white"/>
</clipPath>
</defs>
</svg>
