<svg width="248" height="248" viewBox="0 0 248 248" fill="none" xmlns="http://www.w3.org/2000/svg">
<g clip-path="url(#clip0_1290_27485)">
<rect width="248" height="248" fill="white"/>
<path d="M170.787 166.096C170.787 166.096 182.468 167.875 188.575 161.767C194.683 155.66 192.904 143.979 192.904 143.979C192.904 143.979 181.223 142.2 175.116 148.308C169.008 154.415 170.787 166.096 170.787 166.096Z" fill="url(#paint0_linear_1290_27485)"/>
<path d="M167.517 169.296L181.573 155.24" stroke="#333333" stroke-width="0.488551"/>
<path d="M175.58 161.09L182.532 159.908" stroke="#333333" stroke-width="0.488551"/>
<path d="M127.983 110.831C127.983 110.831 140.23 121.674 155.338 121.674C170.445 121.674 182.698 110.831 182.698 110.831C182.698 110.831 170.445 99.9871 155.338 99.9871C153.181 99.9951 151.03 100.208 148.914 100.623C151.311 99.1838 153.526 97.4622 155.512 95.4949C166.193 84.8073 167.189 68.5059 167.189 68.5059C167.189 68.5059 150.863 69.4955 140.2 80.1831C138.015 82.3917 136.134 84.8804 134.604 87.5841C134.772 86.2291 134.858 84.8652 134.862 83.4998C134.844 68.362 124 56.127 124 56.127C124 56.127 113.157 68.362 113.157 83.4758C113.161 84.8412 113.247 86.2051 113.415 87.5601C111.881 84.8557 109.996 82.3669 107.807 80.1592C97.1314 69.4715 80.818 68.4819 80.818 68.4819C80.818 68.4819 81.8136 84.8073 92.4953 95.4709C94.4811 97.4382 96.6961 99.1598 99.0926 100.599C96.9764 100.184 94.8256 99.9711 92.6692 99.9631C77.5554 99.9631 65.3083 110.807 65.3083 110.807C65.3083 110.807 77.5554 121.65 92.6692 121.65C107.783 121.65 120.024 110.807 120.024 110.807" fill="url(#paint1_linear_1290_27485)"/>
<path d="M124.002 106.051C131.25 106.051 138.202 108.93 143.327 114.056C148.453 119.181 151.332 126.133 151.332 133.382V176.078H96.6707V133.382C96.6707 126.133 99.5501 119.181 104.676 114.056C109.801 108.93 116.753 106.051 124.002 106.051Z" fill="url(#paint2_linear_1290_27485)"/>
<path d="M116.426 117.243C120.984 117.243 124.679 113.548 124.679 108.99C124.679 104.432 120.984 100.737 116.426 100.737C111.868 100.737 108.173 104.432 108.173 108.99C108.173 113.548 111.868 117.243 116.426 117.243Z" fill="url(#paint3_linear_1290_27485)"/>
<path d="M124 106.373C128.558 106.373 132.253 102.679 132.253 98.1208C132.253 93.563 128.558 89.8682 124 89.8682C119.443 89.8682 115.748 93.563 115.748 98.1208C115.748 102.679 119.443 106.373 124 106.373Z" fill="url(#paint4_linear_1290_27485)"/>
<path d="M131.575 117.243C136.133 117.243 139.828 113.548 139.828 108.99C139.828 104.432 136.133 100.737 131.575 100.737C127.017 100.737 123.323 104.432 123.323 108.99C123.323 113.548 127.017 117.243 131.575 117.243Z" fill="url(#paint5_linear_1290_27485)"/>
<path fill-rule="evenodd" clip-rule="evenodd" d="M117.909 142.056V140.747H116.521V143.443H131.479V140.747H130.092V142.056H117.909Z" fill="#333333"/>
<path fill-rule="evenodd" clip-rule="evenodd" d="M121.443 135.479C120.908 136.554 119.087 137.345 116.924 137.345C114.34 137.345 112.246 136.217 112.246 134.826C112.246 133.434 114.34 132.307 116.924 132.307C119.111 132.307 120.948 133.115 121.46 134.208L126.537 134.217C127.043 133.12 128.884 132.307 131.077 132.307C133.661 132.307 135.755 133.434 135.755 134.826C135.755 136.217 133.661 137.345 131.077 137.345C128.92 137.345 127.104 136.558 126.563 135.489L121.443 135.479Z" fill="#333333"/>
<circle cx="123.991" cy="24.5868" r="20.7645" fill="url(#paint6_linear_1290_27485)"/>
<mask id="mask0_1290_27485" style="mask-type:alpha" maskUnits="userSpaceOnUse" x="103" y="3" width="42" height="43">
<circle cx="123.991" cy="24.5868" r="20.7645" fill="white"/>
</mask>
<g mask="url(#mask0_1290_27485)">
<circle cx="123.991" cy="24.5865" r="16.2223" fill="url(#paint7_linear_1290_27485)" stroke="white" stroke-opacity="0.793105" stroke-width="0.90025"/>
</g>
<g filter="url(#filter0_d_1290_27485)">
<path fill-rule="evenodd" clip-rule="evenodd" d="M129.212 16.1514C128.156 16.1514 127.296 17.0083 127.296 18.0615V25.3827L121.104 17.2798C120.665 16.7165 120.124 16.1955 119.147 16.1955H118.792C117.705 16.1955 116.853 17.0444 116.853 18.1281V30.463C116.853 31.5165 117.713 32.3736 118.769 32.3736C119.826 32.3736 120.686 31.5165 120.686 30.463V22.8312L127.121 31.2452C127.561 31.808 128.102 32.3291 129.079 32.3291H129.19C130.277 32.3291 131.129 31.4804 131.129 30.3967V18.0615C131.129 17.0083 130.269 16.1514 129.212 16.1514" fill="white"/>
</g>
<path opacity="0.550409" fill-rule="evenodd" clip-rule="evenodd" d="M159.508 17.876C158.269 16.4742 157.394 14.9391 156.986 13.6045C156.578 14.9409 155.704 16.4784 154.465 17.882C153.231 19.28 151.879 20.2688 150.702 20.7334C151.879 21.1972 153.231 22.1849 154.465 23.5835C155.704 24.987 156.578 26.5243 156.986 27.861C157.394 26.5264 158.269 24.9912 159.508 23.5892C160.752 22.1825 162.115 21.1917 163.297 20.7326C162.115 20.2735 160.752 19.2826 159.508 17.876Z" fill="#FFE000"/>
<path opacity="0.348331" fill-rule="evenodd" clip-rule="evenodd" d="M103.085 2.82517C102.24 1.89807 101.644 0.882702 101.366 0C101.088 0.883916 100.491 1.90084 99.6467 2.82915C98.805 3.75382 97.8833 4.40779 97.0808 4.71508C97.8832 5.02186 98.8049 5.67513 99.6467 6.60015C100.491 7.52846 101.088 8.54521 101.366 9.4293C101.644 8.5466 102.24 7.53123 103.085 6.60396C103.933 5.67357 104.863 5.01822 105.669 4.71456C104.863 4.41091 103.933 3.75556 103.085 2.82517Z" fill="#FFE000"/>
<path d="M194.863 117.684H233.993" stroke="#AEE6FF" stroke-width="1.2"/>
<path d="M214.427 98.1182L214.427 137.248" stroke="#AEE6FF" stroke-width="1.2"/>
<path d="M205.45 108.704L223.408 126.662" stroke="#AEE6FF" stroke-width="1.2"/>
<path d="M223.405 108.704L205.448 126.662" stroke="#AEE6FF" stroke-width="1.2"/>
<path d="M42.1624 162.225H69.8144" stroke="#AEE6FF" stroke-width="1.2"/>
<path d="M55.9875 148.399L55.9875 176.051" stroke="#AEE6FF" stroke-width="1.2"/>
<path d="M49.6445 155.881L62.3346 168.571" stroke="#AEE6FF" stroke-width="1.2"/>
<path d="M62.3318 155.881L49.6417 168.571" stroke="#AEE6FF" stroke-width="1.2"/>
<path d="M79.6265 34.373H98.1099" stroke="#FFE55E"/>
<path d="M88.8679 25.1318L88.8679 43.6152" stroke="#FFE55E"/>
<path d="M84.6279 30.1318L93.1103 38.6143" stroke="#FFE55E"/>
<path d="M93.1091 30.1318L84.6267 38.6143" stroke="#FFE55E"/>
<path d="M218.431 34.788C218.189 32.7841 218.356 30.896 218.816 29.4783C217.627 30.3797 215.897 31.1597 213.924 31.5921C211.959 32.0225 210.142 32.0231 208.804 31.6794C209.568 32.8291 210.166 34.5447 210.405 36.5428C210.644 38.5479 210.476 40.4378 210.015 41.8575C211.203 40.9575 212.932 40.1795 214.904 39.7489C216.883 39.3169 218.711 39.3217 220.051 39.674C219.278 38.5244 218.673 36.7988 218.431 34.788" stroke="#A0A0A0"/>
<path d="M205.794 47.4246L174.733 87.5137" stroke="#A0A0A0" stroke-width="0.8"/>
<path d="M39.7778 53.2832L74.3516 83.8558" stroke="#A0A0A0" stroke-dasharray="2 2"/>
<circle cx="31.7952" cy="46.4741" r="4.42493" transform="rotate(4.78655 31.7952 46.4741)" stroke="#A0A0A0"/>
<circle cx="39.9411" cy="86.9152" r="3.74276" transform="rotate(-68.2298 39.9411 86.9152)" fill="#C5C5C5"/>
<path d="M46.9714 89.7222L67.3232 98.1178" stroke="#A0A0A0" stroke-width="0.8"/>
<path d="M124 436.228C149.778 436.228 174.976 428.493 196.409 414C217.842 399.507 234.547 378.908 244.412 354.808C254.276 330.707 256.857 304.188 251.829 278.603C246.8 253.018 234.387 229.516 216.159 211.07C197.932 192.625 174.709 180.063 149.427 174.974C124.145 169.885 97.9392 172.497 74.124 182.479C50.3088 192.462 29.9536 209.367 15.6325 231.057C1.31136 252.747 -6.33252 278.248 -6.33252 304.334C-6.33252 339.314 7.39892 372.862 31.841 397.597C56.2832 422.332 89.4338 436.228 124 436.228Z" fill="url(#paint8_linear_1290_27485)"/>
<path fill-rule="evenodd" clip-rule="evenodd" d="M152.82 175.704C151.694 175.446 150.563 175.202 149.429 174.974C124.147 169.885 97.9412 172.497 74.126 182.479C50.3108 192.462 29.9556 209.367 15.6345 231.057C15.0542 231.936 14.4848 232.821 13.9265 233.713C20.5902 240.01 33.6509 236.186 42.2697 230.838C46.6368 228.129 50.7151 224.873 54.8483 221.573C66.3729 212.373 78.3247 202.832 98.1555 203.838C123.085 205.103 145.596 199.078 152.82 175.704Z" fill="url(#paint9_linear_1290_27485)"/>
<path d="M124.001 223.119C128.005 223.119 131.243 220.664 131.243 217.622C131.243 214.58 128.005 212.137 124.001 212.137C119.996 212.137 116.758 214.591 116.758 217.622C116.758 220.652 120.008 223.119 124.001 223.119Z" fill="url(#paint10_linear_1290_27485)"/>
<path d="M103.638 214.778V219.457" stroke="#333333" stroke-width="3" stroke-miterlimit="10"/>
<path d="M144.362 214.778V219.457" stroke="#333333" stroke-width="3" stroke-miterlimit="10"/>
<path d="M149.027 229.013V233.211H98.9739V229.013" stroke="#333333" stroke-width="1.8" stroke-miterlimit="10"/>
</g>
<defs>
<filter id="filter0_d_1290_27485" x="114.257" y="13.5558" width="19.4668" height="21.4138" filterUnits="userSpaceOnUse" color-interpolation-filters="sRGB">
<feFlood flood-opacity="0" result="BackgroundImageFix"/>
<feColorMatrix in="SourceAlpha" type="matrix" values="0 0 0 0 0 0 0 0 0 0 0 0 0 0 0 0 0 0 127 0" result="hardAlpha"/>
<feOffset/>
<feGaussianBlur stdDeviation="1.29778"/>
<feColorMatrix type="matrix" values="0 0 0 0 0.791667 0 0 0 0 0.3325 0 0 0 0 0 0 0 0 0.3 0"/>
<feBlend mode="normal" in2="BackgroundImageFix" result="effect1_dropShadow_1290_27485"/>
<feBlend mode="normal" in="SourceGraphic" in2="effect1_dropShadow_1290_27485" result="shape"/>
</filter>
<linearGradient id="paint0_linear_1290_27485" x1="186.715" y1="141.876" x2="193.831" y2="161.782" gradientUnits="userSpaceOnUse">
<stop offset="0.09375" stop-color="#8DF1A9"/>
<stop offset="1" stop-color="#3AD8C5"/>
</linearGradient>
<linearGradient id="paint1_linear_1290_27485" x1="87.8467" y1="62.1818" x2="136.899" y2="130.513" gradientUnits="userSpaceOnUse">
<stop offset="0.09375" stop-color="#94FDAB"/>
<stop offset="1" stop-color="#09C497"/>
</linearGradient>
<linearGradient id="paint2_linear_1290_27485" x1="91.8195" y1="120.699" x2="115.981" y2="186.054" gradientUnits="userSpaceOnUse">
<stop offset="0.140625" stop-color="#FBBD90"/>
<stop offset="1" stop-color="#DE7756"/>
</linearGradient>
<linearGradient id="paint3_linear_1290_27485" x1="108.173" y1="108.99" x2="124.679" y2="108.99" gradientUnits="userSpaceOnUse">
<stop offset="0.109375" stop-color="#FFF6A3"/>
<stop offset="1" stop-color="#FF9E58"/>
</linearGradient>
<linearGradient id="paint4_linear_1290_27485" x1="115.748" y1="98.1208" x2="132.253" y2="98.1208" gradientUnits="userSpaceOnUse">
<stop offset="0.109375" stop-color="#FFF6A3"/>
<stop offset="1" stop-color="#FF9E58"/>
</linearGradient>
<linearGradient id="paint5_linear_1290_27485" x1="123.323" y1="108.99" x2="139.828" y2="108.99" gradientUnits="userSpaceOnUse">
<stop offset="0.109375" stop-color="#FFF6A3"/>
<stop offset="1" stop-color="#FF9E58"/>
</linearGradient>
<linearGradient id="paint6_linear_1290_27485" x1="103.226" y1="3.82227" x2="103.226" y2="45.3513" gradientUnits="userSpaceOnUse">
<stop stop-color="#FFED69"/>
<stop offset="1" stop-color="#FFD623"/>
</linearGradient>
<linearGradient id="paint7_linear_1290_27485" x1="107.769" y1="8.36426" x2="107.769" y2="40.8088" gradientUnits="userSpaceOnUse">
<stop stop-color="#FFF852"/>
<stop offset="1" stop-color="#FFE921"/>
</linearGradient>
<linearGradient id="paint8_linear_1290_27485" x1="56.0612" y1="185.436" x2="178.23" y2="341.023" gradientUnits="userSpaceOnUse">
<stop offset="0.286458" stop-color="#74DEFF"/>
<stop offset="1" stop-color="#2990FF"/>
</linearGradient>
<linearGradient id="paint9_linear_1290_27485" x1="64.5843" y1="188.348" x2="88.8859" y2="240.602" gradientUnits="userSpaceOnUse">
<stop offset="0.00520833" stop-color="#9FFFD1"/>
<stop offset="1" stop-color="#12CBB5"/>
</linearGradient>
<linearGradient id="paint10_linear_1290_27485" x1="119.539" y1="213.151" x2="128.21" y2="222.047" gradientUnits="userSpaceOnUse">
<stop offset="0.00520833" stop-color="#9FFFD1"/>
<stop offset="1" stop-color="#12CBB5"/>
</linearGradient>
<clipPath id="clip0_1290_27485">
<rect width="248" height="248" fill="white"/>
</clipPath>
</defs>
</svg>
