<svg width="248" height="248" viewBox="0 0 248 248" fill="none" xmlns="http://www.w3.org/2000/svg">
<g clip-path="url(#clip0_1290_27212)">
<rect width="248" height="248" fill="white"/>
<path d="M147.961 84.2223C147.961 84.2223 159.642 86.0009 165.749 79.8934C171.857 73.7858 170.078 62.1048 170.078 62.1048C170.078 62.1048 158.397 60.3262 152.29 66.4337C146.182 72.5413 147.961 84.2223 147.961 84.2223Z" fill="url(#paint0_linear_1290_27212)"/>
<path d="M144.692 87.4223L158.749 73.3662" stroke="#333333" stroke-width="0.488551"/>
<path d="M152.755 79.2156L159.707 78.0342" stroke="#333333" stroke-width="0.488551"/>
<path d="M124 83.9326C92.6055 83.9326 67.1533 108.94 67.1533 139.791C67.1474 147.217 68.652 154.567 71.5755 161.393H176.425C179.352 154.56 180.856 147.202 180.847 139.768C180.847 108.928 155.395 83.9326 124 83.9326Z" fill="url(#paint1_linear_1290_27212)"/>
<path d="M123.999 132.462C126.027 132.462 127.671 131.307 127.671 129.883C127.671 128.459 126.027 127.305 123.999 127.305C121.971 127.305 120.327 128.459 120.327 129.883C120.327 131.307 121.971 132.462 123.999 132.462Z" fill="url(#paint2_linear_1290_27212)"/>
<path fill-rule="evenodd" clip-rule="evenodd" d="M112.072 136.71V135.293H110.454V138.329H137.544V135.293H135.926V136.71H112.072Z" fill="#333333"/>
<path fill-rule="evenodd" clip-rule="evenodd" d="M112.923 129.81C112.415 129.541 111.98 129.152 111.657 128.677L113.091 127.702C113.255 127.943 113.476 128.141 113.734 128.277C113.992 128.414 114.279 128.485 114.571 128.485C114.862 128.485 115.15 128.414 115.408 128.277C115.666 128.141 115.886 127.943 116.05 127.702L117.484 128.677C117.161 129.152 116.727 129.541 116.219 129.81C115.711 130.079 115.145 130.219 114.571 130.219C113.996 130.219 113.43 130.079 112.923 129.81Z" fill="#333333"/>
<path fill-rule="evenodd" clip-rule="evenodd" d="M131.781 129.81C131.273 129.541 130.839 129.152 130.516 128.677L131.95 127.702C132.114 127.943 132.334 128.141 132.592 128.277C132.85 128.414 133.137 128.485 133.429 128.485C133.721 128.485 134.008 128.414 134.266 128.277C134.524 128.141 134.745 127.943 134.909 127.702L136.343 128.677C136.02 129.152 135.585 129.541 135.077 129.81C134.57 130.079 134.004 130.219 133.429 130.219C132.855 130.219 132.289 130.079 131.781 129.81Z" fill="#333333"/>
<path d="M158.585 134.924C159.265 134.924 159.816 134.373 159.816 133.693C159.816 133.013 159.265 132.462 158.585 132.462C157.905 132.462 157.354 133.013 157.354 133.693C157.354 134.373 157.905 134.924 158.585 134.924Z" fill="url(#paint3_linear_1290_27212)"/>
<path d="M159.251 128.877H157.887V131.305H159.251V128.877Z" fill="url(#paint4_linear_1290_27212)"/>
<path d="M154.165 131.504L153.743 132.802L156.052 133.552L156.474 132.254L154.165 131.504Z" fill="url(#paint5_linear_1290_27212)"/>
<path d="M156.612 135.229L155.186 137.194L156.29 137.996L157.716 136.031L156.612 135.229Z" fill="url(#paint6_linear_1290_27212)"/>
<path d="M162.851 131.311L160.544 132.063L160.967 133.36L163.274 132.607L162.851 131.311Z" fill="url(#paint7_linear_1290_27212)"/>
<path d="M160.85 135.093L159.745 135.897L161.178 137.864L162.283 137.059L160.85 135.093Z" fill="url(#paint8_linear_1290_27212)"/>
<path d="M89.513 134.924C90.193 134.924 90.7443 134.373 90.7443 133.693C90.7443 133.013 90.193 132.462 89.513 132.462C88.833 132.462 88.2817 133.013 88.2817 133.693C88.2817 134.373 88.833 134.924 89.513 134.924Z" fill="url(#paint9_linear_1290_27212)"/>
<path d="M90.1836 128.877H88.8193V131.305H90.1836V128.877Z" fill="url(#paint10_linear_1290_27212)"/>
<path d="M85.1005 131.503L84.6792 132.801L86.9884 133.551L87.4097 132.253L85.1005 131.503Z" fill="url(#paint11_linear_1290_27212)"/>
<path d="M87.5481 135.233L86.1221 137.198L87.2262 138L88.6522 136.035L87.5481 135.233Z" fill="url(#paint12_linear_1290_27212)"/>
<path d="M93.8431 131.37L91.5366 132.123L91.9595 133.419L94.266 132.666L93.8431 131.37Z" fill="url(#paint13_linear_1290_27212)"/>
<path d="M91.7037 135.237L90.5986 136.042L92.0311 138.009L93.1361 137.204L91.7037 135.237Z" fill="url(#paint14_linear_1290_27212)"/>
<circle cx="123.991" cy="34.6092" r="20.7645" fill="url(#paint15_linear_1290_27212)"/>
<mask id="mask0_1290_27212" style="mask-type:alpha" maskUnits="userSpaceOnUse" x="103" y="13" width="42" height="43">
<circle cx="123.991" cy="34.6092" r="20.7645" fill="white"/>
</mask>
<g mask="url(#mask0_1290_27212)">
<circle cx="123.99" cy="34.609" r="16.2223" fill="url(#paint16_linear_1290_27212)" stroke="white" stroke-opacity="0.793105" stroke-width="0.90025"/>
</g>
<g filter="url(#filter0_d_1290_27212)">
<path fill-rule="evenodd" clip-rule="evenodd" d="M129.212 26.1738C128.155 26.1738 127.295 27.0307 127.295 28.084V35.4051L121.104 27.3023C120.665 26.739 120.123 26.2179 119.147 26.2179H118.791C117.704 26.2179 116.853 27.0669 116.853 28.1506V40.4855C116.853 41.539 117.712 42.3961 118.769 42.3961C119.826 42.3961 120.686 41.539 120.686 40.4855V32.8537L127.121 41.2676C127.56 41.8305 128.102 42.3516 129.078 42.3516H129.189C130.277 42.3516 131.128 41.5028 131.128 40.4191V28.084C131.128 27.0307 130.268 26.1738 129.212 26.1738" fill="white"/>
</g>
<path opacity="0.550409" fill-rule="evenodd" clip-rule="evenodd" d="M159.508 27.8984C158.268 26.4967 157.394 24.9615 156.986 23.627C156.578 24.9634 155.704 26.5009 154.465 27.9044C153.231 29.3025 151.879 30.2912 150.702 30.7558C151.879 31.2197 153.23 32.2074 154.465 33.6059C155.704 35.0095 156.578 36.5467 156.986 37.8834C157.394 36.5488 158.268 35.0137 159.508 33.6117C160.751 32.205 162.114 31.2142 163.297 30.7551C162.114 30.2959 160.751 29.3051 159.508 27.8984Z" fill="#FFE000"/>
<path opacity="0.348331" fill-rule="evenodd" clip-rule="evenodd" d="M103.085 12.8476C102.24 11.9205 101.644 10.9052 101.366 10.0225C101.087 10.9064 100.491 11.9233 99.6464 12.8516C98.8048 13.7763 97.8831 14.4302 97.0806 14.7375C97.8829 15.0443 98.8046 15.6976 99.6464 16.6226C100.491 17.5509 101.087 18.5677 101.366 19.4518C101.644 18.5691 102.24 17.5537 103.085 16.6264C103.933 15.696 104.862 15.0407 105.669 14.737C104.862 14.4334 103.933 13.778 103.085 12.8476Z" fill="#FFE000"/>
<path d="M198.816 122.239H237.946" stroke="#AEE6FF" stroke-width="1.2"/>
<path d="M218.381 102.674L218.381 141.804" stroke="#AEE6FF" stroke-width="1.2"/>
<path d="M209.404 113.26L227.362 131.217" stroke="#AEE6FF" stroke-width="1.2"/>
<path d="M227.359 113.26L209.401 131.217" stroke="#AEE6FF" stroke-width="1.2"/>
<path d="M21.6206 148.147H49.2726" stroke="#AEE6FF" stroke-width="1.2"/>
<path d="M35.4458 134.322L35.4458 161.974" stroke="#AEE6FF" stroke-width="1.2"/>
<path d="M29.103 141.804L41.7931 154.494" stroke="#AEE6FF" stroke-width="1.2"/>
<path d="M41.79 141.804L29.0999 154.494" stroke="#AEE6FF" stroke-width="1.2"/>
<path d="M79.6265 44.3955H98.1099" stroke="#FFE55E"/>
<path d="M88.8682 35.1543L88.8682 53.6377" stroke="#FFE55E"/>
<path d="M84.6279 40.1543L93.1103 48.6367" stroke="#FFE55E"/>
<path d="M93.1089 40.1543L84.6265 48.6367" stroke="#FFE55E"/>
<path d="M229.255 53.6448C229.158 51.6287 229.46 49.7575 230.02 48.3764C228.769 49.1902 226.988 49.8441 224.989 50.1339C222.998 50.4222 221.186 50.2924 219.876 49.8537C220.556 51.0552 221.029 52.8093 221.124 54.8194C221.219 56.8364 220.916 58.7094 220.354 60.0924C221.604 59.28 223.384 58.628 225.382 58.34C227.386 58.051 229.21 58.187 230.521 58.6344C229.832 57.4324 229.352 55.6678 229.255 53.6448" stroke="#A0A0A0"/>
<path d="M215.745 65.3437L181.888 103.102" stroke="#A0A0A0" stroke-width="0.8"/>
<path d="M40.1035 55.5029L69.3097 91.2385" stroke="#A0A0A0" stroke-dasharray="2 2"/>
<circle cx="33.3201" cy="47.4992" r="4.42493" transform="rotate(14.0425 33.3201 47.4992)" stroke="#A0A0A0"/>
<circle cx="34.8552" cy="88.7238" r="3.74276" transform="rotate(-58.9738 34.8552 88.7238)" fill="#C5C5C5"/>
<path d="M41.3421 92.6257L60.0785 104.186" stroke="#A0A0A0" stroke-width="0.8"/>
<path d="M124 402.283C148.8 402.283 173.044 394.841 193.664 380.897C214.285 366.954 230.357 347.136 239.847 323.949C249.338 300.762 251.821 275.248 246.983 250.633C242.145 226.018 230.202 203.407 212.666 185.661C195.129 167.914 172.787 155.829 148.463 150.932C124.139 146.036 98.9273 148.549 76.0149 158.153C53.1025 167.758 33.519 184.022 19.7407 204.89C5.9625 225.758 -1.3916 250.291 -1.3916 275.389C-1.3916 309.043 11.8193 341.319 35.3348 365.116C58.8504 388.914 90.7443 402.283 124 402.283Z" fill="url(#paint17_linear_1290_27212)"/>
<path fill-rule="evenodd" clip-rule="evenodd" d="M153.459 152.045C151.804 151.641 150.139 151.269 148.465 150.932C124.141 146.036 98.9291 148.549 76.0168 158.153C53.1044 167.758 33.5209 184.022 19.7426 204.89C15.8172 210.835 12.4133 217.078 9.55225 223.546C17.1846 227.848 29.4299 223.506 37.6384 217.956C42.1663 214.894 46.3644 211.263 50.619 207.584C62.4822 197.326 74.785 186.687 95.9016 186.928C123.375 187.242 147.769 179.366 153.459 152.045Z" fill="url(#paint18_linear_1290_27212)"/>
<path d="M123.999 213.863C127.992 213.863 131.221 211.415 131.221 208.382C131.221 205.349 127.992 202.913 123.999 202.913C120.007 202.913 116.778 205.361 116.778 208.382C116.778 211.404 120.019 213.863 123.999 213.863Z" fill="url(#paint19_linear_1290_27212)"/>
<path d="M103.697 205.548V210.213" stroke="#333333" stroke-width="3" stroke-miterlimit="10"/>
<path d="M144.302 205.548V210.213" stroke="#333333" stroke-width="3" stroke-miterlimit="10"/>
<path d="M148.953 219.74V223.926H99.0464V219.74" stroke="#333333" stroke-width="1.8" stroke-miterlimit="10"/>
</g>
<defs>
<filter id="filter0_d_1290_27212" x="114.257" y="23.5783" width="19.4665" height="21.4138" filterUnits="userSpaceOnUse" color-interpolation-filters="sRGB">
<feFlood flood-opacity="0" result="BackgroundImageFix"/>
<feColorMatrix in="SourceAlpha" type="matrix" values="0 0 0 0 0 0 0 0 0 0 0 0 0 0 0 0 0 0 127 0" result="hardAlpha"/>
<feOffset/>
<feGaussianBlur stdDeviation="1.29778"/>
<feColorMatrix type="matrix" values="0 0 0 0 0.791667 0 0 0 0 0.3325 0 0 0 0 0 0 0 0 0.3 0"/>
<feBlend mode="normal" in2="BackgroundImageFix" result="effect1_dropShadow_1290_27212"/>
<feBlend mode="normal" in="SourceGraphic" in2="effect1_dropShadow_1290_27212" result="shape"/>
</filter>
<linearGradient id="paint0_linear_1290_27212" x1="163.89" y1="60.0022" x2="171.005" y2="79.9083" gradientUnits="userSpaceOnUse">
<stop offset="0.09375" stop-color="#8DF1A9"/>
<stop offset="1" stop-color="#3AD8C5"/>
</linearGradient>
<linearGradient id="paint1_linear_1290_27212" x1="88.982" y1="91.0879" x2="149.631" y2="160.328" gradientUnits="userSpaceOnUse">
<stop offset="0.09375" stop-color="#94FDAB"/>
<stop offset="1" stop-color="#09C497"/>
</linearGradient>
<linearGradient id="paint2_linear_1290_27212" x1="120.327" y1="129.883" x2="127.671" y2="129.883" gradientUnits="userSpaceOnUse">
<stop stop-color="#F56550"/>
<stop offset="0.29" stop-color="#F15F4A"/>
<stop offset="0.68" stop-color="#E44D39"/>
<stop offset="1" stop-color="#D73A26"/>
</linearGradient>
<linearGradient id="paint3_linear_1290_27212" x1="157.354" y1="133.693" x2="159.816" y2="133.693" gradientUnits="userSpaceOnUse">
<stop stop-color="#F56550"/>
<stop offset="0.29" stop-color="#F15F4A"/>
<stop offset="0.68" stop-color="#E44D39"/>
<stop offset="1" stop-color="#D73A26"/>
</linearGradient>
<linearGradient id="paint4_linear_1290_27212" x1="157.887" y1="130.091" x2="159.251" y2="130.091" gradientUnits="userSpaceOnUse">
<stop stop-color="#F56550"/>
<stop offset="0.29" stop-color="#F15F4A"/>
<stop offset="0.68" stop-color="#E44D39"/>
<stop offset="1" stop-color="#D73A26"/>
</linearGradient>
<linearGradient id="paint5_linear_1290_27212" x1="154.898" y1="133.177" x2="155.319" y2="131.879" gradientUnits="userSpaceOnUse">
<stop stop-color="#F56550"/>
<stop offset="0.29" stop-color="#F15F4A"/>
<stop offset="0.68" stop-color="#E44D39"/>
<stop offset="1" stop-color="#D73A26"/>
</linearGradient>
<linearGradient id="paint6_linear_1290_27212" x1="155.738" y1="137.595" x2="157.164" y2="135.63" gradientUnits="userSpaceOnUse">
<stop stop-color="#F56550"/>
<stop offset="0.29" stop-color="#F15F4A"/>
<stop offset="0.68" stop-color="#E44D39"/>
<stop offset="1" stop-color="#D73A26"/>
</linearGradient>
<linearGradient id="paint7_linear_1290_27212" x1="160.756" y1="132.711" x2="163.062" y2="131.959" gradientUnits="userSpaceOnUse">
<stop stop-color="#F56550"/>
<stop offset="0.29" stop-color="#F15F4A"/>
<stop offset="0.68" stop-color="#E44D39"/>
<stop offset="1" stop-color="#D73A26"/>
</linearGradient>
<linearGradient id="paint8_linear_1290_27212" x1="160.461" y1="136.881" x2="161.566" y2="136.076" gradientUnits="userSpaceOnUse">
<stop stop-color="#F56550"/>
<stop offset="0.29" stop-color="#F15F4A"/>
<stop offset="0.68" stop-color="#E44D39"/>
<stop offset="1" stop-color="#D73A26"/>
</linearGradient>
<linearGradient id="paint9_linear_1290_27212" x1="88.2817" y1="133.693" x2="90.7443" y2="133.693" gradientUnits="userSpaceOnUse">
<stop stop-color="#F56550"/>
<stop offset="0.29" stop-color="#F15F4A"/>
<stop offset="0.68" stop-color="#E44D39"/>
<stop offset="1" stop-color="#D73A26"/>
</linearGradient>
<linearGradient id="paint10_linear_1290_27212" x1="88.8193" y1="130.091" x2="90.1836" y2="130.091" gradientUnits="userSpaceOnUse">
<stop stop-color="#F56550"/>
<stop offset="0.29" stop-color="#F15F4A"/>
<stop offset="0.68" stop-color="#E44D39"/>
<stop offset="1" stop-color="#D73A26"/>
</linearGradient>
<linearGradient id="paint11_linear_1290_27212" x1="85.8338" y1="133.176" x2="86.2551" y2="131.878" gradientUnits="userSpaceOnUse">
<stop stop-color="#F56550"/>
<stop offset="0.29" stop-color="#F15F4A"/>
<stop offset="0.68" stop-color="#E44D39"/>
<stop offset="1" stop-color="#D73A26"/>
</linearGradient>
<linearGradient id="paint12_linear_1290_27212" x1="86.6741" y1="137.599" x2="88.1002" y2="135.634" gradientUnits="userSpaceOnUse">
<stop stop-color="#F56550"/>
<stop offset="0.29" stop-color="#F15F4A"/>
<stop offset="0.68" stop-color="#E44D39"/>
<stop offset="1" stop-color="#D73A26"/>
</linearGradient>
<linearGradient id="paint13_linear_1290_27212" x1="91.7481" y1="132.771" x2="94.0546" y2="132.018" gradientUnits="userSpaceOnUse">
<stop stop-color="#F56550"/>
<stop offset="0.29" stop-color="#F15F4A"/>
<stop offset="0.68" stop-color="#E44D39"/>
<stop offset="1" stop-color="#D73A26"/>
</linearGradient>
<linearGradient id="paint14_linear_1290_27212" x1="91.3149" y1="137.025" x2="92.4199" y2="136.22" gradientUnits="userSpaceOnUse">
<stop stop-color="#F56550"/>
<stop offset="0.29" stop-color="#F15F4A"/>
<stop offset="0.68" stop-color="#E44D39"/>
<stop offset="1" stop-color="#D73A26"/>
</linearGradient>
<linearGradient id="paint15_linear_1290_27212" x1="103.226" y1="13.8447" x2="103.226" y2="55.3737" gradientUnits="userSpaceOnUse">
<stop stop-color="#FFED69"/>
<stop offset="1" stop-color="#FFD623"/>
</linearGradient>
<linearGradient id="paint16_linear_1290_27212" x1="107.768" y1="18.3867" x2="107.768" y2="50.8313" gradientUnits="userSpaceOnUse">
<stop stop-color="#FFF852"/>
<stop offset="1" stop-color="#FFE921"/>
</linearGradient>
<linearGradient id="paint17_linear_1290_27212" x1="58.6369" y1="160.998" x2="176.174" y2="310.687" gradientUnits="userSpaceOnUse">
<stop offset="0.286458" stop-color="#74DEFF"/>
<stop offset="1" stop-color="#2990FF"/>
</linearGradient>
<linearGradient id="paint18_linear_1290_27212" x1="66.8368" y1="163.799" x2="90.2169" y2="214.073" gradientUnits="userSpaceOnUse">
<stop offset="0.00520833" stop-color="#9FFFD1"/>
<stop offset="1" stop-color="#12CBB5"/>
</linearGradient>
<linearGradient id="paint19_linear_1290_27212" x1="119.551" y1="203.925" x2="128.197" y2="212.794" gradientUnits="userSpaceOnUse">
<stop offset="0.00520833" stop-color="#9FFFD1"/>
<stop offset="1" stop-color="#12CBB5"/>
</linearGradient>
<clipPath id="clip0_1290_27212">
<rect width="248" height="248" fill="white"/>
</clipPath>
</defs>
</svg>
