<svg width="25" height="25" viewBox="0 0 25 25" fill="none" xmlns="http://www.w3.org/2000/svg">
<g clip-path="url(#clip0_646_6040)">
<path d="M22.4375 4.7251C23.5421 4.7251 24.4375 3.82967 24.4375 2.7251C24.4375 1.62053 23.5421 0.725098 22.4375 0.725098C21.3329 0.725098 20.4375 1.62053 20.4375 2.7251C20.4375 3.82967 21.3329 4.7251 22.4375 4.7251Z" fill="#FF5555"/>
<path d="M5.94157 20.7251V12.7182C5.87958 10.9357 6.5273 9.20088 7.74382 7.89126C8.96034 6.58163 10.6472 5.80312 12.4375 5.7251C14.2278 5.80312 15.9147 6.58163 17.1312 7.89126C18.3477 9.20088 18.9954 10.9357 18.9334 12.7182V20.7251" stroke="#29D3C6" stroke-width="1.6" stroke-linecap="round" stroke-linejoin="round"/>
<path d="M12.4375 2.7251V5.7251" stroke="#29D3C6" stroke-width="1.6" stroke-linecap="round" stroke-linejoin="round"/>
<path d="M3.4375 20.7251H21.4375" stroke="#29D3C6" stroke-width="1.6" stroke-linecap="round" stroke-linejoin="round"/>
</g>
<defs>
<clipPath id="clip0_646_6040">
<rect width="24" height="24" fill="white" transform="translate(0.4375 0.725098)"/>
</clipPath>
</defs>
</svg>
