<svg width="68" height="22" viewBox="0 0 68 22" fill="none" xmlns="http://www.w3.org/2000/svg">
<g clip-path="url(#clip0_1458_490)">
<path d="M25.2021 21.9494V0.0527383C25.2021 0.0461633 25.2035 0.0396544 25.2061 0.0335944C25.2087 0.0275345 25.2125 0.0220459 25.2172 0.0174517C25.222 0.0128575 25.2277 0.00925053 25.2339 0.00684284C25.2401 0.00443516 25.2468 0.0032754 25.2534 0.00343195H29.4725C29.4792 0.0032754 29.4858 0.00443516 29.492 0.00684284C29.4983 0.00925053 29.5039 0.0128575 29.5087 0.0174517C29.5135 0.0220459 29.5173 0.0275345 29.5199 0.0335944C29.5225 0.0396544 29.5238 0.0461633 29.5238 0.0527383V21.9494C29.5238 21.9628 29.5184 21.9757 29.5088 21.9851C29.4992 21.9946 29.4861 21.9999 29.4725 21.9999H25.2534C25.2398 21.9999 25.2268 21.9946 25.2172 21.9851C25.2076 21.9757 25.2021 21.9628 25.2021 21.9494Z" fill="#333333"/>
<path d="M67.8894 4.25198C67.9025 4.25198 67.9133 4.22967 67.9133 4.2015V0.0527243C67.9133 0.0257232 67.9025 0.00341797 67.8894 0.00341797H57.3041C57.2982 0.00341797 57.2934 0.00341804 57.2886 0.0163316C57.2862 0.0178431 57.2841 0.0199137 57.2827 0.0223667C57.2812 0.0248197 57.2804 0.0275823 57.2803 0.0304191V11.9543V13.0755C57.2803 13.1036 57.291 13.1259 57.3041 13.1259H63.5952V17.7466H57.3017C57.2898 17.7466 57.2803 17.7689 57.2803 17.7959V21.9494C57.2803 21.9764 57.2898 21.9987 57.3017 21.9987H67.862C67.8906 21.9987 67.9133 21.9858 67.9133 21.9705V13.0755V8.92668C67.9133 8.89851 67.9025 8.8762 67.8894 8.8762H61.5984V4.25198H67.8894Z" fill="#333333"/>
<path d="M51.4626 0.0493203V17.7468H49.4646V0.0493203C49.4646 0.0427453 49.4632 0.0362364 49.4606 0.0301765C49.458 0.0241165 49.4542 0.0186279 49.4495 0.0140337C49.4447 0.00943955 49.439 0.00583245 49.4328 0.00342477C49.4266 0.00101708 49.4199 -0.000142568 49.4133 1.39791e-05H45.1978C45.1844 1.04126e-05 45.1715 0.00516736 45.1619 0.0143818C45.1523 0.0235963 45.1468 0.0361366 45.1465 0.0493203V21.9484C45.1465 21.955 45.1478 21.9616 45.1504 21.9677C45.153 21.9738 45.1567 21.9794 45.1615 21.9841C45.1663 21.9887 45.1719 21.9925 45.1781 21.995C45.1844 21.9975 45.191 21.9988 45.1978 21.9988H55.7293C55.736 21.9988 55.7426 21.9975 55.7488 21.995C55.755 21.9924 55.7605 21.9887 55.7652 21.984C55.7699 21.9793 55.7735 21.9737 55.776 21.9676C55.7784 21.9615 55.7796 21.9549 55.7794 21.9484V0.0493203C55.7794 0.0362434 55.7742 0.0237022 55.7648 0.0144555C55.7554 0.00520877 55.7426 1.39791e-05 55.7293 1.39791e-05H51.5139C51.5072 -0.000142568 51.5005 0.00101708 51.4943 0.00342477C51.4881 0.00583245 51.4824 0.00943955 51.4777 0.0140337C51.4729 0.0186279 51.4691 0.0241165 51.4665 0.0301765C51.4639 0.0362364 51.4626 0.0427453 51.4626 0.0493203Z" fill="#333333"/>
<path d="M23.7018 4.20169V0.0529216C23.7018 0.0395334 23.6964 0.0266936 23.6868 0.0172267C23.6771 0.00775985 23.6641 0.00244141 23.6505 0.00244141H14.2271C14.2135 0.00244141 14.2004 0.00775985 14.1908 0.0172267C14.1812 0.0266936 14.1758 0.0395334 14.1758 0.0529216V21.9496C14.1758 21.9562 14.1771 21.9627 14.1797 21.9688C14.1823 21.9748 14.1861 21.9803 14.1909 21.9849C14.1957 21.9895 14.2013 21.9931 14.2075 21.9955C14.2138 21.9979 14.2204 21.9991 14.2271 21.9989H23.6505C23.6641 21.9989 23.6771 21.9936 23.6868 21.9841C23.6964 21.9747 23.7018 21.9618 23.7018 21.9484V17.7973C23.7018 17.7839 23.6964 17.7711 23.6868 17.7616C23.6771 17.7522 23.6641 17.7468 23.6505 17.7468H18.4986V13.1496H23.4966C23.5033 13.1498 23.5099 13.1486 23.5162 13.1462C23.5224 13.1438 23.528 13.1402 23.5328 13.1356C23.5376 13.131 23.5414 13.1255 23.544 13.1194C23.5466 13.1134 23.5479 13.1069 23.5479 13.1003V8.95153C23.5479 8.93814 23.5425 8.9253 23.5329 8.91584C23.5233 8.90637 23.5102 8.90105 23.4966 8.90105H18.4986V4.2463H23.6505C23.6632 4.24666 23.6756 4.24225 23.6851 4.23396C23.6946 4.22568 23.7006 4.21414 23.7018 4.20169Z" fill="#333333"/>
<path d="M12.6286 0.00343195H8.41309C8.39969 0.00342838 8.38682 0.00858544 8.37723 0.0177999C8.36765 0.0270144 8.36211 0.0395546 8.36179 0.0527383V10.2544L4.31569 0.0351289C4.31201 0.0256589 4.30546 0.0175345 4.29692 0.0118626C4.28838 0.00619063 4.27827 0.00324675 4.26797 0.00343195H0.0512921C0.0446133 0.0032754 0.0379701 0.00443516 0.0317535 0.00684284C0.0255368 0.00925053 0.0198722 0.0128575 0.0150929 0.0174517C0.0103137 0.0220459 0.00651641 0.0275345 0.00392442 0.0335944C0.00133244 0.0396544 -1.89189e-06 0.0461633 2.01327e-09 0.0527383V21.9494C2.01327e-09 21.9628 0.00540397 21.9757 0.0150231 21.9851C0.0246422 21.9946 0.0376886 21.9999 0.0512921 21.9999H4.26678C4.28039 21.9999 4.29343 21.9946 4.30305 21.9851C4.31267 21.9757 4.31807 21.9628 4.31807 21.9494V11.743L8.36657 21.9729C8.36904 21.9784 8.37225 21.9835 8.37611 21.9882C8.38019 21.9922 8.38506 21.9954 8.39042 21.9976H8.39997H8.4107H12.6262C12.6329 21.9976 12.6396 21.9963 12.6458 21.9937C12.652 21.9912 12.6577 21.9875 12.6625 21.9828C12.6672 21.9781 12.671 21.9725 12.6736 21.9664C12.6762 21.9603 12.6775 21.9537 12.6775 21.9471V0.0527383C12.6775 0.0398623 12.6724 0.0274958 12.6632 0.0182821C12.6541 0.0090684 12.6417 0.00373852 12.6286 0.00343195Z" fill="#333333"/>
<path d="M41.6511 8.87513V0.0504803C41.6511 0.0370921 41.6457 0.0242522 41.6361 0.0147853C41.6264 0.00531845 41.6134 0 41.5998 0H31.0718C31.0582 0 31.0452 0.00531845 31.0355 0.0147853C31.0259 0.0242522 31.0205 0.0370921 31.0205 0.0504803V21.9495C31.0205 21.9629 31.0259 21.9757 31.0355 21.9852C31.0452 21.9947 31.0582 22 31.0718 22H43.6455V8.87513H41.6511ZM35.3386 4.24621H37.333V8.87161H35.3386V4.24621ZM35.3386 13.1213H39.3286V17.7467H35.3386V13.1213Z" fill="#333333"/>
</g>
<defs>
<clipPath id="clip0_1458_490">
<rect width="67.913" height="22" fill="white"/>
</clipPath>
</defs>
</svg>
