<svg width="24" height="24" viewBox="0 0 24 24" fill="none" xmlns="http://www.w3.org/2000/svg">
<path d="M12 13.3721C7.44 13.3721 3.75 16.7321 3.75 20.8721H20.25C20.25 16.7321 16.56 13.3721 12 13.3721Z" stroke="#29D3C6" stroke-width="1.6" stroke-linecap="round" stroke-linejoin="round"/>
<path d="M12 10.1279C12.6922 10.1279 13.3689 9.92266 13.9445 9.53807C14.5201 9.15349 14.9687 8.60686 15.2336 7.96732C15.4985 7.32778 15.5678 6.62405 15.4327 5.94512C15.2977 5.26618 14.9644 4.64254 14.4749 4.15306C13.9854 3.66357 13.3618 3.33023 12.6828 3.19518C12.0039 3.06013 11.3001 3.12945 10.6606 3.39435C10.0211 3.65926 9.47444 4.10786 9.08986 4.68344C8.70527 5.25901 8.5 5.9357 8.5 6.62793C8.5 7.55619 8.86875 8.44643 9.52513 9.1028C10.1815 9.75918 11.0717 10.1279 12 10.1279Z" stroke="#29D3C6" stroke-width="1.6" stroke-linecap="round" stroke-linejoin="round"/>
</svg>
