<svg width="24" height="24" viewBox="0 0 24 24" fill="none" xmlns="http://www.w3.org/2000/svg">
<path d="M12.0005 15.5395C13.9554 15.5395 15.5401 13.9548 15.5401 11.9999C15.5401 10.0451 13.9554 8.46033 12.0005 8.46033C10.0457 8.46033 8.46094 10.0451 8.46094 11.9999C8.46094 13.9548 10.0457 15.5395 12.0005 15.5395Z" stroke="#29D3C6" stroke-width="1.5" stroke-linecap="round" stroke-linejoin="round"/>
<path d="M21.5612 10.9162C21.5277 10.7791 21.4485 10.6574 21.3367 10.5709C21.2249 10.4845 21.087 10.4383 20.9455 10.4399C20.5113 10.45 20.0846 10.3271 19.7227 10.0879C19.3608 9.84873 19.0811 9.50468 18.9215 9.10216C18.7618 8.69965 18.7298 8.25801 18.8297 7.83679C18.9296 7.41556 19.1567 7.035 19.4803 6.7464C19.5847 6.65412 19.6494 6.52521 19.6608 6.38657C19.6714 6.25268 19.6296 6.1199 19.544 6.01616C19.105 5.44338 18.6028 4.92153 18.047 4.46044C17.9419 4.37703 17.8095 4.33554 17.6754 4.34402C17.531 4.36937 17.4018 4.4489 17.3144 4.56627C17.0104 4.88246 16.6202 5.10305 16.192 5.20084C15.7637 5.29863 15.3161 5.26934 14.9043 5.11659C14.497 4.94031 14.1527 4.64512 13.917 4.26994C13.6906 3.89367 13.5798 3.45949 13.5984 3.02113C13.6043 2.95233 13.596 2.88306 13.5741 2.81755C13.5522 2.75205 13.5171 2.69168 13.471 2.64014C13.4289 2.58607 13.3761 2.54124 13.3158 2.50846C13.2555 2.47568 13.1891 2.45566 13.1207 2.44964C12.4149 2.37339 11.703 2.37339 10.9973 2.44964C10.862 2.46361 10.7369 2.52784 10.6469 2.62956C10.5585 2.73225 10.5129 2.8648 10.5195 2.99997C10.532 3.43385 10.4137 3.86149 10.1798 4.22761C9.94077 4.59494 9.59685 4.88246 9.19237 5.05309C8.77217 5.20615 8.31588 5.23154 7.8812 5.12604C7.44653 5.02055 7.05302 4.78891 6.75044 4.46044C6.70681 4.40977 6.6532 4.36859 6.59292 4.33946C6.53265 4.31033 6.46701 4.29387 6.40008 4.29111C6.33415 4.2813 6.26688 4.28567 6.20279 4.30392C6.13869 4.32218 6.07926 4.35389 6.02848 4.39694C5.44922 4.84915 4.92538 5.36777 4.46777 5.94208C4.38248 6.05008 4.34082 6.18599 4.35099 6.32307C4.35934 6.39569 4.38365 6.46559 4.42219 6.52778C4.46073 6.58997 4.51254 6.64294 4.57394 6.6829C4.90595 6.97877 5.13623 7.37122 5.2322 7.80471C5.32971 8.23667 5.28886 8.68824 5.11542 9.09585C4.93445 9.49378 4.63878 9.82903 4.26605 10.0589C3.89292 10.2957 3.45493 10.4104 3.01324 10.387C2.87764 10.3804 2.74466 10.4259 2.64164 10.514C2.58934 10.5569 2.54637 10.6101 2.51534 10.6701C2.48431 10.7301 2.46587 10.7959 2.46115 10.8632C2.37473 11.5837 2.37116 12.3116 2.45053 13.0328C2.48266 13.1726 2.56291 13.2968 2.67734 13.3838C2.79177 13.4708 2.93315 13.5151 3.07694 13.509C3.50294 13.5028 3.92096 13.6245 4.27667 13.8583C4.6274 14.1004 4.90029 14.4385 5.06233 14.8319C5.22776 15.2343 5.26483 15.6777 5.1685 16.1019C5.07094 16.5517 4.83309 16.9592 4.48901 17.266C4.43671 17.309 4.39374 17.3621 4.36271 17.4221C4.33168 17.4822 4.31324 17.5479 4.30852 17.6153C4.29835 17.7524 4.34001 17.8883 4.42531 17.9963C4.87727 18.5492 5.3901 19.0497 5.95416 19.4885C6.06251 19.5735 6.19886 19.615 6.33638 19.6049C6.40511 19.6036 6.4728 19.5878 6.535 19.5587C6.59721 19.5295 6.65253 19.4875 6.69736 19.4356C7.00186 19.1168 7.39449 18.8953 7.82545 18.7992C8.25641 18.7031 8.70629 18.7367 9.11805 18.8958C9.52651 19.0652 9.87171 19.3575 10.1054 19.7319C10.3392 20.1051 10.4506 20.5416 10.4239 20.9807C10.4138 21.1178 10.4554 21.2537 10.5407 21.3617C10.6307 21.4634 10.7558 21.5276 10.8911 21.5416C11.2612 21.5839 11.6334 21.6051 12.0059 21.6051C12.3606 21.6142 12.7155 21.5965 13.0676 21.5522C13.2015 21.5337 13.3251 21.4702 13.418 21.3723C13.4632 21.3223 13.4979 21.2638 13.5198 21.2001C13.5417 21.1364 13.5504 21.069 13.5454 21.0019C13.5333 20.5647 13.6516 20.1338 13.8851 19.7637C14.1205 19.3932 14.4655 19.1047 14.8725 18.9382C15.2812 18.7921 15.7235 18.7663 16.1465 18.8641C16.57 18.9627 16.9566 19.1792 17.2613 19.4885C17.3044 19.5406 17.3577 19.5835 17.4179 19.6144C17.4782 19.6453 17.5441 19.6637 17.6117 19.6684C17.746 19.679 17.8792 19.6373 17.9833 19.552C18.5597 19.0966 19.0832 18.5783 19.544 18.0069C19.6285 17.8946 19.6647 17.7535 19.6448 17.6145C19.6249 17.4756 19.5505 17.3502 19.4378 17.266C19.2224 17.0751 19.0483 16.8425 18.926 16.5823C18.8037 16.3221 18.7358 16.0398 18.7265 15.7526C18.715 15.4676 18.7615 15.1833 18.8631 14.9166C18.9647 14.65 19.1192 14.4065 19.3176 14.2009C19.5159 13.9953 19.7539 13.8318 20.0172 13.7202C20.2805 13.6085 20.5638 13.5511 20.8499 13.5514H20.9667C21.0357 13.5572 21.1052 13.5489 21.1709 13.5271C21.2366 13.5053 21.2972 13.4703 21.3489 13.4244C21.4004 13.383 21.443 13.3317 21.474 13.2735C21.505 13.2153 21.5239 13.1514 21.5294 13.0857C21.6229 12.3661 21.6336 11.6382 21.5612 10.9162Z" stroke="#29D3C6" stroke-width="1.5" stroke-linecap="round" stroke-linejoin="round"/>
</svg>
