<svg width="150" height="150" viewBox="0 0 150 150" fill="none" xmlns="http://www.w3.org/2000/svg">
<path d="M89.9852 26.7496L89.9402 25.6496L83.9252 25.8896L85.5252 21.1146L84.4852 20.7646L81.9652 28.2796L78.5752 23.8246L77.7002 24.4896L81.5452 29.5396L80.5002 32.6496L81.5452 32.9997L83.5502 27.0047L89.9852 26.7496Z" fill="url(#paint0_linear_740_28249)"/>
<path d="M68.5511 21.2746L67.4861 20.9946L65.1661 29.7046L60.1011 23.4746L59.2461 24.1696L66.9861 33.6796L67.8411 32.9846L66.0261 30.7596L68.5511 21.2746Z" fill="url(#paint1_linear_740_28249)"/>
<path d="M63.0411 22.8746L60.3961 22.6046L62.4561 20.9246L61.7611 20.0746L59.7011 21.7496L59.9711 19.1046L58.8761 18.9946L58.6061 21.6396L56.9261 19.5746L56.0761 20.2696L57.7511 22.3346L55.1061 22.0596L54.9961 23.1546L57.6411 23.4246L55.5761 25.1046L56.2711 25.9596L58.3361 24.2796L58.0611 26.9246L59.1561 27.0396L59.4261 24.3946L61.1061 26.4546L61.9611 25.7596L60.2811 23.6996L62.9261 23.9696L63.0411 22.8746Z" fill="url(#paint2_linear_740_28249)"/>
<path d="M53.0295 31.3466L52.5547 32.3389L62.572 37.1319L63.0468 36.1397L53.0295 31.3466Z" fill="url(#paint3_linear_740_28249)"/>
<path d="M55.0954 32.3348L53.2904 31.4698L55.1804 30.8048L54.8154 29.7648L52.9204 30.4348L53.7904 28.6248L52.7954 28.1498L51.9304 29.9548L51.2654 28.0698L50.2254 28.4348L50.8904 30.3248L49.0854 29.4598L48.6104 30.4498L50.4204 31.3148L48.5254 31.9848L48.8904 33.0198L50.7854 32.3548L49.9204 34.1648L50.9104 34.6348L51.7754 32.8298L52.4454 34.7198L53.4804 34.3548L52.8154 32.4648L54.6254 33.3298L55.0954 32.3348Z" fill="url(#paint4_linear_740_28249)"/>
<path d="M96.7074 31.4241L86.7129 36.1992L87.1859 37.1892L97.1804 32.4141L96.7074 31.4241Z" fill="url(#paint5_linear_740_28249)"/>
<path d="M94.8995 32.2853L96.7045 31.4203L94.8145 30.7553L95.1795 29.7153L97.0745 30.3853L96.2095 28.5753L97.1995 28.1003L98.0645 29.9053L98.7295 28.0203L99.7695 28.3853L99.1045 30.2753L100.909 29.4103L101.384 30.4003L99.5745 31.2653L101.469 31.9353L101.104 32.9703L99.2095 32.3053L100.074 34.1153L99.0845 34.5853L98.2195 32.7803L97.5495 34.6703L96.5145 34.3053L97.1795 32.4153L95.3695 33.2803L94.8995 32.2853Z" fill="url(#paint6_linear_740_28249)"/>
<path d="M75.3203 30.2396C81.3606 30.2396 87.1538 32.6381 91.4264 36.9079C95.699 41.1777 98.1013 46.9693 98.1053 53.0096V127.66H52.5303V53.0096C52.5303 46.9667 54.9308 41.1712 59.2038 36.8982C63.4769 32.6252 69.2723 30.2246 75.3153 30.2246L75.3203 30.2396Z" fill="url(#paint7_linear_740_28249)"/>
<path fill-rule="evenodd" clip-rule="evenodd" d="M70.6825 43.84H68.4053V42.54H70.6825V43.84Z" fill="#333333"/>
<path fill-rule="evenodd" clip-rule="evenodd" d="M82.0106 43.84H79.7334V42.54H82.0106V43.84Z" fill="#333333"/>
<path fill-rule="evenodd" clip-rule="evenodd" d="M69.616 48.3198V47.3347H68.416V49.5198H81.9951V47.3347H80.7951V48.3198H69.616Z" fill="#333333"/>
<path d="M89.2908 20.7L86.7708 19.855L89.1508 18.665L88.6609 17.685L86.2809 18.87L87.1259 16.345L86.0809 16L85.2359 18.52L84.0509 16.14L83.0659 16.63L84.2509 19.01L81.7309 18.165L81.3809 19.21L83.9009 20.055L81.5209 21.24L82.0109 22.225L84.3909 21.035L83.5459 23.56L84.5909 23.91L85.4359 21.385L86.6209 23.765L87.6059 23.275L86.4209 20.895L88.9409 21.74L89.2908 20.7Z" fill="url(#paint8_linear_740_28249)"/>
<path d="M80.2003 23.4347L79.1503 23.2897L79.9903 22.6497L79.3253 21.7747L78.4853 22.4147L78.6253 21.3647L77.5353 21.2197L77.3903 22.2697L76.7503 21.4247L75.8753 22.0897L76.5153 22.9347L75.4703 22.7897L75.3203 23.8797L76.3703 24.0247L75.5253 24.6647L76.1903 25.5397L77.0353 24.8997L76.8903 25.9497L77.9853 26.0997L78.1253 25.0497L78.7653 25.8897L79.6403 25.2247L79.0003 24.3797L80.0503 24.5247L80.2003 23.4347Z" fill="url(#paint9_linear_740_28249)"/>
<path d="M71.1053 20.4297L69.6803 20.0497L70.9553 19.3096L70.4053 18.3597L69.1253 19.0997L69.5053 17.6696L68.4453 17.3896L68.0653 18.8147L67.3253 17.5397L66.3703 18.0896L67.1103 19.3647L65.6853 18.9847L65.4053 20.0497L66.8303 20.4297L65.5553 21.1697L66.1053 22.1197L67.3803 21.3797L67.0003 22.8097L68.0653 23.0897L68.4453 21.6647L69.1853 22.9397L70.1353 22.3897L69.3953 21.1147L70.8253 21.4947L71.1053 20.4297Z" fill="url(#paint10_linear_740_28249)"/>
<path d="M92.9957 26.6295L92.9507 25.5345L91.8957 25.5745L92.6107 24.7945L91.8057 24.0495L91.0857 24.8295L91.0457 23.7695L89.9457 23.8145L89.9857 24.8695L89.2057 24.1545L88.4607 24.9595L89.2407 25.6795L88.1807 25.7195L88.2257 26.8195L89.2857 26.7795L88.5657 27.5545L89.3757 28.3045L90.0907 27.5245L90.1357 28.5845L91.2357 28.5395L91.1907 27.4795L91.9707 28.1995L92.7157 27.3895L91.9357 26.6745L92.9957 26.6295Z" fill="url(#paint11_linear_740_28249)"/>
<path d="M75.0011 45.7055C76.3269 45.7055 77.4017 44.8995 77.4017 43.9051C77.4017 42.9108 76.3269 42.1047 75.0011 42.1047C73.6753 42.1047 72.6006 42.9108 72.6006 43.9051C72.6006 44.8995 73.6753 45.7055 75.0011 45.7055Z" fill="url(#paint12_linear_740_28249)"/>
<defs>
<linearGradient id="paint0_linear_740_28249" x1="76.6099" y1="23.3239" x2="80.0555" y2="35.313" gradientUnits="userSpaceOnUse">
<stop offset="0.140625" stop-color="#FBBD90"/>
<stop offset="1" stop-color="#DE7756"/>
</linearGradient>
<linearGradient id="paint1_linear_740_28249" x1="58.4203" y1="23.648" x2="63.0046" y2="35.3013" gradientUnits="userSpaceOnUse">
<stop offset="0.140625" stop-color="#FBBD90"/>
<stop offset="1" stop-color="#DE7756"/>
</linearGradient>
<linearGradient id="paint2_linear_740_28249" x1="56.5407" y1="19.7378" x2="62.6996" y2="24.5282" gradientUnits="userSpaceOnUse">
<stop offset="0.09375" stop-color="#94FDAB"/>
<stop offset="1" stop-color="#09C4A2"/>
</linearGradient>
<linearGradient id="paint3_linear_740_28249" x1="54.608" y1="33.4295" x2="57.2895" y2="30.7023" gradientUnits="userSpaceOnUse">
<stop offset="0.140625" stop-color="#FBBD90"/>
<stop offset="1" stop-color="#DE7756"/>
</linearGradient>
<linearGradient id="paint4_linear_740_28249" x1="49.8031" y1="28.6841" x2="54.895" y2="32.6476" gradientUnits="userSpaceOnUse">
<stop offset="0.09375" stop-color="#94FDAB"/>
<stop offset="1" stop-color="#09C4A2"/>
</linearGradient>
<linearGradient id="paint5_linear_740_28249" x1="85.9248" y1="36.8301" x2="86.4562" y2="37.8651" gradientUnits="userSpaceOnUse">
<stop offset="0.140625" stop-color="#FBBD90"/>
<stop offset="1" stop-color="#DE7756"/>
</linearGradient>
<linearGradient id="paint6_linear_740_28249" x1="96.0922" y1="28.6345" x2="101.184" y2="32.5981" gradientUnits="userSpaceOnUse">
<stop offset="0.09375" stop-color="#94FDAB"/>
<stop offset="1" stop-color="#09C4A2"/>
</linearGradient>
<linearGradient id="paint7_linear_740_28249" x1="48.4856" y1="50.6058" x2="94.6738" y2="125.473" gradientUnits="userSpaceOnUse">
<stop offset="0.140625" stop-color="#FBBD90"/>
<stop offset="1" stop-color="#DE7756"/>
</linearGradient>
<linearGradient id="paint8_linear_740_28249" x1="82.8995" y1="16.7307" x2="88.955" y2="21.4407" gradientUnits="userSpaceOnUse">
<stop offset="0.09375" stop-color="#94FDAB"/>
<stop offset="1" stop-color="#09C4A2"/>
</linearGradient>
<linearGradient id="paint9_linear_740_28249" x1="76.2572" y1="21.6705" x2="79.9931" y2="24.5763" gradientUnits="userSpaceOnUse">
<stop offset="0.09375" stop-color="#94FDAB"/>
<stop offset="1" stop-color="#09C4A2"/>
</linearGradient>
<linearGradient id="paint10_linear_740_28249" x1="66.4996" y1="17.9162" x2="70.8633" y2="21.3103" gradientUnits="userSpaceOnUse">
<stop offset="0.09375" stop-color="#94FDAB"/>
<stop offset="1" stop-color="#09C4A2"/>
</linearGradient>
<linearGradient id="paint11_linear_740_28249" x1="89.1051" y1="24.2143" x2="92.7912" y2="27.0814" gradientUnits="userSpaceOnUse">
<stop offset="0.09375" stop-color="#94FDAB"/>
<stop offset="1" stop-color="#09C4A2"/>
</linearGradient>
<linearGradient id="paint12_linear_740_28249" x1="73.5224" y1="42.4374" x2="76.3646" y2="45.385" gradientUnits="userSpaceOnUse">
<stop offset="0.09375" stop-color="#94FDAB"/>
<stop offset="1" stop-color="#09C4A2"/>
</linearGradient>
</defs>
</svg>
