<svg width="312" height="192" viewBox="0 0 312 192" fill="none" xmlns="http://www.w3.org/2000/svg">
<circle cx="159.637" cy="72.1651" r="35.6368" fill="url(#paint0_linear_1482_23237)"/>
<mask id="mask0_1482_23237" style="mask-type:alpha" maskUnits="userSpaceOnUse" x="124" y="36" width="72" height="72">
<circle cx="159.637" cy="72.1651" r="35.6368" fill="white"/>
</mask>
<g mask="url(#mask0_1482_23237)">
<circle cx="159.636" cy="72.165" r="27.8413" fill="url(#paint1_linear_1482_23237)" stroke="white" stroke-opacity="0.793105" stroke-width="0.977616"/>
</g>
<g filter="url(#filter0_d_1482_23237)">
<path fill-rule="evenodd" clip-rule="evenodd" d="M168.598 57.6875C166.784 57.6875 165.309 59.1582 165.309 60.9658V73.5306L154.683 59.6242C153.929 58.6574 153 57.7632 151.324 57.7632H150.714C148.848 57.7632 147.387 59.2202 147.387 61.0801V82.2497C147.387 84.0577 148.863 85.5288 150.676 85.5288C152.489 85.5288 153.965 84.0577 153.965 82.2497V69.1518L165.01 83.5921C165.764 84.5581 166.693 85.4523 168.369 85.4523H168.559C170.426 85.4523 171.887 83.9957 171.887 82.1358V60.9658C171.887 59.1582 170.412 57.6875 168.598 57.6875" fill="white"/>
</g>
<path opacity="0.550409" fill-rule="evenodd" clip-rule="evenodd" d="M115.35 22.8314C113.189 19.6051 111.665 16.0717 110.954 13C110.243 16.076 108.719 19.6148 106.559 22.8452C104.408 26.063 102.052 28.3387 100 29.4081C102.051 30.4757 104.407 32.749 106.559 35.968C108.719 39.1984 110.243 42.7367 110.954 45.8132C111.665 42.7415 113.189 39.2081 115.35 35.9813C117.518 32.7436 119.894 30.463 121.956 29.4063C119.894 28.3496 117.518 26.069 115.35 22.8314Z" fill="#FFE000"/>
<path opacity="0.348331" fill-rule="evenodd" clip-rule="evenodd" d="M206.062 88.3943C205.068 86.9522 204.367 85.373 204.04 84C203.713 85.3748 203.011 86.9566 202.018 88.4005C201.028 89.8387 199.944 90.8559 199 91.3338C199.944 91.811 201.028 92.8271 202.018 94.2658C203.011 95.7097 203.713 97.2912 204.04 98.6663C204.367 97.2933 205.068 95.714 206.062 94.2718C207.06 92.8246 208.153 91.8053 209.102 91.333C208.153 90.8607 207.06 89.8414 206.062 88.3943Z" fill="#FFE000"/>
<path d="M201 55.7949H232.59" stroke="#FFE55E"/>
<path d="M216.795 40L216.795 71.5898" stroke="#FFE55E"/>
<path d="M209.547 48.5464L224.044 63.0436" stroke="#FFE55E"/>
<path d="M224.043 48.5464L209.546 63.0436" stroke="#FFE55E"/>
<path d="M112 110.79H131.58" stroke="#FFE55E" stroke-width="0.8"/>
<path d="M121.79 101L121.79 120.58" stroke="#FFE55E" stroke-width="0.8"/>
<path d="M117.297 106.297L126.283 115.283" stroke="#FFE55E" stroke-width="0.8"/>
<path d="M126.283 106.297L117.297 115.283" stroke="#FFE55E" stroke-width="0.8"/>
<path d="M210.917 163.402C210.917 163.402 228.722 166.114 238.032 156.804C247.341 147.495 244.63 129.69 244.63 129.69C244.63 129.69 226.825 126.979 217.516 136.288C208.206 145.598 210.917 163.402 210.917 163.402Z" fill="url(#paint2_linear_1482_23237)"/>
<path d="M205.934 168.281L227.359 146.856" stroke="#333333"/>
<path d="M218.224 155.773L228.82 153.972" stroke="#333333"/>
<path d="M141.917 163.402C141.917 163.402 159.722 166.114 169.032 156.804C178.341 147.495 175.63 129.69 175.63 129.69C175.63 129.69 157.825 126.979 148.516 136.288C139.206 145.598 141.917 163.402 141.917 163.402Z" fill="url(#paint3_linear_1482_23237)"/>
<path d="M136.934 168.281L158.359 146.856" stroke="#333333"/>
<path d="M149.224 155.773L159.82 153.972" stroke="#333333"/>
<path d="M72.5236 163.402C72.5236 163.402 90.3285 166.114 99.6381 156.804C108.948 147.495 106.237 129.69 106.237 129.69C106.237 129.69 88.4316 126.979 79.1221 136.288C69.8125 145.598 72.5236 163.402 72.5236 163.402Z" fill="url(#paint4_linear_1482_23237)"/>
<path d="M67.54 168.281L88.9653 146.856" stroke="#333333"/>
<path d="M79.8301 155.773L90.4265 153.972" stroke="#333333"/>
<path fill-rule="evenodd" clip-rule="evenodd" d="M170 20C164.477 20 160 24.4771 160 30V30.7479C160 36.2707 164.477 40.7479 170 40.7479H176.853L180.311 45.9346L183.769 40.7479H190.624C196.146 40.7479 200.624 36.2707 200.624 30.7479V30C200.624 24.4772 196.146 20 190.624 20H170Z" fill="url(#paint5_linear_1482_23237)"/>
<path d="M170.583 34.0967H170.713C171.26 34.0967 171.729 34.0306 172.121 33.8984C172.518 33.7617 172.843 33.5658 173.099 33.3105C173.354 33.0553 173.543 32.7432 173.666 32.374C173.789 32.0003 173.851 31.5765 173.851 31.1025V29.2158C173.851 28.8558 173.814 28.5391 173.741 28.2656C173.673 27.9922 173.573 27.7666 173.44 27.5889C173.313 27.4066 173.162 27.2699 172.989 27.1787C172.821 27.0876 172.634 27.042 172.429 27.042C172.21 27.042 172.016 27.0967 171.848 27.2061C171.679 27.3109 171.535 27.4544 171.417 27.6367C171.303 27.819 171.214 28.0286 171.15 28.2656C171.091 28.498 171.062 28.7419 171.062 28.9971C171.062 29.2523 171.091 29.4961 171.15 29.7285C171.21 29.9564 171.298 30.1592 171.417 30.3369C171.535 30.5101 171.684 30.6491 171.861 30.7539C172.039 30.8542 172.249 30.9043 172.49 30.9043C172.723 30.9043 172.93 30.861 173.112 30.7744C173.299 30.6833 173.456 30.5648 173.584 30.4189C173.716 30.2731 173.816 30.1113 173.885 29.9336C173.958 29.7559 173.994 29.5758 173.994 29.3936L174.644 29.749C174.644 30.068 174.575 30.3825 174.438 30.6924C174.302 31.0023 174.11 31.2848 173.864 31.54C173.623 31.7907 173.342 31.9912 173.023 32.1416C172.704 32.292 172.363 32.3672 171.998 32.3672C171.533 32.3672 171.121 32.2829 170.761 32.1143C170.401 31.9411 170.095 31.7041 169.845 31.4033C169.599 31.098 169.412 30.7425 169.284 30.3369C169.157 29.9313 169.093 29.4915 169.093 29.0176C169.093 28.5345 169.17 28.0811 169.325 27.6572C169.485 27.2334 169.71 26.8597 170.002 26.5361C170.298 26.2126 170.651 25.9596 171.062 25.7773C171.476 25.5905 171.937 25.4971 172.442 25.4971C172.948 25.4971 173.409 25.5951 173.823 25.791C174.238 25.987 174.593 26.265 174.89 26.625C175.186 26.9805 175.414 27.4066 175.573 27.9033C175.737 28.4001 175.819 28.9515 175.819 29.5576V30.2412C175.819 30.8883 175.749 31.4899 175.607 32.0459C175.471 32.6019 175.263 33.1055 174.985 33.5566C174.712 34.0033 174.37 34.3861 173.96 34.7051C173.554 35.0241 173.083 35.2679 172.545 35.4365C172.007 35.6051 171.406 35.6895 170.74 35.6895H170.583V34.0967ZM183.674 29.7422V31.4648C183.674 32.2122 183.594 32.8571 183.434 33.3994C183.275 33.9372 183.045 34.3792 182.744 34.7256C182.448 35.0674 182.094 35.3203 181.684 35.4844C181.274 35.6484 180.818 35.7305 180.317 35.7305C179.916 35.7305 179.542 35.6803 179.196 35.5801C178.85 35.4753 178.537 35.3135 178.259 35.0947C177.986 34.876 177.749 34.6003 177.549 34.2676C177.353 33.9303 177.202 33.5293 177.097 33.0645C176.993 32.5996 176.94 32.0664 176.94 31.4648V29.7422C176.94 28.9948 177.02 28.3545 177.179 27.8213C177.343 27.2835 177.574 26.8438 177.87 26.502C178.171 26.1602 178.526 25.9095 178.936 25.75C179.346 25.5859 179.802 25.5039 180.303 25.5039C180.704 25.5039 181.076 25.5563 181.418 25.6611C181.764 25.7614 182.076 25.9186 182.354 26.1328C182.632 26.347 182.869 26.6227 183.065 26.96C183.261 27.2926 183.411 27.6914 183.516 28.1562C183.621 28.6165 183.674 29.1452 183.674 29.7422ZM181.698 31.7246V29.4756C181.698 29.1156 181.677 28.8011 181.636 28.5322C181.6 28.2633 181.543 28.0355 181.466 27.8486C181.388 27.6572 181.292 27.5023 181.178 27.3838C181.064 27.2653 180.935 27.1787 180.789 27.124C180.643 27.0693 180.481 27.042 180.303 27.042C180.08 27.042 179.882 27.0853 179.709 27.1719C179.54 27.2585 179.396 27.3975 179.278 27.5889C179.16 27.7757 179.068 28.0264 179.005 28.3408C178.945 28.6507 178.916 29.029 178.916 29.4756V31.7246C178.916 32.0846 178.934 32.4014 178.97 32.6748C179.011 32.9482 179.071 33.1829 179.148 33.3789C179.23 33.5703 179.326 33.7275 179.435 33.8506C179.549 33.9691 179.679 34.0557 179.825 34.1104C179.975 34.165 180.139 34.1924 180.317 34.1924C180.536 34.1924 180.73 34.1491 180.898 34.0625C181.071 33.9714 181.217 33.8301 181.336 33.6387C181.459 33.4427 181.55 33.1875 181.609 32.873C181.668 32.5586 181.698 32.1758 181.698 31.7246ZM191.459 29.7422V31.4648C191.459 32.2122 191.38 32.8571 191.22 33.3994C191.061 33.9372 190.83 34.3792 190.53 34.7256C190.233 35.0674 189.88 35.3203 189.47 35.4844C189.06 35.6484 188.604 35.7305 188.103 35.7305C187.702 35.7305 187.328 35.6803 186.982 35.5801C186.635 35.4753 186.323 35.3135 186.045 35.0947C185.772 34.876 185.535 34.6003 185.334 34.2676C185.138 33.9303 184.988 33.5293 184.883 33.0645C184.778 32.5996 184.726 32.0664 184.726 31.4648V29.7422C184.726 28.9948 184.806 28.3545 184.965 27.8213C185.129 27.2835 185.359 26.8438 185.656 26.502C185.956 26.1602 186.312 25.9095 186.722 25.75C187.132 25.5859 187.588 25.5039 188.089 25.5039C188.49 25.5039 188.862 25.5563 189.203 25.6611C189.55 25.7614 189.862 25.9186 190.14 26.1328C190.418 26.347 190.655 26.6227 190.851 26.96C191.047 27.2926 191.197 27.6914 191.302 28.1562C191.407 28.6165 191.459 29.1452 191.459 29.7422ZM189.484 31.7246V29.4756C189.484 29.1156 189.463 28.8011 189.422 28.5322C189.386 28.2633 189.329 28.0355 189.251 27.8486C189.174 27.6572 189.078 27.5023 188.964 27.3838C188.85 27.2653 188.72 27.1787 188.575 27.124C188.429 27.0693 188.267 27.042 188.089 27.042C187.866 27.042 187.668 27.0853 187.495 27.1719C187.326 27.2585 187.182 27.3975 187.064 27.5889C186.945 27.7757 186.854 28.0264 186.79 28.3408C186.731 28.6507 186.702 29.029 186.702 29.4756V31.7246C186.702 32.0846 186.72 32.4014 186.756 32.6748C186.797 32.9482 186.856 33.1829 186.934 33.3789C187.016 33.5703 187.112 33.7275 187.221 33.8506C187.335 33.9691 187.465 34.0557 187.611 34.1104C187.761 34.165 187.925 34.1924 188.103 34.1924C188.322 34.1924 188.515 34.1491 188.684 34.0625C188.857 33.9714 189.003 33.8301 189.121 33.6387C189.245 33.4427 189.336 33.1875 189.395 32.873C189.454 32.5586 189.484 32.1758 189.484 31.7246Z" fill="white"/>
<defs>
<filter id="filter0_d_1482_23237" x="144.568" y="54.8689" width="30.1372" height="33.4785" filterUnits="userSpaceOnUse" color-interpolation-filters="sRGB">
<feFlood flood-opacity="0" result="BackgroundImageFix"/>
<feColorMatrix in="SourceAlpha" type="matrix" values="0 0 0 0 0 0 0 0 0 0 0 0 0 0 0 0 0 0 127 0" result="hardAlpha"/>
<feOffset/>
<feGaussianBlur stdDeviation="1.40931"/>
<feColorMatrix type="matrix" values="0 0 0 0 0.791667 0 0 0 0 0.3325 0 0 0 0 0 0 0 0 0.3 0"/>
<feBlend mode="normal" in2="BackgroundImageFix" result="effect1_dropShadow_1482_23237"/>
<feBlend mode="normal" in="SourceGraphic" in2="effect1_dropShadow_1482_23237" result="shape"/>
</filter>
<linearGradient id="paint0_linear_1482_23237" x1="124" y1="36.5283" x2="124" y2="107.802" gradientUnits="userSpaceOnUse">
<stop stop-color="#FFED69"/>
<stop offset="1" stop-color="#FFD623"/>
</linearGradient>
<linearGradient id="paint1_linear_1482_23237" x1="131.795" y1="44.3237" x2="131.795" y2="100.006" gradientUnits="userSpaceOnUse">
<stop stop-color="#FFF852"/>
<stop offset="1" stop-color="#FFE921"/>
</linearGradient>
<linearGradient id="paint2_linear_1482_23237" x1="235.197" y1="126.485" x2="246.043" y2="156.827" gradientUnits="userSpaceOnUse">
<stop offset="0.09375" stop-color="#8DF1A9"/>
<stop offset="1" stop-color="#3AD8C5"/>
</linearGradient>
<linearGradient id="paint3_linear_1482_23237" x1="166.197" y1="126.485" x2="177.043" y2="156.827" gradientUnits="userSpaceOnUse">
<stop offset="0.09375" stop-color="#8DF1A9"/>
<stop offset="1" stop-color="#3AD8C5"/>
</linearGradient>
<linearGradient id="paint4_linear_1482_23237" x1="96.8033" y1="126.485" x2="107.649" y2="156.827" gradientUnits="userSpaceOnUse">
<stop offset="0.09375" stop-color="#8DF1A9"/>
<stop offset="1" stop-color="#3AD8C5"/>
</linearGradient>
<linearGradient id="paint5_linear_1482_23237" x1="180.637" y1="48.0376" x2="165.137" y2="21.0376" gradientUnits="userSpaceOnUse">
<stop stop-color="#FF614C"/>
<stop offset="1" stop-color="#FF9E80"/>
</linearGradient>
</defs>
</svg>
