<svg width="150" height="150" viewBox="0 0 150 150" fill="none" xmlns="http://www.w3.org/2000/svg">
<path d="M79.1953 106.573H70.8047V131.894H79.1953V106.573Z" fill="url(#paint0_linear_740_28248)"/>
<path d="M75.0005 110.62C96.5394 110.62 114 91.2293 114 67.3099C114 43.3905 96.5394 24 75.0005 24C53.4617 24 36.001 43.3905 36.001 67.3099C36.001 91.2293 53.4617 110.62 75.0005 110.62Z" fill="url(#paint1_linear_740_28248)"/>
<path d="M75.0001 65.1631C76.6235 65.1631 77.9396 64.1774 77.9396 62.9616C77.9396 61.7457 76.6235 60.76 75.0001 60.76C73.3766 60.76 72.0605 61.7457 72.0605 62.9616C72.0605 64.1774 73.3766 65.1631 75.0001 65.1631Z" fill="#FBFBFB"/>
<path fill-rule="evenodd" clip-rule="evenodd" d="M66.8814 69.399V67.7627H65.4814V70.799H84.5186V67.7627H83.1186V69.399H66.8814Z" fill="#333333"/>
<path fill-rule="evenodd" clip-rule="evenodd" d="M67.8094 60.6973H65.6094V63.3593H67.8094V60.6973Z" fill="#333333"/>
<path fill-rule="evenodd" clip-rule="evenodd" d="M84.3924 60.6973H82.1924V63.3593H84.3924V60.6973Z" fill="#333333"/>
<path d="M62.3717 48.0121H58.0605L61.1066 44.966L59.7167 43.5844L56.6706 46.6305V42.3193H54.7147V46.6305L51.6603 43.5844L50.2787 44.966L53.3248 48.0121H49.0137V49.9763H53.3248L50.2787 53.0224L51.6603 54.4123L54.7147 51.3662V55.6691H56.6706V51.3662L59.7167 54.4123L61.1066 53.0224L58.0605 49.9763H62.3717V48.0121Z" fill="#FBFBFB"/>
<defs>
<linearGradient id="paint0_linear_740_28248" x1="70.06" y1="111.87" x2="83.363" y2="127.146" gradientUnits="userSpaceOnUse">
<stop offset="0.140625" stop-color="#FBBD90"/>
<stop offset="1" stop-color="#DE7756"/>
</linearGradient>
<linearGradient id="paint1_linear_740_28248" x1="50.9764" y1="32.0014" x2="115.273" y2="77.0348" gradientUnits="userSpaceOnUse">
<stop offset="0.09375" stop-color="#94FDAB"/>
<stop offset="1" stop-color="#09C4A2"/>
</linearGradient>
</defs>
</svg>
