<svg width="150" height="150" viewBox="0 0 150 150" fill="none" xmlns="http://www.w3.org/2000/svg">
<path fill-rule="evenodd" clip-rule="evenodd" d="M61.6309 69.6379H84.0367V84.8023H100.093C101.75 84.8023 103.093 83.4591 103.093 81.8023V76.6506H107.721V81.3779C107.721 85.7962 104.14 89.3779 99.7213 89.3779H84.0367V115.75H61.6309V69.6379Z" fill="url(#paint0_linear_1290_48396)"/>
<path d="M72.8358 29.75C48.8702 29.75 29.4404 48.3476 29.4404 71.2916H116.227C116.227 48.3476 96.7968 29.75 72.8358 29.75Z" fill="url(#paint1_radial_1290_48396)"/>
<path d="M72.8342 79.302C73.8327 79.302 74.6421 78.7018 74.6421 77.9615C74.6421 77.2212 73.8327 76.6211 72.8342 76.6211C71.8358 76.6211 71.0264 77.2212 71.0264 77.9615C71.0264 78.7018 71.8358 79.302 72.8342 79.302Z" fill="url(#paint2_linear_1290_48396)"/>
<path fill-rule="evenodd" clip-rule="evenodd" d="M67.9072 78.4304V76.9753H69.4465V78.4304H67.9072Z" fill="#333333"/>
<path fill-rule="evenodd" clip-rule="evenodd" d="M76.2227 78.4304V76.9753H77.762V78.4304H76.2227Z" fill="#333333"/>
<path fill-rule="evenodd" clip-rule="evenodd" d="M67.3057 81.6839L68.1937 81.1282L68.9653 82.3331H76.7199L77.4711 81.1327L78.3649 81.6794L77.3056 83.3721H68.3867L67.3057 81.6839Z" fill="#333333"/>
<path fill-rule="evenodd" clip-rule="evenodd" d="M73.3596 80.8857V83.2811H72.3086V80.8857H73.3596Z" fill="#333333"/>
<path d="M104.852 62.0405C96.1859 62.0405 89.1593 68.7651 89.1593 77.0622H120.56C120.56 68.7651 113.513 62.0405 104.852 62.0405Z" fill="url(#paint3_radial_1290_48396)"/>
<defs>
<linearGradient id="paint0_linear_1290_48396" x1="57.5404" y1="79.2835" x2="70.5765" y2="124.437" gradientUnits="userSpaceOnUse">
<stop offset="0.140625" stop-color="#FBBD90"/>
<stop offset="1" stop-color="#DE7756"/>
</linearGradient>
<radialGradient id="paint1_radial_1290_48396" cx="0" cy="0" r="1" gradientUnits="userSpaceOnUse" gradientTransform="translate(69.1719 70.8781) rotate(180) scale(47.4997 46.9844)">
<stop stop-color="#00CD9C"/>
<stop offset="0.473958" stop-color="#50EAA0"/>
<stop offset="1" stop-color="#A3F2B4"/>
</radialGradient>
<linearGradient id="paint2_linear_1290_48396" x1="72.0978" y1="76.9902" x2="72.5931" y2="79.2995" gradientUnits="userSpaceOnUse">
<stop stop-color="#9AFFB0"/>
<stop offset="1" stop-color="#00BD90"/>
</linearGradient>
<radialGradient id="paint3_radial_1290_48396" cx="0" cy="0" r="1" gradientUnits="userSpaceOnUse" gradientTransform="translate(106.184 76.9127) scale(17.186 16.9899)">
<stop stop-color="#00CD9C"/>
<stop offset="0.473958" stop-color="#50EAA0"/>
<stop offset="1" stop-color="#A3F2B4"/>
</radialGradient>
</defs>
</svg>
