<svg width="24" height="24" viewBox="0 0 24 24" fill="none" xmlns="http://www.w3.org/2000/svg">
<path d="M12 13.3718C7.44 13.3718 3.75 16.7318 3.75 20.8718H20.25C20.25 16.7318 16.56 13.3718 12 13.3718Z" stroke="#29D3C6" stroke-width="1.6" stroke-linecap="round" stroke-linejoin="round"/>
<path d="M12 9.97156C12.6922 9.97156 13.3689 9.76629 13.9445 9.3817C14.5201 8.99712 14.9687 8.45049 15.2336 7.81095C15.4985 7.17141 15.5678 6.46768 15.4327 5.78874C15.2977 5.10981 14.9644 4.48617 14.4749 3.99669C13.9854 3.5072 13.3618 3.17386 12.6828 3.03881C12.0039 2.90376 11.3001 2.97307 10.6606 3.23798C10.0211 3.50289 9.47444 3.95149 9.08986 4.52706C8.70527 5.10264 8.5 5.77932 8.5 6.47156C8.5 7.39982 8.86875 8.29006 9.52513 8.94643C10.1815 9.60281 11.0717 9.97156 12 9.97156Z" stroke="#29D3C6" stroke-width="1.6" stroke-linecap="round" stroke-linejoin="round"/>
</svg>
