<svg width="24" height="24" viewBox="0 0 24 24" fill="none" xmlns="http://www.w3.org/2000/svg">
<path d="M21.8312 10.9209C22.0051 10.9209 22.173 10.9839 22.304 11.0981C22.4351 11.2124 22.5203 11.3702 22.5439 11.5424L22.5506 11.6403V19.7931C22.5507 20.7139 22.1976 21.5996 21.5642 22.2679C20.9307 22.9361 20.0651 23.336 19.1456 23.3851L18.9538 23.3899H5.04605C4.12511 23.39 3.23922 23.0368 2.57094 22.4031C1.90265 21.7695 1.50289 20.9036 1.45401 19.9839L1.44922 19.7921V11.6393C1.44952 11.4571 1.51892 11.2818 1.64343 11.1488C1.76794 11.0158 1.93827 10.935 2.12003 10.9227C2.30179 10.9105 2.48146 10.9676 2.62274 11.0826C2.76402 11.1976 2.85641 11.3619 2.88124 11.5424L2.88795 11.6403V19.7931C2.88788 20.3399 3.09541 20.8664 3.46859 21.2661C3.84177 21.6658 4.35278 21.9089 4.89834 21.9464L5.04605 21.9512H18.9538C19.5006 21.9512 20.0271 21.7437 20.4268 21.3705C20.8265 20.9973 21.0697 20.4863 21.1071 19.9408L21.1119 19.7931V11.6403C21.1119 11.4495 21.1877 11.2665 21.3226 11.1316C21.4575 10.9967 21.6405 10.9209 21.8312 10.9209V10.9209ZM11.8695 0.621495L11.9337 0.612863L12.0162 0.609985L12.0738 0.613822L12.1639 0.629168L12.2292 0.647392L12.2867 0.668494L12.3538 0.703023L12.4028 0.733716L12.4392 0.759613L12.5083 0.82004L18.6123 6.9241C18.7414 7.0523 18.8171 7.22462 18.8242 7.40638C18.8312 7.58814 18.7692 7.76584 18.6506 7.9037C18.5319 8.04157 18.3654 8.12936 18.1846 8.14942C18.0039 8.16947 17.8222 8.12029 17.6762 8.01178L17.5956 7.94176L12.7193 3.06542V15.9565C12.7193 16.1303 12.6563 16.2982 12.5421 16.4293C12.4278 16.5603 12.27 16.6455 12.0978 16.6691L11.9999 16.6758C11.8261 16.6758 11.6581 16.6129 11.5271 16.4986C11.3961 16.3843 11.3109 16.2265 11.2873 16.0543L11.2806 15.9565V3.06542L6.40421 7.94176C6.28241 8.06359 6.12093 8.13766 5.94914 8.15051C5.77734 8.16336 5.60664 8.11413 5.46808 8.01178L5.38751 7.94176C5.26568 7.81996 5.1916 7.65848 5.17875 7.48669C5.1659 7.3149 5.21513 7.1442 5.31749 7.00563L5.38751 6.9241L11.4916 0.820999L11.5971 0.734676L11.6882 0.681922L11.7707 0.648351L11.8695 0.622454V0.621495Z" fill="#29D3C6"/>
</svg>
